<svg xmlns="http://www.w3.org/2000/svg" xmlns:dc="http://purl.org/dc/elements/1.1/" xmlns:ns2="http://creativecommons.org/ns#" xmlns:ns4="http://www.w3.org/1999/xlink" xmlns:rdf="http://www.w3.org/1999/02/22-rdf-syntax-ns#" height="576pt" version="1.1" viewBox="0 0 1296 576" width="1296pt">
 <metadata>
  <rdf:RDF>
   <ns2:Work>
    <dc:type rdf:resource="http://purl.org/dc/dcmitype/StillImage" />
    <dc:date>2021-07-29T12:18:42.967196</dc:date>
    <dc:format>image/svg+xml</dc:format>
    <dc:creator>
     <ns2:Agent>
      <dc:title>Matplotlib v3.3.4, https://matplotlib.org/</dc:title>
     </ns2:Agent>
    </dc:creator>
   </ns2:Work>
  </rdf:RDF>
 </metadata>
 <defs>
  <style type="text/css">*{stroke-linecap:butt;stroke-linejoin:round;}</style>
 </defs>
 <g id="figure_1">
  <g id="patch_1">
   <path d="M 0 576  L 1296 576  L 1296 0  L 0 0  z " style="fill:#ffffff;" />
  </g>
  <g id="axes_1">
   <g id="patch_2">
    <path d="M 162 512.64  L 1166.4 512.64  L 1166.4 69.12  L 162 69.12  z " style="fill:#ffffff;" />
   </g>
   <g id="patch_3">
    <path clip-path="url(#pf4a77d1f4c)" d="M 1120.745455 169.564758  L 1109.7 169.564758  L 1109.7 143.134731  L 1120.745455 143.134731  z " style="fill:#008000;stroke:#000000;stroke-linejoin:miter;" />
   </g>
   <g id="patch_4">
    <path clip-path="url(#pf4a77d1f4c)" d="M 1102.336364 143.418925  L 1091.290909 143.418925  L 1091.290909 121.607048  L 1102.336364 121.607048  z " style="fill:#ff0000;stroke:#000000;stroke-linejoin:miter;" />
   </g>
   <g id="patch_5">
    <path clip-path="url(#pf4a77d1f4c)" d="M 1083.927273 175.959119  L 1072.881818 175.959119  L 1072.881818 123.099066  L 1083.927273 123.099066  z " style="fill:#008000;stroke:#000000;stroke-linejoin:miter;" />
   </g>
   <g id="patch_6">
    <path clip-path="url(#pf4a77d1f4c)" d="M 1065.518182 153.934097  L 1054.472727 153.934097  L 1054.472727 123.38326  L 1065.518182 123.38326  z " style="fill:#ff0000;stroke:#000000;stroke-linejoin:miter;" />
   </g>
   <g id="patch_7">
    <path clip-path="url(#pf4a77d1f4c)" d="M 1047.109091 123.38326  L 1036.063636 123.38326  L 1036.063636 122.033339  L 1047.109091 122.033339  z " style="fill:#008000;stroke:#000000;stroke-linejoin:miter;" />
   </g>
   <g id="patch_8">
    <path clip-path="url(#pf4a77d1f4c)" d="M 1028.7 151.802643  L 1017.654545 151.802643  L 1017.654545 125.443665  L 1028.7 125.443665  z " style="fill:#008000;stroke:#000000;stroke-linejoin:miter;" />
   </g>
   <g id="patch_9">
    <path clip-path="url(#pf4a77d1f4c)" d="M 1010.290909 148.25022  L 999.245455 148.25022  L 999.245455 140.008599  L 1010.290909 140.008599  z " style="fill:#ff0000;stroke:#000000;stroke-linejoin:miter;" />
   </g>
   <g id="patch_10">
    <path clip-path="url(#pf4a77d1f4c)" d="M 991.881818 161.749427  L 980.836364 161.749427  L 980.836364 140.008599  L 991.881818 140.008599  z " style="fill:#008000;stroke:#000000;stroke-linejoin:miter;" />
   </g>
   <g id="patch_11">
    <path clip-path="url(#pf4a77d1f4c)" d="M 973.472727 176.8117  L 962.427273 176.8117  L 962.427273 119.120352  L 973.472727 119.120352  z " style="fill:#ff0000;stroke:#000000;stroke-linejoin:miter;" />
   </g>
   <g id="patch_12">
    <path clip-path="url(#pf4a77d1f4c)" d="M 955.063636 122.45963  L 944.018182 122.45963  L 944.018182 112.015507  L 955.063636 112.015507  z " style="fill:#ff0000;stroke:#000000;stroke-linejoin:miter;" />
   </g>
   <g id="patch_13">
    <path clip-path="url(#pf4a77d1f4c)" d="M 936.654545 161.038943  L 925.609091 161.038943  L 925.609091 117.770432  L 936.654545 117.770432  z " style="fill:#008000;stroke:#000000;stroke-linejoin:miter;" />
   </g>
   <g id="patch_14">
    <path clip-path="url(#pf4a77d1f4c)" d="M 918.245455 168.99637  L 907.2 168.99637  L 907.2 148.960705  L 918.245455 148.960705  z " style="fill:#ff0000;stroke:#000000;stroke-linejoin:miter;" />
   </g>
   <g id="patch_15">
    <path clip-path="url(#pf4a77d1f4c)" d="M 899.836364 184.271789  L 888.790909 184.271789  L 888.790909 144.200458  L 899.836364 144.200458  z " style="fill:#008000;stroke:#000000;stroke-linejoin:miter;" />
   </g>
   <g id="patch_16">
    <path clip-path="url(#pf4a77d1f4c)" d="M 881.427273 218.232952  L 870.381818 218.232952  L 870.381818 187.184775  L 881.427273 187.184775  z " style="fill:#008000;stroke:#000000;stroke-linejoin:miter;" />
   </g>
   <g id="patch_17">
    <path clip-path="url(#pf4a77d1f4c)" d="M 863.018182 220.790696  L 851.972727 220.790696  L 851.972727 197.273656  L 863.018182 197.273656  z " style="fill:#ff0000;stroke:#000000;stroke-linejoin:miter;" />
   </g>
   <g id="patch_18">
    <path clip-path="url(#pf4a77d1f4c)" d="M 844.609091 212.76222  L 833.563636 212.76222  L 833.563636 202.886485  L 844.609091 202.886485  z " style="fill:#008000;stroke:#000000;stroke-linejoin:miter;" />
   </g>
   <g id="patch_19">
    <path clip-path="url(#pf4a77d1f4c)" d="M 826.2 203.739066  L 815.154545 203.739066  L 815.154545 190.310907  L 826.2 190.310907  z " style="fill:#ff0000;stroke:#000000;stroke-linejoin:miter;" />
   </g>
   <g id="patch_20">
    <path clip-path="url(#pf4a77d1f4c)" d="M 807.790909 212.478026  L 796.745455 212.478026  L 796.745455 182.850819  L 807.790909 182.850819  z " style="fill:#008000;stroke:#000000;stroke-linejoin:miter;" />
   </g>
   <g id="patch_21">
    <path clip-path="url(#pf4a77d1f4c)" d="M 789.381818 236.421357  L 778.336364 236.421357  L 778.336364 215.106819  L 789.381818 215.106819  z " style="fill:#008000;stroke:#000000;stroke-linejoin:miter;" />
   </g>
   <g id="patch_22">
    <path clip-path="url(#pf4a77d1f4c)" d="M 770.972727 238.197568  L 759.927273 238.197568  L 759.927273 190.168811  L 770.972727 190.168811  z " style="fill:#ff0000;stroke:#000000;stroke-linejoin:miter;" />
   </g>
   <g id="patch_23">
    <path clip-path="url(#pf4a77d1f4c)" d="M 752.563636 228.534978  L 741.518182 228.534978  L 741.518182 205.160035  L 752.563636 205.160035  z " style="fill:#008000;stroke:#000000;stroke-linejoin:miter;" />
   </g>
   <g id="patch_24">
    <path clip-path="url(#pf4a77d1f4c)" d="M 734.154545 232.442643  L 723.109091 232.442643  L 723.109091 225.621991  L 734.154545 225.621991  z " style="fill:#ff0000;stroke:#000000;stroke-linejoin:miter;" />
   </g>
   <g id="patch_25">
    <path clip-path="url(#pf4a77d1f4c)" d="M 715.745455 268.322115  L 704.7 268.322115  L 704.7 242.531524  L 715.745455 242.531524  z " style="fill:#008000;stroke:#000000;stroke-linejoin:miter;" />
   </g>
   <g id="patch_26">
    <path clip-path="url(#pf4a77d1f4c)" d="M 697.336364 286.439471  L 686.290909 286.439471  L 686.290909 269.103648  L 697.336364 269.103648  z " style="fill:#ff0000;stroke:#000000;stroke-linejoin:miter;" />
   </g>
   <g id="patch_27">
    <path clip-path="url(#pf4a77d1f4c)" d="M 678.927273 302.425374  L 667.881818 302.425374  L 667.881818 268.393163  L 678.927273 268.393163  z " style="fill:#008000;stroke:#000000;stroke-linejoin:miter;" />
   </g>
   <g id="patch_28">
    <path clip-path="url(#pf4a77d1f4c)" d="M 660.518182 357.345833  L 649.472727 357.345833  L 649.472727 320.045392  L 660.518182 320.045392  z " style="fill:#008000;stroke:#000000;stroke-linejoin:miter;" />
   </g>
   <g id="patch_29">
    <path clip-path="url(#pf4a77d1f4c)" d="M 642.109091 358.127366  L 631.063636 358.127366  L 631.063636 334.041938  L 642.109091 334.041938  z " style="fill:#ff0000;stroke:#000000;stroke-linejoin:miter;" />
   </g>
   <g id="patch_30">
    <path clip-path="url(#pf4a77d1f4c)" d="M 623.7 349.743648  L 612.654545 349.743648  L 612.654545 319.619101  L 623.7 319.619101  z " style="fill:#ff0000;stroke:#000000;stroke-linejoin:miter;" />
   </g>
   <g id="patch_31">
    <path clip-path="url(#pf4a77d1f4c)" d="M 605.290909 367.789956  L 594.245455 367.789956  L 594.245455 311.022238  L 605.290909 311.022238  z " style="fill:#008000;stroke:#000000;stroke-linejoin:miter;" />
   </g>
   <g id="patch_32">
    <path clip-path="url(#pf4a77d1f4c)" d="M 586.881818 345.48074  L 575.836364 345.48074  L 575.836364 298.872952  L 586.881818 298.872952  z " style="fill:#ff0000;stroke:#000000;stroke-linejoin:miter;" />
   </g>
   <g id="patch_33">
    <path clip-path="url(#pf4a77d1f4c)" d="M 568.472727 320.897974  L 557.427273 320.897974  L 557.427273 318.411278  L 568.472727 318.411278  z " style="fill:#008000;stroke:#000000;stroke-linejoin:miter;" />
   </g>
   <g id="patch_34">
    <path clip-path="url(#pf4a77d1f4c)" d="M 550.063636 332.265727  L 539.018182 332.265727  L 539.018182 330.489515  L 550.063636 330.489515  z " style="fill:#008000;stroke:#000000;stroke-linejoin:miter;" />
   </g>
   <g id="patch_35">
    <path clip-path="url(#pf4a77d1f4c)" d="M 531.654545 360.68511  L 520.609091 360.68511  L 520.609091 341.430978  L 531.654545 341.430978  z " style="fill:#008000;stroke:#000000;stroke-linejoin:miter;" />
   </g>
   <g id="patch_36">
    <path clip-path="url(#pf4a77d1f4c)" d="M 513.245455 369.210925  L 502.2 369.210925  L 502.2 308.109251  L 513.245455 308.109251  z " style="fill:#ff0000;stroke:#000000;stroke-linejoin:miter;" />
   </g>
   <g id="patch_37">
    <path clip-path="url(#pf4a77d1f4c)" d="M 494.836364 381.999648  L 483.790909 381.999648  L 483.790909 328.002819  L 494.836364 328.002819  z " style="fill:#008000;stroke:#000000;stroke-linejoin:miter;" />
   </g>
   <g id="patch_38">
    <path clip-path="url(#pf4a77d1f4c)" d="M 476.427273 369.210925  L 465.381818 369.210925  L 465.381818 349.672599  L 476.427273 349.672599  z " style="fill:#008000;stroke:#000000;stroke-linejoin:miter;" />
   </g>
   <g id="patch_39">
    <path clip-path="url(#pf4a77d1f4c)" d="M 458.018182 357.772123  L 446.972727 357.772123  L 446.972727 352.159295  L 458.018182 352.159295  z " style="fill:#ff0000;stroke:#000000;stroke-linejoin:miter;" />
   </g>
   <g id="patch_40">
    <path clip-path="url(#pf4a77d1f4c)" d="M 439.609091 366.368987  L 428.563636 366.368987  L 428.563636 364.734872  L 439.609091 364.734872  z " style="fill:#008000;stroke:#000000;stroke-linejoin:miter;" />
   </g>
   <g id="patch_41">
    <path clip-path="url(#pf4a77d1f4c)" d="M 421.2 402.816846  L 410.154545 402.816846  L 410.154545 382.35489  L 421.2 382.35489  z " style="fill:#008000;stroke:#000000;stroke-linejoin:miter;" />
   </g>
   <g id="patch_42">
    <path clip-path="url(#pf4a77d1f4c)" d="M 402.790909 441.680352  L 391.745455 441.680352  L 391.745455 403.669427  L 402.790909 403.669427  z " style="fill:#008000;stroke:#000000;stroke-linejoin:miter;" />
   </g>
   <g id="patch_43">
    <path clip-path="url(#pf4a77d1f4c)" d="M 384.381818 448.927295  L 373.336364 448.927295  L 373.336364 430.454696  L 384.381818 430.454696  z " style="fill:#ff0000;stroke:#000000;stroke-linejoin:miter;" />
   </g>
   <g id="patch_44">
    <path clip-path="url(#pf4a77d1f4c)" d="M 365.972727 431.804617  L 354.927273 431.804617  L 354.927273 422.284123  L 365.972727 422.284123  z " style="fill:#008000;stroke:#000000;stroke-linejoin:miter;" />
   </g>
   <g id="patch_45">
    <path clip-path="url(#pf4a77d1f4c)" d="M 347.563636 430.596793  L 336.518182 430.596793  L 336.518182 211.483348  L 347.563636 211.483348  z " style="fill:#ff0000;stroke:#000000;stroke-linejoin:miter;" />
   </g>
   <g id="patch_46">
    <path clip-path="url(#pf4a77d1f4c)" d="M 329.154545 382.639084  L 318.109091 382.639084  L 318.109091 358.198414  L 329.154545 358.198414  z " style="fill:#008000;stroke:#000000;stroke-linejoin:miter;" />
   </g>
   <g id="patch_47">
    <path clip-path="url(#pf4a77d1f4c)" d="M 310.745455 407.434996  L 299.7 407.434996  L 299.7 351.093568  L 310.745455 351.093568  z " style="fill:#008000;stroke:#000000;stroke-linejoin:miter;" />
   </g>
   <g id="patch_48">
    <path clip-path="url(#pf4a77d1f4c)" d="M 292.336364 415.179278  L 281.290909 415.179278  L 281.290909 339.370573  L 292.336364 339.370573  z " style="fill:#ff0000;stroke:#000000;stroke-linejoin:miter;" />
   </g>
   <g id="patch_49">
    <path clip-path="url(#pf4a77d1f4c)" d="M 273.927273 350.525181  L 262.881818 350.525181  L 262.881818 332.265727  L 273.927273 332.265727  z " style="fill:#ff0000;stroke:#000000;stroke-linejoin:miter;" />
   </g>
   <g id="patch_50">
    <path clip-path="url(#pf4a77d1f4c)" d="M 255.518182 345.48074  L 244.472727 345.48074  L 244.472727 275.498009  L 255.518182 275.498009  z " style="fill:#ff0000;stroke:#000000;stroke-linejoin:miter;" />
   </g>
   <g id="patch_51">
    <path clip-path="url(#pf4a77d1f4c)" d="M 237.109091 238.837004  L 226.063636 238.837004  L 226.063636 184.484934  L 237.109091 184.484934  z " style="fill:#ff0000;stroke:#000000;stroke-linejoin:miter;" />
   </g>
   <g id="patch_52">
    <path clip-path="url(#pf4a77d1f4c)" d="M 218.7 289.636652  L 207.654545 289.636652  L 207.654545 209.138749  L 218.7 209.138749  z " style="fill:#008000;stroke:#000000;stroke-linejoin:miter;" />
   </g>
   <g id="matplotlib.axis_1">
    <g id="xtick_1">
     <g id="line2d_1">
      <path clip-path="url(#pf4a77d1f4c)" d="M 1115.222727 512.64  L 1115.222727 69.12  " style="fill:none;stroke:#000000;stroke-dasharray:2.96,1.28;stroke-dashoffset:0;stroke-opacity:0.3;stroke-width:0.8;" />
     </g>
     <g id="line2d_2">
      <defs>
       <path d="M 0 0  L 0 3.5  " id="m31ba32a448" style="stroke:#000000;stroke-width:0.8;" />
      </defs>
      <g>
       <use style="stroke:#000000;stroke-width:0.8;" x="1115.222727" ns4:href="#m31ba32a448" y="512.64" />
      </g>
     </g>
     <g id="text_1">
      
      <g transform="translate(1086.164915 527.238438)scale(0.1 -0.1)">
       <defs>
        <path d="M 19.1875 8.296875  L 53.609375 8.296875  L 53.609375 0  L 7.328125 0  L 7.328125 8.296875  Q 12.9375 14.109375 22.625 23.890625  Q 32.328125 33.6875 34.8125 36.53125  Q 39.546875 41.84375 41.421875 45.53125  Q 43.3125 49.21875 43.3125 52.78125  Q 43.3125 58.59375 39.234375 62.25  Q 35.15625 65.921875 28.609375 65.921875  Q 23.96875 65.921875 18.8125 64.3125  Q 13.671875 62.703125 7.8125 59.421875  L 7.8125 69.390625  Q 13.765625 71.78125 18.9375 73  Q 24.125 74.21875 28.421875 74.21875  Q 39.75 74.21875 46.484375 68.546875  Q 53.21875 62.890625 53.21875 53.421875  Q 53.21875 48.921875 51.53125 44.890625  Q 49.859375 40.875 45.40625 35.40625  Q 44.1875 33.984375 37.640625 27.21875  Q 31.109375 20.453125 19.1875 8.296875  z " id="DejaVuSans-50" />
        <path d="M 31.78125 66.40625  Q 24.171875 66.40625 20.328125 58.90625  Q 16.5 51.421875 16.5 36.375  Q 16.5 21.390625 20.328125 13.890625  Q 24.171875 6.390625 31.78125 6.390625  Q 39.453125 6.390625 43.28125 13.890625  Q 47.125 21.390625 47.125 36.375  Q 47.125 51.421875 43.28125 58.90625  Q 39.453125 66.40625 31.78125 66.40625  z M 31.78125 74.21875  Q 44.046875 74.21875 50.515625 64.515625  Q 56.984375 54.828125 56.984375 36.375  Q 56.984375 17.96875 50.515625 8.265625  Q 44.046875 -1.421875 31.78125 -1.421875  Q 19.53125 -1.421875 13.0625 8.265625  Q 6.59375 17.96875 6.59375 36.375  Q 6.59375 54.828125 13.0625 64.515625  Q 19.53125 74.21875 31.78125 74.21875  z " id="DejaVuSans-48" />
        <path d="M 12.40625 8.296875  L 28.515625 8.296875  L 28.515625 63.921875  L 10.984375 60.40625  L 10.984375 69.390625  L 28.421875 72.90625  L 38.28125 72.90625  L 38.28125 8.296875  L 54.390625 8.296875  L 54.390625 0  L 12.40625 0  z " id="DejaVuSans-49" />
        <path d="M 4.890625 31.390625  L 31.203125 31.390625  L 31.203125 23.390625  L 4.890625 23.390625  z " id="DejaVuSans-45" />
        <path d="M 33.015625 40.375  Q 26.375 40.375 22.484375 35.828125  Q 18.609375 31.296875 18.609375 23.390625  Q 18.609375 15.53125 22.484375 10.953125  Q 26.375 6.390625 33.015625 6.390625  Q 39.65625 6.390625 43.53125 10.953125  Q 47.40625 15.53125 47.40625 23.390625  Q 47.40625 31.296875 43.53125 35.828125  Q 39.65625 40.375 33.015625 40.375  z M 52.59375 71.296875  L 52.59375 62.3125  Q 48.875 64.0625 45.09375 64.984375  Q 41.3125 65.921875 37.59375 65.921875  Q 27.828125 65.921875 22.671875 59.328125  Q 17.53125 52.734375 16.796875 39.40625  Q 19.671875 43.65625 24.015625 45.921875  Q 28.375 48.1875 33.59375 48.1875  Q 44.578125 48.1875 50.953125 41.515625  Q 57.328125 34.859375 57.328125 23.390625  Q 57.328125 12.15625 50.6875 5.359375  Q 44.046875 -1.421875 33.015625 -1.421875  Q 20.359375 -1.421875 13.671875 8.265625  Q 6.984375 17.96875 6.984375 36.375  Q 6.984375 53.65625 15.1875 63.9375  Q 23.390625 74.21875 37.203125 74.21875  Q 40.921875 74.21875 44.703125 73.484375  Q 48.484375 72.75 52.59375 71.296875  z " id="DejaVuSans-54" />
       </defs>
       <use ns4:href="#DejaVuSans-50" />
       <use x="63.623047" ns4:href="#DejaVuSans-48" />
       <use x="127.246094" ns4:href="#DejaVuSans-50" />
       <use x="190.869141" ns4:href="#DejaVuSans-49" />
       <use x="254.492188" ns4:href="#DejaVuSans-45" />
       <use x="290.576172" ns4:href="#DejaVuSans-48" />
       <use x="354.199219" ns4:href="#DejaVuSans-54" />
       <use x="417.822266" ns4:href="#DejaVuSans-45" />
       <use x="453.90625" ns4:href="#DejaVuSans-50" />
       <use x="517.529297" ns4:href="#DejaVuSans-49" />
      </g>
     </g>
    </g>
    <g id="xtick_2">
     <g id="line2d_3">
      <path clip-path="url(#pf4a77d1f4c)" d="M 1078.404545 512.64  L 1078.404545 69.12  " style="fill:none;stroke:#000000;stroke-dasharray:2.96,1.28;stroke-dashoffset:0;stroke-opacity:0.3;stroke-width:0.8;" />
     </g>
     <g id="line2d_4">
      <g>
       <use style="stroke:#000000;stroke-width:0.8;" x="1078.404545" ns4:href="#m31ba32a448" y="512.64" />
      </g>
     </g>
     <g id="text_2">
      
      <g transform="translate(1049.346733 527.238438)scale(0.1 -0.1)">
       <defs>
        <path d="M 8.203125 72.90625  L 55.078125 72.90625  L 55.078125 68.703125  L 28.609375 0  L 18.3125 0  L 43.21875 64.59375  L 8.203125 64.59375  z " id="DejaVuSans-55" />
       </defs>
       <use ns4:href="#DejaVuSans-50" />
       <use x="63.623047" ns4:href="#DejaVuSans-48" />
       <use x="127.246094" ns4:href="#DejaVuSans-50" />
       <use x="190.869141" ns4:href="#DejaVuSans-49" />
       <use x="254.492188" ns4:href="#DejaVuSans-45" />
       <use x="290.576172" ns4:href="#DejaVuSans-48" />
       <use x="354.199219" ns4:href="#DejaVuSans-54" />
       <use x="417.822266" ns4:href="#DejaVuSans-45" />
       <use x="453.90625" ns4:href="#DejaVuSans-49" />
       <use x="517.529297" ns4:href="#DejaVuSans-55" />
      </g>
     </g>
    </g>
    <g id="xtick_3">
     <g id="line2d_5">
      <path clip-path="url(#pf4a77d1f4c)" d="M 1041.586364 512.64  L 1041.586364 69.12  " style="fill:none;stroke:#000000;stroke-dasharray:2.96,1.28;stroke-dashoffset:0;stroke-opacity:0.3;stroke-width:0.8;" />
     </g>
     <g id="line2d_6">
      <g>
       <use style="stroke:#000000;stroke-width:0.8;" x="1041.586364" ns4:href="#m31ba32a448" y="512.64" />
      </g>
     </g>
     <g id="text_3">
      
      <g transform="translate(1012.528551 527.238438)scale(0.1 -0.1)">
       <defs>
        <path d="M 10.796875 72.90625  L 49.515625 72.90625  L 49.515625 64.59375  L 19.828125 64.59375  L 19.828125 46.734375  Q 21.96875 47.46875 24.109375 47.828125  Q 26.265625 48.1875 28.421875 48.1875  Q 40.625 48.1875 47.75 41.5  Q 54.890625 34.8125 54.890625 23.390625  Q 54.890625 11.625 47.5625 5.09375  Q 40.234375 -1.421875 26.90625 -1.421875  Q 22.3125 -1.421875 17.546875 -0.640625  Q 12.796875 0.140625 7.71875 1.703125  L 7.71875 11.625  Q 12.109375 9.234375 16.796875 8.0625  Q 21.484375 6.890625 26.703125 6.890625  Q 35.15625 6.890625 40.078125 11.328125  Q 45.015625 15.765625 45.015625 23.390625  Q 45.015625 31 40.078125 35.4375  Q 35.15625 39.890625 26.703125 39.890625  Q 22.75 39.890625 18.8125 39.015625  Q 14.890625 38.140625 10.796875 36.28125  z " id="DejaVuSans-53" />
       </defs>
       <use ns4:href="#DejaVuSans-50" />
       <use x="63.623047" ns4:href="#DejaVuSans-48" />
       <use x="127.246094" ns4:href="#DejaVuSans-50" />
       <use x="190.869141" ns4:href="#DejaVuSans-49" />
       <use x="254.492188" ns4:href="#DejaVuSans-45" />
       <use x="290.576172" ns4:href="#DejaVuSans-48" />
       <use x="354.199219" ns4:href="#DejaVuSans-54" />
       <use x="417.822266" ns4:href="#DejaVuSans-45" />
       <use x="453.90625" ns4:href="#DejaVuSans-49" />
       <use x="517.529297" ns4:href="#DejaVuSans-53" />
      </g>
     </g>
    </g>
    <g id="xtick_4">
     <g id="line2d_7">
      <path clip-path="url(#pf4a77d1f4c)" d="M 1004.768182 512.64  L 1004.768182 69.12  " style="fill:none;stroke:#000000;stroke-dasharray:2.96,1.28;stroke-dashoffset:0;stroke-opacity:0.3;stroke-width:0.8;" />
     </g>
     <g id="line2d_8">
      <g>
       <use style="stroke:#000000;stroke-width:0.8;" x="1004.768182" ns4:href="#m31ba32a448" y="512.64" />
      </g>
     </g>
     <g id="text_4">
      
      <g transform="translate(975.710369 527.238438)scale(0.1 -0.1)">
       <use ns4:href="#DejaVuSans-50" />
       <use x="63.623047" ns4:href="#DejaVuSans-48" />
       <use x="127.246094" ns4:href="#DejaVuSans-50" />
       <use x="190.869141" ns4:href="#DejaVuSans-49" />
       <use x="254.492188" ns4:href="#DejaVuSans-45" />
       <use x="290.576172" ns4:href="#DejaVuSans-48" />
       <use x="354.199219" ns4:href="#DejaVuSans-54" />
       <use x="417.822266" ns4:href="#DejaVuSans-45" />
       <use x="453.90625" ns4:href="#DejaVuSans-49" />
       <use x="517.529297" ns4:href="#DejaVuSans-49" />
      </g>
     </g>
    </g>
    <g id="xtick_5">
     <g id="line2d_9">
      <path clip-path="url(#pf4a77d1f4c)" d="M 967.95 512.64  L 967.95 69.12  " style="fill:none;stroke:#000000;stroke-dasharray:2.96,1.28;stroke-dashoffset:0;stroke-opacity:0.3;stroke-width:0.8;" />
     </g>
     <g id="line2d_10">
      <g>
       <use style="stroke:#000000;stroke-width:0.8;" x="967.95" ns4:href="#m31ba32a448" y="512.64" />
      </g>
     </g>
     <g id="text_5">
      
      <g transform="translate(938.892188 527.238438)scale(0.1 -0.1)">
       <defs>
        <path d="M 10.984375 1.515625  L 10.984375 10.5  Q 14.703125 8.734375 18.5 7.8125  Q 22.3125 6.890625 25.984375 6.890625  Q 35.75 6.890625 40.890625 13.453125  Q 46.046875 20.015625 46.78125 33.40625  Q 43.953125 29.203125 39.59375 26.953125  Q 35.25 24.703125 29.984375 24.703125  Q 19.046875 24.703125 12.671875 31.3125  Q 6.296875 37.9375 6.296875 49.421875  Q 6.296875 60.640625 12.9375 67.421875  Q 19.578125 74.21875 30.609375 74.21875  Q 43.265625 74.21875 49.921875 64.515625  Q 56.59375 54.828125 56.59375 36.375  Q 56.59375 19.140625 48.40625 8.859375  Q 40.234375 -1.421875 26.421875 -1.421875  Q 22.703125 -1.421875 18.890625 -0.6875  Q 15.09375 0.046875 10.984375 1.515625  z M 30.609375 32.421875  Q 37.25 32.421875 41.125 36.953125  Q 45.015625 41.5 45.015625 49.421875  Q 45.015625 57.28125 41.125 61.84375  Q 37.25 66.40625 30.609375 66.40625  Q 23.96875 66.40625 20.09375 61.84375  Q 16.21875 57.28125 16.21875 49.421875  Q 16.21875 41.5 20.09375 36.953125  Q 23.96875 32.421875 30.609375 32.421875  z " id="DejaVuSans-57" />
       </defs>
       <use ns4:href="#DejaVuSans-50" />
       <use x="63.623047" ns4:href="#DejaVuSans-48" />
       <use x="127.246094" ns4:href="#DejaVuSans-50" />
       <use x="190.869141" ns4:href="#DejaVuSans-49" />
       <use x="254.492188" ns4:href="#DejaVuSans-45" />
       <use x="290.576172" ns4:href="#DejaVuSans-48" />
       <use x="354.199219" ns4:href="#DejaVuSans-54" />
       <use x="417.822266" ns4:href="#DejaVuSans-45" />
       <use x="453.90625" ns4:href="#DejaVuSans-48" />
       <use x="517.529297" ns4:href="#DejaVuSans-57" />
      </g>
     </g>
    </g>
    <g id="xtick_6">
     <g id="line2d_11">
      <path clip-path="url(#pf4a77d1f4c)" d="M 931.131818 512.64  L 931.131818 69.12  " style="fill:none;stroke:#000000;stroke-dasharray:2.96,1.28;stroke-dashoffset:0;stroke-opacity:0.3;stroke-width:0.8;" />
     </g>
     <g id="line2d_12">
      <g>
       <use style="stroke:#000000;stroke-width:0.8;" x="931.131818" ns4:href="#m31ba32a448" y="512.64" />
      </g>
     </g>
     <g id="text_6">
      
      <g transform="translate(902.074006 527.238438)scale(0.1 -0.1)">
       <use ns4:href="#DejaVuSans-50" />
       <use x="63.623047" ns4:href="#DejaVuSans-48" />
       <use x="127.246094" ns4:href="#DejaVuSans-50" />
       <use x="190.869141" ns4:href="#DejaVuSans-49" />
       <use x="254.492188" ns4:href="#DejaVuSans-45" />
       <use x="290.576172" ns4:href="#DejaVuSans-48" />
       <use x="354.199219" ns4:href="#DejaVuSans-54" />
       <use x="417.822266" ns4:href="#DejaVuSans-45" />
       <use x="453.90625" ns4:href="#DejaVuSans-48" />
       <use x="517.529297" ns4:href="#DejaVuSans-55" />
      </g>
     </g>
    </g>
    <g id="xtick_7">
     <g id="line2d_13">
      <path clip-path="url(#pf4a77d1f4c)" d="M 894.313636 512.64  L 894.313636 69.12  " style="fill:none;stroke:#000000;stroke-dasharray:2.96,1.28;stroke-dashoffset:0;stroke-opacity:0.3;stroke-width:0.8;" />
     </g>
     <g id="line2d_14">
      <g>
       <use style="stroke:#000000;stroke-width:0.8;" x="894.313636" ns4:href="#m31ba32a448" y="512.64" />
      </g>
     </g>
     <g id="text_7">
      
      <g transform="translate(865.255824 527.238438)scale(0.1 -0.1)">
       <defs>
        <path d="M 40.578125 39.3125  Q 47.65625 37.796875 51.625 33  Q 55.609375 28.21875 55.609375 21.1875  Q 55.609375 10.40625 48.1875 4.484375  Q 40.765625 -1.421875 27.09375 -1.421875  Q 22.515625 -1.421875 17.65625 -0.515625  Q 12.796875 0.390625 7.625 2.203125  L 7.625 11.71875  Q 11.71875 9.328125 16.59375 8.109375  Q 21.484375 6.890625 26.8125 6.890625  Q 36.078125 6.890625 40.9375 10.546875  Q 45.796875 14.203125 45.796875 21.1875  Q 45.796875 27.640625 41.28125 31.265625  Q 36.765625 34.90625 28.71875 34.90625  L 20.21875 34.90625  L 20.21875 43.015625  L 29.109375 43.015625  Q 36.375 43.015625 40.234375 45.921875  Q 44.09375 48.828125 44.09375 54.296875  Q 44.09375 59.90625 40.109375 62.90625  Q 36.140625 65.921875 28.71875 65.921875  Q 24.65625 65.921875 20.015625 65.03125  Q 15.375 64.15625 9.8125 62.3125  L 9.8125 71.09375  Q 15.4375 72.65625 20.34375 73.4375  Q 25.25 74.21875 29.59375 74.21875  Q 40.828125 74.21875 47.359375 69.109375  Q 53.90625 64.015625 53.90625 55.328125  Q 53.90625 49.265625 50.4375 45.09375  Q 46.96875 40.921875 40.578125 39.3125  z " id="DejaVuSans-51" />
       </defs>
       <use ns4:href="#DejaVuSans-50" />
       <use x="63.623047" ns4:href="#DejaVuSans-48" />
       <use x="127.246094" ns4:href="#DejaVuSans-50" />
       <use x="190.869141" ns4:href="#DejaVuSans-49" />
       <use x="254.492188" ns4:href="#DejaVuSans-45" />
       <use x="290.576172" ns4:href="#DejaVuSans-48" />
       <use x="354.199219" ns4:href="#DejaVuSans-54" />
       <use x="417.822266" ns4:href="#DejaVuSans-45" />
       <use x="453.90625" ns4:href="#DejaVuSans-48" />
       <use x="517.529297" ns4:href="#DejaVuSans-51" />
      </g>
     </g>
    </g>
    <g id="xtick_8">
     <g id="line2d_15">
      <path clip-path="url(#pf4a77d1f4c)" d="M 857.495455 512.64  L 857.495455 69.12  " style="fill:none;stroke:#000000;stroke-dasharray:2.96,1.28;stroke-dashoffset:0;stroke-opacity:0.3;stroke-width:0.8;" />
     </g>
     <g id="line2d_16">
      <g>
       <use style="stroke:#000000;stroke-width:0.8;" x="857.495455" ns4:href="#m31ba32a448" y="512.64" />
      </g>
     </g>
     <g id="text_8">
      
      <g transform="translate(828.437642 527.238438)scale(0.1 -0.1)">
       <use ns4:href="#DejaVuSans-50" />
       <use x="63.623047" ns4:href="#DejaVuSans-48" />
       <use x="127.246094" ns4:href="#DejaVuSans-50" />
       <use x="190.869141" ns4:href="#DejaVuSans-49" />
       <use x="254.492188" ns4:href="#DejaVuSans-45" />
       <use x="290.576172" ns4:href="#DejaVuSans-48" />
       <use x="354.199219" ns4:href="#DejaVuSans-54" />
       <use x="417.822266" ns4:href="#DejaVuSans-45" />
       <use x="453.90625" ns4:href="#DejaVuSans-48" />
       <use x="517.529297" ns4:href="#DejaVuSans-49" />
      </g>
     </g>
    </g>
    <g id="xtick_9">
     <g id="line2d_17">
      <path clip-path="url(#pf4a77d1f4c)" d="M 820.677273 512.64  L 820.677273 69.12  " style="fill:none;stroke:#000000;stroke-dasharray:2.96,1.28;stroke-dashoffset:0;stroke-opacity:0.3;stroke-width:0.8;" />
     </g>
     <g id="line2d_18">
      <g>
       <use style="stroke:#000000;stroke-width:0.8;" x="820.677273" ns4:href="#m31ba32a448" y="512.64" />
      </g>
     </g>
     <g id="text_9">
      
      <g transform="translate(791.61946 527.238438)scale(0.1 -0.1)">
       <defs>
        <path d="M 31.78125 34.625  Q 24.75 34.625 20.71875 30.859375  Q 16.703125 27.09375 16.703125 20.515625  Q 16.703125 13.921875 20.71875 10.15625  Q 24.75 6.390625 31.78125 6.390625  Q 38.8125 6.390625 42.859375 10.171875  Q 46.921875 13.96875 46.921875 20.515625  Q 46.921875 27.09375 42.890625 30.859375  Q 38.875 34.625 31.78125 34.625  z M 21.921875 38.8125  Q 15.578125 40.375 12.03125 44.71875  Q 8.5 49.078125 8.5 55.328125  Q 8.5 64.0625 14.71875 69.140625  Q 20.953125 74.21875 31.78125 74.21875  Q 42.671875 74.21875 48.875 69.140625  Q 55.078125 64.0625 55.078125 55.328125  Q 55.078125 49.078125 51.53125 44.71875  Q 48 40.375 41.703125 38.8125  Q 48.828125 37.15625 52.796875 32.3125  Q 56.78125 27.484375 56.78125 20.515625  Q 56.78125 9.90625 50.3125 4.234375  Q 43.84375 -1.421875 31.78125 -1.421875  Q 19.734375 -1.421875 13.25 4.234375  Q 6.78125 9.90625 6.78125 20.515625  Q 6.78125 27.484375 10.78125 32.3125  Q 14.796875 37.15625 21.921875 38.8125  z M 18.3125 54.390625  Q 18.3125 48.734375 21.84375 45.5625  Q 25.390625 42.390625 31.78125 42.390625  Q 38.140625 42.390625 41.71875 45.5625  Q 45.3125 48.734375 45.3125 54.390625  Q 45.3125 60.0625 41.71875 63.234375  Q 38.140625 66.40625 31.78125 66.40625  Q 25.390625 66.40625 21.84375 63.234375  Q 18.3125 60.0625 18.3125 54.390625  z " id="DejaVuSans-56" />
       </defs>
       <use ns4:href="#DejaVuSans-50" />
       <use x="63.623047" ns4:href="#DejaVuSans-48" />
       <use x="127.246094" ns4:href="#DejaVuSans-50" />
       <use x="190.869141" ns4:href="#DejaVuSans-49" />
       <use x="254.492188" ns4:href="#DejaVuSans-45" />
       <use x="290.576172" ns4:href="#DejaVuSans-48" />
       <use x="354.199219" ns4:href="#DejaVuSans-53" />
       <use x="417.822266" ns4:href="#DejaVuSans-45" />
       <use x="453.90625" ns4:href="#DejaVuSans-50" />
       <use x="517.529297" ns4:href="#DejaVuSans-56" />
      </g>
     </g>
    </g>
    <g id="xtick_10">
     <g id="line2d_19">
      <path clip-path="url(#pf4a77d1f4c)" d="M 783.859091 512.64  L 783.859091 69.12  " style="fill:none;stroke:#000000;stroke-dasharray:2.96,1.28;stroke-dashoffset:0;stroke-opacity:0.3;stroke-width:0.8;" />
     </g>
     <g id="line2d_20">
      <g>
       <use style="stroke:#000000;stroke-width:0.8;" x="783.859091" ns4:href="#m31ba32a448" y="512.64" />
      </g>
     </g>
     <g id="text_10">
      
      <g transform="translate(754.801278 527.238438)scale(0.1 -0.1)">
       <use ns4:href="#DejaVuSans-50" />
       <use x="63.623047" ns4:href="#DejaVuSans-48" />
       <use x="127.246094" ns4:href="#DejaVuSans-50" />
       <use x="190.869141" ns4:href="#DejaVuSans-49" />
       <use x="254.492188" ns4:href="#DejaVuSans-45" />
       <use x="290.576172" ns4:href="#DejaVuSans-48" />
       <use x="354.199219" ns4:href="#DejaVuSans-53" />
       <use x="417.822266" ns4:href="#DejaVuSans-45" />
       <use x="453.90625" ns4:href="#DejaVuSans-50" />
       <use x="517.529297" ns4:href="#DejaVuSans-54" />
      </g>
     </g>
    </g>
    <g id="xtick_11">
     <g id="line2d_21">
      <path clip-path="url(#pf4a77d1f4c)" d="M 747.040909 512.64  L 747.040909 69.12  " style="fill:none;stroke:#000000;stroke-dasharray:2.96,1.28;stroke-dashoffset:0;stroke-opacity:0.3;stroke-width:0.8;" />
     </g>
     <g id="line2d_22">
      <g>
       <use style="stroke:#000000;stroke-width:0.8;" x="747.040909" ns4:href="#m31ba32a448" y="512.64" />
      </g>
     </g>
     <g id="text_11">
      
      <g transform="translate(717.983097 527.238438)scale(0.1 -0.1)">
       <defs>
        <path d="M 37.796875 64.3125  L 12.890625 25.390625  L 37.796875 25.390625  z M 35.203125 72.90625  L 47.609375 72.90625  L 47.609375 25.390625  L 58.015625 25.390625  L 58.015625 17.1875  L 47.609375 17.1875  L 47.609375 0  L 37.796875 0  L 37.796875 17.1875  L 4.890625 17.1875  L 4.890625 26.703125  z " id="DejaVuSans-52" />
       </defs>
       <use ns4:href="#DejaVuSans-50" />
       <use x="63.623047" ns4:href="#DejaVuSans-48" />
       <use x="127.246094" ns4:href="#DejaVuSans-50" />
       <use x="190.869141" ns4:href="#DejaVuSans-49" />
       <use x="254.492188" ns4:href="#DejaVuSans-45" />
       <use x="290.576172" ns4:href="#DejaVuSans-48" />
       <use x="354.199219" ns4:href="#DejaVuSans-53" />
       <use x="417.822266" ns4:href="#DejaVuSans-45" />
       <use x="453.90625" ns4:href="#DejaVuSans-50" />
       <use x="517.529297" ns4:href="#DejaVuSans-52" />
      </g>
     </g>
    </g>
    <g id="xtick_12">
     <g id="line2d_23">
      <path clip-path="url(#pf4a77d1f4c)" d="M 710.222727 512.64  L 710.222727 69.12  " style="fill:none;stroke:#000000;stroke-dasharray:2.96,1.28;stroke-dashoffset:0;stroke-opacity:0.3;stroke-width:0.8;" />
     </g>
     <g id="line2d_24">
      <g>
       <use style="stroke:#000000;stroke-width:0.8;" x="710.222727" ns4:href="#m31ba32a448" y="512.64" />
      </g>
     </g>
     <g id="text_12">
      
      <g transform="translate(681.164915 527.238438)scale(0.1 -0.1)">
       <use ns4:href="#DejaVuSans-50" />
       <use x="63.623047" ns4:href="#DejaVuSans-48" />
       <use x="127.246094" ns4:href="#DejaVuSans-50" />
       <use x="190.869141" ns4:href="#DejaVuSans-49" />
       <use x="254.492188" ns4:href="#DejaVuSans-45" />
       <use x="290.576172" ns4:href="#DejaVuSans-48" />
       <use x="354.199219" ns4:href="#DejaVuSans-53" />
       <use x="417.822266" ns4:href="#DejaVuSans-45" />
       <use x="453.90625" ns4:href="#DejaVuSans-50" />
       <use x="517.529297" ns4:href="#DejaVuSans-48" />
      </g>
     </g>
    </g>
    <g id="xtick_13">
     <g id="line2d_25">
      <path clip-path="url(#pf4a77d1f4c)" d="M 673.404545 512.64  L 673.404545 69.12  " style="fill:none;stroke:#000000;stroke-dasharray:2.96,1.28;stroke-dashoffset:0;stroke-opacity:0.3;stroke-width:0.8;" />
     </g>
     <g id="line2d_26">
      <g>
       <use style="stroke:#000000;stroke-width:0.8;" x="673.404545" ns4:href="#m31ba32a448" y="512.64" />
      </g>
     </g>
     <g id="text_13">
      
      <g transform="translate(644.346733 527.238438)scale(0.1 -0.1)">
       <use ns4:href="#DejaVuSans-50" />
       <use x="63.623047" ns4:href="#DejaVuSans-48" />
       <use x="127.246094" ns4:href="#DejaVuSans-50" />
       <use x="190.869141" ns4:href="#DejaVuSans-49" />
       <use x="254.492188" ns4:href="#DejaVuSans-45" />
       <use x="290.576172" ns4:href="#DejaVuSans-48" />
       <use x="354.199219" ns4:href="#DejaVuSans-53" />
       <use x="417.822266" ns4:href="#DejaVuSans-45" />
       <use x="453.90625" ns4:href="#DejaVuSans-49" />
       <use x="517.529297" ns4:href="#DejaVuSans-56" />
      </g>
     </g>
    </g>
    <g id="xtick_14">
     <g id="line2d_27">
      <path clip-path="url(#pf4a77d1f4c)" d="M 636.586364 512.64  L 636.586364 69.12  " style="fill:none;stroke:#000000;stroke-dasharray:2.96,1.28;stroke-dashoffset:0;stroke-opacity:0.3;stroke-width:0.8;" />
     </g>
     <g id="line2d_28">
      <g>
       <use style="stroke:#000000;stroke-width:0.8;" x="636.586364" ns4:href="#m31ba32a448" y="512.64" />
      </g>
     </g>
     <g id="text_14">
      
      <g transform="translate(607.528551 527.238438)scale(0.1 -0.1)">
       <use ns4:href="#DejaVuSans-50" />
       <use x="63.623047" ns4:href="#DejaVuSans-48" />
       <use x="127.246094" ns4:href="#DejaVuSans-50" />
       <use x="190.869141" ns4:href="#DejaVuSans-49" />
       <use x="254.492188" ns4:href="#DejaVuSans-45" />
       <use x="290.576172" ns4:href="#DejaVuSans-48" />
       <use x="354.199219" ns4:href="#DejaVuSans-53" />
       <use x="417.822266" ns4:href="#DejaVuSans-45" />
       <use x="453.90625" ns4:href="#DejaVuSans-49" />
       <use x="517.529297" ns4:href="#DejaVuSans-52" />
      </g>
     </g>
    </g>
    <g id="xtick_15">
     <g id="line2d_29">
      <path clip-path="url(#pf4a77d1f4c)" d="M 599.768182 512.64  L 599.768182 69.12  " style="fill:none;stroke:#000000;stroke-dasharray:2.96,1.28;stroke-dashoffset:0;stroke-opacity:0.3;stroke-width:0.8;" />
     </g>
     <g id="line2d_30">
      <g>
       <use style="stroke:#000000;stroke-width:0.8;" x="599.768182" ns4:href="#m31ba32a448" y="512.64" />
      </g>
     </g>
     <g id="text_15">
      
      <g transform="translate(570.710369 527.238438)scale(0.1 -0.1)">
       <use ns4:href="#DejaVuSans-50" />
       <use x="63.623047" ns4:href="#DejaVuSans-48" />
       <use x="127.246094" ns4:href="#DejaVuSans-50" />
       <use x="190.869141" ns4:href="#DejaVuSans-49" />
       <use x="254.492188" ns4:href="#DejaVuSans-45" />
       <use x="290.576172" ns4:href="#DejaVuSans-48" />
       <use x="354.199219" ns4:href="#DejaVuSans-53" />
       <use x="417.822266" ns4:href="#DejaVuSans-45" />
       <use x="453.90625" ns4:href="#DejaVuSans-49" />
       <use x="517.529297" ns4:href="#DejaVuSans-49" />
      </g>
     </g>
    </g>
    <g id="xtick_16">
     <g id="line2d_31">
      <path clip-path="url(#pf4a77d1f4c)" d="M 562.95 512.64  L 562.95 69.12  " style="fill:none;stroke:#000000;stroke-dasharray:2.96,1.28;stroke-dashoffset:0;stroke-opacity:0.3;stroke-width:0.8;" />
     </g>
     <g id="line2d_32">
      <g>
       <use style="stroke:#000000;stroke-width:0.8;" x="562.95" ns4:href="#m31ba32a448" y="512.64" />
      </g>
     </g>
     <g id="text_16">
      
      <g transform="translate(533.892188 527.238438)scale(0.1 -0.1)">
       <use ns4:href="#DejaVuSans-50" />
       <use x="63.623047" ns4:href="#DejaVuSans-48" />
       <use x="127.246094" ns4:href="#DejaVuSans-50" />
       <use x="190.869141" ns4:href="#DejaVuSans-49" />
       <use x="254.492188" ns4:href="#DejaVuSans-45" />
       <use x="290.576172" ns4:href="#DejaVuSans-48" />
       <use x="354.199219" ns4:href="#DejaVuSans-53" />
       <use x="417.822266" ns4:href="#DejaVuSans-45" />
       <use x="453.90625" ns4:href="#DejaVuSans-48" />
       <use x="517.529297" ns4:href="#DejaVuSans-55" />
      </g>
     </g>
    </g>
    <g id="xtick_17">
     <g id="line2d_33">
      <path clip-path="url(#pf4a77d1f4c)" d="M 526.131818 512.64  L 526.131818 69.12  " style="fill:none;stroke:#000000;stroke-dasharray:2.96,1.28;stroke-dashoffset:0;stroke-opacity:0.3;stroke-width:0.8;" />
     </g>
     <g id="line2d_34">
      <g>
       <use style="stroke:#000000;stroke-width:0.8;" x="526.131818" ns4:href="#m31ba32a448" y="512.64" />
      </g>
     </g>
     <g id="text_17">
      
      <g transform="translate(497.074006 527.238438)scale(0.1 -0.1)">
       <use ns4:href="#DejaVuSans-50" />
       <use x="63.623047" ns4:href="#DejaVuSans-48" />
       <use x="127.246094" ns4:href="#DejaVuSans-50" />
       <use x="190.869141" ns4:href="#DejaVuSans-49" />
       <use x="254.492188" ns4:href="#DejaVuSans-45" />
       <use x="290.576172" ns4:href="#DejaVuSans-48" />
       <use x="354.199219" ns4:href="#DejaVuSans-53" />
       <use x="417.822266" ns4:href="#DejaVuSans-45" />
       <use x="453.90625" ns4:href="#DejaVuSans-48" />
       <use x="517.529297" ns4:href="#DejaVuSans-53" />
      </g>
     </g>
    </g>
    <g id="xtick_18">
     <g id="line2d_35">
      <path clip-path="url(#pf4a77d1f4c)" d="M 489.313636 512.64  L 489.313636 69.12  " style="fill:none;stroke:#000000;stroke-dasharray:2.96,1.28;stroke-dashoffset:0;stroke-opacity:0.3;stroke-width:0.8;" />
     </g>
     <g id="line2d_36">
      <g>
       <use style="stroke:#000000;stroke-width:0.8;" x="489.313636" ns4:href="#m31ba32a448" y="512.64" />
      </g>
     </g>
     <g id="text_18">
      
      <g transform="translate(460.255824 527.238438)scale(0.1 -0.1)">
       <use ns4:href="#DejaVuSans-50" />
       <use x="63.623047" ns4:href="#DejaVuSans-48" />
       <use x="127.246094" ns4:href="#DejaVuSans-50" />
       <use x="190.869141" ns4:href="#DejaVuSans-49" />
       <use x="254.492188" ns4:href="#DejaVuSans-45" />
       <use x="290.576172" ns4:href="#DejaVuSans-48" />
       <use x="354.199219" ns4:href="#DejaVuSans-53" />
       <use x="417.822266" ns4:href="#DejaVuSans-45" />
       <use x="453.90625" ns4:href="#DejaVuSans-48" />
       <use x="517.529297" ns4:href="#DejaVuSans-51" />
      </g>
     </g>
    </g>
    <g id="xtick_19">
     <g id="line2d_37">
      <path clip-path="url(#pf4a77d1f4c)" d="M 452.495455 512.64  L 452.495455 69.12  " style="fill:none;stroke:#000000;stroke-dasharray:2.96,1.28;stroke-dashoffset:0;stroke-opacity:0.3;stroke-width:0.8;" />
     </g>
     <g id="line2d_38">
      <g>
       <use style="stroke:#000000;stroke-width:0.8;" x="452.495455" ns4:href="#m31ba32a448" y="512.64" />
      </g>
     </g>
     <g id="text_19">
      
      <g transform="translate(423.437642 527.238438)scale(0.1 -0.1)">
       <use ns4:href="#DejaVuSans-50" />
       <use x="63.623047" ns4:href="#DejaVuSans-48" />
       <use x="127.246094" ns4:href="#DejaVuSans-50" />
       <use x="190.869141" ns4:href="#DejaVuSans-49" />
       <use x="254.492188" ns4:href="#DejaVuSans-45" />
       <use x="290.576172" ns4:href="#DejaVuSans-48" />
       <use x="354.199219" ns4:href="#DejaVuSans-52" />
       <use x="417.822266" ns4:href="#DejaVuSans-45" />
       <use x="453.90625" ns4:href="#DejaVuSans-50" />
       <use x="517.529297" ns4:href="#DejaVuSans-57" />
      </g>
     </g>
    </g>
    <g id="xtick_20">
     <g id="line2d_39">
      <path clip-path="url(#pf4a77d1f4c)" d="M 415.677273 512.64  L 415.677273 69.12  " style="fill:none;stroke:#000000;stroke-dasharray:2.96,1.28;stroke-dashoffset:0;stroke-opacity:0.3;stroke-width:0.8;" />
     </g>
     <g id="line2d_40">
      <g>
       <use style="stroke:#000000;stroke-width:0.8;" x="415.677273" ns4:href="#m31ba32a448" y="512.64" />
      </g>
     </g>
     <g id="text_20">
      
      <g transform="translate(386.61946 527.238438)scale(0.1 -0.1)">
       <use ns4:href="#DejaVuSans-50" />
       <use x="63.623047" ns4:href="#DejaVuSans-48" />
       <use x="127.246094" ns4:href="#DejaVuSans-50" />
       <use x="190.869141" ns4:href="#DejaVuSans-49" />
       <use x="254.492188" ns4:href="#DejaVuSans-45" />
       <use x="290.576172" ns4:href="#DejaVuSans-48" />
       <use x="354.199219" ns4:href="#DejaVuSans-52" />
       <use x="417.822266" ns4:href="#DejaVuSans-45" />
       <use x="453.90625" ns4:href="#DejaVuSans-50" />
       <use x="517.529297" ns4:href="#DejaVuSans-55" />
      </g>
     </g>
    </g>
    <g id="xtick_21">
     <g id="line2d_41">
      <path clip-path="url(#pf4a77d1f4c)" d="M 378.859091 512.64  L 378.859091 69.12  " style="fill:none;stroke:#000000;stroke-dasharray:2.96,1.28;stroke-dashoffset:0;stroke-opacity:0.3;stroke-width:0.8;" />
     </g>
     <g id="line2d_42">
      <g>
       <use style="stroke:#000000;stroke-width:0.8;" x="378.859091" ns4:href="#m31ba32a448" y="512.64" />
      </g>
     </g>
     <g id="text_21">
      
      <g transform="translate(349.801278 527.238438)scale(0.1 -0.1)">
       <use ns4:href="#DejaVuSans-50" />
       <use x="63.623047" ns4:href="#DejaVuSans-48" />
       <use x="127.246094" ns4:href="#DejaVuSans-50" />
       <use x="190.869141" ns4:href="#DejaVuSans-49" />
       <use x="254.492188" ns4:href="#DejaVuSans-45" />
       <use x="290.576172" ns4:href="#DejaVuSans-48" />
       <use x="354.199219" ns4:href="#DejaVuSans-52" />
       <use x="417.822266" ns4:href="#DejaVuSans-45" />
       <use x="453.90625" ns4:href="#DejaVuSans-50" />
       <use x="517.529297" ns4:href="#DejaVuSans-51" />
      </g>
     </g>
    </g>
    <g id="xtick_22">
     <g id="line2d_43">
      <path clip-path="url(#pf4a77d1f4c)" d="M 342.040909 512.64  L 342.040909 69.12  " style="fill:none;stroke:#000000;stroke-dasharray:2.96,1.28;stroke-dashoffset:0;stroke-opacity:0.3;stroke-width:0.8;" />
     </g>
     <g id="line2d_44">
      <g>
       <use style="stroke:#000000;stroke-width:0.8;" x="342.040909" ns4:href="#m31ba32a448" y="512.64" />
      </g>
     </g>
     <g id="text_22">
      
      <g transform="translate(312.983097 527.238438)scale(0.1 -0.1)">
       <use ns4:href="#DejaVuSans-50" />
       <use x="63.623047" ns4:href="#DejaVuSans-48" />
       <use x="127.246094" ns4:href="#DejaVuSans-50" />
       <use x="190.869141" ns4:href="#DejaVuSans-49" />
       <use x="254.492188" ns4:href="#DejaVuSans-45" />
       <use x="290.576172" ns4:href="#DejaVuSans-48" />
       <use x="354.199219" ns4:href="#DejaVuSans-52" />
       <use x="417.822266" ns4:href="#DejaVuSans-45" />
       <use x="453.90625" ns4:href="#DejaVuSans-50" />
       <use x="517.529297" ns4:href="#DejaVuSans-48" />
      </g>
     </g>
    </g>
    <g id="xtick_23">
     <g id="line2d_45">
      <path clip-path="url(#pf4a77d1f4c)" d="M 305.222727 512.64  L 305.222727 69.12  " style="fill:none;stroke:#000000;stroke-dasharray:2.96,1.28;stroke-dashoffset:0;stroke-opacity:0.3;stroke-width:0.8;" />
     </g>
     <g id="line2d_46">
      <g>
       <use style="stroke:#000000;stroke-width:0.8;" x="305.222727" ns4:href="#m31ba32a448" y="512.64" />
      </g>
     </g>
     <g id="text_23">
      
      <g transform="translate(276.164915 527.238438)scale(0.1 -0.1)">
       <use ns4:href="#DejaVuSans-50" />
       <use x="63.623047" ns4:href="#DejaVuSans-48" />
       <use x="127.246094" ns4:href="#DejaVuSans-50" />
       <use x="190.869141" ns4:href="#DejaVuSans-49" />
       <use x="254.492188" ns4:href="#DejaVuSans-45" />
       <use x="290.576172" ns4:href="#DejaVuSans-48" />
       <use x="354.199219" ns4:href="#DejaVuSans-52" />
       <use x="417.822266" ns4:href="#DejaVuSans-45" />
       <use x="453.90625" ns4:href="#DejaVuSans-49" />
       <use x="517.529297" ns4:href="#DejaVuSans-54" />
      </g>
     </g>
    </g>
    <g id="xtick_24">
     <g id="line2d_47">
      <path clip-path="url(#pf4a77d1f4c)" d="M 268.404545 512.64  L 268.404545 69.12  " style="fill:none;stroke:#000000;stroke-dasharray:2.96,1.28;stroke-dashoffset:0;stroke-opacity:0.3;stroke-width:0.8;" />
     </g>
     <g id="line2d_48">
      <g>
       <use style="stroke:#000000;stroke-width:0.8;" x="268.404545" ns4:href="#m31ba32a448" y="512.64" />
      </g>
     </g>
     <g id="text_24">
      
      <g transform="translate(239.346733 527.238438)scale(0.1 -0.1)">
       <use ns4:href="#DejaVuSans-50" />
       <use x="63.623047" ns4:href="#DejaVuSans-48" />
       <use x="127.246094" ns4:href="#DejaVuSans-50" />
       <use x="190.869141" ns4:href="#DejaVuSans-49" />
       <use x="254.492188" ns4:href="#DejaVuSans-45" />
       <use x="290.576172" ns4:href="#DejaVuSans-48" />
       <use x="354.199219" ns4:href="#DejaVuSans-52" />
       <use x="417.822266" ns4:href="#DejaVuSans-45" />
       <use x="453.90625" ns4:href="#DejaVuSans-49" />
       <use x="517.529297" ns4:href="#DejaVuSans-51" />
      </g>
     </g>
    </g>
    <g id="xtick_25">
     <g id="line2d_49">
      <path clip-path="url(#pf4a77d1f4c)" d="M 231.586364 512.64  L 231.586364 69.12  " style="fill:none;stroke:#000000;stroke-dasharray:2.96,1.28;stroke-dashoffset:0;stroke-opacity:0.3;stroke-width:0.8;" />
     </g>
     <g id="line2d_50">
      <g>
       <use style="stroke:#000000;stroke-width:0.8;" x="231.586364" ns4:href="#m31ba32a448" y="512.64" />
      </g>
     </g>
     <g id="text_25">
      
      <g transform="translate(202.528551 527.238438)scale(0.1 -0.1)">
       <use ns4:href="#DejaVuSans-50" />
       <use x="63.623047" ns4:href="#DejaVuSans-48" />
       <use x="127.246094" ns4:href="#DejaVuSans-50" />
       <use x="190.869141" ns4:href="#DejaVuSans-49" />
       <use x="254.492188" ns4:href="#DejaVuSans-45" />
       <use x="290.576172" ns4:href="#DejaVuSans-48" />
       <use x="354.199219" ns4:href="#DejaVuSans-52" />
       <use x="417.822266" ns4:href="#DejaVuSans-45" />
       <use x="453.90625" ns4:href="#DejaVuSans-48" />
       <use x="517.529297" ns4:href="#DejaVuSans-57" />
      </g>
     </g>
    </g>
    <g id="text_26">
     
     <g transform="translate(652.249219 540.916563)scale(0.1 -0.1)">
      <defs>
       <path d="M 19.671875 64.796875  L 19.671875 8.109375  L 31.59375 8.109375  Q 46.6875 8.109375 53.6875 14.9375  Q 60.6875 21.78125 60.6875 36.53125  Q 60.6875 51.171875 53.6875 57.984375  Q 46.6875 64.796875 31.59375 64.796875  z M 9.8125 72.90625  L 30.078125 72.90625  Q 51.265625 72.90625 61.171875 64.09375  Q 71.09375 55.28125 71.09375 36.53125  Q 71.09375 17.671875 61.125 8.828125  Q 51.171875 0 30.078125 0  L 9.8125 0  z " id="DejaVuSans-68" />
       <path d="M 34.28125 27.484375  Q 23.390625 27.484375 19.1875 25  Q 14.984375 22.515625 14.984375 16.5  Q 14.984375 11.71875 18.140625 8.90625  Q 21.296875 6.109375 26.703125 6.109375  Q 34.1875 6.109375 38.703125 11.40625  Q 43.21875 16.703125 43.21875 25.484375  L 43.21875 27.484375  z M 52.203125 31.203125  L 52.203125 0  L 43.21875 0  L 43.21875 8.296875  Q 40.140625 3.328125 35.546875 0.953125  Q 30.953125 -1.421875 24.3125 -1.421875  Q 15.921875 -1.421875 10.953125 3.296875  Q 6 8.015625 6 15.921875  Q 6 25.140625 12.171875 29.828125  Q 18.359375 34.515625 30.609375 34.515625  L 43.21875 34.515625  L 43.21875 35.40625  Q 43.21875 41.609375 39.140625 45  Q 35.0625 48.390625 27.6875 48.390625  Q 23 48.390625 18.546875 47.265625  Q 14.109375 46.140625 10.015625 43.890625  L 10.015625 52.203125  Q 14.9375 54.109375 19.578125 55.046875  Q 24.21875 56 28.609375 56  Q 40.484375 56 46.34375 49.84375  Q 52.203125 43.703125 52.203125 31.203125  z " id="DejaVuSans-97" />
       <path d="M 18.3125 70.21875  L 18.3125 54.6875  L 36.8125 54.6875  L 36.8125 47.703125  L 18.3125 47.703125  L 18.3125 18.015625  Q 18.3125 11.328125 20.140625 9.421875  Q 21.96875 7.515625 27.59375 7.515625  L 36.8125 7.515625  L 36.8125 0  L 27.59375 0  Q 17.1875 0 13.234375 3.875  Q 9.28125 7.765625 9.28125 18.015625  L 9.28125 47.703125  L 2.6875 47.703125  L 2.6875 54.6875  L 9.28125 54.6875  L 9.28125 70.21875  z " id="DejaVuSans-116" />
       <path d="M 56.203125 29.59375  L 56.203125 25.203125  L 14.890625 25.203125  Q 15.484375 15.921875 20.484375 11.0625  Q 25.484375 6.203125 34.421875 6.203125  Q 39.59375 6.203125 44.453125 7.46875  Q 49.3125 8.734375 54.109375 11.28125  L 54.109375 2.78125  Q 49.265625 0.734375 44.1875 -0.34375  Q 39.109375 -1.421875 33.890625 -1.421875  Q 20.796875 -1.421875 13.15625 6.1875  Q 5.515625 13.8125 5.515625 26.8125  Q 5.515625 40.234375 12.765625 48.109375  Q 20.015625 56 32.328125 56  Q 43.359375 56 49.78125 48.890625  Q 56.203125 41.796875 56.203125 29.59375  z M 47.21875 32.234375  Q 47.125 39.59375 43.09375 43.984375  Q 39.0625 48.390625 32.421875 48.390625  Q 24.90625 48.390625 20.390625 44.140625  Q 15.875 39.890625 15.1875 32.171875  z " id="DejaVuSans-101" />
      </defs>
      <use ns4:href="#DejaVuSans-68" />
      <use x="77.001953" ns4:href="#DejaVuSans-97" />
      <use x="138.28125" ns4:href="#DejaVuSans-116" />
      <use x="177.490234" ns4:href="#DejaVuSans-101" />
     </g>
    </g>
   </g>
   <g id="matplotlib.axis_2">
    <g id="ytick_1">
     <g id="line2d_51">
      <path clip-path="url(#pf4a77d1f4c)" d="M 162 467.257797  L 1166.4 467.257797  " style="fill:none;stroke:#000000;stroke-dasharray:2.96,1.28;stroke-dashoffset:0;stroke-opacity:0.3;stroke-width:0.8;" />
     </g>
     <g id="line2d_52">
      <defs>
       <path d="M 0 0  L 3.5 0  " id="m68fa61bddc" style="stroke:#000000;stroke-width:0.8;" />
      </defs>
      <g>
       <use style="stroke:#000000;stroke-width:0.8;" x="1166.4" ns4:href="#m68fa61bddc" y="467.257797" />
      </g>
     </g>
     <g id="text_27">
      
      <g transform="translate(1173.4 471.057016)scale(0.1 -0.1)">
       <use ns4:href="#DejaVuSans-49" />
       <use x="63.623047" ns4:href="#DejaVuSans-56" />
       <use x="127.246094" ns4:href="#DejaVuSans-48" />
       <use x="190.869141" ns4:href="#DejaVuSans-48" />
      </g>
     </g>
    </g>
    <g id="ytick_2">
     <g id="line2d_53">
      <path clip-path="url(#pf4a77d1f4c)" d="M 162 396.209339  L 1166.4 396.209339  " style="fill:none;stroke:#000000;stroke-dasharray:2.96,1.28;stroke-dashoffset:0;stroke-opacity:0.3;stroke-width:0.8;" />
     </g>
     <g id="line2d_54">
      <g>
       <use style="stroke:#000000;stroke-width:0.8;" x="1166.4" ns4:href="#m68fa61bddc" y="396.209339" />
      </g>
     </g>
     <g id="text_28">
      
      <g transform="translate(1173.4 400.008558)scale(0.1 -0.1)">
       <use ns4:href="#DejaVuSans-49" />
       <use x="63.623047" ns4:href="#DejaVuSans-56" />
       <use x="127.246094" ns4:href="#DejaVuSans-53" />
       <use x="190.869141" ns4:href="#DejaVuSans-48" />
      </g>
     </g>
    </g>
    <g id="ytick_3">
     <g id="line2d_55">
      <path clip-path="url(#pf4a77d1f4c)" d="M 162 325.160881  L 1166.4 325.160881  " style="fill:none;stroke:#000000;stroke-dasharray:2.96,1.28;stroke-dashoffset:0;stroke-opacity:0.3;stroke-width:0.8;" />
     </g>
     <g id="line2d_56">
      <g>
       <use style="stroke:#000000;stroke-width:0.8;" x="1166.4" ns4:href="#m68fa61bddc" y="325.160881" />
      </g>
     </g>
     <g id="text_29">
      
      <g transform="translate(1173.4 328.9601)scale(0.1 -0.1)">
       <use ns4:href="#DejaVuSans-49" />
       <use x="63.623047" ns4:href="#DejaVuSans-57" />
       <use x="127.246094" ns4:href="#DejaVuSans-48" />
       <use x="190.869141" ns4:href="#DejaVuSans-48" />
      </g>
     </g>
    </g>
    <g id="ytick_4">
     <g id="line2d_57">
      <path clip-path="url(#pf4a77d1f4c)" d="M 162 254.112423  L 1166.4 254.112423  " style="fill:none;stroke:#000000;stroke-dasharray:2.96,1.28;stroke-dashoffset:0;stroke-opacity:0.3;stroke-width:0.8;" />
     </g>
     <g id="line2d_58">
      <g>
       <use style="stroke:#000000;stroke-width:0.8;" x="1166.4" ns4:href="#m68fa61bddc" y="254.112423" />
      </g>
     </g>
     <g id="text_30">
      
      <g transform="translate(1173.4 257.911642)scale(0.1 -0.1)">
       <use ns4:href="#DejaVuSans-49" />
       <use x="63.623047" ns4:href="#DejaVuSans-57" />
       <use x="127.246094" ns4:href="#DejaVuSans-53" />
       <use x="190.869141" ns4:href="#DejaVuSans-48" />
      </g>
     </g>
    </g>
    <g id="ytick_5">
     <g id="line2d_59">
      <path clip-path="url(#pf4a77d1f4c)" d="M 162 183.063965  L 1166.4 183.063965  " style="fill:none;stroke:#000000;stroke-dasharray:2.96,1.28;stroke-dashoffset:0;stroke-opacity:0.3;stroke-width:0.8;" />
     </g>
     <g id="line2d_60">
      <g>
       <use style="stroke:#000000;stroke-width:0.8;" x="1166.4" ns4:href="#m68fa61bddc" y="183.063965" />
      </g>
     </g>
     <g id="text_31">
      
      <g transform="translate(1173.4 186.863184)scale(0.1 -0.1)">
       <use ns4:href="#DejaVuSans-50" />
       <use x="63.623047" ns4:href="#DejaVuSans-48" />
       <use x="127.246094" ns4:href="#DejaVuSans-48" />
       <use x="190.869141" ns4:href="#DejaVuSans-48" />
      </g>
     </g>
    </g>
    <g id="ytick_6">
     <g id="line2d_61">
      <path clip-path="url(#pf4a77d1f4c)" d="M 162 112.015507  L 1166.4 112.015507  " style="fill:none;stroke:#000000;stroke-dasharray:2.96,1.28;stroke-dashoffset:0;stroke-opacity:0.3;stroke-width:0.8;" />
     </g>
     <g id="line2d_62">
      <g>
       <use style="stroke:#000000;stroke-width:0.8;" x="1166.4" ns4:href="#m68fa61bddc" y="112.015507" />
      </g>
     </g>
     <g id="text_32">
      
      <g transform="translate(1173.4 115.814725)scale(0.1 -0.1)">
       <use ns4:href="#DejaVuSans-50" />
       <use x="63.623047" ns4:href="#DejaVuSans-48" />
       <use x="127.246094" ns4:href="#DejaVuSans-53" />
       <use x="190.869141" ns4:href="#DejaVuSans-48" />
      </g>
     </g>
    </g>
    <g id="text_33">
     
     <g transform="translate(1210.448438 303.077656)rotate(-90)scale(0.1 -0.1)">
      <defs>
       <path d="M 19.671875 64.796875  L 19.671875 37.40625  L 32.078125 37.40625  Q 38.96875 37.40625 42.71875 40.96875  Q 46.484375 44.53125 46.484375 51.125  Q 46.484375 57.671875 42.71875 61.234375  Q 38.96875 64.796875 32.078125 64.796875  z M 9.8125 72.90625  L 32.078125 72.90625  Q 44.34375 72.90625 50.609375 67.359375  Q 56.890625 61.8125 56.890625 51.125  Q 56.890625 40.328125 50.609375 34.8125  Q 44.34375 29.296875 32.078125 29.296875  L 19.671875 29.296875  L 19.671875 0  L 9.8125 0  z " id="DejaVuSans-80" />
       <path d="M 41.109375 46.296875  Q 39.59375 47.171875 37.8125 47.578125  Q 36.03125 48 33.890625 48  Q 26.265625 48 22.1875 43.046875  Q 18.109375 38.09375 18.109375 28.8125  L 18.109375 0  L 9.078125 0  L 9.078125 54.6875  L 18.109375 54.6875  L 18.109375 46.1875  Q 20.953125 51.171875 25.484375 53.578125  Q 30.03125 56 36.53125 56  Q 37.453125 56 38.578125 55.875  Q 39.703125 55.765625 41.0625 55.515625  z " id="DejaVuSans-114" />
       <path d="M 9.421875 54.6875  L 18.40625 54.6875  L 18.40625 0  L 9.421875 0  z M 9.421875 75.984375  L 18.40625 75.984375  L 18.40625 64.59375  L 9.421875 64.59375  z " id="DejaVuSans-105" />
       <path d="M 48.78125 52.59375  L 48.78125 44.1875  Q 44.96875 46.296875 41.140625 47.34375  Q 37.3125 48.390625 33.40625 48.390625  Q 24.65625 48.390625 19.8125 42.84375  Q 14.984375 37.3125 14.984375 27.296875  Q 14.984375 17.28125 19.8125 11.734375  Q 24.65625 6.203125 33.40625 6.203125  Q 37.3125 6.203125 41.140625 7.25  Q 44.96875 8.296875 48.78125 10.40625  L 48.78125 2.09375  Q 45.015625 0.34375 40.984375 -0.53125  Q 36.96875 -1.421875 32.421875 -1.421875  Q 20.0625 -1.421875 12.78125 6.34375  Q 5.515625 14.109375 5.515625 27.296875  Q 5.515625 40.671875 12.859375 48.328125  Q 20.21875 56 33.015625 56  Q 37.15625 56 41.109375 55.140625  Q 45.0625 54.296875 48.78125 52.59375  z " id="DejaVuSans-99" />
      </defs>
      <use ns4:href="#DejaVuSans-80" />
      <use x="58.552734" ns4:href="#DejaVuSans-114" />
      <use x="99.666016" ns4:href="#DejaVuSans-105" />
      <use x="127.449219" ns4:href="#DejaVuSans-99" />
      <use x="182.429688" ns4:href="#DejaVuSans-101" />
     </g>
     
     <g transform="translate(1221.64625 313.526875)rotate(-90)scale(0.1 -0.1)">
      <defs>
       <path id="DejaVuSans-32" />
       <path d="M 31 75.875  Q 24.46875 64.65625 21.28125 53.65625  Q 18.109375 42.671875 18.109375 31.390625  Q 18.109375 20.125 21.3125 9.0625  Q 24.515625 -2 31 -13.1875  L 23.1875 -13.1875  Q 15.875 -1.703125 12.234375 9.375  Q 8.59375 20.453125 8.59375 31.390625  Q 8.59375 42.28125 12.203125 53.3125  Q 15.828125 64.359375 23.1875 75.875  z " id="DejaVuSans-40" />
       <path d="M 8.5 21.578125  L 8.5 54.6875  L 17.484375 54.6875  L 17.484375 21.921875  Q 17.484375 14.15625 20.5 10.265625  Q 23.53125 6.390625 29.59375 6.390625  Q 36.859375 6.390625 41.078125 11.03125  Q 45.3125 15.671875 45.3125 23.6875  L 45.3125 54.6875  L 54.296875 54.6875  L 54.296875 0  L 45.3125 0  L 45.3125 8.40625  Q 42.046875 3.421875 37.71875 1  Q 33.40625 -1.421875 27.6875 -1.421875  Q 18.265625 -1.421875 13.375 4.4375  Q 8.5 10.296875 8.5 21.578125  z M 31.109375 56  z " id="DejaVuSans-117" />
       <path d="M 18.109375 8.203125  L 18.109375 -20.796875  L 9.078125 -20.796875  L 9.078125 54.6875  L 18.109375 54.6875  L 18.109375 46.390625  Q 20.953125 51.265625 25.265625 53.625  Q 29.59375 56 35.59375 56  Q 45.5625 56 51.78125 48.09375  Q 58.015625 40.1875 58.015625 27.296875  Q 58.015625 14.40625 51.78125 6.484375  Q 45.5625 -1.421875 35.59375 -1.421875  Q 29.59375 -1.421875 25.265625 0.953125  Q 20.953125 3.328125 18.109375 8.203125  z M 48.6875 27.296875  Q 48.6875 37.203125 44.609375 42.84375  Q 40.53125 48.484375 33.40625 48.484375  Q 26.265625 48.484375 22.1875 42.84375  Q 18.109375 37.203125 18.109375 27.296875  Q 18.109375 17.390625 22.1875 11.75  Q 26.265625 6.109375 33.40625 6.109375  Q 40.53125 6.109375 44.609375 11.75  Q 48.6875 17.390625 48.6875 27.296875  z " id="DejaVuSans-112" />
       <path d="M 44.28125 53.078125  L 44.28125 44.578125  Q 40.484375 46.53125 36.375 47.5  Q 32.28125 48.484375 27.875 48.484375  Q 21.1875 48.484375 17.84375 46.4375  Q 14.5 44.390625 14.5 40.28125  Q 14.5 37.15625 16.890625 35.375  Q 19.28125 33.59375 26.515625 31.984375  L 29.59375 31.296875  Q 39.15625 29.25 43.1875 25.515625  Q 47.21875 21.78125 47.21875 15.09375  Q 47.21875 7.46875 41.1875 3.015625  Q 35.15625 -1.421875 24.609375 -1.421875  Q 20.21875 -1.421875 15.453125 -0.5625  Q 10.6875 0.296875 5.421875 2  L 5.421875 11.28125  Q 10.40625 8.6875 15.234375 7.390625  Q 20.0625 6.109375 24.8125 6.109375  Q 31.15625 6.109375 34.5625 8.28125  Q 37.984375 10.453125 37.984375 14.40625  Q 37.984375 18.0625 35.515625 20.015625  Q 33.0625 21.96875 24.703125 23.78125  L 21.578125 24.515625  Q 13.234375 26.265625 9.515625 29.90625  Q 5.8125 33.546875 5.8125 39.890625  Q 5.8125 47.609375 11.28125 51.796875  Q 16.75 56 26.8125 56  Q 31.78125 56 36.171875 55.265625  Q 40.578125 54.546875 44.28125 53.078125  z " id="DejaVuSans-115" />
       <path d="M 8.015625 75.875  L 15.828125 75.875  Q 23.140625 64.359375 26.78125 53.3125  Q 30.421875 42.28125 30.421875 31.390625  Q 30.421875 20.453125 26.78125 9.375  Q 23.140625 -1.703125 15.828125 -13.1875  L 8.015625 -13.1875  Q 14.5 -2 17.703125 9.0625  Q 20.90625 20.125 20.90625 31.390625  Q 20.90625 42.671875 17.703125 53.65625  Q 14.5 64.65625 8.015625 75.875  z " id="DejaVuSans-41" />
      </defs>
      <use ns4:href="#DejaVuSans-32" />
      <use x="31.787109" ns4:href="#DejaVuSans-40" />
      <use x="70.800781" ns4:href="#DejaVuSans-114" />
      <use x="111.914062" ns4:href="#DejaVuSans-117" />
      <use x="175.292969" ns4:href="#DejaVuSans-112" />
      <use x="238.769531" ns4:href="#DejaVuSans-101" />
      <use x="300.292969" ns4:href="#DejaVuSans-101" />
      <use x="361.816406" ns4:href="#DejaVuSans-115" />
      <use x="413.916016" ns4:href="#DejaVuSans-41" />
     </g>
    </g>
   </g>
   <g id="line2d_63">
    <path clip-path="url(#pf4a77d1f4c)" d="M 1115.222727 198.836722  L 1115.222727 123.525357  " style="fill:none;stroke:#008000;stroke-linecap:square;stroke-width:1.5;" />
   </g>
   <g id="line2d_64">
    <path clip-path="url(#pf4a77d1f4c)" d="M 1096.813636 188.463648  L 1096.813636 93.542907  " style="fill:none;stroke:#ff0000;stroke-linecap:square;stroke-width:1.5;" />
   </g>
   <g id="line2d_65">
    <path clip-path="url(#pf4a77d1f4c)" d="M 1078.404545 175.959119  L 1078.404545 93.613956  " style="fill:none;stroke:#008000;stroke-linecap:square;stroke-width:1.5;" />
   </g>
   <g id="line2d_66">
    <path clip-path="url(#pf4a77d1f4c)" d="M 1059.995455 164.022978  L 1059.995455 107.752599  " style="fill:none;stroke:#ff0000;stroke-linecap:square;stroke-width:1.5;" />
   </g>
   <g id="line2d_67">
    <path clip-path="url(#pf4a77d1f4c)" d="M 1041.586364 138.942872  L 1041.586364 89.28  " style="fill:none;stroke:#008000;stroke-linecap:square;stroke-width:1.5;" />
   </g>
   <g id="line2d_68">
    <path clip-path="url(#pf4a77d1f4c)" d="M 1023.177273 197.202608  L 1023.177273 121.251806  " style="fill:none;stroke:#008000;stroke-linecap:square;stroke-width:1.5;" />
   </g>
   <g id="line2d_69">
    <path clip-path="url(#pf4a77d1f4c)" d="M 1004.768182 164.37822  L 1004.768182 120.967612  " style="fill:none;stroke:#ff0000;stroke-linecap:square;stroke-width:1.5;" />
   </g>
   <g id="line2d_70">
    <path clip-path="url(#pf4a77d1f4c)" d="M 986.359091 176.8117  L 986.359091 130.488106  " style="fill:none;stroke:#008000;stroke-linecap:square;stroke-width:1.5;" />
   </g>
   <g id="line2d_71">
    <path clip-path="url(#pf4a77d1f4c)" d="M 967.95 196.278978  L 967.95 118.551965  " style="fill:none;stroke:#ff0000;stroke-linecap:square;stroke-width:1.5;" />
   </g>
   <g id="line2d_72">
    <path clip-path="url(#pf4a77d1f4c)" d="M 949.540909 145.692476  L 949.540909 94.111295  " style="fill:none;stroke:#ff0000;stroke-linecap:square;stroke-width:1.5;" />
   </g>
   <g id="line2d_73">
    <path clip-path="url(#pf4a77d1f4c)" d="M 931.131818 167.433304  L 931.131818 99.368881  " style="fill:none;stroke:#008000;stroke-linecap:square;stroke-width:1.5;" />
   </g>
   <g id="line2d_74">
    <path clip-path="url(#pf4a77d1f4c)" d="M 912.722727 175.959119  L 912.722727 130.346009  " style="fill:none;stroke:#ff0000;stroke-linecap:square;stroke-width:1.5;" />
   </g>
   <g id="line2d_75">
    <path clip-path="url(#pf4a77d1f4c)" d="M 894.313636 184.271789  L 894.313636 140.43489  " style="fill:none;stroke:#008000;stroke-linecap:square;stroke-width:1.5;" />
   </g>
   <g id="line2d_76">
    <path clip-path="url(#pf4a77d1f4c)" d="M 875.904545 224.414167  L 875.904545 172.69089  " style="fill:none;stroke:#008000;stroke-linecap:square;stroke-width:1.5;" />
   </g>
   <g id="line2d_77">
    <path clip-path="url(#pf4a77d1f4c)" d="M 857.495455 240.257974  L 857.495455 181.642996  " style="fill:none;stroke:#ff0000;stroke-linecap:square;stroke-width:1.5;" />
   </g>
   <g id="line2d_78">
    <path clip-path="url(#pf4a77d1f4c)" d="M 839.086364 227.824493  L 839.086364 181.074608  " style="fill:none;stroke:#008000;stroke-linecap:square;stroke-width:1.5;" />
   </g>
   <g id="line2d_79">
    <path clip-path="url(#pf4a77d1f4c)" d="M 820.677273 218.588194  L 820.677273 169.422661  " style="fill:none;stroke:#ff0000;stroke-linecap:square;stroke-width:1.5;" />
   </g>
   <g id="line2d_80">
    <path clip-path="url(#pf4a77d1f4c)" d="M 802.268182 230.453286  L 802.268182 126.225198  " style="fill:none;stroke:#008000;stroke-linecap:square;stroke-width:1.5;" />
   </g>
   <g id="line2d_81">
    <path clip-path="url(#pf4a77d1f4c)" d="M 783.859091 243.881445  L 783.859091 208.783507  " style="fill:none;stroke:#008000;stroke-linecap:square;stroke-width:1.5;" />
   </g>
   <g id="line2d_82">
    <path clip-path="url(#pf4a77d1f4c)" d="M 765.45 249.281128  L 765.45 189.600423  " style="fill:none;stroke:#ff0000;stroke-linecap:square;stroke-width:1.5;" />
   </g>
   <g id="line2d_83">
    <path clip-path="url(#pf4a77d1f4c)" d="M 747.040909 249.849515  L 747.040909 186.048  " style="fill:none;stroke:#008000;stroke-linecap:square;stroke-width:1.5;" />
   </g>
   <g id="line2d_84">
    <path clip-path="url(#pf4a77d1f4c)" d="M 728.631818 240.89741  L 728.631818 200.186643  " style="fill:none;stroke:#ff0000;stroke-linecap:square;stroke-width:1.5;" />
   </g>
   <g id="line2d_85">
    <path clip-path="url(#pf4a77d1f4c)" d="M 710.222727 295.320529  L 710.222727 234.929339  " style="fill:none;stroke:#008000;stroke-linecap:square;stroke-width:1.5;" />
   </g>
   <g id="line2d_86">
    <path clip-path="url(#pf4a77d1f4c)" d="M 691.813636 301.004405  L 691.813636 208.64141  " style="fill:none;stroke:#ff0000;stroke-linecap:square;stroke-width:1.5;" />
   </g>
   <g id="line2d_87">
    <path clip-path="url(#pf4a77d1f4c)" d="M 673.404545 316.564018  L 673.404545 251.48363  " style="fill:none;stroke:#008000;stroke-linecap:square;stroke-width:1.5;" />
   </g>
   <g id="line2d_88">
    <path clip-path="url(#pf4a77d1f4c)" d="M 654.995455 371.484476  L 654.995455 314.14837  " style="fill:none;stroke:#008000;stroke-linecap:square;stroke-width:1.5;" />
   </g>
   <g id="line2d_89">
    <path clip-path="url(#pf4a77d1f4c)" d="M 636.586364 390.525463  L 636.586364 326.723947  " style="fill:none;stroke:#ff0000;stroke-linecap:square;stroke-width:1.5;" />
   </g>
   <g id="line2d_90">
    <path clip-path="url(#pf4a77d1f4c)" d="M 618.177273 357.843172  L 618.177273 311.022238  " style="fill:none;stroke:#ff0000;stroke-linecap:square;stroke-width:1.5;" />
   </g>
   <g id="line2d_91">
    <path clip-path="url(#pf4a77d1f4c)" d="M 599.768182 381.644405  L 599.768182 296.741498  " style="fill:none;stroke:#008000;stroke-linecap:square;stroke-width:1.5;" />
   </g>
   <g id="line2d_92">
    <path clip-path="url(#pf4a77d1f4c)" d="M 581.359091 353.225022  L 581.359091 295.320529  " style="fill:none;stroke:#ff0000;stroke-linecap:square;stroke-width:1.5;" />
   </g>
   <g id="line2d_93">
    <path clip-path="url(#pf4a77d1f4c)" d="M 562.95 330.773709  L 562.95 284.094872  " style="fill:none;stroke:#008000;stroke-linecap:square;stroke-width:1.5;" />
   </g>
   <g id="line2d_94">
    <path clip-path="url(#pf4a77d1f4c)" d="M 544.540909 357.558978  L 544.540909 313.082643  " style="fill:none;stroke:#008000;stroke-linecap:square;stroke-width:1.5;" />
   </g>
   <g id="line2d_95">
    <path clip-path="url(#pf4a77d1f4c)" d="M 526.131818 367.647859  L 526.131818 328.073868  " style="fill:none;stroke:#008000;stroke-linecap:square;stroke-width:1.5;" />
   </g>
   <g id="line2d_96">
    <path clip-path="url(#pf4a77d1f4c)" d="M 507.722727 373.473833  L 507.722727 303.846344  " style="fill:none;stroke:#ff0000;stroke-linecap:square;stroke-width:1.5;" />
   </g>
   <g id="line2d_97">
    <path clip-path="url(#pf4a77d1f4c)" d="M 489.313636 391.662238  L 489.313636 318.198132  " style="fill:none;stroke:#008000;stroke-linecap:square;stroke-width:1.5;" />
   </g>
   <g id="line2d_98">
    <path clip-path="url(#pf4a77d1f4c)" d="M 470.904545 389.033445  L 470.904545 320.258537  " style="fill:none;stroke:#008000;stroke-linecap:square;stroke-width:1.5;" />
   </g>
   <g id="line2d_99">
    <path clip-path="url(#pf4a77d1f4c)" d="M 452.495455 389.104493  L 452.495455 343.917674  " style="fill:none;stroke:#ff0000;stroke-linecap:square;stroke-width:1.5;" />
   </g>
   <g id="line2d_100">
    <path clip-path="url(#pf4a77d1f4c)" d="M 434.086364 396.209339  L 434.086364 346.546467  " style="fill:none;stroke:#008000;stroke-linecap:square;stroke-width:1.5;" />
   </g>
   <g id="line2d_101">
    <path clip-path="url(#pf4a77d1f4c)" d="M 415.677273 415.676617  L 415.677273 371.413427  " style="fill:none;stroke:#008000;stroke-linecap:square;stroke-width:1.5;" />
   </g>
   <g id="line2d_102">
    <path clip-path="url(#pf4a77d1f4c)" d="M 397.268182 442.746079  L 397.268182 393.438449  " style="fill:none;stroke:#008000;stroke-linecap:square;stroke-width:1.5;" />
   </g>
   <g id="line2d_103">
    <path clip-path="url(#pf4a77d1f4c)" d="M 378.859091 464.415859  L 378.859091 389.24659  " style="fill:none;stroke:#ff0000;stroke-linecap:square;stroke-width:1.5;" />
   </g>
   <g id="line2d_104">
    <path clip-path="url(#pf4a77d1f4c)" d="M 360.45 492.48  L 360.45 396.209339  " style="fill:none;stroke:#008000;stroke-linecap:square;stroke-width:1.5;" />
   </g>
   <g id="line2d_105">
    <path clip-path="url(#pf4a77d1f4c)" d="M 342.040909 453.048106  L 342.040909 211.483348  " style="fill:none;stroke:#ff0000;stroke-linecap:square;stroke-width:1.5;" />
   </g>
   <g id="line2d_106">
    <path clip-path="url(#pf4a77d1f4c)" d="M 323.631818 429.602115  L 323.631818 350.880423  " style="fill:none;stroke:#008000;stroke-linecap:square;stroke-width:1.5;" />
   </g>
   <g id="line2d_107">
    <path clip-path="url(#pf4a77d1f4c)" d="M 305.222727 410.134837  L 305.222727 321.821604  " style="fill:none;stroke:#008000;stroke-linecap:square;stroke-width:1.5;" />
   </g>
   <g id="line2d_108">
    <path clip-path="url(#pf4a77d1f4c)" d="M 286.813636 450.206167  L 286.813636 330.560564  " style="fill:none;stroke:#ff0000;stroke-linecap:square;stroke-width:1.5;" />
   </g>
   <g id="line2d_109">
    <path clip-path="url(#pf4a77d1f4c)" d="M 268.404545 384.841586  L 268.404545 318.127084  " style="fill:none;stroke:#ff0000;stroke-linecap:square;stroke-width:1.5;" />
   </g>
   <g id="line2d_110">
    <path clip-path="url(#pf4a77d1f4c)" d="M 249.995455 381.502308  L 249.995455 275.498009  " style="fill:none;stroke:#ff0000;stroke-linecap:square;stroke-width:1.5;" />
   </g>
   <g id="line2d_111">
    <path clip-path="url(#pf4a77d1f4c)" d="M 231.586364 256.314925  L 231.586364 150.594819  " style="fill:none;stroke:#ff0000;stroke-linecap:square;stroke-width:1.5;" />
   </g>
   <g id="line2d_112">
    <path clip-path="url(#pf4a77d1f4c)" d="M 213.177273 291.057621  L 213.177273 168.854273  " style="fill:none;stroke:#008000;stroke-linecap:square;stroke-width:1.5;" />
   </g>
   <g id="patch_53">
    <path d="M 1166.4 512.64  L 1166.4 69.12  " style="fill:none;stroke:#000000;stroke-linecap:square;stroke-linejoin:miter;stroke-width:0.8;" />
   </g>
   <g id="patch_54">
    <path d="M 162 512.64  L 1166.4 512.64  " style="fill:none;stroke:#000000;stroke-linecap:square;stroke-linejoin:miter;stroke-width:0.8;" />
   </g>
   <g id="text_34">
    
    <g transform="translate(585.140625 40.724375)scale(0.2 -0.2)">
     <defs>
      <path d="M 34.1875 63.1875  L 20.796875 26.90625  L 47.609375 26.90625  z M 28.609375 72.90625  L 39.796875 72.90625  L 67.578125 0  L 57.328125 0  L 50.6875 18.703125  L 17.828125 18.703125  L 11.1875 0  L 0.78125 0  z " id="DejaVuSans-65" />
      <path d="M 64.40625 67.28125  L 64.40625 56.890625  Q 59.421875 61.53125 53.78125 63.8125  Q 48.140625 66.109375 41.796875 66.109375  Q 29.296875 66.109375 22.65625 58.46875  Q 16.015625 50.828125 16.015625 36.375  Q 16.015625 21.96875 22.65625 14.328125  Q 29.296875 6.6875 41.796875 6.6875  Q 48.140625 6.6875 53.78125 8.984375  Q 59.421875 11.28125 64.40625 15.921875  L 64.40625 5.609375  Q 59.234375 2.09375 53.4375 0.328125  Q 47.65625 -1.421875 41.21875 -1.421875  Q 24.65625 -1.421875 15.125 8.703125  Q 5.609375 18.84375 5.609375 36.375  Q 5.609375 53.953125 15.125 64.078125  Q 24.65625 74.21875 41.21875 74.21875  Q 47.75 74.21875 53.53125 72.484375  Q 59.328125 70.75 64.40625 67.28125  z " id="DejaVuSans-67" />
      <path d="M 53.515625 70.515625  L 53.515625 60.890625  Q 47.90625 63.578125 42.921875 64.890625  Q 37.9375 66.21875 33.296875 66.21875  Q 25.25 66.21875 20.875 63.09375  Q 16.5 59.96875 16.5 54.203125  Q 16.5 49.359375 19.40625 46.890625  Q 22.3125 44.4375 30.421875 42.921875  L 36.375 41.703125  Q 47.40625 39.59375 52.65625 34.296875  Q 57.90625 29 57.90625 20.125  Q 57.90625 9.515625 50.796875 4.046875  Q 43.703125 -1.421875 29.984375 -1.421875  Q 24.8125 -1.421875 18.96875 -0.25  Q 13.140625 0.921875 6.890625 3.21875  L 6.890625 13.375  Q 12.890625 10.015625 18.65625 8.296875  Q 24.421875 6.59375 29.984375 6.59375  Q 38.421875 6.59375 43.015625 9.90625  Q 47.609375 13.234375 47.609375 19.390625  Q 47.609375 24.75 44.3125 27.78125  Q 41.015625 30.8125 33.5 32.328125  L 27.484375 33.5  Q 16.453125 35.6875 11.515625 40.375  Q 6.59375 45.0625 6.59375 53.421875  Q 6.59375 63.09375 13.40625 68.65625  Q 20.21875 74.21875 32.171875 74.21875  Q 37.3125 74.21875 42.625 73.28125  Q 47.953125 72.359375 53.515625 70.515625  z " id="DejaVuSans-83" />
      <path d="M 30.609375 48.390625  Q 23.390625 48.390625 19.1875 42.75  Q 14.984375 37.109375 14.984375 27.296875  Q 14.984375 17.484375 19.15625 11.84375  Q 23.34375 6.203125 30.609375 6.203125  Q 37.796875 6.203125 41.984375 11.859375  Q 46.1875 17.53125 46.1875 27.296875  Q 46.1875 37.015625 41.984375 42.703125  Q 37.796875 48.390625 30.609375 48.390625  z M 30.609375 56  Q 42.328125 56 49.015625 48.375  Q 55.71875 40.765625 55.71875 27.296875  Q 55.71875 13.875 49.015625 6.21875  Q 42.328125 -1.421875 30.609375 -1.421875  Q 18.84375 -1.421875 12.171875 6.21875  Q 5.515625 13.875 5.515625 27.296875  Q 5.515625 40.765625 12.171875 48.375  Q 18.84375 56 30.609375 56  z " id="DejaVuSans-111" />
      <path d="M 9.078125 75.984375  L 18.109375 75.984375  L 18.109375 31.109375  L 44.921875 54.6875  L 56.390625 54.6875  L 27.390625 29.109375  L 57.625 0  L 45.90625 0  L 18.109375 26.703125  L 18.109375 0  L 9.078125 0  z " id="DejaVuSans-107" />
     </defs>
     <use ns4:href="#DejaVuSans-65" />
     <use x="66.658203" ns4:href="#DejaVuSans-67" />
     <use x="136.482422" ns4:href="#DejaVuSans-67" />
     <use x="206.306641" ns4:href="#DejaVuSans-32" />
     <use x="238.09375" ns4:href="#DejaVuSans-83" />
     <use x="301.570312" ns4:href="#DejaVuSans-116" />
     <use x="340.779297" ns4:href="#DejaVuSans-111" />
     <use x="401.960938" ns4:href="#DejaVuSans-99" />
     <use x="456.941406" ns4:href="#DejaVuSans-107" />
     <use x="514.851562" ns4:href="#DejaVuSans-32" />
     <use x="546.638672" ns4:href="#DejaVuSans-80" />
     <use x="605.191406" ns4:href="#DejaVuSans-114" />
     <use x="646.304688" ns4:href="#DejaVuSans-105" />
     <use x="674.087891" ns4:href="#DejaVuSans-99" />
     <use x="729.068359" ns4:href="#DejaVuSans-101" />
    </g>
    
    <g transform="translate(664.2 63.12)scale(0.2 -0.2)" />
   </g>
  </g>
  <g id="crosslineX">
   <path d="M 0 288  L 1296 288  " style="fill:none;stroke:#1f77b4;stroke-linecap:square;stroke-width:1.5;" />
  </g>
  <g id="crosslineY">
   <path d="M 648 576  L 648 0  " style="fill:none;stroke:#1f77b4;stroke-linecap:square;stroke-width:1.5;" />
  </g>
 </g>
 <defs>
  <clipPath id="pf4a77d1f4c">
   <rect height="443.52" width="1004.4" x="162" y="69.12" />
  </clipPath>
 </defs>
</svg>