<svg xmlns="http://www.w3.org/2000/svg" xmlns:dc="http://purl.org/dc/elements/1.1/" xmlns:ns2="http://creativecommons.org/ns#" xmlns:ns4="http://www.w3.org/1999/xlink" xmlns:rdf="http://www.w3.org/1999/02/22-rdf-syntax-ns#" height="576pt" version="1.1" viewBox="0 0 864 576" width="864pt">
 <metadata>
  <rdf:RDF>
   <ns2:Work>
    <dc:type rdf:resource="http://purl.org/dc/dcmitype/StillImage" />
    <dc:date>2021-07-28T12:50:01.126848</dc:date>
    <dc:format>image/svg+xml</dc:format>
    <dc:creator>
     <ns2:Agent>
      <dc:title>Matplotlib v3.3.4, https://matplotlib.org/</dc:title>
     </ns2:Agent>
    </dc:creator>
   </ns2:Work>
  </rdf:RDF>
 </metadata>
 <defs>
  <style type="text/css">*{stroke-linecap:butt;stroke-linejoin:round;}</style>
 </defs>
 <g id="figure_1">
  <g id="patch_1">
   <path d="M 0 576  L 864 576  L 864 0  L 0 0  z " style="fill:#ffffff;" />
  </g>
  <g id="axes_1">
   <g id="patch_2">
    <path d="M 108 512.64  L 777.6 512.64  L 777.6 69.12  L 108 69.12  z " style="fill:#ffffff;" />
   </g>
   <g id="patch_3">
    <path clip-path="url(#p585009a0e2)" d="M 747.163636 169.564758  L 739.8 169.564758  L 739.8 143.134731  L 747.163636 143.134731  z " style="fill:#008000;stroke:#000000;stroke-linejoin:miter;" />
   </g>
   <g id="patch_4">
    <path clip-path="url(#p585009a0e2)" d="M 734.890909 143.418925  L 727.527273 143.418925  L 727.527273 121.607048  L 734.890909 121.607048  z " style="fill:#ff0000;stroke:#000000;stroke-linejoin:miter;" />
   </g>
   <g id="patch_5">
    <path clip-path="url(#p585009a0e2)" d="M 722.618182 175.959119  L 715.254545 175.959119  L 715.254545 123.099066  L 722.618182 123.099066  z " style="fill:#008000;stroke:#000000;stroke-linejoin:miter;" />
   </g>
   <g id="patch_6">
    <path clip-path="url(#p585009a0e2)" d="M 710.345455 153.934097  L 702.981818 153.934097  L 702.981818 123.38326  L 710.345455 123.38326  z " style="fill:#ff0000;stroke:#000000;stroke-linejoin:miter;" />
   </g>
   <g id="patch_7">
    <path clip-path="url(#p585009a0e2)" d="M 698.072727 123.38326  L 690.709091 123.38326  L 690.709091 122.033339  L 698.072727 122.033339  z " style="fill:#008000;stroke:#000000;stroke-linejoin:miter;" />
   </g>
   <g id="patch_8">
    <path clip-path="url(#p585009a0e2)" d="M 685.8 151.802643  L 678.436364 151.802643  L 678.436364 125.443665  L 685.8 125.443665  z " style="fill:#008000;stroke:#000000;stroke-linejoin:miter;" />
   </g>
   <g id="patch_9">
    <path clip-path="url(#p585009a0e2)" d="M 673.527273 148.25022  L 666.163636 148.25022  L 666.163636 140.008599  L 673.527273 140.008599  z " style="fill:#ff0000;stroke:#000000;stroke-linejoin:miter;" />
   </g>
   <g id="patch_10">
    <path clip-path="url(#p585009a0e2)" d="M 661.254545 161.749427  L 653.890909 161.749427  L 653.890909 140.008599  L 661.254545 140.008599  z " style="fill:#008000;stroke:#000000;stroke-linejoin:miter;" />
   </g>
   <g id="patch_11">
    <path clip-path="url(#p585009a0e2)" d="M 648.981818 176.8117  L 641.618182 176.8117  L 641.618182 119.120352  L 648.981818 119.120352  z " style="fill:#ff0000;stroke:#000000;stroke-linejoin:miter;" />
   </g>
   <g id="patch_12">
    <path clip-path="url(#p585009a0e2)" d="M 636.709091 122.45963  L 629.345455 122.45963  L 629.345455 112.015507  L 636.709091 112.015507  z " style="fill:#ff0000;stroke:#000000;stroke-linejoin:miter;" />
   </g>
   <g id="patch_13">
    <path clip-path="url(#p585009a0e2)" d="M 624.436364 161.038943  L 617.072727 161.038943  L 617.072727 117.770432  L 624.436364 117.770432  z " style="fill:#008000;stroke:#000000;stroke-linejoin:miter;" />
   </g>
   <g id="patch_14">
    <path clip-path="url(#p585009a0e2)" d="M 612.163636 168.99637  L 604.8 168.99637  L 604.8 148.960705  L 612.163636 148.960705  z " style="fill:#ff0000;stroke:#000000;stroke-linejoin:miter;" />
   </g>
   <g id="patch_15">
    <path clip-path="url(#p585009a0e2)" d="M 599.890909 184.271789  L 592.527273 184.271789  L 592.527273 144.200458  L 599.890909 144.200458  z " style="fill:#008000;stroke:#000000;stroke-linejoin:miter;" />
   </g>
   <g id="patch_16">
    <path clip-path="url(#p585009a0e2)" d="M 587.618182 218.232952  L 580.254545 218.232952  L 580.254545 187.184775  L 587.618182 187.184775  z " style="fill:#008000;stroke:#000000;stroke-linejoin:miter;" />
   </g>
   <g id="patch_17">
    <path clip-path="url(#p585009a0e2)" d="M 575.345455 220.790696  L 567.981818 220.790696  L 567.981818 197.273656  L 575.345455 197.273656  z " style="fill:#ff0000;stroke:#000000;stroke-linejoin:miter;" />
   </g>
   <g id="patch_18">
    <path clip-path="url(#p585009a0e2)" d="M 563.072727 212.76222  L 555.709091 212.76222  L 555.709091 202.886485  L 563.072727 202.886485  z " style="fill:#008000;stroke:#000000;stroke-linejoin:miter;" />
   </g>
   <g id="patch_19">
    <path clip-path="url(#p585009a0e2)" d="M 550.8 203.739066  L 543.436364 203.739066  L 543.436364 190.310907  L 550.8 190.310907  z " style="fill:#ff0000;stroke:#000000;stroke-linejoin:miter;" />
   </g>
   <g id="patch_20">
    <path clip-path="url(#p585009a0e2)" d="M 538.527273 212.478026  L 531.163636 212.478026  L 531.163636 182.850819  L 538.527273 182.850819  z " style="fill:#008000;stroke:#000000;stroke-linejoin:miter;" />
   </g>
   <g id="patch_21">
    <path clip-path="url(#p585009a0e2)" d="M 526.254545 236.421357  L 518.890909 236.421357  L 518.890909 215.106819  L 526.254545 215.106819  z " style="fill:#008000;stroke:#000000;stroke-linejoin:miter;" />
   </g>
   <g id="patch_22">
    <path clip-path="url(#p585009a0e2)" d="M 513.981818 238.197568  L 506.618182 238.197568  L 506.618182 190.168811  L 513.981818 190.168811  z " style="fill:#ff0000;stroke:#000000;stroke-linejoin:miter;" />
   </g>
   <g id="patch_23">
    <path clip-path="url(#p585009a0e2)" d="M 501.709091 228.534978  L 494.345455 228.534978  L 494.345455 205.160035  L 501.709091 205.160035  z " style="fill:#008000;stroke:#000000;stroke-linejoin:miter;" />
   </g>
   <g id="patch_24">
    <path clip-path="url(#p585009a0e2)" d="M 489.436364 232.442643  L 482.072727 232.442643  L 482.072727 225.621991  L 489.436364 225.621991  z " style="fill:#ff0000;stroke:#000000;stroke-linejoin:miter;" />
   </g>
   <g id="patch_25">
    <path clip-path="url(#p585009a0e2)" d="M 477.163636 268.322115  L 469.8 268.322115  L 469.8 242.531524  L 477.163636 242.531524  z " style="fill:#008000;stroke:#000000;stroke-linejoin:miter;" />
   </g>
   <g id="patch_26">
    <path clip-path="url(#p585009a0e2)" d="M 464.890909 286.439471  L 457.527273 286.439471  L 457.527273 269.103648  L 464.890909 269.103648  z " style="fill:#ff0000;stroke:#000000;stroke-linejoin:miter;" />
   </g>
   <g id="patch_27">
    <path clip-path="url(#p585009a0e2)" d="M 452.618182 302.425374  L 445.254545 302.425374  L 445.254545 268.393163  L 452.618182 268.393163  z " style="fill:#008000;stroke:#000000;stroke-linejoin:miter;" />
   </g>
   <g id="patch_28">
    <path clip-path="url(#p585009a0e2)" d="M 440.345455 357.345833  L 432.981818 357.345833  L 432.981818 320.045392  L 440.345455 320.045392  z " style="fill:#008000;stroke:#000000;stroke-linejoin:miter;" />
   </g>
   <g id="patch_29">
    <path clip-path="url(#p585009a0e2)" d="M 428.072727 358.127366  L 420.709091 358.127366  L 420.709091 334.041938  L 428.072727 334.041938  z " style="fill:#ff0000;stroke:#000000;stroke-linejoin:miter;" />
   </g>
   <g id="patch_30">
    <path clip-path="url(#p585009a0e2)" d="M 415.8 349.743648  L 408.436364 349.743648  L 408.436364 319.619101  L 415.8 319.619101  z " style="fill:#ff0000;stroke:#000000;stroke-linejoin:miter;" />
   </g>
   <g id="patch_31">
    <path clip-path="url(#p585009a0e2)" d="M 403.527273 367.789956  L 396.163636 367.789956  L 396.163636 311.022238  L 403.527273 311.022238  z " style="fill:#008000;stroke:#000000;stroke-linejoin:miter;" />
   </g>
   <g id="patch_32">
    <path clip-path="url(#p585009a0e2)" d="M 391.254545 345.48074  L 383.890909 345.48074  L 383.890909 298.872952  L 391.254545 298.872952  z " style="fill:#ff0000;stroke:#000000;stroke-linejoin:miter;" />
   </g>
   <g id="patch_33">
    <path clip-path="url(#p585009a0e2)" d="M 378.981818 320.897974  L 371.618182 320.897974  L 371.618182 318.411278  L 378.981818 318.411278  z " style="fill:#008000;stroke:#000000;stroke-linejoin:miter;" />
   </g>
   <g id="patch_34">
    <path clip-path="url(#p585009a0e2)" d="M 366.709091 332.265727  L 359.345455 332.265727  L 359.345455 330.489515  L 366.709091 330.489515  z " style="fill:#008000;stroke:#000000;stroke-linejoin:miter;" />
   </g>
   <g id="patch_35">
    <path clip-path="url(#p585009a0e2)" d="M 354.436364 360.68511  L 347.072727 360.68511  L 347.072727 341.430978  L 354.436364 341.430978  z " style="fill:#008000;stroke:#000000;stroke-linejoin:miter;" />
   </g>
   <g id="patch_36">
    <path clip-path="url(#p585009a0e2)" d="M 342.163636 369.210925  L 334.8 369.210925  L 334.8 308.109251  L 342.163636 308.109251  z " style="fill:#ff0000;stroke:#000000;stroke-linejoin:miter;" />
   </g>
   <g id="patch_37">
    <path clip-path="url(#p585009a0e2)" d="M 329.890909 381.999648  L 322.527273 381.999648  L 322.527273 328.002819  L 329.890909 328.002819  z " style="fill:#008000;stroke:#000000;stroke-linejoin:miter;" />
   </g>
   <g id="patch_38">
    <path clip-path="url(#p585009a0e2)" d="M 317.618182 369.210925  L 310.254545 369.210925  L 310.254545 349.672599  L 317.618182 349.672599  z " style="fill:#008000;stroke:#000000;stroke-linejoin:miter;" />
   </g>
   <g id="patch_39">
    <path clip-path="url(#p585009a0e2)" d="M 305.345455 357.772123  L 297.981818 357.772123  L 297.981818 352.159295  L 305.345455 352.159295  z " style="fill:#ff0000;stroke:#000000;stroke-linejoin:miter;" />
   </g>
   <g id="patch_40">
    <path clip-path="url(#p585009a0e2)" d="M 293.072727 366.368987  L 285.709091 366.368987  L 285.709091 364.734872  L 293.072727 364.734872  z " style="fill:#008000;stroke:#000000;stroke-linejoin:miter;" />
   </g>
   <g id="patch_41">
    <path clip-path="url(#p585009a0e2)" d="M 280.8 402.816846  L 273.436364 402.816846  L 273.436364 382.35489  L 280.8 382.35489  z " style="fill:#008000;stroke:#000000;stroke-linejoin:miter;" />
   </g>
   <g id="patch_42">
    <path clip-path="url(#p585009a0e2)" d="M 268.527273 441.680352  L 261.163636 441.680352  L 261.163636 403.669427  L 268.527273 403.669427  z " style="fill:#008000;stroke:#000000;stroke-linejoin:miter;" />
   </g>
   <g id="patch_43">
    <path clip-path="url(#p585009a0e2)" d="M 256.254545 448.927295  L 248.890909 448.927295  L 248.890909 430.454696  L 256.254545 430.454696  z " style="fill:#ff0000;stroke:#000000;stroke-linejoin:miter;" />
   </g>
   <g id="patch_44">
    <path clip-path="url(#p585009a0e2)" d="M 243.981818 431.804617  L 236.618182 431.804617  L 236.618182 422.284123  L 243.981818 422.284123  z " style="fill:#008000;stroke:#000000;stroke-linejoin:miter;" />
   </g>
   <g id="patch_45">
    <path clip-path="url(#p585009a0e2)" d="M 231.709091 430.596793  L 224.345455 430.596793  L 224.345455 211.483348  L 231.709091 211.483348  z " style="fill:#ff0000;stroke:#000000;stroke-linejoin:miter;" />
   </g>
   <g id="patch_46">
    <path clip-path="url(#p585009a0e2)" d="M 219.436364 382.639084  L 212.072727 382.639084  L 212.072727 358.198414  L 219.436364 358.198414  z " style="fill:#008000;stroke:#000000;stroke-linejoin:miter;" />
   </g>
   <g id="patch_47">
    <path clip-path="url(#p585009a0e2)" d="M 207.163636 407.434996  L 199.8 407.434996  L 199.8 351.093568  L 207.163636 351.093568  z " style="fill:#008000;stroke:#000000;stroke-linejoin:miter;" />
   </g>
   <g id="patch_48">
    <path clip-path="url(#p585009a0e2)" d="M 194.890909 415.179278  L 187.527273 415.179278  L 187.527273 339.370573  L 194.890909 339.370573  z " style="fill:#ff0000;stroke:#000000;stroke-linejoin:miter;" />
   </g>
   <g id="patch_49">
    <path clip-path="url(#p585009a0e2)" d="M 182.618182 350.525181  L 175.254545 350.525181  L 175.254545 332.265727  L 182.618182 332.265727  z " style="fill:#ff0000;stroke:#000000;stroke-linejoin:miter;" />
   </g>
   <g id="patch_50">
    <path clip-path="url(#p585009a0e2)" d="M 170.345455 345.48074  L 162.981818 345.48074  L 162.981818 275.498009  L 170.345455 275.498009  z " style="fill:#ff0000;stroke:#000000;stroke-linejoin:miter;" />
   </g>
   <g id="patch_51">
    <path clip-path="url(#p585009a0e2)" d="M 158.072727 238.837004  L 150.709091 238.837004  L 150.709091 184.484934  L 158.072727 184.484934  z " style="fill:#ff0000;stroke:#000000;stroke-linejoin:miter;" />
   </g>
   <g id="patch_52">
    <path clip-path="url(#p585009a0e2)" d="M 145.8 289.636652  L 138.436364 289.636652  L 138.436364 209.138749  L 145.8 209.138749  z " style="fill:#008000;stroke:#000000;stroke-linejoin:miter;" />
   </g>
   <g id="matplotlib.axis_1">
    <g id="xtick_1">
     <g id="line2d_1">
      <path clip-path="url(#p585009a0e2)" d="M 743.481818 512.64  L 743.481818 69.12  " style="fill:none;stroke:#000000;stroke-dasharray:2.96,1.28;stroke-dashoffset:0;stroke-opacity:0.3;stroke-width:0.8;" />
     </g>
     <g id="line2d_2">
      <defs>
       <path d="M 0 0  L 0 3.5  " id="mf2304b9296" style="stroke:#000000;stroke-width:0.8;" />
      </defs>
      <g>
       <use style="stroke:#000000;stroke-width:0.8;" x="743.481818" ns4:href="#mf2304b9296" y="512.64" />
      </g>
     </g>
     <g id="text_1">
      
      <g transform="translate(714.424006 527.238438)scale(0.1 -0.1)">
       <defs>
        <path d="M 19.1875 8.296875  L 53.609375 8.296875  L 53.609375 0  L 7.328125 0  L 7.328125 8.296875  Q 12.9375 14.109375 22.625 23.890625  Q 32.328125 33.6875 34.8125 36.53125  Q 39.546875 41.84375 41.421875 45.53125  Q 43.3125 49.21875 43.3125 52.78125  Q 43.3125 58.59375 39.234375 62.25  Q 35.15625 65.921875 28.609375 65.921875  Q 23.96875 65.921875 18.8125 64.3125  Q 13.671875 62.703125 7.8125 59.421875  L 7.8125 69.390625  Q 13.765625 71.78125 18.9375 73  Q 24.125 74.21875 28.421875 74.21875  Q 39.75 74.21875 46.484375 68.546875  Q 53.21875 62.890625 53.21875 53.421875  Q 53.21875 48.921875 51.53125 44.890625  Q 49.859375 40.875 45.40625 35.40625  Q 44.1875 33.984375 37.640625 27.21875  Q 31.109375 20.453125 19.1875 8.296875  z " id="DejaVuSans-50" />
        <path d="M 31.78125 66.40625  Q 24.171875 66.40625 20.328125 58.90625  Q 16.5 51.421875 16.5 36.375  Q 16.5 21.390625 20.328125 13.890625  Q 24.171875 6.390625 31.78125 6.390625  Q 39.453125 6.390625 43.28125 13.890625  Q 47.125 21.390625 47.125 36.375  Q 47.125 51.421875 43.28125 58.90625  Q 39.453125 66.40625 31.78125 66.40625  z M 31.78125 74.21875  Q 44.046875 74.21875 50.515625 64.515625  Q 56.984375 54.828125 56.984375 36.375  Q 56.984375 17.96875 50.515625 8.265625  Q 44.046875 -1.421875 31.78125 -1.421875  Q 19.53125 -1.421875 13.0625 8.265625  Q 6.59375 17.96875 6.59375 36.375  Q 6.59375 54.828125 13.0625 64.515625  Q 19.53125 74.21875 31.78125 74.21875  z " id="DejaVuSans-48" />
        <path d="M 12.40625 8.296875  L 28.515625 8.296875  L 28.515625 63.921875  L 10.984375 60.40625  L 10.984375 69.390625  L 28.421875 72.90625  L 38.28125 72.90625  L 38.28125 8.296875  L 54.390625 8.296875  L 54.390625 0  L 12.40625 0  z " id="DejaVuSans-49" />
        <path d="M 4.890625 31.390625  L 31.203125 31.390625  L 31.203125 23.390625  L 4.890625 23.390625  z " id="DejaVuSans-45" />
        <path d="M 33.015625 40.375  Q 26.375 40.375 22.484375 35.828125  Q 18.609375 31.296875 18.609375 23.390625  Q 18.609375 15.53125 22.484375 10.953125  Q 26.375 6.390625 33.015625 6.390625  Q 39.65625 6.390625 43.53125 10.953125  Q 47.40625 15.53125 47.40625 23.390625  Q 47.40625 31.296875 43.53125 35.828125  Q 39.65625 40.375 33.015625 40.375  z M 52.59375 71.296875  L 52.59375 62.3125  Q 48.875 64.0625 45.09375 64.984375  Q 41.3125 65.921875 37.59375 65.921875  Q 27.828125 65.921875 22.671875 59.328125  Q 17.53125 52.734375 16.796875 39.40625  Q 19.671875 43.65625 24.015625 45.921875  Q 28.375 48.1875 33.59375 48.1875  Q 44.578125 48.1875 50.953125 41.515625  Q 57.328125 34.859375 57.328125 23.390625  Q 57.328125 12.15625 50.6875 5.359375  Q 44.046875 -1.421875 33.015625 -1.421875  Q 20.359375 -1.421875 13.671875 8.265625  Q 6.984375 17.96875 6.984375 36.375  Q 6.984375 53.65625 15.1875 63.9375  Q 23.390625 74.21875 37.203125 74.21875  Q 40.921875 74.21875 44.703125 73.484375  Q 48.484375 72.75 52.59375 71.296875  z " id="DejaVuSans-54" />
       </defs>
       <use ns4:href="#DejaVuSans-50" />
       <use x="63.623047" ns4:href="#DejaVuSans-48" />
       <use x="127.246094" ns4:href="#DejaVuSans-50" />
       <use x="190.869141" ns4:href="#DejaVuSans-49" />
       <use x="254.492188" ns4:href="#DejaVuSans-45" />
       <use x="290.576172" ns4:href="#DejaVuSans-48" />
       <use x="354.199219" ns4:href="#DejaVuSans-54" />
       <use x="417.822266" ns4:href="#DejaVuSans-45" />
       <use x="453.90625" ns4:href="#DejaVuSans-50" />
       <use x="517.529297" ns4:href="#DejaVuSans-49" />
      </g>
     </g>
    </g>
    <g id="xtick_2">
     <g id="line2d_3">
      <path clip-path="url(#p585009a0e2)" d="M 718.936364 512.64  L 718.936364 69.12  " style="fill:none;stroke:#000000;stroke-dasharray:2.96,1.28;stroke-dashoffset:0;stroke-opacity:0.3;stroke-width:0.8;" />
     </g>
     <g id="line2d_4">
      <g>
       <use style="stroke:#000000;stroke-width:0.8;" x="718.936364" ns4:href="#mf2304b9296" y="512.64" />
      </g>
     </g>
     <g id="text_2">
      
      <g transform="translate(689.878551 527.238438)scale(0.1 -0.1)">
       <defs>
        <path d="M 8.203125 72.90625  L 55.078125 72.90625  L 55.078125 68.703125  L 28.609375 0  L 18.3125 0  L 43.21875 64.59375  L 8.203125 64.59375  z " id="DejaVuSans-55" />
       </defs>
       <use ns4:href="#DejaVuSans-50" />
       <use x="63.623047" ns4:href="#DejaVuSans-48" />
       <use x="127.246094" ns4:href="#DejaVuSans-50" />
       <use x="190.869141" ns4:href="#DejaVuSans-49" />
       <use x="254.492188" ns4:href="#DejaVuSans-45" />
       <use x="290.576172" ns4:href="#DejaVuSans-48" />
       <use x="354.199219" ns4:href="#DejaVuSans-54" />
       <use x="417.822266" ns4:href="#DejaVuSans-45" />
       <use x="453.90625" ns4:href="#DejaVuSans-49" />
       <use x="517.529297" ns4:href="#DejaVuSans-55" />
      </g>
     </g>
    </g>
    <g id="xtick_3">
     <g id="line2d_5">
      <path clip-path="url(#p585009a0e2)" d="M 694.390909 512.64  L 694.390909 69.12  " style="fill:none;stroke:#000000;stroke-dasharray:2.96,1.28;stroke-dashoffset:0;stroke-opacity:0.3;stroke-width:0.8;" />
     </g>
     <g id="line2d_6">
      <g>
       <use style="stroke:#000000;stroke-width:0.8;" x="694.390909" ns4:href="#mf2304b9296" y="512.64" />
      </g>
     </g>
     <g id="text_3">
      
      <g transform="translate(665.333097 527.238438)scale(0.1 -0.1)">
       <defs>
        <path d="M 10.796875 72.90625  L 49.515625 72.90625  L 49.515625 64.59375  L 19.828125 64.59375  L 19.828125 46.734375  Q 21.96875 47.46875 24.109375 47.828125  Q 26.265625 48.1875 28.421875 48.1875  Q 40.625 48.1875 47.75 41.5  Q 54.890625 34.8125 54.890625 23.390625  Q 54.890625 11.625 47.5625 5.09375  Q 40.234375 -1.421875 26.90625 -1.421875  Q 22.3125 -1.421875 17.546875 -0.640625  Q 12.796875 0.140625 7.71875 1.703125  L 7.71875 11.625  Q 12.109375 9.234375 16.796875 8.0625  Q 21.484375 6.890625 26.703125 6.890625  Q 35.15625 6.890625 40.078125 11.328125  Q 45.015625 15.765625 45.015625 23.390625  Q 45.015625 31 40.078125 35.4375  Q 35.15625 39.890625 26.703125 39.890625  Q 22.75 39.890625 18.8125 39.015625  Q 14.890625 38.140625 10.796875 36.28125  z " id="DejaVuSans-53" />
       </defs>
       <use ns4:href="#DejaVuSans-50" />
       <use x="63.623047" ns4:href="#DejaVuSans-48" />
       <use x="127.246094" ns4:href="#DejaVuSans-50" />
       <use x="190.869141" ns4:href="#DejaVuSans-49" />
       <use x="254.492188" ns4:href="#DejaVuSans-45" />
       <use x="290.576172" ns4:href="#DejaVuSans-48" />
       <use x="354.199219" ns4:href="#DejaVuSans-54" />
       <use x="417.822266" ns4:href="#DejaVuSans-45" />
       <use x="453.90625" ns4:href="#DejaVuSans-49" />
       <use x="517.529297" ns4:href="#DejaVuSans-53" />
      </g>
     </g>
    </g>
    <g id="xtick_4">
     <g id="line2d_7">
      <path clip-path="url(#p585009a0e2)" d="M 669.845455 512.64  L 669.845455 69.12  " style="fill:none;stroke:#000000;stroke-dasharray:2.96,1.28;stroke-dashoffset:0;stroke-opacity:0.3;stroke-width:0.8;" />
     </g>
     <g id="line2d_8">
      <g>
       <use style="stroke:#000000;stroke-width:0.8;" x="669.845455" ns4:href="#mf2304b9296" y="512.64" />
      </g>
     </g>
     <g id="text_4">
      
      <g transform="translate(640.787642 527.238438)scale(0.1 -0.1)">
       <use ns4:href="#DejaVuSans-50" />
       <use x="63.623047" ns4:href="#DejaVuSans-48" />
       <use x="127.246094" ns4:href="#DejaVuSans-50" />
       <use x="190.869141" ns4:href="#DejaVuSans-49" />
       <use x="254.492188" ns4:href="#DejaVuSans-45" />
       <use x="290.576172" ns4:href="#DejaVuSans-48" />
       <use x="354.199219" ns4:href="#DejaVuSans-54" />
       <use x="417.822266" ns4:href="#DejaVuSans-45" />
       <use x="453.90625" ns4:href="#DejaVuSans-49" />
       <use x="517.529297" ns4:href="#DejaVuSans-49" />
      </g>
     </g>
    </g>
    <g id="xtick_5">
     <g id="line2d_9">
      <path clip-path="url(#p585009a0e2)" d="M 645.3 512.64  L 645.3 69.12  " style="fill:none;stroke:#000000;stroke-dasharray:2.96,1.28;stroke-dashoffset:0;stroke-opacity:0.3;stroke-width:0.8;" />
     </g>
     <g id="line2d_10">
      <g>
       <use style="stroke:#000000;stroke-width:0.8;" x="645.3" ns4:href="#mf2304b9296" y="512.64" />
      </g>
     </g>
     <g id="text_5">
      
      <g transform="translate(616.242188 527.238438)scale(0.1 -0.1)">
       <defs>
        <path d="M 10.984375 1.515625  L 10.984375 10.5  Q 14.703125 8.734375 18.5 7.8125  Q 22.3125 6.890625 25.984375 6.890625  Q 35.75 6.890625 40.890625 13.453125  Q 46.046875 20.015625 46.78125 33.40625  Q 43.953125 29.203125 39.59375 26.953125  Q 35.25 24.703125 29.984375 24.703125  Q 19.046875 24.703125 12.671875 31.3125  Q 6.296875 37.9375 6.296875 49.421875  Q 6.296875 60.640625 12.9375 67.421875  Q 19.578125 74.21875 30.609375 74.21875  Q 43.265625 74.21875 49.921875 64.515625  Q 56.59375 54.828125 56.59375 36.375  Q 56.59375 19.140625 48.40625 8.859375  Q 40.234375 -1.421875 26.421875 -1.421875  Q 22.703125 -1.421875 18.890625 -0.6875  Q 15.09375 0.046875 10.984375 1.515625  z M 30.609375 32.421875  Q 37.25 32.421875 41.125 36.953125  Q 45.015625 41.5 45.015625 49.421875  Q 45.015625 57.28125 41.125 61.84375  Q 37.25 66.40625 30.609375 66.40625  Q 23.96875 66.40625 20.09375 61.84375  Q 16.21875 57.28125 16.21875 49.421875  Q 16.21875 41.5 20.09375 36.953125  Q 23.96875 32.421875 30.609375 32.421875  z " id="DejaVuSans-57" />
       </defs>
       <use ns4:href="#DejaVuSans-50" />
       <use x="63.623047" ns4:href="#DejaVuSans-48" />
       <use x="127.246094" ns4:href="#DejaVuSans-50" />
       <use x="190.869141" ns4:href="#DejaVuSans-49" />
       <use x="254.492188" ns4:href="#DejaVuSans-45" />
       <use x="290.576172" ns4:href="#DejaVuSans-48" />
       <use x="354.199219" ns4:href="#DejaVuSans-54" />
       <use x="417.822266" ns4:href="#DejaVuSans-45" />
       <use x="453.90625" ns4:href="#DejaVuSans-48" />
       <use x="517.529297" ns4:href="#DejaVuSans-57" />
      </g>
     </g>
    </g>
    <g id="xtick_6">
     <g id="line2d_11">
      <path clip-path="url(#p585009a0e2)" d="M 620.754545 512.64  L 620.754545 69.12  " style="fill:none;stroke:#000000;stroke-dasharray:2.96,1.28;stroke-dashoffset:0;stroke-opacity:0.3;stroke-width:0.8;" />
     </g>
     <g id="line2d_12">
      <g>
       <use style="stroke:#000000;stroke-width:0.8;" x="620.754545" ns4:href="#mf2304b9296" y="512.64" />
      </g>
     </g>
     <g id="text_6">
      
      <g transform="translate(591.696733 527.238438)scale(0.1 -0.1)">
       <use ns4:href="#DejaVuSans-50" />
       <use x="63.623047" ns4:href="#DejaVuSans-48" />
       <use x="127.246094" ns4:href="#DejaVuSans-50" />
       <use x="190.869141" ns4:href="#DejaVuSans-49" />
       <use x="254.492188" ns4:href="#DejaVuSans-45" />
       <use x="290.576172" ns4:href="#DejaVuSans-48" />
       <use x="354.199219" ns4:href="#DejaVuSans-54" />
       <use x="417.822266" ns4:href="#DejaVuSans-45" />
       <use x="453.90625" ns4:href="#DejaVuSans-48" />
       <use x="517.529297" ns4:href="#DejaVuSans-55" />
      </g>
     </g>
    </g>
    <g id="xtick_7">
     <g id="line2d_13">
      <path clip-path="url(#p585009a0e2)" d="M 596.209091 512.64  L 596.209091 69.12  " style="fill:none;stroke:#000000;stroke-dasharray:2.96,1.28;stroke-dashoffset:0;stroke-opacity:0.3;stroke-width:0.8;" />
     </g>
     <g id="line2d_14">
      <g>
       <use style="stroke:#000000;stroke-width:0.8;" x="596.209091" ns4:href="#mf2304b9296" y="512.64" />
      </g>
     </g>
     <g id="text_7">
      
      <g transform="translate(567.151278 527.238438)scale(0.1 -0.1)">
       <defs>
        <path d="M 40.578125 39.3125  Q 47.65625 37.796875 51.625 33  Q 55.609375 28.21875 55.609375 21.1875  Q 55.609375 10.40625 48.1875 4.484375  Q 40.765625 -1.421875 27.09375 -1.421875  Q 22.515625 -1.421875 17.65625 -0.515625  Q 12.796875 0.390625 7.625 2.203125  L 7.625 11.71875  Q 11.71875 9.328125 16.59375 8.109375  Q 21.484375 6.890625 26.8125 6.890625  Q 36.078125 6.890625 40.9375 10.546875  Q 45.796875 14.203125 45.796875 21.1875  Q 45.796875 27.640625 41.28125 31.265625  Q 36.765625 34.90625 28.71875 34.90625  L 20.21875 34.90625  L 20.21875 43.015625  L 29.109375 43.015625  Q 36.375 43.015625 40.234375 45.921875  Q 44.09375 48.828125 44.09375 54.296875  Q 44.09375 59.90625 40.109375 62.90625  Q 36.140625 65.921875 28.71875 65.921875  Q 24.65625 65.921875 20.015625 65.03125  Q 15.375 64.15625 9.8125 62.3125  L 9.8125 71.09375  Q 15.4375 72.65625 20.34375 73.4375  Q 25.25 74.21875 29.59375 74.21875  Q 40.828125 74.21875 47.359375 69.109375  Q 53.90625 64.015625 53.90625 55.328125  Q 53.90625 49.265625 50.4375 45.09375  Q 46.96875 40.921875 40.578125 39.3125  z " id="DejaVuSans-51" />
       </defs>
       <use ns4:href="#DejaVuSans-50" />
       <use x="63.623047" ns4:href="#DejaVuSans-48" />
       <use x="127.246094" ns4:href="#DejaVuSans-50" />
       <use x="190.869141" ns4:href="#DejaVuSans-49" />
       <use x="254.492188" ns4:href="#DejaVuSans-45" />
       <use x="290.576172" ns4:href="#DejaVuSans-48" />
       <use x="354.199219" ns4:href="#DejaVuSans-54" />
       <use x="417.822266" ns4:href="#DejaVuSans-45" />
       <use x="453.90625" ns4:href="#DejaVuSans-48" />
       <use x="517.529297" ns4:href="#DejaVuSans-51" />
      </g>
     </g>
    </g>
    <g id="xtick_8">
     <g id="line2d_15">
      <path clip-path="url(#p585009a0e2)" d="M 571.663636 512.64  L 571.663636 69.12  " style="fill:none;stroke:#000000;stroke-dasharray:2.96,1.28;stroke-dashoffset:0;stroke-opacity:0.3;stroke-width:0.8;" />
     </g>
     <g id="line2d_16">
      <g>
       <use style="stroke:#000000;stroke-width:0.8;" x="571.663636" ns4:href="#mf2304b9296" y="512.64" />
      </g>
     </g>
     <g id="text_8">
      
      <g transform="translate(542.605824 527.238438)scale(0.1 -0.1)">
       <use ns4:href="#DejaVuSans-50" />
       <use x="63.623047" ns4:href="#DejaVuSans-48" />
       <use x="127.246094" ns4:href="#DejaVuSans-50" />
       <use x="190.869141" ns4:href="#DejaVuSans-49" />
       <use x="254.492188" ns4:href="#DejaVuSans-45" />
       <use x="290.576172" ns4:href="#DejaVuSans-48" />
       <use x="354.199219" ns4:href="#DejaVuSans-54" />
       <use x="417.822266" ns4:href="#DejaVuSans-45" />
       <use x="453.90625" ns4:href="#DejaVuSans-48" />
       <use x="517.529297" ns4:href="#DejaVuSans-49" />
      </g>
     </g>
    </g>
    <g id="xtick_9">
     <g id="line2d_17">
      <path clip-path="url(#p585009a0e2)" d="M 547.118182 512.64  L 547.118182 69.12  " style="fill:none;stroke:#000000;stroke-dasharray:2.96,1.28;stroke-dashoffset:0;stroke-opacity:0.3;stroke-width:0.8;" />
     </g>
     <g id="line2d_18">
      <g>
       <use style="stroke:#000000;stroke-width:0.8;" x="547.118182" ns4:href="#mf2304b9296" y="512.64" />
      </g>
     </g>
     <g id="text_9">
      
      <g transform="translate(518.060369 527.238438)scale(0.1 -0.1)">
       <defs>
        <path d="M 31.78125 34.625  Q 24.75 34.625 20.71875 30.859375  Q 16.703125 27.09375 16.703125 20.515625  Q 16.703125 13.921875 20.71875 10.15625  Q 24.75 6.390625 31.78125 6.390625  Q 38.8125 6.390625 42.859375 10.171875  Q 46.921875 13.96875 46.921875 20.515625  Q 46.921875 27.09375 42.890625 30.859375  Q 38.875 34.625 31.78125 34.625  z M 21.921875 38.8125  Q 15.578125 40.375 12.03125 44.71875  Q 8.5 49.078125 8.5 55.328125  Q 8.5 64.0625 14.71875 69.140625  Q 20.953125 74.21875 31.78125 74.21875  Q 42.671875 74.21875 48.875 69.140625  Q 55.078125 64.0625 55.078125 55.328125  Q 55.078125 49.078125 51.53125 44.71875  Q 48 40.375 41.703125 38.8125  Q 48.828125 37.15625 52.796875 32.3125  Q 56.78125 27.484375 56.78125 20.515625  Q 56.78125 9.90625 50.3125 4.234375  Q 43.84375 -1.421875 31.78125 -1.421875  Q 19.734375 -1.421875 13.25 4.234375  Q 6.78125 9.90625 6.78125 20.515625  Q 6.78125 27.484375 10.78125 32.3125  Q 14.796875 37.15625 21.921875 38.8125  z M 18.3125 54.390625  Q 18.3125 48.734375 21.84375 45.5625  Q 25.390625 42.390625 31.78125 42.390625  Q 38.140625 42.390625 41.71875 45.5625  Q 45.3125 48.734375 45.3125 54.390625  Q 45.3125 60.0625 41.71875 63.234375  Q 38.140625 66.40625 31.78125 66.40625  Q 25.390625 66.40625 21.84375 63.234375  Q 18.3125 60.0625 18.3125 54.390625  z " id="DejaVuSans-56" />
       </defs>
       <use ns4:href="#DejaVuSans-50" />
       <use x="63.623047" ns4:href="#DejaVuSans-48" />
       <use x="127.246094" ns4:href="#DejaVuSans-50" />
       <use x="190.869141" ns4:href="#DejaVuSans-49" />
       <use x="254.492188" ns4:href="#DejaVuSans-45" />
       <use x="290.576172" ns4:href="#DejaVuSans-48" />
       <use x="354.199219" ns4:href="#DejaVuSans-53" />
       <use x="417.822266" ns4:href="#DejaVuSans-45" />
       <use x="453.90625" ns4:href="#DejaVuSans-50" />
       <use x="517.529297" ns4:href="#DejaVuSans-56" />
      </g>
     </g>
    </g>
    <g id="xtick_10">
     <g id="line2d_19">
      <path clip-path="url(#p585009a0e2)" d="M 522.572727 512.64  L 522.572727 69.12  " style="fill:none;stroke:#000000;stroke-dasharray:2.96,1.28;stroke-dashoffset:0;stroke-opacity:0.3;stroke-width:0.8;" />
     </g>
     <g id="line2d_20">
      <g>
       <use style="stroke:#000000;stroke-width:0.8;" x="522.572727" ns4:href="#mf2304b9296" y="512.64" />
      </g>
     </g>
     <g id="text_10">
      
      <g transform="translate(493.514915 527.238438)scale(0.1 -0.1)">
       <use ns4:href="#DejaVuSans-50" />
       <use x="63.623047" ns4:href="#DejaVuSans-48" />
       <use x="127.246094" ns4:href="#DejaVuSans-50" />
       <use x="190.869141" ns4:href="#DejaVuSans-49" />
       <use x="254.492188" ns4:href="#DejaVuSans-45" />
       <use x="290.576172" ns4:href="#DejaVuSans-48" />
       <use x="354.199219" ns4:href="#DejaVuSans-53" />
       <use x="417.822266" ns4:href="#DejaVuSans-45" />
       <use x="453.90625" ns4:href="#DejaVuSans-50" />
       <use x="517.529297" ns4:href="#DejaVuSans-54" />
      </g>
     </g>
    </g>
    <g id="xtick_11">
     <g id="line2d_21">
      <path clip-path="url(#p585009a0e2)" d="M 498.027273 512.64  L 498.027273 69.12  " style="fill:none;stroke:#000000;stroke-dasharray:2.96,1.28;stroke-dashoffset:0;stroke-opacity:0.3;stroke-width:0.8;" />
     </g>
     <g id="line2d_22">
      <g>
       <use style="stroke:#000000;stroke-width:0.8;" x="498.027273" ns4:href="#mf2304b9296" y="512.64" />
      </g>
     </g>
     <g id="text_11">
      
      <g transform="translate(468.96946 527.238438)scale(0.1 -0.1)">
       <defs>
        <path d="M 37.796875 64.3125  L 12.890625 25.390625  L 37.796875 25.390625  z M 35.203125 72.90625  L 47.609375 72.90625  L 47.609375 25.390625  L 58.015625 25.390625  L 58.015625 17.1875  L 47.609375 17.1875  L 47.609375 0  L 37.796875 0  L 37.796875 17.1875  L 4.890625 17.1875  L 4.890625 26.703125  z " id="DejaVuSans-52" />
       </defs>
       <use ns4:href="#DejaVuSans-50" />
       <use x="63.623047" ns4:href="#DejaVuSans-48" />
       <use x="127.246094" ns4:href="#DejaVuSans-50" />
       <use x="190.869141" ns4:href="#DejaVuSans-49" />
       <use x="254.492188" ns4:href="#DejaVuSans-45" />
       <use x="290.576172" ns4:href="#DejaVuSans-48" />
       <use x="354.199219" ns4:href="#DejaVuSans-53" />
       <use x="417.822266" ns4:href="#DejaVuSans-45" />
       <use x="453.90625" ns4:href="#DejaVuSans-50" />
       <use x="517.529297" ns4:href="#DejaVuSans-52" />
      </g>
     </g>
    </g>
    <g id="xtick_12">
     <g id="line2d_23">
      <path clip-path="url(#p585009a0e2)" d="M 473.481818 512.64  L 473.481818 69.12  " style="fill:none;stroke:#000000;stroke-dasharray:2.96,1.28;stroke-dashoffset:0;stroke-opacity:0.3;stroke-width:0.8;" />
     </g>
     <g id="line2d_24">
      <g>
       <use style="stroke:#000000;stroke-width:0.8;" x="473.481818" ns4:href="#mf2304b9296" y="512.64" />
      </g>
     </g>
     <g id="text_12">
      
      <g transform="translate(444.424006 527.238438)scale(0.1 -0.1)">
       <use ns4:href="#DejaVuSans-50" />
       <use x="63.623047" ns4:href="#DejaVuSans-48" />
       <use x="127.246094" ns4:href="#DejaVuSans-50" />
       <use x="190.869141" ns4:href="#DejaVuSans-49" />
       <use x="254.492188" ns4:href="#DejaVuSans-45" />
       <use x="290.576172" ns4:href="#DejaVuSans-48" />
       <use x="354.199219" ns4:href="#DejaVuSans-53" />
       <use x="417.822266" ns4:href="#DejaVuSans-45" />
       <use x="453.90625" ns4:href="#DejaVuSans-50" />
       <use x="517.529297" ns4:href="#DejaVuSans-48" />
      </g>
     </g>
    </g>
    <g id="xtick_13">
     <g id="line2d_25">
      <path clip-path="url(#p585009a0e2)" d="M 448.936364 512.64  L 448.936364 69.12  " style="fill:none;stroke:#000000;stroke-dasharray:2.96,1.28;stroke-dashoffset:0;stroke-opacity:0.3;stroke-width:0.8;" />
     </g>
     <g id="line2d_26">
      <g>
       <use style="stroke:#000000;stroke-width:0.8;" x="448.936364" ns4:href="#mf2304b9296" y="512.64" />
      </g>
     </g>
     <g id="text_13">
      
      <g transform="translate(419.878551 527.238438)scale(0.1 -0.1)">
       <use ns4:href="#DejaVuSans-50" />
       <use x="63.623047" ns4:href="#DejaVuSans-48" />
       <use x="127.246094" ns4:href="#DejaVuSans-50" />
       <use x="190.869141" ns4:href="#DejaVuSans-49" />
       <use x="254.492188" ns4:href="#DejaVuSans-45" />
       <use x="290.576172" ns4:href="#DejaVuSans-48" />
       <use x="354.199219" ns4:href="#DejaVuSans-53" />
       <use x="417.822266" ns4:href="#DejaVuSans-45" />
       <use x="453.90625" ns4:href="#DejaVuSans-49" />
       <use x="517.529297" ns4:href="#DejaVuSans-56" />
      </g>
     </g>
    </g>
    <g id="xtick_14">
     <g id="line2d_27">
      <path clip-path="url(#p585009a0e2)" d="M 424.390909 512.64  L 424.390909 69.12  " style="fill:none;stroke:#000000;stroke-dasharray:2.96,1.28;stroke-dashoffset:0;stroke-opacity:0.3;stroke-width:0.8;" />
     </g>
     <g id="line2d_28">
      <g>
       <use style="stroke:#000000;stroke-width:0.8;" x="424.390909" ns4:href="#mf2304b9296" y="512.64" />
      </g>
     </g>
     <g id="text_14">
      
      <g transform="translate(395.333097 527.238438)scale(0.1 -0.1)">
       <use ns4:href="#DejaVuSans-50" />
       <use x="63.623047" ns4:href="#DejaVuSans-48" />
       <use x="127.246094" ns4:href="#DejaVuSans-50" />
       <use x="190.869141" ns4:href="#DejaVuSans-49" />
       <use x="254.492188" ns4:href="#DejaVuSans-45" />
       <use x="290.576172" ns4:href="#DejaVuSans-48" />
       <use x="354.199219" ns4:href="#DejaVuSans-53" />
       <use x="417.822266" ns4:href="#DejaVuSans-45" />
       <use x="453.90625" ns4:href="#DejaVuSans-49" />
       <use x="517.529297" ns4:href="#DejaVuSans-52" />
      </g>
     </g>
    </g>
    <g id="xtick_15">
     <g id="line2d_29">
      <path clip-path="url(#p585009a0e2)" d="M 399.845455 512.64  L 399.845455 69.12  " style="fill:none;stroke:#000000;stroke-dasharray:2.96,1.28;stroke-dashoffset:0;stroke-opacity:0.3;stroke-width:0.8;" />
     </g>
     <g id="line2d_30">
      <g>
       <use style="stroke:#000000;stroke-width:0.8;" x="399.845455" ns4:href="#mf2304b9296" y="512.64" />
      </g>
     </g>
     <g id="text_15">
      
      <g transform="translate(370.787642 527.238438)scale(0.1 -0.1)">
       <use ns4:href="#DejaVuSans-50" />
       <use x="63.623047" ns4:href="#DejaVuSans-48" />
       <use x="127.246094" ns4:href="#DejaVuSans-50" />
       <use x="190.869141" ns4:href="#DejaVuSans-49" />
       <use x="254.492188" ns4:href="#DejaVuSans-45" />
       <use x="290.576172" ns4:href="#DejaVuSans-48" />
       <use x="354.199219" ns4:href="#DejaVuSans-53" />
       <use x="417.822266" ns4:href="#DejaVuSans-45" />
       <use x="453.90625" ns4:href="#DejaVuSans-49" />
       <use x="517.529297" ns4:href="#DejaVuSans-49" />
      </g>
     </g>
    </g>
    <g id="xtick_16">
     <g id="line2d_31">
      <path clip-path="url(#p585009a0e2)" d="M 375.3 512.64  L 375.3 69.12  " style="fill:none;stroke:#000000;stroke-dasharray:2.96,1.28;stroke-dashoffset:0;stroke-opacity:0.3;stroke-width:0.8;" />
     </g>
     <g id="line2d_32">
      <g>
       <use style="stroke:#000000;stroke-width:0.8;" x="375.3" ns4:href="#mf2304b9296" y="512.64" />
      </g>
     </g>
     <g id="text_16">
      
      <g transform="translate(346.242188 527.238438)scale(0.1 -0.1)">
       <use ns4:href="#DejaVuSans-50" />
       <use x="63.623047" ns4:href="#DejaVuSans-48" />
       <use x="127.246094" ns4:href="#DejaVuSans-50" />
       <use x="190.869141" ns4:href="#DejaVuSans-49" />
       <use x="254.492188" ns4:href="#DejaVuSans-45" />
       <use x="290.576172" ns4:href="#DejaVuSans-48" />
       <use x="354.199219" ns4:href="#DejaVuSans-53" />
       <use x="417.822266" ns4:href="#DejaVuSans-45" />
       <use x="453.90625" ns4:href="#DejaVuSans-48" />
       <use x="517.529297" ns4:href="#DejaVuSans-55" />
      </g>
     </g>
    </g>
    <g id="xtick_17">
     <g id="line2d_33">
      <path clip-path="url(#p585009a0e2)" d="M 350.754545 512.64  L 350.754545 69.12  " style="fill:none;stroke:#000000;stroke-dasharray:2.96,1.28;stroke-dashoffset:0;stroke-opacity:0.3;stroke-width:0.8;" />
     </g>
     <g id="line2d_34">
      <g>
       <use style="stroke:#000000;stroke-width:0.8;" x="350.754545" ns4:href="#mf2304b9296" y="512.64" />
      </g>
     </g>
     <g id="text_17">
      
      <g transform="translate(321.696733 527.238438)scale(0.1 -0.1)">
       <use ns4:href="#DejaVuSans-50" />
       <use x="63.623047" ns4:href="#DejaVuSans-48" />
       <use x="127.246094" ns4:href="#DejaVuSans-50" />
       <use x="190.869141" ns4:href="#DejaVuSans-49" />
       <use x="254.492188" ns4:href="#DejaVuSans-45" />
       <use x="290.576172" ns4:href="#DejaVuSans-48" />
       <use x="354.199219" ns4:href="#DejaVuSans-53" />
       <use x="417.822266" ns4:href="#DejaVuSans-45" />
       <use x="453.90625" ns4:href="#DejaVuSans-48" />
       <use x="517.529297" ns4:href="#DejaVuSans-53" />
      </g>
     </g>
    </g>
    <g id="xtick_18">
     <g id="line2d_35">
      <path clip-path="url(#p585009a0e2)" d="M 326.209091 512.64  L 326.209091 69.12  " style="fill:none;stroke:#000000;stroke-dasharray:2.96,1.28;stroke-dashoffset:0;stroke-opacity:0.3;stroke-width:0.8;" />
     </g>
     <g id="line2d_36">
      <g>
       <use style="stroke:#000000;stroke-width:0.8;" x="326.209091" ns4:href="#mf2304b9296" y="512.64" />
      </g>
     </g>
     <g id="text_18">
      
      <g transform="translate(297.151278 527.238438)scale(0.1 -0.1)">
       <use ns4:href="#DejaVuSans-50" />
       <use x="63.623047" ns4:href="#DejaVuSans-48" />
       <use x="127.246094" ns4:href="#DejaVuSans-50" />
       <use x="190.869141" ns4:href="#DejaVuSans-49" />
       <use x="254.492188" ns4:href="#DejaVuSans-45" />
       <use x="290.576172" ns4:href="#DejaVuSans-48" />
       <use x="354.199219" ns4:href="#DejaVuSans-53" />
       <use x="417.822266" ns4:href="#DejaVuSans-45" />
       <use x="453.90625" ns4:href="#DejaVuSans-48" />
       <use x="517.529297" ns4:href="#DejaVuSans-51" />
      </g>
     </g>
    </g>
    <g id="xtick_19">
     <g id="line2d_37">
      <path clip-path="url(#p585009a0e2)" d="M 301.663636 512.64  L 301.663636 69.12  " style="fill:none;stroke:#000000;stroke-dasharray:2.96,1.28;stroke-dashoffset:0;stroke-opacity:0.3;stroke-width:0.8;" />
     </g>
     <g id="line2d_38">
      <g>
       <use style="stroke:#000000;stroke-width:0.8;" x="301.663636" ns4:href="#mf2304b9296" y="512.64" />
      </g>
     </g>
     <g id="text_19">
      
      <g transform="translate(272.605824 527.238438)scale(0.1 -0.1)">
       <use ns4:href="#DejaVuSans-50" />
       <use x="63.623047" ns4:href="#DejaVuSans-48" />
       <use x="127.246094" ns4:href="#DejaVuSans-50" />
       <use x="190.869141" ns4:href="#DejaVuSans-49" />
       <use x="254.492188" ns4:href="#DejaVuSans-45" />
       <use x="290.576172" ns4:href="#DejaVuSans-48" />
       <use x="354.199219" ns4:href="#DejaVuSans-52" />
       <use x="417.822266" ns4:href="#DejaVuSans-45" />
       <use x="453.90625" ns4:href="#DejaVuSans-50" />
       <use x="517.529297" ns4:href="#DejaVuSans-57" />
      </g>
     </g>
    </g>
    <g id="xtick_20">
     <g id="line2d_39">
      <path clip-path="url(#p585009a0e2)" d="M 277.118182 512.64  L 277.118182 69.12  " style="fill:none;stroke:#000000;stroke-dasharray:2.96,1.28;stroke-dashoffset:0;stroke-opacity:0.3;stroke-width:0.8;" />
     </g>
     <g id="line2d_40">
      <g>
       <use style="stroke:#000000;stroke-width:0.8;" x="277.118182" ns4:href="#mf2304b9296" y="512.64" />
      </g>
     </g>
     <g id="text_20">
      
      <g transform="translate(248.060369 527.238438)scale(0.1 -0.1)">
       <use ns4:href="#DejaVuSans-50" />
       <use x="63.623047" ns4:href="#DejaVuSans-48" />
       <use x="127.246094" ns4:href="#DejaVuSans-50" />
       <use x="190.869141" ns4:href="#DejaVuSans-49" />
       <use x="254.492188" ns4:href="#DejaVuSans-45" />
       <use x="290.576172" ns4:href="#DejaVuSans-48" />
       <use x="354.199219" ns4:href="#DejaVuSans-52" />
       <use x="417.822266" ns4:href="#DejaVuSans-45" />
       <use x="453.90625" ns4:href="#DejaVuSans-50" />
       <use x="517.529297" ns4:href="#DejaVuSans-55" />
      </g>
     </g>
    </g>
    <g id="xtick_21">
     <g id="line2d_41">
      <path clip-path="url(#p585009a0e2)" d="M 252.572727 512.64  L 252.572727 69.12  " style="fill:none;stroke:#000000;stroke-dasharray:2.96,1.28;stroke-dashoffset:0;stroke-opacity:0.3;stroke-width:0.8;" />
     </g>
     <g id="line2d_42">
      <g>
       <use style="stroke:#000000;stroke-width:0.8;" x="252.572727" ns4:href="#mf2304b9296" y="512.64" />
      </g>
     </g>
     <g id="text_21">
      
      <g transform="translate(223.514915 527.238438)scale(0.1 -0.1)">
       <use ns4:href="#DejaVuSans-50" />
       <use x="63.623047" ns4:href="#DejaVuSans-48" />
       <use x="127.246094" ns4:href="#DejaVuSans-50" />
       <use x="190.869141" ns4:href="#DejaVuSans-49" />
       <use x="254.492188" ns4:href="#DejaVuSans-45" />
       <use x="290.576172" ns4:href="#DejaVuSans-48" />
       <use x="354.199219" ns4:href="#DejaVuSans-52" />
       <use x="417.822266" ns4:href="#DejaVuSans-45" />
       <use x="453.90625" ns4:href="#DejaVuSans-50" />
       <use x="517.529297" ns4:href="#DejaVuSans-51" />
      </g>
     </g>
    </g>
    <g id="xtick_22">
     <g id="line2d_43">
      <path clip-path="url(#p585009a0e2)" d="M 228.027273 512.64  L 228.027273 69.12  " style="fill:none;stroke:#000000;stroke-dasharray:2.96,1.28;stroke-dashoffset:0;stroke-opacity:0.3;stroke-width:0.8;" />
     </g>
     <g id="line2d_44">
      <g>
       <use style="stroke:#000000;stroke-width:0.8;" x="228.027273" ns4:href="#mf2304b9296" y="512.64" />
      </g>
     </g>
     <g id="text_22">
      
      <g transform="translate(198.96946 527.238438)scale(0.1 -0.1)">
       <use ns4:href="#DejaVuSans-50" />
       <use x="63.623047" ns4:href="#DejaVuSans-48" />
       <use x="127.246094" ns4:href="#DejaVuSans-50" />
       <use x="190.869141" ns4:href="#DejaVuSans-49" />
       <use x="254.492188" ns4:href="#DejaVuSans-45" />
       <use x="290.576172" ns4:href="#DejaVuSans-48" />
       <use x="354.199219" ns4:href="#DejaVuSans-52" />
       <use x="417.822266" ns4:href="#DejaVuSans-45" />
       <use x="453.90625" ns4:href="#DejaVuSans-50" />
       <use x="517.529297" ns4:href="#DejaVuSans-48" />
      </g>
     </g>
    </g>
    <g id="xtick_23">
     <g id="line2d_45">
      <path clip-path="url(#p585009a0e2)" d="M 203.481818 512.64  L 203.481818 69.12  " style="fill:none;stroke:#000000;stroke-dasharray:2.96,1.28;stroke-dashoffset:0;stroke-opacity:0.3;stroke-width:0.8;" />
     </g>
     <g id="line2d_46">
      <g>
       <use style="stroke:#000000;stroke-width:0.8;" x="203.481818" ns4:href="#mf2304b9296" y="512.64" />
      </g>
     </g>
     <g id="text_23">
      
      <g transform="translate(174.424006 527.238438)scale(0.1 -0.1)">
       <use ns4:href="#DejaVuSans-50" />
       <use x="63.623047" ns4:href="#DejaVuSans-48" />
       <use x="127.246094" ns4:href="#DejaVuSans-50" />
       <use x="190.869141" ns4:href="#DejaVuSans-49" />
       <use x="254.492188" ns4:href="#DejaVuSans-45" />
       <use x="290.576172" ns4:href="#DejaVuSans-48" />
       <use x="354.199219" ns4:href="#DejaVuSans-52" />
       <use x="417.822266" ns4:href="#DejaVuSans-45" />
       <use x="453.90625" ns4:href="#DejaVuSans-49" />
       <use x="517.529297" ns4:href="#DejaVuSans-54" />
      </g>
     </g>
    </g>
    <g id="xtick_24">
     <g id="line2d_47">
      <path clip-path="url(#p585009a0e2)" d="M 178.936364 512.64  L 178.936364 69.12  " style="fill:none;stroke:#000000;stroke-dasharray:2.96,1.28;stroke-dashoffset:0;stroke-opacity:0.3;stroke-width:0.8;" />
     </g>
     <g id="line2d_48">
      <g>
       <use style="stroke:#000000;stroke-width:0.8;" x="178.936364" ns4:href="#mf2304b9296" y="512.64" />
      </g>
     </g>
     <g id="text_24">
      
      <g transform="translate(149.878551 527.238438)scale(0.1 -0.1)">
       <use ns4:href="#DejaVuSans-50" />
       <use x="63.623047" ns4:href="#DejaVuSans-48" />
       <use x="127.246094" ns4:href="#DejaVuSans-50" />
       <use x="190.869141" ns4:href="#DejaVuSans-49" />
       <use x="254.492188" ns4:href="#DejaVuSans-45" />
       <use x="290.576172" ns4:href="#DejaVuSans-48" />
       <use x="354.199219" ns4:href="#DejaVuSans-52" />
       <use x="417.822266" ns4:href="#DejaVuSans-45" />
       <use x="453.90625" ns4:href="#DejaVuSans-49" />
       <use x="517.529297" ns4:href="#DejaVuSans-51" />
      </g>
     </g>
    </g>
    <g id="xtick_25">
     <g id="line2d_49">
      <path clip-path="url(#p585009a0e2)" d="M 154.390909 512.64  L 154.390909 69.12  " style="fill:none;stroke:#000000;stroke-dasharray:2.96,1.28;stroke-dashoffset:0;stroke-opacity:0.3;stroke-width:0.8;" />
     </g>
     <g id="line2d_50">
      <g>
       <use style="stroke:#000000;stroke-width:0.8;" x="154.390909" ns4:href="#mf2304b9296" y="512.64" />
      </g>
     </g>
     <g id="text_25">
      
      <g transform="translate(125.333097 527.238438)scale(0.1 -0.1)">
       <use ns4:href="#DejaVuSans-50" />
       <use x="63.623047" ns4:href="#DejaVuSans-48" />
       <use x="127.246094" ns4:href="#DejaVuSans-50" />
       <use x="190.869141" ns4:href="#DejaVuSans-49" />
       <use x="254.492188" ns4:href="#DejaVuSans-45" />
       <use x="290.576172" ns4:href="#DejaVuSans-48" />
       <use x="354.199219" ns4:href="#DejaVuSans-52" />
       <use x="417.822266" ns4:href="#DejaVuSans-45" />
       <use x="453.90625" ns4:href="#DejaVuSans-48" />
       <use x="517.529297" ns4:href="#DejaVuSans-57" />
      </g>
     </g>
    </g>
    <g id="text_26">
     
     <g transform="translate(430.849219 540.916563)scale(0.1 -0.1)">
      <defs>
       <path d="M 19.671875 64.796875  L 19.671875 8.109375  L 31.59375 8.109375  Q 46.6875 8.109375 53.6875 14.9375  Q 60.6875 21.78125 60.6875 36.53125  Q 60.6875 51.171875 53.6875 57.984375  Q 46.6875 64.796875 31.59375 64.796875  z M 9.8125 72.90625  L 30.078125 72.90625  Q 51.265625 72.90625 61.171875 64.09375  Q 71.09375 55.28125 71.09375 36.53125  Q 71.09375 17.671875 61.125 8.828125  Q 51.171875 0 30.078125 0  L 9.8125 0  z " id="DejaVuSans-68" />
       <path d="M 34.28125 27.484375  Q 23.390625 27.484375 19.1875 25  Q 14.984375 22.515625 14.984375 16.5  Q 14.984375 11.71875 18.140625 8.90625  Q 21.296875 6.109375 26.703125 6.109375  Q 34.1875 6.109375 38.703125 11.40625  Q 43.21875 16.703125 43.21875 25.484375  L 43.21875 27.484375  z M 52.203125 31.203125  L 52.203125 0  L 43.21875 0  L 43.21875 8.296875  Q 40.140625 3.328125 35.546875 0.953125  Q 30.953125 -1.421875 24.3125 -1.421875  Q 15.921875 -1.421875 10.953125 3.296875  Q 6 8.015625 6 15.921875  Q 6 25.140625 12.171875 29.828125  Q 18.359375 34.515625 30.609375 34.515625  L 43.21875 34.515625  L 43.21875 35.40625  Q 43.21875 41.609375 39.140625 45  Q 35.0625 48.390625 27.6875 48.390625  Q 23 48.390625 18.546875 47.265625  Q 14.109375 46.140625 10.015625 43.890625  L 10.015625 52.203125  Q 14.9375 54.109375 19.578125 55.046875  Q 24.21875 56 28.609375 56  Q 40.484375 56 46.34375 49.84375  Q 52.203125 43.703125 52.203125 31.203125  z " id="DejaVuSans-97" />
       <path d="M 18.3125 70.21875  L 18.3125 54.6875  L 36.8125 54.6875  L 36.8125 47.703125  L 18.3125 47.703125  L 18.3125 18.015625  Q 18.3125 11.328125 20.140625 9.421875  Q 21.96875 7.515625 27.59375 7.515625  L 36.8125 7.515625  L 36.8125 0  L 27.59375 0  Q 17.1875 0 13.234375 3.875  Q 9.28125 7.765625 9.28125 18.015625  L 9.28125 47.703125  L 2.6875 47.703125  L 2.6875 54.6875  L 9.28125 54.6875  L 9.28125 70.21875  z " id="DejaVuSans-116" />
       <path d="M 56.203125 29.59375  L 56.203125 25.203125  L 14.890625 25.203125  Q 15.484375 15.921875 20.484375 11.0625  Q 25.484375 6.203125 34.421875 6.203125  Q 39.59375 6.203125 44.453125 7.46875  Q 49.3125 8.734375 54.109375 11.28125  L 54.109375 2.78125  Q 49.265625 0.734375 44.1875 -0.34375  Q 39.109375 -1.421875 33.890625 -1.421875  Q 20.796875 -1.421875 13.15625 6.1875  Q 5.515625 13.8125 5.515625 26.8125  Q 5.515625 40.234375 12.765625 48.109375  Q 20.015625 56 32.328125 56  Q 43.359375 56 49.78125 48.890625  Q 56.203125 41.796875 56.203125 29.59375  z M 47.21875 32.234375  Q 47.125 39.59375 43.09375 43.984375  Q 39.0625 48.390625 32.421875 48.390625  Q 24.90625 48.390625 20.390625 44.140625  Q 15.875 39.890625 15.1875 32.171875  z " id="DejaVuSans-101" />
      </defs>
      <use ns4:href="#DejaVuSans-68" />
      <use x="77.001953" ns4:href="#DejaVuSans-97" />
      <use x="138.28125" ns4:href="#DejaVuSans-116" />
      <use x="177.490234" ns4:href="#DejaVuSans-101" />
     </g>
    </g>
   </g>
   <g id="matplotlib.axis_2">
    <g id="ytick_1">
     <g id="line2d_51">
      <path clip-path="url(#p585009a0e2)" d="M 108 467.257797  L 777.6 467.257797  " style="fill:none;stroke:#000000;stroke-dasharray:2.96,1.28;stroke-dashoffset:0;stroke-opacity:0.3;stroke-width:0.8;" />
     </g>
     <g id="line2d_52">
      <defs>
       <path d="M 0 0  L 3.5 0  " id="me998e21a5d" style="stroke:#000000;stroke-width:0.8;" />
      </defs>
      <g>
       <use style="stroke:#000000;stroke-width:0.8;" x="777.6" ns4:href="#me998e21a5d" y="467.257797" />
      </g>
     </g>
     <g id="text_27">
      
      <g transform="translate(784.6 471.057016)scale(0.1 -0.1)">
       <use ns4:href="#DejaVuSans-49" />
       <use x="63.623047" ns4:href="#DejaVuSans-56" />
       <use x="127.246094" ns4:href="#DejaVuSans-48" />
       <use x="190.869141" ns4:href="#DejaVuSans-48" />
      </g>
     </g>
    </g>
    <g id="ytick_2">
     <g id="line2d_53">
      <path clip-path="url(#p585009a0e2)" d="M 108 396.209339  L 777.6 396.209339  " style="fill:none;stroke:#000000;stroke-dasharray:2.96,1.28;stroke-dashoffset:0;stroke-opacity:0.3;stroke-width:0.8;" />
     </g>
     <g id="line2d_54">
      <g>
       <use style="stroke:#000000;stroke-width:0.8;" x="777.6" ns4:href="#me998e21a5d" y="396.209339" />
      </g>
     </g>
     <g id="text_28">
      
      <g transform="translate(784.6 400.008558)scale(0.1 -0.1)">
       <use ns4:href="#DejaVuSans-49" />
       <use x="63.623047" ns4:href="#DejaVuSans-56" />
       <use x="127.246094" ns4:href="#DejaVuSans-53" />
       <use x="190.869141" ns4:href="#DejaVuSans-48" />
      </g>
     </g>
    </g>
    <g id="ytick_3">
     <g id="line2d_55">
      <path clip-path="url(#p585009a0e2)" d="M 108 325.160881  L 777.6 325.160881  " style="fill:none;stroke:#000000;stroke-dasharray:2.96,1.28;stroke-dashoffset:0;stroke-opacity:0.3;stroke-width:0.8;" />
     </g>
     <g id="line2d_56">
      <g>
       <use style="stroke:#000000;stroke-width:0.8;" x="777.6" ns4:href="#me998e21a5d" y="325.160881" />
      </g>
     </g>
     <g id="text_29">
      
      <g transform="translate(784.6 328.9601)scale(0.1 -0.1)">
       <use ns4:href="#DejaVuSans-49" />
       <use x="63.623047" ns4:href="#DejaVuSans-57" />
       <use x="127.246094" ns4:href="#DejaVuSans-48" />
       <use x="190.869141" ns4:href="#DejaVuSans-48" />
      </g>
     </g>
    </g>
    <g id="ytick_4">
     <g id="line2d_57">
      <path clip-path="url(#p585009a0e2)" d="M 108 254.112423  L 777.6 254.112423  " style="fill:none;stroke:#000000;stroke-dasharray:2.96,1.28;stroke-dashoffset:0;stroke-opacity:0.3;stroke-width:0.8;" />
     </g>
     <g id="line2d_58">
      <g>
       <use style="stroke:#000000;stroke-width:0.8;" x="777.6" ns4:href="#me998e21a5d" y="254.112423" />
      </g>
     </g>
     <g id="text_30">
      
      <g transform="translate(784.6 257.911642)scale(0.1 -0.1)">
       <use ns4:href="#DejaVuSans-49" />
       <use x="63.623047" ns4:href="#DejaVuSans-57" />
       <use x="127.246094" ns4:href="#DejaVuSans-53" />
       <use x="190.869141" ns4:href="#DejaVuSans-48" />
      </g>
     </g>
    </g>
    <g id="ytick_5">
     <g id="line2d_59">
      <path clip-path="url(#p585009a0e2)" d="M 108 183.063965  L 777.6 183.063965  " style="fill:none;stroke:#000000;stroke-dasharray:2.96,1.28;stroke-dashoffset:0;stroke-opacity:0.3;stroke-width:0.8;" />
     </g>
     <g id="line2d_60">
      <g>
       <use style="stroke:#000000;stroke-width:0.8;" x="777.6" ns4:href="#me998e21a5d" y="183.063965" />
      </g>
     </g>
     <g id="text_31">
      
      <g transform="translate(784.6 186.863184)scale(0.1 -0.1)">
       <use ns4:href="#DejaVuSans-50" />
       <use x="63.623047" ns4:href="#DejaVuSans-48" />
       <use x="127.246094" ns4:href="#DejaVuSans-48" />
       <use x="190.869141" ns4:href="#DejaVuSans-48" />
      </g>
     </g>
    </g>
    <g id="ytick_6">
     <g id="line2d_61">
      <path clip-path="url(#p585009a0e2)" d="M 108 112.015507  L 777.6 112.015507  " style="fill:none;stroke:#000000;stroke-dasharray:2.96,1.28;stroke-dashoffset:0;stroke-opacity:0.3;stroke-width:0.8;" />
     </g>
     <g id="line2d_62">
      <g>
       <use style="stroke:#000000;stroke-width:0.8;" x="777.6" ns4:href="#me998e21a5d" y="112.015507" />
      </g>
     </g>
     <g id="text_32">
      
      <g transform="translate(784.6 115.814725)scale(0.1 -0.1)">
       <use ns4:href="#DejaVuSans-50" />
       <use x="63.623047" ns4:href="#DejaVuSans-48" />
       <use x="127.246094" ns4:href="#DejaVuSans-53" />
       <use x="190.869141" ns4:href="#DejaVuSans-48" />
      </g>
     </g>
    </g>
    <g id="text_33">
     
     <g transform="translate(821.648438 303.077656)rotate(-90)scale(0.1 -0.1)">
      <defs>
       <path d="M 19.671875 64.796875  L 19.671875 37.40625  L 32.078125 37.40625  Q 38.96875 37.40625 42.71875 40.96875  Q 46.484375 44.53125 46.484375 51.125  Q 46.484375 57.671875 42.71875 61.234375  Q 38.96875 64.796875 32.078125 64.796875  z M 9.8125 72.90625  L 32.078125 72.90625  Q 44.34375 72.90625 50.609375 67.359375  Q 56.890625 61.8125 56.890625 51.125  Q 56.890625 40.328125 50.609375 34.8125  Q 44.34375 29.296875 32.078125 29.296875  L 19.671875 29.296875  L 19.671875 0  L 9.8125 0  z " id="DejaVuSans-80" />
       <path d="M 41.109375 46.296875  Q 39.59375 47.171875 37.8125 47.578125  Q 36.03125 48 33.890625 48  Q 26.265625 48 22.1875 43.046875  Q 18.109375 38.09375 18.109375 28.8125  L 18.109375 0  L 9.078125 0  L 9.078125 54.6875  L 18.109375 54.6875  L 18.109375 46.1875  Q 20.953125 51.171875 25.484375 53.578125  Q 30.03125 56 36.53125 56  Q 37.453125 56 38.578125 55.875  Q 39.703125 55.765625 41.0625 55.515625  z " id="DejaVuSans-114" />
       <path d="M 9.421875 54.6875  L 18.40625 54.6875  L 18.40625 0  L 9.421875 0  z M 9.421875 75.984375  L 18.40625 75.984375  L 18.40625 64.59375  L 9.421875 64.59375  z " id="DejaVuSans-105" />
       <path d="M 48.78125 52.59375  L 48.78125 44.1875  Q 44.96875 46.296875 41.140625 47.34375  Q 37.3125 48.390625 33.40625 48.390625  Q 24.65625 48.390625 19.8125 42.84375  Q 14.984375 37.3125 14.984375 27.296875  Q 14.984375 17.28125 19.8125 11.734375  Q 24.65625 6.203125 33.40625 6.203125  Q 37.3125 6.203125 41.140625 7.25  Q 44.96875 8.296875 48.78125 10.40625  L 48.78125 2.09375  Q 45.015625 0.34375 40.984375 -0.53125  Q 36.96875 -1.421875 32.421875 -1.421875  Q 20.0625 -1.421875 12.78125 6.34375  Q 5.515625 14.109375 5.515625 27.296875  Q 5.515625 40.671875 12.859375 48.328125  Q 20.21875 56 33.015625 56  Q 37.15625 56 41.109375 55.140625  Q 45.0625 54.296875 48.78125 52.59375  z " id="DejaVuSans-99" />
      </defs>
      <use ns4:href="#DejaVuSans-80" />
      <use x="58.552734" ns4:href="#DejaVuSans-114" />
      <use x="99.666016" ns4:href="#DejaVuSans-105" />
      <use x="127.449219" ns4:href="#DejaVuSans-99" />
      <use x="182.429688" ns4:href="#DejaVuSans-101" />
     </g>
     
     <g transform="translate(832.84625 313.526875)rotate(-90)scale(0.1 -0.1)">
      <defs>
       <path id="DejaVuSans-32" />
       <path d="M 31 75.875  Q 24.46875 64.65625 21.28125 53.65625  Q 18.109375 42.671875 18.109375 31.390625  Q 18.109375 20.125 21.3125 9.0625  Q 24.515625 -2 31 -13.1875  L 23.1875 -13.1875  Q 15.875 -1.703125 12.234375 9.375  Q 8.59375 20.453125 8.59375 31.390625  Q 8.59375 42.28125 12.203125 53.3125  Q 15.828125 64.359375 23.1875 75.875  z " id="DejaVuSans-40" />
       <path d="M 8.5 21.578125  L 8.5 54.6875  L 17.484375 54.6875  L 17.484375 21.921875  Q 17.484375 14.15625 20.5 10.265625  Q 23.53125 6.390625 29.59375 6.390625  Q 36.859375 6.390625 41.078125 11.03125  Q 45.3125 15.671875 45.3125 23.6875  L 45.3125 54.6875  L 54.296875 54.6875  L 54.296875 0  L 45.3125 0  L 45.3125 8.40625  Q 42.046875 3.421875 37.71875 1  Q 33.40625 -1.421875 27.6875 -1.421875  Q 18.265625 -1.421875 13.375 4.4375  Q 8.5 10.296875 8.5 21.578125  z M 31.109375 56  z " id="DejaVuSans-117" />
       <path d="M 18.109375 8.203125  L 18.109375 -20.796875  L 9.078125 -20.796875  L 9.078125 54.6875  L 18.109375 54.6875  L 18.109375 46.390625  Q 20.953125 51.265625 25.265625 53.625  Q 29.59375 56 35.59375 56  Q 45.5625 56 51.78125 48.09375  Q 58.015625 40.1875 58.015625 27.296875  Q 58.015625 14.40625 51.78125 6.484375  Q 45.5625 -1.421875 35.59375 -1.421875  Q 29.59375 -1.421875 25.265625 0.953125  Q 20.953125 3.328125 18.109375 8.203125  z M 48.6875 27.296875  Q 48.6875 37.203125 44.609375 42.84375  Q 40.53125 48.484375 33.40625 48.484375  Q 26.265625 48.484375 22.1875 42.84375  Q 18.109375 37.203125 18.109375 27.296875  Q 18.109375 17.390625 22.1875 11.75  Q 26.265625 6.109375 33.40625 6.109375  Q 40.53125 6.109375 44.609375 11.75  Q 48.6875 17.390625 48.6875 27.296875  z " id="DejaVuSans-112" />
       <path d="M 44.28125 53.078125  L 44.28125 44.578125  Q 40.484375 46.53125 36.375 47.5  Q 32.28125 48.484375 27.875 48.484375  Q 21.1875 48.484375 17.84375 46.4375  Q 14.5 44.390625 14.5 40.28125  Q 14.5 37.15625 16.890625 35.375  Q 19.28125 33.59375 26.515625 31.984375  L 29.59375 31.296875  Q 39.15625 29.25 43.1875 25.515625  Q 47.21875 21.78125 47.21875 15.09375  Q 47.21875 7.46875 41.1875 3.015625  Q 35.15625 -1.421875 24.609375 -1.421875  Q 20.21875 -1.421875 15.453125 -0.5625  Q 10.6875 0.296875 5.421875 2  L 5.421875 11.28125  Q 10.40625 8.6875 15.234375 7.390625  Q 20.0625 6.109375 24.8125 6.109375  Q 31.15625 6.109375 34.5625 8.28125  Q 37.984375 10.453125 37.984375 14.40625  Q 37.984375 18.0625 35.515625 20.015625  Q 33.0625 21.96875 24.703125 23.78125  L 21.578125 24.515625  Q 13.234375 26.265625 9.515625 29.90625  Q 5.8125 33.546875 5.8125 39.890625  Q 5.8125 47.609375 11.28125 51.796875  Q 16.75 56 26.8125 56  Q 31.78125 56 36.171875 55.265625  Q 40.578125 54.546875 44.28125 53.078125  z " id="DejaVuSans-115" />
       <path d="M 8.015625 75.875  L 15.828125 75.875  Q 23.140625 64.359375 26.78125 53.3125  Q 30.421875 42.28125 30.421875 31.390625  Q 30.421875 20.453125 26.78125 9.375  Q 23.140625 -1.703125 15.828125 -13.1875  L 8.015625 -13.1875  Q 14.5 -2 17.703125 9.0625  Q 20.90625 20.125 20.90625 31.390625  Q 20.90625 42.671875 17.703125 53.65625  Q 14.5 64.65625 8.015625 75.875  z " id="DejaVuSans-41" />
      </defs>
      <use ns4:href="#DejaVuSans-32" />
      <use x="31.787109" ns4:href="#DejaVuSans-40" />
      <use x="70.800781" ns4:href="#DejaVuSans-114" />
      <use x="111.914062" ns4:href="#DejaVuSans-117" />
      <use x="175.292969" ns4:href="#DejaVuSans-112" />
      <use x="238.769531" ns4:href="#DejaVuSans-101" />
      <use x="300.292969" ns4:href="#DejaVuSans-101" />
      <use x="361.816406" ns4:href="#DejaVuSans-115" />
      <use x="413.916016" ns4:href="#DejaVuSans-41" />
     </g>
    </g>
   </g>
   <g id="line2d_63">
    <path clip-path="url(#p585009a0e2)" d="M 743.481818 198.836722  L 743.481818 123.525357  " style="fill:none;stroke:#008000;stroke-linecap:square;stroke-width:1.5;" />
   </g>
   <g id="line2d_64">
    <path clip-path="url(#p585009a0e2)" d="M 731.209091 188.463648  L 731.209091 93.542907  " style="fill:none;stroke:#ff0000;stroke-linecap:square;stroke-width:1.5;" />
   </g>
   <g id="line2d_65">
    <path clip-path="url(#p585009a0e2)" d="M 718.936364 175.959119  L 718.936364 93.613956  " style="fill:none;stroke:#008000;stroke-linecap:square;stroke-width:1.5;" />
   </g>
   <g id="line2d_66">
    <path clip-path="url(#p585009a0e2)" d="M 706.663636 164.022978  L 706.663636 107.752599  " style="fill:none;stroke:#ff0000;stroke-linecap:square;stroke-width:1.5;" />
   </g>
   <g id="line2d_67">
    <path clip-path="url(#p585009a0e2)" d="M 694.390909 138.942872  L 694.390909 89.28  " style="fill:none;stroke:#008000;stroke-linecap:square;stroke-width:1.5;" />
   </g>
   <g id="line2d_68">
    <path clip-path="url(#p585009a0e2)" d="M 682.118182 197.202608  L 682.118182 121.251806  " style="fill:none;stroke:#008000;stroke-linecap:square;stroke-width:1.5;" />
   </g>
   <g id="line2d_69">
    <path clip-path="url(#p585009a0e2)" d="M 669.845455 164.37822  L 669.845455 120.967612  " style="fill:none;stroke:#ff0000;stroke-linecap:square;stroke-width:1.5;" />
   </g>
   <g id="line2d_70">
    <path clip-path="url(#p585009a0e2)" d="M 657.572727 176.8117  L 657.572727 130.488106  " style="fill:none;stroke:#008000;stroke-linecap:square;stroke-width:1.5;" />
   </g>
   <g id="line2d_71">
    <path clip-path="url(#p585009a0e2)" d="M 645.3 196.278978  L 645.3 118.551965  " style="fill:none;stroke:#ff0000;stroke-linecap:square;stroke-width:1.5;" />
   </g>
   <g id="line2d_72">
    <path clip-path="url(#p585009a0e2)" d="M 633.027273 145.692476  L 633.027273 94.111295  " style="fill:none;stroke:#ff0000;stroke-linecap:square;stroke-width:1.5;" />
   </g>
   <g id="line2d_73">
    <path clip-path="url(#p585009a0e2)" d="M 620.754545 167.433304  L 620.754545 99.368881  " style="fill:none;stroke:#008000;stroke-linecap:square;stroke-width:1.5;" />
   </g>
   <g id="line2d_74">
    <path clip-path="url(#p585009a0e2)" d="M 608.481818 175.959119  L 608.481818 130.346009  " style="fill:none;stroke:#ff0000;stroke-linecap:square;stroke-width:1.5;" />
   </g>
   <g id="line2d_75">
    <path clip-path="url(#p585009a0e2)" d="M 596.209091 184.271789  L 596.209091 140.43489  " style="fill:none;stroke:#008000;stroke-linecap:square;stroke-width:1.5;" />
   </g>
   <g id="line2d_76">
    <path clip-path="url(#p585009a0e2)" d="M 583.936364 224.414167  L 583.936364 172.69089  " style="fill:none;stroke:#008000;stroke-linecap:square;stroke-width:1.5;" />
   </g>
   <g id="line2d_77">
    <path clip-path="url(#p585009a0e2)" d="M 571.663636 240.257974  L 571.663636 181.642996  " style="fill:none;stroke:#ff0000;stroke-linecap:square;stroke-width:1.5;" />
   </g>
   <g id="line2d_78">
    <path clip-path="url(#p585009a0e2)" d="M 559.390909 227.824493  L 559.390909 181.074608  " style="fill:none;stroke:#008000;stroke-linecap:square;stroke-width:1.5;" />
   </g>
   <g id="line2d_79">
    <path clip-path="url(#p585009a0e2)" d="M 547.118182 218.588194  L 547.118182 169.422661  " style="fill:none;stroke:#ff0000;stroke-linecap:square;stroke-width:1.5;" />
   </g>
   <g id="line2d_80">
    <path clip-path="url(#p585009a0e2)" d="M 534.845455 230.453286  L 534.845455 126.225198  " style="fill:none;stroke:#008000;stroke-linecap:square;stroke-width:1.5;" />
   </g>
   <g id="line2d_81">
    <path clip-path="url(#p585009a0e2)" d="M 522.572727 243.881445  L 522.572727 208.783507  " style="fill:none;stroke:#008000;stroke-linecap:square;stroke-width:1.5;" />
   </g>
   <g id="line2d_82">
    <path clip-path="url(#p585009a0e2)" d="M 510.3 249.281128  L 510.3 189.600423  " style="fill:none;stroke:#ff0000;stroke-linecap:square;stroke-width:1.5;" />
   </g>
   <g id="line2d_83">
    <path clip-path="url(#p585009a0e2)" d="M 498.027273 249.849515  L 498.027273 186.048  " style="fill:none;stroke:#008000;stroke-linecap:square;stroke-width:1.5;" />
   </g>
   <g id="line2d_84">
    <path clip-path="url(#p585009a0e2)" d="M 485.754545 240.89741  L 485.754545 200.186643  " style="fill:none;stroke:#ff0000;stroke-linecap:square;stroke-width:1.5;" />
   </g>
   <g id="line2d_85">
    <path clip-path="url(#p585009a0e2)" d="M 473.481818 295.320529  L 473.481818 234.929339  " style="fill:none;stroke:#008000;stroke-linecap:square;stroke-width:1.5;" />
   </g>
   <g id="line2d_86">
    <path clip-path="url(#p585009a0e2)" d="M 461.209091 301.004405  L 461.209091 208.64141  " style="fill:none;stroke:#ff0000;stroke-linecap:square;stroke-width:1.5;" />
   </g>
   <g id="line2d_87">
    <path clip-path="url(#p585009a0e2)" d="M 448.936364 316.564018  L 448.936364 251.48363  " style="fill:none;stroke:#008000;stroke-linecap:square;stroke-width:1.5;" />
   </g>
   <g id="line2d_88">
    <path clip-path="url(#p585009a0e2)" d="M 436.663636 371.484476  L 436.663636 314.14837  " style="fill:none;stroke:#008000;stroke-linecap:square;stroke-width:1.5;" />
   </g>
   <g id="line2d_89">
    <path clip-path="url(#p585009a0e2)" d="M 424.390909 390.525463  L 424.390909 326.723947  " style="fill:none;stroke:#ff0000;stroke-linecap:square;stroke-width:1.5;" />
   </g>
   <g id="line2d_90">
    <path clip-path="url(#p585009a0e2)" d="M 412.118182 357.843172  L 412.118182 311.022238  " style="fill:none;stroke:#ff0000;stroke-linecap:square;stroke-width:1.5;" />
   </g>
   <g id="line2d_91">
    <path clip-path="url(#p585009a0e2)" d="M 399.845455 381.644405  L 399.845455 296.741498  " style="fill:none;stroke:#008000;stroke-linecap:square;stroke-width:1.5;" />
   </g>
   <g id="line2d_92">
    <path clip-path="url(#p585009a0e2)" d="M 387.572727 353.225022  L 387.572727 295.320529  " style="fill:none;stroke:#ff0000;stroke-linecap:square;stroke-width:1.5;" />
   </g>
   <g id="line2d_93">
    <path clip-path="url(#p585009a0e2)" d="M 375.3 330.773709  L 375.3 284.094872  " style="fill:none;stroke:#008000;stroke-linecap:square;stroke-width:1.5;" />
   </g>
   <g id="line2d_94">
    <path clip-path="url(#p585009a0e2)" d="M 363.027273 357.558978  L 363.027273 313.082643  " style="fill:none;stroke:#008000;stroke-linecap:square;stroke-width:1.5;" />
   </g>
   <g id="line2d_95">
    <path clip-path="url(#p585009a0e2)" d="M 350.754545 367.647859  L 350.754545 328.073868  " style="fill:none;stroke:#008000;stroke-linecap:square;stroke-width:1.5;" />
   </g>
   <g id="line2d_96">
    <path clip-path="url(#p585009a0e2)" d="M 338.481818 373.473833  L 338.481818 303.846344  " style="fill:none;stroke:#ff0000;stroke-linecap:square;stroke-width:1.5;" />
   </g>
   <g id="line2d_97">
    <path clip-path="url(#p585009a0e2)" d="M 326.209091 391.662238  L 326.209091 318.198132  " style="fill:none;stroke:#008000;stroke-linecap:square;stroke-width:1.5;" />
   </g>
   <g id="line2d_98">
    <path clip-path="url(#p585009a0e2)" d="M 313.936364 389.033445  L 313.936364 320.258537  " style="fill:none;stroke:#008000;stroke-linecap:square;stroke-width:1.5;" />
   </g>
   <g id="line2d_99">
    <path clip-path="url(#p585009a0e2)" d="M 301.663636 389.104493  L 301.663636 343.917674  " style="fill:none;stroke:#ff0000;stroke-linecap:square;stroke-width:1.5;" />
   </g>
   <g id="line2d_100">
    <path clip-path="url(#p585009a0e2)" d="M 289.390909 396.209339  L 289.390909 346.546467  " style="fill:none;stroke:#008000;stroke-linecap:square;stroke-width:1.5;" />
   </g>
   <g id="line2d_101">
    <path clip-path="url(#p585009a0e2)" d="M 277.118182 415.676617  L 277.118182 371.413427  " style="fill:none;stroke:#008000;stroke-linecap:square;stroke-width:1.5;" />
   </g>
   <g id="line2d_102">
    <path clip-path="url(#p585009a0e2)" d="M 264.845455 442.746079  L 264.845455 393.438449  " style="fill:none;stroke:#008000;stroke-linecap:square;stroke-width:1.5;" />
   </g>
   <g id="line2d_103">
    <path clip-path="url(#p585009a0e2)" d="M 252.572727 464.415859  L 252.572727 389.24659  " style="fill:none;stroke:#ff0000;stroke-linecap:square;stroke-width:1.5;" />
   </g>
   <g id="line2d_104">
    <path clip-path="url(#p585009a0e2)" d="M 240.3 492.48  L 240.3 396.209339  " style="fill:none;stroke:#008000;stroke-linecap:square;stroke-width:1.5;" />
   </g>
   <g id="line2d_105">
    <path clip-path="url(#p585009a0e2)" d="M 228.027273 453.048106  L 228.027273 211.483348  " style="fill:none;stroke:#ff0000;stroke-linecap:square;stroke-width:1.5;" />
   </g>
   <g id="line2d_106">
    <path clip-path="url(#p585009a0e2)" d="M 215.754545 429.602115  L 215.754545 350.880423  " style="fill:none;stroke:#008000;stroke-linecap:square;stroke-width:1.5;" />
   </g>
   <g id="line2d_107">
    <path clip-path="url(#p585009a0e2)" d="M 203.481818 410.134837  L 203.481818 321.821604  " style="fill:none;stroke:#008000;stroke-linecap:square;stroke-width:1.5;" />
   </g>
   <g id="line2d_108">
    <path clip-path="url(#p585009a0e2)" d="M 191.209091 450.206167  L 191.209091 330.560564  " style="fill:none;stroke:#ff0000;stroke-linecap:square;stroke-width:1.5;" />
   </g>
   <g id="line2d_109">
    <path clip-path="url(#p585009a0e2)" d="M 178.936364 384.841586  L 178.936364 318.127084  " style="fill:none;stroke:#ff0000;stroke-linecap:square;stroke-width:1.5;" />
   </g>
   <g id="line2d_110">
    <path clip-path="url(#p585009a0e2)" d="M 166.663636 381.502308  L 166.663636 275.498009  " style="fill:none;stroke:#ff0000;stroke-linecap:square;stroke-width:1.5;" />
   </g>
   <g id="line2d_111">
    <path clip-path="url(#p585009a0e2)" d="M 154.390909 256.314925  L 154.390909 150.594819  " style="fill:none;stroke:#ff0000;stroke-linecap:square;stroke-width:1.5;" />
   </g>
   <g id="line2d_112">
    <path clip-path="url(#p585009a0e2)" d="M 142.118182 291.057621  L 142.118182 168.854273  " style="fill:none;stroke:#008000;stroke-linecap:square;stroke-width:1.5;" />
   </g>
   <g id="patch_53">
    <path d="M 777.6 512.64  L 777.6 69.12  " style="fill:none;stroke:#000000;stroke-linecap:square;stroke-linejoin:miter;stroke-width:0.8;" />
   </g>
   <g id="patch_54">
    <path d="M 108 512.64  L 777.6 512.64  " style="fill:none;stroke:#000000;stroke-linecap:square;stroke-linejoin:miter;stroke-width:0.8;" />
   </g>
   <g id="text_34">
    
    <g transform="translate(363.740625 40.724375)scale(0.2 -0.2)">
     <defs>
      <path d="M 34.1875 63.1875  L 20.796875 26.90625  L 47.609375 26.90625  z M 28.609375 72.90625  L 39.796875 72.90625  L 67.578125 0  L 57.328125 0  L 50.6875 18.703125  L 17.828125 18.703125  L 11.1875 0  L 0.78125 0  z " id="DejaVuSans-65" />
      <path d="M 64.40625 67.28125  L 64.40625 56.890625  Q 59.421875 61.53125 53.78125 63.8125  Q 48.140625 66.109375 41.796875 66.109375  Q 29.296875 66.109375 22.65625 58.46875  Q 16.015625 50.828125 16.015625 36.375  Q 16.015625 21.96875 22.65625 14.328125  Q 29.296875 6.6875 41.796875 6.6875  Q 48.140625 6.6875 53.78125 8.984375  Q 59.421875 11.28125 64.40625 15.921875  L 64.40625 5.609375  Q 59.234375 2.09375 53.4375 0.328125  Q 47.65625 -1.421875 41.21875 -1.421875  Q 24.65625 -1.421875 15.125 8.703125  Q 5.609375 18.84375 5.609375 36.375  Q 5.609375 53.953125 15.125 64.078125  Q 24.65625 74.21875 41.21875 74.21875  Q 47.75 74.21875 53.53125 72.484375  Q 59.328125 70.75 64.40625 67.28125  z " id="DejaVuSans-67" />
      <path d="M 53.515625 70.515625  L 53.515625 60.890625  Q 47.90625 63.578125 42.921875 64.890625  Q 37.9375 66.21875 33.296875 66.21875  Q 25.25 66.21875 20.875 63.09375  Q 16.5 59.96875 16.5 54.203125  Q 16.5 49.359375 19.40625 46.890625  Q 22.3125 44.4375 30.421875 42.921875  L 36.375 41.703125  Q 47.40625 39.59375 52.65625 34.296875  Q 57.90625 29 57.90625 20.125  Q 57.90625 9.515625 50.796875 4.046875  Q 43.703125 -1.421875 29.984375 -1.421875  Q 24.8125 -1.421875 18.96875 -0.25  Q 13.140625 0.921875 6.890625 3.21875  L 6.890625 13.375  Q 12.890625 10.015625 18.65625 8.296875  Q 24.421875 6.59375 29.984375 6.59375  Q 38.421875 6.59375 43.015625 9.90625  Q 47.609375 13.234375 47.609375 19.390625  Q 47.609375 24.75 44.3125 27.78125  Q 41.015625 30.8125 33.5 32.328125  L 27.484375 33.5  Q 16.453125 35.6875 11.515625 40.375  Q 6.59375 45.0625 6.59375 53.421875  Q 6.59375 63.09375 13.40625 68.65625  Q 20.21875 74.21875 32.171875 74.21875  Q 37.3125 74.21875 42.625 73.28125  Q 47.953125 72.359375 53.515625 70.515625  z " id="DejaVuSans-83" />
      <path d="M 30.609375 48.390625  Q 23.390625 48.390625 19.1875 42.75  Q 14.984375 37.109375 14.984375 27.296875  Q 14.984375 17.484375 19.15625 11.84375  Q 23.34375 6.203125 30.609375 6.203125  Q 37.796875 6.203125 41.984375 11.859375  Q 46.1875 17.53125 46.1875 27.296875  Q 46.1875 37.015625 41.984375 42.703125  Q 37.796875 48.390625 30.609375 48.390625  z M 30.609375 56  Q 42.328125 56 49.015625 48.375  Q 55.71875 40.765625 55.71875 27.296875  Q 55.71875 13.875 49.015625 6.21875  Q 42.328125 -1.421875 30.609375 -1.421875  Q 18.84375 -1.421875 12.171875 6.21875  Q 5.515625 13.875 5.515625 27.296875  Q 5.515625 40.765625 12.171875 48.375  Q 18.84375 56 30.609375 56  z " id="DejaVuSans-111" />
      <path d="M 9.078125 75.984375  L 18.109375 75.984375  L 18.109375 31.109375  L 44.921875 54.6875  L 56.390625 54.6875  L 27.390625 29.109375  L 57.625 0  L 45.90625 0  L 18.109375 26.703125  L 18.109375 0  L 9.078125 0  z " id="DejaVuSans-107" />
     </defs>
     <use ns4:href="#DejaVuSans-65" />
     <use x="66.658203" ns4:href="#DejaVuSans-67" />
     <use x="136.482422" ns4:href="#DejaVuSans-67" />
     <use x="206.306641" ns4:href="#DejaVuSans-32" />
     <use x="238.09375" ns4:href="#DejaVuSans-83" />
     <use x="301.570312" ns4:href="#DejaVuSans-116" />
     <use x="340.779297" ns4:href="#DejaVuSans-111" />
     <use x="401.960938" ns4:href="#DejaVuSans-99" />
     <use x="456.941406" ns4:href="#DejaVuSans-107" />
     <use x="514.851562" ns4:href="#DejaVuSans-32" />
     <use x="546.638672" ns4:href="#DejaVuSans-80" />
     <use x="605.191406" ns4:href="#DejaVuSans-114" />
     <use x="646.304688" ns4:href="#DejaVuSans-105" />
     <use x="674.087891" ns4:href="#DejaVuSans-99" />
     <use x="729.068359" ns4:href="#DejaVuSans-101" />
    </g>
    
    <g transform="translate(442.8 63.12)scale(0.2 -0.2)" />
   </g>
  </g>
  <g id="crosslineX">
   <path d="M 0 288  L 864 288  " style="fill:none;stroke:#1f77b4;stroke-linecap:square;stroke-width:1.5;" />
  </g>
  <g id="crosslineY">
   <path d="M 432 576  L 432 0  " style="fill:none;stroke:#1f77b4;stroke-linecap:square;stroke-width:1.5;" />
  </g>
 </g>
 <defs>
  <clipPath id="p585009a0e2">
   <rect height="443.52" width="669.6" x="108" y="69.12" />
  </clipPath>
 </defs>
</svg>