<svg xmlns="http://www.w3.org/2000/svg" xmlns:dc="http://purl.org/dc/elements/1.1/" xmlns:ns2="http://creativecommons.org/ns#" xmlns:ns4="http://www.w3.org/1999/xlink" xmlns:rdf="http://www.w3.org/1999/02/22-rdf-syntax-ns#" height="576pt" version="1.1" viewBox="0 0 1296 576" width="1296pt">
 <metadata>
  <rdf:RDF>
   <ns2:Work>
    <dc:type rdf:resource="http://purl.org/dc/dcmitype/StillImage" />
    <dc:date>2021-07-30T15:04:56.717907</dc:date>
    <dc:format>image/svg+xml</dc:format>
    <dc:creator>
     <ns2:Agent>
      <dc:title>Matplotlib v3.4.2, https://matplotlib.org/</dc:title>
     </ns2:Agent>
    </dc:creator>
   </ns2:Work>
  </rdf:RDF>
 </metadata>
 <defs>
  <style type="text/css">*{stroke-linecap:butt;stroke-linejoin:round;}</style>
 </defs>
 <g id="figure_1">
  <g id="patch_1">
   <path d="M 0 576  L 1296 576  L 1296 0  L 0 0  z " style="fill:#ffffff;" />
  </g>
  <g id="axes_1">
   <g id="patch_2">
    <path d="M 162 512.64  L 1166.4 512.64  L 1166.4 69.12  L 162 69.12  z " style="fill:#ffffff;" />
   </g>
   <g id="PolyCollection_1">
    <path clip-path="url(#p35a3b3b53b)" d="M 1120.745455 492.48  L 1120.745455 118.691714  L 1102.110946 119.021257  L 1083.476438 95.458932  L 1064.841929 131.214349  L 1046.207421 94.223145  L 1027.572913 98.177661  L 1008.938404 124.623489  L 990.303896 115.066741  L 971.669388 157.742562  L 953.034879 94.71746  L 934.400371 89.28  L 915.765863 148.680129  L 897.131354 119.927501  L 878.496846 169.770882  L 859.862338 208.739343  L 841.227829 187.978133  L 822.593321 188.966762  L 803.958813 164.745351  L 785.324304 202.148483  L 766.689796 228.923853  L 748.055288 190.614478  L 729.420779 222.250607  L 710.786271 233.949384  L 692.151763 284.86378  L 673.517254 263.937799  L 654.882746 323.832242  L 636.248237 367.991006  L 617.613729 358.269487  L 598.979221 313.369251  L 580.344712 353.326342  L 561.710204 321.93737  L 543.075696 335.942948  L 524.441187 348.630354  L 505.806679 380.843184  L 487.172171 333.059446  L 468.537662 358.187101  L 449.903154 367.579077  L 431.268646 375.652881  L 412.634137 396.084548  L 393.999629 420.800275  L 375.365121 473.28  L 356.730612 442.385342  L 338.096104 452.024475  L 319.461596 368.073392  L 300.827087 359.834817  L 282.192579 434.146767  L 263.558071 359.175731  L 244.923562 353.326342  L 226.289054 229.665325  L 207.654545 195.22808  L 207.654545 492.48  L 207.654545 492.48  L 226.289054 492.48  L 244.923562 492.48  L 263.558071 492.48  L 282.192579 492.48  L 300.827087 492.48  L 319.461596 492.48  L 338.096104 492.48  L 356.730612 492.48  L 375.365121 492.48  L 393.999629 492.48  L 412.634137 492.48  L 431.268646 492.48  L 449.903154 492.48  L 468.537662 492.48  L 487.172171 492.48  L 505.806679 492.48  L 524.441187 492.48  L 543.075696 492.48  L 561.710204 492.48  L 580.344712 492.48  L 598.979221 492.48  L 617.613729 492.48  L 636.248237 492.48  L 654.882746 492.48  L 673.517254 492.48  L 692.151763 492.48  L 710.786271 492.48  L 729.420779 492.48  L 748.055288 492.48  L 766.689796 492.48  L 785.324304 492.48  L 803.958813 492.48  L 822.593321 492.48  L 841.227829 492.48  L 859.862338 492.48  L 878.496846 492.48  L 897.131354 492.48  L 915.765863 492.48  L 934.400371 492.48  L 953.034879 492.48  L 971.669388 492.48  L 990.303896 492.48  L 1008.938404 492.48  L 1027.572913 492.48  L 1046.207421 492.48  L 1064.841929 492.48  L 1083.476438 492.48  L 1102.110946 492.48  L 1120.745455 492.48  z " style="fill:#1f77b4;fill-opacity:0.2;" />
   </g>
   <g id="matplotlib.axis_1">
    <g id="xtick_1">
     <g id="line2d_1">
      <path clip-path="url(#p35a3b3b53b)" d="M 1120.745455 512.64  L 1120.745455 69.12  " style="fill:none;stroke:#008000;stroke-linecap:square;stroke-opacity:0.15;stroke-width:0.8;" />
     </g>
     <g id="line2d_2">
      <defs>
       <path d="M 0 0  L 0 3.5  " id="m4a20eb27a6" style="stroke:#000000;stroke-width:0.8;" />
      </defs>
      <g>
       <use style="stroke:#000000;stroke-width:0.8;" x="1120.745455" ns4:href="#m4a20eb27a6" y="512.64" />
      </g>
     </g>
     <g id="text_1">
      
      <g transform="translate(1091.687642 527.238438)scale(0.1 -0.1)">
       <defs>
        <path d="M 1228 531  L 3431 531  L 3431 0  L 469 0  L 469 531  Q 828 903 1448 1529  Q 2069 2156 2228 2338  Q 2531 2678 2651 2914  Q 2772 3150 2772 3378  Q 2772 3750 2511 3984  Q 2250 4219 1831 4219  Q 1534 4219 1204 4116  Q 875 4013 500 3803  L 500 4441  Q 881 4594 1212 4672  Q 1544 4750 1819 4750  Q 2544 4750 2975 4387  Q 3406 4025 3406 3419  Q 3406 3131 3298 2873  Q 3191 2616 2906 2266  Q 2828 2175 2409 1742  Q 1991 1309 1228 531  z " id="DejaVuSans-32" transform="scale(0.015625)" />
        <path d="M 2034 4250  Q 1547 4250 1301 3770  Q 1056 3291 1056 2328  Q 1056 1369 1301 889  Q 1547 409 2034 409  Q 2525 409 2770 889  Q 3016 1369 3016 2328  Q 3016 3291 2770 3770  Q 2525 4250 2034 4250  z M 2034 4750  Q 2819 4750 3233 4129  Q 3647 3509 3647 2328  Q 3647 1150 3233 529  Q 2819 -91 2034 -91  Q 1250 -91 836 529  Q 422 1150 422 2328  Q 422 3509 836 4129  Q 1250 4750 2034 4750  z " id="DejaVuSans-30" transform="scale(0.015625)" />
        <path d="M 794 531  L 1825 531  L 1825 4091  L 703 3866  L 703 4441  L 1819 4666  L 2450 4666  L 2450 531  L 3481 531  L 3481 0  L 794 0  L 794 531  z " id="DejaVuSans-31" transform="scale(0.015625)" />
        <path d="M 313 2009  L 1997 2009  L 1997 1497  L 313 1497  L 313 2009  z " id="DejaVuSans-2d" transform="scale(0.015625)" />
        <path d="M 2113 2584  Q 1688 2584 1439 2293  Q 1191 2003 1191 1497  Q 1191 994 1439 701  Q 1688 409 2113 409  Q 2538 409 2786 701  Q 3034 994 3034 1497  Q 3034 2003 2786 2293  Q 2538 2584 2113 2584  z M 3366 4563  L 3366 3988  Q 3128 4100 2886 4159  Q 2644 4219 2406 4219  Q 1781 4219 1451 3797  Q 1122 3375 1075 2522  Q 1259 2794 1537 2939  Q 1816 3084 2150 3084  Q 2853 3084 3261 2657  Q 3669 2231 3669 1497  Q 3669 778 3244 343  Q 2819 -91 2113 -91  Q 1303 -91 875 529  Q 447 1150 447 2328  Q 447 3434 972 4092  Q 1497 4750 2381 4750  Q 2619 4750 2861 4703  Q 3103 4656 3366 4563  z " id="DejaVuSans-36" transform="scale(0.015625)" />
       </defs>
       <use ns4:href="#DejaVuSans-32" />
       <use x="63.623047" ns4:href="#DejaVuSans-30" />
       <use x="127.246094" ns4:href="#DejaVuSans-32" />
       <use x="190.869141" ns4:href="#DejaVuSans-31" />
       <use x="254.492188" ns4:href="#DejaVuSans-2d" />
       <use x="290.576172" ns4:href="#DejaVuSans-30" />
       <use x="354.199219" ns4:href="#DejaVuSans-36" />
       <use x="417.822266" ns4:href="#DejaVuSans-2d" />
       <use x="453.90625" ns4:href="#DejaVuSans-32" />
       <use x="517.529297" ns4:href="#DejaVuSans-31" />
      </g>
     </g>
    </g>
    <g id="xtick_2">
     <g id="line2d_3">
      <path clip-path="url(#p35a3b3b53b)" d="M 1027.572913 512.64  L 1027.572913 69.12  " style="fill:none;stroke:#008000;stroke-linecap:square;stroke-opacity:0.15;stroke-width:0.8;" />
     </g>
     <g id="line2d_4">
      <g>
       <use style="stroke:#000000;stroke-width:0.8;" x="1027.572913" ns4:href="#m4a20eb27a6" y="512.64" />
      </g>
     </g>
     <g id="text_2">
      
      <g transform="translate(998.5151 527.238438)scale(0.1 -0.1)">
       <defs>
        <path d="M 2419 4116  L 825 1625  L 2419 1625  L 2419 4116  z M 2253 4666  L 3047 4666  L 3047 1625  L 3713 1625  L 3713 1100  L 3047 1100  L 3047 0  L 2419 0  L 2419 1100  L 313 1100  L 313 1709  L 2253 4666  z " id="DejaVuSans-34" transform="scale(0.015625)" />
       </defs>
       <use ns4:href="#DejaVuSans-32" />
       <use x="63.623047" ns4:href="#DejaVuSans-30" />
       <use x="127.246094" ns4:href="#DejaVuSans-32" />
       <use x="190.869141" ns4:href="#DejaVuSans-31" />
       <use x="254.492188" ns4:href="#DejaVuSans-2d" />
       <use x="290.576172" ns4:href="#DejaVuSans-30" />
       <use x="354.199219" ns4:href="#DejaVuSans-36" />
       <use x="417.822266" ns4:href="#DejaVuSans-2d" />
       <use x="453.90625" ns4:href="#DejaVuSans-31" />
       <use x="517.529297" ns4:href="#DejaVuSans-34" />
      </g>
     </g>
    </g>
    <g id="xtick_3">
     <g id="line2d_5">
      <path clip-path="url(#p35a3b3b53b)" d="M 934.400371 512.64  L 934.400371 69.12  " style="fill:none;stroke:#008000;stroke-linecap:square;stroke-opacity:0.15;stroke-width:0.8;" />
     </g>
     <g id="line2d_6">
      <g>
       <use style="stroke:#000000;stroke-width:0.8;" x="934.400371" ns4:href="#m4a20eb27a6" y="512.64" />
      </g>
     </g>
     <g id="text_3">
      
      <g transform="translate(905.342559 527.238438)scale(0.1 -0.1)">
       <defs>
        <path d="M 525 4666  L 3525 4666  L 3525 4397  L 1831 0  L 1172 0  L 2766 4134  L 525 4134  L 525 4666  z " id="DejaVuSans-37" transform="scale(0.015625)" />
       </defs>
       <use ns4:href="#DejaVuSans-32" />
       <use x="63.623047" ns4:href="#DejaVuSans-30" />
       <use x="127.246094" ns4:href="#DejaVuSans-32" />
       <use x="190.869141" ns4:href="#DejaVuSans-31" />
       <use x="254.492188" ns4:href="#DejaVuSans-2d" />
       <use x="290.576172" ns4:href="#DejaVuSans-30" />
       <use x="354.199219" ns4:href="#DejaVuSans-36" />
       <use x="417.822266" ns4:href="#DejaVuSans-2d" />
       <use x="453.90625" ns4:href="#DejaVuSans-30" />
       <use x="517.529297" ns4:href="#DejaVuSans-37" />
      </g>
     </g>
    </g>
    <g id="xtick_4">
     <g id="line2d_7">
      <path clip-path="url(#p35a3b3b53b)" d="M 841.227829 512.64  L 841.227829 69.12  " style="fill:none;stroke:#008000;stroke-linecap:square;stroke-opacity:0.15;stroke-width:0.8;" />
     </g>
     <g id="line2d_8">
      <g>
       <use style="stroke:#000000;stroke-width:0.8;" x="841.227829" ns4:href="#m4a20eb27a6" y="512.64" />
      </g>
     </g>
     <g id="text_4">
      
      <g transform="translate(812.170017 527.238438)scale(0.1 -0.1)">
       <defs>
        <path d="M 691 4666  L 3169 4666  L 3169 4134  L 1269 4134  L 1269 2991  Q 1406 3038 1543 3061  Q 1681 3084 1819 3084  Q 2600 3084 3056 2656  Q 3513 2228 3513 1497  Q 3513 744 3044 326  Q 2575 -91 1722 -91  Q 1428 -91 1123 -41  Q 819 9 494 109  L 494 744  Q 775 591 1075 516  Q 1375 441 1709 441  Q 2250 441 2565 725  Q 2881 1009 2881 1497  Q 2881 1984 2565 2268  Q 2250 2553 1709 2553  Q 1456 2553 1204 2497  Q 953 2441 691 2322  L 691 4666  z " id="DejaVuSans-35" transform="scale(0.015625)" />
        <path d="M 2597 2516  Q 3050 2419 3304 2112  Q 3559 1806 3559 1356  Q 3559 666 3084 287  Q 2609 -91 1734 -91  Q 1441 -91 1130 -33  Q 819 25 488 141  L 488 750  Q 750 597 1062 519  Q 1375 441 1716 441  Q 2309 441 2620 675  Q 2931 909 2931 1356  Q 2931 1769 2642 2001  Q 2353 2234 1838 2234  L 1294 2234  L 1294 2753  L 1863 2753  Q 2328 2753 2575 2939  Q 2822 3125 2822 3475  Q 2822 3834 2567 4026  Q 2313 4219 1838 4219  Q 1578 4219 1281 4162  Q 984 4106 628 3988  L 628 4550  Q 988 4650 1302 4700  Q 1616 4750 1894 4750  Q 2613 4750 3031 4423  Q 3450 4097 3450 3541  Q 3450 3153 3228 2886  Q 3006 2619 2597 2516  z " id="DejaVuSans-33" transform="scale(0.015625)" />
       </defs>
       <use ns4:href="#DejaVuSans-32" />
       <use x="63.623047" ns4:href="#DejaVuSans-30" />
       <use x="127.246094" ns4:href="#DejaVuSans-32" />
       <use x="190.869141" ns4:href="#DejaVuSans-31" />
       <use x="254.492188" ns4:href="#DejaVuSans-2d" />
       <use x="290.576172" ns4:href="#DejaVuSans-30" />
       <use x="354.199219" ns4:href="#DejaVuSans-35" />
       <use x="417.822266" ns4:href="#DejaVuSans-2d" />
       <use x="453.90625" ns4:href="#DejaVuSans-33" />
       <use x="517.529297" ns4:href="#DejaVuSans-31" />
      </g>
     </g>
    </g>
    <g id="xtick_5">
     <g id="line2d_9">
      <path clip-path="url(#p35a3b3b53b)" d="M 748.055288 512.64  L 748.055288 69.12  " style="fill:none;stroke:#008000;stroke-linecap:square;stroke-opacity:0.15;stroke-width:0.8;" />
     </g>
     <g id="line2d_10">
      <g>
       <use style="stroke:#000000;stroke-width:0.8;" x="748.055288" ns4:href="#m4a20eb27a6" y="512.64" />
      </g>
     </g>
     <g id="text_5">
      
      <g transform="translate(718.997475 527.238438)scale(0.1 -0.1)">
       <use ns4:href="#DejaVuSans-32" />
       <use x="63.623047" ns4:href="#DejaVuSans-30" />
       <use x="127.246094" ns4:href="#DejaVuSans-32" />
       <use x="190.869141" ns4:href="#DejaVuSans-31" />
       <use x="254.492188" ns4:href="#DejaVuSans-2d" />
       <use x="290.576172" ns4:href="#DejaVuSans-30" />
       <use x="354.199219" ns4:href="#DejaVuSans-35" />
       <use x="417.822266" ns4:href="#DejaVuSans-2d" />
       <use x="453.90625" ns4:href="#DejaVuSans-32" />
       <use x="517.529297" ns4:href="#DejaVuSans-34" />
      </g>
     </g>
    </g>
    <g id="xtick_6">
     <g id="line2d_11">
      <path clip-path="url(#p35a3b3b53b)" d="M 654.882746 512.64  L 654.882746 69.12  " style="fill:none;stroke:#008000;stroke-linecap:square;stroke-opacity:0.15;stroke-width:0.8;" />
     </g>
     <g id="line2d_12">
      <g>
       <use style="stroke:#000000;stroke-width:0.8;" x="654.882746" ns4:href="#m4a20eb27a6" y="512.64" />
      </g>
     </g>
     <g id="text_6">
      
      <g transform="translate(625.824933 527.238438)scale(0.1 -0.1)">
       <use ns4:href="#DejaVuSans-32" />
       <use x="63.623047" ns4:href="#DejaVuSans-30" />
       <use x="127.246094" ns4:href="#DejaVuSans-32" />
       <use x="190.869141" ns4:href="#DejaVuSans-31" />
       <use x="254.492188" ns4:href="#DejaVuSans-2d" />
       <use x="290.576172" ns4:href="#DejaVuSans-30" />
       <use x="354.199219" ns4:href="#DejaVuSans-35" />
       <use x="417.822266" ns4:href="#DejaVuSans-2d" />
       <use x="453.90625" ns4:href="#DejaVuSans-31" />
       <use x="517.529297" ns4:href="#DejaVuSans-37" />
      </g>
     </g>
    </g>
    <g id="xtick_7">
     <g id="line2d_13">
      <path clip-path="url(#p35a3b3b53b)" d="M 561.710204 512.64  L 561.710204 69.12  " style="fill:none;stroke:#008000;stroke-linecap:square;stroke-opacity:0.15;stroke-width:0.8;" />
     </g>
     <g id="line2d_14">
      <g>
       <use style="stroke:#000000;stroke-width:0.8;" x="561.710204" ns4:href="#m4a20eb27a6" y="512.64" />
      </g>
     </g>
     <g id="text_7">
      
      <g transform="translate(532.652392 527.238438)scale(0.1 -0.1)">
       <use ns4:href="#DejaVuSans-32" />
       <use x="63.623047" ns4:href="#DejaVuSans-30" />
       <use x="127.246094" ns4:href="#DejaVuSans-32" />
       <use x="190.869141" ns4:href="#DejaVuSans-31" />
       <use x="254.492188" ns4:href="#DejaVuSans-2d" />
       <use x="290.576172" ns4:href="#DejaVuSans-30" />
       <use x="354.199219" ns4:href="#DejaVuSans-35" />
       <use x="417.822266" ns4:href="#DejaVuSans-2d" />
       <use x="453.90625" ns4:href="#DejaVuSans-30" />
       <use x="517.529297" ns4:href="#DejaVuSans-37" />
      </g>
     </g>
    </g>
    <g id="xtick_8">
     <g id="line2d_15">
      <path clip-path="url(#p35a3b3b53b)" d="M 468.537662 512.64  L 468.537662 69.12  " style="fill:none;stroke:#008000;stroke-linecap:square;stroke-opacity:0.15;stroke-width:0.8;" />
     </g>
     <g id="line2d_16">
      <g>
       <use style="stroke:#000000;stroke-width:0.8;" x="468.537662" ns4:href="#m4a20eb27a6" y="512.64" />
      </g>
     </g>
     <g id="text_8">
      
      <g transform="translate(439.47985 527.238438)scale(0.1 -0.1)">
       <use ns4:href="#DejaVuSans-32" />
       <use x="63.623047" ns4:href="#DejaVuSans-30" />
       <use x="127.246094" ns4:href="#DejaVuSans-32" />
       <use x="190.869141" ns4:href="#DejaVuSans-31" />
       <use x="254.492188" ns4:href="#DejaVuSans-2d" />
       <use x="290.576172" ns4:href="#DejaVuSans-30" />
       <use x="354.199219" ns4:href="#DejaVuSans-34" />
       <use x="417.822266" ns4:href="#DejaVuSans-2d" />
       <use x="453.90625" ns4:href="#DejaVuSans-33" />
       <use x="517.529297" ns4:href="#DejaVuSans-30" />
      </g>
     </g>
    </g>
    <g id="xtick_9">
     <g id="line2d_17">
      <path clip-path="url(#p35a3b3b53b)" d="M 375.365121 512.64  L 375.365121 69.12  " style="fill:none;stroke:#008000;stroke-linecap:square;stroke-opacity:0.15;stroke-width:0.8;" />
     </g>
     <g id="line2d_18">
      <g>
       <use style="stroke:#000000;stroke-width:0.8;" x="375.365121" ns4:href="#m4a20eb27a6" y="512.64" />
      </g>
     </g>
     <g id="text_9">
      
      <g transform="translate(346.307308 527.238438)scale(0.1 -0.1)">
       <use ns4:href="#DejaVuSans-32" />
       <use x="63.623047" ns4:href="#DejaVuSans-30" />
       <use x="127.246094" ns4:href="#DejaVuSans-32" />
       <use x="190.869141" ns4:href="#DejaVuSans-31" />
       <use x="254.492188" ns4:href="#DejaVuSans-2d" />
       <use x="290.576172" ns4:href="#DejaVuSans-30" />
       <use x="354.199219" ns4:href="#DejaVuSans-34" />
       <use x="417.822266" ns4:href="#DejaVuSans-2d" />
       <use x="453.90625" ns4:href="#DejaVuSans-32" />
       <use x="517.529297" ns4:href="#DejaVuSans-33" />
      </g>
     </g>
    </g>
    <g id="xtick_10">
     <g id="line2d_19">
      <path clip-path="url(#p35a3b3b53b)" d="M 282.192579 512.64  L 282.192579 69.12  " style="fill:none;stroke:#008000;stroke-linecap:square;stroke-opacity:0.15;stroke-width:0.8;" />
     </g>
     <g id="line2d_20">
      <g>
       <use style="stroke:#000000;stroke-width:0.8;" x="282.192579" ns4:href="#m4a20eb27a6" y="512.64" />
      </g>
     </g>
     <g id="text_10">
      
      <g transform="translate(253.134766 527.238438)scale(0.1 -0.1)">
       <use ns4:href="#DejaVuSans-32" />
       <use x="63.623047" ns4:href="#DejaVuSans-30" />
       <use x="127.246094" ns4:href="#DejaVuSans-32" />
       <use x="190.869141" ns4:href="#DejaVuSans-31" />
       <use x="254.492188" ns4:href="#DejaVuSans-2d" />
       <use x="290.576172" ns4:href="#DejaVuSans-30" />
       <use x="354.199219" ns4:href="#DejaVuSans-34" />
       <use x="417.822266" ns4:href="#DejaVuSans-2d" />
       <use x="453.90625" ns4:href="#DejaVuSans-31" />
       <use x="517.529297" ns4:href="#DejaVuSans-35" />
      </g>
     </g>
    </g>
    <g id="text_11">
     
     <g transform="translate(652.249219 540.916563)scale(0.1 -0.1)">
      <defs>
       <path d="M 1259 4147  L 1259 519  L 2022 519  Q 2988 519 3436 956  Q 3884 1394 3884 2338  Q 3884 3275 3436 3711  Q 2988 4147 2022 4147  L 1259 4147  z M 628 4666  L 1925 4666  Q 3281 4666 3915 4102  Q 4550 3538 4550 2338  Q 4550 1131 3912 565  Q 3275 0 1925 0  L 628 0  L 628 4666  z " id="DejaVuSans-44" transform="scale(0.015625)" />
       <path d="M 2194 1759  Q 1497 1759 1228 1600  Q 959 1441 959 1056  Q 959 750 1161 570  Q 1363 391 1709 391  Q 2188 391 2477 730  Q 2766 1069 2766 1631  L 2766 1759  L 2194 1759  z M 3341 1997  L 3341 0  L 2766 0  L 2766 531  Q 2569 213 2275 61  Q 1981 -91 1556 -91  Q 1019 -91 701 211  Q 384 513 384 1019  Q 384 1609 779 1909  Q 1175 2209 1959 2209  L 2766 2209  L 2766 2266  Q 2766 2663 2505 2880  Q 2244 3097 1772 3097  Q 1472 3097 1187 3025  Q 903 2953 641 2809  L 641 3341  Q 956 3463 1253 3523  Q 1550 3584 1831 3584  Q 2591 3584 2966 3190  Q 3341 2797 3341 1997  z " id="DejaVuSans-61" transform="scale(0.015625)" />
       <path d="M 1172 4494  L 1172 3500  L 2356 3500  L 2356 3053  L 1172 3053  L 1172 1153  Q 1172 725 1289 603  Q 1406 481 1766 481  L 2356 481  L 2356 0  L 1766 0  Q 1100 0 847 248  Q 594 497 594 1153  L 594 3053  L 172 3053  L 172 3500  L 594 3500  L 594 4494  L 1172 4494  z " id="DejaVuSans-74" transform="scale(0.015625)" />
       <path d="M 3597 1894  L 3597 1613  L 953 1613  Q 991 1019 1311 708  Q 1631 397 2203 397  Q 2534 397 2845 478  Q 3156 559 3463 722  L 3463 178  Q 3153 47 2828 -22  Q 2503 -91 2169 -91  Q 1331 -91 842 396  Q 353 884 353 1716  Q 353 2575 817 3079  Q 1281 3584 2069 3584  Q 2775 3584 3186 3129  Q 3597 2675 3597 1894  z M 3022 2063  Q 3016 2534 2758 2815  Q 2500 3097 2075 3097  Q 1594 3097 1305 2825  Q 1016 2553 972 2059  L 3022 2063  z " id="DejaVuSans-65" transform="scale(0.015625)" />
      </defs>
      <use ns4:href="#DejaVuSans-44" />
      <use x="77.001953" ns4:href="#DejaVuSans-61" />
      <use x="138.28125" ns4:href="#DejaVuSans-74" />
      <use x="177.490234" ns4:href="#DejaVuSans-65" />
     </g>
    </g>
   </g>
   <g id="matplotlib.axis_2">
    <g id="ytick_1">
     <g id="line2d_21">
      <path clip-path="url(#p35a3b3b53b)" d="M 162 494.535525  L 1166.4 494.535525  " style="fill:none;stroke:#008000;stroke-linecap:square;stroke-opacity:0.15;stroke-width:0.8;" />
     </g>
     <g id="line2d_22">
      <defs>
       <path d="M 0 0  L 3.5 0  " id="m9b573c1348" style="stroke:#000000;stroke-width:0.8;" />
      </defs>
      <g>
       <use style="stroke:#000000;stroke-width:0.8;" x="1166.4" ns4:href="#m9b573c1348" y="494.535525" />
      </g>
     </g>
     <g id="text_12">
      
      <g transform="translate(1173.4 498.334743)scale(0.1 -0.1)">
       <defs>
        <path d="M 2034 2216  Q 1584 2216 1326 1975  Q 1069 1734 1069 1313  Q 1069 891 1326 650  Q 1584 409 2034 409  Q 2484 409 2743 651  Q 3003 894 3003 1313  Q 3003 1734 2745 1975  Q 2488 2216 2034 2216  z M 1403 2484  Q 997 2584 770 2862  Q 544 3141 544 3541  Q 544 4100 942 4425  Q 1341 4750 2034 4750  Q 2731 4750 3128 4425  Q 3525 4100 3525 3541  Q 3525 3141 3298 2862  Q 3072 2584 2669 2484  Q 3125 2378 3379 2068  Q 3634 1759 3634 1313  Q 3634 634 3220 271  Q 2806 -91 2034 -91  Q 1263 -91 848 271  Q 434 634 434 1313  Q 434 1759 690 2068  Q 947 2378 1403 2484  z M 1172 3481  Q 1172 3119 1398 2916  Q 1625 2713 2034 2713  Q 2441 2713 2670 2916  Q 2900 3119 2900 3481  Q 2900 3844 2670 4047  Q 2441 4250 2034 4250  Q 1625 4250 1398 4047  Q 1172 3844 1172 3481  z " id="DejaVuSans-38" transform="scale(0.015625)" />
       </defs>
       <use ns4:href="#DejaVuSans-31" />
       <use x="63.623047" ns4:href="#DejaVuSans-38" />
       <use x="127.246094" ns4:href="#DejaVuSans-30" />
       <use x="190.869141" ns4:href="#DejaVuSans-30" />
      </g>
     </g>
    </g>
    <g id="ytick_2">
     <g id="line2d_23">
      <path clip-path="url(#p35a3b3b53b)" d="M 162 412.14977  L 1166.4 412.14977  " style="fill:none;stroke:#008000;stroke-linecap:square;stroke-opacity:0.15;stroke-width:0.8;" />
     </g>
     <g id="line2d_24">
      <g>
       <use style="stroke:#000000;stroke-width:0.8;" x="1166.4" ns4:href="#m9b573c1348" y="412.14977" />
      </g>
     </g>
     <g id="text_13">
      
      <g transform="translate(1173.4 415.948989)scale(0.1 -0.1)">
       <use ns4:href="#DejaVuSans-31" />
       <use x="63.623047" ns4:href="#DejaVuSans-38" />
       <use x="127.246094" ns4:href="#DejaVuSans-35" />
       <use x="190.869141" ns4:href="#DejaVuSans-30" />
      </g>
     </g>
    </g>
    <g id="ytick_3">
     <g id="line2d_25">
      <path clip-path="url(#p35a3b3b53b)" d="M 162 329.764016  L 1166.4 329.764016  " style="fill:none;stroke:#008000;stroke-linecap:square;stroke-opacity:0.15;stroke-width:0.8;" />
     </g>
     <g id="line2d_26">
      <g>
       <use style="stroke:#000000;stroke-width:0.8;" x="1166.4" ns4:href="#m9b573c1348" y="329.764016" />
      </g>
     </g>
     <g id="text_14">
      
      <g transform="translate(1173.4 333.563235)scale(0.1 -0.1)">
       <defs>
        <path d="M 703 97  L 703 672  Q 941 559 1184 500  Q 1428 441 1663 441  Q 2288 441 2617 861  Q 2947 1281 2994 2138  Q 2813 1869 2534 1725  Q 2256 1581 1919 1581  Q 1219 1581 811 2004  Q 403 2428 403 3163  Q 403 3881 828 4315  Q 1253 4750 1959 4750  Q 2769 4750 3195 4129  Q 3622 3509 3622 2328  Q 3622 1225 3098 567  Q 2575 -91 1691 -91  Q 1453 -91 1209 -44  Q 966 3 703 97  z M 1959 2075  Q 2384 2075 2632 2365  Q 2881 2656 2881 3163  Q 2881 3666 2632 3958  Q 2384 4250 1959 4250  Q 1534 4250 1286 3958  Q 1038 3666 1038 3163  Q 1038 2656 1286 2365  Q 1534 2075 1959 2075  z " id="DejaVuSans-39" transform="scale(0.015625)" />
       </defs>
       <use ns4:href="#DejaVuSans-31" />
       <use x="63.623047" ns4:href="#DejaVuSans-39" />
       <use x="127.246094" ns4:href="#DejaVuSans-30" />
       <use x="190.869141" ns4:href="#DejaVuSans-30" />
      </g>
     </g>
    </g>
    <g id="ytick_4">
     <g id="line2d_27">
      <path clip-path="url(#p35a3b3b53b)" d="M 162 247.378262  L 1166.4 247.378262  " style="fill:none;stroke:#008000;stroke-linecap:square;stroke-opacity:0.15;stroke-width:0.8;" />
     </g>
     <g id="line2d_28">
      <g>
       <use style="stroke:#000000;stroke-width:0.8;" x="1166.4" ns4:href="#m9b573c1348" y="247.378262" />
      </g>
     </g>
     <g id="text_15">
      
      <g transform="translate(1173.4 251.177481)scale(0.1 -0.1)">
       <use ns4:href="#DejaVuSans-31" />
       <use x="63.623047" ns4:href="#DejaVuSans-39" />
       <use x="127.246094" ns4:href="#DejaVuSans-35" />
       <use x="190.869141" ns4:href="#DejaVuSans-30" />
      </g>
     </g>
    </g>
    <g id="ytick_5">
     <g id="line2d_29">
      <path clip-path="url(#p35a3b3b53b)" d="M 162 164.992508  L 1166.4 164.992508  " style="fill:none;stroke:#008000;stroke-linecap:square;stroke-opacity:0.15;stroke-width:0.8;" />
     </g>
     <g id="line2d_30">
      <g>
       <use style="stroke:#000000;stroke-width:0.8;" x="1166.4" ns4:href="#m9b573c1348" y="164.992508" />
      </g>
     </g>
     <g id="text_16">
      
      <g transform="translate(1173.4 168.791727)scale(0.1 -0.1)">
       <use ns4:href="#DejaVuSans-32" />
       <use x="63.623047" ns4:href="#DejaVuSans-30" />
       <use x="127.246094" ns4:href="#DejaVuSans-30" />
       <use x="190.869141" ns4:href="#DejaVuSans-30" />
      </g>
     </g>
    </g>
    <g id="ytick_6">
     <g id="line2d_31">
      <path clip-path="url(#p35a3b3b53b)" d="M 162 82.606754  L 1166.4 82.606754  " style="fill:none;stroke:#008000;stroke-linecap:square;stroke-opacity:0.15;stroke-width:0.8;" />
     </g>
     <g id="line2d_32">
      <g>
       <use style="stroke:#000000;stroke-width:0.8;" x="1166.4" ns4:href="#m9b573c1348" y="82.606754" />
      </g>
     </g>
     <g id="text_17">
      
      <g transform="translate(1173.4 86.405973)scale(0.1 -0.1)">
       <use ns4:href="#DejaVuSans-32" />
       <use x="63.623047" ns4:href="#DejaVuSans-30" />
       <use x="127.246094" ns4:href="#DejaVuSans-35" />
       <use x="190.869141" ns4:href="#DejaVuSans-30" />
      </g>
     </g>
    </g>
    <g id="text_18">
     
     <g transform="translate(1210.448438 303.077656)rotate(-90)scale(0.1 -0.1)">
      <defs>
       <path d="M 1259 4147  L 1259 2394  L 2053 2394  Q 2494 2394 2734 2622  Q 2975 2850 2975 3272  Q 2975 3691 2734 3919  Q 2494 4147 2053 4147  L 1259 4147  z M 628 4666  L 2053 4666  Q 2838 4666 3239 4311  Q 3641 3956 3641 3272  Q 3641 2581 3239 2228  Q 2838 1875 2053 1875  L 1259 1875  L 1259 0  L 628 0  L 628 4666  z " id="DejaVuSans-50" transform="scale(0.015625)" />
       <path d="M 2631 2963  Q 2534 3019 2420 3045  Q 2306 3072 2169 3072  Q 1681 3072 1420 2755  Q 1159 2438 1159 1844  L 1159 0  L 581 0  L 581 3500  L 1159 3500  L 1159 2956  Q 1341 3275 1631 3429  Q 1922 3584 2338 3584  Q 2397 3584 2469 3576  Q 2541 3569 2628 3553  L 2631 2963  z " id="DejaVuSans-72" transform="scale(0.015625)" />
       <path d="M 603 3500  L 1178 3500  L 1178 0  L 603 0  L 603 3500  z M 603 4863  L 1178 4863  L 1178 4134  L 603 4134  L 603 4863  z " id="DejaVuSans-69" transform="scale(0.015625)" />
       <path d="M 3122 3366  L 3122 2828  Q 2878 2963 2633 3030  Q 2388 3097 2138 3097  Q 1578 3097 1268 2742  Q 959 2388 959 1747  Q 959 1106 1268 751  Q 1578 397 2138 397  Q 2388 397 2633 464  Q 2878 531 3122 666  L 3122 134  Q 2881 22 2623 -34  Q 2366 -91 2075 -91  Q 1284 -91 818 406  Q 353 903 353 1747  Q 353 2603 823 3093  Q 1294 3584 2113 3584  Q 2378 3584 2631 3529  Q 2884 3475 3122 3366  z " id="DejaVuSans-63" transform="scale(0.015625)" />
      </defs>
      <use ns4:href="#DejaVuSans-50" />
      <use x="58.552734" ns4:href="#DejaVuSans-72" />
      <use x="99.666016" ns4:href="#DejaVuSans-69" />
      <use x="127.449219" ns4:href="#DejaVuSans-63" />
      <use x="182.429688" ns4:href="#DejaVuSans-65" />
     </g>
     
     <g transform="translate(1221.64625 313.526875)rotate(-90)scale(0.1 -0.1)">
      <defs>
       <path id="DejaVuSans-20" transform="scale(0.015625)" />
       <path d="M 1984 4856  Q 1566 4138 1362 3434  Q 1159 2731 1159 2009  Q 1159 1288 1364 580  Q 1569 -128 1984 -844  L 1484 -844  Q 1016 -109 783 600  Q 550 1309 550 2009  Q 550 2706 781 3412  Q 1013 4119 1484 4856  L 1984 4856  z " id="DejaVuSans-28" transform="scale(0.015625)" />
       <path d="M 544 1381  L 544 3500  L 1119 3500  L 1119 1403  Q 1119 906 1312 657  Q 1506 409 1894 409  Q 2359 409 2629 706  Q 2900 1003 2900 1516  L 2900 3500  L 3475 3500  L 3475 0  L 2900 0  L 2900 538  Q 2691 219 2414 64  Q 2138 -91 1772 -91  Q 1169 -91 856 284  Q 544 659 544 1381  z M 1991 3584  L 1991 3584  z " id="DejaVuSans-75" transform="scale(0.015625)" />
       <path d="M 1159 525  L 1159 -1331  L 581 -1331  L 581 3500  L 1159 3500  L 1159 2969  Q 1341 3281 1617 3432  Q 1894 3584 2278 3584  Q 2916 3584 3314 3078  Q 3713 2572 3713 1747  Q 3713 922 3314 415  Q 2916 -91 2278 -91  Q 1894 -91 1617 61  Q 1341 213 1159 525  z M 3116 1747  Q 3116 2381 2855 2742  Q 2594 3103 2138 3103  Q 1681 3103 1420 2742  Q 1159 2381 1159 1747  Q 1159 1113 1420 752  Q 1681 391 2138 391  Q 2594 391 2855 752  Q 3116 1113 3116 1747  z " id="DejaVuSans-70" transform="scale(0.015625)" />
       <path d="M 2834 3397  L 2834 2853  Q 2591 2978 2328 3040  Q 2066 3103 1784 3103  Q 1356 3103 1142 2972  Q 928 2841 928 2578  Q 928 2378 1081 2264  Q 1234 2150 1697 2047  L 1894 2003  Q 2506 1872 2764 1633  Q 3022 1394 3022 966  Q 3022 478 2636 193  Q 2250 -91 1575 -91  Q 1294 -91 989 -36  Q 684 19 347 128  L 347 722  Q 666 556 975 473  Q 1284 391 1588 391  Q 1994 391 2212 530  Q 2431 669 2431 922  Q 2431 1156 2273 1281  Q 2116 1406 1581 1522  L 1381 1569  Q 847 1681 609 1914  Q 372 2147 372 2553  Q 372 3047 722 3315  Q 1072 3584 1716 3584  Q 2034 3584 2315 3537  Q 2597 3491 2834 3397  z " id="DejaVuSans-73" transform="scale(0.015625)" />
       <path d="M 513 4856  L 1013 4856  Q 1481 4119 1714 3412  Q 1947 2706 1947 2009  Q 1947 1309 1714 600  Q 1481 -109 1013 -844  L 513 -844  Q 928 -128 1133 580  Q 1338 1288 1338 2009  Q 1338 2731 1133 3434  Q 928 4138 513 4856  z " id="DejaVuSans-29" transform="scale(0.015625)" />
      </defs>
      <use ns4:href="#DejaVuSans-20" />
      <use x="31.787109" ns4:href="#DejaVuSans-28" />
      <use x="70.800781" ns4:href="#DejaVuSans-72" />
      <use x="111.914062" ns4:href="#DejaVuSans-75" />
      <use x="175.292969" ns4:href="#DejaVuSans-70" />
      <use x="238.769531" ns4:href="#DejaVuSans-65" />
      <use x="300.292969" ns4:href="#DejaVuSans-65" />
      <use x="361.816406" ns4:href="#DejaVuSans-73" />
      <use x="413.916016" ns4:href="#DejaVuSans-29" />
     </g>
    </g>
   </g>
   <g id="line2d_33">
    <path clip-path="url(#p35a3b3b53b)" d="M 1120.745455 118.691714  L 1102.110946 119.021257  L 1083.476438 95.458932  L 1064.841929 131.214349  L 1046.207421 94.223145  L 1027.572913 98.177661  L 1008.938404 124.623489  L 990.303896 115.066741  L 971.669388 157.742562  L 953.034879 94.71746  L 934.400371 89.28  L 915.765863 148.680129  L 897.131354 119.927501  L 878.496846 169.770882  L 859.862338 208.739343  L 841.227829 187.978133  L 822.593321 188.966762  L 803.958813 164.745351  L 785.324304 202.148483  L 766.689796 228.923853  L 748.055288 190.614478  L 729.420779 222.250607  L 710.786271 233.949384  L 692.151763 284.86378  L 673.517254 263.937799  L 654.882746 323.832242  L 636.248237 367.991006  L 617.613729 358.269487  L 598.979221 313.369251  L 580.344712 353.326342  L 561.710204 321.93737  L 543.075696 335.942948  L 524.441187 348.630354  L 505.806679 380.843184  L 487.172171 333.059446  L 468.537662 358.187101  L 449.903154 367.579077  L 431.268646 375.652881  L 412.634137 396.084548  L 393.999629 420.800275  L 375.365121 473.28  L 356.730612 442.385342  L 338.096104 452.024475  L 319.461596 368.073392  L 300.827087 359.834817  L 282.192579 434.146767  L 263.558071 359.175731  L 244.923562 353.326342  L 226.289054 229.665325  L 207.654545 195.22808  " style="fill:none;stroke:#1f77b4;stroke-linecap:square;stroke-width:1.5;" />
   </g>
   <g id="patch_3">
    <path d="M 1166.4 512.64  L 1166.4 69.12  " style="fill:none;stroke:#000000;stroke-linecap:square;stroke-linejoin:miter;stroke-width:0.8;" />
   </g>
   <g id="patch_4">
    <path d="M 162 512.64  L 1166.4 512.64  " style="fill:none;stroke:#000000;stroke-linecap:square;stroke-linejoin:miter;stroke-width:0.8;" />
   </g>
   <g id="text_19">
    
    <g transform="translate(585.140625 40.724375)scale(0.2 -0.2)">
     <defs>
      <path d="M 2188 4044  L 1331 1722  L 3047 1722  L 2188 4044  z M 1831 4666  L 2547 4666  L 4325 0  L 3669 0  L 3244 1197  L 1141 1197  L 716 0  L 50 0  L 1831 4666  z " id="DejaVuSans-41" transform="scale(0.015625)" />
      <path d="M 4122 4306  L 4122 3641  Q 3803 3938 3442 4084  Q 3081 4231 2675 4231  Q 1875 4231 1450 3742  Q 1025 3253 1025 2328  Q 1025 1406 1450 917  Q 1875 428 2675 428  Q 3081 428 3442 575  Q 3803 722 4122 1019  L 4122 359  Q 3791 134 3420 21  Q 3050 -91 2638 -91  Q 1578 -91 968 557  Q 359 1206 359 2328  Q 359 3453 968 4101  Q 1578 4750 2638 4750  Q 3056 4750 3426 4639  Q 3797 4528 4122 4306  z " id="DejaVuSans-43" transform="scale(0.015625)" />
      <path d="M 3425 4513  L 3425 3897  Q 3066 4069 2747 4153  Q 2428 4238 2131 4238  Q 1616 4238 1336 4038  Q 1056 3838 1056 3469  Q 1056 3159 1242 3001  Q 1428 2844 1947 2747  L 2328 2669  Q 3034 2534 3370 2195  Q 3706 1856 3706 1288  Q 3706 609 3251 259  Q 2797 -91 1919 -91  Q 1588 -91 1214 -16  Q 841 59 441 206  L 441 856  Q 825 641 1194 531  Q 1563 422 1919 422  Q 2459 422 2753 634  Q 3047 847 3047 1241  Q 3047 1584 2836 1778  Q 2625 1972 2144 2069  L 1759 2144  Q 1053 2284 737 2584  Q 422 2884 422 3419  Q 422 4038 858 4394  Q 1294 4750 2059 4750  Q 2388 4750 2728 4690  Q 3069 4631 3425 4513  z " id="DejaVuSans-53" transform="scale(0.015625)" />
      <path d="M 1959 3097  Q 1497 3097 1228 2736  Q 959 2375 959 1747  Q 959 1119 1226 758  Q 1494 397 1959 397  Q 2419 397 2687 759  Q 2956 1122 2956 1747  Q 2956 2369 2687 2733  Q 2419 3097 1959 3097  z M 1959 3584  Q 2709 3584 3137 3096  Q 3566 2609 3566 1747  Q 3566 888 3137 398  Q 2709 -91 1959 -91  Q 1206 -91 779 398  Q 353 888 353 1747  Q 353 2609 779 3096  Q 1206 3584 1959 3584  z " id="DejaVuSans-6f" transform="scale(0.015625)" />
      <path d="M 581 4863  L 1159 4863  L 1159 1991  L 2875 3500  L 3609 3500  L 1753 1863  L 3688 0  L 2938 0  L 1159 1709  L 1159 0  L 581 0  L 581 4863  z " id="DejaVuSans-6b" transform="scale(0.015625)" />
     </defs>
     <use ns4:href="#DejaVuSans-41" />
     <use x="66.658203" ns4:href="#DejaVuSans-43" />
     <use x="136.482422" ns4:href="#DejaVuSans-43" />
     <use x="206.306641" ns4:href="#DejaVuSans-20" />
     <use x="238.09375" ns4:href="#DejaVuSans-53" />
     <use x="301.570312" ns4:href="#DejaVuSans-74" />
     <use x="340.779297" ns4:href="#DejaVuSans-6f" />
     <use x="401.960938" ns4:href="#DejaVuSans-63" />
     <use x="456.941406" ns4:href="#DejaVuSans-6b" />
     <use x="514.851562" ns4:href="#DejaVuSans-20" />
     <use x="546.638672" ns4:href="#DejaVuSans-50" />
     <use x="605.191406" ns4:href="#DejaVuSans-72" />
     <use x="646.304688" ns4:href="#DejaVuSans-69" />
     <use x="674.087891" ns4:href="#DejaVuSans-63" />
     <use x="729.068359" ns4:href="#DejaVuSans-65" />
    </g>
    
    <g transform="translate(664.2 63.12)scale(0.2 -0.2)" />
   </g>
  </g>
  <g id="crosslineX">
   <path d="M 0 288  L 1296 288  " style="fill:none;stroke:#000000;stroke-dasharray:2.59,1.12;stroke-dashoffset:0;stroke-opacity:0.5;stroke-width:0.7;" />
  </g>
  <g id="crosslineY">
   <path d="M 648 576  L 648 0  " style="fill:none;stroke:#000000;stroke-dasharray:2.59,1.12;stroke-dashoffset:0;stroke-opacity:0.5;stroke-width:0.7;" />
  </g>
 </g>
 <defs>
  <clipPath id="p35a3b3b53b">
   <rect height="443.52" width="1004.4" x="162" y="69.12" />
  </clipPath>
 </defs>
</svg>