<svg width="30" height="30" viewBox="0 0 30 30" fill="none" xmlns="http://www.w3.org/2000/svg">
<path d="M8.46968 13.7197C8.76257 13.4268 9.23744 13.4268 9.53033 13.7197L12.5303 16.7196C12.671 16.8603 12.75 17.0511 12.75 17.25C12.75 17.4489 12.671 17.6397 12.5303 17.7804L9.53033 20.7804C9.23744 21.0732 8.76257 21.0732 8.46968 20.7804C8.17678 20.4875 8.17678 20.0126 8.46968 19.7196L10.9393 17.25L8.46968 14.7803C8.17678 14.4874 8.17678 14.0126 8.46968 13.7197ZM21.75 19.5H14.25C13.8358 19.5 13.5 19.8359 13.5 20.25C13.5 20.6642 13.8358 21 14.25 21H21.75C22.1642 21 22.5 20.6642 22.5 20.25C22.5 19.8359 22.1642 19.5 21.75 19.5ZM4.49414 8.25C4.49414 6.17894 6.17308 4.5 8.24414 4.5H21.7442C23.8152 4.5 25.4942 6.17894 25.4942 8.25V9H25.4985V10.5H25.4942V21.75C25.4942 23.8211 23.8152 25.5 21.7442 25.5H8.24414C6.17308 25.5 4.49414 23.8211 4.49414 21.75V8.25ZM23.9942 9V8.25C23.9942 7.00736 22.9868 6 21.7442 6H8.24414C7.00151 6 5.99414 7.00736 5.99414 8.25V9H23.9942ZM5.99414 10.5V21.75C5.99414 22.9926 7.00151 24 8.24414 24H21.7442C22.9868 24 23.9942 22.9926 23.9942 21.75V10.5H5.99414Z" fill="white"/>
</svg>
