<svg width="30" height="30" viewBox="0 0 30 30" fill="none" xmlns="http://www.w3.org/2000/svg">
<path d="M7.6083 9.6875C8.2012 6.30345 11.1557 3.75 14.6875 3.75C18.2193 3.75 21.1738 6.30345 21.7668 9.6875H21.875C24.6364 9.6875 26.875 11.9261 26.875 14.6875C26.875 14.9214 26.859 15.1515 26.8279 15.3769C26.2602 14.7068 25.586 14.1298 24.8314 13.6723C24.4099 12.4447 23.2455 11.5625 21.875 11.5625L20.9299 11.5625C20.43 11.5626 20.018 11.1704 19.9935 10.6711C19.8546 7.85156 17.5225 5.625 14.6875 5.625C11.8525 5.625 9.52036 7.85156 9.38154 10.6711C9.35696 11.1704 8.945 11.5626 8.44515 11.5625L7.5 11.5625C5.77411 11.5625 4.375 12.9616 4.375 14.6875C4.375 16.4134 5.77411 17.8125 7.5 17.8125H13C12.7802 18.4079 12.6284 19.036 12.5535 19.6875H7.5C4.73857 19.6875 2.5 17.4489 2.5 14.6875C2.5 11.9261 4.73857 9.6875 7.50003 9.6875H7.6083ZM27.5 20.625C27.5 16.828 24.422 13.75 20.625 13.75C16.828 13.75 13.75 16.828 13.75 20.625C13.75 24.422 16.828 27.5 20.625 27.5C24.422 27.5 27.5 24.422 27.5 20.625ZM20 16.875C20 16.5299 20.2799 16.25 20.625 16.25C20.9701 16.25 21.25 16.5299 21.25 16.875V22.8661L23.308 20.808C23.5521 20.564 23.9479 20.564 24.192 20.808C24.436 21.0521 24.436 21.4479 24.192 21.692L21.067 24.817C20.8229 25.061 20.4271 25.061 20.183 24.817L17.058 21.692C16.814 21.4479 16.814 21.0521 17.058 20.808C17.3021 20.564 17.6979 20.564 17.942 20.808L20 22.8661V16.875Z" fill="white"/>
</svg>
