<svg width="30" height="30" viewBox="0 0 30 30" fill="none" xmlns="http://www.w3.org/2000/svg">
<path d="M13.1865 3.16647C14.234 2.28272 15.766 2.28272 16.8135 3.16647L25.251 10.2846C25.8845 10.819 26.25 11.6056 26.25 12.4343V24.688C26.25 25.8961 25.2706 26.8755 24.0625 26.8755H20.3125C19.1044 26.8755 18.125 25.8961 18.125 24.688V18.438C18.125 17.9202 17.7052 17.5005 17.1875 17.5005H12.8125C12.2947 17.5005 11.875 17.9202 11.875 18.438V24.688C11.875 25.8961 10.8956 26.8755 9.6875 26.8755H5.9375C4.72938 26.8755 3.75 25.8961 3.75 24.688V12.4343C3.75 11.6056 4.11551 10.819 4.74895 10.2846L13.1865 3.16647Z" fill="#CC9B6D"/>
</svg>
