<svg width="109" height="50" viewBox="0 0 109 50" fill="none" xmlns="http://www.w3.org/2000/svg">
<rect x="0.5" y="0.5" width="108" height="49" rx="9.5" stroke="white"/>
<path d="M86 30.3333C86.5523 30.3333 87 30.7811 87 31.3333C87 31.8856 86.5523 32.3333 86 32.3333H82C81.4477 32.3333 81 31.8856 81 31.3333C81 30.7811 81.4477 30.3333 82 30.3333H86ZM90 23.6667C90.5523 23.6667 91 24.1144 91 24.6667C91 25.2189 90.5523 25.6667 90 25.6667H78C77.4477 25.6667 77 25.2189 77 24.6667C77 24.1144 77.4477 23.6667 78 23.6667H90ZM94 17C94.5523 17 95 17.4477 95 18C95 18.5523 94.5523 19 94 19H74C73.4477 19 73 18.5523 73 18C73 17.4477 73.4477 17 74 17H94Z" fill="white"/>
<path d="M22.6387 24.7207H16.6719V31H14.7969V16.7812H23.6055V18.3242H16.6719V23.1875H22.6387V24.7207ZM27.5312 31H25.7246V20.4336H27.5312V31ZM25.5781 17.6309C25.5781 17.3379 25.666 17.0905 25.8418 16.8887C26.0241 16.6868 26.291 16.5859 26.6426 16.5859C26.9941 16.5859 27.2611 16.6868 27.4434 16.8887C27.6257 17.0905 27.7168 17.3379 27.7168 17.6309C27.7168 17.9238 27.6257 18.168 27.4434 18.3633C27.2611 18.5586 26.9941 18.6562 26.6426 18.6562C26.291 18.6562 26.0241 18.5586 25.8418 18.3633C25.666 18.168 25.5781 17.9238 25.5781 17.6309ZM32.3945 31H30.5879V16H32.3945V31ZM37.7461 17.875V20.4336H39.7188V21.8301H37.7461V28.3828C37.7461 28.806 37.834 29.125 38.0098 29.3398C38.1855 29.5482 38.485 29.6523 38.9082 29.6523C39.1165 29.6523 39.403 29.6133 39.7676 29.5352V31C39.2923 31.1302 38.8301 31.1953 38.3809 31.1953C37.5736 31.1953 36.9648 30.9512 36.5547 30.4629C36.1445 29.9746 35.9395 29.2812 35.9395 28.3828V21.8301H34.0156V20.4336H35.9395V17.875H37.7461ZM46.2227 31.1953C44.7904 31.1953 43.625 30.7266 42.7266 29.7891C41.8281 28.8451 41.3789 27.5853 41.3789 26.0098V25.6777C41.3789 24.6296 41.5775 23.6953 41.9746 22.875C42.3783 22.0482 42.9382 21.4036 43.6543 20.9414C44.377 20.4727 45.1582 20.2383 45.998 20.2383C47.3717 20.2383 48.4395 20.6908 49.2012 21.5957C49.9629 22.5007 50.3438 23.7962 50.3438 25.4824V26.2344H43.1855C43.2116 27.276 43.5143 28.1191 44.0938 28.7637C44.6797 29.4017 45.4219 29.7207 46.3203 29.7207C46.9583 29.7207 47.4987 29.5905 47.9414 29.3301C48.3841 29.0697 48.7715 28.7246 49.1035 28.2949L50.207 29.1543C49.3216 30.515 47.9935 31.1953 46.2227 31.1953ZM45.998 21.7227C45.2689 21.7227 44.6569 21.9896 44.1621 22.5234C43.6673 23.0508 43.3613 23.793 43.2441 24.75H48.5371V24.6133C48.485 23.6953 48.2376 22.9857 47.7949 22.4844C47.3522 21.9766 46.7533 21.7227 45.998 21.7227ZM57.5508 22.0547C57.2773 22.0091 56.9811 21.9863 56.6621 21.9863C55.4772 21.9863 54.6732 22.4909 54.25 23.5V31H52.4434V20.4336H54.2012L54.2305 21.6543C54.8229 20.7103 55.6628 20.2383 56.75 20.2383C57.1016 20.2383 57.3685 20.2839 57.5508 20.375V22.0547Z" fill="white"/>
</svg>
