<svg width="159" height="36" viewBox="0 0 159 36" fill="none" xmlns="http://www.w3.org/2000/svg">
<path d="M19.0078 18.3945C17.0781 17.8398 15.6719 17.1602 14.7891 16.3555C13.9141 15.543 13.4766 14.543 13.4766 13.3555C13.4766 12.0117 14.0117 10.9023 15.082 10.0273C16.1602 9.14453 17.5586 8.70312 19.2773 8.70312C20.4492 8.70312 21.4922 8.92969 22.4062 9.38281C23.3281 9.83594 24.0391 10.4609 24.5391 11.2578C25.0469 12.0547 25.3008 12.9258 25.3008 13.8711H23.0391C23.0391 12.8398 22.7109 12.0312 22.0547 11.4453C21.3984 10.8516 20.4727 10.5547 19.2773 10.5547C18.168 10.5547 17.3008 10.8008 16.6758 11.293C16.0586 11.7773 15.75 12.4531 15.75 13.3203C15.75 14.0156 16.043 14.6055 16.6289 15.0898C17.2227 15.5664 18.2266 16.0039 19.6406 16.4023C21.0625 16.8008 22.1719 17.2422 22.9688 17.7266C23.7734 18.2031 24.3672 18.7617 24.75 19.4023C25.1406 20.043 25.3359 20.7969 25.3359 21.6641C25.3359 23.0469 24.7969 24.1562 23.7188 24.9922C22.6406 25.8203 21.1992 26.2344 19.3945 26.2344C18.2227 26.2344 17.1289 26.0117 16.1133 25.5664C15.0977 25.1133 14.3125 24.4961 13.7578 23.7148C13.2109 22.9336 12.9375 22.0469 12.9375 21.0547H15.1992C15.1992 22.0859 15.5781 22.9023 16.3359 23.5039C17.1016 24.0977 18.1211 24.3945 19.3945 24.3945C20.582 24.3945 21.4922 24.1523 22.125 23.668C22.7578 23.1836 23.0742 22.5234 23.0742 21.6875C23.0742 20.8516 22.7812 20.207 22.1953 19.7539C21.6094 19.293 20.5469 18.8398 19.0078 18.3945ZM36.7852 10.25V13.3203H39.1523V14.9961H36.7852V22.8594C36.7852 23.3672 36.8906 23.75 37.1016 24.0078C37.3125 24.2578 37.6719 24.3828 38.1797 24.3828C38.4297 24.3828 38.7734 24.3359 39.2109 24.2422V26C38.6406 26.1562 38.0859 26.2344 37.5469 26.2344C36.5781 26.2344 35.8477 25.9414 35.3555 25.3555C34.8633 24.7695 34.6172 23.9375 34.6172 22.8594V14.9961H32.3086V13.3203H34.6172V10.25H36.7852ZM40.8867 19.543C40.8867 18.3008 41.1289 17.1836 41.6133 16.1914C42.1055 15.1992 42.7852 14.4336 43.6523 13.8945C44.5273 13.3555 45.5234 13.0859 46.6406 13.0859C48.3672 13.0859 49.7617 13.6836 50.8242 14.8789C51.8945 16.0742 52.4297 17.6641 52.4297 19.6484V19.8008C52.4297 21.0352 52.1914 22.1445 51.7148 23.1289C51.2461 24.1055 50.5703 24.8672 49.6875 25.4141C48.8125 25.9609 47.8047 26.2344 46.6641 26.2344C44.9453 26.2344 43.5508 25.6367 42.4805 24.4414C41.418 23.2461 40.8867 21.6641 40.8867 19.6953V19.543ZM43.0664 19.8008C43.0664 21.207 43.3906 22.3359 44.0391 23.1875C44.6953 24.0391 45.5703 24.4648 46.6641 24.4648C47.7656 24.4648 48.6406 24.0352 49.2891 23.1758C49.9375 22.3086 50.2617 21.0977 50.2617 19.543C50.2617 18.1523 49.9297 17.0273 49.2656 16.168C48.6094 15.3008 47.7344 14.8672 46.6406 14.8672C45.5703 14.8672 44.707 15.293 44.0508 16.1445C43.3945 16.9961 43.0664 18.2148 43.0664 19.8008ZM60.2344 24.4648C61.0078 24.4648 61.6836 24.2305 62.2617 23.7617C62.8398 23.293 63.1602 22.707 63.2227 22.0039H65.2734C65.2344 22.7305 64.9844 23.4219 64.5234 24.0781C64.0625 24.7344 63.4453 25.2578 62.6719 25.6484C61.9062 26.0391 61.0938 26.2344 60.2344 26.2344C58.5078 26.2344 57.1328 25.6602 56.1094 24.5117C55.0938 23.3555 54.5859 21.7773 54.5859 19.7773V19.4141C54.5859 18.1797 54.8125 17.082 55.2656 16.1211C55.7188 15.1602 56.3672 14.4141 57.2109 13.8828C58.0625 13.3516 59.0664 13.0859 60.2227 13.0859C61.6445 13.0859 62.8242 13.5117 63.7617 14.3633C64.707 15.2148 65.2109 16.3203 65.2734 17.6797H63.2227C63.1602 16.8594 62.8477 16.1875 62.2852 15.6641C61.7305 15.1328 61.043 14.8672 60.2227 14.8672C59.1211 14.8672 58.2656 15.2656 57.6562 16.0625C57.0547 16.8516 56.7539 17.9961 56.7539 19.4961V19.9062C56.7539 21.3672 57.0547 22.4922 57.6562 23.2812C58.2578 24.0703 59.1172 24.4648 60.2344 24.4648ZM71.25 20.1289L69.8906 21.5469V26H67.7227V8H69.8906V18.8867L71.0508 17.4922L75 13.3203H77.6367L72.7031 18.6172L78.2109 26H75.668L71.25 20.1289ZM89.0742 8.9375L94.6523 22.8594L100.23 8.9375H103.148V26H100.898V19.3555L101.109 12.1836L95.5078 26H93.7852L88.1953 12.2188L88.418 19.3555V26H86.168V8.9375H89.0742ZM114.609 26C114.484 25.75 114.383 25.3047 114.305 24.6641C113.297 25.7109 112.094 26.2344 110.695 26.2344C109.445 26.2344 108.418 25.8828 107.613 25.1797C106.816 24.4688 106.418 23.5703 106.418 22.4844C106.418 21.1641 106.918 20.1406 107.918 19.4141C108.926 18.6797 110.34 18.3125 112.16 18.3125H114.27V17.3164C114.27 16.5586 114.043 15.957 113.59 15.5117C113.137 15.0586 112.469 14.832 111.586 14.832C110.812 14.832 110.164 15.0273 109.641 15.418C109.117 15.8086 108.855 16.2812 108.855 16.8359H106.676C106.676 16.2031 106.898 15.5938 107.344 15.0078C107.797 14.4141 108.406 13.9453 109.172 13.6016C109.945 13.2578 110.793 13.0859 111.715 13.0859C113.176 13.0859 114.32 13.4531 115.148 14.1875C115.977 14.9141 116.406 15.918 116.438 17.1992V23.0352C116.438 24.1992 116.586 25.125 116.883 25.8125V26H114.609ZM111.012 24.3477C111.691 24.3477 112.336 24.1719 112.945 23.8203C113.555 23.4688 113.996 23.0117 114.27 22.4492V19.8477H112.57C109.914 19.8477 108.586 20.625 108.586 22.1797C108.586 22.8594 108.812 23.3906 109.266 23.7734C109.719 24.1562 110.301 24.3477 111.012 24.3477ZM125.965 15.2656C125.637 15.2109 125.281 15.1836 124.898 15.1836C123.477 15.1836 122.512 15.7891 122.004 17V26H119.836V13.3203H121.945L121.98 14.7852C122.691 13.6523 123.699 13.0859 125.004 13.0859C125.426 13.0859 125.746 13.1406 125.965 13.25V15.2656ZM131.508 20.1289L130.148 21.5469V26H127.98V8H130.148V18.8867L131.309 17.4922L135.258 13.3203H137.895L132.961 18.6172L138.469 26H135.926L131.508 20.1289ZM145.16 26.2344C143.441 26.2344 142.043 25.6719 140.965 24.5469C139.887 23.4141 139.348 21.9023 139.348 20.0117V19.6133C139.348 18.3555 139.586 17.2344 140.062 16.25C140.547 15.2578 141.219 14.4844 142.078 13.9297C142.945 13.3672 143.883 13.0859 144.891 13.0859C146.539 13.0859 147.82 13.6289 148.734 14.7148C149.648 15.8008 150.105 17.3555 150.105 19.3789V20.2812H141.516C141.547 21.5312 141.91 22.543 142.605 23.3164C143.309 24.082 144.199 24.4648 145.277 24.4648C146.043 24.4648 146.691 24.3086 147.223 23.9961C147.754 23.6836 148.219 23.2695 148.617 22.7539L149.941 23.7852C148.879 25.418 147.285 26.2344 145.16 26.2344ZM144.891 14.8672C144.016 14.8672 143.281 15.1875 142.688 15.8281C142.094 16.4609 141.727 17.3516 141.586 18.5H147.938V18.3359C147.875 17.2344 147.578 16.3828 147.047 15.7812C146.516 15.1719 145.797 14.8672 144.891 14.8672ZM155.566 10.25V13.3203H157.934V14.9961H155.566V22.8594C155.566 23.3672 155.672 23.75 155.883 24.0078C156.094 24.2578 156.453 24.3828 156.961 24.3828C157.211 24.3828 157.555 24.3359 157.992 24.2422V26C157.422 26.1562 156.867 26.2344 156.328 26.2344C155.359 26.2344 154.629 25.9414 154.137 25.3555C153.645 24.7695 153.398 23.9375 153.398 22.8594V14.9961H151.09V13.3203H153.398V10.25H155.566Z" fill="#F1CA89"/>
<rect x="5.64355" y="5.12869" width="24.7149" height="24.7149" stroke="#CC9B6D"/>
<rect x="31.3569" y="0.5" width="4.14299" height="4.14299" stroke="#CC9B6D"/>
<rect x="31.3569" y="30.8436" width="4.14299" height="4.14299" stroke="#CC9B6D"/>
<rect x="0.5" y="30.8436" width="4.14299" height="4.14299" stroke="#CC9B6D"/>
<rect x="0.5" y="0.5" width="4.14299" height="4.14299" stroke="#CC9B6D"/>
</svg>
