<svg xmlns="http://www.w3.org/2000/svg" viewBox="0 0 26 26" width="26" height="26">
<path d="M4 4v1h1v1h1v1H5v1H4v1h2V8h1v1h2V8H8V7H7V6h1V5h1V4H7v1H6V4H4zm12 0v1h1v1h1v1h-1v1h-1v1h2V8h1v1h2V8h-1V7h-1V6h1V5h1V4h-2v1h-1V4h-2zM4 10v1h1v1h1v1H5v1H4v1h2v-1h1v1h2v-1H8v-1H7v-1h1v-1h1v-1H7v1H6v-1H4zm7 0v1h-1v3h1v1h3v-1h1v-3h-1v-1h-3zm5 0v1h1v1h1v1h-1v1h-1v1h2v-1h1v1h2v-1h-1v-1h-1v-1h1v-1h1v-1h-2v1h-1v-1h-2zm-4 1h1v1h1v1h-1v1h-1v-1h-1v-1h1v-1zm-8 5v1h1v1h1v1H5v1H4v1h2v-1h1v1h2v-1H8v-1H7v-1h1v-1h1v-1H7v1H6v-1H4zm7 0v1h-1v3h1v1h3v-1h1v-3h-1v-1h-3zm1 1h1v1h1v1h-1v1h-1v-1h-1v-1h1v-1z">
</path></svg>