<svg width="30" height="30" viewBox="0 0 30 30" fill="none" xmlns="http://www.w3.org/2000/svg">
<path d="M15.0154 2.8125C15.9329 2.82308 16.8468 2.92908 17.7423 3.1288C18.1333 3.21599 18.4257 3.54189 18.4701 3.93995L18.6828 5.84851C18.7791 6.72483 19.5189 7.38855 20.4011 7.38947C20.6381 7.38985 20.8727 7.34047 21.0917 7.24354L22.8426 6.47445C23.2067 6.31449 23.6321 6.4017 23.9039 6.69203C25.1692 8.0433 26.1114 9.66394 26.6598 11.432C26.7781 11.8132 26.6421 12.2275 26.3207 12.4644L24.7688 13.6082C24.3262 13.9335 24.0647 14.45 24.0647 14.9994C24.0647 15.5486 24.3262 16.0651 24.7698 16.3911L26.3231 17.5354C26.6444 17.7721 26.7807 18.1865 26.6623 18.5679C26.1142 20.3356 25.1724 21.9561 23.9079 23.3076C23.6363 23.5979 23.2112 23.6854 22.8471 23.5258L21.0892 22.7556C20.5863 22.5355 20.0087 22.5678 19.5334 22.8425C19.0582 23.1171 18.7418 23.6015 18.6814 24.1471L18.4701 26.0555C18.4266 26.449 18.1404 26.7728 17.7553 26.8644C15.9447 27.2951 14.0583 27.2951 12.2478 26.8644C11.8626 26.7728 11.5766 26.449 11.533 26.0555L11.3219 24.15C11.26 23.6054 10.9432 23.1225 10.4683 22.8487C9.99338 22.575 9.41675 22.5429 8.91549 22.7617L7.15721 23.532C6.79302 23.6916 6.36779 23.6041 6.09623 23.3136C4.83103 21.9606 3.88924 20.3381 3.34174 18.5685C3.22383 18.1874 3.36008 17.7732 3.6813 17.5366L5.23546 16.3916C5.67814 16.0664 5.93959 15.5499 5.93959 15.0006C5.93959 14.4513 5.67814 13.9347 5.23489 13.6091L3.6817 12.4661C3.35999 12.2293 3.22361 11.8147 3.34195 11.4332C3.89039 9.66519 4.83268 8.04455 6.0979 6.69327C6.36974 6.40295 6.79516 6.31574 7.1593 6.4757L8.90977 7.24465C9.41345 7.4657 9.99249 7.43231 10.47 7.15336C10.9454 6.87761 11.2619 6.39278 11.323 5.84705L11.5356 3.93995C11.58 3.54169 11.8726 3.21567 12.2638 3.12867C13.1603 2.92927 14.0752 2.82331 15.0154 2.8125ZM15.0157 4.68738C14.4482 4.69405 13.8822 4.74304 13.3226 4.83377L13.1863 6.05523C13.0591 7.1921 12.4003 8.20128 11.4133 8.77379C10.4202 9.35396 9.20945 9.42379 8.15598 8.96146L7.03312 8.4682C6.31819 9.33591 5.74917 10.3142 5.3484 11.3646L6.34564 12.0985C7.26915 12.777 7.81459 13.8546 7.81459 15.0006C7.81459 16.1465 7.26915 17.2241 6.34662 17.9019L5.3478 18.6378C5.74823 19.69 6.31734 20.6701 7.03275 21.5395L8.16417 21.0439C9.21178 20.5865 10.4143 20.6534 11.4047 21.2243C12.395 21.7951 13.0557 22.8021 13.1852 23.9408L13.3214 25.1706C14.4334 25.3597 15.5696 25.3597 16.6816 25.1706L16.8178 23.9409C16.9438 22.8026 17.6037 21.7921 18.5952 21.2191C19.5868 20.646 20.7917 20.5787 21.8412 21.0381L22.9718 21.5334C23.6866 20.6654 24.2554 19.6869 24.6561 18.6363L23.6587 17.9014C22.7352 17.2229 22.1897 16.1453 22.1897 14.9994C22.1897 13.8534 22.7352 12.7757 23.6576 12.0981L24.6536 11.3639C24.2528 10.3133 23.6837 9.3348 22.9687 8.46695L21.8481 8.95921C21.3914 9.16126 20.8974 9.26525 20.3986 9.26447C18.5614 9.26255 17.0197 7.87944 16.8192 6.05479L16.6829 4.83337C16.1261 4.74275 15.5661 4.6939 15.0157 4.68738ZM14.9998 10.3124C17.5887 10.3124 19.6873 12.4111 19.6873 15C19.6873 17.5887 17.5887 19.6875 14.9998 19.6875C12.411 19.6875 10.3124 17.5887 10.3124 15C10.3124 12.4111 12.411 10.3124 14.9998 10.3124ZM14.9998 12.1874C13.4466 12.1874 12.1874 13.4466 12.1874 15C12.1874 16.5533 13.4466 17.8125 14.9998 17.8125C16.5532 17.8125 17.8123 16.5533 17.8123 15C17.8123 13.4466 16.5532 12.1874 14.9998 12.1874Z" fill="white"/>
</svg>
