<svg width="110" height="50" viewBox="0 0 110 50" fill="none" xmlns="http://www.w3.org/2000/svg">
<rect x="0.5" y="0.5" width="109" height="49" rx="9.5" stroke="white"/>
<path d="M91.6667 34.9191L95.9596 30.626C96.35 30.2355 96.9832 30.2355 97.3737 30.626C97.7643 31.0165 97.7643 31.6496 97.3737 32.0401L91.3737 38.0404C91.1863 38.228 90.9319 38.3333 90.6667 38.3333C90.4015 38.3333 90.1471 38.228 89.9596 38.0404L83.9596 32.0401C83.5691 31.6496 83.5691 31.0165 83.9596 30.626C84.3501 30.2355 84.9833 30.2355 85.3737 30.626L89.6667 34.9191V12.6666C89.6667 12.1144 90.1144 11.6667 90.6667 11.6667C91.2189 11.6667 91.6667 12.1144 91.6667 12.6666V34.9191ZM78.4291 11.6667C78.8435 11.6695 79.2133 11.9277 79.3587 12.3159L83.6035 23.6491C83.7971 24.1663 83.5349 24.7427 83.0177 24.9363C82.5005 25.13 81.9242 24.8677 81.7305 24.3505L80.7252 21.6665H75.9841L74.9319 24.3633C74.7311 24.8779 74.1513 25.1321 73.6368 24.9315C73.1223 24.7307 72.8679 24.1509 73.0687 23.6364L77.4906 12.3032C77.6413 11.917 78.0146 11.6639 78.4291 11.6667ZM78.4031 15.4667L76.7644 19.6666H79.9761L78.4031 15.4667ZM75.334 26.3331C74.7817 26.3331 74.334 26.7807 74.334 27.3329C74.334 27.8853 74.7817 28.3329 75.334 28.3329H79.8503L74.4892 36.798C74.2941 37.106 74.2821 37.4957 74.4579 37.8152C74.6337 38.1345 74.9694 38.3329 75.334 38.3329H81.6673C82.2196 38.3329 82.6673 37.8853 82.6673 37.3331C82.6673 36.7807 82.2196 36.3331 81.6673 36.3331H77.151L82.5121 27.868C82.7072 27.56 82.7192 27.1703 82.5435 26.8508C82.3676 26.5315 82.0319 26.3331 81.6673 26.3331H75.334Z" fill="white"/>
<path d="M23.2949 24.6621C21.6868 24.1999 20.515 23.6335 19.7793 22.9629C19.0501 22.2858 18.6855 21.4525 18.6855 20.4629C18.6855 19.3431 19.1315 18.4186 20.0234 17.6895C20.9219 16.9538 22.0872 16.5859 23.5195 16.5859C24.4961 16.5859 25.3652 16.7747 26.127 17.1523C26.8952 17.5299 27.4876 18.0508 27.9043 18.7148C28.3275 19.3789 28.5391 20.1048 28.5391 20.8926H26.6543C26.6543 20.0332 26.3809 19.3594 25.834 18.8711C25.2871 18.3763 24.5156 18.1289 23.5195 18.1289C22.5951 18.1289 21.8724 18.334 21.3516 18.7441C20.8372 19.1478 20.5801 19.7109 20.5801 20.4336C20.5801 21.013 20.8242 21.5046 21.3125 21.9082C21.8073 22.3053 22.6439 22.6699 23.8223 23.002C25.0072 23.334 25.9316 23.7018 26.5957 24.1055C27.2663 24.5026 27.7611 24.9681 28.0801 25.502C28.4056 26.0358 28.5684 26.6641 28.5684 27.3867C28.5684 28.5391 28.1191 29.4635 27.2207 30.1602C26.3223 30.8503 25.1211 31.1953 23.6172 31.1953C22.6406 31.1953 21.7292 31.0098 20.8828 30.6387C20.0365 30.2611 19.3822 29.7467 18.9199 29.0957C18.4642 28.4447 18.2363 27.7057 18.2363 26.8789H20.1211C20.1211 27.7383 20.4368 28.4186 21.0684 28.9199C21.7064 29.4147 22.556 29.6621 23.6172 29.6621C24.6068 29.6621 25.3652 29.4603 25.8926 29.0566C26.4199 28.653 26.6836 28.1029 26.6836 27.4062C26.6836 26.7096 26.4395 26.1725 25.9512 25.7949C25.4629 25.4108 24.5775 25.0332 23.2949 24.6621ZM30.2188 25.6191C30.2188 24.584 30.4206 23.653 30.8242 22.8262C31.2344 21.9993 31.8008 21.3613 32.5234 20.9121C33.2526 20.4629 34.0827 20.2383 35.0137 20.2383C36.4525 20.2383 37.6146 20.7363 38.5 21.7324C39.3919 22.7285 39.8379 24.0534 39.8379 25.707V25.834C39.8379 26.8626 39.6393 27.7871 39.2422 28.6074C38.8516 29.4212 38.2884 30.056 37.5527 30.5117C36.8236 30.9674 35.9837 31.1953 35.0332 31.1953C33.6009 31.1953 32.4388 30.6973 31.5469 29.7012C30.6615 28.7051 30.2188 27.3867 30.2188 25.7461V25.6191ZM32.0352 25.834C32.0352 27.0059 32.3053 27.9466 32.8457 28.6562C33.3926 29.3659 34.1217 29.7207 35.0332 29.7207C35.9512 29.7207 36.6803 29.3626 37.2207 28.6465C37.7611 27.9238 38.0312 26.9147 38.0312 25.6191C38.0312 24.4603 37.7546 23.5228 37.2012 22.8066C36.6543 22.084 35.9251 21.7227 35.0137 21.7227C34.1217 21.7227 33.4023 22.0775 32.8555 22.7871C32.3086 23.4967 32.0352 24.5124 32.0352 25.834ZM47.2109 22.0547C46.9375 22.0091 46.6413 21.9863 46.3223 21.9863C45.1374 21.9863 44.3333 22.4909 43.9102 23.5V31H42.1035V20.4336H43.8613L43.8906 21.6543C44.4831 20.7103 45.3229 20.2383 46.4102 20.2383C46.7617 20.2383 47.0286 20.2839 47.2109 20.375V22.0547ZM51.8203 17.875V20.4336H53.793V21.8301H51.8203V28.3828C51.8203 28.806 51.9082 29.125 52.084 29.3398C52.2598 29.5482 52.5592 29.6523 52.9824 29.6523C53.1908 29.6523 53.4772 29.6133 53.8418 29.5352V31C53.3665 31.1302 52.9043 31.1953 52.4551 31.1953C51.6478 31.1953 51.0391 30.9512 50.6289 30.4629C50.2188 29.9746 50.0137 29.2812 50.0137 28.3828V21.8301H48.0898V20.4336H50.0137V17.875H51.8203Z" fill="white"/>
</svg>
