<svg width="30" height="30" viewBox="0 0 30 30" fill="none" xmlns="http://www.w3.org/2000/svg">
<path d="M16.5112 3.87829C15.8922 2.62406 14.1038 2.62407 13.4847 3.87829L10.5374 9.85045L3.94669 10.8081C2.56256 11.0092 2.00989 12.7102 3.01145 13.6865L7.7805 18.3351L6.65468 24.8991C6.41824 26.2777 7.86516 27.329 9.10315 26.6781L12.7838 24.7431L13.1637 23.2214C13.2501 22.8755 13.3759 22.5425 13.5375 22.2285L8.56691 24.8417L9.64518 18.555C9.73906 18.0075 9.55758 17.449 9.15985 17.0612L4.59228 12.609L10.9045 11.6918C11.4542 11.6119 11.9293 11.2667 12.1751 10.7686L14.998 5.04879L17.821 10.7686C18.0667 11.2667 18.5419 11.6119 19.0915 11.6918L24.6536 12.5C25.5627 12.5016 26.4715 12.8036 27.2184 13.406C27.8796 12.4153 27.3085 10.9911 26.0494 10.8081L19.4587 9.85045L16.5112 3.87829Z" fill="white"/>
<path d="M22.625 14.5869L15.2549 21.9649C14.8253 22.395 14.5204 22.934 14.373 23.5243L13.8015 25.8126C13.553 26.8077 14.4535 27.7092 15.4475 27.4604L17.7335 26.8882C18.323 26.7407 18.8614 26.4356 19.2911 26.0054L26.6611 18.6274C27.7758 17.5116 27.7758 15.7026 26.6611 14.5869C25.5466 13.471 23.7395 13.471 22.625 14.5869Z" fill="white"/>
</svg>
