<svg width="165" height="50" viewBox="0 0 165 50" fill="none" xmlns="http://www.w3.org/2000/svg">
<rect x="0.5" y="0.5" width="164" height="49" rx="9.5" stroke="white"/>
<path d="M135.52 14.0002C135.963 14.009 136.347 14.3079 136.464 14.7348L141.042 31.3806L144.542 19.7127C144.664 19.3079 145.026 19.0232 145.448 19.0013C145.87 18.9795 146.26 19.2253 146.423 19.6154L148.667 25H152C152.552 25 153 25.4477 153 26C153 26.5523 152.552 27 152 27H148C147.596 27 147.232 26.7573 147.077 26.3846L145.653 22.9684L141.958 35.2873C141.83 35.7144 141.434 36.0051 140.989 35.9999C140.543 35.9948 140.154 35.6951 140.036 35.2652L135.43 18.5175L132.953 26.3032C132.821 26.7182 132.435 27 132 27H128C127.448 27 127 26.5523 127 26C127 25.4477 127.448 25 128 25H131.269L134.547 14.6968C134.681 14.2748 135.077 13.9914 135.52 14.0002Z" fill="white"/>
<path d="M20.6836 28.5098L24.7461 16.7812H26.7969L21.5234 31H19.8633L14.5996 16.7812H16.6406L20.6836 28.5098ZM30.3906 31H28.584V20.4336H30.3906V31ZM28.4375 17.6309C28.4375 17.3379 28.5254 17.0905 28.7012 16.8887C28.8835 16.6868 29.1504 16.5859 29.502 16.5859C29.8535 16.5859 30.1204 16.6868 30.3027 16.8887C30.485 17.0905 30.5762 17.3379 30.5762 17.6309C30.5762 17.9238 30.485 18.168 30.3027 18.3633C30.1204 18.5586 29.8535 18.6562 29.502 18.6562C29.1504 18.6562 28.8835 18.5586 28.7012 18.3633C28.5254 18.168 28.4375 17.9238 28.4375 17.6309ZM37.6758 31.1953C36.2435 31.1953 35.0781 30.7266 34.1797 29.7891C33.2812 28.8451 32.832 27.5853 32.832 26.0098V25.6777C32.832 24.6296 33.0306 23.6953 33.4277 22.875C33.8314 22.0482 34.3913 21.4036 35.1074 20.9414C35.8301 20.4727 36.6113 20.2383 37.4512 20.2383C38.8249 20.2383 39.8926 20.6908 40.6543 21.5957C41.416 22.5007 41.7969 23.7962 41.7969 25.4824V26.2344H34.6387C34.6647 27.276 34.9674 28.1191 35.5469 28.7637C36.1328 29.4017 36.875 29.7207 37.7734 29.7207C38.4115 29.7207 38.9518 29.5905 39.3945 29.3301C39.8372 29.0697 40.2246 28.7246 40.5566 28.2949L41.6602 29.1543C40.7747 30.515 39.4466 31.1953 37.6758 31.1953ZM37.4512 21.7227C36.722 21.7227 36.11 21.9896 35.6152 22.5234C35.1204 23.0508 34.8145 23.793 34.6973 24.75H39.9902V24.6133C39.9382 23.6953 39.6908 22.9857 39.248 22.4844C38.8053 21.9766 38.2064 21.7227 37.4512 21.7227ZM53.252 28.5098L55.2832 20.4336H57.0898L54.0137 31H52.5488L49.9805 22.9922L47.4805 31H46.0156L42.9492 20.4336H44.7461L46.8262 28.3438L49.2871 20.4336H50.7422L53.252 28.5098ZM74.6777 29.1348C74.196 29.8249 73.5221 30.3424 72.6562 30.6875C71.7969 31.026 70.7943 31.1953 69.6484 31.1953C68.4896 31.1953 67.4609 30.9251 66.5625 30.3848C65.6641 29.8379 64.9674 29.0632 64.4727 28.0605C63.9844 27.0579 63.7337 25.8958 63.7207 24.5742V23.334C63.7207 21.1921 64.2188 19.5319 65.2148 18.3535C66.2174 17.1751 67.6237 16.5859 69.4336 16.5859C70.918 16.5859 72.1126 16.9668 73.0176 17.7285C73.9225 18.4837 74.4759 19.5579 74.6777 20.9512H72.8027C72.4512 19.0697 71.3314 18.1289 69.4434 18.1289C68.1868 18.1289 67.2331 18.5716 66.582 19.457C65.9375 20.3359 65.612 21.612 65.6055 23.2852V24.4473C65.6055 26.0423 65.9701 27.3118 66.6992 28.2559C67.4284 29.1934 68.4147 29.6621 69.6582 29.6621C70.3613 29.6621 70.9766 29.584 71.5039 29.4277C72.0312 29.2715 72.4674 29.0078 72.8125 28.6367V25.4434H69.5215V23.9199H74.6777V29.1348ZM82.6367 22.0547C82.3633 22.0091 82.0671 21.9863 81.748 21.9863C80.5632 21.9863 79.7591 22.4909 79.3359 23.5V31H77.5293V20.4336H79.2871L79.3164 21.6543C79.9089 20.7103 80.7487 20.2383 81.8359 20.2383C82.1875 20.2383 82.4544 20.2839 82.6367 20.375V22.0547ZM90.4395 31C90.3353 30.7917 90.2507 30.4206 90.1855 29.8867C89.3457 30.7591 88.3431 31.1953 87.1777 31.1953C86.1361 31.1953 85.2799 30.9023 84.6094 30.3164C83.9453 29.724 83.6133 28.9753 83.6133 28.0703C83.6133 26.9701 84.0299 26.1172 84.8633 25.5117C85.7031 24.8997 86.8815 24.5938 88.3984 24.5938H90.1562V23.7637C90.1562 23.1322 89.9674 22.6309 89.5898 22.2598C89.2122 21.8822 88.6556 21.6934 87.9199 21.6934C87.2754 21.6934 86.735 21.8561 86.2988 22.1816C85.8626 22.5072 85.6445 22.901 85.6445 23.3633H83.8281C83.8281 22.8359 84.0137 22.3281 84.3848 21.8398C84.7624 21.3451 85.2702 20.9544 85.9082 20.668C86.5527 20.3815 87.2591 20.2383 88.0273 20.2383C89.2448 20.2383 90.1986 20.5443 90.8887 21.1562C91.5788 21.7617 91.9368 22.5983 91.9629 23.666V28.5293C91.9629 29.4993 92.0866 30.2708 92.334 30.8438V31H90.4395ZM87.4414 29.623C88.0078 29.623 88.5449 29.4766 89.0527 29.1836C89.5605 28.8906 89.9284 28.5098 90.1562 28.041V25.873H88.7402C86.5267 25.873 85.4199 26.5208 85.4199 27.8164C85.4199 28.3828 85.6087 28.8255 85.9863 29.1445C86.3639 29.4635 86.849 29.623 87.4414 29.623ZM103.721 25.834C103.721 27.4421 103.353 28.7376 102.617 29.7207C101.882 30.7038 100.885 31.1953 99.6289 31.1953C98.3464 31.1953 97.3372 30.7884 96.6016 29.9746V35.0625H94.7949V20.4336H96.4453L96.5332 21.6055C97.2689 20.694 98.291 20.2383 99.5996 20.2383C100.869 20.2383 101.872 20.7168 102.607 21.6738C103.35 22.6309 103.721 23.9622 103.721 25.668V25.834ZM101.914 25.6289C101.914 24.4375 101.66 23.4967 101.152 22.8066C100.645 22.1165 99.9479 21.7715 99.0625 21.7715C97.9688 21.7715 97.1484 22.2565 96.6016 23.2266V28.2754C97.1419 29.2389 97.9688 29.7207 99.082 29.7207C99.9479 29.7207 100.635 29.3789 101.143 28.6953C101.657 28.0052 101.914 26.9831 101.914 25.6289ZM107.832 21.7129C108.633 20.7298 109.674 20.2383 110.957 20.2383C113.19 20.2383 114.316 21.498 114.336 24.0176V31H112.529V24.0078C112.523 23.2461 112.347 22.6829 112.002 22.3184C111.663 21.9538 111.133 21.7715 110.41 21.7715C109.824 21.7715 109.31 21.9277 108.867 22.2402C108.424 22.5527 108.079 22.9629 107.832 23.4707V31H106.025V16H107.832V21.7129Z" fill="white"/>
</svg>
