<svg width="165" height="50" viewBox="0 0 165 50" fill="none" xmlns="http://www.w3.org/2000/svg">
<rect x="0.5" y="0.5" width="164" height="49" rx="9.5" stroke="white"/>
<path d="M140 14.999C145.524 14.999 150.001 19.4769 150.001 25.0006C150.001 30.5243 145.524 35.0021 140 35.0021C134.476 35.0021 129.998 30.5243 129.998 25.0006C129.998 19.4769 134.476 14.999 140 14.999ZM140 16.499C135.305 16.499 131.498 20.3053 131.498 25.0006C131.498 29.6959 135.305 33.5021 140 33.5021C144.695 33.5021 148.501 29.6959 148.501 25.0006C148.501 20.3053 144.695 16.499 140 16.499ZM139.996 23.4996C140.376 23.4994 140.69 23.7813 140.74 24.1473L140.747 24.2491L140.75 29.7507C140.751 30.1649 140.415 30.5009 140.001 30.5012C139.621 30.5014 139.307 30.2195 139.257 29.8535L139.25 29.7517L139.247 24.2501C139.246 23.8359 139.582 23.4999 139.996 23.4996ZM140 20.0018C140.552 20.0018 140.999 20.449 140.999 21.0005C140.999 21.5521 140.552 21.9992 140 21.9992C139.449 21.9992 139.002 21.5521 139.002 21.0005C139.002 20.449 139.449 20.0018 140 20.0018Z" fill="white"/>
<path d="M16.6602 28.5098L20.7227 16.7812H22.7734L17.5 31H15.8398L10.5762 16.7812H12.6172L16.6602 28.5098ZM26.3672 31H24.5605V20.4336H26.3672V31ZM24.4141 17.6309C24.4141 17.3379 24.502 17.0905 24.6777 16.8887C24.86 16.6868 25.127 16.5859 25.4785 16.5859C25.8301 16.5859 26.097 16.6868 26.2793 16.8887C26.4616 17.0905 26.5527 17.3379 26.5527 17.6309C26.5527 17.9238 26.4616 18.168 26.2793 18.3633C26.097 18.5586 25.8301 18.6562 25.4785 18.6562C25.127 18.6562 24.86 18.5586 24.6777 18.3633C24.502 18.168 24.4141 17.9238 24.4141 17.6309ZM33.6523 31.1953C32.2201 31.1953 31.0547 30.7266 30.1562 29.7891C29.2578 28.8451 28.8086 27.5853 28.8086 26.0098V25.6777C28.8086 24.6296 29.0072 23.6953 29.4043 22.875C29.8079 22.0482 30.3678 21.4036 31.084 20.9414C31.8066 20.4727 32.5879 20.2383 33.4277 20.2383C34.8014 20.2383 35.8691 20.6908 36.6309 21.5957C37.3926 22.5007 37.7734 23.7962 37.7734 25.4824V26.2344H30.6152C30.6413 27.276 30.944 28.1191 31.5234 28.7637C32.1094 29.4017 32.8516 29.7207 33.75 29.7207C34.388 29.7207 34.9284 29.5905 35.3711 29.3301C35.8138 29.0697 36.2012 28.7246 36.5332 28.2949L37.6367 29.1543C36.7513 30.515 35.4232 31.1953 33.6523 31.1953ZM33.4277 21.7227C32.6986 21.7227 32.0866 21.9896 31.5918 22.5234C31.097 23.0508 30.791 23.793 30.6738 24.75H35.9668V24.6133C35.9147 23.6953 35.6673 22.9857 35.2246 22.4844C34.7819 21.9766 34.1829 21.7227 33.4277 21.7227ZM49.2285 28.5098L51.2598 20.4336H53.0664L49.9902 31H48.5254L45.957 22.9922L43.457 31H41.9922L38.9258 20.4336H40.7227L42.8027 28.3438L45.2637 20.4336H46.7188L49.2285 28.5098ZM60.1562 31V16.7812H64.1699C65.4069 16.7812 66.5007 17.0547 67.4512 17.6016C68.4017 18.1484 69.1341 18.9264 69.6484 19.9355C70.1693 20.9447 70.4329 22.1035 70.4395 23.4121V24.3203C70.4395 25.6615 70.179 26.8366 69.6582 27.8457C69.1439 28.8548 68.4049 29.6296 67.4414 30.1699C66.4844 30.7103 65.3678 30.987 64.0918 31H60.1562ZM62.0312 18.3242V29.4668H64.0039C65.4492 29.4668 66.5723 29.0176 67.373 28.1191C68.1803 27.2207 68.584 25.9414 68.584 24.2812V23.4512C68.584 21.8366 68.2031 20.5833 67.4414 19.6914C66.6862 18.793 65.612 18.3372 64.2188 18.3242H62.0312ZM77.3828 31.1953C75.9505 31.1953 74.7852 30.7266 73.8867 29.7891C72.9883 28.8451 72.5391 27.5853 72.5391 26.0098V25.6777C72.5391 24.6296 72.7376 23.6953 73.1348 22.875C73.5384 22.0482 74.0983 21.4036 74.8145 20.9414C75.5371 20.4727 76.3184 20.2383 77.1582 20.2383C78.5319 20.2383 79.5996 20.6908 80.3613 21.5957C81.123 22.5007 81.5039 23.7962 81.5039 25.4824V26.2344H74.3457C74.3717 27.276 74.6745 28.1191 75.2539 28.7637C75.8398 29.4017 76.582 29.7207 77.4805 29.7207C78.1185 29.7207 78.6589 29.5905 79.1016 29.3301C79.5443 29.0697 79.9316 28.7246 80.2637 28.2949L81.3672 29.1543C80.4818 30.515 79.1536 31.1953 77.3828 31.1953ZM77.1582 21.7227C76.429 21.7227 75.8171 21.9896 75.3223 22.5234C74.8275 23.0508 74.5215 23.793 74.4043 24.75H79.6973V24.6133C79.6452 23.6953 79.3978 22.9857 78.9551 22.4844C78.5124 21.9766 77.9134 21.7227 77.1582 21.7227ZM86.0547 17.875V20.4336H88.0273V21.8301H86.0547V28.3828C86.0547 28.806 86.1426 29.125 86.3184 29.3398C86.4941 29.5482 86.7936 29.6523 87.2168 29.6523C87.4251 29.6523 87.7116 29.6133 88.0762 29.5352V31C87.6009 31.1302 87.1387 31.1953 86.6895 31.1953C85.8822 31.1953 85.2734 30.9512 84.8633 30.4629C84.4531 29.9746 84.248 29.2812 84.248 28.3828V21.8301H82.3242V20.4336H84.248V17.875H86.0547ZM96.6699 31C96.5658 30.7917 96.4811 30.4206 96.416 29.8867C95.5762 30.7591 94.5736 31.1953 93.4082 31.1953C92.3665 31.1953 91.5104 30.9023 90.8398 30.3164C90.1758 29.724 89.8438 28.9753 89.8438 28.0703C89.8438 26.9701 90.2604 26.1172 91.0938 25.5117C91.9336 24.8997 93.112 24.5938 94.6289 24.5938H96.3867V23.7637C96.3867 23.1322 96.1979 22.6309 95.8203 22.2598C95.4427 21.8822 94.8861 21.6934 94.1504 21.6934C93.5059 21.6934 92.9655 21.8561 92.5293 22.1816C92.0931 22.5072 91.875 22.901 91.875 23.3633H90.0586C90.0586 22.8359 90.2441 22.3281 90.6152 21.8398C90.9928 21.3451 91.5007 20.9544 92.1387 20.668C92.7832 20.3815 93.4896 20.2383 94.2578 20.2383C95.4753 20.2383 96.429 20.5443 97.1191 21.1562C97.8092 21.7617 98.1673 22.5983 98.1934 23.666V28.5293C98.1934 29.4993 98.3171 30.2708 98.5645 30.8438V31H96.6699ZM93.6719 29.623C94.2383 29.623 94.7754 29.4766 95.2832 29.1836C95.791 28.8906 96.1589 28.5098 96.3867 28.041V25.873H94.9707C92.7572 25.873 91.6504 26.5208 91.6504 27.8164C91.6504 28.3828 91.8392 28.8255 92.2168 29.1445C92.5944 29.4635 93.0794 29.623 93.6719 29.623ZM102.988 31H101.182V20.4336H102.988V31ZM101.035 17.6309C101.035 17.3379 101.123 17.0905 101.299 16.8887C101.481 16.6868 101.748 16.5859 102.1 16.5859C102.451 16.5859 102.718 16.6868 102.9 16.8887C103.083 17.0905 103.174 17.3379 103.174 17.6309C103.174 17.9238 103.083 18.168 102.9 18.3633C102.718 18.5586 102.451 18.6562 102.1 18.6562C101.748 18.6562 101.481 18.5586 101.299 18.3633C101.123 18.168 101.035 17.9238 101.035 17.6309ZM107.852 31H106.045V16H107.852V31ZM116.904 28.1973C116.904 27.709 116.719 27.3314 116.348 27.0645C115.983 26.791 115.342 26.5566 114.424 26.3613C113.512 26.166 112.786 25.9316 112.246 25.6582C111.712 25.3848 111.315 25.0592 111.055 24.6816C110.801 24.304 110.674 23.8548 110.674 23.334C110.674 22.4681 111.038 21.7357 111.768 21.1367C112.503 20.5378 113.441 20.2383 114.58 20.2383C115.778 20.2383 116.748 20.5475 117.49 21.166C118.239 21.7845 118.613 22.5755 118.613 23.5391H116.797C116.797 23.0443 116.585 22.6178 116.162 22.2598C115.745 21.9017 115.218 21.7227 114.58 21.7227C113.923 21.7227 113.408 21.8659 113.037 22.1523C112.666 22.4388 112.48 22.8132 112.48 23.2754C112.48 23.7116 112.653 24.0404 112.998 24.2617C113.343 24.4831 113.965 24.6947 114.863 24.8965C115.768 25.0983 116.501 25.3392 117.061 25.6191C117.62 25.8991 118.034 26.2376 118.301 26.6348C118.574 27.0254 118.711 27.5039 118.711 28.0703C118.711 29.0143 118.333 29.7728 117.578 30.3457C116.823 30.9121 115.843 31.1953 114.639 31.1953C113.792 31.1953 113.044 31.0456 112.393 30.7461C111.742 30.4466 111.23 30.0299 110.859 29.4961C110.495 28.9557 110.312 28.373 110.312 27.748H112.119C112.152 28.3535 112.393 28.8353 112.842 29.1934C113.298 29.5449 113.896 29.7207 114.639 29.7207C115.322 29.7207 115.869 29.584 116.279 29.3105C116.696 29.0306 116.904 28.6595 116.904 28.1973Z" fill="white"/>
</svg>
