<svg width="97" height="34" viewBox="0 0 97 34" fill="none" xmlns="http://www.w3.org/2000/svg">
<rect width="97" height="34" fill="white"/>
<path d="M19.6953 26H18.2422V16.3672L15.3281 17.4375V16.125L19.4688 14.5703H19.6953V26ZM27.6953 21.7031C27.6953 20.4062 28.0026 19.3646 28.6172 18.5781C29.2318 17.7865 30.0365 17.3906 31.0312 17.3906C32.0208 17.3906 32.8047 17.7292 33.3828 18.4062V14H34.8281V26H33.5L33.4297 25.0938C32.8516 25.8021 32.0469 26.1562 31.0156 26.1562C30.0365 26.1562 29.237 25.7552 28.6172 24.9531C28.0026 24.151 27.6953 23.1042 27.6953 21.8125V21.7031ZM29.1406 21.8672C29.1406 22.8255 29.3385 23.5755 29.7344 24.1172C30.1302 24.6589 30.6771 24.9297 31.375 24.9297C32.2917 24.9297 32.9609 24.5182 33.3828 23.6953V19.8125C32.9505 19.0156 32.2865 18.6172 31.3906 18.6172C30.6823 18.6172 30.1302 18.8906 29.7344 19.4375C29.3385 19.9844 29.1406 20.7943 29.1406 21.8672ZM42.2969 26C42.2135 25.8333 42.1458 25.5365 42.0938 25.1094C41.4219 25.8073 40.6198 26.1562 39.6875 26.1562C38.8542 26.1562 38.1693 25.9219 37.6328 25.4531C37.1016 24.9792 36.8359 24.3802 36.8359 23.6562C36.8359 22.776 37.1693 22.0938 37.8359 21.6094C38.5078 21.1198 39.4505 20.875 40.6641 20.875H42.0703V20.2109C42.0703 19.7057 41.9193 19.3047 41.6172 19.0078C41.3151 18.7057 40.8698 18.5547 40.2812 18.5547C39.7656 18.5547 39.3333 18.6849 38.9844 18.9453C38.6354 19.2057 38.4609 19.5208 38.4609 19.8906H37.0078C37.0078 19.4688 37.1562 19.0625 37.4531 18.6719C37.7552 18.276 38.1615 17.9635 38.6719 17.7344C39.1875 17.5052 39.7526 17.3906 40.3672 17.3906C41.3411 17.3906 42.1042 17.6354 42.6562 18.125C43.2083 18.6094 43.4948 19.2786 43.5156 20.1328V24.0234C43.5156 24.7995 43.6146 25.4167 43.8125 25.875V26H42.2969ZM39.8984 24.8984C40.3516 24.8984 40.7812 24.7812 41.1875 24.5469C41.5938 24.3125 41.888 24.0078 42.0703 23.6328V21.8984H40.9375C39.1667 21.8984 38.2812 22.4167 38.2812 23.4531C38.2812 23.9062 38.4323 24.2604 38.7344 24.5156C39.0365 24.7708 39.4245 24.8984 39.8984 24.8984ZM48.4219 23.8828L50.3906 17.5469H51.9375L48.5391 27.3047C48.013 28.7109 47.1771 29.4141 46.0312 29.4141L45.7578 29.3906L45.2188 29.2891V28.1172L45.6094 28.1484C46.099 28.1484 46.4792 28.0495 46.75 27.8516C47.026 27.6536 47.2526 27.2917 47.4297 26.7656L47.75 25.9062L44.7344 17.5469H46.3125L48.4219 23.8828Z" fill="black"/>
</svg>
