<svg width="46" height="45" viewBox="0 0 46 45" fill="none" xmlns="http://www.w3.org/2000/svg">
<rect y="-1" width="46" height="46" fill="white"/>
<path d="M18.6953 28H17.2422V18.3672L14.3281 19.4375V18.125L18.4688 16.5703H18.6953V28ZM23.3047 28V16.625H26.5156C27.5052 16.625 28.3802 16.8438 29.1406 17.2812C29.901 17.7188 30.487 18.3411 30.8984 19.1484C31.3151 19.9557 31.526 20.8828 31.5312 21.9297V22.6562C31.5312 23.7292 31.3229 24.6693 30.9062 25.4766C30.4948 26.2839 29.9036 26.9036 29.1328 27.3359C28.3672 27.7682 27.474 27.9896 26.4531 28H23.3047ZM24.8047 17.8594V26.7734H26.3828C27.5391 26.7734 28.4375 26.4141 29.0781 25.6953C29.724 24.9766 30.0469 23.9531 30.0469 22.625V21.9609C30.0469 20.6693 29.7422 19.6667 29.1328 18.9531C28.5286 18.2344 27.6693 17.8698 26.5547 17.8594H24.8047Z" fill="black"/>
</svg>
