<svg width="97" height="34" viewBox="0 0 97 34" fill="none" xmlns="http://www.w3.org/2000/svg">
<rect width="97" height="34" fill="white"/>
<path d="M19.6953 26H18.2422V16.3672L15.3281 17.4375V16.125L19.4688 14.5703H19.6953V26ZM29.4922 18.5703C30.1328 17.7839 30.9661 17.3906 31.9922 17.3906C33.7786 17.3906 34.6797 18.3984 34.6953 20.4141V26H33.25V20.4062C33.2448 19.7969 33.1042 19.3464 32.8281 19.0547C32.5573 18.763 32.1328 18.6172 31.5547 18.6172C31.0859 18.6172 30.6745 18.7422 30.3203 18.9922C29.9661 19.2422 29.6901 19.5703 29.4922 19.9766V26H28.0469V14H29.4922V18.5703ZM36.4766 21.6953C36.4766 20.8672 36.638 20.1224 36.9609 19.4609C37.2891 18.7995 37.7422 18.2891 38.3203 17.9297C38.9036 17.5703 39.5677 17.3906 40.3125 17.3906C41.4635 17.3906 42.3932 17.7891 43.1016 18.5859C43.8151 19.3828 44.1719 20.4427 44.1719 21.7656V21.8672C44.1719 22.6901 44.013 23.4297 43.6953 24.0859C43.3828 24.737 42.9323 25.2448 42.3438 25.6094C41.7604 25.974 41.0885 26.1562 40.3281 26.1562C39.1823 26.1562 38.2526 25.7578 37.5391 24.9609C36.8307 24.1641 36.4766 23.1094 36.4766 21.7969V21.6953ZM37.9297 21.8672C37.9297 22.8047 38.1458 23.5573 38.5781 24.125C39.0156 24.6927 39.599 24.9766 40.3281 24.9766C41.0625 24.9766 41.6458 24.6901 42.0781 24.1172C42.5104 23.5391 42.7266 22.7318 42.7266 21.6953C42.7266 20.7682 42.5052 20.0182 42.0625 19.4453C41.625 18.8672 41.0417 18.5781 40.3125 18.5781C39.599 18.5781 39.0234 18.862 38.5859 19.4297C38.1484 19.9974 37.9297 20.8099 37.9297 21.8672ZM51.2031 25.1641C50.6406 25.8255 49.8151 26.1562 48.7266 26.1562C47.8255 26.1562 47.138 25.8958 46.6641 25.375C46.1953 24.849 45.9583 24.0729 45.9531 23.0469V17.5469H47.3984V23.0078C47.3984 24.2891 47.9193 24.9297 48.9609 24.9297C50.0651 24.9297 50.7995 24.5182 51.1641 23.6953V17.5469H52.6094V26H51.2344L51.2031 25.1641ZM58.8984 18.8438C58.6797 18.8073 58.4427 18.7891 58.1875 18.7891C57.2396 18.7891 56.5964 19.1927 56.2578 20V26H54.8125V17.5469H56.2188L56.2422 18.5234C56.7161 17.7682 57.388 17.3906 58.2578 17.3906C58.5391 17.3906 58.7526 17.4271 58.8984 17.5V18.8438Z" fill="black"/>
</svg>
