<svg width="97" height="34" viewBox="0 0 97 34" fill="none" xmlns="http://www.w3.org/2000/svg">
<rect width="97" height="34" fill="white"/>
<path d="M19.6953 26H18.2422V16.3672L15.3281 17.4375V16.125L19.4688 14.5703H19.6953V26ZM29.4062 17.5469L29.4453 18.4844C30.0651 17.7552 30.901 17.3906 31.9531 17.3906C33.1354 17.3906 33.9401 17.8438 34.3672 18.75C34.6484 18.3438 35.013 18.0156 35.4609 17.7656C35.9141 17.5156 36.4479 17.3906 37.0625 17.3906C38.9167 17.3906 39.8594 18.3724 39.8906 20.3359V26H38.4453V20.4219C38.4453 19.8177 38.3073 19.3672 38.0312 19.0703C37.7552 18.7682 37.2917 18.6172 36.6406 18.6172C36.1042 18.6172 35.6589 18.7786 35.3047 19.1016C34.9505 19.4193 34.7448 19.849 34.6875 20.3906V26H33.2344V20.4609C33.2344 19.2318 32.6328 18.6172 31.4297 18.6172C30.4818 18.6172 29.8333 19.0208 29.4844 19.8281V26H28.0391V17.5469H29.4062ZM41.6953 21.6953C41.6953 20.8672 41.8568 20.1224 42.1797 19.4609C42.5078 18.7995 42.9609 18.2891 43.5391 17.9297C44.1224 17.5703 44.7865 17.3906 45.5312 17.3906C46.6823 17.3906 47.612 17.7891 48.3203 18.5859C49.0339 19.3828 49.3906 20.4427 49.3906 21.7656V21.8672C49.3906 22.6901 49.2318 23.4297 48.9141 24.0859C48.6016 24.737 48.151 25.2448 47.5625 25.6094C46.9792 25.974 46.3073 26.1562 45.5469 26.1562C44.401 26.1562 43.4714 25.7578 42.7578 24.9609C42.0495 24.1641 41.6953 23.1094 41.6953 21.7969V21.6953ZM43.1484 21.8672C43.1484 22.8047 43.3646 23.5573 43.7969 24.125C44.2344 24.6927 44.8177 24.9766 45.5469 24.9766C46.2812 24.9766 46.8646 24.6901 47.2969 24.1172C47.7292 23.5391 47.9453 22.7318 47.9453 21.6953C47.9453 20.7682 47.724 20.0182 47.2812 19.4453C46.8438 18.8672 46.2604 18.5781 45.5312 18.5781C44.8177 18.5781 44.2422 18.862 43.8047 19.4297C43.3672 19.9974 43.1484 20.8099 43.1484 21.8672ZM52.5703 17.5469L52.6172 18.6094C53.263 17.7969 54.1068 17.3906 55.1484 17.3906C56.9349 17.3906 57.8359 18.3984 57.8516 20.4141V26H56.4062V20.4062C56.401 19.7969 56.2604 19.3464 55.9844 19.0547C55.7135 18.763 55.2891 18.6172 54.7109 18.6172C54.2422 18.6172 53.8307 18.7422 53.4766 18.9922C53.1224 19.2422 52.8464 19.5703 52.6484 19.9766V26H51.2031V17.5469H52.5703ZM61.9922 15.5V17.5469H63.5703V18.6641H61.9922V23.9062C61.9922 24.2448 62.0625 24.5 62.2031 24.6719C62.3438 24.8385 62.5833 24.9219 62.9219 24.9219C63.0885 24.9219 63.3177 24.8906 63.6094 24.8281V26C63.2292 26.1042 62.8594 26.1562 62.5 26.1562C61.8542 26.1562 61.3672 25.9609 61.0391 25.5703C60.7109 25.1797 60.5469 24.625 60.5469 23.9062V18.6641H59.0078V17.5469H60.5469V15.5H61.9922ZM66.7109 18.5703C67.3516 17.7839 68.1849 17.3906 69.2109 17.3906C70.9974 17.3906 71.8984 18.3984 71.9141 20.4141V26H70.4688V20.4062C70.4635 19.7969 70.3229 19.3464 70.0469 19.0547C69.776 18.763 69.3516 18.6172 68.7734 18.6172C68.3047 18.6172 67.8932 18.7422 67.5391 18.9922C67.1849 19.2422 66.9089 19.5703 66.7109 19.9766V26H65.2656V14H66.7109V18.5703Z" fill="black"/>
</svg>
