<svg width="97" height="34" viewBox="0 0 97 34" fill="none" xmlns="http://www.w3.org/2000/svg">
<rect width="97" height="34" fill="white"/>
<path d="M19.6953 26H18.2422V16.3672L15.3281 17.4375V16.125L19.4688 14.5703H19.6953V26ZM35.5312 24.0078L37.1562 17.5469H38.6016L36.1406 26H34.9688L32.9141 19.5938L30.9141 26H29.7422L27.2891 17.5469H28.7266L30.3906 23.875L32.3594 17.5469H33.5234L35.5312 24.0078ZM43.5859 26.1562C42.4401 26.1562 41.5078 25.7812 40.7891 25.0312C40.0703 24.276 39.7109 23.2682 39.7109 22.0078V21.7422C39.7109 20.9036 39.8698 20.1562 40.1875 19.5C40.5104 18.8385 40.9583 18.3229 41.5312 17.9531C42.1094 17.5781 42.7344 17.3906 43.4062 17.3906C44.5052 17.3906 45.3594 17.7526 45.9688 18.4766C46.5781 19.2005 46.8828 20.237 46.8828 21.5859V22.1875H41.1562C41.1771 23.0208 41.4193 23.6953 41.8828 24.2109C42.3516 24.7214 42.9453 24.9766 43.6641 24.9766C44.1745 24.9766 44.6068 24.8724 44.9609 24.6641C45.3151 24.4557 45.625 24.1797 45.8906 23.8359L46.7734 24.5234C46.0651 25.612 45.0026 26.1562 43.5859 26.1562ZM43.4062 18.5781C42.8229 18.5781 42.3333 18.7917 41.9375 19.2188C41.5417 19.6406 41.2969 20.2344 41.2031 21H45.4375V20.8906C45.3958 20.1562 45.1979 19.5885 44.8438 19.1875C44.4896 18.7812 44.0104 18.5781 43.4062 18.5781ZM52.0703 26.1562C50.9245 26.1562 49.9922 25.7812 49.2734 25.0312C48.5547 24.276 48.1953 23.2682 48.1953 22.0078V21.7422C48.1953 20.9036 48.3542 20.1562 48.6719 19.5C48.9948 18.8385 49.4427 18.3229 50.0156 17.9531C50.5938 17.5781 51.2188 17.3906 51.8906 17.3906C52.9896 17.3906 53.8438 17.7526 54.4531 18.4766C55.0625 19.2005 55.3672 20.237 55.3672 21.5859V22.1875H49.6406C49.6615 23.0208 49.9036 23.6953 50.3672 24.2109C50.8359 24.7214 51.4297 24.9766 52.1484 24.9766C52.6589 24.9766 53.0911 24.8724 53.4453 24.6641C53.7995 24.4557 54.1094 24.1797 54.375 23.8359L55.2578 24.5234C54.5495 25.612 53.487 26.1562 52.0703 26.1562ZM51.8906 18.5781C51.3073 18.5781 50.8177 18.7917 50.4219 19.2188C50.026 19.6406 49.7812 20.2344 49.6875 21H53.9219V20.8906C53.8802 20.1562 53.6823 19.5885 53.3281 19.1875C52.974 18.7812 52.4948 18.5781 51.8906 18.5781ZM59.4062 22.0859L58.5 23.0312V26H57.0547V14H58.5V21.2578L59.2734 20.3281L61.9062 17.5469H63.6641L60.375 21.0781L64.0469 26H62.3516L59.4062 22.0859Z" fill="black"/>
</svg>
