<svg width="97" height="34" viewBox="0 0 97 34" fill="none" xmlns="http://www.w3.org/2000/svg">
<rect width="97" height="34" fill="white"/>
<path d="M22.3984 26H14.9453V24.9609L18.8828 20.5859C19.4661 19.9245 19.8672 19.388 20.0859 18.9766C20.3099 18.5599 20.4219 18.1302 20.4219 17.6875C20.4219 17.0938 20.2422 16.6068 19.8828 16.2266C19.5234 15.8464 19.0443 15.6562 18.4453 15.6562C17.7266 15.6562 17.1667 15.862 16.7656 16.2734C16.3698 16.6797 16.1719 17.2474 16.1719 17.9766H14.7266C14.7266 16.9297 15.0625 16.0833 15.7344 15.4375C16.4115 14.7917 17.3151 14.4688 18.4453 14.4688C19.5026 14.4688 20.3385 14.7474 20.9531 15.3047C21.5677 15.8568 21.875 16.5938 21.875 17.5156C21.875 18.6354 21.1615 19.9688 19.7344 21.5156L16.6875 24.8203H22.3984V26ZM29.4922 18.5703C30.1328 17.7839 30.9661 17.3906 31.9922 17.3906C33.7786 17.3906 34.6797 18.3984 34.6953 20.4141V26H33.25V20.4062C33.2448 19.7969 33.1042 19.3464 32.8281 19.0547C32.5573 18.763 32.1328 18.6172 31.5547 18.6172C31.0859 18.6172 30.6745 18.7422 30.3203 18.9922C29.9661 19.2422 29.6901 19.5703 29.4922 19.9766V26H28.0469V14H29.4922V18.5703ZM36.4766 21.6953C36.4766 20.8672 36.638 20.1224 36.9609 19.4609C37.2891 18.7995 37.7422 18.2891 38.3203 17.9297C38.9036 17.5703 39.5677 17.3906 40.3125 17.3906C41.4635 17.3906 42.3932 17.7891 43.1016 18.5859C43.8151 19.3828 44.1719 20.4427 44.1719 21.7656V21.8672C44.1719 22.6901 44.013 23.4297 43.6953 24.0859C43.3828 24.737 42.9323 25.2448 42.3438 25.6094C41.7604 25.974 41.0885 26.1562 40.3281 26.1562C39.1823 26.1562 38.2526 25.7578 37.5391 24.9609C36.8307 24.1641 36.4766 23.1094 36.4766 21.7969V21.6953ZM37.9297 21.8672C37.9297 22.8047 38.1458 23.5573 38.5781 24.125C39.0156 24.6927 39.599 24.9766 40.3281 24.9766C41.0625 24.9766 41.6458 24.6901 42.0781 24.1172C42.5104 23.5391 42.7266 22.7318 42.7266 21.6953C42.7266 20.7682 42.5052 20.0182 42.0625 19.4453C41.625 18.8672 41.0417 18.5781 40.3125 18.5781C39.599 18.5781 39.0234 18.862 38.5859 19.4297C38.1484 19.9974 37.9297 20.8099 37.9297 21.8672ZM51.2031 25.1641C50.6406 25.8255 49.8151 26.1562 48.7266 26.1562C47.8255 26.1562 47.138 25.8958 46.6641 25.375C46.1953 24.849 45.9583 24.0729 45.9531 23.0469V17.5469H47.3984V23.0078C47.3984 24.2891 47.9193 24.9297 48.9609 24.9297C50.0651 24.9297 50.7995 24.5182 51.1641 23.6953V17.5469H52.6094V26H51.2344L51.2031 25.1641ZM58.8984 18.8438C58.6797 18.8073 58.4427 18.7891 58.1875 18.7891C57.2396 18.7891 56.5964 19.1927 56.2578 20V26H54.8125V17.5469H56.2188L56.2422 18.5234C56.7161 17.7682 57.388 17.3906 58.2578 17.3906C58.5391 17.3906 58.7526 17.4271 58.8984 17.5V18.8438ZM65.1562 23.7578C65.1562 23.3672 65.0078 23.0651 64.7109 22.8516C64.4193 22.6328 63.9062 22.4453 63.1719 22.2891C62.4427 22.1328 61.862 21.9453 61.4297 21.7266C61.0026 21.5078 60.6849 21.2474 60.4766 20.9453C60.2734 20.6432 60.1719 20.2839 60.1719 19.8672C60.1719 19.1745 60.4635 18.5885 61.0469 18.1094C61.6354 17.6302 62.3854 17.3906 63.2969 17.3906C64.2552 17.3906 65.0312 17.638 65.625 18.1328C66.224 18.6276 66.5234 19.2604 66.5234 20.0312H65.0703C65.0703 19.6354 64.901 19.2943 64.5625 19.0078C64.2292 18.7214 63.8073 18.5781 63.2969 18.5781C62.7708 18.5781 62.3594 18.6927 62.0625 18.9219C61.7656 19.151 61.6172 19.4505 61.6172 19.8203C61.6172 20.1693 61.7552 20.4323 62.0312 20.6094C62.3073 20.7865 62.8047 20.9557 63.5234 21.1172C64.2474 21.2786 64.8333 21.4714 65.2812 21.6953C65.7292 21.9193 66.0599 22.1901 66.2734 22.5078C66.4922 22.8203 66.6016 23.2031 66.6016 23.6562C66.6016 24.4115 66.2995 25.0182 65.6953 25.4766C65.0911 25.9297 64.3073 26.1562 63.3438 26.1562C62.6667 26.1562 62.0677 26.0365 61.5469 25.7969C61.026 25.5573 60.6172 25.224 60.3203 24.7969C60.0286 24.3646 59.8828 23.8984 59.8828 23.3984H61.3281C61.3542 23.8828 61.5469 24.2682 61.9062 24.5547C62.2708 24.8359 62.75 24.9766 63.3438 24.9766C63.8906 24.9766 64.3281 24.8672 64.6562 24.6484C64.9896 24.4245 65.1562 24.1276 65.1562 23.7578Z" fill="black"/>
</svg>
