<svg width="46" height="46" viewBox="0 0 46 46" fill="none" xmlns="http://www.w3.org/2000/svg">
<rect width="46" height="46" fill="white"/>
<path d="M21.3984 29H13.9453V27.9609L17.8828 23.5859C18.4661 22.9245 18.8672 22.388 19.0859 21.9766C19.3099 21.5599 19.4219 21.1302 19.4219 20.6875C19.4219 20.0938 19.2422 19.6068 18.8828 19.2266C18.5234 18.8464 18.0443 18.6562 17.4453 18.6562C16.7266 18.6562 16.1667 18.862 15.7656 19.2734C15.3698 19.6797 15.1719 20.2474 15.1719 20.9766H13.7266C13.7266 19.9297 14.0625 19.0833 14.7344 18.4375C15.4115 17.7917 16.3151 17.4688 17.4453 17.4688C18.5026 17.4688 19.3385 17.7474 19.9531 18.3047C20.5677 18.8568 20.875 19.5938 20.875 20.5156C20.875 21.6354 20.1615 22.9688 18.7344 24.5156L15.6875 27.8203H21.3984V29ZM32.0469 29H30.5391V23.7422H24.8047V29H23.3047V17.625H24.8047V22.5156H30.5391V17.625H32.0469V29Z" fill="black"/>
</svg>
