<svg width="46" height="46" viewBox="0 0 46 46" fill="none" xmlns="http://www.w3.org/2000/svg">
<rect width="46" height="46" fill="white"/>
<path d="M16.0469 22.6094H17.1328C17.8151 22.599 18.3516 22.4193 18.7422 22.0703C19.1328 21.7214 19.3281 21.25 19.3281 20.6562C19.3281 19.3229 18.6641 18.6562 17.3359 18.6562C16.7109 18.6562 16.2109 18.8359 15.8359 19.1953C15.4661 19.5495 15.2812 20.0208 15.2812 20.6094H13.8359C13.8359 19.7083 14.1641 18.9609 14.8203 18.3672C15.4818 17.7682 16.3203 17.4688 17.3359 17.4688C18.4089 17.4688 19.25 17.7526 19.8594 18.3203C20.4688 18.888 20.7734 19.6771 20.7734 20.6875C20.7734 21.1823 20.612 21.6615 20.2891 22.125C19.9714 22.5885 19.5365 22.9349 18.9844 23.1641C19.6094 23.362 20.0911 23.6901 20.4297 24.1484C20.7734 24.6068 20.9453 25.1667 20.9453 25.8281C20.9453 26.849 20.612 27.6589 19.9453 28.2578C19.2786 28.8568 18.4115 29.1562 17.3438 29.1562C16.276 29.1562 15.4062 28.8672 14.7344 28.2891C14.0677 27.7109 13.7344 26.9479 13.7344 26H15.1875C15.1875 26.599 15.3828 27.0781 15.7734 27.4375C16.1641 27.7969 16.6875 27.9766 17.3438 27.9766C18.0417 27.9766 18.5755 27.7943 18.9453 27.4297C19.3151 27.0651 19.5 26.5417 19.5 25.8594C19.5 25.1979 19.2969 24.6901 18.8906 24.3359C18.4844 23.9818 17.8984 23.7995 17.1328 23.7891H16.0469V22.6094ZM32.0469 29H30.5391V23.7422H24.8047V29H23.3047V17.625H24.8047V22.5156H30.5391V17.625H32.0469V29Z" fill="black"/>
</svg>
