<svg width="40" height="30" viewBox="0 0 40 30" fill="none" xmlns="http://www.w3.org/2000/svg">
<rect width="40" height="30" rx="5" fill="white"/>
<path d="M19.7498 6C20.1295 6 20.4434 6.28201 20.4931 6.64808L20.5 6.74985L20.5012 14H27.7543C28.1685 14 28.5043 14.3358 28.5043 14.75C28.5043 15.1297 28.2221 15.4435 27.8561 15.4932L27.7543 15.5H20.5012L20.5032 22.7491C20.5033 23.1633 20.1676 23.4993 19.7534 23.4993C19.3737 23.4993 19.0598 23.2173 19.0101 22.8512L19.0032 22.7494L19.0012 15.5H11.7522C11.338 15.5 11.0022 15.1642 11.0022 14.75C11.0022 14.3703 11.2843 14.0565 11.6504 14.0068L11.7522 14H19.0012L19 6.75015C18.9999 6.33594 19.3356 6 19.7498 6Z" fill="#212121"/>
</svg>
