<svg width="16" height="16" viewBox="0 0 16 16" fill="none" xmlns="http://www.w3.org/2000/svg">
<path d="M7.8332 2C8.08633 2 8.2956 2.18801 8.32873 2.43205L8.33333 2.4999L8.33413 7.33333H13.1695C13.4457 7.33333 13.6695 7.5572 13.6695 7.83333C13.6695 8.08647 13.4814 8.29567 13.2374 8.3288L13.1695 8.33333H8.33413L8.33546 13.1661C8.33553 13.4422 8.11173 13.6662 7.8356 13.6662C7.58246 13.6662 7.3732 13.4782 7.34007 13.2341L7.33546 13.1663L7.33413 8.33333H2.50146C2.22532 8.33333 2.00146 8.10947 2.00146 7.83333C2.00146 7.5802 2.18956 7.371 2.43362 7.33787L2.50146 7.33333H7.33413L7.33333 2.5001C7.33326 2.22396 7.55706 2 7.8332 2Z" fill="black"/>
</svg>
