<svg width="46" height="46" viewBox="0 0 46 46" fill="none" xmlns="http://www.w3.org/2000/svg">
<rect width="46" height="46" fill="white"/>
<path d="M22.8572 29.5814L31.7243 20.7143H34.5815L39.7915 15.5057L38.7801 14.4943L33.9901 19.2857H31.1329L22.8572 27.5614L18.5715 23.2757L11.6372 30.2085L12.6486 31.22L18.5715 25.2957L22.8572 29.5814Z" fill="black"/>
<path d="M17.8574 27.8572H19.2859V29.2858H17.8574V27.8572ZM19.2859 29.2858H20.7145V30.7143H19.2859V29.2858ZM17.8574 30.7143H19.2859V32.1429H17.8574V30.7143ZM20.7145 30.7143H22.1431V32.1429H20.7145V30.7143ZM19.2859 32.1429H20.7145V33.5715H19.2859V32.1429ZM17.8574 33.5715H19.2859V35.0001H17.8574V33.5715ZM20.7145 33.5715H22.1431V35.0001H20.7145V33.5715ZM16.4288 29.2858H17.8574V30.7143H16.4288V29.2858ZM15.0002 30.7143H16.4288V32.1429H15.0002V30.7143ZM13.5716 32.1429H15.0002V33.5715H13.5716V32.1429ZM16.4288 32.1429H17.8574V33.5715H16.4288V32.1429ZM15.0002 33.5715H16.4288V35.0001H15.0002V33.5715ZM12.1431 33.5715H13.5716V35.0001H12.1431V33.5715ZM36.4288 20.7143H37.8574V22.1429H36.4288V20.7143ZM37.8574 19.2858H39.2859V20.7143H37.8574V19.2858ZM37.8574 22.1429H39.2859V23.5715H37.8574V22.1429ZM36.4288 23.5715H37.8574V25.0001H36.4288V23.5715ZM35.0002 25.0001H36.4288V26.4286H35.0002V25.0001ZM37.8574 25.0001H39.2859V26.4286H37.8574V25.0001ZM36.4288 26.4286H37.8574V27.8572H36.4288V26.4286ZM35.0002 27.8572H36.4288V29.2858H35.0002V27.8572ZM37.8574 27.8572H39.2859V29.2858H37.8574V27.8572ZM36.4288 29.2858H37.8574V30.7143H36.4288V29.2858ZM35.0002 30.7143H36.4288V32.1429H35.0002V30.7143ZM37.8574 30.7143H39.2859V32.1429H37.8574V30.7143ZM36.4288 32.1429H37.8574V33.5715H36.4288V32.1429ZM35.0002 33.5715H36.4288V35.0001H35.0002V33.5715ZM37.8574 33.5715H39.2859V35.0001H37.8574V33.5715ZM30.7145 23.5715H32.1431V25.0001H30.7145V23.5715ZM33.5716 23.5715H35.0002V25.0001H33.5716V23.5715ZM35.0002 22.1429H36.4288V23.5715H35.0002V22.1429ZM32.1431 25.0001H33.5716V26.4286H32.1431V25.0001ZM30.7145 26.4286H32.1431V27.8572H30.7145V26.4286ZM33.5716 26.4286H35.0002V27.8572H33.5716V26.4286ZM32.1431 27.8572H33.5716V29.2858H32.1431V27.8572ZM30.7145 29.2858H32.1431V30.7143H30.7145V29.2858ZM33.5716 29.2858H35.0002V30.7143H33.5716V29.2858ZM32.1431 30.7143H33.5716V32.1429H32.1431V30.7143ZM30.7145 32.1429H32.1431V33.5715H30.7145V32.1429ZM33.5716 32.1429H35.0002V33.5715H33.5716V32.1429ZM32.1431 33.5715H33.5716V35.0001H32.1431V33.5715ZM29.2859 25.0001H30.7145V26.4286H29.2859V25.0001ZM27.8574 26.4286H29.2859V27.8572H27.8574V26.4286ZM26.4288 27.8572H27.8574V29.2858H26.4288V27.8572ZM29.2859 27.8572H30.7145V29.2858H29.2859V27.8572ZM27.8574 29.2858H29.2859V30.7143H27.8574V29.2858ZM26.4288 30.7143H27.8574V32.1429H26.4288V30.7143ZM29.2859 30.7143H30.7145V32.1429H29.2859V30.7143ZM27.8574 32.1429H29.2859V33.5715H27.8574V32.1429ZM26.4288 33.5715H27.8574V35.0001H26.4288V33.5715ZM29.2859 33.5715H30.7145V35.0001H29.2859V33.5715ZM25.0002 29.2858H26.4288V30.7143H25.0002V29.2858ZM23.5716 30.7143H25.0002V32.1429H23.5716V30.7143ZM22.1431 32.1429H23.5716V33.5715H22.1431V32.1429ZM25.0002 32.1429H26.4288V33.5715H25.0002V32.1429ZM23.5716 33.5715H25.0002V35.0001H23.5716V33.5715Z" fill="black"/>
</svg>
