<svg width="170" height="34" viewBox="0 0 170 34" fill="none" xmlns="http://www.w3.org/2000/svg">
<rect width="170" height="34" fill="white"/>
<path d="M23.5 20.207L29.707 14H31.707L35.354 10.354L34.646 9.646L31.293 13H29.293L23.5 18.793L20.5 15.793L15.646 20.646L16.354 21.354L20.5 17.207L23.5 20.207Z" fill="black"/>
<path d="M20 19H21V20H20V19ZM21 20H22V21H21V20ZM20 21H21V22H20V21ZM22 21H23V22H22V21ZM21 22H22V23H21V22ZM20 23H21V24H20V23ZM22 23H23V24H22V23ZM19 20H20V21H19V20ZM18 21H19V22H18V21ZM17 22H18V23H17V22ZM19 22H20V23H19V22ZM18 23H19V24H18V23ZM16 23H17V24H16V23ZM33 14H34V15H33V14ZM34 13H35V14H34V13ZM34 15H35V16H34V15ZM33 16H34V17H33V16ZM32 17H33V18H32V17ZM34 17H35V18H34V17ZM33 18H34V19H33V18ZM32 19H33V20H32V19ZM34 19H35V20H34V19ZM33 20H34V21H33V20ZM32 21H33V22H32V21ZM34 21H35V22H34V21ZM33 22H34V23H33V22ZM32 23H33V24H32V23ZM34 23H35V24H34V23ZM29 16H30V17H29V16ZM31 16H32V17H31V16ZM32 15H33V16H32V15ZM30 17H31V18H30V17ZM29 18H30V19H29V18ZM31 18H32V19H31V18ZM30 19H31V20H30V19ZM29 20H30V21H29V20ZM31 20H32V21H31V20ZM30 21H31V22H30V21ZM29 22H30V23H29V22ZM31 22H32V23H31V22ZM30 23H31V24H30V23ZM28 17H29V18H28V17ZM27 18H28V19H27V18ZM26 19H27V20H26V19ZM28 19H29V20H28V19ZM27 20H28V21H27V20ZM26 21H27V22H26V21ZM28 21H29V22H28V21ZM27 22H28V23H27V22ZM26 23H27V24H26V23ZM28 23H29V24H28V23ZM25 20H26V21H25V20ZM24 21H25V22H24V21ZM23 22H24V23H23V22ZM25 22H26V23H25V22ZM24 23H25V24H24V23Z" fill="black"/>
<path d="M60.3125 23C60.2292 22.8333 60.1615 22.5365 60.1094 22.1094C59.4375 22.8073 58.6354 23.1562 57.7031 23.1562C56.8698 23.1562 56.1849 22.9219 55.6484 22.4531C55.1172 21.9792 54.8516 21.3802 54.8516 20.6562C54.8516 19.776 55.1849 19.0938 55.8516 18.6094C56.5234 18.1198 57.4661 17.875 58.6797 17.875H60.0859V17.2109C60.0859 16.7057 59.9349 16.3047 59.6328 16.0078C59.3307 15.7057 58.8854 15.5547 58.2969 15.5547C57.7812 15.5547 57.349 15.6849 57 15.9453C56.651 16.2057 56.4766 16.5208 56.4766 16.8906H55.0234C55.0234 16.4688 55.1719 16.0625 55.4688 15.6719C55.7708 15.276 56.1771 14.9635 56.6875 14.7344C57.2031 14.5052 57.7682 14.3906 58.3828 14.3906C59.3568 14.3906 60.1198 14.6354 60.6719 15.125C61.224 15.6094 61.5104 16.2786 61.5312 17.1328V21.0234C61.5312 21.7995 61.6302 22.4167 61.8281 22.875V23H60.3125ZM57.9141 21.8984C58.3672 21.8984 58.7969 21.7812 59.2031 21.5469C59.6094 21.3125 59.9036 21.0078 60.0859 20.6328V18.8984H58.9531C57.1823 18.8984 56.2969 19.4167 56.2969 20.4531C56.2969 20.9062 56.4479 21.2604 56.75 21.5156C57.0521 21.7708 57.4401 21.8984 57.9141 21.8984ZM67.8828 15.8438C67.6641 15.8073 67.4271 15.7891 67.1719 15.7891C66.224 15.7891 65.5807 16.1927 65.2422 17V23H63.7969V14.5469H65.2031L65.2266 15.5234C65.7005 14.7682 66.3724 14.3906 67.2422 14.3906C67.5234 14.3906 67.737 14.4271 67.8828 14.5V15.8438ZM72.5703 23.1562C71.4245 23.1562 70.4922 22.7812 69.7734 22.0312C69.0547 21.276 68.6953 20.2682 68.6953 19.0078V18.7422C68.6953 17.9036 68.8542 17.1562 69.1719 16.5C69.4948 15.8385 69.9427 15.3229 70.5156 14.9531C71.0938 14.5781 71.7188 14.3906 72.3906 14.3906C73.4896 14.3906 74.3438 14.7526 74.9531 15.4766C75.5625 16.2005 75.8672 17.237 75.8672 18.5859V19.1875H70.1406C70.1615 20.0208 70.4036 20.6953 70.8672 21.2109C71.3359 21.7214 71.9297 21.9766 72.6484 21.9766C73.1589 21.9766 73.5911 21.8724 73.9453 21.6641C74.2995 21.4557 74.6094 21.1797 74.875 20.8359L75.7578 21.5234C75.0495 22.612 73.987 23.1562 72.5703 23.1562ZM72.3906 15.5781C71.8073 15.5781 71.3177 15.7917 70.9219 16.2188C70.526 16.6406 70.2812 17.2344 70.1875 18H74.4219V17.8906C74.3802 17.1562 74.1823 16.5885 73.8281 16.1875C73.474 15.7812 72.9948 15.5781 72.3906 15.5781ZM82.7656 23C82.6823 22.8333 82.6146 22.5365 82.5625 22.1094C81.8906 22.8073 81.0885 23.1562 80.1562 23.1562C79.3229 23.1562 78.638 22.9219 78.1016 22.4531C77.5703 21.9792 77.3047 21.3802 77.3047 20.6562C77.3047 19.776 77.638 19.0938 78.3047 18.6094C78.9766 18.1198 79.9193 17.875 81.1328 17.875H82.5391V17.2109C82.5391 16.7057 82.388 16.3047 82.0859 16.0078C81.7839 15.7057 81.3385 15.5547 80.75 15.5547C80.2344 15.5547 79.8021 15.6849 79.4531 15.9453C79.1042 16.2057 78.9297 16.5208 78.9297 16.8906H77.4766C77.4766 16.4688 77.625 16.0625 77.9219 15.6719C78.224 15.276 78.6302 14.9635 79.1406 14.7344C79.6562 14.5052 80.2214 14.3906 80.8359 14.3906C81.8099 14.3906 82.5729 14.6354 83.125 15.125C83.6771 15.6094 83.9635 16.2786 83.9844 17.1328V21.0234C83.9844 21.7995 84.0833 22.4167 84.2812 22.875V23H82.7656ZM80.3672 21.8984C80.8203 21.8984 81.25 21.7812 81.6562 21.5469C82.0625 21.3125 82.3568 21.0078 82.5391 20.6328V18.8984H81.4062C79.6354 18.8984 78.75 19.4167 78.75 20.4531C78.75 20.9062 78.901 21.2604 79.2031 21.5156C79.5052 21.7708 79.8932 21.8984 80.3672 21.8984Z" fill="black"/>
</svg>
