<svg width="46" height="46" viewBox="0 0 46 46" fill="none" xmlns="http://www.w3.org/2000/svg">
<rect width="46" height="46" fill="white"/>
<path d="M21.5 26.207L27.707 20H29.707L33.354 16.354L32.646 15.646L29.293 19H27.293L21.5 24.793L18.5 21.793L13.646 26.646L14.354 27.354L18.5 23.207L21.5 26.207Z" fill="black"/>
<path d="M18 25H19V26H18V25ZM19 26H20V27H19V26ZM18 27H19V28H18V27ZM20 27H21V28H20V27ZM19 28H20V29H19V28ZM18 29H19V30H18V29ZM20 29H21V30H20V29ZM17 26H18V27H17V26ZM16 27H17V28H16V27ZM15 28H16V29H15V28ZM17 28H18V29H17V28ZM16 29H17V30H16V29ZM14 29H15V30H14V29ZM31 20H32V21H31V20ZM32 19H33V20H32V19ZM32 21H33V22H32V21ZM31 22H32V23H31V22ZM30 23H31V24H30V23ZM32 23H33V24H32V23ZM31 24H32V25H31V24ZM30 25H31V26H30V25ZM32 25H33V26H32V25ZM31 26H32V27H31V26ZM30 27H31V28H30V27ZM32 27H33V28H32V27ZM31 28H32V29H31V28ZM30 29H31V30H30V29ZM32 29H33V30H32V29ZM27 22H28V23H27V22ZM29 22H30V23H29V22ZM30 21H31V22H30V21ZM28 23H29V24H28V23ZM27 24H28V25H27V24ZM29 24H30V25H29V24ZM28 25H29V26H28V25ZM27 26H28V27H27V26ZM29 26H30V27H29V26ZM28 27H29V28H28V27ZM27 28H28V29H27V28ZM29 28H30V29H29V28ZM28 29H29V30H28V29ZM26 23H27V24H26V23ZM25 24H26V25H25V24ZM24 25H25V26H24V25ZM26 25H27V26H26V25ZM25 26H26V27H25V26ZM24 27H25V28H24V27ZM26 27H27V28H26V27ZM25 28H26V29H25V28ZM24 29H25V30H24V29ZM26 29H27V30H26V29ZM23 26H24V27H23V26ZM22 27H23V28H22V27ZM21 28H22V29H21V28ZM23 28H24V29H23V28ZM22 29H23V30H22V29Z" fill="black"/>
</svg>
