<svg width="1331" height="1198" viewBox="0 0 1331 1198" fill="none" xmlns="http://www.w3.org/2000/svg">
<g filter="url(#filter0_f)">
<path fill-rule="evenodd" clip-rule="evenodd" d="M261.638 883.54V883.54L261.748 883.092L261.851 882.646L261.949 882.201L262.041 881.758L262.128 881.316L262.21 880.874L262.287 880.433L262.361 879.992L262.432 879.551L262.499 879.11L262.565 878.669L262.629 878.227L262.691 877.784L262.754 877.341L262.816 876.897L262.879 876.452L262.943 876.007L263.008 875.56L263.074 875.112L263.141 874.663L263.208 874.212L263.276 873.759L263.343 873.305L263.409 872.848L263.473 872.388L263.535 871.925L263.595 871.458L263.65 870.988L263.702 870.513L263.748 870.032L263.789 869.546L263.823 869.054L263.851 868.555L263.872 868.048L263.886 867.534L263.892 867.01L263.891 866.478L263.882 865.935L263.866 865.383L263.843 864.819L263.814 864.245L263.779 863.659L263.739 863.061L263.695 862.452L263.648 861.831L263.599 861.197L263.55 860.552L263.503 859.896L263.457 859.228L263.416 858.55L263.381 857.861L263.353 857.163L263.334 856.456L263.326 855.742L263.331 855.02L263.351 854.292L263.387 853.559L263.44 852.823L263.513 852.084L263.607 851.344L263.723 850.604L263.863 849.866L264.028 849.131L264.22 848.401L264.439 847.678L264.686 846.962L264.962 846.255L265.269 845.56L265.605 844.877L265.973 844.208L266.371 843.554L266.801 842.918L267.262 842.3L267.754 841.702L268.278 841.125L268.831 840.57L269.415 840.039L270.028 839.533L270.669 839.052L271.338 838.598L272.034 838.171L272.755 837.772L273.501 837.402L274.27 837.062L275.06 836.75L275.871 836.469L276.701 836.218L277.548 835.996L278.41 835.805L279.287 835.643L280.176 835.51L281.076 835.405L281.985 835.329L282.901 835.279L283.823 835.256L284.749 835.257L285.677 835.282L286.606 835.329L287.535 835.398L288.461 835.485L289.385 835.59L290.304 835.711L291.217 835.846L292.123 835.993L293.021 836.149L293.911 836.313L294.792 836.483L295.664 836.657L296.525 836.832L297.376 837.008L298.217 837.182L299.048 837.352L299.869 837.518L300.681 837.677L301.483 837.829L302.276 837.973L303.062 838.106L303.84 838.229L304.611 838.34L305.376 838.438L306.136 838.525L306.892 838.598L307.645 838.657L308.396 838.703L309.145 838.736L309.893 838.756L310.642 838.763L311.392 838.758L312.144 838.74L312.899 838.712L313.657 838.674L314.42 838.626L315.187 838.571L315.959 838.508L316.737 838.441L317.521 838.369L318.31 838.294L319.106 838.219L319.907 838.144L320.714 838.072L321.526 838.004L322.344 837.943L323.165 837.889L323.99 837.844L324.818 837.811L325.648 837.791L326.479 837.786L327.309 837.798L328.137 837.827L328.962 837.877L329.783 837.947L330.598 838.041L331.406 838.157L332.204 838.299L332.991 838.466L333.766 838.66L334.527 838.881L335.272 839.13L336 839.408L336.709 839.713L337.398 840.047L338.064 840.41L338.707 840.8L339.326 841.219L339.919 841.664L340.484 842.136L341.022 842.633L341.531 843.155L342.011 843.701L342.461 844.268L342.88 844.857L343.269 845.466L343.627 846.092L343.954 846.735L344.251 847.393L344.517 848.065L344.754 848.748L344.962 849.441L345.142 850.142L345.294 850.85L345.42 851.563L345.521 852.278L345.599 852.995L345.655 853.712L345.69 854.427L345.706 855.138L345.705 855.845L345.689 856.545L345.66 857.237L345.619 857.921L345.569 858.594L345.512 859.257L345.449 859.907L345.383 860.544L345.316 861.168L345.25 861.778L345.187 862.372L345.129 862.952L345.078 863.515L345.036 864.063L345.004 864.595L344.984 865.112L344.977 865.613L344.986 866.098L345.012 866.568L345.055 867.024L345.117 867.465L345.199 867.893L345.302 868.308L345.428 868.71L345.575 869.1L345.746 869.48L345.941 869.849L346.161 870.21L346.404 870.562L346.673 870.906L346.966 871.244L347.284 871.577L347.626 871.905L347.992 872.229L348.381 872.551L348.794 872.872L349.228 873.192L349.684 873.513L350.161 873.835L350.656 874.159L351.17 874.487L351.7 874.819L352.247 875.156L352.807 875.499L353.38 875.848L353.964 876.205L354.557 876.569L355.159 876.942L355.767 877.323L356.38 877.714L356.997 878.115L357.615 878.526L358.233 878.948L358.85 879.38L359.464 879.823L360.073 880.277L360.677 880.742L361.275 881.218L361.864 881.705L362.444 882.204L363.014 882.713L363.573 883.232L364.12 883.763L364.654 884.303L365.175 884.854L365.682 885.415L366.174 885.986L366.652 886.566L367.115 887.156L367.562 887.754L367.993 888.361L368.408 888.977L368.807 889.601L369.189 890.233L369.554 890.872L369.903 891.52L370.234 892.174L370.548 892.835L370.844 893.502L371.122 894.176L371.382 894.856L371.622 895.541L371.843 896.232L372.042 896.927L372.22 897.625L372.376 898.328L372.507 899.033L372.614 899.74L372.693 900.448L372.745 901.156L372.766 901.863L372.756 902.568L372.713 903.269L372.635 903.966L372.521 904.658L372.37 905.341L372.181 906.017L371.952 906.683L371.684 907.337L371.376 907.979L371.028 908.607L370.639 909.22L370.209 909.817L369.739 910.397L369.229 910.958L368.68 911.499L368.092 912.02L367.468 912.52L366.808 912.998L366.113 913.454L365.386 913.886L364.627 914.296L363.84 914.682L363.026 915.044L362.187 915.384L361.326 915.7L360.445 915.993L359.546 916.265L358.633 916.515L357.707 916.745L356.772 916.955L355.83 917.148L354.883 917.323L353.934 917.483L352.986 917.629L352.041 917.763L351.101 917.886L350.168 918.001L349.245 918.109L348.333 918.212L347.435 918.312L346.551 918.411L345.683 918.511L344.833 918.614L344.001 918.723L343.188 918.838L342.395 918.963L341.622 919.098L340.87 919.246L340.138 919.408L339.426 919.586L338.734 919.78L338.062 919.994L337.408 920.226L336.771 920.48L336.151 920.754L335.547 921.051L334.956 921.37L334.378 921.711L333.811 922.075L333.253 922.462L332.702 922.871L332.157 923.302L331.616 923.753L331.077 924.225L330.537 924.715L329.996 925.223L329.451 925.746L328.9 926.283L328.341 926.832L327.774 927.391L327.196 927.959L326.606 928.533L326.003 929.112L325.387 929.693L324.756 930.275L324.109 930.857L323.446 931.436L322.766 932.011L322.07 932.581L321.356 933.144L320.625 933.699L319.877 934.245L319.112 934.78L318.33 935.305L317.531 935.817L316.715 936.317L315.884 936.802L315.036 937.272L314.173 937.725L313.295 938.162L312.403 938.58L311.497 938.98L310.577 939.359L309.645 939.716L308.702 940.052L307.748 940.365L306.783 940.654L305.81 940.919L304.829 941.158L303.84 941.372L302.845 941.559L301.846 941.719L300.842 941.851L299.836 941.955L298.828 942.031L297.82 942.078L296.812 942.097L295.806 942.086L294.803 942.047L293.805 941.979L292.811 941.882L291.824 941.756L290.844 941.602L289.873 941.421L288.911 941.212L287.959 940.977L287.019 940.715L286.091 940.428L285.175 940.117L284.273 939.781L283.385 939.423L282.512 939.043L281.654 938.643L280.811 938.222L279.984 937.783L279.174 937.326L278.379 936.853L277.601 936.364L276.839 935.861L276.093 935.346L275.364 934.818L274.65 934.28L273.952 933.731L273.27 933.174L272.603 932.61L271.95 932.038L271.312 931.46L270.689 930.878L270.079 930.29L269.482 929.699L268.899 929.105L268.328 928.508L267.77 927.909L267.224 927.307L266.69 926.705L266.167 926.101L265.657 925.495L265.157 924.889L264.669 924.283L264.192 923.675L263.726 923.067L263.271 922.459L262.827 921.849L262.396 921.239L261.976 920.627L261.568 920.014L261.174 919.399L260.794 918.782L260.427 918.162L260.076 917.54L259.741 916.915L259.421 916.287L259.119 915.656L258.833 915.022L258.564 914.386L258.312 913.747L258.078 913.106L257.861 912.463L257.661 911.819L257.479 911.173L257.314 910.527L257.166 909.879L257.034 909.232L256.92 908.585L256.823 907.938L256.741 907.292L256.676 906.647L256.626 906.003L256.592 905.362L256.572 904.722L256.568 904.085L256.578 903.451L256.601 902.82L256.638 902.193L256.688 901.569L256.751 900.949L256.826 900.334L256.912 899.722L257.009 899.116L257.116 898.514L257.234 897.918L257.36 897.327L257.495 896.741L257.638 896.162L257.788 895.588L257.945 895.02L258.107 894.458L258.274 893.902L258.445 893.353L258.619 892.809L258.796 892.272L258.975 891.742L259.154 891.217L259.334 890.699L259.514 890.186L259.692 889.68L259.868 889.179L260.042 888.684L260.212 888.195L260.379 887.71L260.541 887.231L260.698 886.756L260.85 886.286L260.997 885.82L261.138 885.358L261.272 884.899L261.401 884.443L261.523 883.991L261.638 883.54" fill="url(#paint0_linear)"/>
<path fill-rule="evenodd" clip-rule="evenodd" d="M251.035 646.717V646.717L251.004 646.091L251.009 645.465L251.05 644.839L251.127 644.216L251.239 643.594L251.384 642.976L251.564 642.362L251.776 641.753L252.02 641.149L252.294 640.552L252.596 639.961L252.925 639.378L253.28 638.803L253.659 638.235L254.059 637.676L254.479 637.126L254.917 636.584L255.371 636.051L255.839 635.527L256.319 635.011L256.808 634.504L257.306 634.005L257.811 633.513L258.319 633.029L258.831 632.552L259.344 632.081L259.856 631.616L260.367 631.156L260.875 630.701L261.38 630.25L261.879 629.802L262.372 629.357L262.86 628.915L263.34 628.473L263.814 628.033L264.28 627.593L264.739 627.153L265.19 626.712L265.634 626.27L266.071 625.827L266.501 625.381L266.924 624.933L267.341 624.483L267.753 624.03L268.159 623.573L268.561 623.113L268.96 622.65L269.355 622.183L269.749 621.713L270.141 621.24L270.532 620.762L270.924 620.282L271.318 619.799L271.713 619.313L272.111 618.824L272.513 618.333L272.92 617.84L273.332 617.346L273.751 616.851L274.177 616.355L274.61 615.86L275.052 615.365L275.504 614.871L275.965 614.379L276.436 613.889L276.918 613.402L277.412 612.918L277.917 612.439L278.435 611.964L278.965 611.494L279.508 611.031L280.063 610.574L280.632 610.125L281.213 609.683L281.808 609.25L282.416 608.825L283.037 608.41L283.672 608.006L284.319 607.611L284.978 607.228L285.65 606.857L286.335 606.498L287.031 606.15L287.738 605.816L288.457 605.495L289.186 605.186L289.926 604.892L290.675 604.611L291.433 604.344L292.2 604.091L292.976 603.852L293.759 603.627L294.549 603.416L295.346 603.22L296.149 603.038L296.957 602.871L297.771 602.718L298.589 602.579L299.412 602.455L300.238 602.345L301.067 602.25L301.899 602.169L302.733 602.103L303.569 602.052L304.406 602.015L305.243 601.993L306.081 601.986L306.918 601.993L307.755 602.016L308.59 602.053L309.424 602.105L310.255 602.172L311.084 602.255L311.909 602.352L312.731 602.465L313.548 602.593L314.36 602.736L315.166 602.894L315.967 603.068L316.761 603.257L317.548 603.461L318.327 603.68L319.098 603.915L319.86 604.164L320.613 604.428L321.356 604.707L322.089 605.001L322.81 605.308L323.521 605.63L324.219 605.966L324.905 606.315L325.578 606.677L326.238 607.052L326.884 607.44L327.517 607.839L328.135 608.25L328.738 608.672L329.326 609.104L329.9 609.546L330.458 609.998L331.001 610.458L331.528 610.927L332.04 611.403L332.536 611.886L333.017 612.375L333.483 612.869L333.933 613.368L334.369 613.872L334.79 614.379L335.197 614.888L335.59 615.4L335.97 615.913L336.336 616.427L336.69 616.942L337.032 617.455L337.363 617.968L337.683 618.478L337.994 618.985L338.297 619.489L338.592 619.988L338.881 620.483L339.165 620.971L339.446 621.453L339.724 621.928L340.001 622.395L340.279 622.854L340.558 623.304L340.841 623.746L341.129 624.178L341.422 624.601L341.724 625.014L342.034 625.417L342.354 625.811L342.686 626.195L343.03 626.571L343.388 626.937L343.762 627.294L344.151 627.643L344.557 627.984L344.981 628.318L345.424 628.645L345.887 628.967L346.369 629.282L346.873 629.593L347.397 629.9L347.943 630.204L348.51 630.507L349.098 630.808L349.706 631.109L350.335 631.412L350.984 631.716L351.65 632.024L352.335 632.337L353.035 632.654L353.751 632.979L354.479 633.311L355.219 633.652L355.969 634.002L356.726 634.363L357.489 634.735L358.256 635.119L359.023 635.515L359.789 635.925L360.552 636.349L361.308 636.787L362.056 637.24L362.793 637.708L363.516 638.19L364.224 638.687L364.913 639.2L365.581 639.727L366.226 640.268L366.845 640.823L367.437 641.393L368 641.975L368.531 642.569L369.029 643.176L369.493 643.793L369.92 644.42L370.31 645.057L370.661 645.702L370.973 646.354L371.244 647.013L371.475 647.677L371.664 648.345L371.812 649.017L371.919 649.69L371.984 650.365L372.009 651.039L371.993 651.713L371.937 652.384L371.843 653.053L371.711 653.718L371.542 654.379L371.338 655.034L371.1 655.683L370.831 656.326L370.53 656.961L370.201 657.589L369.845 658.209L369.463 658.821L369.058 659.424L368.632 660.019L368.186 660.605L367.722 661.182L367.243 661.75L366.749 662.31L366.242 662.862L365.725 663.405L365.199 663.94L364.664 664.468L364.122 664.989L363.575 665.502L363.022 666.009L362.466 666.509L361.905 667.003L361.342 667.491L360.776 667.973L360.208 668.449L359.637 668.92L359.064 669.386L358.49 669.846L357.913 670.302L357.334 670.752L356.754 671.198L356.171 671.639L355.585 672.074L354.997 672.505L354.406 672.93L353.812 673.35L353.213 673.765L352.611 674.174L352.004 674.576L351.392 674.973L350.775 675.363L350.153 675.745L349.524 676.12L348.889 676.488L348.248 676.847L347.599 677.197L346.944 677.537L346.281 677.868L345.61 678.189L344.932 678.499L344.246 678.797L343.552 679.084L342.851 679.359L342.142 679.621L341.426 679.87L340.703 680.106L339.973 680.328L339.236 680.537L338.493 680.731L337.745 680.91L336.992 681.075L336.233 681.226L335.471 681.362L334.705 681.483L333.937 681.59L333.166 681.682L332.394 681.76L331.621 681.825L330.847 681.876L330.074 681.914L329.302 681.939L328.531 681.95L327.762 681.95L326.996 681.937L326.232 681.911L325.471 681.874L324.715 681.825L323.962 681.765L323.214 681.693L322.471 681.611L321.733 681.518L321 681.415L320.274 681.302L319.554 681.18L318.841 681.049L318.134 680.91L317.435 680.762L316.743 680.607L316.058 680.444L315.382 680.275L314.713 680.1L314.052 679.919L313.4 679.734L312.755 679.543L312.119 679.349L311.491 679.151L310.871 678.951L310.259 678.748L309.655 678.543L309.059 678.338L308.47 678.131L307.889 677.924L307.314 677.718L306.747 677.512L306.186 677.307L305.631 677.104L305.082 676.903L304.539 676.704L304.001 676.507L303.467 676.313L302.938 676.122L302.412 675.935L301.891 675.75L301.372 675.568L300.856 675.39L300.342 675.215L299.83 675.043L299.32 674.874L298.812 674.708L298.304 674.545L297.797 674.384L297.29 674.226L296.784 674.069L296.278 673.914L295.772 673.761L295.265 673.608L294.758 673.456L294.251 673.304L293.744 673.152L293.236 672.999L292.728 672.846L292.219 672.691L291.711 672.534L291.202 672.375L290.693 672.213L290.185 672.049L289.677 671.881L289.17 671.71L288.663 671.535L288.158 671.356L287.653 671.173L287.15 670.985L286.649 670.793L286.148 670.597L285.649 670.396L285.151 670.191L284.654 669.982L284.158 669.769L283.662 669.553L283.165 669.333L282.668 669.112L282.168 668.887L281.667 668.661L281.163 668.433L280.655 668.204L280.143 667.974L279.625 667.743L279.101 667.511L278.57 667.278L278.032 667.046L277.485 666.812L276.929 666.579L276.363 666.344L275.788 666.109L275.201 665.873L274.604 665.635L273.996 665.395L273.376 665.152L272.746 664.907L272.106 664.657L271.455 664.404L270.795 664.145L270.127 663.88L269.45 663.609L268.767 663.331L268.077 663.045L267.382 662.75L266.684 662.447L265.982 662.133L265.28 661.81L264.577 661.476L263.875 661.13L263.176 660.773L262.482 660.404L261.793 660.022L261.112 659.628L260.44 659.221L259.779 658.8L259.131 658.367L258.496 657.921L257.878 657.461L257.276 656.988L256.694 656.502L256.133 656.004L255.594 655.493L255.079 654.971L254.589 654.436L254.125 653.891L253.69 653.335L253.284 652.769L252.908 652.193L252.563 651.609L252.252 651.017L251.973 650.417L251.728 649.812L251.519 649.2L251.344 648.584L251.205 647.964L251.102 647.342L251.035 646.717" fill="url(#paint1_linear)"/>
<path fill-rule="evenodd" clip-rule="evenodd" d="M946.149 883.143V883.143L946.249 882.774L946.348 882.407L946.445 882.041L946.539 881.676L946.631 881.313L946.721 880.951L946.808 880.589L946.894 880.229L946.977 879.869L947.058 879.509L947.136 879.149L947.213 878.79L947.287 878.431L947.36 878.072L947.43 877.712L947.498 877.352L947.565 876.992L947.629 876.63L947.692 876.269L947.754 875.906L947.813 875.542L947.872 875.177L947.929 874.811L947.985 874.443L948.04 874.074L948.094 873.704L948.148 873.332L948.201 872.958L948.254 872.583L948.307 872.205L948.36 871.826L948.413 871.445L948.467 871.061L948.522 870.676L948.578 870.289L948.635 869.899L948.693 869.507L948.753 869.113L948.816 868.718L948.88 868.319L948.947 867.919L949.017 867.517L949.09 867.113L949.166 866.706L949.246 866.298L949.33 865.888L949.418 865.476L949.511 865.062L949.608 864.647L949.711 864.23L949.818 863.812L949.931 863.393L950.05 862.972L950.175 862.55L950.307 862.128L950.445 861.704L950.589 861.28L950.741 860.856L950.9 860.431L951.066 860.006L951.241 859.582L951.423 859.157L951.613 858.733L951.811 858.31L952.017 857.888L952.232 857.466L952.456 857.046L952.689 856.627L952.93 856.21L953.18 855.795L953.44 855.382L953.708 854.971L953.986 854.562L954.273 854.157L954.569 853.754L954.875 853.354L955.189 852.957L955.514 852.564L955.847 852.175L956.19 851.789L956.542 851.407L956.903 851.029L957.273 850.656L957.652 850.287L958.04 849.923L958.437 849.564L958.842 849.21L959.256 848.86L959.679 848.516L960.11 848.177L960.549 847.844L960.996 847.516L961.451 847.194L961.914 846.877L962.384 846.566L962.862 846.261L963.347 845.962L963.838 845.668L964.337 845.381L964.842 845.099L965.353 844.823L965.87 844.553L966.393 844.288L966.922 844.029L967.457 843.776L967.996 843.528L968.541 843.285L969.09 843.048L969.644 842.816L970.203 842.589L970.765 842.366L971.332 842.149L971.903 841.936L972.477 841.727L973.056 841.523L973.637 841.322L974.222 841.126L974.811 840.933L975.402 840.744L975.997 840.558L976.595 840.375L977.195 840.195L977.799 840.018L978.405 839.844L979.014 839.672L979.626 839.503L980.241 839.335L980.859 839.17L981.48 839.006L982.103 838.845L982.73 838.684L983.36 838.526L983.992 838.368L984.628 838.212L985.267 838.057L985.909 837.903L986.555 837.749L987.204 837.597L987.857 837.446L988.514 837.295L989.174 837.145L989.839 836.996L990.508 836.848L991.181 836.7L991.858 836.553L992.54 836.407L993.226 836.262L993.917 836.118L994.613 835.975L995.314 835.833L996.02 835.692L996.732 835.553L997.449 835.416L998.171 835.28L998.898 835.146L999.631 835.014L1000.37 834.884L1001.11 834.756L1001.87 834.631L1002.62 834.509L1003.38 834.39L1004.15 834.275L1004.92 834.162L1005.7 834.054L1006.49 833.949L1007.28 833.849L1008.08 833.753L1008.88 833.662L1009.69 833.575L1010.5 833.495L1011.32 833.419L1012.15 833.35L1012.98 833.287L1013.81 833.23L1014.65 833.179L1015.5 833.136L1016.34 833.1L1017.2 833.071L1018.06 833.05L1018.92 833.037L1019.78 833.032L1020.65 833.036L1021.52 833.049L1022.4 833.07L1023.27 833.101L1024.15 833.142L1025.03 833.192L1025.92 833.251L1026.8 833.321L1027.69 833.402L1028.57 833.493L1029.46 833.594L1030.34 833.706L1031.23 833.829L1032.12 833.963L1033 834.108L1033.88 834.265L1034.76 834.432L1035.64 834.612L1036.52 834.802L1037.39 835.004L1038.26 835.217L1039.13 835.442L1039.99 835.679L1040.85 835.926L1041.7 836.186L1042.55 836.457L1043.4 836.739L1044.23 837.032L1045.07 837.337L1045.9 837.653L1046.72 837.981L1047.53 838.319L1048.34 838.668L1049.14 839.029L1049.93 839.4L1050.72 839.781L1051.49 840.173L1052.26 840.576L1053.02 840.989L1053.78 841.412L1054.52 841.844L1055.25 842.287L1055.98 842.74L1056.7 843.201L1057.4 843.673L1058.1 844.153L1058.79 844.642L1059.46 845.141L1060.13 845.647L1060.79 846.163L1061.44 846.686L1062.07 847.218L1062.7 847.758L1063.31 848.305L1063.92 848.86L1064.51 849.423L1065.1 849.993L1065.67 850.569L1066.23 851.153L1066.78 851.743L1067.32 852.34L1067.85 852.943L1068.36 853.553L1068.87 854.168L1069.36 854.789L1069.85 855.416L1070.32 856.049L1070.78 856.686L1071.23 857.329L1071.67 857.977L1072.09 858.63L1072.51 859.287L1072.91 859.949L1073.3 860.615L1073.69 861.286L1074.06 861.96L1074.42 862.638L1074.77 863.321L1075.1 864.006L1075.43 864.695L1075.75 865.388L1076.05 866.084L1076.35 866.783L1076.63 867.485L1076.91 868.189L1077.17 868.897L1077.42 869.607L1077.66 870.32L1077.9 871.035L1078.12 871.752L1078.33 872.472L1078.53 873.194L1078.72 873.918L1078.9 874.644L1079.07 875.372L1079.24 876.101L1079.39 876.833L1079.53 877.566L1079.66 878.3L1079.78 879.036L1079.89 879.774L1079.99 880.513L1080.08 881.253L1080.16 881.995L1080.23 882.737L1080.29 883.481L1080.34 884.226L1080.38 884.972L1080.41 885.718L1080.42 886.465L1080.43 887.213L1080.42 887.961L1080.4 888.71L1080.37 889.459L1080.33 890.208L1080.28 890.957L1080.21 891.705L1080.13 892.454L1080.03 893.202L1079.93 893.949L1079.8 894.695L1079.67 895.44L1079.52 896.183L1079.35 896.925L1079.17 897.665L1078.97 898.403L1078.76 899.139L1078.53 899.872L1078.28 900.601L1078.02 901.328L1077.74 902.051L1077.44 902.77L1077.13 903.484L1076.8 904.195L1076.45 904.9L1076.08 905.6L1075.69 906.294L1075.29 906.982L1074.87 907.664L1074.43 908.34L1073.97 909.008L1073.5 909.669L1073 910.322L1072.49 910.968L1071.96 911.604L1071.41 912.233L1070.85 912.852L1070.26 913.461L1069.66 914.061L1069.05 914.652L1068.41 915.232L1067.76 915.801L1067.1 916.36L1066.42 916.908L1065.72 917.445L1065.01 917.97L1064.29 918.485L1063.55 918.987L1062.8 919.478L1062.03 919.957L1061.26 920.425L1060.47 920.88L1059.67 921.323L1058.86 921.755L1058.04 922.174L1057.22 922.582L1056.38 922.978L1055.54 923.361L1054.69 923.733L1053.83 924.094L1052.96 924.443L1052.09 924.78L1051.22 925.106L1050.34 925.421L1049.46 925.725L1048.57 926.018L1047.68 926.3L1046.79 926.572L1045.9 926.834L1045.01 927.086L1044.11 927.329L1043.22 927.562L1042.32 927.786L1041.43 928.001L1040.53 928.207L1039.64 928.406L1038.75 928.596L1037.86 928.778L1036.98 928.954L1036.1 929.122L1035.22 929.283L1034.34 929.438L1033.46 929.586L1032.6 929.729L1031.73 929.867L1030.87 929.998L1030.01 930.125L1029.16 930.248L1028.31 930.366L1027.46 930.479L1026.62 930.589L1025.79 930.695L1024.96 930.798L1024.13 930.898L1023.31 930.995L1022.5 931.089L1021.68 931.181L1020.88 931.271L1020.08 931.359L1019.28 931.445L1018.49 931.53L1017.7 931.614L1016.91 931.697L1016.13 931.778L1015.36 931.859L1014.58 931.94L1013.82 932.019L1013.05 932.099L1012.29 932.178L1011.53 932.257L1010.77 932.335L1010.02 932.414L1009.27 932.492L1008.52 932.57L1007.78 932.648L1007.04 932.726L1006.29 932.804L1005.55 932.882L1004.81 932.959L1004.08 933.035L1003.34 933.111L1002.6 933.187L1001.87 933.261L1001.13 933.335L1000.4 933.407L999.662 933.478L998.927 933.548L998.192 933.615L997.456 933.681L996.72 933.745L995.983 933.807L995.245 933.866L994.507 933.922L993.768 933.975L993.028 934.025L992.287 934.071L991.545 934.113L990.802 934.152L990.058 934.186L989.312 934.216L988.566 934.241L987.819 934.261L987.072 934.277L986.323 934.287L985.573 934.291L984.823 934.29L984.073 934.282L983.321 934.269L982.57 934.249L981.818 934.222L981.066 934.189L980.315 934.149L979.563 934.101L978.812 934.046L978.061 933.984L977.312 933.913L976.563 933.835L975.816 933.748L975.07 933.653L974.326 933.55L973.584 933.438L972.844 933.317L972.106 933.187L971.372 933.047L970.64 932.899L969.912 932.741L969.187 932.574L968.467 932.398L967.75 932.211L967.039 932.016L966.332 931.81L965.63 931.595L964.934 931.37L964.243 931.135L963.559 930.89L962.881 930.635L962.21 930.371L961.546 930.097L960.889 929.814L960.239 929.521L959.598 929.218L958.965 928.906L958.34 928.585L957.724 928.254L957.117 927.915L956.519 927.566L955.931 927.209L955.352 926.843L954.783 926.468L954.225 926.085L953.677 925.693L953.14 925.294L952.614 924.887L952.099 924.471L951.596 924.049L951.104 923.618L950.624 923.181L950.156 922.736L949.7 922.285L949.256 921.827L948.826 921.362L948.407 920.891L948.002 920.415L947.61 919.932L947.23 919.444L946.864 918.951L946.511 918.453L946.172 917.949L945.845 917.442L945.532 916.93L945.233 916.414L944.947 915.895L944.674 915.372L944.415 914.846L944.169 914.318L943.937 913.786L943.718 913.253L943.511 912.717L943.318 912.18L943.138 911.641L942.97 911.101L942.816 910.561L942.673 910.019L942.543 909.478L942.424 908.936L942.318 908.395L942.223 907.854L942.14 907.314L942.067 906.775L942.006 906.237L941.955 905.701L941.914 905.166L941.883 904.633L941.863 904.102L941.851 903.574L941.849 903.048L941.855 902.524L941.87 902.004L941.893 901.486L941.924 900.972L941.963 900.461L942.009 899.953L942.062 899.448L942.121 898.948L942.187 898.451L942.259 897.958L942.336 897.469L942.418 896.983L942.506 896.502L942.598 896.025L942.694 895.552L942.794 895.084L942.898 894.619L943.005 894.159L943.114 893.702L943.227 893.251L943.342 892.803L943.458 892.359L943.577 891.92L943.697 891.484L943.818 891.053L943.94 890.626L944.062 890.203L944.185 889.783L944.308 889.367L944.431 888.955L944.554 888.547L944.676 888.142L944.798 887.74L944.918 887.342L945.038 886.947L945.156 886.555L945.273 886.166L945.389 885.779L945.503 885.396L945.615 885.015L945.726 884.636L945.834 884.26L945.941 883.885L946.046 883.513L946.149 883.143" fill="url(#paint2_linear)"/>
<path fill-rule="evenodd" clip-rule="evenodd" d="M662.722 896.625V896.625L662.659 896.01L662.637 895.396L662.657 894.781L662.72 894.168L662.826 893.557L662.975 892.948L663.167 892.344L663.402 891.745L663.678 891.151L663.996 890.564L664.354 889.984L664.751 889.412L665.187 888.849L665.658 888.296L666.165 887.752L666.705 887.22L667.276 886.698L667.876 886.188L668.503 885.689L669.155 885.203L669.83 884.729L670.524 884.267L671.237 883.817L671.966 883.38L672.708 882.955L673.461 882.542L674.225 882.141L674.997 881.752L675.777 881.374L676.561 881.009L677.351 880.654L678.144 880.311L678.939 879.978L679.736 879.657L680.533 879.345L681.329 879.045L682.124 878.753L682.917 878.472L683.706 878.2L684.491 877.936L685.271 877.681L686.045 877.434L686.812 877.195L687.571 876.962L688.321 876.736L689.061 876.516L689.791 876.3L690.51 876.09L691.217 875.883L691.91 875.679L692.59 875.478L693.256 875.279L693.908 875.081L694.544 874.884L695.164 874.686L695.768 874.487L696.356 874.286L696.927 874.083L697.481 873.877L698.018 873.667L698.538 873.453L699.042 873.234L699.529 873.009L700 872.779L700.454 872.542L700.893 872.297L701.317 872.046L701.725 871.787L702.12 871.519L702.501 871.244L702.87 870.96L703.226 870.667L703.571 870.365L703.905 870.054L704.23 869.734L704.545 869.405L704.853 869.068L705.153 868.72L705.446 868.364L705.734 867.999L706.017 867.626L706.296 867.243L706.571 866.852L706.844 866.452L707.115 866.044L707.385 865.628L707.654 865.204L707.924 864.772L708.194 864.332L708.465 863.884L708.739 863.429L709.014 862.966L709.293 862.496L709.574 862.018L709.86 861.533L710.15 861.041L710.444 860.541L710.743 860.034L711.048 859.521L711.359 859L711.675 858.472L711.999 857.937L712.329 857.395L712.668 856.847L713.014 856.292L713.368 855.732L713.731 855.165L714.104 854.593L714.487 854.015L714.88 853.434L715.284 852.848L715.699 852.259L716.127 851.667L716.567 851.074L717.02 850.48L717.487 849.887L717.968 849.295L718.464 848.706L718.975 848.122L719.501 847.543L720.043 846.971L720.601 846.408L721.175 845.855L721.765 845.313L722.372 844.784L722.994 844.268L723.633 843.766L724.286 843.279L724.954 842.807L725.636 842.35L726.332 841.909L727.042 841.483L727.764 841.073L728.498 840.677L729.243 840.297L730 839.931L730.767 839.579L731.544 839.241L732.33 838.916L733.126 838.603L733.93 838.303L734.742 838.015L735.562 837.738L736.39 837.471L737.225 837.215L738.067 836.969L738.916 836.731L739.772 836.503L740.634 836.284L741.503 836.073L742.377 835.87L743.258 835.675L744.145 835.489L745.037 835.31L745.935 835.14L746.839 834.978L747.748 834.824L748.662 834.68L749.58 834.544L750.504 834.419L751.432 834.303L752.364 834.198L753.3 834.104L754.238 834.023L755.18 833.954L756.124 833.898L757.07 833.857L758.016 833.831L758.963 833.82L759.91 833.826L760.855 833.85L761.799 833.892L762.739 833.953L763.676 834.033L764.608 834.135L765.534 834.257L766.453 834.402L767.364 834.57L768.266 834.761L769.157 834.975L770.037 835.214L770.905 835.478L771.758 835.766L772.597 836.08L773.419 836.42L774.224 836.785L775.011 837.175L775.778 837.591L776.525 838.033L777.25 838.499L777.953 838.991L778.631 839.507L779.286 840.047L779.915 840.611L780.518 841.197L781.094 841.806L781.643 842.437L782.164 843.089L782.656 843.76L783.118 844.451L783.552 845.161L783.955 845.888L784.329 846.631L784.672 847.39L784.984 848.163L785.266 848.95L785.517 849.75L785.738 850.561L785.928 851.382L786.087 852.212L786.217 853.051L786.317 853.897L786.388 854.748L786.43 855.604L786.444 856.464L786.431 857.326L786.392 858.189L786.328 859.051L786.241 859.912L786.131 860.768L786.002 861.62L785.854 862.466L785.689 863.303L785.511 864.131L785.321 864.948L785.121 865.753L784.915 866.544L784.705 867.32L784.493 868.079L784.283 868.821L784.078 869.545L783.881 870.248L783.695 870.931L783.524 871.592L783.37 872.231L783.236 872.847L783.127 873.439L783.046 874.007L782.994 874.551L782.976 875.071L782.994 875.567L783.051 876.039L783.149 876.487L783.291 876.913L783.479 877.316L783.714 877.698L783.998 878.06L784.333 878.402L784.719 878.727L785.157 879.035L785.647 879.328L786.19 879.608L786.784 879.876L787.43 880.134L788.126 880.384L788.871 880.628L789.663 880.868L790.5 881.105L791.38 881.341L792.3 881.579L793.256 881.821L794.246 882.067L795.267 882.32L796.313 882.582L797.382 882.854L798.469 883.137L799.569 883.433L800.678 883.744L801.792 884.07L802.905 884.412L804.012 884.772L805.109 885.149L806.191 885.545L807.252 885.96L808.289 886.393L809.296 886.846L810.269 887.318L811.203 887.808L812.094 888.317L812.937 888.843L813.73 889.386L814.468 889.945L815.149 890.52L815.768 891.108L816.324 891.709L816.814 892.322L817.236 892.944L817.589 893.575L817.871 894.214L818.081 894.857L818.219 895.505L818.284 896.155L818.278 896.805L818.2 897.455L818.052 898.102L817.836 898.745L817.552 899.382L817.203 900.013L816.792 900.636L816.32 901.249L815.793 901.851L815.211 902.442L814.58 903.021L813.902 903.586L813.182 904.137L812.423 904.674L811.63 905.196L810.807 905.704L809.958 906.196L809.086 906.673L808.197 907.135L807.294 907.583L806.38 908.016L805.459 908.435L804.536 908.84L803.611 909.233L802.689 909.613L801.771 909.981L800.86 910.338L799.956 910.684L799.061 911.02L798.177 911.346L797.305 911.664L796.444 911.972L795.597 912.272L794.763 912.565L793.944 912.851L793.14 913.131L792.351 913.405L791.579 913.673L790.823 913.938L790.085 914.198L789.365 914.455L788.664 914.71L787.981 914.963L787.319 915.215L786.676 915.467L786.055 915.72L785.455 915.975L784.877 916.232L784.32 916.492L783.787 916.757L783.276 917.027L782.788 917.302L782.323 917.585L781.881 917.875L781.463 918.174L781.067 918.482L780.693 918.799L780.342 919.128L780.013 919.468L779.705 919.82L779.418 920.184L779.15 920.562L778.901 920.953L778.67 921.357L778.455 921.776L778.256 922.208L778.071 922.655L777.898 923.115L777.738 923.59L777.587 924.078L777.444 924.58L777.308 925.095L777.177 925.622L777.05 926.161L776.924 926.711L776.798 927.272L776.671 927.842L776.54 928.421L776.405 929.007L776.263 929.6L776.113 930.198L775.953 930.801L775.782 931.407L775.599 932.014L775.403 932.622L775.191 933.228L774.964 933.833L774.719 934.434L774.457 935.03L774.176 935.62L773.876 936.202L773.555 936.775L773.215 937.338L772.854 937.89L772.471 938.429L772.068 938.955L771.644 939.466L771.199 939.962L770.734 940.441L770.248 940.903L769.742 941.348L769.216 941.774L768.672 942.181L768.11 942.568L767.53 942.937L766.933 943.285L766.321 943.613L765.694 943.922L765.053 944.21L764.399 944.479L763.732 944.729L763.055 944.959L762.368 945.171L761.671 945.365L760.966 945.541L760.254 945.699L759.535 945.842L758.81 945.968L758.081 946.078L757.347 946.173L756.61 946.254L755.87 946.32L755.128 946.373L754.383 946.411L753.638 946.436L752.891 946.447L752.145 946.446L751.398 946.433L750.653 946.409L749.908 946.375L749.166 946.331L748.425 946.279L747.688 946.219L746.953 946.153L746.221 946.082L745.493 946.006L744.768 945.928L744.046 945.848L743.329 945.767L742.615 945.686L741.904 945.607L741.197 945.53L740.492 945.456L739.791 945.387L739.092 945.323L738.395 945.266L737.699 945.215L737.005 945.171L736.311 945.136L735.618 945.109L734.924 945.091L734.229 945.082L733.533 945.082L732.834 945.093L732.133 945.113L731.428 945.142L730.719 945.181L730.006 945.229L729.289 945.285L728.565 945.35L727.836 945.423L727.101 945.503L726.36 945.589L725.611 945.681L724.856 945.778L724.093 945.878L723.323 945.981L722.546 946.085L721.762 946.19L720.971 946.294L720.174 946.396L719.37 946.495L718.56 946.588L717.745 946.676L716.925 946.756L716.101 946.828L715.274 946.889L714.444 946.939L713.613 946.975L712.782 946.998L711.951 947.004L711.122 946.994L710.296 946.966L709.475 946.918L708.659 946.851L707.85 946.762L707.049 946.651L706.259 946.516L705.479 946.359L704.712 946.177L703.958 945.97L703.22 945.739L702.498 945.482L701.794 945.2L701.109 944.892L700.444 944.56L699.799 944.203L699.176 943.822L698.575 943.417L697.998 942.99L697.443 942.541L696.913 942.072L696.405 941.582L695.922 941.075L695.462 940.551L695.024 940.011L694.609 939.458L694.216 938.893L693.842 938.318L693.488 937.734L693.152 937.143L692.833 936.548L692.528 935.949L692.237 935.348L691.958 934.748L691.688 934.149L691.427 933.552L691.172 932.959L690.923 932.372L690.678 931.789L690.437 931.213L690.198 930.643L689.96 930.079L689.724 929.521L689.488 928.971L689.252 928.426L689.016 927.889L688.778 927.358L688.539 926.833L688.298 926.315L688.055 925.803L687.808 925.297L687.558 924.798L687.304 924.304L687.045 923.817L686.781 923.336L686.512 922.86L686.235 922.39L685.952 921.926L685.661 921.467L685.362 921.014L685.054 920.566L684.736 920.122L684.408 919.684L684.069 919.25L683.72 918.821L683.358 918.395L682.984 917.973L682.598 917.555L682.199 917.14L681.786 916.727L681.361 916.317L680.921 915.908L680.469 915.5L680.002 915.094L679.523 914.687L679.03 914.281L678.525 913.873L678.008 913.465L677.479 913.054L676.94 912.641L676.39 912.225L675.831 911.805L675.264 911.381L674.69 910.952L674.11 910.518L673.526 910.078L672.938 909.632L672.35 909.179L671.761 908.719L671.175 908.252L670.592 907.777L670.015 907.294L669.445 906.802L668.885 906.302L668.336 905.794L667.8 905.276L667.28 904.751L666.777 904.216L666.294 903.673L665.833 903.122L665.395 902.562L664.983 901.995L664.599 901.42L664.244 900.839L663.92 900.251L663.629 899.658L663.373 899.059L663.153 898.455L662.97 897.848L662.826 897.237L662.722 896.625" fill="url(#paint3_linear)"/>
<path fill-rule="evenodd" clip-rule="evenodd" d="M967.382 551.842V551.842L967.389 551.288L967.399 550.735L967.411 550.181L967.426 549.628L967.444 549.073L967.465 548.519L967.489 547.963L967.517 547.407L967.548 546.85L967.582 546.293L967.621 545.734L967.665 545.174L967.713 544.613L967.766 544.051L967.825 543.488L967.89 542.923L967.962 542.358L968.04 541.792L968.127 541.224L968.222 540.657L968.326 540.088L968.439 539.519L968.563 538.95L968.697 538.381L968.843 537.812L969.001 537.244L969.171 536.677L969.355 536.112L969.552 535.548L969.764 534.986L969.99 534.427L970.232 533.871L970.489 533.318L970.762 532.769L971.051 532.224L971.357 531.684L971.678 531.149L972.016 530.62L972.371 530.096L972.741 529.579L973.129 529.069L973.532 528.565L973.953 528.07L974.389 527.582L974.841 527.103L975.31 526.632L975.794 526.171L976.294 525.72L976.809 525.278L977.339 524.847L977.884 524.426L978.444 524.017L979.017 523.619L979.604 523.232L980.204 522.858L980.816 522.495L981.441 522.145L982.077 521.807L982.725 521.482L983.382 521.169L984.05 520.869L984.727 520.582L985.412 520.308L986.105 520.047L986.806 519.798L987.513 519.562L988.226 519.339L988.945 519.128L989.668 518.929L990.395 518.742L991.125 518.567L991.859 518.403L992.594 518.251L993.331 518.109L994.069 517.978L994.808 517.857L995.546 517.746L996.284 517.643L997.021 517.55L997.756 517.465L998.49 517.388L999.221 517.318L999.949 517.254L1000.67 517.196L1001.39 517.143L1002.11 517.094L1002.83 517.049L1003.53 517.006L1004.24 516.966L1004.94 516.927L1005.64 516.889L1006.33 516.851L1007.02 516.812L1007.7 516.772L1008.38 516.73L1009.05 516.686L1009.73 516.639L1010.4 516.589L1011.06 516.534L1011.73 516.476L1012.39 516.413L1013.05 516.346L1013.71 516.273L1014.37 516.195L1015.04 516.113L1015.7 516.024L1016.36 515.931L1017.03 515.832L1017.7 515.727L1018.37 515.618L1019.04 515.503L1019.72 515.383L1020.41 515.258L1021.1 515.129L1021.79 514.995L1022.5 514.858L1023.2 514.718L1023.92 514.576L1024.64 514.432L1025.38 514.286L1026.12 514.141L1026.86 513.996L1027.62 513.853L1028.38 513.712L1029.16 513.575L1029.94 513.442L1030.73 513.315L1031.52 513.194L1032.33 513.081L1033.14 512.977L1033.96 512.881L1034.78 512.797L1035.61 512.724L1036.44 512.663L1037.28 512.616L1038.12 512.583L1038.97 512.565L1039.81 512.563L1040.66 512.578L1041.5 512.609L1042.35 512.658L1043.19 512.726L1044.02 512.812L1044.86 512.917L1045.69 513.042L1046.51 513.185L1047.32 513.349L1048.13 513.532L1048.93 513.735L1049.71 513.957L1050.49 514.199L1051.26 514.46L1052.01 514.74L1052.75 515.037L1053.47 515.353L1054.18 515.686L1054.88 516.036L1055.57 516.401L1056.23 516.782L1056.89 517.177L1057.53 517.586L1058.15 518.007L1058.76 518.441L1059.35 518.885L1059.94 519.34L1060.5 519.804L1061.06 520.276L1061.6 520.756L1062.13 521.244L1062.65 521.737L1063.16 522.236L1063.66 522.739L1064.15 523.247L1064.63 523.759L1065.1 524.273L1065.57 524.791L1066.02 525.311L1066.48 525.833L1066.93 526.356L1067.37 526.882L1067.81 527.409L1068.25 527.937L1068.68 528.466L1069.11 528.997L1069.53 529.53L1069.96 530.064L1070.38 530.599L1070.8 531.137L1071.21 531.677L1071.62 532.219L1072.03 532.764L1072.43 533.311L1072.83 533.862L1073.23 534.415L1073.62 534.972L1074 535.533L1074.38 536.098L1074.75 536.666L1075.11 537.239L1075.46 537.816L1075.81 538.398L1076.14 538.984L1076.46 539.575L1076.77 540.17L1077.07 540.77L1077.35 541.375L1077.62 541.984L1077.88 542.598L1078.11 543.216L1078.33 543.838L1078.53 544.464L1078.71 545.093L1078.88 545.726L1079.02 546.361L1079.14 546.999L1079.24 547.64L1079.31 548.282L1079.37 548.925L1079.4 549.57L1079.41 550.214L1079.4 550.859L1079.36 551.503L1079.3 552.147L1079.22 552.788L1079.11 553.428L1078.98 554.065L1078.83 554.7L1078.65 555.331L1078.45 555.958L1078.24 556.58L1077.99 557.198L1077.73 557.811L1077.45 558.418L1077.15 559.019L1076.82 559.614L1076.48 560.202L1076.12 560.783L1075.74 561.357L1075.34 561.923L1074.93 562.481L1074.5 563.031L1074.05 563.573L1073.59 564.106L1073.12 564.631L1072.63 565.147L1072.13 565.654L1071.62 566.152L1071.09 566.641L1070.56 567.121L1070.02 567.592L1069.47 568.054L1068.91 568.508L1068.34 568.953L1067.77 569.389L1067.19 569.816L1066.61 570.236L1066.02 570.647L1065.43 571.049L1064.83 571.444L1064.23 571.832L1063.63 572.211L1063.03 572.584L1062.42 572.949L1061.82 573.307L1061.21 573.658L1060.6 574.002L1059.99 574.34L1059.38 574.671L1058.77 574.996L1058.16 575.315L1057.54 575.628L1056.93 575.935L1056.32 576.236L1055.71 576.532L1055.1 576.821L1054.49 577.106L1053.87 577.384L1053.26 577.657L1052.65 577.925L1052.04 578.186L1051.42 578.443L1050.81 578.693L1050.2 578.938L1049.58 579.177L1048.97 579.41L1048.35 579.637L1047.73 579.858L1047.11 580.073L1046.49 580.281L1045.87 580.484L1045.25 580.679L1044.63 580.869L1044.01 581.052L1043.38 581.228L1042.75 581.397L1042.13 581.56L1041.5 581.716L1040.87 581.866L1040.24 582.008L1039.61 582.144L1038.99 582.274L1038.36 582.396L1037.73 582.512L1037.1 582.622L1036.47 582.726L1035.84 582.823L1035.21 582.914L1034.58 583L1033.95 583.079L1033.33 583.154L1032.7 583.223L1032.07 583.287L1031.45 583.346L1030.83 583.4L1030.21 583.451L1029.59 583.497L1028.97 583.54L1028.36 583.58L1027.74 583.616L1027.13 583.65L1026.52 583.681L1025.91 583.71L1025.3 583.738L1024.69 583.764L1024.08 583.789L1023.48 583.812L1022.87 583.835L1022.27 583.857L1021.67 583.879L1021.06 583.901L1020.46 583.922L1019.85 583.944L1019.25 583.965L1018.65 583.986L1018.04 584.007L1017.43 584.028L1016.82 584.048L1016.21 584.069L1015.6 584.089L1014.99 584.108L1014.37 584.128L1013.75 584.147L1013.13 584.165L1012.5 584.182L1011.88 584.199L1011.25 584.214L1010.61 584.228L1009.97 584.241L1009.33 584.252L1008.68 584.262L1008.03 584.269L1007.38 584.274L1006.72 584.276L1006.06 584.276L1005.39 584.272L1004.72 584.264L1004.04 584.253L1003.36 584.238L1002.68 584.217L1001.99 584.192L1001.3 584.161L1000.6 584.125L999.901 584.082L999.198 584.033L998.493 583.976L997.785 583.912L997.075 583.84L996.363 583.76L995.649 583.671L994.935 583.573L994.22 583.466L993.505 583.348L992.79 583.221L992.077 583.082L991.365 582.933L990.656 582.773L989.949 582.602L989.246 582.419L988.546 582.224L987.851 582.017L987.161 581.799L986.477 581.568L985.799 581.325L985.127 581.071L984.463 580.804L983.806 580.525L983.158 580.234L982.518 579.931L981.888 579.617L981.267 579.291L980.657 578.953L980.057 578.604L979.468 578.244L978.891 577.873L978.325 577.491L977.772 577.099L977.231 576.696L976.703 576.284L976.188 575.861L975.686 575.43L975.199 574.989L974.725 574.539L974.266 574.081L973.821 573.614L973.392 573.139L972.977 572.657L972.579 572.167L972.196 571.669L971.829 571.165L971.479 570.654L971.145 570.137L970.827 569.614L970.526 569.086L970.242 568.553L969.974 568.015L969.722 567.473L969.486 566.926L969.265 566.377L969.061 565.824L968.871 565.269L968.696 564.712L968.535 564.153L968.387 563.592L968.253 563.03L968.131 562.467L968.021 561.904L967.923 561.34L967.835 560.776L967.757 560.213L967.689 559.649L967.629 559.087L967.577 558.525L967.533 557.963L967.496 557.403L967.464 556.843L967.439 556.285L967.418 555.727L967.402 555.17L967.39 554.614L967.382 554.058L967.378 553.503L967.376 552.949L967.378 552.395L967.382 551.842" fill="url(#paint4_linear)"/>
<path fill-rule="evenodd" clip-rule="evenodd" d="M264.679 391.015V391.015L264.564 390.412L264.445 389.807L264.321 389.199L264.192 388.589L264.06 387.976L263.924 387.36L263.784 386.742L263.641 386.119L263.496 385.494L263.35 384.864L263.202 384.231L263.053 383.594L262.905 382.953L262.757 382.308L262.612 381.658L262.47 381.005L262.333 380.348L262.2 379.686L262.075 379.021L261.958 378.353L261.85 377.681L261.752 377.006L261.667 376.328L261.596 375.648L261.539 374.967L261.499 374.284L261.477 373.6L261.473 372.916L261.49 372.232L261.528 371.55L261.589 370.868L261.673 370.19L261.783 369.514L261.917 368.842L262.079 368.175L262.268 367.512L262.484 366.856L262.729 366.207L263.003 365.565L263.306 364.932L263.639 364.308L264.002 363.693L264.394 363.089L264.816 362.497L265.269 361.916L265.75 361.348L266.262 360.793L266.802 360.253L267.372 359.727L267.97 359.216L268.595 358.721L269.248 358.242L269.928 357.78L270.634 357.336L271.364 356.909L272.119 356.5L272.898 356.109L273.699 355.737L274.521 355.384L275.363 355.05L276.225 354.735L277.104 354.439L278.001 354.162L278.913 353.905L279.84 353.667L280.779 353.448L281.731 353.247L282.693 353.066L283.664 352.902L284.644 352.757L285.63 352.629L286.621 352.519L287.617 352.425L288.616 352.348L289.616 352.286L290.617 352.24L291.617 352.208L292.615 352.19L293.61 352.185L294.601 352.193L295.587 352.212L296.567 352.243L297.54 352.284L298.505 352.334L299.461 352.393L300.408 352.461L301.345 352.535L302.27 352.615L303.185 352.701L304.087 352.792L304.977 352.887L305.853 352.985L306.717 353.085L307.566 353.186L308.402 353.289L309.224 353.392L310.032 353.494L310.826 353.595L311.605 353.694L312.371 353.791L313.122 353.885L313.859 353.976L314.583 354.062L315.293 354.144L315.989 354.221L316.673 354.293L317.345 354.36L318.004 354.421L318.652 354.476L319.288 354.524L319.913 354.567L320.529 354.602L321.134 354.632L321.73 354.655L322.317 354.671L322.896 354.681L323.467 354.684L324.031 354.681L324.588 354.671L325.138 354.654L325.683 354.631L326.222 354.602L326.757 354.566L327.287 354.525L327.813 354.477L328.335 354.424L328.855 354.364L329.372 354.299L329.886 354.229L330.399 354.153L330.91 354.072L331.42 353.986L331.929 353.894L332.438 353.797L332.947 353.695L333.456 353.589L333.965 353.476L334.476 353.359L334.987 353.236L335.5 353.107L336.015 352.973L336.533 352.832L337.052 352.686L337.575 352.534L338.101 352.375L338.63 352.211L339.164 352.041L339.702 351.864L340.245 351.682L340.792 351.494L341.346 351.3L341.905 351.1L342.47 350.895L343.042 350.685L343.62 350.47L344.206 350.25L344.8 350.025L345.401 349.796L346.01 349.563L346.628 349.326L347.254 349.086L347.889 348.843L348.533 348.597L349.187 348.349L349.85 348.099L350.523 347.847L351.205 347.595L351.898 347.342L352.6 347.089L353.313 346.836L354.035 346.585L354.768 346.334L355.511 346.086L356.264 345.839L357.027 345.596L357.8 345.356L358.583 345.12L359.376 344.889L360.178 344.662L360.99 344.441L361.811 344.226L362.64 344.017L363.479 343.816L364.325 343.622L365.18 343.436L366.043 343.258L366.913 343.089L367.79 342.93L368.674 342.781L369.564 342.642L370.46 342.513L371.361 342.396L372.267 342.291L373.178 342.197L374.092 342.115L375.01 342.046L375.931 341.99L376.854 341.948L377.78 341.918L378.706 341.902L379.634 341.9L380.562 341.913L381.49 341.939L382.417 341.98L383.343 342.036L384.267 342.106L385.189 342.191L386.108 342.291L387.024 342.406L387.936 342.536L388.843 342.68L389.746 342.84L390.644 343.014L391.536 343.203L392.422 343.407L393.302 343.625L394.175 343.858L395.04 344.105L395.898 344.366L396.748 344.641L397.59 344.93L398.423 345.233L399.247 345.549L400.062 345.878L400.868 346.22L401.663 346.576L402.448 346.944L403.223 347.324L403.986 347.717L404.739 348.121L405.48 348.538L406.208 348.967L406.924 349.408L407.628 349.86L408.318 350.323L408.993 350.798L409.655 351.285L410.301 351.782L410.931 352.291L411.545 352.811L412.142 353.341L412.722 353.883L413.283 354.434L413.826 354.997L414.35 355.569L414.854 356.151L415.338 356.743L415.802 357.343L416.246 357.953L416.668 358.571L417.069 359.198L417.449 359.832L417.808 360.474L418.145 361.122L418.461 361.777L418.755 362.438L419.028 363.105L419.279 363.776L419.509 364.453L419.719 365.133L419.908 365.817L420.078 366.504L420.228 367.194L420.358 367.886L420.471 368.58L420.566 369.275L420.643 369.971L420.704 370.667L420.75 371.363L420.781 372.058L420.798 372.753L420.802 373.446L420.794 374.138L420.776 374.828L420.747 375.515L420.709 376.2L420.664 376.883L420.612 377.563L420.554 378.239L420.492 378.913L420.426 379.583L420.357 380.25L420.288 380.913L420.218 381.573L420.148 382.23L420.081 382.884L420.016 383.535L419.955 384.182L419.898 384.827L419.846 385.469L419.801 386.109L419.762 386.747L419.73 387.383L419.707 388.017L419.692 388.651L419.686 389.283L419.689 389.915L419.702 390.547L419.724 391.179L419.757 391.811L419.799 392.445L419.85 393.08L419.911 393.716L419.982 394.355L420.061 394.996L420.149 395.64L420.244 396.287L420.347 396.937L420.456 397.591L420.571 398.249L420.691 398.91L420.815 399.576L420.941 400.247L421.069 400.921L421.197 401.601L421.324 402.284L421.447 402.972L421.566 403.664L421.678 404.36L421.782 405.06L421.875 405.762L421.957 406.468L422.025 407.176L422.078 407.886L422.113 408.597L422.128 409.309L422.123 410.02L422.095 410.731L422.042 411.439L421.964 412.146L421.858 412.848L421.724 413.547L421.56 414.24L421.366 414.927L421.139 415.607L420.881 416.279L420.589 416.942L420.264 417.596L419.906 418.239L419.514 418.87L419.088 419.489L418.628 420.095L418.135 420.687L417.608 421.264L417.048 421.826L416.455 422.371L415.83 422.9L415.174 423.412L414.487 423.906L413.771 424.381L413.026 424.837L412.252 425.274L411.453 425.692L410.628 426.089L409.779 426.467L408.907 426.824L408.014 427.162L407.101 427.479L406.17 427.777L405.222 428.054L404.259 428.312L403.284 428.551L402.296 428.771L401.299 428.973L400.293 429.157L399.282 429.324L398.265 429.475L397.246 429.611L396.225 429.731L395.205 429.838L394.186 429.932L393.172 430.014L392.162 430.086L391.16 430.148L390.165 430.201L389.18 430.248L388.205 430.288L387.243 430.324L386.293 430.356L385.358 430.386L384.437 430.415L383.533 430.445L382.645 430.476L381.775 430.511L380.922 430.549L380.088 430.594L379.272 430.645L378.475 430.704L377.697 430.773L376.938 430.852L376.198 430.942L375.477 431.044L374.774 431.16L374.09 431.29L373.423 431.435L372.773 431.596L372.139 431.773L371.521 431.966L370.918 432.178L370.329 432.406L369.753 432.653L369.189 432.918L368.635 433.202L368.092 433.503L367.557 433.823L367.03 434.161L366.51 434.516L365.994 434.889L365.482 435.278L364.973 435.683L364.465 436.104L363.957 436.539L363.448 436.988L362.936 437.448L362.421 437.92L361.9 438.402L361.374 438.891L360.84 439.387L360.298 439.887L359.747 440.391L359.186 440.895L358.613 441.399L358.029 441.9L357.433 442.396L356.824 442.886L356.202 443.367L355.566 443.838L354.917 444.295L354.254 444.739L353.577 445.166L352.888 445.576L352.185 445.966L351.469 446.335L350.741 446.681L350.002 447.003L349.252 447.3L348.492 447.571L347.722 447.815L346.944 448.031L346.158 448.219L345.366 448.377L344.569 448.505L343.767 448.602L342.962 448.669L342.155 448.704L341.346 448.709L340.538 448.682L339.73 448.623L338.925 448.534L338.124 448.414L337.327 448.264L336.535 448.083L335.75 447.874L334.973 447.636L334.204 447.37L333.444 447.077L332.695 446.758L331.957 446.414L331.231 446.047L330.517 445.657L329.816 445.246L329.128 444.814L328.455 444.364L327.796 443.898L327.151 443.415L326.521 442.918L325.906 442.409L325.305 441.889L324.719 441.359L324.148 440.822L323.591 440.278L323.047 439.73L322.517 439.178L322 438.626L321.496 438.073L321.003 437.522L320.52 436.973L320.048 436.429L319.585 435.891L319.131 435.36L318.684 434.837L318.243 434.324L317.807 433.821L317.376 433.33L316.947 432.852L316.521 432.387L316.095 431.936L315.669 431.5L315.241 431.079L314.811 430.674L314.377 430.286L313.938 429.915L313.492 429.56L313.04 429.223L312.58 428.902L312.11 428.599L311.63 428.313L311.14 428.043L310.637 427.789L310.123 427.552L309.595 427.33L309.054 427.123L308.498 426.93L307.928 426.75L307.343 426.583L306.742 426.428L306.127 426.285L305.496 426.151L304.849 426.026L304.188 425.909L303.511 425.799L302.82 425.695L302.114 425.596L301.395 425.501L300.663 425.408L299.917 425.317L299.16 425.226L298.392 425.135L297.613 425.042L296.825 424.945L296.029 424.845L295.225 424.741L294.416 424.63L293.601 424.512L292.782 424.387L291.961 424.253L291.138 424.109L290.315 423.956L289.492 423.791L288.673 423.616L287.856 423.428L287.045 423.227L286.239 423.014L285.44 422.787L284.65 422.547L283.869 422.293L283.097 422.025L282.337 421.743L281.59 421.447L280.855 421.136L280.134 420.812L279.428 420.473L278.738 420.12L278.064 419.753L277.407 419.373L276.768 418.979L276.148 418.571L275.546 418.151L274.964 417.719L274.402 417.274L273.859 416.817L273.338 416.348L272.837 415.869L272.356 415.379L271.897 414.879L271.459 414.37L271.041 413.851L270.644 413.324L270.267 412.789L269.911 412.247L269.575 411.697L269.258 411.142L268.96 410.58L268.68 410.013L268.419 409.441L268.174 408.865L267.946 408.284L267.734 407.701L267.537 407.114L267.354 406.525L267.184 405.934L267.027 405.341L266.881 404.746L266.746 404.151L266.62 403.554L266.504 402.957L266.395 402.36L266.293 401.763L266.197 401.165L266.105 400.568L266.018 399.971L265.934 399.374L265.852 398.777L265.772 398.181L265.692 397.585L265.612 396.989L265.531 396.394L265.449 395.798L265.365 395.202L265.278 394.607L265.188 394.01L265.094 393.413L264.997 392.816L264.895 392.217L264.789 391.617L264.679 391.015" fill="url(#paint5_linear)"/>
<path fill-rule="evenodd" clip-rule="evenodd" d="M821.811 411.762V411.762L821.434 410.749L821.076 409.73L820.737 408.704L820.417 407.672L820.117 406.635L819.837 405.591L819.577 404.542L819.339 403.487L819.121 402.427L818.926 401.363L818.752 400.294L818.601 399.22L818.473 398.142L818.369 397.061L818.288 395.976L818.231 394.888L818.198 393.797L818.19 392.703L818.207 391.608L818.249 390.51L818.316 389.411L818.41 388.311L818.529 387.21L818.675 386.109L818.847 385.008L819.046 383.907L819.271 382.806L819.524 381.707L819.803 380.61L820.11 379.514L820.444 378.421L820.805 377.33L821.194 376.243L821.61 375.159L822.053 374.079L822.523 373.003L823.021 371.932L823.546 370.866L824.098 369.806L824.676 368.751L825.282 367.703L825.913 366.661L826.571 365.626L827.255 364.598L827.965 363.577L828.7 362.565L829.46 361.56L830.245 360.564L831.055 359.577L831.888 358.598L832.745 357.629L833.625 356.669L834.528 355.719L835.453 354.778L836.4 353.847L837.369 352.927L838.359 352.016L839.369 351.116L840.399 350.227L841.449 349.348L842.519 348.48L843.607 347.623L844.713 346.777L845.837 345.942L846.979 345.118L848.138 344.305L849.314 343.504L850.505 342.713L851.712 341.934L852.935 341.166L854.172 340.41L855.424 339.665L856.691 338.931L857.97 338.208L859.263 337.496L860.57 336.796L861.888 336.106L863.219 335.428L864.562 334.761L865.917 334.105L867.283 333.459L868.66 332.825L870.047 332.202L871.445 331.589L872.854 330.988L874.273 330.397L875.701 329.817L877.14 329.248L878.588 328.69L880.045 328.143L881.511 327.607L882.987 327.082L884.471 326.568L885.964 326.065L887.466 325.573L888.977 325.093L890.495 324.624L892.022 324.167L893.558 323.721L895.101 323.287L896.652 322.865L898.211 322.454L899.777 322.056L901.351 321.671L902.932 321.297L904.521 320.937L906.117 320.589L907.719 320.254L909.328 319.932L910.944 319.624L912.566 319.329L914.195 319.048L915.829 318.78L917.469 318.527L919.115 318.288L920.766 318.064L922.422 317.854L924.083 317.659L925.748 317.479L927.418 317.315L929.091 317.166L930.769 317.032L932.45 316.914L934.134 316.812L935.82 316.727L937.509 316.657L939.2 316.604L940.893 316.568L942.587 316.548L944.282 316.545L945.978 316.558L947.674 316.589L949.369 316.637L951.064 316.701L952.759 316.783L954.451 316.882L956.142 316.998L957.831 317.131L959.518 317.281L961.201 317.448L962.881 317.633L964.557 317.835L966.229 318.054L967.897 318.291L969.559 318.544L971.216 318.815L972.867 319.104L974.512 319.409L976.15 319.732L977.781 320.071L979.405 320.428L981.02 320.802L982.627 321.193L984.225 321.6L985.814 322.025L987.393 322.466L988.962 322.924L990.52 323.399L992.068 323.889L993.604 324.396L995.129 324.92L996.642 325.459L998.142 326.014L999.629 326.585L1001.1 327.171L1002.56 327.773L1004.01 328.389L1005.44 329.021L1006.86 329.668L1008.26 330.33L1009.65 331.006L1011.02 331.696L1012.38 332.401L1013.71 333.119L1015.04 333.852L1016.34 334.598L1017.63 335.357L1018.9 336.13L1020.15 336.915L1021.38 337.714L1022.6 338.524L1023.79 339.348L1024.97 340.183L1026.12 341.03L1027.26 341.888L1028.37 342.758L1029.47 343.638L1030.55 344.53L1031.6 345.431L1032.64 346.343L1033.65 347.265L1034.64 348.196L1035.61 349.136L1036.56 350.085L1037.49 351.043L1038.4 352.008L1039.28 352.982L1040.14 353.964L1040.99 354.952L1041.81 355.948L1042.61 356.951L1043.38 357.959L1044.14 358.974L1044.87 359.995L1045.58 361.021L1046.27 362.052L1046.94 363.088L1047.59 364.129L1048.22 365.174L1048.82 366.223L1049.4 367.276L1049.97 368.333L1050.51 369.393L1051.03 370.455L1051.53 371.521L1052 372.589L1052.46 373.66L1052.9 374.733L1053.31 375.808L1053.7 376.884L1054.08 377.962L1054.43 379.042L1054.76 380.122L1055.07 381.203L1055.36 382.286L1055.63 383.368L1055.87 384.451L1056.1 385.534L1056.31 386.617L1056.49 387.699L1056.66 388.782L1056.8 389.863L1056.93 390.943L1057.03 392.023L1057.11 393.101L1057.18 394.178L1057.22 395.253L1057.24 396.326L1057.24 397.397L1057.23 398.466L1057.19 399.533L1057.13 400.597L1057.06 401.658L1056.96 402.716L1056.84 403.772L1056.71 404.824L1056.55 405.872L1056.38 406.917L1056.18 407.958L1055.97 408.995L1055.74 410.028L1055.49 411.056L1055.22 412.08L1054.93 413.099L1054.62 414.113L1054.3 415.123L1053.95 416.127L1053.59 417.125L1053.2 418.118L1052.8 419.105L1052.38 420.086L1051.94 421.061L1051.49 422.03L1051.01 422.992L1050.52 423.947L1050.01 424.895L1049.48 425.837L1048.93 426.771L1048.37 427.697L1047.79 428.616L1047.19 429.527L1046.57 430.429L1045.94 431.324L1045.29 432.21L1044.62 433.088L1043.94 433.957L1043.24 434.817L1042.52 435.668L1041.79 436.51L1041.05 437.343L1040.29 438.166L1039.51 438.98L1038.72 439.784L1037.92 440.578L1037.1 441.362L1036.27 442.137L1035.42 442.901L1034.56 443.655L1033.69 444.398L1032.81 445.132L1031.92 445.855L1031.02 446.567L1030.1 447.269L1029.17 447.961L1028.24 448.642L1027.29 449.312L1026.33 449.972L1025.37 450.621L1024.39 451.259L1023.41 451.887L1022.42 452.504L1021.41 453.11L1020.41 453.706L1019.39 454.29L1018.37 454.864L1017.34 455.428L1016.3 455.98L1015.26 456.522L1014.21 457.054L1013.15 457.574L1012.09 458.084L1011.03 458.584L1009.95 459.073L1008.88 459.552L1007.8 460.021L1006.72 460.479L1005.63 460.927L1004.54 461.365L1003.44 461.794L1002.34 462.212L1001.24 462.621L1000.14 463.02L999.037 463.41L997.931 463.79L996.822 464.162L995.711 464.523L994.599 464.876L993.486 465.22L992.372 465.555L991.257 465.882L990.141 466.199L989.024 466.509L987.907 466.809L986.789 467.102L985.671 467.387L984.553 467.663L983.435 467.932L982.317 468.193L981.2 468.447L980.083 468.693L978.966 468.932L977.85 469.165L976.734 469.39L975.62 469.609L974.506 469.821L973.393 470.027L972.28 470.227L971.169 470.421L970.059 470.609L968.949 470.792L967.841 470.969L966.733 471.141L965.626 471.307L964.52 471.469L963.415 471.625L962.31 471.777L961.206 471.924L960.103 472.066L959 472.204L957.897 472.337L956.795 472.466L955.693 472.59L954.59 472.711L953.488 472.826L952.386 472.938L951.283 473.045L950.18 473.148L949.076 473.246L947.972 473.34L946.867 473.43L945.761 473.515L944.654 473.596L943.545 473.672L942.436 473.743L941.325 473.81L940.213 473.871L939.1 473.928L937.984 473.979L936.868 474.025L935.749 474.066L934.629 474.101L933.507 474.13L932.383 474.153L931.258 474.17L930.13 474.181L929.001 474.185L927.87 474.182L926.737 474.173L925.603 474.156L924.467 474.132L923.329 474.1L922.19 474.061L921.049 474.014L919.908 473.958L918.765 473.895L917.621 473.823L916.476 473.742L915.331 473.652L914.185 473.553L913.039 473.445L911.892 473.328L910.746 473.201L909.6 473.064L908.454 472.918L907.309 472.762L906.165 472.595L905.023 472.419L903.881 472.232L902.741 472.034L901.603 471.827L900.468 471.608L899.334 471.379L898.203 471.139L897.076 470.888L895.951 470.626L894.83 470.354L893.713 470.07L892.6 469.775L891.491 469.47L890.386 469.154L889.286 468.826L888.191 468.488L887.101 468.14L886.016 467.78L884.937 467.41L883.863 467.03L882.795 466.64L881.732 466.239L880.676 465.828L879.625 465.407L878.581 464.977L877.543 464.537L876.511 464.087L875.485 463.628L874.466 463.159L873.453 462.682L872.446 462.196L871.446 461.7L870.453 461.196L869.465 460.684L868.484 460.163L867.51 459.633L866.542 459.096L865.58 458.55L864.625 457.996L863.676 457.434L862.733 456.865L861.797 456.287L860.867 455.702L859.944 455.109L859.026 454.508L858.115 453.9L857.211 453.285L856.312 452.661L855.42 452.031L854.534 451.393L853.655 450.747L852.782 450.094L851.915 449.434L851.054 448.766L850.201 448.091L849.353 447.408L848.512 446.718L847.678 446.02L846.851 445.315L846.03 444.603L845.217 443.883L844.41 443.155L843.61 442.42L842.818 441.677L842.033 440.927L841.256 440.169L840.486 439.403L839.724 438.63L838.97 437.849L838.224 437.06L837.487 436.263L836.758 435.458L836.038 434.645L835.328 433.825L834.626 432.996L833.934 432.16L833.253 431.315L832.581 430.463L831.92 429.602L831.269 428.734L830.63 427.857L830.002 426.973L829.386 426.08L828.783 425.179L828.191 424.271L827.613 423.354L827.047 422.43L826.496 421.498L825.958 420.558L825.435 419.61L824.926 418.655L824.432 417.692L823.954 416.722L823.492 415.744L823.046 414.759L822.617 413.767L822.205 412.768L821.811 411.762" fill="url(#paint6_linear)"/>
<path fill-rule="evenodd" clip-rule="evenodd" d="M968.678 722.135V722.135L968.49 721.633L968.327 721.128L968.19 720.619L968.078 720.108L967.991 719.595L967.928 719.08L967.89 718.564L967.875 718.048L967.882 717.533L967.911 717.017L967.96 716.503L968.029 715.989L968.117 715.478L968.221 714.968L968.341 714.459L968.476 713.953L968.623 713.449L968.782 712.946L968.952 712.446L969.131 711.947L969.317 711.449L969.51 710.952L969.708 710.457L969.91 709.961L970.115 709.466L970.322 708.97L970.53 708.474L970.739 707.976L970.948 707.477L971.156 706.975L971.363 706.47L971.568 705.963L971.773 705.452L971.976 704.937L972.178 704.418L972.379 703.894L972.581 703.366L972.782 702.833L972.985 702.296L973.19 701.754L973.397 701.207L973.607 700.655L973.822 700.099L974.042 699.538L974.267 698.974L974.5 698.406L974.741 697.834L974.991 697.26L975.251 696.683L975.522 696.105L975.805 695.526L976.1 694.947L976.41 694.367L976.733 693.789L977.073 693.213L977.428 692.64L977.8 692.07L978.189 691.505L978.597 690.945L979.023 690.392L979.467 689.846L979.931 689.309L980.414 688.78L980.917 688.262L981.439 687.754L981.98 687.258L982.541 686.775L983.121 686.305L983.72 685.85L984.338 685.409L984.973 684.984L985.626 684.574L986.297 684.181L986.983 683.806L987.685 683.447L988.402 683.106L989.133 682.783L989.877 682.479L990.634 682.192L991.402 681.924L992.181 681.674L992.969 681.442L993.767 681.228L994.572 681.033L995.385 680.854L996.203 680.693L997.027 680.549L997.856 680.421L998.688 680.308L999.523 680.211L1000.36 680.129L1001.2 680.061L1002.04 680.006L1002.88 679.964L1003.72 679.933L1004.55 679.914L1005.39 679.906L1006.23 679.907L1007.06 679.917L1007.89 679.935L1008.72 679.961L1009.55 679.994L1010.37 680.033L1011.19 680.078L1012.01 680.128L1012.82 680.182L1013.64 680.241L1014.45 680.303L1015.25 680.368L1016.06 680.436L1016.86 680.507L1017.67 680.581L1018.47 680.656L1019.27 680.733L1020.07 680.812L1020.87 680.892L1021.66 680.974L1022.46 681.057L1023.26 681.141L1024.06 681.226L1024.86 681.312L1025.66 681.4L1026.46 681.489L1027.26 681.58L1028.07 681.673L1028.88 681.767L1029.68 681.864L1030.5 681.963L1031.31 682.065L1032.13 682.17L1032.95 682.278L1033.77 682.39L1034.59 682.507L1035.42 682.628L1036.25 682.754L1037.08 682.886L1037.91 683.023L1038.75 683.168L1039.59 683.319L1040.43 683.477L1041.27 683.644L1042.11 683.819L1042.95 684.002L1043.79 684.196L1044.63 684.398L1045.47 684.611L1046.3 684.835L1047.14 685.069L1047.97 685.315L1048.8 685.572L1049.62 685.841L1050.44 686.122L1051.26 686.416L1052.07 686.721L1052.87 687.039L1053.67 687.37L1054.46 687.713L1055.24 688.069L1056.01 688.438L1056.77 688.819L1057.53 689.213L1058.27 689.62L1059 690.04L1059.72 690.472L1060.43 690.917L1061.12 691.374L1061.81 691.844L1062.47 692.325L1063.13 692.819L1063.76 693.325L1064.39 693.842L1064.99 694.371L1065.58 694.911L1066.15 695.462L1066.7 696.024L1067.23 696.596L1067.75 697.179L1068.24 697.772L1068.71 698.375L1069.16 698.987L1069.59 699.609L1069.99 700.239L1070.37 700.877L1070.73 701.524L1071.06 702.178L1071.36 702.838L1071.64 703.506L1071.9 704.179L1072.13 704.858L1072.33 705.541L1072.5 706.229L1072.65 706.92L1072.77 707.614L1072.87 708.311L1072.93 709.01L1072.97 709.71L1072.98 710.41L1072.97 711.111L1072.93 711.81L1072.86 712.508L1072.77 713.205L1072.65 713.898L1072.51 714.589L1072.34 715.276L1072.15 715.959L1071.94 716.637L1071.7 717.309L1071.44 717.976L1071.16 718.636L1070.86 719.29L1070.54 719.937L1070.21 720.576L1069.85 721.207L1069.48 721.83L1069.09 722.445L1068.69 723.051L1068.27 723.649L1067.84 724.237L1067.4 724.816L1066.95 725.386L1066.49 725.946L1066.02 726.497L1065.54 727.039L1065.06 727.572L1064.57 728.096L1064.08 728.61L1063.58 729.116L1063.09 729.614L1062.59 730.103L1062.09 730.585L1061.6 731.059L1061.1 731.527L1060.61 731.987L1060.13 732.442L1059.65 732.89L1059.17 733.334L1058.7 733.772L1058.23 734.207L1057.78 734.637L1057.33 735.065L1056.88 735.489L1056.45 735.911L1056.02 736.332L1055.6 736.751L1055.19 737.17L1054.78 737.589L1054.38 738.007L1054 738.427L1053.61 738.848L1053.24 739.27L1052.87 739.695L1052.51 740.122L1052.16 740.552L1051.81 740.985L1051.47 741.421L1051.13 741.862L1050.8 742.306L1050.47 742.754L1050.14 743.206L1049.81 743.663L1049.49 744.123L1049.16 744.588L1048.84 745.056L1048.51 745.527L1048.18 746.002L1047.85 746.481L1047.51 746.961L1047.16 747.444L1046.81 747.928L1046.45 748.414L1046.09 748.9L1045.71 749.386L1045.33 749.872L1044.93 750.356L1044.52 750.838L1044.1 751.317L1043.67 751.793L1043.23 752.264L1042.77 752.73L1042.3 753.19L1041.81 753.644L1041.31 754.09L1040.8 754.527L1040.27 754.956L1039.72 755.375L1039.16 755.783L1038.59 756.18L1038 756.564L1037.39 756.936L1036.78 757.295L1036.15 757.639L1035.5 757.969L1034.84 758.283L1034.17 758.581L1033.49 758.862L1032.8 759.125L1032.09 759.371L1031.37 759.598L1030.65 759.807L1029.91 759.996L1029.17 760.166L1028.42 760.315L1027.66 760.445L1026.9 760.553L1026.13 760.642L1025.36 760.709L1024.58 760.755L1023.81 760.781L1023.03 760.786L1022.25 760.77L1021.47 760.733L1020.69 760.676L1019.91 760.598L1019.14 760.5L1018.37 760.383L1017.6 760.245L1016.84 760.089L1016.09 759.913L1015.34 759.719L1014.6 759.507L1013.87 759.277L1013.15 759.029L1012.44 758.764L1011.74 758.483L1011.06 758.185L1010.38 757.873L1009.72 757.545L1009.06 757.203L1008.43 756.847L1007.8 756.479L1007.19 756.098L1006.6 755.706L1006.02 755.303L1005.46 754.891L1004.91 754.469L1004.37 754.039L1003.86 753.602L1003.35 753.158L1002.87 752.709L1002.4 752.254L1001.94 751.796L1001.5 751.334L1001.08 750.871L1000.66 750.405L1000.27 749.939L999.885 749.474L999.516 749.009L999.16 748.545L998.816 748.085L998.484 747.627L998.163 747.173L997.852 746.723L997.552 746.279L997.26 745.84L996.977 745.407L996.701 744.98L996.432 744.561L996.169 744.148L995.912 743.744L995.658 743.347L995.409 742.959L995.161 742.58L994.916 742.209L994.671 741.846L994.427 741.493L994.181 741.15L993.934 740.815L993.684 740.489L993.431 740.173L993.173 739.865L992.91 739.567L992.641 739.277L992.366 738.996L992.083 738.723L991.792 738.458L991.493 738.2L991.184 737.949L990.866 737.705L990.538 737.467L990.199 737.235L989.85 737.008L989.489 736.785L989.117 736.567L988.734 736.351L988.34 736.139L987.934 735.928L987.517 735.719L987.089 735.51L986.649 735.302L986.199 735.093L985.738 734.883L985.266 734.671L984.785 734.457L984.293 734.24L983.793 734.019L983.284 733.794L982.767 733.564L982.242 733.328L981.711 733.087L981.174 732.839L980.633 732.583L980.087 732.321L979.54 732.05L978.99 731.77L978.44 731.482L977.892 731.184L977.345 730.876L976.802 730.558L976.264 730.23L975.732 729.892L975.208 729.543L974.693 729.184L974.188 728.814L973.694 728.433L973.214 728.042L972.749 727.64L972.298 727.229L971.865 726.807L971.45 726.376L971.053 725.936L970.677 725.486L970.322 725.029L969.989 724.563L969.679 724.09L969.392 723.61L969.13 723.124L968.891 722.632L968.678 722.135" fill="url(#paint7_linear)"/>
<path fill-rule="evenodd" clip-rule="evenodd" d="M751.821 329.605L753.008 330.259L754.212 330.929L755.431 331.616L756.662 332.318L757.899 333.038L759.141 333.776L760.383 334.53L761.622 335.303L762.855 336.093L764.078 336.901L765.288 337.727L766.482 338.571L767.657 339.432L768.81 340.311L769.94 341.206L771.042 342.119L772.116 343.048L773.16 343.993L774.17 344.954L775.146 345.93L776.086 346.921L776.987 347.927L777.848 348.947L778.666 349.98L779.44 351.026L780.167 352.083L780.844 353.152L781.47 354.231L782.039 355.319L782.55 356.415L782.999 357.517L783.384 358.625L783.701 359.736L783.949 360.85L784.126 361.966L784.23 363.08L784.26 364.194L784.213 365.304L784.09 366.41L783.89 367.51L783.611 368.602L783.253 369.686L782.817 370.76L782.301 371.822L781.707 372.871L781.034 373.906L780.283 374.926L779.455 375.929L778.551 376.914L777.571 377.88L776.517 378.826L775.39 379.75L774.191 380.651L772.922 381.529L771.583 382.382L770.178 383.209L768.707 384.009L767.172 384.782L765.575 385.525L763.919 386.239L762.204 386.923L760.434 387.575L758.609 388.194L756.733 388.781L754.808 389.335L752.837 389.854L750.82 390.338L748.762 390.787L746.665 391.2L744.53 391.577L742.362 391.917L740.162 392.221L737.934 392.487L735.681 392.717L733.404 392.909L731.108 393.064L728.794 393.183L726.467 393.264L724.129 393.31L721.783 393.32L719.432 393.295L717.079 393.235L714.727 393.142L712.38 393.016L710.038 392.858L707.707 392.67L705.388 392.452L703.084 392.206L700.798 391.935L698.532 391.638L696.289 391.319L694.071 390.979L691.881 390.621L689.72 390.247L687.591 389.861L685.495 389.465L683.434 389.061L681.409 388.654L679.422 388.247L677.472 387.843L675.56 387.445L673.685 387.058L671.848 386.684L670.048 386.327L668.282 385.99L666.551 385.677L664.85 385.391L663.18 385.135L661.535 384.912L659.914 384.723L658.314 384.573L656.729 384.461L655.158 384.391L653.595 384.363L652.036 384.378L650.477 384.436L648.915 384.539L647.343 384.686L645.759 384.876L644.158 385.108L642.535 385.38L640.888 385.693L639.212 386.042L637.504 386.426L635.762 386.841L633.982 387.286L632.162 387.756L630.3 388.248L628.396 388.758L626.448 389.282L624.456 389.815L622.421 390.353L620.342 390.892L618.222 391.427L616.062 391.953L613.865 392.465L611.634 392.959L609.372 393.431L607.082 393.874L604.771 394.286L602.442 394.661L600.1 394.996L597.752 395.287L595.404 395.53L593.061 395.721L590.73 395.858L588.418 395.939L586.131 395.959L583.876 395.919L581.661 395.815L579.491 395.648L577.373 395.415L575.314 395.117L573.319 394.754L571.394 394.325L569.544 393.833L567.774 393.279L566.089 392.663L564.491 391.988L562.985 391.256L561.572 390.471L560.255 389.635L559.034 388.751L557.91 387.823L556.883 386.854L555.951 385.849L555.113 384.812L554.367 383.746L553.709 382.656L553.138 381.546L552.649 380.418L552.24 379.278L551.905 378.128L551.641 376.971L551.443 375.812L551.307 374.652L551.226 373.496L551.197 372.345L551.214 371.203L551.271 370.071L551.365 368.951L551.489 367.845L551.64 366.755L551.814 365.682L552.006 364.626L552.212 363.589L552.428 362.571L552.65 361.573L552.873 360.596L553.094 359.639L553.308 358.704L553.511 357.791L553.699 356.899L553.868 356.028L554.014 355.179L554.134 354.351L554.225 353.543L554.284 352.756L554.307 351.988L554.292 351.238L554.238 350.507L554.142 349.792L554.002 349.092L553.819 348.408L553.591 347.736L553.317 347.077L552.999 346.428L552.636 345.789L552.229 345.157L551.78 344.533L551.289 343.913L550.76 343.298L550.194 342.685L549.594 342.073L548.962 341.462L548.302 340.849L547.617 340.234L546.91 339.616L546.186 338.993L545.448 338.366L544.7 337.732L543.947 337.092L543.192 336.445L542.439 335.79L541.693 335.127L540.957 334.456L540.237 333.776L539.535 333.088L538.855 332.392L538.201 331.687L537.577 330.974L536.984 330.254L536.426 329.525L535.906 328.79L535.425 328.048L534.984 327.301L534.586 326.547L534.232 325.789L533.92 325.027L533.653 324.26L533.43 323.491L533.25 322.718L533.112 321.944L533.016 321.167L532.96 320.39L532.944 319.611L532.967 318.832L533.029 318.052L533.131 317.273L533.273 316.495L533.455 315.719L533.677 314.944L533.941 314.173L534.247 313.404L534.595 312.639L534.988 311.88L535.425 311.125L535.908 310.377L536.438 309.636L537.017 308.903L537.646 308.179L538.327 307.466L539.06 306.764L539.847 306.075L540.687 305.399L541.581 304.738L542.527 304.092L543.525 303.462L544.572 302.848L545.668 302.252L546.81 301.673L547.995 301.112L549.221 300.569L550.484 300.043L551.782 299.536L553.111 299.046L554.466 298.574L555.845 298.118L557.244 297.677L558.658 297.252L560.085 296.84L561.519 296.441L562.957 296.054L564.396 295.676L565.832 295.308L567.261 294.947L568.681 294.591L570.09 294.24L571.483 293.891L572.859 293.544L574.217 293.195L575.554 292.844L576.869 292.49L578.16 292.13L579.429 291.763L580.673 291.388L581.893 291.003L583.09 290.608L584.263 290.201L585.414 289.781L586.544 289.348L587.653 288.901L588.745 288.438L589.82 287.96L590.88 287.466L591.927 286.957L592.964 286.431L593.992 285.889L595.015 285.331L596.035 284.757L597.053 284.168L598.074 283.565L599.098 282.947L600.129 282.316L601.17 281.672L602.222 281.017L603.288 280.351L604.371 279.675L605.471 278.992L606.592 278.301L607.736 277.604L608.903 276.902L610.096 276.196L611.315 275.488L612.563 274.778L613.839 274.066L615.145 273.355L616.481 272.644L617.848 271.934L619.246 271.225L620.676 270.519L622.139 269.815L623.634 269.114L625.161 268.416L626.723 267.723L628.317 267.034L629.946 266.352L631.608 265.675L633.305 265.007L635.036 264.347L636.802 263.696L638.601 263.057L640.435 262.429L642.302 261.814L644.203 261.213L646.137 260.627L648.102 260.056L650.1 259.503L652.128 258.968L654.187 258.452L656.274 257.957L658.389 257.483L660.531 257.032L662.698 256.605L664.889 256.202L667.103 255.827L669.337 255.478L671.59 255.159L673.86 254.869L676.144 254.61L678.442 254.384L680.749 254.191L683.064 254.032L685.384 253.91L687.707 253.824L690.029 253.776L692.348 253.767L694.66 253.798L696.962 253.87L699.252 253.983L701.524 254.139L703.777 254.338L706.005 254.582L708.207 254.869L710.377 255.202L712.513 255.579L714.61 256.003L716.665 256.471L718.675 256.985L720.635 257.544L722.542 258.148L724.393 258.796L726.184 259.487L727.913 260.221L729.577 260.997L731.173 261.813L732.698 262.668L734.151 263.56L735.529 264.488L736.831 265.45L738.056 266.444L739.202 267.469L740.27 268.521L741.259 269.599L742.168 270.7L743 271.821L743.754 272.961L744.432 274.116L745.036 275.285L745.568 276.463L746.029 277.65L746.42 278.843L746.745 280.04L747.004 281.24L747.2 282.439L747.334 283.638L747.409 284.833L747.427 286.025L747.39 287.21L747.3 288.388L747.16 289.558L746.972 290.717L746.74 291.866L746.467 293.002L746.154 294.124L745.806 295.232L745.425 296.324L745.016 297.4L744.58 298.458L744.123 299.498L743.648 300.519L743.158 301.52L742.658 302.501L742.152 303.461L741.644 304.4L741.137 305.316L740.636 306.211L740.146 307.084L739.67 307.934L739.212 308.763L738.777 309.569L738.368 310.353L737.989 311.116L737.645 311.858L737.338 312.579L737.073 313.281L736.852 313.963L736.678 314.627L736.555 315.274L736.484 315.904L736.468 316.519L736.51 317.12L736.61 317.709L736.77 318.285L736.992 318.852L737.275 319.41L737.62 319.961L738.027 320.506L738.497 321.047L739.027 321.585L739.617 322.122L740.267 322.659L740.973 323.197L741.735 323.739L742.55 324.285L743.416 324.837L744.33 325.396L745.29 325.964L746.292 326.541L747.333 327.129L748.409 327.728L749.519 328.34L750.657 328.965L751.821 329.605Z" fill="url(#paint8_linear)"/>
<path fill-rule="evenodd" clip-rule="evenodd" d="M465.407 903.715V903.715L464.836 903.121L464.281 902.517L463.743 901.903L463.223 901.279L462.721 900.646L462.239 900.003L461.777 899.352L461.335 898.693L460.915 898.026L460.517 897.351L460.142 896.669L459.791 895.981L459.464 895.287L459.161 894.587L458.885 893.883L458.635 893.174L458.412 892.461L458.218 891.746L458.052 891.028L457.915 890.308L457.809 889.588L457.733 888.867L457.689 888.147L457.676 887.428L457.696 886.711L457.749 885.997L457.835 885.287L457.954 884.582L458.107 883.882L458.295 883.188L458.517 882.501L458.774 881.823L459.065 881.154L459.391 880.494L459.752 879.846L460.148 879.209L460.579 878.584L461.045 877.974L461.545 877.377L462.08 876.796L462.648 876.231L463.249 875.683L463.882 875.153L464.547 874.64L465.242 874.146L465.966 873.671L466.718 873.216L467.496 872.781L468.3 872.366L469.127 871.971L469.977 871.596L470.847 871.242L471.735 870.908L472.641 870.594L473.561 870.299L474.495 870.024L475.44 869.768L476.394 869.531L477.356 869.311L478.323 869.107L479.295 868.92L480.268 868.748L481.241 868.59L482.213 868.446L483.181 868.313L484.145 868.191L485.102 868.079L486.05 867.975L486.99 867.879L487.918 867.788L488.835 867.701L489.739 867.617L490.628 867.535L491.503 867.453L492.362 867.37L493.205 867.284L494.031 867.195L494.84 867.1L495.632 866.999L496.407 866.89L497.164 866.772L497.904 866.644L498.627 866.505L499.333 866.355L500.023 866.191L500.698 866.014L501.357 865.823L502.003 865.617L502.636 865.396L503.257 865.16L503.866 864.907L504.466 864.639L505.056 864.354L505.639 864.054L506.216 863.738L506.788 863.408L507.356 863.062L507.921 862.703L508.486 862.33L509.051 861.946L509.618 861.551L510.188 861.146L510.762 860.734L511.342 860.316L511.929 859.893L512.524 859.467L513.128 859.041L513.742 858.617L514.367 858.195L515.003 857.779L515.65 857.371L516.31 856.972L516.982 856.585L517.667 856.211L518.364 855.853L519.073 855.513L519.795 855.193L520.528 854.893L521.272 854.616L522.026 854.363L522.79 854.136L523.562 853.935L524.343 853.762L525.13 853.616L525.922 853.5L526.719 853.414L527.519 853.357L528.322 853.33L529.125 853.334L529.928 853.368L530.729 853.432L531.528 853.526L532.322 853.65L533.112 853.803L533.895 853.985L534.671 854.195L535.438 854.432L536.196 854.695L536.944 854.983L537.681 855.295L538.406 855.63L539.118 855.986L539.818 856.362L540.503 856.758L541.175 857.17L541.832 857.597L542.475 858.039L543.103 858.493L543.717 858.958L544.317 859.432L544.902 859.913L545.473 860.4L546.031 860.891L546.576 861.384L547.109 861.879L547.63 862.372L548.14 862.864L548.641 863.351L549.132 863.834L549.615 864.311L550.091 864.779L550.562 865.239L551.027 865.69L551.489 866.129L551.949 866.557L552.407 866.973L552.866 867.375L553.325 867.764L553.787 868.139L554.253 868.5L554.723 868.846L555.198 869.178L555.681 869.494L556.171 869.796L556.67 870.084L557.178 870.358L557.697 870.618L558.226 870.865L558.768 871.099L559.321 871.322L559.886 871.533L560.465 871.734L561.056 871.926L561.66 872.109L562.276 872.286L562.905 872.456L563.546 872.621L564.198 872.784L564.86 872.944L565.531 873.104L566.21 873.265L566.896 873.429L567.587 873.596L568.282 873.769L568.978 873.949L569.675 874.136L570.371 874.333L571.063 874.541L571.75 874.76L572.429 874.991L573.099 875.236L573.757 875.496L574.402 875.77L575.032 876.06L575.644 876.366L576.238 876.688L576.811 877.027L577.361 877.382L577.888 877.754L578.389 878.143L578.865 878.547L579.312 878.968L579.731 879.403L580.12 879.854L580.479 880.319L580.808 880.797L581.104 881.288L581.369 881.792L581.601 882.307L581.801 882.832L581.969 883.366L582.105 883.909L582.209 884.46L582.282 885.018L582.324 885.58L582.336 886.148L582.319 886.719L582.274 887.293L582.202 887.868L582.104 888.444L581.982 889.02L581.836 889.595L581.67 890.168L581.483 890.737L581.278 891.304L581.057 891.866L580.821 892.423L580.572 892.975L580.313 893.521L580.044 894.06L579.768 894.593L579.486 895.118L579.202 895.636L578.915 896.146L578.629 896.649L578.346 897.144L578.066 897.631L577.791 898.111L577.523 898.583L577.265 899.048L577.016 899.506L576.778 899.957L576.554 900.402L576.343 900.841L576.147 901.275L575.966 901.704L575.802 902.129L575.655 902.55L575.526 902.968L575.415 903.383L575.322 903.796L575.248 904.208L575.193 904.619L575.155 905.03L575.136 905.442L575.135 905.855L575.151 906.27L575.184 906.687L575.232 907.107L575.296 907.53L575.375 907.957L575.467 908.388L575.571 908.824L575.688 909.264L575.816 909.711L575.955 910.163L576.102 910.621L576.258 911.086L576.422 911.557L576.592 912.035L576.768 912.52L576.949 913.013L577.133 913.512L577.321 914.019L577.51 914.534L577.7 915.056L577.89 915.586L578.078 916.123L578.265 916.668L578.449 917.22L578.629 917.779L578.805 918.346L578.975 918.919L579.138 919.5L579.294 920.087L579.441 920.68L579.58 921.28L579.709 921.885L579.827 922.496L579.935 923.113L580.029 923.734L580.111 924.359L580.18 924.989L580.233 925.622L580.272 926.259L580.294 926.898L580.3 927.539L580.288 928.181L580.258 928.824L580.21 929.468L580.142 930.111L580.054 930.753L579.945 931.393L579.816 932.03L579.664 932.665L579.491 933.295L579.295 933.921L579.077 934.541L578.835 935.155L578.57 935.761L578.282 936.36L577.969 936.95L577.633 937.531L577.273 938.101L576.889 938.661L576.482 939.208L576.05 939.743L575.596 940.265L575.117 940.772L574.616 941.265L574.092 941.743L573.546 942.204L572.978 942.649L572.389 943.077L571.779 943.487L571.149 943.878L570.5 944.251L569.832 944.604L569.145 944.938L568.442 945.252L567.722 945.545L566.986 945.818L566.236 946.07L565.472 946.301L564.696 946.511L563.907 946.701L563.108 946.869L562.299 947.016L561.481 947.142L560.655 947.247L559.823 947.332L558.985 947.397L558.142 947.442L557.295 947.468L556.446 947.474L555.595 947.462L554.743 947.432L553.892 947.384L553.041 947.319L552.192 947.238L551.347 947.141L550.504 947.029L549.666 946.902L548.833 946.761L548.005 946.607L547.184 946.441L546.369 946.262L545.561 946.073L544.762 945.873L543.971 945.664L543.188 945.446L542.415 945.22L541.651 944.986L540.896 944.747L540.152 944.502L539.418 944.252L538.694 943.999L537.98 943.742L537.277 943.484L536.584 943.224L535.902 942.964L535.229 942.704L534.567 942.445L533.915 942.187L533.272 941.933L532.638 941.681L532.014 941.433L531.398 941.189L530.791 940.95L530.192 940.716L529.6 940.488L529.015 940.266L528.436 940.05L527.864 939.84L527.297 939.637L526.735 939.441L526.178 939.251L525.625 939.068L525.076 938.892L524.53 938.723L523.987 938.559L523.446 938.402L522.907 938.25L522.37 938.104L521.834 937.963L521.299 937.827L520.765 937.694L520.231 937.565L519.698 937.439L519.166 937.316L518.633 937.194L518.1 937.074L517.568 936.954L517.036 936.834L516.505 936.713L515.974 936.591L515.443 936.466L514.914 936.339L514.386 936.209L513.859 936.075L513.334 935.936L512.812 935.792L512.292 935.642L511.775 935.486L511.262 935.324L510.752 935.154L510.247 934.978L509.747 934.793L509.253 934.6L508.764 934.399L508.282 934.19L507.806 933.972L507.337 933.745L506.876 933.51L506.423 933.266L505.978 933.013L505.542 932.752L505.114 932.483L504.695 932.206L504.286 931.921L503.885 931.629L503.494 931.33L503.112 931.024L502.74 930.712L502.376 930.395L502.021 930.072L501.674 929.745L501.335 929.414L501.004 929.08L500.68 928.743L500.362 928.404L500.05 928.063L499.743 927.722L499.44 927.38L499.141 927.039L498.845 926.698L498.55 926.359L498.256 926.021L497.963 925.686L497.668 925.353L497.372 925.024L497.073 924.697L496.77 924.374L496.462 924.055L496.15 923.74L495.831 923.428L495.505 923.12L495.172 922.817L494.83 922.516L494.48 922.22L494.12 921.927L493.75 921.637L493.37 921.35L492.979 921.066L492.577 920.784L492.163 920.504L491.737 920.225L491.3 919.948L490.85 919.672L490.387 919.396L489.912 919.12L489.424 918.844L488.924 918.567L488.41 918.289L487.884 918.008L487.345 917.726L486.793 917.441L486.23 917.152L485.654 916.86L485.067 916.563L484.468 916.262L483.859 915.955L483.239 915.643L482.609 915.324L481.97 914.998L481.322 914.666L480.666 914.326L480.003 913.977L479.334 913.621L478.658 913.255L477.978 912.88L477.294 912.496L476.606 912.102L475.916 911.697L475.225 911.283L474.534 910.857L473.844 910.421L473.155 909.973L472.469 909.515L471.786 909.044L471.109 908.563L470.438 908.07L469.773 907.565L469.117 907.049L468.47 906.522L467.833 905.983L467.207 905.432L466.594 904.871L465.993 904.298L465.407 903.715" fill="url(#paint9_linear)"/>
<path fill-rule="evenodd" clip-rule="evenodd" d="M528.374 298.502V298.502L528.494 297.928L528.652 297.358L528.849 296.791L529.086 296.23L529.362 295.675L529.677 295.127L530.031 294.587L530.422 294.056L530.848 293.535L531.309 293.024L531.802 292.525L532.325 292.038L532.875 291.564L533.45 291.102L534.048 290.654L534.665 290.218L535.3 289.796L535.95 289.388L536.612 288.993L537.285 288.611L537.967 288.242L538.657 287.887L539.353 287.544L540.054 287.215L540.759 286.898L541.466 286.593L542.174 286.301L542.883 286.02L543.589 285.751L544.293 285.492L544.993 285.243L545.687 285.005L546.375 284.775L547.056 284.554L547.728 284.341L548.391 284.136L549.044 283.936L549.685 283.743L550.315 283.555L550.932 283.371L551.536 283.191L552.126 283.013L552.701 282.837L553.261 282.662L553.806 282.487L554.335 282.311L554.847 282.134L555.343 281.953L555.821 281.769L556.283 281.581L556.727 281.386L557.155 281.185L557.565 280.976L557.957 280.759L558.334 280.533L558.694 280.296L559.037 280.048L559.366 279.789L559.68 279.517L559.98 279.232L560.267 278.934L560.542 278.622L560.806 278.296L561.061 277.955L561.306 277.599L561.545 277.23L561.777 276.845L562.005 276.446L562.23 276.034L562.453 275.607L562.676 275.168L562.9 274.716L563.127 274.252L563.358 273.777L563.595 273.291L563.838 272.797L564.089 272.293L564.35 271.782L564.62 271.264L564.902 270.741L565.196 270.213L565.504 269.68L565.825 269.145L566.16 268.608L566.511 268.07L566.877 267.531L567.259 266.993L567.657 266.457L568.072 265.922L568.504 265.391L568.953 264.863L569.419 264.34L569.903 263.822L570.404 263.311L570.922 262.807L571.457 262.309L572.01 261.82L572.579 261.339L573.164 260.866L573.766 260.403L574.384 259.948L575.017 259.502L575.666 259.065L576.329 258.635L577.007 258.213L577.699 257.798L578.405 257.39L579.125 256.989L579.859 256.594L580.607 256.205L581.368 255.823L582.143 255.447L582.931 255.078L583.733 254.716L584.548 254.362L585.376 254.016L586.216 253.68L587.07 253.353L587.936 253.038L588.814 252.736L589.703 252.447L590.604 252.172L591.515 251.913L592.435 251.672L593.363 251.449L594.3 251.246L595.243 251.065L596.192 250.906L597.145 250.77L598.101 250.66L599.059 250.576L600.016 250.52L600.973 250.492L601.926 250.494L602.874 250.526L603.816 250.589L604.749 250.684L605.672 250.812L606.584 250.974L607.481 251.169L608.363 251.398L609.226 251.661L610.071 251.959L610.893 252.291L611.693 252.657L612.467 253.058L613.215 253.492L613.934 253.959L614.624 254.458L615.281 254.989L615.906 255.55L616.497 256.141L617.053 256.761L617.572 257.407L618.054 258.079L618.499 258.775L618.906 259.494L619.274 260.233L619.604 260.99L619.896 261.765L620.151 262.554L620.369 263.355L620.55 264.166L620.697 264.985L620.81 265.81L620.892 266.638L620.944 267.467L620.969 268.294L620.968 269.117L620.945 269.934L620.902 270.743L620.843 271.542L620.769 272.328L620.686 273.1L620.594 273.856L620.499 274.595L620.404 275.316L620.31 276.017L620.222 276.697L620.143 277.356L620.076 277.994L620.024 278.609L619.99 279.202L619.976 279.773L619.986 280.322L620.022 280.848L620.087 281.354L620.182 281.838L620.31 282.303L620.471 282.749L620.668 283.177L620.902 283.589L621.173 283.986L621.481 284.37L621.826 284.742L622.209 285.104L622.627 285.457L623.08 285.804L623.566 286.147L624.084 286.487L624.63 286.827L625.202 287.167L625.798 287.51L626.413 287.858L627.044 288.212L627.687 288.573L628.339 288.944L628.995 289.324L629.65 289.715L630.301 290.119L630.942 290.535L631.57 290.964L632.179 291.406L632.767 291.861L633.328 292.33L633.858 292.812L634.355 293.307L634.813 293.813L635.231 294.331L635.605 294.859L635.932 295.396L636.211 295.941L636.44 296.492L636.616 297.049L636.74 297.61L636.81 298.174L636.825 298.739L636.787 299.303L636.696 299.865L636.552 300.424L636.356 300.978L636.111 301.526L635.817 302.066L635.477 302.599L635.093 303.121L634.668 303.633L634.204 304.134L633.704 304.623L633.172 305.098L632.61 305.561L632.021 306.011L631.41 306.446L630.779 306.868L630.131 307.277L629.472 307.672L628.803 308.054L628.129 308.424L627.453 308.783L626.779 309.13L626.109 309.468L625.446 309.797L624.795 310.118L624.158 310.433L623.539 310.744L622.939 311.051L622.362 311.357L621.81 311.663L621.285 311.971L620.789 312.282L620.323 312.599L619.887 312.922L619.483 313.254L619.11 313.596L618.769 313.949L618.458 314.314L618.177 314.692L617.925 315.086L617.7 315.494L617.501 315.918L617.324 316.357L617.169 316.814L617.032 317.286L616.911 317.774L616.803 318.278L616.705 318.798L616.615 319.331L616.53 319.878L616.446 320.438L616.362 321.009L616.273 321.59L616.178 322.179L616.073 322.775L615.957 323.377L615.827 323.983L615.681 324.591L615.518 325.199L615.335 325.806L615.131 326.41L614.905 327.01L614.655 327.604L614.382 328.19L614.085 328.768L613.762 329.335L613.415 329.891L613.043 330.435L612.646 330.965L612.226 331.481L611.781 331.983L611.314 332.47L610.824 332.941L610.313 333.396L609.782 333.835L609.232 334.259L608.664 334.667L608.078 335.06L607.477 335.438L606.861 335.802L606.232 336.151L605.589 336.487L604.935 336.81L604.271 337.121L603.596 337.42L602.913 337.708L602.221 337.987L601.522 338.255L600.815 338.515L600.103 338.768L599.385 339.013L598.661 339.252L597.933 339.486L597.199 339.714L596.461 339.935L595.717 340.149L594.968 340.355L594.213 340.551L593.452 340.736L592.685 340.907L591.913 341.063L591.135 341.203L590.352 341.324L589.564 341.425L588.772 341.504L587.977 341.56L587.18 341.591L586.381 341.596L585.581 341.574L584.782 341.524L583.985 341.445L583.192 341.336L582.403 341.197L581.619 341.027L580.844 340.827L580.076 340.597L579.319 340.336L578.573 340.047L577.84 339.73L577.121 339.386L576.416 339.016L575.726 338.622L575.054 338.206L574.398 337.771L573.759 337.317L573.138 336.847L572.535 336.364L571.949 335.871L571.38 335.369L570.828 334.861L570.292 334.35L569.771 333.839L569.265 333.329L568.77 332.824L568.288 332.326L567.815 331.836L567.351 331.358L566.893 330.892L566.441 330.442L565.991 330.007L565.542 329.589L565.093 329.191L564.642 328.811L564.186 328.451L563.724 328.112L563.255 327.793L562.777 327.494L562.289 327.216L561.789 326.956L561.276 326.716L560.751 326.493L560.211 326.287L559.656 326.096L559.087 325.919L558.502 325.754L557.903 325.6L557.289 325.455L556.66 325.318L556.019 325.186L555.364 325.058L554.698 324.932L554.021 324.806L553.335 324.679L552.642 324.548L551.942 324.412L551.238 324.268L550.532 324.117L549.826 323.956L549.12 323.783L548.418 323.598L547.722 323.4L547.031 323.188L546.348 322.962L545.674 322.722L545.01 322.467L544.357 322.197L543.717 321.912L543.09 321.612L542.479 321.298L541.883 320.968L541.303 320.624L540.74 320.265L540.194 319.893L539.666 319.508L539.155 319.111L538.662 318.702L538.185 318.282L537.725 317.851L537.281 317.411L536.852 316.963L536.438 316.507L536.036 316.043L535.647 315.573L535.269 315.097L534.902 314.616L534.543 314.13L534.193 313.64L533.85 313.146L533.514 312.648L533.184 312.147L532.859 311.643L532.539 311.135L532.223 310.624L531.913 310.11L531.607 309.593L531.306 309.073L531.012 308.549L530.724 308.021L530.443 307.49L530.172 306.954L529.91 306.415L529.661 305.871L529.425 305.324L529.204 304.772L529 304.216L528.816 303.655L528.654 303.092L528.515 302.524L528.402 301.954L528.316 301.381L528.261 300.807L528.237 300.23L528.247 299.654L528.292 299.077L528.374 298.502" fill="url(#paint10_linear)"/>
<path fill-rule="evenodd" clip-rule="evenodd" d="M666.983 572.054V572.054L667.32 571.568L667.665 571.089L668.017 570.615L668.375 570.147L668.739 569.686L669.108 569.23L669.482 568.781L669.86 568.338L670.241 567.901L670.626 567.47L671.014 567.045L671.403 566.626L671.793 566.212L672.185 565.804L672.576 565.402L672.968 565.005L673.358 564.613L673.748 564.225L674.135 563.843L674.52 563.465L674.903 563.091L675.282 562.722L675.658 562.356L676.03 561.993L676.398 561.634L676.761 561.277L677.119 560.924L677.471 560.572L677.819 560.223L678.16 559.875L678.495 559.529L678.824 559.183L679.146 558.839L679.461 558.494L679.769 558.149L680.069 557.804L680.362 557.457L680.646 557.11L680.923 556.76L681.191 556.408L681.45 556.053L681.701 555.695L681.944 555.333L682.177 554.968L682.402 554.597L682.618 554.222L682.826 553.841L683.025 553.454L683.217 553.061L683.4 552.662L683.576 552.255L683.744 551.841L683.905 551.42L684.06 550.99L684.209 550.552L684.352 550.106L684.489 549.651L684.623 549.187L684.752 548.714L684.878 548.231L685 547.739L685.121 547.238L685.241 546.727L685.359 546.207L685.478 545.677L685.597 545.138L685.718 544.589L685.841 544.031L685.967 543.464L686.097 542.888L686.232 542.303L686.372 541.71L686.518 541.109L686.672 540.5L686.833 539.883L687.003 539.26L687.182 538.63L687.371 537.994L687.571 537.352L687.782 536.706L688.006 536.055L688.243 535.399L688.493 534.741L688.757 534.08L689.036 533.416L689.33 532.751L689.64 532.086L689.966 531.42L690.308 530.755L690.668 530.091L691.044 529.428L691.439 528.769L691.851 528.113L692.281 527.461L692.73 526.813L693.197 526.171L693.682 525.536L694.186 524.907L694.709 524.285L695.25 523.672L695.81 523.067L696.388 522.473L696.985 521.89L697.6 521.318L698.234 520.759L698.886 520.214L699.557 519.683L700.245 519.168L700.95 518.67L701.673 518.189L702.412 517.726L703.168 517.283L703.939 516.861L704.726 516.459L705.528 516.08L706.343 515.725L707.172 515.393L708.013 515.086L708.866 514.804L709.729 514.549L710.603 514.321L711.486 514.121L712.376 513.949L713.274 513.806L714.177 513.693L715.086 513.611L715.998 513.559L716.912 513.538L717.828 513.549L718.744 513.592L719.659 513.667L720.572 513.774L721.481 513.912L722.385 514.083L723.284 514.284L724.175 514.516L725.057 514.778L725.93 515.069L726.793 515.389L727.644 515.737L728.482 516.111L729.307 516.511L730.118 516.935L730.913 517.383L731.693 517.852L732.457 518.341L733.204 518.85L733.934 519.375L734.647 519.917L735.342 520.472L736.019 521.04L736.679 521.618L737.321 522.206L737.947 522.8L738.555 523.401L739.147 524.005L739.723 524.611L740.283 525.218L740.829 525.823L741.361 526.426L741.881 527.025L742.388 527.618L742.885 528.204L743.371 528.781L743.85 529.349L744.32 529.905L744.785 530.45L745.244 530.981L745.7 531.499L746.153 532.002L746.606 532.489L747.058 532.96L747.512 533.415L747.97 533.853L748.431 534.274L748.897 534.677L749.37 535.063L749.851 535.432L750.34 535.784L750.839 536.119L751.348 536.438L751.869 536.74L752.402 537.027L752.947 537.3L753.506 537.559L754.078 537.804L754.664 538.038L755.264 538.26L755.878 538.472L756.506 538.676L757.148 538.871L757.802 539.061L758.469 539.246L759.148 539.427L759.838 539.606L760.538 539.785L761.246 539.964L761.961 540.146L762.683 540.331L763.409 540.521L764.138 540.717L764.868 540.921L765.598 541.133L766.325 541.356L767.049 541.589L767.767 541.833L768.477 542.091L769.178 542.361L769.867 542.646L770.544 542.945L771.207 543.258L771.853 543.587L772.482 543.931L773.093 544.291L773.683 544.665L774.252 545.055L774.8 545.46L775.325 545.879L775.826 546.312L776.302 546.759L776.754 547.219L777.18 547.692L777.58 548.178L777.954 548.674L778.301 549.182L778.622 549.7L778.917 550.227L779.185 550.763L779.428 551.307L779.644 551.858L779.836 552.415L780.003 552.978L780.147 553.545L780.268 554.117L780.366 554.691L780.444 555.269L780.502 555.848L780.541 556.428L780.563 557.008L780.569 557.588L780.56 558.167L780.538 558.745L780.504 559.321L780.46 559.895L780.407 560.466L780.347 561.034L780.281 561.598L780.21 562.159L780.138 562.717L780.064 563.27L779.99 563.82L779.918 564.366L779.849 564.908L779.785 565.446L779.727 565.98L779.675 566.512L779.631 567.04L779.597 567.565L779.572 568.088L779.559 568.609L779.556 569.128L779.566 569.646L779.589 570.163L779.624 570.679L779.673 571.196L779.736 571.714L779.812 572.232L779.901 572.753L780.004 573.275L780.12 573.8L780.248 574.329L780.388 574.86L780.539 575.396L780.701 575.937L780.873 576.482L781.053 577.032L781.241 577.588L781.434 578.15L781.632 578.717L781.833 579.29L782.035 579.87L782.236 580.455L782.435 581.046L782.628 581.642L782.814 582.244L782.991 582.851L783.157 583.462L783.309 584.077L783.446 584.695L783.565 585.317L783.665 585.94L783.742 586.564L783.796 587.188L783.825 587.812L783.827 588.434L783.8 589.053L783.743 589.669L783.655 590.28L783.534 590.885L783.38 591.483L783.191 592.074L782.968 592.655L782.709 593.226L782.415 593.786L782.085 594.333L781.718 594.867L781.317 595.387L780.879 595.892L780.407 596.381L779.9 596.853L779.36 597.308L778.786 597.744L778.181 598.162L777.545 598.559L776.879 598.937L776.184 599.295L775.463 599.631L774.717 599.947L773.946 600.242L773.153 600.515L772.34 600.768L771.508 600.999L770.659 601.209L769.795 601.399L768.918 601.569L768.029 601.719L767.132 601.849L766.226 601.961L765.315 602.056L764.4 602.133L763.483 602.194L762.566 602.239L761.651 602.271L760.739 602.289L759.831 602.295L758.93 602.289L758.037 602.274L757.153 602.25L756.28 602.219L755.418 602.181L754.569 602.139L753.733 602.092L752.913 602.043L752.107 601.993L751.318 601.943L750.545 601.894L749.789 601.848L749.05 601.805L748.329 601.767L747.625 601.734L746.939 601.708L746.271 601.69L745.62 601.681L744.985 601.681L744.368 601.691L743.766 601.712L743.18 601.744L742.609 601.788L742.052 601.845L741.508 601.914L740.977 601.997L740.458 602.092L739.949 602.201L739.45 602.323L738.961 602.458L738.479 602.606L738.004 602.768L737.535 602.942L737.071 603.13L736.612 603.33L736.156 603.542L735.703 603.767L735.251 604.004L734.8 604.253L734.349 604.513L733.897 604.784L733.444 605.066L732.988 605.358L732.529 605.661L732.066 605.972L731.599 606.293L731.126 606.622L730.648 606.959L730.162 607.304L729.67 607.655L729.17 608.013L728.662 608.377L728.145 608.745L727.619 609.119L727.084 609.497L726.538 609.879L725.983 610.263L725.416 610.651L724.839 611.041L724.251 611.433L723.651 611.826L723.039 612.22L722.416 612.614L721.78 613.007L721.133 613.4L720.473 613.79L719.8 614.178L719.115 614.563L718.418 614.944L717.708 615.32L716.986 615.691L716.251 616.057L715.505 616.415L714.746 616.766L713.976 617.108L713.195 617.442L712.402 617.766L711.599 618.08L710.786 618.383L709.962 618.674L709.129 618.952L708.288 619.218L707.437 619.47L706.579 619.707L705.714 619.93L704.841 620.137L703.963 620.328L703.08 620.502L702.191 620.66L701.299 620.8L700.403 620.923L699.505 621.027L698.605 621.112L697.704 621.179L696.803 621.226L695.902 621.254L695.003 621.263L694.106 621.252L693.211 621.221L692.32 621.17L691.434 621.099L690.553 621.007L689.678 620.896L688.809 620.765L687.948 620.614L687.095 620.444L686.25 620.254L685.416 620.044L684.591 619.816L683.777 619.568L682.974 619.302L682.183 619.018L681.405 618.717L680.639 618.397L679.887 618.061L679.149 617.708L678.424 617.339L677.715 616.954L677.02 616.554L676.34 616.139L675.676 615.71L675.028 615.267L674.396 614.811L673.779 614.343L673.18 613.862L672.596 613.369L672.03 612.865L671.48 612.351L670.947 611.827L670.43 611.293L669.93 610.75L669.447 610.199L668.981 609.64L668.531 609.073L668.097 608.5L667.679 607.92L667.278 607.334L666.892 606.743L666.522 606.147L666.168 605.547L665.828 604.942L665.504 604.334L665.194 603.723L664.899 603.109L664.618 602.493L664.351 601.875L664.098 601.254L663.859 600.633L663.633 600.01L663.42 599.386L663.221 598.761L663.035 598.136L662.861 597.511L662.7 596.886L662.552 596.261L662.415 595.637L662.292 595.013L662.18 594.389L662.08 593.767L661.993 593.146L661.917 592.525L661.853 591.907L661.801 591.289L661.761 590.673L661.732 590.059L661.715 589.447L661.711 588.837L661.717 588.228L661.736 587.622L661.767 587.018L661.809 586.417L661.863 585.818L661.929 585.222L662.008 584.628L662.098 584.037L662.2 583.45L662.314 582.865L662.439 582.284L662.577 581.706L662.727 581.132L662.889 580.561L663.063 579.994L663.248 579.431L663.445 578.873L663.653 578.318L663.873 577.768L664.105 577.223L664.347 576.683L664.6 576.147L664.864 575.616L665.138 575.091L665.422 574.571L665.716 574.056L666.02 573.547L666.332 573.044L666.654 572.546L666.983 572.054" fill="url(#paint11_linear)"/>
</g>
<defs>
<filter id="filter0_f" x="0.87146" y="0.384033" width="1329.7" height="1197.39" filterUnits="userSpaceOnUse" color-interpolation-filters="sRGB">
<feFlood flood-opacity="0" result="BackgroundImageFix"/>
<feBlend mode="normal" in="SourceGraphic" in2="BackgroundImageFix" result="shape"/>
<feGaussianBlur stdDeviation="125" result="effect1_foregroundBlur"/>
</filter>
<linearGradient id="paint0_linear" x1="444.135" y1="917.739" x2="478.732" y2="1019.9" gradientUnits="userSpaceOnUse">
<stop stop-color="#D10FAB"/>
<stop offset="1" stop-color="#4F03CC"/>
</linearGradient>
<linearGradient id="paint1_linear" x1="304.17" y1="694.463" x2="289.223" y2="614.16" gradientUnits="userSpaceOnUse">
<stop stop-color="#140F87"/>
<stop offset="1" stop-color="#FAE6D4"/>
</linearGradient>
<linearGradient id="paint2_linear" x1="1153.46" y1="924.022" x2="1167.29" y2="1025.01" gradientUnits="userSpaceOnUse">
<stop stop-color="#3845F7"/>
<stop offset="1" stop-color="#170F1C"/>
</linearGradient>
<linearGradient id="paint3_linear" x1="731.644" y1="930.114" x2="753.182" y2="817.288" gradientUnits="userSpaceOnUse">
<stop stop-color="#BDB05C"/>
<stop offset="1" stop-color="#4AE014"/>
</linearGradient>
<linearGradient id="paint4_linear" x1="994.25" y1="612.262" x2="970.234" y2="539.662" gradientUnits="userSpaceOnUse">
<stop stop-color="#DB7A8F"/>
<stop offset="1" stop-color="#E3E67A"/>
</linearGradient>
<linearGradient id="paint5_linear" x1="376.166" y1="519.963" x2="499.448" y2="599.417" gradientUnits="userSpaceOnUse">
<stop stop-color="#AD248F"/>
<stop offset="1" stop-color="#26851F"/>
</linearGradient>
<linearGradient id="paint6_linear" x1="977.009" y1="586.478" x2="1151.81" y2="711.305" gradientUnits="userSpaceOnUse">
<stop stop-color="#0D05CC"/>
<stop offset="1" stop-color="#D9A173"/>
</linearGradient>
<linearGradient id="paint7_linear" x1="994.52" y1="730.574" x2="1024.69" y2="651.684" gradientUnits="userSpaceOnUse">
<stop stop-color="#424233"/>
<stop offset="1" stop-color="#E8213D"/>
</linearGradient>
<linearGradient id="paint8_linear" x1="393.768" y1="234.449" x2="414.216" y2="90.9205" gradientUnits="userSpaceOnUse">
<stop stop-color="#364F3D"/>
<stop offset="1" stop-color="#949C8C"/>
</linearGradient>
<linearGradient id="paint9_linear" x1="86.9396" y1="1290.92" x2="27.1295" y2="1204.63" gradientUnits="userSpaceOnUse">
<stop stop-color="#85F00F"/>
<stop offset="1" stop-color="#14A84A"/>
</linearGradient>
<linearGradient id="paint10_linear" x1="615.101" y1="395.866" x2="713.741" y2="435.476" gradientUnits="userSpaceOnUse">
<stop stop-color="#1C871C"/>
<stop offset="1" stop-color="#91C212"/>
</linearGradient>
<linearGradient id="paint11_linear" x1="886.542" y1="749.461" x2="977.755" y2="676.602" gradientUnits="userSpaceOnUse">
<stop stop-color="#960DD1"/>
<stop offset="1" stop-color="#3BDE47"/>
</linearGradient>
</defs>
</svg>
