<svg width="170" height="34" viewBox="0 0 170 34" fill="none" xmlns="http://www.w3.org/2000/svg">
<rect width="170" height="34" fill="white"/>
<path d="M33.5 19.5H31M21.5 10.5V25.5V10.5ZM18.5 23.5H21H18.5ZM24.5 14.5H22H24.5ZM30.5 9.5V24.5V9.5ZM27.5 12.5H30H27.5Z" stroke="black" stroke-linecap="square"/>
<path d="M62.25 18.8672C62.25 20.1589 61.9531 21.1979 61.3594 21.9844C60.7656 22.7656 59.9688 23.1562 58.9688 23.1562C57.901 23.1562 57.0755 22.7786 56.4922 22.0234L56.4219 23H55.0938V11H56.5391V15.4766C57.1224 14.7526 57.9271 14.3906 58.9531 14.3906C59.9792 14.3906 60.7839 14.7786 61.3672 15.5547C61.9557 16.3307 62.25 17.3932 62.25 18.7422V18.8672ZM60.8047 18.7031C60.8047 17.7188 60.6146 16.9583 60.2344 16.4219C59.8542 15.8854 59.3073 15.6172 58.5938 15.6172C57.6406 15.6172 56.9557 16.0599 56.5391 16.9453V20.6016C56.9818 21.487 57.6719 21.9297 58.6094 21.9297C59.3021 21.9297 59.8411 21.6615 60.2266 21.125C60.612 20.5885 60.8047 19.7812 60.8047 18.7031ZM69.2969 23C69.2135 22.8333 69.1458 22.5365 69.0938 22.1094C68.4219 22.8073 67.6198 23.1562 66.6875 23.1562C65.8542 23.1562 65.1693 22.9219 64.6328 22.4531C64.1016 21.9792 63.8359 21.3802 63.8359 20.6562C63.8359 19.776 64.1693 19.0938 64.8359 18.6094C65.5078 18.1198 66.4505 17.875 67.6641 17.875H69.0703V17.2109C69.0703 16.7057 68.9193 16.3047 68.6172 16.0078C68.3151 15.7057 67.8698 15.5547 67.2812 15.5547C66.7656 15.5547 66.3333 15.6849 65.9844 15.9453C65.6354 16.2057 65.4609 16.5208 65.4609 16.8906H64.0078C64.0078 16.4688 64.1562 16.0625 64.4531 15.6719C64.7552 15.276 65.1615 14.9635 65.6719 14.7344C66.1875 14.5052 66.7526 14.3906 67.3672 14.3906C68.3411 14.3906 69.1042 14.6354 69.6562 15.125C70.2083 15.6094 70.4948 16.2786 70.5156 17.1328V21.0234C70.5156 21.7995 70.6146 22.4167 70.8125 22.875V23H69.2969ZM66.8984 21.8984C67.3516 21.8984 67.7812 21.7812 68.1875 21.5469C68.5938 21.3125 68.888 21.0078 69.0703 20.6328V18.8984H67.9375C66.1667 18.8984 65.2812 19.4167 65.2812 20.4531C65.2812 20.9062 65.4323 21.2604 65.7344 21.5156C66.0365 21.7708 66.4245 21.8984 66.8984 21.8984ZM76.8672 15.8438C76.6484 15.8073 76.4115 15.7891 76.1562 15.7891C75.2083 15.7891 74.5651 16.1927 74.2266 17V23H72.7812V14.5469H74.1875L74.2109 15.5234C74.6849 14.7682 75.3568 14.3906 76.2266 14.3906C76.5078 14.3906 76.7214 14.4271 76.8672 14.5V15.8438ZM83.125 20.7578C83.125 20.3672 82.9766 20.0651 82.6797 19.8516C82.388 19.6328 81.875 19.4453 81.1406 19.2891C80.4115 19.1328 79.8307 18.9453 79.3984 18.7266C78.9714 18.5078 78.6536 18.2474 78.4453 17.9453C78.2422 17.6432 78.1406 17.2839 78.1406 16.8672C78.1406 16.1745 78.4323 15.5885 79.0156 15.1094C79.6042 14.6302 80.3542 14.3906 81.2656 14.3906C82.224 14.3906 83 14.638 83.5938 15.1328C84.1927 15.6276 84.4922 16.2604 84.4922 17.0312H83.0391C83.0391 16.6354 82.8698 16.2943 82.5312 16.0078C82.1979 15.7214 81.776 15.5781 81.2656 15.5781C80.7396 15.5781 80.3281 15.6927 80.0312 15.9219C79.7344 16.151 79.5859 16.4505 79.5859 16.8203C79.5859 17.1693 79.724 17.4323 80 17.6094C80.276 17.7865 80.7734 17.9557 81.4922 18.1172C82.2161 18.2786 82.8021 18.4714 83.25 18.6953C83.6979 18.9193 84.0286 19.1901 84.2422 19.5078C84.4609 19.8203 84.5703 20.2031 84.5703 20.6562C84.5703 21.4115 84.2682 22.0182 83.6641 22.4766C83.0599 22.9297 82.276 23.1562 81.3125 23.1562C80.6354 23.1562 80.0365 23.0365 79.5156 22.7969C78.9948 22.5573 78.5859 22.224 78.2891 21.7969C77.9974 21.3646 77.8516 20.8984 77.8516 20.3984H79.2969C79.3229 20.8828 79.5156 21.2682 79.875 21.5547C80.2396 21.8359 80.7188 21.9766 81.3125 21.9766C81.8594 21.9766 82.2969 21.8672 82.625 21.6484C82.9583 21.4245 83.125 21.1276 83.125 20.7578Z" fill="black"/>
</svg>
