<svg width="170" height="34" viewBox="0 0 170 34" fill="none" xmlns="http://www.w3.org/2000/svg">
<rect width="170" height="34" fill="white"/>
<path d="M15 17.5H37" stroke="black" stroke-dasharray="1 1"/>
<path d="M18.5 15.5L20.5 11.5L21.5 13.5L23.5 9.5L26.5 15.5" stroke="black" stroke-linecap="round" stroke-linejoin="round"/>
<path d="M16.5 19.5L15.5 21.5" stroke="black" stroke-linecap="round"/>
<path d="M28.5 19.5L30.5 23.5L32.5 19.5H28.5ZM34.5 15.5L35.5 13.5L34.5 15.5Z" stroke="black" stroke-linecap="round" stroke-linejoin="round"/>
<path d="M62.25 18.8672C62.25 20.1589 61.9531 21.1979 61.3594 21.9844C60.7656 22.7656 59.9688 23.1562 58.9688 23.1562C57.901 23.1562 57.0755 22.7786 56.4922 22.0234L56.4219 23H55.0938V11H56.5391V15.4766C57.1224 14.7526 57.9271 14.3906 58.9531 14.3906C59.9792 14.3906 60.7839 14.7786 61.3672 15.5547C61.9557 16.3307 62.25 17.3932 62.25 18.7422V18.8672ZM60.8047 18.7031C60.8047 17.7188 60.6146 16.9583 60.2344 16.4219C59.8542 15.8854 59.3073 15.6172 58.5938 15.6172C57.6406 15.6172 56.9557 16.0599 56.5391 16.9453V20.6016C56.9818 21.487 57.6719 21.9297 58.6094 21.9297C59.3021 21.9297 59.8411 21.6615 60.2266 21.125C60.612 20.5885 60.8047 19.7812 60.8047 18.7031ZM69.2969 23C69.2135 22.8333 69.1458 22.5365 69.0938 22.1094C68.4219 22.8073 67.6198 23.1562 66.6875 23.1562C65.8542 23.1562 65.1693 22.9219 64.6328 22.4531C64.1016 21.9792 63.8359 21.3802 63.8359 20.6562C63.8359 19.776 64.1693 19.0938 64.8359 18.6094C65.5078 18.1198 66.4505 17.875 67.6641 17.875H69.0703V17.2109C69.0703 16.7057 68.9193 16.3047 68.6172 16.0078C68.3151 15.7057 67.8698 15.5547 67.2812 15.5547C66.7656 15.5547 66.3333 15.6849 65.9844 15.9453C65.6354 16.2057 65.4609 16.5208 65.4609 16.8906H64.0078C64.0078 16.4688 64.1562 16.0625 64.4531 15.6719C64.7552 15.276 65.1615 14.9635 65.6719 14.7344C66.1875 14.5052 66.7526 14.3906 67.3672 14.3906C68.3411 14.3906 69.1042 14.6354 69.6562 15.125C70.2083 15.6094 70.4948 16.2786 70.5156 17.1328V21.0234C70.5156 21.7995 70.6146 22.4167 70.8125 22.875V23H69.2969ZM66.8984 21.8984C67.3516 21.8984 67.7812 21.7812 68.1875 21.5469C68.5938 21.3125 68.888 21.0078 69.0703 20.6328V18.8984H67.9375C66.1667 18.8984 65.2812 19.4167 65.2812 20.4531C65.2812 20.9062 65.4323 21.2604 65.7344 21.5156C66.0365 21.7708 66.4245 21.8984 66.8984 21.8984ZM77.7031 20.7578C77.7031 20.3672 77.5547 20.0651 77.2578 19.8516C76.9661 19.6328 76.4531 19.4453 75.7188 19.2891C74.9896 19.1328 74.4089 18.9453 73.9766 18.7266C73.5495 18.5078 73.2318 18.2474 73.0234 17.9453C72.8203 17.6432 72.7188 17.2839 72.7188 16.8672C72.7188 16.1745 73.0104 15.5885 73.5938 15.1094C74.1823 14.6302 74.9323 14.3906 75.8438 14.3906C76.8021 14.3906 77.5781 14.638 78.1719 15.1328C78.7708 15.6276 79.0703 16.2604 79.0703 17.0312H77.6172C77.6172 16.6354 77.4479 16.2943 77.1094 16.0078C76.776 15.7214 76.3542 15.5781 75.8438 15.5781C75.3177 15.5781 74.9062 15.6927 74.6094 15.9219C74.3125 16.151 74.1641 16.4505 74.1641 16.8203C74.1641 17.1693 74.3021 17.4323 74.5781 17.6094C74.8542 17.7865 75.3516 17.9557 76.0703 18.1172C76.7943 18.2786 77.3802 18.4714 77.8281 18.6953C78.276 18.9193 78.6068 19.1901 78.8203 19.5078C79.0391 19.8203 79.1484 20.2031 79.1484 20.6562C79.1484 21.4115 78.8464 22.0182 78.2422 22.4766C77.638 22.9297 76.8542 23.1562 75.8906 23.1562C75.2135 23.1562 74.6146 23.0365 74.0938 22.7969C73.5729 22.5573 73.1641 22.224 72.8672 21.7969C72.5755 21.3646 72.4297 20.8984 72.4297 20.3984H73.875C73.901 20.8828 74.0938 21.2682 74.4531 21.5547C74.8177 21.8359 75.2969 21.9766 75.8906 21.9766C76.4375 21.9766 76.875 21.8672 77.2031 21.6484C77.5365 21.4245 77.7031 21.1276 77.7031 20.7578ZM84.5391 23.1562C83.3932 23.1562 82.4609 22.7812 81.7422 22.0312C81.0234 21.276 80.6641 20.2682 80.6641 19.0078V18.7422C80.6641 17.9036 80.8229 17.1562 81.1406 16.5C81.4635 15.8385 81.9115 15.3229 82.4844 14.9531C83.0625 14.5781 83.6875 14.3906 84.3594 14.3906C85.4583 14.3906 86.3125 14.7526 86.9219 15.4766C87.5312 16.2005 87.8359 17.237 87.8359 18.5859V19.1875H82.1094C82.1302 20.0208 82.3724 20.6953 82.8359 21.2109C83.3047 21.7214 83.8984 21.9766 84.6172 21.9766C85.1276 21.9766 85.5599 21.8724 85.9141 21.6641C86.2682 21.4557 86.5781 21.1797 86.8438 20.8359L87.7266 21.5234C87.0182 22.612 85.9557 23.1562 84.5391 23.1562ZM84.3594 15.5781C83.776 15.5781 83.2865 15.7917 82.8906 16.2188C82.4948 16.6406 82.25 17.2344 82.1562 18H86.3906V17.8906C86.349 17.1562 86.151 16.5885 85.7969 16.1875C85.4427 15.7812 84.9635 15.5781 84.3594 15.5781ZM91.0859 23H89.6406V11H91.0859V23ZM94.9766 23H93.5312V14.5469H94.9766V23ZM93.4141 12.3047C93.4141 12.0703 93.4844 11.8724 93.625 11.7109C93.7708 11.5495 93.9844 11.4688 94.2656 11.4688C94.5469 11.4688 94.7604 11.5495 94.9062 11.7109C95.0521 11.8724 95.125 12.0703 95.125 12.3047C95.125 12.5391 95.0521 12.7344 94.9062 12.8906C94.7604 13.0469 94.5469 13.125 94.2656 13.125C93.9844 13.125 93.7708 13.0469 93.625 12.8906C93.4844 12.7344 93.4141 12.5391 93.4141 12.3047ZM98.6641 14.5469L98.7109 15.6094C99.3568 14.7969 100.201 14.3906 101.242 14.3906C103.029 14.3906 103.93 15.3984 103.945 17.4141V23H102.5V17.4062C102.495 16.7969 102.354 16.3464 102.078 16.0547C101.807 15.763 101.383 15.6172 100.805 15.6172C100.336 15.6172 99.9245 15.7422 99.5703 15.9922C99.2161 16.2422 98.9401 16.5703 98.7422 16.9766V23H97.2969V14.5469H98.6641ZM109.633 23.1562C108.487 23.1562 107.555 22.7812 106.836 22.0312C106.117 21.276 105.758 20.2682 105.758 19.0078V18.7422C105.758 17.9036 105.917 17.1562 106.234 16.5C106.557 15.8385 107.005 15.3229 107.578 14.9531C108.156 14.5781 108.781 14.3906 109.453 14.3906C110.552 14.3906 111.406 14.7526 112.016 15.4766C112.625 16.2005 112.93 17.237 112.93 18.5859V19.1875H107.203C107.224 20.0208 107.466 20.6953 107.93 21.2109C108.398 21.7214 108.992 21.9766 109.711 21.9766C110.221 21.9766 110.654 21.8724 111.008 21.6641C111.362 21.4557 111.672 21.1797 111.938 20.8359L112.82 21.5234C112.112 22.612 111.049 23.1562 109.633 23.1562ZM109.453 15.5781C108.87 15.5781 108.38 15.7917 107.984 16.2188C107.589 16.6406 107.344 17.2344 107.25 18H111.484V17.8906C111.443 17.1562 111.245 16.5885 110.891 16.1875C110.536 15.7812 110.057 15.5781 109.453 15.5781Z" fill="black"/>
</svg>
