<svg width="20" height="20" viewBox="0 0 20 20" fill="none" xmlns="http://www.w3.org/2000/svg">
<rect width="20" height="20" rx="2" fill="#2AC468"/>
<path d="M8.60547 12.6667V6.26825H10.6973C11.3916 6.26825 11.9131 6.4118 12.2617 6.69891C12.6133 6.98602 12.7891 7.41083 12.7891 7.97333C12.7891 8.27216 12.7041 8.53729 12.5342 8.76874C12.3643 8.99725 12.1328 9.1745 11.8398 9.30048C12.1855 9.39716 12.458 9.58173 12.6572 9.85419C12.8594 10.1237 12.9604 10.446 12.9604 10.821C12.9604 11.3952 12.7744 11.8464 12.4023 12.1745C12.0303 12.5026 11.5044 12.6667 10.8247 12.6667H8.60547ZM9.44922 9.67401V11.9767H10.8423C11.2349 11.9767 11.5439 11.8757 11.7695 11.6735C11.998 11.4684 12.1123 11.1872 12.1123 10.8298C12.1123 10.0593 11.6934 9.67401 10.8555 9.67401H9.44922ZM9.44922 8.99725H10.7236C11.0928 8.99725 11.3872 8.90497 11.6069 8.7204C11.8296 8.53583 11.9409 8.28534 11.9409 7.96893C11.9409 7.61737 11.8384 7.36249 11.6333 7.20428C11.4282 7.04315 11.1162 6.96259 10.6973 6.96259H9.44922V8.99725Z" fill="black"/>
</svg>
