<svg width="46" height="45" viewBox="0 0 46 45" fill="none" xmlns="http://www.w3.org/2000/svg">
<rect y="-1" width="46" height="46" fill="white"/>
<path d="M27.2857 17.7143V26.2858H31.5715V17.7143H27.2857ZM26.5715 16.2858H32.2857C32.4752 16.2858 32.6569 16.361 32.7908 16.495C32.9248 16.6289 33 16.8106 33 17.0001V27.0001C33 27.1895 32.9248 27.3712 32.7908 27.5051C32.6569 27.6391 32.4752 27.7143 32.2857 27.7143H26.5715C26.382 27.7143 26.2003 27.6391 26.0664 27.5051C25.9324 27.3712 25.8572 27.1895 25.8572 27.0001V17.0001C25.8572 16.8106 25.9324 16.6289 26.0664 16.495C26.2003 16.361 26.382 16.2858 26.5715 16.2858Z" fill="black"/>
<path d="M28.7144 12H30.1429V17H28.7144V12ZM28.7144 27H30.1429V32H28.7144V27Z" fill="black"/>
<path d="M15.857 13.4286V30.5714H20.1428V13.4286H15.857ZM15.1428 12H20.857C21.0465 12 21.2282 12.0753 21.3621 12.2092C21.4961 12.3432 21.5713 12.5248 21.5713 12.7143V31.2857C21.5713 31.4752 21.4961 31.6568 21.3621 31.7908C21.2282 31.9247 21.0465 32 20.857 32H15.1428C14.9533 32 14.7716 31.9247 14.6377 31.7908C14.5037 31.6568 14.4285 31.4752 14.4285 31.2857V12.7143C14.4285 12.5248 14.5037 12.3432 14.6377 12.2092C14.7716 12.0753 14.9533 12 15.1428 12Z" fill="black"/>
<path d="M17.2856 7.71423H18.7142V12.7142H17.2856V7.71423ZM17.2856 31.2857H18.7142V36.2857H17.2856V31.2857Z" fill="black"/>
</svg>
