<svg width="170" height="34" viewBox="0 0 170 34" fill="none" xmlns="http://www.w3.org/2000/svg">
<rect width="170" height="34" fill="white"/>
<path d="M29 13V19H32V13H29ZM28.5 12H32.5C32.6326 12 32.7598 12.0527 32.8536 12.1464C32.9473 12.2402 33 12.3674 33 12.5V19.5C33 19.6326 32.9473 19.7598 32.8536 19.8536C32.7598 19.9473 32.6326 20 32.5 20H28.5C28.3674 20 28.2402 19.9473 28.1464 19.8536C28.0527 19.7598 28 19.6326 28 19.5V12.5C28 12.3674 28.0527 12.2402 28.1464 12.1464C28.2402 12.0527 28.3674 12 28.5 12Z" fill="black"/>
<path d="M30 9H31V12.5H30V9ZM30 19.5H31V23H30V19.5Z" fill="black"/>
<path d="M21 10V22H24V10H21ZM20.5 9H24.5C24.6326 9 24.7598 9.05268 24.8536 9.14645C24.9473 9.24021 25 9.36739 25 9.5V22.5C25 22.6326 24.9473 22.7598 24.8536 22.8536C24.7598 22.9473 24.6326 23 24.5 23H20.5C20.3674 23 20.2402 22.9473 20.1464 22.8536C20.0527 22.7598 20 22.6326 20 22.5V9.5C20 9.36739 20.0527 9.24021 20.1464 9.14645C20.2402 9.05268 20.3674 9 20.5 9Z" fill="black"/>
<path d="M22 6H23V9.5H22V6ZM22 22.5H23V26H22V22.5Z" fill="black"/>
<path d="M58.4844 21.9766C59 21.9766 59.4505 21.8203 59.8359 21.5078C60.2214 21.1953 60.4349 20.8047 60.4766 20.3359H61.8438C61.8177 20.8203 61.651 21.2812 61.3438 21.7188C61.0365 22.1562 60.625 22.5052 60.1094 22.7656C59.599 23.026 59.0573 23.1562 58.4844 23.1562C57.3333 23.1562 56.4167 22.7734 55.7344 22.0078C55.0573 21.237 54.7188 20.1849 54.7188 18.8516V18.6094C54.7188 17.7865 54.8698 17.0547 55.1719 16.4141C55.474 15.7734 55.9062 15.276 56.4688 14.9219C57.0365 14.5677 57.7057 14.3906 58.4766 14.3906C59.4245 14.3906 60.2109 14.6745 60.8359 15.2422C61.4661 15.8099 61.8021 16.5469 61.8438 17.4531H60.4766C60.4349 16.9062 60.2266 16.4583 59.8516 16.1094C59.4818 15.7552 59.0234 15.5781 58.4766 15.5781C57.7422 15.5781 57.1719 15.8438 56.7656 16.375C56.3646 16.901 56.1641 17.6641 56.1641 18.6641V18.9375C56.1641 19.9115 56.3646 20.6615 56.7656 21.1875C57.1667 21.7135 57.7396 21.9766 58.4844 21.9766ZM68.6875 23C68.6042 22.8333 68.5365 22.5365 68.4844 22.1094C67.8125 22.8073 67.0104 23.1562 66.0781 23.1562C65.2448 23.1562 64.5599 22.9219 64.0234 22.4531C63.4922 21.9792 63.2266 21.3802 63.2266 20.6562C63.2266 19.776 63.5599 19.0938 64.2266 18.6094C64.8984 18.1198 65.8411 17.875 67.0547 17.875H68.4609V17.2109C68.4609 16.7057 68.3099 16.3047 68.0078 16.0078C67.7057 15.7057 67.2604 15.5547 66.6719 15.5547C66.1562 15.5547 65.724 15.6849 65.375 15.9453C65.026 16.2057 64.8516 16.5208 64.8516 16.8906H63.3984C63.3984 16.4688 63.5469 16.0625 63.8438 15.6719C64.1458 15.276 64.5521 14.9635 65.0625 14.7344C65.5781 14.5052 66.1432 14.3906 66.7578 14.3906C67.7318 14.3906 68.4948 14.6354 69.0469 15.125C69.599 15.6094 69.8854 16.2786 69.9062 17.1328V21.0234C69.9062 21.7995 70.0052 22.4167 70.2031 22.875V23H68.6875ZM66.2891 21.8984C66.7422 21.8984 67.1719 21.7812 67.5781 21.5469C67.9844 21.3125 68.2786 21.0078 68.4609 20.6328V18.8984H67.3281C65.5573 18.8984 64.6719 19.4167 64.6719 20.4531C64.6719 20.9062 64.8229 21.2604 65.125 21.5156C65.4271 21.7708 65.8151 21.8984 66.2891 21.8984ZM73.5391 14.5469L73.5859 15.6094C74.2318 14.7969 75.0755 14.3906 76.1172 14.3906C77.9036 14.3906 78.8047 15.3984 78.8203 17.4141V23H77.375V17.4062C77.3698 16.7969 77.2292 16.3464 76.9531 16.0547C76.6823 15.763 76.2578 15.6172 75.6797 15.6172C75.2109 15.6172 74.7995 15.7422 74.4453 15.9922C74.0911 16.2422 73.8151 16.5703 73.6172 16.9766V23H72.1719V14.5469H73.5391ZM80.6484 18.7031C80.6484 17.4062 80.9557 16.3646 81.5703 15.5781C82.1849 14.7865 82.9896 14.3906 83.9844 14.3906C84.974 14.3906 85.7578 14.7292 86.3359 15.4062V11H87.7812V23H86.4531L86.3828 22.0938C85.8047 22.8021 85 23.1562 83.9688 23.1562C82.9896 23.1562 82.1901 22.7552 81.5703 21.9531C80.9557 21.151 80.6484 20.1042 80.6484 18.8125V18.7031ZM82.0938 18.8672C82.0938 19.8255 82.2917 20.5755 82.6875 21.1172C83.0833 21.6589 83.6302 21.9297 84.3281 21.9297C85.2448 21.9297 85.9141 21.5182 86.3359 20.6953V16.8125C85.9036 16.0156 85.2396 15.6172 84.3438 15.6172C83.6354 15.6172 83.0833 15.8906 82.6875 16.4375C82.2917 16.9844 82.0938 17.7943 82.0938 18.8672ZM91.6016 23H90.1562V11H91.6016V23ZM97.4297 23.1562C96.2839 23.1562 95.3516 22.7812 94.6328 22.0312C93.9141 21.276 93.5547 20.2682 93.5547 19.0078V18.7422C93.5547 17.9036 93.7135 17.1562 94.0312 16.5C94.3542 15.8385 94.8021 15.3229 95.375 14.9531C95.9531 14.5781 96.5781 14.3906 97.25 14.3906C98.349 14.3906 99.2031 14.7526 99.8125 15.4766C100.422 16.2005 100.727 17.237 100.727 18.5859V19.1875H95C95.0208 20.0208 95.263 20.6953 95.7266 21.2109C96.1953 21.7214 96.7891 21.9766 97.5078 21.9766C98.0182 21.9766 98.4505 21.8724 98.8047 21.6641C99.1589 21.4557 99.4688 21.1797 99.7344 20.8359L100.617 21.5234C99.9089 22.612 98.8464 23.1562 97.4297 23.1562ZM97.25 15.5781C96.6667 15.5781 96.1771 15.7917 95.7812 16.2188C95.3854 16.6406 95.1406 17.2344 95.0469 18H99.2812V17.8906C99.2396 17.1562 99.0417 16.5885 98.6875 16.1875C98.3333 15.7812 97.8542 15.5781 97.25 15.5781Z" fill="black"/>
</svg>
