<svg width="64" height="31" viewBox="0 0 64 31" fill="none" xmlns="http://www.w3.org/2000/svg">
<g clip-path="url(#clip0)">
<g filter="url(#filter0_d)">
<path d="M45.5582 7.1429C45.3332 7.9429 45.2207 8.7804 45.2207 9.6304C45.2207 14.7304 49.3707 18.8804 54.4707 18.8804C55.3207 18.8804 56.1582 18.7679 56.9582 18.5429C55.6582 21.7429 52.5082 24.0054 48.8457 24.0054C44.0207 24.0054 40.0957 20.0804 40.0957 15.2554C40.0957 11.5929 42.3582 8.4429 45.5582 7.1429ZM48.8457 4.0054C42.6332 4.0054 37.5957 9.0429 37.5957 15.2554C37.5957 21.4679 42.6332 26.5054 48.8457 26.5054C55.0582 26.5054 60.0957 21.4679 60.0957 15.2554C60.0957 14.6804 60.0457 14.1054 59.9707 13.5554C58.7457 15.2679 56.7457 16.3804 54.4707 16.3804C50.7457 16.3804 47.7207 13.3554 47.7207 9.6304C47.7207 7.3679 48.8332 5.3554 50.5457 4.1304C49.9957 4.0554 49.4207 4.0054 48.8457 4.0054Z" fill="white"/>
</g>
</g>
<path d="M10.3464 17.698C11.7214 17.698 12.8464 18.823 12.8464 20.198C12.8464 21.573 11.7214 22.698 10.3464 22.698C8.97135 22.698 7.84635 21.573 7.84635 20.198C7.84635 18.823 8.97135 17.698 10.3464 17.698ZM10.3464 16.0313C8.04635 16.0313 6.17969 17.898 6.17969 20.198C6.17969 22.498 8.04635 24.3646 10.3464 24.3646C12.6464 24.3646 14.513 22.498 14.513 20.198C14.513 17.898 12.6464 16.0313 10.3464 16.0313ZM2.01302 21.0313H3.67969C4.13802 21.0313 4.51302 20.6563 4.51302 20.198C4.51302 19.7396 4.13802 19.3646 3.67969 19.3646H2.01302C1.55469 19.3646 1.17969 19.7396 1.17969 20.198C1.17969 20.6563 1.55469 21.0313 2.01302 21.0313ZM17.013 21.0313H18.6797C19.138 21.0313 19.513 20.6563 19.513 20.198C19.513 19.7396 19.138 19.3646 18.6797 19.3646H17.013C16.5547 19.3646 16.1797 19.7396 16.1797 20.198C16.1797 20.6563 16.5547 21.0313 17.013 21.0313ZM9.51302 11.8646V13.5313C9.51302 13.9896 9.88802 14.3646 10.3464 14.3646C10.8047 14.3646 11.1797 13.9896 11.1797 13.5313V11.8646C11.1797 11.4063 10.8047 11.0313 10.3464 11.0313C9.88802 11.0313 9.51302 11.4063 9.51302 11.8646ZM9.51302 26.8646V28.5313C9.51302 28.9896 9.88802 29.3646 10.3464 29.3646C10.8047 29.3646 11.1797 28.9896 11.1797 28.5313V26.8646C11.1797 26.4063 10.8047 26.0313 10.3464 26.0313C9.88802 26.0313 9.51302 26.4063 9.51302 26.8646ZM5.33802 14.0146C5.01302 13.6896 4.47969 13.6896 4.16302 14.0146C3.83802 14.3396 3.83802 14.873 4.16302 15.1896L5.04635 16.073C5.37135 16.398 5.90469 16.398 6.22135 16.073C6.53802 15.748 6.54635 15.2146 6.22135 14.898L5.33802 14.0146ZM15.6464 24.323C15.3214 23.998 14.788 23.998 14.4714 24.323C14.1464 24.648 14.1464 25.1813 14.4714 25.498L15.3547 26.3813C15.6797 26.7063 16.213 26.7063 16.5297 26.3813C16.8547 26.0563 16.8547 25.523 16.5297 25.2063L15.6464 24.323ZM16.5297 15.1896C16.8547 14.8646 16.8547 14.3313 16.5297 14.0146C16.2047 13.6896 15.6714 13.6896 15.3547 14.0146L14.4714 14.898C14.1464 15.223 14.1464 15.7563 14.4714 16.073C14.7964 16.3896 15.3297 16.398 15.6464 16.073L16.5297 15.1896ZM6.22135 25.498C6.54635 25.173 6.54635 24.6396 6.22135 24.323C5.89635 23.998 5.36302 23.998 5.04635 24.323L4.16302 25.2063C3.83802 25.5313 3.83802 26.0646 4.16302 26.3813C4.48802 26.698 5.02135 26.7063 5.33802 26.3813L6.22135 25.498Z" fill="#777777"/>
<defs>
<filter id="filter0_d" x="33.5957" y="0.00540161" width="30.5" height="30.5" filterUnits="userSpaceOnUse" color-interpolation-filters="sRGB">
<feFlood flood-opacity="0" result="BackgroundImageFix"/>
<feColorMatrix in="SourceAlpha" type="matrix" values="0 0 0 0 0 0 0 0 0 0 0 0 0 0 0 0 0 0 127 0" result="hardAlpha"/>
<feOffset/>
<feGaussianBlur stdDeviation="2"/>
<feComposite in2="hardAlpha" operator="out"/>
<feColorMatrix type="matrix" values="0 0 0 0 1 0 0 0 0 1 0 0 0 0 1 0 0 0 1 0"/>
<feBlend mode="normal" in2="BackgroundImageFix" result="effect1_dropShadow"/>
<feBlend mode="normal" in="SourceGraphic" in2="effect1_dropShadow" result="shape"/>
</filter>
<clipPath id="clip0">
<rect width="30" height="30" fill="white" transform="translate(33.8457 0.255402)"/>
</clipPath>
</defs>
</svg>
