<svg width="71" height="31" viewBox="0 0 71 31" fill="none" xmlns="http://www.w3.org/2000/svg">
<path d="M58.3083 12.563C58.1583 13.0963 58.0833 13.6546 58.0833 14.2213C58.0833 17.6213 60.85 20.388 64.25 20.388C64.8167 20.388 65.375 20.313 65.9083 20.163C65.0417 22.2963 62.9417 23.8046 60.5 23.8046C57.2833 23.8046 54.6667 21.188 54.6667 17.9713C54.6667 15.5296 56.175 13.4296 58.3083 12.563ZM60.5 10.4713C56.3583 10.4713 53 13.8296 53 17.9713C53 22.113 56.3583 25.4713 60.5 25.4713C64.6417 25.4713 68 22.113 68 17.9713C68 17.588 67.9667 17.2046 67.9167 16.838C67.1 17.9796 65.7667 18.7213 64.25 18.7213C61.7667 18.7213 59.75 16.7046 59.75 14.2213C59.75 12.713 60.4917 11.3713 61.6333 10.5546C61.2667 10.5046 60.8833 10.4713 60.5 10.4713Z" fill="#777777"/>
<g clip-path="url(#clip0)">
<g filter="url(#filter0_d)">
<path d="M15.3462 11.7895C17.4087 11.7895 19.0962 13.477 19.0962 15.5395C19.0962 17.602 17.4087 19.2895 15.3462 19.2895C13.2837 19.2895 11.5962 17.602 11.5962 15.5395C11.5962 13.477 13.2837 11.7895 15.3462 11.7895ZM15.3462 9.28949C11.8962 9.28949 9.09619 12.0895 9.09619 15.5395C9.09619 18.9895 11.8962 21.7895 15.3462 21.7895C18.7962 21.7895 21.5962 18.9895 21.5962 15.5395C21.5962 12.0895 18.7962 9.28949 15.3462 9.28949ZM2.84619 16.7895H5.34619C6.03369 16.7895 6.59619 16.227 6.59619 15.5395C6.59619 14.852 6.03369 14.2895 5.34619 14.2895H2.84619C2.15869 14.2895 1.59619 14.852 1.59619 15.5395C1.59619 16.227 2.15869 16.7895 2.84619 16.7895ZM25.3462 16.7895H27.8462C28.5337 16.7895 29.0962 16.227 29.0962 15.5395C29.0962 14.852 28.5337 14.2895 27.8462 14.2895H25.3462C24.6587 14.2895 24.0962 14.852 24.0962 15.5395C24.0962 16.227 24.6587 16.7895 25.3462 16.7895ZM14.0962 3.03949V5.53949C14.0962 6.22699 14.6587 6.78949 15.3462 6.78949C16.0337 6.78949 16.5962 6.22699 16.5962 5.53949V3.03949C16.5962 2.35199 16.0337 1.78949 15.3462 1.78949C14.6587 1.78949 14.0962 2.35199 14.0962 3.03949ZM14.0962 25.5395V28.0395C14.0962 28.727 14.6587 29.2895 15.3462 29.2895C16.0337 29.2895 16.5962 28.727 16.5962 28.0395V25.5395C16.5962 24.852 16.0337 24.2895 15.3462 24.2895C14.6587 24.2895 14.0962 24.852 14.0962 25.5395ZM7.83369 6.26449C7.34619 5.77699 6.54619 5.77699 6.07119 6.26449C5.58369 6.75199 5.58369 7.55199 6.07119 8.02699L7.39619 9.35199C7.88369 9.83949 8.68369 9.83949 9.15869 9.35199C9.63369 8.86449 9.64619 8.06449 9.15869 7.58949L7.83369 6.26449ZM23.2962 21.727C22.8087 21.2395 22.0087 21.2395 21.5337 21.727C21.0462 22.2145 21.0462 23.0145 21.5337 23.4895L22.8587 24.8145C23.3462 25.302 24.1462 25.302 24.6212 24.8145C25.1087 24.327 25.1087 23.527 24.6212 23.052L23.2962 21.727ZM24.6212 8.02699C25.1087 7.53949 25.1087 6.73949 24.6212 6.26449C24.1337 5.77699 23.3337 5.77699 22.8587 6.26449L21.5337 7.58949C21.0462 8.07699 21.0462 8.87699 21.5337 9.35199C22.0212 9.82699 22.8212 9.83949 23.2962 9.35199L24.6212 8.02699ZM9.15869 23.4895C9.64619 23.002 9.64619 22.202 9.15869 21.727C8.67119 21.2395 7.87119 21.2395 7.39619 21.727L6.07119 23.052C5.58369 23.5395 5.58369 24.3395 6.07119 24.8145C6.55869 25.2895 7.35869 25.302 7.83369 24.8145L9.15869 23.4895Z" fill="#001AFF"/>
</g>
</g>
<defs>
<filter id="filter0_d" x="-2.40381" y="-2.21051" width="35.5" height="35.5" filterUnits="userSpaceOnUse" color-interpolation-filters="sRGB">
<feFlood flood-opacity="0" result="BackgroundImageFix"/>
<feColorMatrix in="SourceAlpha" type="matrix" values="0 0 0 0 0 0 0 0 0 0 0 0 0 0 0 0 0 0 127 0" result="hardAlpha"/>
<feOffset/>
<feGaussianBlur stdDeviation="2"/>
<feComposite in2="hardAlpha" operator="out"/>
<feColorMatrix type="matrix" values="0 0 0 0 0 0 0 0 0 0.101961 0 0 0 0 1 0 0 0 1 0"/>
<feBlend mode="normal" in2="BackgroundImageFix" result="effect1_dropShadow"/>
<feBlend mode="normal" in="SourceGraphic" in2="effect1_dropShadow" result="shape"/>
</filter>
<clipPath id="clip0">
<rect width="30" height="30" fill="white" transform="translate(0.346191 0.53949)"/>
</clipPath>
</defs>
</svg>
