<svg width="123" height="45" viewBox="0 0 123 45" fill="none" xmlns="http://www.w3.org/2000/svg">
<rect y="-1" width="123" height="46" fill="white"/>
<path d="M29.416 28.4307C29.416 30.7978 29.416 34.145 33.7017 34.145C37.9875 34.145 37.9875 30.7978 37.9875 28.4307" stroke="black"/>
<path d="M33.7017 21.2871L29.416 28.43H37.9875L33.7017 21.2871Z" stroke="black" stroke-linejoin="round"/>
<path d="M6.56445 28.4307C6.56445 30.7978 6.56445 34.145 10.8502 34.145C15.1359 34.145 15.1359 30.7978 15.1359 28.4307" stroke="black"/>
<path d="M10.8502 21.2871L6.56445 28.43H15.1359L10.8502 21.2871Z" stroke="black" stroke-linejoin="round"/>
<path d="M33.7087 21.2871H25.1373M10.8516 21.2871H19.423H10.8516Z" stroke="black"/>
<path d="M22.2732 24.1449C23.8511 24.1449 25.1303 22.8657 25.1303 21.2878C25.1303 19.7098 23.8511 18.4307 22.2732 18.4307C20.6952 18.4307 19.416 19.7098 19.416 21.2878C19.416 22.8657 20.6952 24.1449 22.2732 24.1449Z" stroke="black"/>
<path d="M22.2773 14.1436V18.4293" stroke="black"/>
<path d="M23.7087 9.85923C23.7087 9.07026 23.0691 8.43066 22.2801 8.43066C21.4912 8.43066 20.8516 9.07026 20.8516 9.85923V12.7164C20.8516 13.5053 21.4912 14.1449 22.2801 14.1449C23.0691 14.1449 23.7087 13.5053 23.7087 12.7164V9.85923Z" stroke="black"/>
<path d="M59.6875 24.3906C59.5469 25.5938 59.1016 26.5234 58.3516 27.1797C57.6068 27.8307 56.6146 28.1562 55.375 28.1562C54.0312 28.1562 52.9531 27.6745 52.1406 26.7109C51.3333 25.7474 50.9297 24.4583 50.9297 22.8438V21.75C50.9297 20.6927 51.1172 19.763 51.4922 18.9609C51.8724 18.1589 52.4089 17.5443 53.1016 17.1172C53.7943 16.6849 54.5964 16.4688 55.5078 16.4688C56.7161 16.4688 57.6849 16.8073 58.4141 17.4844C59.1432 18.1562 59.5677 19.0885 59.6875 20.2812H58.1797C58.0495 19.375 57.7656 18.7188 57.3281 18.3125C56.8958 17.9062 56.2891 17.7031 55.5078 17.7031C54.5495 17.7031 53.7969 18.0573 53.25 18.7656C52.7083 19.474 52.4375 20.4818 52.4375 21.7891V22.8906C52.4375 24.125 52.6953 25.1068 53.2109 25.8359C53.7266 26.5651 54.4479 26.9297 55.375 26.9297C56.2083 26.9297 56.8464 26.7422 57.2891 26.3672C57.737 25.987 58.0339 25.3281 58.1797 24.3906H59.6875ZM61.1328 23.6953C61.1328 22.8672 61.2943 22.1224 61.6172 21.4609C61.9453 20.7995 62.3984 20.2891 62.9766 19.9297C63.5599 19.5703 64.224 19.3906 64.9688 19.3906C66.1198 19.3906 67.0495 19.7891 67.7578 20.5859C68.4714 21.3828 68.8281 22.4427 68.8281 23.7656V23.8672C68.8281 24.6901 68.6693 25.4297 68.3516 26.0859C68.0391 26.737 67.5885 27.2448 67 27.6094C66.4167 27.974 65.7448 28.1562 64.9844 28.1562C63.8385 28.1562 62.9089 27.7578 62.1953 26.9609C61.487 26.1641 61.1328 25.1094 61.1328 23.7969V23.6953ZM62.5859 23.8672C62.5859 24.8047 62.8021 25.5573 63.2344 26.125C63.6719 26.6927 64.2552 26.9766 64.9844 26.9766C65.7188 26.9766 66.3021 26.6901 66.7344 26.1172C67.1667 25.5391 67.3828 24.7318 67.3828 23.6953C67.3828 22.7682 67.1615 22.0182 66.7188 21.4453C66.2812 20.8672 65.6979 20.5781 64.9688 20.5781C64.2552 20.5781 63.6797 20.862 63.2422 21.4297C62.8047 21.9974 62.5859 22.8099 62.5859 23.8672ZM72 19.5469L72.0391 20.4844C72.6589 19.7552 73.4948 19.3906 74.5469 19.3906C75.7292 19.3906 76.5339 19.8438 76.9609 20.75C77.2422 20.3438 77.6068 20.0156 78.0547 19.7656C78.5078 19.5156 79.0417 19.3906 79.6562 19.3906C81.5104 19.3906 82.4531 20.3724 82.4844 22.3359V28H81.0391V22.4219C81.0391 21.8177 80.901 21.3672 80.625 21.0703C80.349 20.7682 79.8854 20.6172 79.2344 20.6172C78.6979 20.6172 78.2526 20.7786 77.8984 21.1016C77.5443 21.4193 77.3385 21.849 77.2812 22.3906V28H75.8281V22.4609C75.8281 21.2318 75.2266 20.6172 74.0234 20.6172C73.0755 20.6172 72.4271 21.0208 72.0781 21.8281V28H70.6328V19.5469H72ZM91.8125 23.8672C91.8125 25.1536 91.5182 26.1901 90.9297 26.9766C90.3411 27.763 89.5443 28.1562 88.5391 28.1562C87.513 28.1562 86.7057 27.8307 86.1172 27.1797V31.25H84.6719V19.5469H85.9922L86.0625 20.4844C86.651 19.7552 87.4688 19.3906 88.5156 19.3906C89.5312 19.3906 90.3333 19.7734 90.9219 20.5391C91.5156 21.3047 91.8125 22.3698 91.8125 23.7344V23.8672ZM90.3672 23.7031C90.3672 22.75 90.1641 21.9974 89.7578 21.4453C89.3516 20.8932 88.7943 20.6172 88.0859 20.6172C87.2109 20.6172 86.5547 21.0052 86.1172 21.7812V25.8203C86.5495 26.5911 87.2109 26.9766 88.1016 26.9766C88.7943 26.9766 89.3438 26.7031 89.75 26.1562C90.1615 25.6042 90.3672 24.7865 90.3672 23.7031ZM98.875 28C98.7917 27.8333 98.724 27.5365 98.6719 27.1094C98 27.8073 97.1979 28.1562 96.2656 28.1562C95.4323 28.1562 94.7474 27.9219 94.2109 27.4531C93.6797 26.9792 93.4141 26.3802 93.4141 25.6562C93.4141 24.776 93.7474 24.0938 94.4141 23.6094C95.0859 23.1198 96.0286 22.875 97.2422 22.875H98.6484V22.2109C98.6484 21.7057 98.4974 21.3047 98.1953 21.0078C97.8932 20.7057 97.4479 20.5547 96.8594 20.5547C96.3438 20.5547 95.9115 20.6849 95.5625 20.9453C95.2135 21.2057 95.0391 21.5208 95.0391 21.8906H93.5859C93.5859 21.4688 93.7344 21.0625 94.0312 20.6719C94.3333 20.276 94.7396 19.9635 95.25 19.7344C95.7656 19.5052 96.3307 19.3906 96.9453 19.3906C97.9193 19.3906 98.6823 19.6354 99.2344 20.125C99.7865 20.6094 100.073 21.2786 100.094 22.1328V26.0234C100.094 26.7995 100.193 27.4167 100.391 27.875V28H98.875ZM96.4766 26.8984C96.9297 26.8984 97.3594 26.7812 97.7656 26.5469C98.1719 26.3125 98.4661 26.0078 98.6484 25.6328V23.8984H97.5156C95.7448 23.8984 94.8594 24.4167 94.8594 25.4531C94.8594 25.9062 95.0104 26.2604 95.3125 26.5156C95.6146 26.7708 96.0026 26.8984 96.4766 26.8984ZM106.445 20.8438C106.227 20.8073 105.99 20.7891 105.734 20.7891C104.786 20.7891 104.143 21.1927 103.805 22V28H102.359V19.5469H103.766L103.789 20.5234C104.263 19.7682 104.935 19.3906 105.805 19.3906C106.086 19.3906 106.299 19.4271 106.445 19.5V20.8438ZM111.133 28.1562C109.987 28.1562 109.055 27.7812 108.336 27.0312C107.617 26.276 107.258 25.2682 107.258 24.0078V23.7422C107.258 22.9036 107.417 22.1562 107.734 21.5C108.057 20.8385 108.505 20.3229 109.078 19.9531C109.656 19.5781 110.281 19.3906 110.953 19.3906C112.052 19.3906 112.906 19.7526 113.516 20.4766C114.125 21.2005 114.43 22.237 114.43 23.5859V24.1875H108.703C108.724 25.0208 108.966 25.6953 109.43 26.2109C109.898 26.7214 110.492 26.9766 111.211 26.9766C111.721 26.9766 112.154 26.8724 112.508 26.6641C112.862 26.4557 113.172 26.1797 113.438 25.8359L114.32 26.5234C113.612 27.612 112.549 28.1562 111.133 28.1562ZM110.953 20.5781C110.37 20.5781 109.88 20.7917 109.484 21.2188C109.089 21.6406 108.844 22.2344 108.75 23H112.984V22.8906C112.943 22.1562 112.745 21.5885 112.391 21.1875C112.036 20.7812 111.557 20.5781 110.953 20.5781Z" fill="black"/>
</svg>
