<svg width="31" height="30" viewBox="0 0 31 30" fill="none" xmlns="http://www.w3.org/2000/svg">
<path d="M9.18403 13.7197C9.47692 13.4268 9.95179 13.4268 10.2447 13.7197L13.2447 16.7196C13.3853 16.8603 13.4644 17.0511 13.4644 17.25C13.4644 17.4489 13.3853 17.6397 13.2447 17.7804L10.2447 20.7804C9.95179 21.0732 9.47692 21.0732 9.18403 20.7804C8.89113 20.4875 8.89113 20.0126 9.18403 19.7196L11.6537 17.25L9.18403 14.7803C8.89113 14.4874 8.89113 14.0126 9.18403 13.7197ZM21.7144 19.5H14.9644C14.5501 19.5 14.2144 19.8359 14.2144 20.25C14.2144 20.6642 14.5501 21 14.9644 21H21.7144C22.1285 21 22.4644 20.6642 22.4644 20.25C22.4644 19.8359 22.1285 19.5 21.7144 19.5ZM5.21436 8.25C5.21436 6.17894 6.89329 4.5 8.96436 4.5H22.4644C24.5354 4.5 26.2144 6.17894 26.2144 8.25V21.75C26.2144 23.8211 24.5354 25.5 22.4644 25.5H8.96436C6.89329 25.5 5.21436 23.8211 5.21436 21.75V8.25ZM7.46436 10.5V21.375C7.46436 22.4106 8.30382 23.25 9.33936 23.25H22.0894C23.125 23.25 23.9644 22.4106 23.9644 21.375V10.5H7.46436Z" fill="white"/>
</svg>
