<svg width="31" height="170" viewBox="0 0 31 170" fill="none" xmlns="http://www.w3.org/2000/svg">
<path d="M10.9185 0.5H30.4998V168.756H10.9185C5.67175 168.756 1.41846 164.503 1.41846 159.256V9.99999C1.41846 4.75329 5.67175 0.5 10.9185 0.5Z" fill="white" stroke="#777777"/>
<path d="M19.3682 143.349V147.519L21.9658 148.455V149.809L12.0127 146.008V144.859L21.9658 141.052V142.398L19.3682 143.349ZM18.2881 147.122V143.738L13.6328 145.434L18.2881 147.122ZM21.9658 139.712H12.0127L12.0127 136.902C12.0127 136.036 12.2041 135.271 12.5869 134.605C12.9697 133.94 13.5143 133.427 14.2207 133.067C14.9271 132.703 15.7383 132.518 16.6543 132.514H17.29C18.2288 132.514 19.0514 132.696 19.7578 133.061C20.4642 133.421 21.0065 133.938 21.3848 134.612C21.763 135.282 21.9567 136.064 21.9658 136.957L21.9658 139.712ZM13.0928 138.399H20.8926L20.8926 137.019C20.8926 136.007 20.5781 135.221 19.9492 134.66C19.3203 134.095 18.4248 133.812 17.2627 133.812H16.6816C15.5514 133.812 14.6742 134.079 14.0498 134.612C13.4209 135.141 13.1019 135.893 13.0928 136.868V138.399ZM21.9658 130.524H12.0127L12.0127 127.715C12.0127 126.849 12.2041 126.083 12.5869 125.418C12.9697 124.753 13.5143 124.24 14.2207 123.88C14.9271 123.515 15.7383 123.331 16.6543 123.326H17.29C18.2288 123.326 19.0514 123.508 19.7578 123.873C20.4642 124.233 21.0065 124.75 21.3848 125.425C21.763 126.095 21.9567 126.876 21.9658 127.77L21.9658 130.524ZM13.0928 129.212H20.8926V127.831C20.8926 126.819 20.5781 126.033 19.9492 125.473C19.3203 124.908 18.4248 124.625 17.2627 124.625H16.6816C15.5514 124.625 14.6742 124.892 14.0498 125.425C13.4209 125.953 13.1019 126.705 13.0928 127.681V129.212ZM22.8203 117.81V118.896L12.0127 114.74V113.66L22.8203 117.81ZM17.3652 102.996L17.3652 107.31H20.8926L20.8926 102.299H21.9658L21.9658 108.622H12.0127L12.0127 102.367H13.0928L13.0928 107.31H16.292L16.292 102.996H17.3652ZM21.9658 100.665H12.0127V97.8555C12.0127 96.9896 12.2041 96.224 12.5869 95.5586C12.9697 94.8932 13.5143 94.3805 14.2207 94.0205C14.9271 93.6559 15.7383 93.4714 16.6543 93.4668H17.29C18.2288 93.4668 19.0514 93.6491 19.7578 94.0137C20.4642 94.3737 21.0065 94.891 21.3848 95.5654C21.763 96.2354 21.9567 97.0169 21.9658 97.9102V100.665ZM13.0928 99.3525H20.8926V97.9717C20.8926 96.96 20.5781 96.1738 19.9492 95.6133C19.3203 95.0482 18.4248 94.7656 17.2627 94.7656H16.6816C15.5514 94.7656 14.6742 95.0322 14.0498 95.5654C13.4209 96.0941 13.1019 96.846 13.0928 97.8213V99.3525ZM21.9658 90.0693V91.3818H12.0127V90.0693H21.9658ZM13.0928 80.9912V84.1904H21.9658V85.4961H13.0928V88.6885H12.0127V80.9912H13.0928ZM18.8076 68.9941C19.8604 69.1172 20.6738 69.5068 21.248 70.1631C21.8177 70.8148 22.1025 71.6829 22.1025 72.7676C22.1025 73.9434 21.681 74.8867 20.8379 75.5977C19.9948 76.304 18.8669 76.6572 17.4541 76.6572H16.4971C15.5719 76.6572 14.7585 76.4932 14.0566 76.165C13.3548 75.8324 12.8171 75.363 12.4434 74.7568C12.0651 74.1507 11.876 73.4489 11.876 72.6514C11.876 71.5941 12.1722 70.7464 12.7646 70.1084C13.3525 69.4704 14.1683 69.099 15.2119 68.9941V70.3135C14.4189 70.4274 13.8447 70.6758 13.4893 71.0586C13.1338 71.4368 12.9561 71.9678 12.9561 72.6514C12.9561 73.4899 13.266 74.1484 13.8857 74.627C14.5055 75.1009 15.3874 75.3379 16.5313 75.3379H17.4951C18.5752 75.3379 19.4342 75.1123 20.0723 74.6611C20.7103 74.21 21.0293 73.5788 21.0293 72.7676C21.0293 72.0384 20.8652 71.4801 20.5371 71.0928C20.2044 70.7008 19.6279 70.4411 18.8076 70.3135V68.9941ZM17.9395 63.5459V65.8838H21.9658V67.2031H12.0127V63.9082C12.0127 62.7871 12.2679 61.9258 12.7783 61.3242C13.2887 60.7181 14.0316 60.415 15.0068 60.415C15.6266 60.415 16.1667 60.5837 16.627 60.9209C17.0872 61.2536 17.4313 61.7184 17.6592 62.3154L21.8838 59.9775H21.9658V61.3857L17.9395 63.5459ZM16.8662 65.8838V63.8672C16.8662 63.2155 16.6976 62.6982 16.3604 62.3154C16.0231 61.9281 15.5719 61.7344 15.0068 61.7344C14.3916 61.7344 13.9199 61.9189 13.5918 62.2881C13.2637 62.6527 13.0973 63.1813 13.0928 63.874V65.8838H16.8662ZM21.9658 57.1611V58.4736H12.0127V57.1611H21.9658ZM13.0928 48.083V51.2822H21.9658V52.5879H13.0928V55.7803H12.0127V48.083H13.0928ZM17.3652 40.9805V45.2939H20.8926V40.2832H21.9658V46.6064H12.0127L12.0127 40.3516H13.0928L13.0928 45.2939H16.292V40.9805H17.3652ZM17.9395 34.999V37.3369H21.9658L21.9658 38.6562H12.0127V35.3613C12.0127 34.2402 12.2679 33.3789 12.7783 32.7773C13.2887 32.1712 14.0316 31.8682 15.0068 31.8682C15.6266 31.8682 16.1667 32.0368 16.627 32.374C17.0872 32.7067 17.4313 33.1715 17.6592 33.7686L21.8838 31.4307H21.9658V32.8389L17.9395 34.999ZM16.8662 37.3369V35.3203C16.8662 34.6686 16.6976 34.1514 16.3604 33.7686C16.0231 33.3812 15.5719 33.1875 15.0068 33.1875C14.3916 33.1875 13.9199 33.3721 13.5918 33.7412C13.2637 34.1058 13.0973 34.6344 13.0928 35.3271V37.3369H16.8662ZM21.9658 28.6143V29.9268H12.0127L12.0127 28.6143H21.9658ZM19.3682 20.5889V24.7588L21.9658 25.6953V27.0488L12.0127 23.248L12.0127 22.0996L21.9658 18.292V19.6387L19.3682 20.5889ZM18.2881 24.3623V20.9785L13.6328 22.6738L18.2881 24.3623Z" fill="black"/>
</svg>
