<svg width="40" height="30" viewBox="0 0 40 30" fill="none" xmlns="http://www.w3.org/2000/svg">
<rect width="40" height="30" rx="5" fill="white"/>
<path d="M20 4.75C21.733 4.75 23.1492 6.10645 23.2449 7.81558L23.25 8H28.5C28.9142 8 29.25 8.33579 29.25 8.75C29.25 9.1297 28.9678 9.44349 28.6018 9.49315L28.5 9.5H27.704L26.4239 22.5192C26.2912 23.8683 25.1984 24.91 23.8626 24.9945L23.6871 25H16.3129C14.9573 25 13.8137 24.0145 13.5988 22.6934L13.5761 22.5192L12.295 9.5H11.5C11.1203 9.5 10.8065 9.21785 10.7569 8.85177L10.75 8.75C10.75 8.3703 11.0322 8.05651 11.3982 8.00685L11.5 8H16.75C16.75 6.20507 18.2051 4.75 20 4.75ZM26.197 9.5H13.802L15.0689 22.3724C15.1277 22.9696 15.6003 23.4343 16.1859 23.4936L16.3129 23.5H23.6871C24.2872 23.5 24.7959 23.0751 24.9123 22.4982L24.9311 22.3724L26.197 9.5ZM21.75 12.25C22.1297 12.25 22.4435 12.5321 22.4932 12.8982L22.5 13V20C22.5 20.4142 22.1642 20.75 21.75 20.75C21.3703 20.75 21.0565 20.4678 21.0068 20.1018L21 20V13C21 12.5858 21.3358 12.25 21.75 12.25ZM18.25 12.25C18.6297 12.25 18.9435 12.5321 18.9932 12.8982L19 13V20C19 20.4142 18.6642 20.75 18.25 20.75C17.8703 20.75 17.5565 20.4678 17.5069 20.1018L17.5 20V13C17.5 12.5858 17.8358 12.25 18.25 12.25ZM20 6.25C19.0818 6.25 18.3288 6.95711 18.2558 7.85647L18.25 8H21.75C21.75 7.0335 20.9665 6.25 20 6.25Z" fill="#212121"/>
</svg>
