<svg width="31" height="30" viewBox="0 0 31 30" fill="none" xmlns="http://www.w3.org/2000/svg">
<path d="M8.32266 9.6875C8.91556 6.30345 11.8701 3.75 15.4019 3.75C18.9336 3.75 21.8881 6.30345 22.4811 9.6875H22.5894C25.3507 9.6875 27.5894 11.9261 27.5894 14.6875C27.5894 14.9214 27.5734 15.1515 27.5422 15.3769C26.0519 13.6171 23.8261 12.5 21.3394 12.5C17.1691 12.5 13.7327 15.6418 13.2679 19.6875H8.21436C5.45293 19.6875 3.21436 17.4489 3.21436 14.6875C3.21436 11.9261 5.45293 9.6875 8.21438 9.6875H8.32266ZM28.2144 20.625C28.2144 16.828 25.1364 13.75 21.3394 13.75C17.5424 13.75 14.4644 16.828 14.4644 20.625C14.4644 24.422 17.5424 27.5 21.3394 27.5C25.1364 27.5 28.2144 24.422 28.2144 20.625ZM20.7144 16.875C20.7144 16.5299 20.9942 16.25 21.3394 16.25C21.6845 16.25 21.9644 16.5299 21.9644 16.875V22.8661L24.0224 20.808C24.2665 20.564 24.6622 20.564 24.9064 20.808C25.1504 21.0521 25.1504 21.4479 24.9064 21.692L21.7814 24.817C21.5372 25.061 21.1415 25.061 20.8974 24.817L17.7724 21.692C17.5284 21.4479 17.5284 21.0521 17.7724 20.808C18.0165 20.564 18.4122 20.564 18.6564 20.808L20.7144 22.8661V16.875Z" fill="black"/>
</svg>
