<svg width="89" height="32" viewBox="0 0 89 32" fill="none" xmlns="http://www.w3.org/2000/svg">
<rect x="1.19922" y="1.41699" width="87.3007" height="29.7138" stroke="white"/>
<path d="M73.3821 20.7704C73.7313 20.7704 74.0145 21.1351 74.0145 21.585C74.0145 22.0348 73.7313 22.3995 73.3821 22.3995H70.8527C70.5035 22.3995 70.2204 22.0348 70.2204 21.585C70.2204 21.1351 70.5035 20.7704 70.8527 20.7704H73.3821ZM75.9115 15.3403C76.2607 15.3403 76.5439 15.705 76.5439 16.1548C76.5439 16.6047 76.2607 16.9693 75.9115 16.9693H68.3234C67.9741 16.9693 67.691 16.6047 67.691 16.1548C67.691 15.705 67.9741 15.3403 68.3234 15.3403H75.9115ZM78.4409 9.91016C78.7901 9.91016 79.0732 10.2748 79.0732 10.7247C79.0732 11.1745 78.7901 11.5392 78.4409 11.5392H65.794C65.4447 11.5392 65.1616 11.1745 65.1616 10.7247C65.1616 10.2748 65.4447 9.91016 65.794 9.91016H78.4409Z" fill="white"/>
<path d="M19.7339 16.3427H15.5571V20.7382H14.2446V10.785H20.4106V11.8651H15.5571V15.2694H19.7339V16.3427ZM23.1587 20.7382H21.894V13.3417H23.1587V20.7382ZM21.7915 11.3798C21.7915 11.1747 21.853 11.0015 21.9761 10.8602C22.1037 10.719 22.2905 10.6483 22.5366 10.6483C22.7827 10.6483 22.9696 10.719 23.0972 10.8602C23.2248 11.0015 23.2886 11.1747 23.2886 11.3798C23.2886 11.5848 23.2248 11.7557 23.0972 11.8925C22.9696 12.0292 22.7827 12.0975 22.5366 12.0975C22.2905 12.0975 22.1037 12.0292 21.9761 11.8925C21.853 11.7557 21.7915 11.5848 21.7915 11.3798ZM26.563 20.7382H25.2983V10.2382H26.563V20.7382ZM30.3091 11.5507V13.3417H31.6899V14.3192H30.3091V18.9061C30.3091 19.2024 30.3706 19.4257 30.4937 19.576C30.6167 19.7219 30.8263 19.7948 31.1226 19.7948C31.2684 19.7948 31.4689 19.7675 31.7241 19.7128V20.7382C31.3914 20.8293 31.0679 20.8749 30.7534 20.8749C30.1883 20.8749 29.7622 20.704 29.4751 20.3622C29.188 20.0204 29.0444 19.535 29.0444 18.9061V14.3192H27.6978V13.3417H29.0444V11.5507H30.3091ZM36.2427 20.8749C35.2401 20.8749 34.4243 20.5468 33.7954 19.8905C33.1665 19.2297 32.8521 18.3479 32.8521 17.245V17.0126C32.8521 16.2788 32.991 15.6249 33.269 15.0507C33.5516 14.4719 33.9435 14.0207 34.4448 13.6971C34.9507 13.369 35.4976 13.205 36.0854 13.205C37.047 13.205 37.7944 13.5217 38.3276 14.1552C38.8608 14.7886 39.1274 15.6955 39.1274 16.8759V17.4022H34.1167C34.1349 18.1314 34.3468 18.7216 34.7524 19.1727C35.1626 19.6193 35.6821 19.8427 36.311 19.8427C36.7576 19.8427 37.1359 19.7515 37.4458 19.5692C37.7557 19.3869 38.0269 19.1454 38.2593 18.8446L39.0317 19.4462C38.4119 20.3986 37.4823 20.8749 36.2427 20.8749ZM36.0854 14.244C35.575 14.244 35.1466 14.4309 34.8003 14.8046C34.4539 15.1737 34.2397 15.6932 34.1577 16.3632H37.8628V16.2675C37.8263 15.6249 37.6532 15.1281 37.3433 14.7772C37.0334 14.4218 36.6141 14.244 36.0854 14.244ZM44.1724 14.4764C43.981 14.4445 43.7736 14.4286 43.5503 14.4286C42.7209 14.4286 42.158 14.7818 41.8618 15.4882V20.7382H40.5972V13.3417H41.8276L41.8481 14.1962C42.2629 13.5354 42.8507 13.205 43.6118 13.205C43.8579 13.205 44.0448 13.2369 44.1724 13.3007V14.4764Z" fill="white"/>
</svg>
