<svg width="20" height="20" viewBox="0 0 20 20" fill="none" xmlns="http://www.w3.org/2000/svg">
<rect width="20" height="20" rx="2" fill="black"/>
<path d="M8.39991 5.34384C8.60747 5.34796 8.78756 5.48807 8.84259 5.68821L10.9883 13.4909L12.6292 8.02158C12.6861 7.83183 12.8561 7.69837 13.0539 7.68811C13.2517 7.67789 13.4346 7.79311 13.5108 7.97597L14.5625 10.5H16.125C16.3839 10.5 16.5938 10.7099 16.5938 10.9688C16.5938 11.2276 16.3839 11.4375 16.125 11.4375H14.25C14.0608 11.4375 13.8901 11.3237 13.8173 11.149L13.1501 9.54769L11.4177 15.3222C11.3577 15.5224 11.1723 15.6586 10.9634 15.6562C10.7543 15.6538 10.5722 15.5133 10.5168 15.3118L8.35791 7.46133L7.19669 11.1109C7.13479 11.3054 6.95413 11.4375 6.75 11.4375H4.875C4.61612 11.4375 4.40625 11.2276 4.40625 10.9688C4.40625 10.7099 4.61612 10.5 4.875 10.5H6.40724L7.94395 5.67037C8.00686 5.47258 8.19239 5.33972 8.39991 5.34384Z" fill="white"/>
</svg>
