<svg width="40" height="32" viewBox="0 0 40 32" fill="none" xmlns="http://www.w3.org/2000/svg">
<rect y="1" width="40" height="30" rx="5" fill="white"/>
<path d="M15.5198 5.0002C15.9626 5.00898 16.3468 5.30789 16.4642 5.73485L21.0418 22.3806L24.5422 10.7127C24.6636 10.3079 25.0263 10.0232 25.4484 10.0013C25.8704 9.97951 26.2605 10.2253 26.4231 10.6154L28.6667 16H32C32.5523 16 33 16.4477 33 17C33 17.5523 32.5523 18 32 18H28C27.5963 18 27.2322 17.7573 27.0769 17.3846L25.6535 13.9684L21.9578 26.2873C21.8297 26.7144 21.4343 27.0051 20.9885 26.9999C20.5426 26.9948 20.154 26.6951 20.0358 26.2652L15.4302 9.51751L12.9529 17.3032C12.8209 17.7182 12.4355 18 12 18H8C7.44772 18 7 17.5523 7 17C7 16.4477 7.44772 16 8 16H11.2688L14.5471 5.6968C14.6813 5.27483 15.0771 4.99141 15.5198 5.0002Z" fill="#161616"/>
</svg>
