<svg width="1240" height="780" viewBox="0 0 1240 780" fill="none" xmlns="http://www.w3.org/2000/svg">
<rect width="1240" height="780" fill="white"/>
<rect y="0.00146484" width="619.497" height="389.937" fill="white"/>
<rect x="0.15" y="0.151465" width="619.197" height="389.637" stroke="black" stroke-opacity="0.1" stroke-width="0.3"/>
<line x1="73.8498" y1="389.946" x2="73.8498" y2="0.000457764" stroke="#00FF29" stroke-opacity="0.25" stroke-width="0.3"/>
<line x1="110.1" y1="389.95" x2="110.1" y2="0.00460815" stroke="#00FF29" stroke-opacity="0.25" stroke-width="0.3"/>
<line x1="146.349" y1="389.954" x2="146.349" y2="0.0085144" stroke="#00FF29" stroke-opacity="0.25" stroke-width="0.3"/>
<line x1="182.599" y1="389.958" x2="182.599" y2="0.0121765" stroke="#00FF29" stroke-opacity="0.25" stroke-width="0.3"/>
<line x1="218.849" y1="389.962" x2="218.849" y2="0.0163269" stroke="#00FF29" stroke-opacity="0.25" stroke-width="0.3"/>
<line x1="255.099" y1="389.966" x2="255.099" y2="0.0202332" stroke="#00FF29" stroke-opacity="0.25" stroke-width="0.3"/>
<line x1="291.349" y1="389.969" x2="291.349" y2="0.0238953" stroke="black" stroke-opacity="0.1" stroke-width="0.3"/>
<line x1="327.599" y1="389.973" x2="327.599" y2="0.0278015" stroke="#00FF29" stroke-opacity="0.25" stroke-width="0.3"/>
<line x1="363.849" y1="389.977" x2="363.849" y2="0.0319519" stroke="#00FF29" stroke-opacity="0.25" stroke-width="0.3"/>
<line x1="400.098" y1="389.981" x2="400.098" y2="0.035614" stroke="#00FF29" stroke-opacity="0.25" stroke-width="0.3"/>
<line x1="436.348" y1="389.985" x2="436.348" y2="0.0395203" stroke="#00FF29" stroke-opacity="0.25" stroke-width="0.3"/>
<line x1="472.598" y1="389.989" x2="472.598" y2="0.0436707" stroke="#00FF29" stroke-opacity="0.25" stroke-width="0.3"/>
<line x1="508.848" y1="389.993" x2="508.848" y2="0.0473328" stroke="#00FF29" stroke-opacity="0.25" stroke-width="0.3"/>
<line x1="545.098" y1="389.997" x2="545.098" y2="0.051239" stroke="#00FF29" stroke-opacity="0.25" stroke-width="0.3"/>
<line x1="581.348" y1="390.001" x2="581.348" y2="0.0553894" stroke="#00FF29" stroke-opacity="0.25" stroke-width="0.3"/>
<line x1="0.497314" y1="36.0333" x2="620" y2="36.0333" stroke="#00FF29" stroke-opacity="0.25" stroke-width="0.3"/>
<line x1="0.497314" y1="71.747" x2="620" y2="71.747" stroke="#00FF29" stroke-opacity="0.25" stroke-width="0.3"/>
<line x1="0.497314" y1="107.196" x2="620" y2="107.196" stroke="#00FF29" stroke-opacity="0.25" stroke-width="0.3"/>
<line x1="0.497314" y1="142.645" x2="620" y2="142.645" stroke="#00FF29" stroke-opacity="0.25" stroke-width="0.3"/>
<line x1="0.497314" y1="178.094" x2="620" y2="178.094" stroke="black" stroke-opacity="0.1" stroke-width="0.3"/>
<line x1="0.497314" y1="213.543" x2="620" y2="213.543" stroke="#00FF29" stroke-opacity="0.25" stroke-width="0.3"/>
<line x1="0.497314" y1="248.991" x2="620" y2="248.991" stroke="#00FF29" stroke-opacity="0.25" stroke-width="0.3"/>
<line x1="0.497314" y1="284.44" x2="620" y2="284.44" stroke="#00FF29" stroke-opacity="0.25" stroke-width="0.3"/>
<line x1="0.497314" y1="319.889" x2="620" y2="319.889" stroke="#00FF29" stroke-opacity="0.25" stroke-width="0.3"/>
<line x1="0.497314" y1="355.338" x2="620" y2="355.338" stroke="#00FF29" stroke-opacity="0.25" stroke-width="0.3"/>
<line x1="19.3695" y1="389.414" x2="19.3695" y2="0.258667" stroke="#00FF29" stroke-opacity="0.25" stroke-width="0.3"/>
<rect x="620" y="0.000976562" width="619.497" height="389.937" fill="white"/>
<rect x="620.15" y="0.150977" width="619.197" height="389.637" stroke="black" stroke-opacity="0.1" stroke-width="0.3"/>
<line x1="693.85" y1="389.945" x2="693.85" y2="-3.05176e-05" stroke="#00FF29" stroke-opacity="0.25" stroke-width="0.3"/>
<line x1="730.1" y1="389.949" x2="730.099" y2="0.00411987" stroke="#00FF29" stroke-opacity="0.25" stroke-width="0.3"/>
<line x1="766.349" y1="389.953" x2="766.349" y2="0.00802612" stroke="#00FF29" stroke-opacity="0.25" stroke-width="0.3"/>
<line x1="802.599" y1="389.957" x2="802.599" y2="0.0116882" stroke="#00FF29" stroke-opacity="0.25" stroke-width="0.3"/>
<line x1="838.849" y1="389.961" x2="838.849" y2="0.0158386" stroke="#00FF29" stroke-opacity="0.25" stroke-width="0.3"/>
<line x1="875.099" y1="389.965" x2="875.099" y2="0.0197449" stroke="#00FF29" stroke-opacity="0.25" stroke-width="0.3"/>
<line x1="911.349" y1="389.969" x2="911.349" y2="0.023407" stroke="black" stroke-opacity="0.1" stroke-width="0.3"/>
<line x1="947.599" y1="389.973" x2="947.599" y2="0.0273132" stroke="#00FF29" stroke-opacity="0.25" stroke-width="0.3"/>
<line x1="983.849" y1="389.977" x2="983.849" y2="0.0314636" stroke="#00FF29" stroke-opacity="0.25" stroke-width="0.3"/>
<line x1="1020.1" y1="389.98" x2="1020.1" y2="0.0351257" stroke="#00FF29" stroke-opacity="0.25" stroke-width="0.3"/>
<line x1="1056.35" y1="389.984" x2="1056.35" y2="0.039032" stroke="#00FF29" stroke-opacity="0.25" stroke-width="0.3"/>
<line x1="1092.6" y1="389.989" x2="1092.6" y2="0.0431824" stroke="#00FF29" stroke-opacity="0.25" stroke-width="0.3"/>
<line x1="1128.85" y1="389.992" x2="1128.85" y2="0.0468445" stroke="#00FF29" stroke-opacity="0.25" stroke-width="0.3"/>
<line x1="1165.1" y1="389.996" x2="1165.1" y2="0.0507507" stroke="#00FF29" stroke-opacity="0.25" stroke-width="0.3"/>
<line x1="1201.35" y1="390" x2="1201.35" y2="0.0549011" stroke="#00FF29" stroke-opacity="0.25" stroke-width="0.3"/>
<line x1="620.497" y1="36.0329" x2="1240" y2="36.0329" stroke="#00FF29" stroke-opacity="0.25" stroke-width="0.3"/>
<line x1="620.497" y1="71.7465" x2="1240" y2="71.7465" stroke="#00FF29" stroke-opacity="0.25" stroke-width="0.3"/>
<line x1="620.497" y1="107.195" x2="1240" y2="107.195" stroke="#00FF29" stroke-opacity="0.25" stroke-width="0.3"/>
<line x1="620.497" y1="142.644" x2="1240" y2="142.644" stroke="#00FF29" stroke-opacity="0.25" stroke-width="0.3"/>
<line x1="620.497" y1="178.093" x2="1240" y2="178.093" stroke="black" stroke-opacity="0.1" stroke-width="0.3"/>
<line x1="620.497" y1="213.542" x2="1240" y2="213.542" stroke="#00FF29" stroke-opacity="0.25" stroke-width="0.3"/>
<line x1="620.497" y1="248.991" x2="1240" y2="248.991" stroke="#00FF29" stroke-opacity="0.25" stroke-width="0.3"/>
<line x1="620.497" y1="284.439" x2="1240" y2="284.439" stroke="#00FF29" stroke-opacity="0.25" stroke-width="0.3"/>
<line x1="620.497" y1="319.888" x2="1240" y2="319.888" stroke="#00FF29" stroke-opacity="0.25" stroke-width="0.3"/>
<line x1="620.497" y1="355.337" x2="1240" y2="355.337" stroke="#00FF29" stroke-opacity="0.25" stroke-width="0.3"/>
<line x1="639.37" y1="389.414" x2="639.37" y2="0.258179" stroke="#00FF29" stroke-opacity="0.25" stroke-width="0.3"/>
<rect x="619" y="389.001" width="619.497" height="389.937" fill="white"/>
<rect x="619.15" y="389.151" width="619.197" height="389.637" stroke="black" stroke-opacity="0.1" stroke-width="0.3"/>
<line x1="692.85" y1="778.945" x2="692.85" y2="389" stroke="#00FF29" stroke-opacity="0.25" stroke-width="0.3"/>
<line x1="729.1" y1="778.949" x2="729.099" y2="389.004" stroke="#00FF29" stroke-opacity="0.25" stroke-width="0.3"/>
<line x1="765.349" y1="778.953" x2="765.349" y2="389.008" stroke="#00FF29" stroke-opacity="0.25" stroke-width="0.3"/>
<line x1="801.599" y1="778.957" x2="801.599" y2="389.012" stroke="#00FF29" stroke-opacity="0.25" stroke-width="0.3"/>
<line x1="837.849" y1="778.961" x2="837.849" y2="389.016" stroke="#00FF29" stroke-opacity="0.25" stroke-width="0.3"/>
<line x1="874.099" y1="778.965" x2="874.099" y2="389.02" stroke="#00FF29" stroke-opacity="0.25" stroke-width="0.3"/>
<line x1="910.349" y1="778.969" x2="910.349" y2="389.023" stroke="black" stroke-opacity="0.1" stroke-width="0.3"/>
<line x1="946.599" y1="778.973" x2="946.599" y2="389.027" stroke="#00FF29" stroke-opacity="0.25" stroke-width="0.3"/>
<line x1="982.849" y1="778.977" x2="982.849" y2="389.031" stroke="#00FF29" stroke-opacity="0.25" stroke-width="0.3"/>
<line x1="1019.1" y1="778.98" x2="1019.1" y2="389.035" stroke="#00FF29" stroke-opacity="0.25" stroke-width="0.3"/>
<line x1="1055.35" y1="778.984" x2="1055.35" y2="389.039" stroke="#00FF29" stroke-opacity="0.25" stroke-width="0.3"/>
<line x1="1091.6" y1="778.989" x2="1091.6" y2="389.043" stroke="#00FF29" stroke-opacity="0.25" stroke-width="0.3"/>
<line x1="1127.85" y1="778.992" x2="1127.85" y2="389.047" stroke="#00FF29" stroke-opacity="0.25" stroke-width="0.3"/>
<line x1="1164.1" y1="778.996" x2="1164.1" y2="389.051" stroke="#00FF29" stroke-opacity="0.25" stroke-width="0.3"/>
<line x1="1200.35" y1="779" x2="1200.35" y2="389.055" stroke="#00FF29" stroke-opacity="0.25" stroke-width="0.3"/>
<line x1="619.497" y1="425.033" x2="1239" y2="425.033" stroke="#00FF29" stroke-opacity="0.25" stroke-width="0.3"/>
<line x1="619.497" y1="460.746" x2="1239" y2="460.746" stroke="#00FF29" stroke-opacity="0.25" stroke-width="0.3"/>
<line x1="619.497" y1="496.195" x2="1239" y2="496.195" stroke="#00FF29" stroke-opacity="0.25" stroke-width="0.3"/>
<line x1="619.497" y1="531.644" x2="1239" y2="531.644" stroke="#00FF29" stroke-opacity="0.25" stroke-width="0.3"/>
<line x1="619.497" y1="567.093" x2="1239" y2="567.093" stroke="black" stroke-opacity="0.1" stroke-width="0.3"/>
<line x1="619.497" y1="602.542" x2="1239" y2="602.542" stroke="#00FF29" stroke-opacity="0.25" stroke-width="0.3"/>
<line x1="619.497" y1="637.991" x2="1239" y2="637.991" stroke="#00FF29" stroke-opacity="0.25" stroke-width="0.3"/>
<line x1="619.497" y1="673.439" x2="1239" y2="673.439" stroke="#00FF29" stroke-opacity="0.25" stroke-width="0.3"/>
<line x1="619.497" y1="708.888" x2="1239" y2="708.888" stroke="#00FF29" stroke-opacity="0.25" stroke-width="0.3"/>
<line x1="619.497" y1="744.337" x2="1239" y2="744.337" stroke="#00FF29" stroke-opacity="0.25" stroke-width="0.3"/>
<line x1="638.37" y1="778.414" x2="638.37" y2="389.258" stroke="#00FF29" stroke-opacity="0.25" stroke-width="0.3"/>
<rect y="389.001" width="619.497" height="389.937" fill="white"/>
<rect x="0.15" y="389.151" width="619.197" height="389.637" stroke="black" stroke-opacity="0.1" stroke-width="0.3"/>
<line x1="73.8498" y1="778.945" x2="73.8498" y2="389" stroke="#00FF29" stroke-opacity="0.25" stroke-width="0.3"/>
<line x1="110.1" y1="778.949" x2="110.1" y2="389.004" stroke="#00FF29" stroke-opacity="0.25" stroke-width="0.3"/>
<line x1="146.349" y1="778.953" x2="146.349" y2="389.008" stroke="#00FF29" stroke-opacity="0.25" stroke-width="0.3"/>
<line x1="182.599" y1="778.957" x2="182.599" y2="389.012" stroke="#00FF29" stroke-opacity="0.25" stroke-width="0.3"/>
<line x1="218.849" y1="778.961" x2="218.849" y2="389.016" stroke="#00FF29" stroke-opacity="0.25" stroke-width="0.3"/>
<line x1="255.099" y1="778.965" x2="255.099" y2="389.02" stroke="#00FF29" stroke-opacity="0.25" stroke-width="0.3"/>
<line x1="291.349" y1="778.969" x2="291.349" y2="389.023" stroke="black" stroke-opacity="0.1" stroke-width="0.3"/>
<line x1="327.599" y1="778.973" x2="327.599" y2="389.027" stroke="#00FF29" stroke-opacity="0.25" stroke-width="0.3"/>
<line x1="363.849" y1="778.977" x2="363.849" y2="389.031" stroke="#00FF29" stroke-opacity="0.25" stroke-width="0.3"/>
<line x1="400.098" y1="778.98" x2="400.098" y2="389.035" stroke="#00FF29" stroke-opacity="0.25" stroke-width="0.3"/>
<line x1="436.348" y1="778.984" x2="436.348" y2="389.039" stroke="#00FF29" stroke-opacity="0.25" stroke-width="0.3"/>
<line x1="472.598" y1="778.989" x2="472.598" y2="389.043" stroke="#00FF29" stroke-opacity="0.25" stroke-width="0.3"/>
<line x1="508.848" y1="778.992" x2="508.848" y2="389.047" stroke="#00FF29" stroke-opacity="0.25" stroke-width="0.3"/>
<line x1="545.098" y1="778.996" x2="545.098" y2="389.051" stroke="#00FF29" stroke-opacity="0.25" stroke-width="0.3"/>
<line x1="581.348" y1="779" x2="581.348" y2="389.055" stroke="#00FF29" stroke-opacity="0.25" stroke-width="0.3"/>
<line x1="0.497314" y1="425.033" x2="620" y2="425.033" stroke="#00FF29" stroke-opacity="0.25" stroke-width="0.3"/>
<line x1="0.497314" y1="460.746" x2="620" y2="460.746" stroke="#00FF29" stroke-opacity="0.25" stroke-width="0.3"/>
<line x1="0.497314" y1="496.195" x2="620" y2="496.195" stroke="#00FF29" stroke-opacity="0.25" stroke-width="0.3"/>
<line x1="0.497314" y1="531.644" x2="620" y2="531.644" stroke="#00FF29" stroke-opacity="0.25" stroke-width="0.3"/>
<line x1="0.497314" y1="567.093" x2="620" y2="567.093" stroke="black" stroke-opacity="0.1" stroke-width="0.3"/>
<line x1="0.497314" y1="602.542" x2="620" y2="602.542" stroke="#00FF29" stroke-opacity="0.25" stroke-width="0.3"/>
<line x1="0.497314" y1="637.991" x2="620" y2="637.991" stroke="#00FF29" stroke-opacity="0.25" stroke-width="0.3"/>
<line x1="0.497314" y1="673.439" x2="620" y2="673.439" stroke="#00FF29" stroke-opacity="0.25" stroke-width="0.3"/>
<line x1="0.497314" y1="708.888" x2="620" y2="708.888" stroke="#00FF29" stroke-opacity="0.25" stroke-width="0.3"/>
<line x1="0.497314" y1="744.337" x2="620" y2="744.337" stroke="#00FF29" stroke-opacity="0.25" stroke-width="0.3"/>
<line x1="19.3695" y1="778.414" x2="19.3695" y2="389.258" stroke="#00FF29" stroke-opacity="0.25" stroke-width="0.3"/>
</svg>
