<svg width="1895" height="1794" viewBox="0 0 1895 1794" fill="none" xmlns="http://www.w3.org/2000/svg">
<g filter="url(#filter0_f)">
<path fill-rule="evenodd" clip-rule="evenodd" d="M1061.16 645.092V645.092L1060.17 646.992L1059.08 648.873L1057.9 650.731L1056.61 652.565L1055.23 654.372L1053.75 656.15L1052.16 657.896L1050.49 659.609L1048.71 661.285L1046.84 662.922L1044.88 664.519L1042.83 666.074L1040.69 667.585L1038.47 669.049L1036.17 670.465L1033.8 671.833L1031.36 673.151L1028.86 674.418L1026.3 675.633L1023.69 676.797L1021.04 677.91L1018.35 678.971L1015.64 679.983L1012.92 680.945L1010.18 681.86L1007.44 682.729L1004.71 683.554L1001.99 684.336L999.285 685.077L996.607 685.78L993.961 686.448L991.355 687.085L988.797 687.693L986.294 688.277L983.855 688.84L981.486 689.388L979.196 689.925L976.991 690.457L974.878 690.988L972.863 691.524L970.953 692.071L969.153 692.634L967.467 693.219L965.9 693.832L964.455 694.479L963.135 695.165L961.942 695.896L960.876 696.676L959.938 697.512L959.128 698.407L958.443 699.366L957.882 700.393L957.441 701.492L957.117 702.665L956.905 703.915L956.798 705.244L956.792 706.653L956.879 708.143L957.05 709.714L957.3 711.366L957.617 713.096L957.994 714.904L958.422 716.787L958.889 718.742L959.387 720.764L959.905 722.85L960.433 724.994L960.96 727.191L961.477 729.435L961.974 731.718L962.44 734.035L962.867 736.378L963.245 738.738L963.566 741.108L963.821 743.48L964.003 745.845L964.105 748.194L964.12 750.52L964.043 752.813L963.869 755.065L963.593 757.267L963.212 759.412L962.724 761.493L962.126 763.5L961.416 765.428L960.596 767.27L959.664 769.019L958.623 770.671L957.474 772.22L956.218 773.662L954.861 774.994L953.404 776.212L951.853 777.314L950.212 778.299L948.486 779.167L946.681 779.916L944.803 780.548L942.858 781.064L940.852 781.467L938.793 781.758L936.685 781.942L934.538 782.023L932.356 782.004L930.146 781.891L927.915 781.69L925.669 781.406L923.414 781.045L921.155 780.614L918.898 780.12L916.648 779.569L914.409 778.967L912.185 778.322L909.98 777.639L907.797 776.926L905.639 776.188L903.508 775.431L901.407 774.66L899.335 773.879L897.294 773.093L895.286 772.307L893.311 771.525L891.369 770.754L889.462 769.997L887.588 769.262L885.748 768.553L883.942 767.876L882.168 767.235L880.425 766.635L878.713 766.081L877.03 765.577L875.373 765.126L873.74 764.732L872.13 764.397L870.539 764.123L868.966 763.913L867.407 763.767L865.859 763.687L864.32 763.672L862.786 763.724L861.256 763.84L859.725 764.021L858.19 764.264L856.65 764.568L855.102 764.93L853.542 765.348L851.968 765.819L850.379 766.339L848.772 766.905L847.145 767.513L845.496 768.159L843.824 768.838L842.129 769.547L840.408 770.28L838.661 771.033L836.887 771.8L835.087 772.578L833.26 773.361L831.407 774.144L829.527 774.922L827.622 775.691L825.692 776.446L823.739 777.183L821.764 777.896L819.769 778.581L817.754 779.236L815.722 779.854L813.676 780.433L811.616 780.969L809.545 781.46L807.466 781.901L805.381 782.29L803.293 782.624L801.203 782.902L799.115 783.122L797.031 783.281L794.953 783.378L792.885 783.413L790.827 783.384L788.784 783.29L786.758 783.132L784.749 782.909L782.762 782.622L780.798 782.271L778.858 781.856L776.945 781.378L775.061 780.838L773.207 780.238L771.385 779.578L769.596 778.861L767.841 778.087L766.122 777.258L764.44 776.376L762.795 775.443L761.189 774.46L759.623 773.429L758.097 772.352L756.611 771.231L755.168 770.067L753.766 768.863L752.407 767.619L751.092 766.338L749.821 765.02L748.595 763.668L747.413 762.282L746.278 760.864L745.19 759.415L744.148 757.937L743.155 756.431L742.21 754.897L741.315 753.337L740.469 751.752L739.673 750.144L738.928 748.514L738.233 746.864L737.587 745.194L736.991 743.509L736.443 741.81L735.94 740.1L735.48 738.381L735.061 736.657L734.68 734.931L734.335 733.204L734.023 731.48L733.741 729.76L733.486 728.047L733.254 726.343L733.044 724.651L732.852 722.971L732.674 721.305L732.508 719.656L732.35 718.024L732.199 716.41L732.051 714.815L731.903 713.24L731.753 711.686L731.599 710.152L731.438 708.639L731.269 707.147L731.089 705.676L730.899 704.225L730.695 702.794L730.477 701.382L730.245 699.989L729.998 698.613L729.735 697.254L729.457 695.911L729.165 694.582L728.857 693.266L728.536 691.963L728.202 690.67L727.857 689.387L727.501 688.112L727.137 686.844L726.766 685.582L726.39 684.325L726.011 683.071L725.631 681.82L725.252 680.571L724.876 679.323L724.505 678.075L724.141 676.826L723.787 675.576L723.443 674.324L723.112 673.07L722.796 671.814L722.495 670.556L722.211 669.295L721.945 668.032L721.697 666.766L721.469 665.498L721.259 664.228L721.068 662.957L720.895 661.684L720.739 660.409L720.6 659.134L720.475 657.858L720.363 656.582L720.262 655.306L720.169 654.03L720.081 652.754L719.996 651.478L719.911 650.202L719.821 648.926L719.725 647.649L719.617 646.371L719.494 645.092L719.352 643.81L719.189 642.524L718.999 641.235L718.78 639.939L718.528 638.637L718.241 637.326L717.914 636.006L717.547 634.674L717.137 633.329L716.681 631.97L716.18 630.593L715.632 629.199L715.038 627.784L714.398 626.348L713.713 624.889L712.985 623.405L712.217 621.895L711.412 620.358L710.574 618.794L709.708 617.201L708.817 615.579L707.909 613.928L706.99 612.249L706.065 610.542L705.139 608.807L704.217 607.045L703.302 605.257L702.398 603.441L701.505 601.6L700.625 599.732L699.761 597.838L698.913 595.919L698.082 593.973L697.27 592.002L696.478 590.005L695.707 587.983L694.959 585.937L694.235 583.866L693.539 581.772L692.871 579.655L692.236 577.517L691.634 575.359L691.07 573.182L690.547 570.987L690.068 568.778L689.637 566.556L689.257 564.324L688.932 562.083L688.666 559.837L688.462 557.59L688.325 555.343L688.258 553.101L688.264 550.867L688.347 548.645L688.511 546.438L688.757 544.25L689.09 542.085L689.511 539.948L690.022 537.842L690.625 535.771L691.323 533.739L692.115 531.749L693.003 529.806L693.986 527.914L695.066 526.075L696.241 524.292L697.511 522.57L698.874 520.911L700.33 519.318L701.875 517.792L703.508 516.337L705.227 514.954L707.028 513.645L708.908 512.411L710.864 511.253L712.892 510.172L714.988 509.168L717.149 508.241L719.37 507.392L721.646 506.62L723.974 505.925L726.349 505.304L728.767 504.758L731.222 504.284L733.711 503.881L736.229 503.548L738.771 503.282L741.334 503.081L743.914 502.943L746.506 502.865L749.107 502.845L751.712 502.881L754.319 502.97L756.925 503.109L759.526 503.296L762.119 503.528L764.702 503.804L767.273 504.12L769.829 504.474L772.368 504.865L774.889 505.29L777.39 505.748L779.87 506.236L782.328 506.753L784.762 507.297L787.171 507.868L789.555 508.464L791.914 509.083L794.246 509.725L796.551 510.388L798.829 511.072L801.079 511.774L803.301 512.495L805.494 513.232L807.657 513.984L809.791 514.749L811.894 515.524L813.966 516.306L816.007 517.093L818.016 517.881L819.992 518.667L821.937 519.45L823.849 520.226L825.731 520.994L827.582 521.754L829.403 522.505L831.195 523.246L832.959 523.978L834.697 524.702L836.408 525.419L838.095 526.128L839.758 526.832L841.397 527.531L843.014 528.227L844.609 528.92L846.184 529.611L847.737 530.303L849.271 530.995L850.785 531.689L852.279 532.385L853.755 533.085L855.212 533.788L856.65 534.496L858.07 535.208L859.472 535.925L860.856 536.647L862.222 537.374L863.57 538.105L864.9 538.841L866.213 539.58L867.509 540.322L868.788 541.067L870.051 541.812L871.296 542.558L872.527 543.304L873.741 544.047L874.941 544.787L876.127 545.523L877.299 546.252L878.459 546.974L879.607 547.686L880.745 548.387L881.873 549.076L882.992 549.751L884.104 550.41L885.211 551.051L886.313 551.673L887.413 552.274L888.512 552.853L889.612 553.407L890.714 553.936L891.821 554.437L892.934 554.91L894.056 555.353L895.189 555.765L896.334 556.145L897.495 556.492L898.673 556.804L899.87 557.082L901.089 557.325L902.332 557.531L903.601 557.701L904.899 557.835L906.227 557.933L907.588 557.994L908.984 558.02L910.418 558.009L911.89 557.964L913.403 557.885L914.959 557.772L916.56 557.627L918.207 557.452L919.901 557.246L921.644 557.013L923.437 556.753L925.282 556.469L927.179 556.162L929.129 555.835L931.133 555.489L933.191 555.126L935.303 554.75L937.469 554.363L939.69 553.967L941.965 553.565L944.294 553.16L946.675 552.755L949.108 552.352L951.591 551.955L954.123 551.567L956.702 551.192L959.325 550.832L961.99 550.491L964.693 550.174L967.432 549.883L970.201 549.623L972.996 549.4L975.809 549.218L978.635 549.082L981.465 548.997L984.293 548.968L987.112 548.999L989.915 549.092L992.697 549.251L995.451 549.477L998.171 549.773L1000.85 550.14L1003.49 550.578L1006.08 551.087L1008.62 551.667L1011.11 552.318L1013.54 553.039L1015.91 553.827L1018.22 554.682L1020.46 555.602L1022.65 556.585L1024.77 557.627L1026.82 558.728L1028.81 559.884L1030.74 561.093L1032.6 562.352L1034.41 563.659L1036.15 565.011L1037.83 566.405L1039.46 567.839L1041.03 569.311L1042.55 570.819L1044.01 572.359L1045.42 573.931L1046.78 575.532L1048.1 577.16L1049.36 578.814L1050.58 580.492L1051.76 582.193L1052.89 583.915L1053.98 585.657L1055.03 587.418L1056.04 589.198L1057 590.994L1057.92 592.807L1058.8 594.636L1059.64 596.479L1060.43 598.337L1061.18 600.209L1061.88 602.093L1062.53 603.99L1063.13 605.899L1063.68 607.819L1064.18 609.75L1064.62 611.69L1065.01 613.639L1065.33 615.597L1065.59 617.561L1065.79 619.532L1065.91 621.508L1065.97 623.487L1065.95 625.47L1065.86 627.454L1065.68 629.437L1065.43 631.419L1065.09 633.398L1064.66 635.371L1064.14 637.337L1063.54 639.294L1062.84 641.241L1062.05 643.174L1061.16 645.092" fill="url(#paint0_linear)"/>
</g>
<g filter="url(#filter1_f)">
<path fill-rule="evenodd" clip-rule="evenodd" d="M590.068 1419.88V1419.88L589.787 1421.23L589.498 1422.58L589.2 1423.92L588.893 1425.25L588.576 1426.58L588.249 1427.9L587.911 1429.22L587.562 1430.53L587.202 1431.84L586.829 1433.14L586.444 1434.44L586.046 1435.74L585.634 1437.02L585.208 1438.3L584.768 1439.58L584.312 1440.85L583.84 1442.11L583.352 1443.37L582.847 1444.62L582.325 1445.87L581.785 1447.1L581.226 1448.33L580.649 1449.55L580.054 1450.77L579.438 1451.97L578.803 1453.16L578.148 1454.35L577.473 1455.53L576.777 1456.69L576.061 1457.85L575.324 1458.99L574.565 1460.12L573.786 1461.24L572.987 1462.35L572.166 1463.45L571.324 1464.53L570.462 1465.6L569.579 1466.65L568.676 1467.69L567.753 1468.72L566.81 1469.73L565.848 1470.73L564.867 1471.71L563.867 1472.67L562.85 1473.62L561.815 1474.55L560.763 1475.47L559.694 1476.37L558.61 1477.25L557.51 1478.11L556.397 1478.96L555.269 1479.8L554.128 1480.61L552.975 1481.41L551.81 1482.19L550.634 1482.95L549.449 1483.7L548.254 1484.43L547.05 1485.15L545.839 1485.85L544.621 1486.53L543.396 1487.2L542.166 1487.86L540.932 1488.5L539.693 1489.12L538.452 1489.74L537.207 1490.34L535.961 1490.92L534.714 1491.5L533.466 1492.06L532.218 1492.62L530.971 1493.16L529.725 1493.69L528.48 1494.21L527.238 1494.73L525.997 1495.24L524.76 1495.74L523.526 1496.23L522.295 1496.72L521.067 1497.2L519.844 1497.67L518.624 1498.15L517.409 1498.62L516.197 1499.08L514.99 1499.54L513.787 1500L512.588 1500.46L511.392 1500.92L510.201 1501.37L509.013 1501.83L507.829 1502.29L506.648 1502.74L505.47 1503.2L504.295 1503.66L503.123 1504.12L501.953 1504.58L500.785 1505.05L499.619 1505.52L498.454 1505.99L497.29 1506.46L496.126 1506.94L494.963 1507.42L493.799 1507.91L492.635 1508.4L491.469 1508.9L490.302 1509.4L489.132 1509.91L487.959 1510.42L486.783 1510.93L485.603 1511.45L484.419 1511.97L483.23 1512.5L482.035 1513.03L480.834 1513.57L479.626 1514.11L478.411 1514.65L477.188 1515.2L475.957 1515.75L474.717 1516.3L473.468 1516.85L472.209 1517.4L470.94 1517.96L469.661 1518.51L468.37 1519.06L467.068 1519.62L465.754 1520.17L464.428 1520.72L463.09 1521.26L461.739 1521.81L460.375 1522.34L458.998 1522.88L457.607 1523.4L456.203 1523.93L454.786 1524.44L453.354 1524.95L451.909 1525.44L450.451 1525.93L448.978 1526.41L447.492 1526.88L445.992 1527.34L444.478 1527.79L442.951 1528.22L441.41 1528.64L439.856 1529.05L438.289 1529.44L436.71 1529.82L435.117 1530.19L433.513 1530.53L431.896 1530.87L430.268 1531.18L428.628 1531.48L426.977 1531.75L425.315 1532.01L423.643 1532.26L421.962 1532.48L420.27 1532.68L418.57 1532.86L416.861 1533.02L415.145 1533.15L413.42 1533.27L411.689 1533.36L409.951 1533.43L408.207 1533.48L406.457 1533.51L404.703 1533.51L402.944 1533.48L401.182 1533.44L399.416 1533.37L397.647 1533.27L395.877 1533.15L394.105 1533L392.333 1532.83L390.56 1532.64L388.787 1532.41L387.015 1532.17L385.245 1531.89L383.477 1531.6L381.712 1531.27L379.95 1530.92L378.192 1530.55L376.438 1530.15L374.689 1529.72L372.946 1529.27L371.208 1528.79L369.476 1528.29L367.751 1527.76L366.033 1527.21L364.322 1526.64L362.619 1526.04L360.924 1525.42L359.236 1524.78L357.558 1524.11L355.887 1523.42L354.226 1522.71L352.574 1521.98L350.93 1521.22L349.296 1520.45L347.672 1519.65L346.057 1518.84L344.451 1518L342.855 1517.15L341.269 1516.28L339.693 1515.38L338.127 1514.47L336.57 1513.54L335.024 1512.59L333.487 1511.63L331.961 1510.64L330.444 1509.64L328.938 1508.63L327.442 1507.59L325.956 1506.54L324.481 1505.47L323.015 1504.39L321.561 1503.29L320.116 1502.17L318.682 1501.04L317.259 1499.89L315.846 1498.72L314.445 1497.54L313.054 1496.35L311.674 1495.14L310.305 1493.91L308.948 1492.67L307.602 1491.41L306.268 1490.14L304.945 1488.86L303.634 1487.55L302.336 1486.24L301.049 1484.9L299.775 1483.56L298.514 1482.19L297.266 1480.82L296.03 1479.42L294.808 1478.02L293.6 1476.6L292.406 1475.16L291.226 1473.71L290.061 1472.24L288.911 1470.76L287.776 1469.26L286.657 1467.75L285.554 1466.23L284.468 1464.69L283.399 1463.13L282.348 1461.57L281.314 1459.98L280.299 1458.38L279.303 1456.77L278.327 1455.14L277.37 1453.5L276.434 1451.85L275.519 1450.18L274.626 1448.5L273.755 1446.8L272.906 1445.09L272.08 1443.37L271.279 1441.64L270.501 1439.89L269.749 1438.13L269.021 1436.35L268.32 1434.57L267.646 1432.77L266.998 1430.96L266.378 1429.14L265.786 1427.31L265.223 1425.47L264.689 1423.62L264.184 1421.75L263.71 1419.88L263.267 1418L262.855 1416.11L262.474 1414.22L262.126 1412.31L261.81 1410.4L261.527 1408.48L261.277 1406.56L261.061 1404.62L260.878 1402.69L260.731 1400.75L260.618 1398.8L260.539 1396.85L260.497 1394.9L260.489 1392.94L260.518 1390.98L260.582 1389.02L260.683 1387.06L260.82 1385.1L260.994 1383.13L261.205 1381.17L261.452 1379.21L261.737 1377.25L262.059 1375.3L262.417 1373.34L262.814 1371.39L263.247 1369.45L263.718 1367.51L264.225 1365.57L264.77 1363.64L265.353 1361.72L265.972 1359.8L266.628 1357.89L267.32 1355.99L268.049 1354.1L268.815 1352.22L269.616 1350.35L270.453 1348.48L271.325 1346.63L272.233 1344.79L273.175 1342.96L274.152 1341.15L275.162 1339.34L276.206 1337.56L277.282 1335.78L278.391 1334.02L279.532 1332.27L280.704 1330.53L281.907 1328.82L283.139 1327.11L284.401 1325.42L285.692 1323.75L287.01 1322.1L288.356 1320.45L289.729 1318.83L291.127 1317.22L292.551 1315.63L293.999 1314.05L295.472 1312.49L296.967 1310.95L298.486 1309.42L300.026 1307.91L301.589 1306.41L303.172 1304.94L304.775 1303.47L306.399 1302.03L308.041 1300.6L309.703 1299.19L311.383 1297.79L313.081 1296.41L314.796 1295.04L316.528 1293.69L318.277 1292.36L320.042 1291.04L321.823 1289.74L323.619 1288.46L325.431 1287.19L327.258 1285.93L329.099 1284.69L330.955 1283.47L332.824 1282.26L334.708 1281.07L336.606 1279.89L338.517 1278.73L340.442 1277.59L342.38 1276.46L344.332 1275.34L346.296 1274.25L348.274 1273.17L350.265 1272.1L352.268 1271.05L354.284 1270.02L356.313 1269.01L358.355 1268.01L360.409 1267.03L362.475 1266.06L364.553 1265.12L366.644 1264.19L368.746 1263.28L370.861 1262.38L372.987 1261.51L375.125 1260.65L377.274 1259.82L379.435 1259L381.608 1258.2L383.791 1257.42L385.986 1256.66L388.191 1255.92L390.408 1255.2L392.634 1254.51L394.872 1253.83L397.119 1253.18L399.377 1252.55L401.645 1251.94L403.922 1251.35L406.209 1250.79L408.504 1250.25L410.809 1249.74L413.122 1249.25L415.444 1248.79L417.773 1248.35L420.11 1247.94L422.454 1247.56L424.805 1247.21L427.162 1246.88L429.525 1246.58L431.893 1246.32L434.266 1246.08L436.644 1245.87L439.025 1245.69L441.409 1245.55L443.796 1245.43L446.184 1245.35L448.574 1245.3L450.964 1245.28L453.354 1245.3L455.744 1245.35L458.131 1245.43L460.516 1245.55L462.898 1245.7L465.276 1245.89L467.65 1246.11L470.018 1246.36L472.38 1246.65L474.735 1246.97L477.082 1247.32L479.42 1247.71L481.75 1248.14L484.069 1248.6L486.377 1249.09L488.674 1249.62L490.958 1250.17L493.229 1250.77L495.486 1251.39L497.728 1252.05L499.955 1252.74L502.166 1253.47L504.36 1254.23L506.536 1255.01L508.694 1255.83L510.833 1256.68L512.952 1257.56L515.051 1258.47L517.129 1259.42L519.186 1260.39L521.22 1261.38L523.232 1262.41L525.221 1263.47L527.186 1264.55L529.126 1265.66L531.042 1266.79L532.933 1267.95L534.798 1269.14L536.637 1270.34L538.45 1271.58L540.236 1272.83L541.995 1274.11L543.726 1275.41L545.43 1276.73L547.106 1278.07L548.754 1279.42L550.374 1280.8L551.965 1282.2L553.527 1283.61L555.06 1285.04L556.564 1286.49L558.039 1287.96L559.485 1289.43L560.9 1290.93L562.286 1292.44L563.643 1293.96L564.969 1295.49L566.265 1297.04L567.532 1298.59L568.768 1300.16L569.974 1301.74L571.15 1303.33L572.295 1304.93L573.41 1306.54L574.495 1308.16L575.549 1309.79L576.573 1311.42L577.567 1313.06L578.53 1314.71L579.463 1316.36L580.365 1318.02L581.238 1319.69L582.08 1321.36L582.892 1323.03L583.674 1324.71L584.426 1326.39L585.149 1328.08L585.841 1329.77L586.505 1331.46L587.138 1333.15L587.743 1334.84L588.319 1336.53L588.867 1338.22L589.386 1339.92L589.877 1341.61L590.34 1343.3L590.776 1344.99L591.185 1346.67L591.567 1348.36L591.923 1350.04L592.254 1351.72L592.559 1353.39L592.84 1355.06L593.097 1356.72L593.33 1358.38L593.541 1360.04L593.73 1361.68L593.897 1363.33L594.044 1364.96L594.171 1366.59L594.278 1368.21L594.367 1369.82L594.438 1371.43L594.492 1373.03L594.529 1374.62L594.55 1376.2L594.556 1377.77L594.547 1379.34L594.524 1380.89L594.488 1382.44L594.438 1383.98L594.376 1385.51L594.302 1387.03L594.217 1388.54L594.12 1390.05L594.013 1391.55L593.896 1393.03L593.769 1394.51L593.633 1395.98L593.487 1397.45L593.333 1398.9L593.17 1400.35L592.999 1401.79L592.82 1403.22L592.632 1404.65L592.437 1406.06L592.235 1407.48L592.025 1408.88L591.807 1410.28L591.581 1411.67L591.348 1413.05L591.108 1414.43L590.86 1415.8L590.604 1417.17L590.34 1418.53L590.068 1419.88" fill="url(#paint1_linear)"/>
</g>
<g filter="url(#filter2_f)">
<path fill-rule="evenodd" clip-rule="evenodd" d="M1633.44 1329.42V1329.42L1633.9 1331.33L1634.27 1333.25L1634.56 1335.18L1634.77 1337.11L1634.89 1339.04L1634.93 1340.97L1634.89 1342.91L1634.76 1344.83L1634.56 1346.75L1634.27 1348.67L1633.91 1350.57L1633.48 1352.47L1632.97 1354.35L1632.39 1356.22L1631.74 1358.08L1631.03 1359.92L1630.26 1361.74L1629.43 1363.54L1628.54 1365.33L1627.61 1367.1L1626.62 1368.85L1625.59 1370.58L1624.52 1372.29L1623.41 1373.98L1622.26 1375.65L1621.08 1377.3L1619.88 1378.93L1618.65 1380.54L1617.4 1382.13L1616.13 1383.71L1614.85 1385.27L1613.55 1386.82L1612.25 1388.34L1610.93 1389.86L1609.61 1391.36L1608.29 1392.85L1606.97 1394.33L1605.65 1395.8L1604.32 1397.26L1603 1398.71L1601.69 1400.15L1600.38 1401.59L1599.07 1403.02L1597.76 1404.44L1596.47 1405.86L1595.17 1407.28L1593.89 1408.7L1592.6 1410.11L1591.32 1411.52L1590.05 1412.93L1588.78 1414.34L1587.51 1415.74L1586.24 1417.15L1584.98 1418.56L1583.72 1419.97L1582.45 1421.37L1581.19 1422.78L1579.93 1424.19L1578.66 1425.6L1577.39 1427.01L1576.11 1428.41L1574.83 1429.82L1573.54 1431.23L1572.24 1432.63L1570.93 1434.04L1569.62 1435.44L1568.29 1436.83L1566.95 1438.23L1565.59 1439.62L1564.23 1441L1562.84 1442.38L1561.44 1443.75L1560.02 1445.11L1558.59 1446.47L1557.13 1447.81L1555.66 1449.14L1554.16 1450.46L1552.65 1451.77L1551.11 1453.07L1549.55 1454.35L1547.97 1455.61L1546.36 1456.85L1544.74 1458.08L1543.08 1459.29L1541.41 1460.48L1539.71 1461.64L1537.99 1462.78L1536.24 1463.9L1534.47 1465L1532.68 1466.07L1530.86 1467.11L1529.02 1468.12L1527.16 1469.1L1525.27 1470.06L1523.36 1470.98L1521.43 1471.88L1519.48 1472.74L1517.52 1473.57L1515.53 1474.36L1513.52 1475.12L1511.5 1475.85L1509.46 1476.55L1507.4 1477.21L1505.33 1477.83L1503.24 1478.43L1501.14 1478.98L1499.03 1479.51L1496.91 1480L1494.78 1480.45L1492.64 1480.87L1490.49 1481.26L1488.33 1481.61L1486.17 1481.93L1484 1482.21L1481.83 1482.46L1479.65 1482.68L1477.47 1482.86L1475.28 1483.01L1473.1 1483.13L1470.91 1483.22L1468.73 1483.27L1466.54 1483.29L1464.36 1483.28L1462.18 1483.24L1460 1483.17L1457.83 1483.07L1455.66 1482.94L1453.49 1482.78L1451.34 1482.59L1449.18 1482.37L1447.04 1482.12L1444.9 1481.84L1442.77 1481.53L1440.65 1481.2L1438.54 1480.84L1436.44 1480.46L1434.34 1480.05L1432.26 1479.61L1430.19 1479.15L1428.13 1478.67L1426.09 1478.16L1424.05 1477.63L1422.03 1477.08L1420.02 1476.51L1418.03 1475.91L1416.04 1475.3L1414.07 1474.67L1412.12 1474.02L1410.17 1473.35L1408.24 1472.66L1406.33 1471.96L1404.43 1471.24L1402.54 1470.51L1400.66 1469.77L1398.8 1469.01L1396.95 1468.24L1395.11 1467.46L1393.29 1466.67L1391.48 1465.86L1389.68 1465.05L1387.89 1464.23L1386.11 1463.4L1384.35 1462.56L1382.59 1461.72L1380.85 1460.87L1379.11 1460.01L1377.39 1459.15L1375.67 1458.28L1373.96 1457.41L1372.26 1456.53L1370.57 1455.65L1368.88 1454.76L1367.2 1453.87L1365.53 1452.98L1363.87 1452.08L1362.21 1451.17L1360.55 1450.26L1358.9 1449.35L1357.26 1448.43L1355.62 1447.51L1353.99 1446.58L1352.37 1445.64L1350.74 1444.7L1349.13 1443.75L1347.52 1442.79L1345.91 1441.82L1344.31 1440.85L1342.72 1439.87L1341.13 1438.88L1339.55 1437.88L1337.97 1436.88L1336.4 1435.86L1334.83 1434.84L1333.27 1433.8L1331.72 1432.76L1330.17 1431.71L1328.62 1430.64L1327.09 1429.57L1325.56 1428.48L1324.04 1427.38L1322.53 1426.27L1321.03 1425.14L1319.53 1424.01L1318.05 1422.86L1316.57 1421.69L1315.11 1420.51L1313.66 1419.32L1312.23 1418.11L1310.81 1416.88L1309.4 1415.64L1308.01 1414.39L1306.64 1413.11L1305.28 1411.82L1303.95 1410.52L1302.63 1409.19L1301.33 1407.85L1300.06 1406.49L1298.81 1405.12L1297.57 1403.73L1296.37 1402.32L1295.19 1400.89L1294.03 1399.45L1292.9 1397.99L1291.79 1396.52L1290.71 1395.03L1289.67 1393.52L1288.65 1392L1287.66 1390.46L1286.7 1388.91L1285.78 1387.34L1284.88 1385.76L1284.03 1384.17L1283.2 1382.56L1282.42 1380.94L1281.67 1379.3L1280.96 1377.65L1280.28 1376L1279.65 1374.33L1279.05 1372.65L1278.5 1370.96L1277.98 1369.26L1277.51 1367.55L1277.08 1365.83L1276.69 1364.11L1276.34 1362.38L1276.04 1360.65L1275.77 1358.91L1275.55 1357.17L1275.38 1355.42L1275.24 1353.67L1275.15 1351.92L1275.11 1350.17L1275.1 1348.42L1275.14 1346.68L1275.21 1344.93L1275.33 1343.19L1275.49 1341.45L1275.69 1339.71L1275.93 1337.98L1276.2 1336.25L1276.52 1334.53L1276.87 1332.82L1277.26 1331.12L1277.68 1329.42L1278.14 1327.73L1278.63 1326.06L1279.15 1324.39L1279.7 1322.73L1280.29 1321.09L1280.9 1319.45L1281.55 1317.83L1282.22 1316.22L1282.91 1314.62L1283.63 1313.03L1284.37 1311.46L1285.14 1309.9L1285.92 1308.35L1286.72 1306.81L1287.54 1305.29L1288.37 1303.78L1289.22 1302.28L1290.07 1300.79L1290.94 1299.32L1291.82 1297.85L1292.71 1296.4L1293.6 1294.96L1294.5 1293.53L1295.4 1292.11L1296.3 1290.69L1297.21 1289.29L1298.12 1287.89L1299.03 1286.51L1299.93 1285.12L1300.84 1283.75L1301.75 1282.38L1302.65 1281.01L1303.55 1279.65L1304.44 1278.29L1305.33 1276.94L1306.22 1275.59L1307.1 1274.23L1307.98 1272.88L1308.85 1271.53L1309.72 1270.18L1310.58 1268.83L1311.43 1267.47L1312.28 1266.11L1313.12 1264.75L1313.95 1263.38L1314.78 1262L1315.6 1260.62L1316.41 1259.23L1317.23 1257.84L1318.03 1256.43L1318.83 1255.02L1319.63 1253.6L1320.43 1252.17L1321.23 1250.73L1322.03 1249.28L1322.82 1247.82L1323.63 1246.35L1324.43 1244.87L1325.24 1243.38L1326.05 1241.88L1326.88 1240.38L1327.71 1238.86L1328.55 1237.34L1329.4 1235.81L1330.27 1234.27L1331.15 1232.73L1332.04 1231.18L1332.95 1229.62L1333.89 1228.06L1334.83 1226.5L1335.8 1224.94L1336.8 1223.37L1337.81 1221.81L1338.85 1220.24L1339.91 1218.68L1341 1217.12L1342.12 1215.56L1343.26 1214.01L1344.44 1212.47L1345.64 1210.93L1346.87 1209.4L1348.13 1207.89L1349.43 1206.38L1350.75 1204.89L1352.11 1203.41L1353.49 1201.95L1354.91 1200.5L1356.37 1199.07L1357.85 1197.66L1359.37 1196.27L1360.92 1194.91L1362.5 1193.56L1364.12 1192.24L1365.76 1190.94L1367.44 1189.67L1369.15 1188.43L1370.89 1187.21L1372.66 1186.03L1374.46 1184.87L1376.3 1183.75L1378.16 1182.67L1380.05 1181.62L1381.96 1180.6L1383.91 1179.62L1385.88 1178.68L1387.88 1177.78L1389.9 1176.93L1391.94 1176.11L1394.01 1175.34L1396.1 1174.61L1398.21 1173.93L1400.34 1173.3L1402.49 1172.71L1404.66 1172.17L1406.84 1171.68L1409.03 1171.24L1411.24 1170.85L1413.46 1170.51L1415.69 1170.23L1417.93 1169.99L1420.18 1169.81L1422.43 1169.68L1424.69 1169.61L1426.95 1169.59L1429.2 1169.62L1431.46 1169.71L1433.72 1169.85L1435.97 1170.04L1438.21 1170.29L1440.45 1170.59L1442.68 1170.94L1444.9 1171.34L1447.11 1171.8L1449.3 1172.3L1451.48 1172.86L1453.64 1173.47L1455.78 1174.12L1457.91 1174.82L1460.01 1175.57L1462.09 1176.36L1464.15 1177.2L1466.19 1178.08L1468.2 1179L1470.18 1179.97L1472.14 1180.97L1474.06 1182.01L1475.96 1183.08L1477.83 1184.19L1479.67 1185.33L1481.47 1186.5L1483.25 1187.71L1484.99 1188.94L1486.71 1190.19L1488.38 1191.47L1490.03 1192.78L1491.64 1194.1L1493.22 1195.45L1494.77 1196.81L1496.29 1198.19L1497.77 1199.58L1499.22 1200.98L1500.64 1202.39L1502.03 1203.82L1503.38 1205.25L1504.71 1206.68L1506.01 1208.12L1507.28 1209.57L1508.52 1211.01L1509.73 1212.45L1510.92 1213.9L1512.08 1215.33L1513.22 1216.77L1514.34 1218.2L1515.43 1219.62L1516.51 1221.03L1517.56 1222.44L1518.6 1223.84L1519.62 1225.22L1520.62 1226.6L1521.61 1227.96L1522.59 1229.31L1523.55 1230.64L1524.5 1231.97L1525.45 1233.27L1526.38 1234.57L1527.31 1235.84L1528.24 1237.1L1529.16 1238.35L1530.08 1239.57L1531 1240.78L1531.93 1241.97L1532.86 1243.14L1533.79 1244.29L1534.73 1245.42L1535.69 1246.53L1536.65 1247.63L1537.63 1248.7L1538.62 1249.76L1539.63 1250.79L1540.65 1251.81L1541.7 1252.81L1542.77 1253.8L1543.85 1254.76L1544.97 1255.72L1546.1 1256.65L1547.27 1257.58L1548.45 1258.49L1549.67 1259.39L1550.92 1260.27L1552.19 1261.15L1553.49 1262.02L1554.83 1262.88L1556.19 1263.74L1557.58 1264.59L1559.01 1265.44L1560.47 1266.29L1561.95 1267.14L1563.47 1267.99L1565.02 1268.84L1566.6 1269.69L1568.21 1270.56L1569.85 1271.43L1571.52 1272.3L1573.21 1273.19L1574.93 1274.09L1576.67 1275.01L1578.44 1275.94L1580.23 1276.89L1582.03 1277.86L1583.85 1278.84L1585.69 1279.85L1587.53 1280.88L1589.39 1281.94L1591.25 1283.02L1593.11 1284.13L1594.98 1285.27L1596.84 1286.44L1598.69 1287.63L1600.53 1288.86L1602.36 1290.12L1604.18 1291.41L1605.97 1292.74L1607.74 1294.09L1609.48 1295.48L1611.19 1296.91L1612.86 1298.36L1614.5 1299.85L1616.09 1301.38L1617.64 1302.93L1619.14 1304.52L1620.59 1306.13L1621.98 1307.78L1623.32 1309.46L1624.59 1311.16L1625.8 1312.89L1626.95 1314.65L1628.02 1316.43L1629.03 1318.23L1629.96 1320.05L1630.81 1321.89L1631.59 1323.75L1632.29 1325.63L1632.91 1327.52L1633.44 1329.42" fill="url(#paint2_linear)"/>
</g>
<g filter="url(#filter3_f)">
<path fill-rule="evenodd" clip-rule="evenodd" d="M528.223 696.284V696.284L528.072 697.211L527.915 698.136L527.752 699.058L527.583 699.978L527.408 700.894L527.228 701.809L527.043 702.72L526.852 703.63L526.655 704.537L526.454 705.442L526.248 706.344L526.036 707.245L525.82 708.144L525.6 709.042L525.374 709.937L525.145 710.831L524.911 711.724L524.673 712.616L524.431 713.507L524.185 714.396L523.935 715.285L523.681 716.174L523.424 717.062L523.163 717.95L522.898 718.837L522.63 719.725L522.358 720.613L522.083 721.501L521.805 722.39L521.523 723.28L521.238 724.17L520.949 725.062L520.657 725.955L520.361 726.85L520.061 727.746L519.758 728.643L519.451 729.543L519.139 730.444L518.823 731.348L518.503 732.254L518.178 733.162L517.847 734.072L517.512 734.985L517.17 735.901L516.823 736.818L516.469 737.738L516.108 738.661L515.741 739.585L515.365 740.512L514.981 741.441L514.589 742.372L514.188 743.304L513.776 744.238L513.355 745.173L512.923 746.109L512.48 747.045L512.025 747.982L511.559 748.92L511.08 749.857L510.588 750.793L510.083 751.729L509.565 752.663L509.032 753.596L508.485 754.527L507.924 755.456L507.348 756.383L506.757 757.306L506.15 758.226L505.528 759.142L504.89 760.054L504.236 760.961L503.566 761.864L502.88 762.761L502.178 763.652L501.459 764.538L500.723 765.417L499.971 766.289L499.203 767.154L498.418 768.012L497.617 768.862L496.799 769.704L495.965 770.537L495.115 771.362L494.249 772.178L493.367 772.985L492.469 773.782L491.555 774.57L490.627 775.348L489.683 776.116L488.724 776.875L487.751 777.624L486.763 778.362L485.762 779.091L484.747 779.81L483.718 780.52L482.677 781.22L481.623 781.911L480.557 782.592L479.478 783.265L478.388 783.929L477.286 784.585L476.173 785.233L475.049 785.874L473.915 786.507L472.77 787.134L471.614 787.754L470.449 788.368L469.273 788.976L468.088 789.58L466.892 790.179L465.687 790.773L464.473 791.364L463.248 791.951L462.014 792.535L460.769 793.117L459.515 793.696L458.251 794.273L456.976 794.85L455.691 795.424L454.396 795.998L453.089 796.572L451.771 797.145L450.442 797.717L449.101 798.29L447.748 798.863L446.383 799.436L445.005 800.009L443.614 800.582L442.209 801.154L440.79 801.727L439.357 802.3L437.91 802.872L436.447 803.442L434.97 804.012L433.476 804.58L431.966 805.146L430.441 805.709L428.898 806.268L427.339 806.824L425.762 807.375L424.169 807.92L422.558 808.459L420.929 808.991L419.283 809.515L417.619 810.03L415.937 810.535L414.238 811.029L412.521 811.512L410.787 811.982L409.036 812.439L407.267 812.881L405.482 813.308L403.681 813.717L401.863 814.11L400.03 814.484L398.182 814.838L396.32 815.172L394.443 815.485L392.552 815.776L390.649 816.043L388.734 816.286L386.807 816.504L384.869 816.696L382.922 816.862L380.965 817L379 817.11L377.027 817.191L375.048 817.243L373.064 817.264L371.074 817.255L369.081 817.214L367.085 817.142L365.088 817.037L363.089 816.899L361.091 816.729L359.095 816.525L357.1 816.287L355.109 816.015L353.122 815.709L351.14 815.369L349.165 814.994L347.198 814.584L345.239 814.139L343.29 813.66L341.351 813.145L339.424 812.596L337.51 812.012L335.61 811.393L333.725 810.74L331.856 810.052L330.003 809.33L328.168 808.574L326.351 807.785L324.554 806.962L322.778 806.107L321.022 805.219L319.288 804.3L317.577 803.349L315.89 802.368L314.226 801.356L312.587 800.314L310.972 799.244L309.384 798.145L307.822 797.018L306.286 795.865L304.777 794.685L303.295 793.479L301.841 792.249L300.415 790.995L299.016 789.717L297.646 788.417L296.304 787.096L294.991 785.753L293.705 784.39L292.449 783.008L291.22 781.607L290.02 780.188L288.847 778.752L287.703 777.3L286.587 775.832L285.498 774.349L284.437 772.852L283.403 771.341L282.396 769.817L281.416 768.281L280.463 766.732L279.535 765.173L278.634 763.603L277.759 762.023L276.909 760.433L276.085 758.835L275.285 757.227L274.511 755.612L273.761 753.988L273.035 752.358L272.333 750.72L271.654 749.076L270.999 747.426L270.366 745.77L269.756 744.109L269.169 742.443L268.603 740.772L268.058 739.096L267.535 737.416L267.032 735.733L266.551 734.045L266.089 732.354L265.647 730.66L265.225 728.963L264.822 727.263L264.439 725.56L264.074 723.854L263.727 722.146L263.399 720.435L263.09 718.723L262.798 717.008L262.524 715.291L262.267 713.572L262.029 711.851L261.807 710.128L261.603 708.403L261.416 706.677L261.247 704.949L261.094 703.219L260.959 701.488L260.841 699.755L260.74 698.02L260.656 696.284L260.589 694.546L260.539 692.807L260.505 691.066L260.489 689.324L260.49 687.581L260.507 685.836L260.541 684.09L260.592 682.342L260.659 680.593L260.744 678.843L260.844 677.091L260.962 675.339L261.096 673.584L261.247 671.829L261.415 670.072L261.599 668.314L261.801 666.555L262.019 664.794L262.255 663.033L262.507 661.27L262.777 659.506L263.065 657.741L263.37 655.974L263.693 654.207L264.033 652.439L264.392 650.67L264.77 648.9L265.166 647.13L265.581 645.358L266.015 643.587L266.469 641.815L266.942 640.043L267.436 638.271L267.95 636.499L268.484 634.727L269.04 632.957L269.617 631.186L270.216 629.417L270.837 627.65L271.48 625.883L272.146 624.119L272.836 622.357L273.549 620.598L274.285 618.841L275.047 617.088L275.833 615.339L276.644 613.594L277.48 611.853L278.342 610.117L279.23 608.387L280.145 606.663L281.086 604.945L282.054 603.235L283.05 601.531L284.073 599.836L285.124 598.15L286.203 596.473L287.311 594.805L288.447 593.148L289.611 591.503L290.805 589.868L292.027 588.246L293.279 586.638L294.56 585.042L295.869 583.461L297.209 581.895L298.577 580.345L299.975 578.81L301.402 577.293L302.858 575.794L304.343 574.313L305.858 572.85L307.401 571.408L308.972 569.986L310.573 568.585L312.201 567.206L313.857 565.849L315.541 564.516L317.253 563.206L318.991 561.92L320.756 560.66L322.547 559.426L324.364 558.218L326.207 557.037L328.074 555.883L329.966 554.758L331.881 553.662L333.82 552.595L335.782 551.558L337.766 550.552L339.772 549.577L341.799 548.634L343.846 547.723L345.913 546.846L347.999 546.002L350.104 545.193L352.227 544.419L354.366 543.68L356.522 542.976L358.693 542.31L360.879 541.68L363.079 541.088L365.292 540.534L367.517 540.019L369.754 539.542L372 539.105L374.257 538.707L376.521 538.35L378.793 538.032L381.072 537.756L383.356 537.52L385.645 537.325L387.937 537.172L390.232 537.06L392.528 536.99L394.824 536.961L397.119 536.975L399.413 537.03L401.703 537.126L403.99 537.264L406.271 537.444L408.546 537.665L410.814 537.927L413.073 538.231L415.323 538.574L417.562 538.959L419.789 539.383L422.004 539.846L424.205 540.349L426.392 540.89L428.562 541.47L430.716 542.087L432.852 542.741L434.97 543.431L437.067 544.157L439.145 544.918L441.201 545.714L443.236 546.543L445.247 547.405L447.234 548.298L449.198 549.223L451.136 550.178L453.048 551.162L454.934 552.175L456.793 553.216L458.625 554.283L460.428 555.375L462.203 556.492L463.949 557.633L465.666 558.796L467.354 559.981L469.011 561.186L470.638 562.41L472.235 563.653L473.802 564.913L475.338 566.189L476.843 567.48L478.318 568.784L479.761 570.102L481.175 571.431L482.558 572.771L483.91 574.121L485.233 575.479L486.526 576.845L487.789 578.217L489.023 579.595L490.228 580.977L491.404 582.363L492.553 583.751L493.674 585.141L494.768 586.531L495.835 587.922L496.876 589.312L497.892 590.699L498.883 592.085L499.849 593.467L500.793 594.845L501.713 596.219L502.611 597.587L503.487 598.95L504.342 600.307L505.176 601.658L505.991 603.001L506.786 604.338L507.563 605.667L508.321 606.989L509.062 608.303L509.785 609.609L510.492 610.906L511.182 612.196L511.857 613.478L512.517 614.751L513.161 616.017L513.791 617.274L514.407 618.523L515.009 619.765L515.597 620.998L516.172 622.224L516.734 623.443L517.283 624.654L517.82 625.858L518.344 627.055L518.855 628.245L519.355 629.429L519.842 630.606L520.317 631.777L520.781 632.942L521.232 634.101L521.672 635.255L522.1 636.403L522.516 637.547L522.92 638.685L523.312 639.818L523.693 640.947L524.061 642.071L524.418 643.191L524.762 644.307L525.095 645.419L525.415 646.526L525.724 647.63L526.02 648.73L526.304 649.826L526.576 650.919L526.837 652.008L527.085 653.093L527.321 654.175L527.545 655.254L527.758 656.328L527.958 657.399L528.148 658.467L528.326 659.53L528.493 660.591L528.648 661.647L528.793 662.7L528.927 663.748L529.051 664.794L529.164 665.835L529.267 666.872L529.359 667.906L529.442 668.936L529.515 669.962L529.578 670.985L529.631 672.003L529.675 673.018L529.71 674.029L529.735 675.036L529.751 676.04L529.759 677.039L529.757 678.035L529.747 679.027L529.728 680.016L529.701 681.001L529.666 681.982L529.622 682.96L529.57 683.933L529.511 684.904L529.443 685.871L529.368 686.834L529.285 687.794L529.195 688.75L529.098 689.703L528.993 690.653L528.882 691.599L528.763 692.543L528.638 693.482L528.506 694.419L528.368 695.353L528.223 696.284" fill="url(#paint3_linear)"/>
</g>
<g filter="url(#filter4_f)">
<path fill-rule="evenodd" clip-rule="evenodd" d="M1625.81 648.304V648.304L1625.22 649.938L1624.61 651.562L1624 653.177L1623.37 654.781L1622.73 656.375L1622.08 657.959L1621.42 659.533L1620.75 661.097L1620.08 662.651L1619.39 664.196L1618.7 665.731L1617.99 667.257L1617.28 668.773L1616.56 670.28L1615.83 671.778L1615.09 673.267L1614.35 674.746L1613.59 676.217L1612.83 677.678L1612.05 679.13L1611.27 680.573L1610.48 682.007L1609.67 683.433L1608.86 684.849L1608.04 686.256L1607.21 687.654L1606.37 689.043L1605.52 690.422L1604.65 691.793L1603.78 693.154L1602.9 694.505L1602 695.848L1601.1 697.18L1600.18 698.503L1599.25 699.816L1598.31 701.12L1597.36 702.413L1596.4 703.696L1595.42 704.97L1594.44 706.233L1593.44 707.485L1592.43 708.728L1591.41 709.96L1590.38 711.181L1589.34 712.392L1588.29 713.592L1587.22 714.782L1586.15 715.961L1585.06 717.129L1583.97 718.287L1582.86 719.434L1581.75 720.571L1580.63 721.697L1579.49 722.813L1578.35 723.919L1577.2 725.015L1576.05 726.101L1574.88 727.177L1573.71 728.244L1572.53 729.301L1571.35 730.349L1570.16 731.387L1568.96 732.416L1567.76 733.437L1566.55 734.448L1565.33 735.451L1564.11 736.446L1562.88 737.432L1561.65 738.41L1560.42 739.38L1559.18 740.342L1557.93 741.297L1556.68 742.243L1555.43 743.183L1554.17 744.114L1552.9 745.039L1551.63 745.956L1550.36 746.865L1549.08 747.768L1547.8 748.664L1546.51 749.552L1545.22 750.434L1543.92 751.308L1542.62 752.176L1541.31 753.036L1540 753.89L1538.68 754.736L1537.36 755.575L1536.03 756.407L1534.7 757.232L1533.36 758.049L1532.01 758.859L1530.66 759.661L1529.3 760.456L1527.94 761.242L1526.57 762.021L1525.2 762.791L1523.81 763.553L1522.42 764.307L1521.03 765.052L1519.63 765.788L1518.22 766.514L1516.8 767.232L1515.38 767.94L1513.94 768.639L1512.51 769.327L1511.06 770.005L1509.61 770.673L1508.15 771.329L1506.68 771.974L1505.2 772.606L1503.72 773.226L1502.23 773.833L1500.73 774.427L1499.22 775.006L1497.7 775.571L1496.18 776.12L1494.65 776.654L1493.1 777.171L1491.56 777.671L1490 778.154L1488.44 778.619L1486.86 779.065L1485.28 779.492L1483.7 779.899L1482.1 780.286L1480.5 780.653L1478.9 780.998L1477.28 781.321L1475.67 781.623L1474.04 781.902L1472.41 782.159L1470.78 782.392L1469.14 782.602L1467.5 782.789L1465.86 782.951L1464.21 783.089L1462.56 783.203L1460.91 783.293L1459.26 783.358L1457.61 783.398L1455.95 783.413L1454.3 783.403L1452.65 783.369L1451 783.309L1449.35 783.225L1447.71 783.115L1446.07 782.981L1444.43 782.822L1442.8 782.637L1441.17 782.429L1439.54 782.195L1437.93 781.937L1436.32 781.654L1434.71 781.346L1433.12 781.014L1431.53 780.658L1429.95 780.277L1428.38 779.873L1426.82 779.445L1425.27 778.994L1423.73 778.52L1422.2 778.023L1420.69 777.505L1419.18 776.964L1417.69 776.403L1416.21 775.821L1414.75 775.219L1413.3 774.597L1411.86 773.956L1410.44 773.297L1409.03 772.621L1407.64 771.927L1406.26 771.218L1404.9 770.492L1403.55 769.751L1402.22 768.997L1400.9 768.228L1399.6 767.447L1398.31 766.654L1397.04 765.849L1395.79 765.033L1394.55 764.208L1393.33 763.373L1392.12 762.529L1390.93 761.678L1389.75 760.819L1388.59 759.953L1387.44 759.082L1386.31 758.205L1385.19 757.323L1384.08 756.437L1382.99 755.548L1381.91 754.655L1380.85 753.76L1379.8 752.862L1378.76 751.963L1377.73 751.063L1376.72 750.162L1375.71 749.261L1374.72 748.36L1373.74 747.459L1372.76 746.56L1371.8 745.661L1370.85 744.763L1369.9 743.867L1368.97 742.973L1368.04 742.082L1367.12 741.192L1366.21 740.305L1365.3 739.421L1364.41 738.539L1363.51 737.661L1362.62 736.786L1361.74 735.915L1360.86 735.047L1359.99 734.183L1359.12 733.323L1358.25 732.467L1357.39 731.614L1356.53 730.766L1355.66 729.922L1354.8 729.081L1353.94 728.245L1353.09 727.413L1352.23 726.585L1351.37 725.76L1350.51 724.939L1349.64 724.122L1348.78 723.309L1347.91 722.498L1347.04 721.691L1346.17 720.886L1345.3 720.085L1344.42 719.285L1343.53 718.488L1342.65 717.693L1341.76 716.899L1340.86 716.107L1339.96 715.315L1339.06 714.524L1338.15 713.732L1337.23 712.941L1336.31 712.149L1335.39 711.355L1334.46 710.561L1333.53 709.764L1332.6 708.964L1331.65 708.162L1330.71 707.356L1329.76 706.546L1328.81 705.732L1327.86 704.912L1326.91 704.088L1325.95 703.257L1325 702.42L1324.04 701.576L1323.08 700.724L1322.13 699.865L1321.18 698.997L1320.23 698.121L1319.28 697.236L1318.34 696.341L1317.41 695.436L1316.48 694.521L1315.56 693.596L1314.64 692.659L1313.74 691.712L1312.85 690.754L1311.96 689.784L1311.09 688.802L1310.24 687.809L1309.39 686.804L1308.57 685.787L1307.76 684.759L1306.96 683.718L1306.19 682.666L1305.43 681.602L1304.7 680.526L1303.98 679.439L1303.29 678.34L1302.62 677.23L1301.98 676.11L1301.36 674.979L1300.77 673.837L1300.2 672.686L1299.66 671.525L1299.15 670.355L1298.67 669.176L1298.22 667.988L1297.8 666.793L1297.41 665.591L1297.05 664.381L1296.73 663.166L1296.44 661.944L1296.18 660.718L1295.95 659.487L1295.76 658.252L1295.6 657.013L1295.48 655.772L1295.39 654.529L1295.33 653.284L1295.31 652.039L1295.32 650.793L1295.37 649.548L1295.45 648.304L1295.57 647.061L1295.72 645.821L1295.9 644.584L1296.12 643.35L1296.36 642.121L1296.64 640.896L1296.95 639.677L1297.29 638.463L1297.66 637.255L1298.06 636.054L1298.48 634.86L1298.93 633.673L1299.4 632.494L1299.9 631.322L1300.42 630.159L1300.96 629.005L1301.52 627.858L1302.1 626.721L1302.69 625.591L1303.31 624.471L1303.93 623.359L1304.57 622.255L1305.22 621.16L1305.88 620.072L1306.54 618.993L1307.22 617.921L1307.9 616.856L1308.58 615.798L1309.27 614.746L1309.96 613.7L1310.65 612.66L1311.34 611.624L1312.03 610.593L1312.72 609.566L1313.4 608.541L1314.08 607.52L1314.75 606.5L1315.42 605.481L1316.08 604.463L1316.73 603.445L1317.37 602.426L1318.01 601.406L1318.64 600.384L1319.25 599.359L1319.86 598.33L1320.46 597.298L1321.05 596.261L1321.63 595.219L1322.2 594.171L1322.77 593.118L1323.32 592.058L1323.87 590.991L1324.41 589.917L1324.94 588.836L1325.47 587.747L1325.99 586.65L1326.51 585.546L1327.02 584.433L1327.53 583.312L1328.04 582.183L1328.55 581.046L1329.06 579.901L1329.57 578.749L1330.08 577.588L1330.6 576.421L1331.12 575.246L1331.65 574.065L1332.18 572.878L1332.72 571.686L1333.27 570.488L1333.83 569.285L1334.4 568.079L1334.98 566.869L1335.58 565.657L1336.18 564.443L1336.81 563.227L1337.45 562.012L1338.11 560.797L1338.78 559.584L1339.47 558.373L1340.19 557.166L1340.92 555.963L1341.67 554.765L1342.45 553.573L1343.25 552.389L1344.07 551.213L1344.91 550.046L1345.78 548.89L1346.67 547.745L1347.58 546.612L1348.52 545.492L1349.49 544.386L1350.48 543.296L1351.49 542.222L1352.53 541.165L1353.6 540.125L1354.69 539.105L1355.8 538.104L1356.94 537.123L1358.1 536.163L1359.29 535.225L1360.5 534.309L1361.73 533.416L1362.99 532.546L1364.27 531.7L1365.56 530.879L1366.88 530.081L1368.22 529.309L1369.58 528.56L1370.95 527.836L1372.35 527.137L1373.76 526.462L1375.18 525.81L1376.62 525.182L1378.07 524.576L1379.54 523.993L1381.02 523.432L1382.51 522.891L1384 522.371L1385.51 521.87L1387.03 521.387L1388.55 520.922L1390.09 520.473L1391.62 520.04L1393.17 519.621L1394.72 519.215L1396.27 518.821L1397.83 518.438L1399.39 518.064L1400.96 517.699L1402.52 517.342L1404.09 516.99L1405.67 516.644L1407.24 516.301L1408.82 515.961L1410.4 515.623L1411.99 515.285L1413.57 514.946L1415.16 514.606L1416.75 514.264L1418.35 513.918L1419.95 513.568L1421.55 513.213L1423.16 512.852L1424.77 512.486L1426.39 512.112L1428.02 511.731L1429.65 511.342L1431.29 510.946L1432.93 510.541L1434.59 510.129L1436.25 509.708L1437.93 509.279L1439.61 508.842L1441.31 508.397L1443.01 507.945L1444.73 507.486L1446.47 507.021L1448.21 506.549L1449.97 506.073L1451.75 505.591L1453.54 505.106L1455.34 504.618L1457.16 504.127L1459 503.635L1460.85 503.142L1462.73 502.649L1464.61 502.158L1466.52 501.67L1468.44 501.185L1470.38 500.704L1472.34 500.23L1474.32 499.762L1476.31 499.303L1478.33 498.853L1480.36 498.414L1482.4 497.987L1484.47 497.573L1486.54 497.174L1488.64 496.79L1490.75 496.423L1492.88 496.074L1495.02 495.745L1497.18 495.436L1499.34 495.15L1501.53 494.886L1503.72 494.646L1505.92 494.432L1508.14 494.244L1510.36 494.084L1512.59 493.952L1514.83 493.85L1517.08 493.778L1519.33 493.737L1521.59 493.729L1523.85 493.753L1526.11 493.811L1528.37 493.904L1530.63 494.032L1532.89 494.196L1535.15 494.395L1537.41 494.632L1539.66 494.906L1541.9 495.217L1544.14 495.566L1546.37 495.953L1548.59 496.379L1550.8 496.843L1553 497.345L1555.18 497.887L1557.35 498.467L1559.5 499.086L1561.64 499.743L1563.76 500.44L1565.86 501.175L1567.95 501.948L1570.01 502.759L1572.05 503.608L1574.06 504.495L1576.06 505.418L1578.02 506.378L1579.97 507.375L1581.88 508.407L1583.77 509.475L1585.63 510.577L1587.46 511.713L1589.26 512.883L1591.03 514.086L1592.77 515.32L1594.48 516.586L1596.15 517.883L1597.8 519.21L1599.41 520.566L1600.98 521.95L1602.52 523.362L1604.03 524.8L1605.5 526.264L1606.94 527.754L1608.34 529.268L1609.7 530.805L1611.03 532.364L1612.32 533.945L1613.58 535.547L1614.8 537.17L1615.98 538.811L1617.13 540.47L1618.24 542.147L1619.32 543.841L1620.35 545.551L1621.35 547.275L1622.32 549.014L1623.24 550.767L1624.13 552.532L1624.99 554.309L1625.81 556.097L1626.59 557.896L1627.33 559.705L1628.04 561.523L1628.71 563.35L1629.35 565.184L1629.95 567.025L1630.52 568.873L1631.05 570.726L1631.54 572.585L1632 574.448L1632.42 576.315L1632.81 578.185L1633.17 580.057L1633.49 581.931L1633.78 583.807L1634.04 585.684L1634.26 587.561L1634.45 589.437L1634.61 591.312L1634.73 593.186L1634.83 595.058L1634.89 596.928L1634.93 598.794L1634.93 600.657L1634.9 602.516L1634.85 604.371L1634.77 606.22L1634.66 608.065L1634.52 609.904L1634.35 611.736L1634.16 613.562L1633.95 615.382L1633.71 617.194L1633.44 618.999L1633.15 620.796L1632.84 622.585L1632.5 624.365L1632.15 626.137L1631.77 627.9L1631.37 629.654L1630.95 631.399L1630.51 633.134L1630.06 634.86L1629.58 636.575L1629.09 638.281L1628.58 639.977L1628.06 641.663L1627.52 643.338L1626.96 645.004L1626.39 646.659L1625.81 648.304" fill="url(#paint4_linear)"/>
</g>
<g filter="url(#filter5_f)">
<path fill-rule="evenodd" clip-rule="evenodd" d="M1396.01 638.197V638.197L1388.19 640.542L1381.23 642.807L1375.06 645.007L1369.62 647.153L1364.84 649.257L1360.68 651.33L1357.09 653.38L1354.03 655.417L1351.46 657.446L1349.35 659.476L1347.67 661.514L1346.39 663.564L1345.49 665.633L1344.94 667.726L1344.72 669.847L1344.8 672L1345.17 674.189L1345.81 676.419L1346.69 678.691L1347.8 681.008L1349.11 683.372L1350.61 685.785L1352.26 688.249L1354.06 690.762L1355.97 693.327L1357.98 695.941L1360.06 698.603L1362.19 701.313L1364.34 704.066L1366.48 706.86L1368.6 709.69L1370.66 712.553L1372.64 715.443L1374.51 718.353L1376.25 721.278L1377.83 724.21L1379.23 727.142L1380.43 730.067L1381.41 732.976L1382.14 735.861L1382.62 738.715L1382.82 741.53L1382.74 744.297L1382.38 747.011L1381.71 749.663L1380.76 752.25L1379.51 754.765L1377.97 757.204L1376.15 759.565L1374.06 761.844L1371.71 764.041L1369.11 766.155L1366.29 768.187L1363.27 770.139L1360.06 772.013L1356.68 773.812L1353.15 775.541L1349.5 777.205L1345.75 778.808L1341.91 780.357L1338.02 781.858L1334.08 783.318L1330.12 784.742L1326.15 786.138L1322.19 787.514L1318.25 788.875L1314.35 790.228L1310.5 791.58L1306.71 792.938L1302.99 794.307L1299.34 795.693L1295.77 797.102L1292.29 798.538L1288.9 800.008L1285.6 801.514L1282.39 803.061L1279.27 804.652L1276.25 806.291L1273.32 807.979L1270.47 809.718L1267.71 811.511L1265.02 813.356L1262.4 815.256L1259.85 817.208L1257.35 819.212L1254.91 821.266L1252.5 823.367L1250.13 825.512L1247.77 827.697L1245.43 829.915L1243.08 832.163L1240.73 834.432L1238.34 836.716L1235.93 839.005L1233.46 841.291L1230.94 843.565L1228.34 845.814L1225.66 848.029L1222.89 850.198L1220.01 852.308L1217.03 854.348L1213.92 856.304L1210.68 858.166L1207.31 859.92L1203.8 861.556L1200.14 863.062L1196.34 864.429L1192.4 865.648L1188.32 866.711L1184.1 867.612L1179.75 868.347L1175.28 868.912L1170.69 869.307L1165.99 869.532L1161.2 869.59L1156.33 869.484L1151.39 869.222L1146.39 868.811L1141.35 868.259L1136.28 867.578L1131.2 866.778L1126.11 865.874L1121.04 864.877L1115.99 863.803L1110.98 862.666L1106.01 861.481L1101.1 860.262L1096.25 859.025L1091.47 857.786L1086.77 856.557L1082.15 855.355L1077.61 854.192L1073.16 853.083L1068.79 852.041L1064.52 851.079L1060.33 850.209L1056.22 849.444L1052.2 848.795L1048.25 848.276L1044.38 847.896L1040.58 847.669L1036.84 847.606L1033.16 847.719L1029.53 848.021L1025.94 848.524L1022.38 849.244L1018.85 850.194L1015.33 851.391L1011.81 852.851L1008.28 854.594L1004.73 856.64L1001.14 859.013L997.499 861.739L993.785 864.847L989.98 868.37L986.063 872.346L982.01 876.818L977.933 873.024L973.996 868.972L970.175 865.38L966.448 862.208L962.794 859.423L959.197 856.996L955.64 854.899L952.109 853.109L948.59 851.605L945.071 850.368L941.54 849.38L937.988 848.624L934.404 848.087L930.78 847.754L927.107 847.611L923.379 847.647L919.589 847.849L915.73 848.205L911.797 848.704L907.786 849.332L903.694 850.08L899.517 850.934L895.254 851.882L890.903 852.912L886.464 854.012L881.94 855.167L877.33 856.364L872.64 857.589L867.873 858.828L863.035 860.066L858.132 861.288L853.173 862.48L848.167 863.626L843.124 864.711L838.055 865.721L832.973 866.641L827.889 867.458L822.817 868.159L817.771 868.732L812.765 869.167L807.813 869.453L802.928 869.584L798.123 869.552L793.411 869.354L788.804 868.986L784.31 868.448L779.94 867.74L775.7 866.865L771.597 865.828L767.634 864.633L763.814 863.289L760.138 861.805L756.604 860.189L753.209 858.453L749.95 856.607L746.821 854.665L743.814 852.638L740.921 850.538L738.134 848.378L735.441 846.17L732.833 843.925L730.297 841.654L727.824 839.37L725.399 837.08L723.013 834.795L720.652 832.523L718.305 830.272L715.961 828.048L713.609 825.858L711.238 823.706L708.837 821.598L706.398 819.536L703.912 817.524L701.369 815.563L698.763 813.655L696.087 811.801L693.335 810L690.501 808.253L687.581 806.556L684.573 804.91L681.473 803.312L678.281 801.758L674.996 800.245L671.618 798.77L668.151 797.328L664.597 795.915L660.96 794.526L657.248 793.155L653.466 791.796L649.624 790.443L645.732 789.09L641.8 787.731L637.843 786.359L633.874 784.966L629.91 783.547L625.966 782.093L622.062 780.599L618.217 779.058L614.45 777.464L610.783 775.811L607.237 774.092L603.832 772.304L600.591 770.443L597.534 768.504L594.682 766.484L592.052 764.383L589.662 762.2L587.528 759.933L585.664 757.586L584.079 755.159L582.782 752.655L581.778 750.08L581.07 747.437L580.657 744.733L580.534 741.974L580.694 739.166L581.127 736.318L581.821 733.437L582.758 730.532L583.922 727.609L585.293 724.677L586.847 721.744L588.563 718.818L590.415 715.905L592.379 713.012L594.428 710.144L596.537 707.308L598.679 704.508L600.829 701.748L602.961 699.032L605.05 696.362L607.072 693.74L609.003 691.167L610.82 688.646L612.5 686.174L614.021 683.753L615.363 681.381L616.504 679.056L617.423 676.778L618.101 674.542L618.517 672.346L618.65 670.187L618.479 668.062L617.983 665.965L617.138 663.892L615.921 661.839L614.307 659.8L612.268 657.769L609.774 655.74L606.792 653.705L603.288 651.658L599.221 649.589L594.546 647.491L589.213 645.352L583.165 643.162L576.337 640.908L568.655 638.577L573.987 636.22L581.078 633.943L587.367 631.734L592.921 629.58L597.8 627.47L602.056 625.393L605.735 623.339L608.878 621.302L611.524 619.271L613.705 617.242L615.452 615.206L616.792 613.158L617.753 611.092L618.358 609.004L618.63 606.888L618.591 604.74L618.263 602.556L617.667 600.334L616.822 598.069L615.749 595.759L614.469 593.402L613.002 590.997L611.371 588.541L609.595 586.036L607.698 583.479L605.703 580.873L603.632 578.218L601.511 575.516L599.364 572.77L597.217 569.982L595.095 567.157L593.024 564.299L591.03 561.414L589.139 558.506L587.378 555.583L585.769 552.652L584.338 549.719L583.106 546.792L582.094 543.88L581.321 540.991L580.803 538.131L580.554 535.31L580.586 532.535L580.907 529.812L581.521 527.149L582.43 524.552L583.634 522.025L585.128 519.573L586.905 517.2L588.954 514.908L591.264 512.698L593.819 510.57L596.603 508.525L599.597 506.561L602.781 504.675L606.136 502.864L609.639 501.124L613.27 499.45L617.008 497.838L620.83 496.28L624.718 494.772L628.65 493.307L632.61 491.877L636.579 490.477L640.542 489.099L644.483 487.736L648.389 486.382L652.248 485.03L656.05 483.674L659.786 482.307L663.447 480.924L667.028 479.519L670.523 478.087L673.93 476.623L677.245 475.123L680.467 473.583L683.596 471.998L686.633 470.368L689.58 468.688L692.441 466.956L695.219 465.173L697.919 463.335L700.546 461.445L703.108 459.501L705.612 457.505L708.065 455.458L710.477 453.365L712.856 451.226L715.213 449.048L717.559 446.834L719.903 444.591L722.258 442.325L724.636 440.043L727.047 437.754L729.503 435.467L732.018 433.191L734.602 430.936L737.266 428.715L740.022 426.538L742.88 424.418L745.85 422.366L748.939 420.396L752.157 418.518L755.507 416.746L758.997 415.091L762.627 413.563L766.402 412.173L770.319 410.93L774.378 409.842L778.575 408.915L782.904 408.153L787.359 407.561L791.932 407.139L796.612 406.887L801.388 406.803L806.249 406.882L811.181 407.12L816.172 407.508L821.206 408.038L826.271 408.7L831.353 409.481L836.437 410.37L841.512 411.353L846.565 412.416L851.584 413.544L856.558 414.722L861.48 415.937L866.339 417.171L871.129 418.412L875.845 419.643L880.48 420.85L885.032 422.02L889.499 423.139L893.877 424.192L898.169 425.168L902.373 426.054L906.492 426.836L910.528 427.504L914.485 428.045L918.367 428.448L922.179 428.7L925.926 428.79L929.616 428.706L933.254 428.435L936.85 427.964L940.411 427.28L943.948 426.368L947.47 425.211L950.987 423.794L954.513 422.098L958.061 420.101L961.643 417.782L965.277 415.114L968.979 412.069L972.768 408.615L976.665 404.713L980.695 400.323L984.788 402.68L988.745 406.809L992.583 410.472L996.324 413.708L999.988 416.552L1003.59 419.035L1007.16 421.183L1010.69 423.02L1014.21 424.568L1017.73 425.847L1021.26 426.873L1024.8 427.665L1028.38 428.236L1032 428.601L1035.66 428.772L1039.38 428.764L1043.16 428.588L1047.01 428.255L1050.93 427.779L1054.93 427.17L1059.01 426.441L1063.17 425.603L1067.42 424.669L1071.76 423.651L1076.18 422.562L1080.69 421.415L1085.29 420.224L1089.97 419.002L1094.72 417.764L1099.55 416.525L1104.44 415.299L1109.39 414.102L1114.39 412.947L1119.43 411.852L1124.5 410.829L1129.58 409.893L1134.66 409.059L1139.74 408.339L1144.79 407.745L1149.8 407.287L1154.76 406.977L1159.66 406.821L1164.48 406.826L1169.21 406.997L1173.83 407.338L1178.34 407.849L1182.73 408.53L1186.99 409.379L1191.12 410.391L1195.1 411.561L1198.95 412.881L1202.65 414.344L1206.2 415.94L1209.62 417.658L1212.9 419.486L1216.05 421.414L1219.08 423.428L1221.99 425.518L1224.79 427.669L1227.5 429.87L1230.12 432.11L1232.66 434.377L1235.15 436.66L1237.58 438.95L1239.97 441.236L1242.33 443.511L1244.68 445.766L1247.03 447.994L1249.38 450.19L1251.74 452.348L1254.14 454.464L1256.57 456.533L1259.05 458.553L1261.58 460.522L1264.18 462.439L1266.84 464.302L1269.58 466.111L1272.4 467.867L1275.31 469.571L1278.3 471.225L1281.39 472.831L1284.56 474.392L1287.84 475.911L1291.2 477.392L1294.65 478.838L1298.19 480.256L1301.82 481.648L1305.52 483.022L1309.29 484.383L1313.12 485.736L1317.01 487.088L1320.93 488.446L1324.89 489.816L1328.85 491.205L1332.82 492.62L1336.77 494.067L1340.68 495.554L1344.54 497.087L1348.32 498.673L1352 500.316L1355.57 502.024L1359 503.8L1362.26 505.65L1365.35 507.577L1368.24 509.583L1370.91 511.671L1373.33 513.841L1375.51 516.095L1377.42 518.429L1379.05 520.844L1380.39 523.335L1381.44 525.9L1382.2 528.532L1382.66 531.227L1382.83 533.978L1382.71 536.778L1382.32 539.62L1381.67 542.496L1380.77 545.399L1379.64 548.319L1378.3 551.25L1376.77 554.183L1375.08 557.111L1373.25 560.027L1371.3 562.924L1369.26 565.796L1367.16 568.637L1365.02 571.443L1362.87 574.21L1360.74 576.933L1358.64 579.611L1356.6 582.24L1354.66 584.821L1352.82 587.35L1351.12 589.83L1349.57 592.259L1348.2 594.639L1347.02 596.971L1346.07 599.257L1345.35 601.499L1344.89 603.701L1344.71 605.866L1344.83 607.996L1345.28 610.097L1346.06 612.173L1347.22 614.229L1348.77 616.27L1350.74 618.302L1353.16 620.331L1356.06 622.364L1359.48 624.409L1363.45 626.474L1368.03 628.567L1373.25 630.699L1379.18 632.88L1385.88 635.123L1393.42 637.441L1396.01 638.197Z" fill="url(#paint5_linear)"/>
</g>
<defs>
<filter id="filter0_f" x="428.258" y="242.845" width="897.711" height="800.568" filterUnits="userSpaceOnUse" color-interpolation-filters="sRGB">
<feFlood flood-opacity="0" result="BackgroundImageFix"/>
<feBlend mode="normal" in="SourceGraphic" in2="BackgroundImageFix" result="shape"/>
<feGaussianBlur stdDeviation="130" result="effect1_foregroundBlur"/>
</filter>
<filter id="filter1_f" x="0.489197" y="985.284" width="854.067" height="808.224" filterUnits="userSpaceOnUse" color-interpolation-filters="sRGB">
<feFlood flood-opacity="0" result="BackgroundImageFix"/>
<feBlend mode="normal" in="SourceGraphic" in2="BackgroundImageFix" result="shape"/>
<feGaussianBlur stdDeviation="130" result="effect1_foregroundBlur"/>
</filter>
<filter id="filter2_f" x="1015.1" y="909.588" width="879.829" height="833.706" filterUnits="userSpaceOnUse" color-interpolation-filters="sRGB">
<feFlood flood-opacity="0" result="BackgroundImageFix"/>
<feBlend mode="normal" in="SourceGraphic" in2="BackgroundImageFix" result="shape"/>
<feGaussianBlur stdDeviation="130" result="effect1_foregroundBlur"/>
</filter>
<filter id="filter3_f" x="0.489197" y="276.961" width="789.27" height="800.303" filterUnits="userSpaceOnUse" color-interpolation-filters="sRGB">
<feFlood flood-opacity="0" result="BackgroundImageFix"/>
<feBlend mode="normal" in="SourceGraphic" in2="BackgroundImageFix" result="shape"/>
<feGaussianBlur stdDeviation="130" result="effect1_foregroundBlur"/>
</filter>
<filter id="filter4_f" x="1035.31" y="233.729" width="859.618" height="809.684" filterUnits="userSpaceOnUse" color-interpolation-filters="sRGB">
<feFlood flood-opacity="0" result="BackgroundImageFix"/>
<feBlend mode="normal" in="SourceGraphic" in2="BackgroundImageFix" result="shape"/>
<feGaussianBlur stdDeviation="130" result="effect1_foregroundBlur"/>
</filter>
<filter id="filter5_f" x="168.655" y="0.323364" width="1627.36" height="1276.5" filterUnits="userSpaceOnUse" color-interpolation-filters="sRGB">
<feFlood flood-opacity="0" result="BackgroundImageFix"/>
<feBlend mode="normal" in="SourceGraphic" in2="BackgroundImageFix" result="shape"/>
<feGaussianBlur stdDeviation="200" result="effect1_foregroundBlur"/>
</filter>
<linearGradient id="paint0_linear" x1="1171.17" y1="244.638" x2="1314.91" y2="513.474" gradientUnits="userSpaceOnUse">
<stop stop-color="#CF0369"/>
<stop offset="1" stop-color="#03DB87"/>
</linearGradient>
<linearGradient id="paint1_linear" x1="489.135" y1="1157.11" x2="595.125" y2="1431.94" gradientUnits="userSpaceOnUse">
<stop stop-color="#45B8B3"/>
<stop offset="1" stop-color="#403B5E"/>
</linearGradient>
<linearGradient id="paint2_linear" x1="1265.5" y1="1327.11" x2="1624.5" y2="1349" gradientUnits="userSpaceOnUse">
<stop stop-color="#C4E3DB"/>
<stop offset="1" stop-color="#BF94D4"/>
</linearGradient>
<linearGradient id="paint3_linear" x1="328.045" y1="451.768" x2="133.755" y2="525.901" gradientUnits="userSpaceOnUse">
<stop stop-color="#3B78C4"/>
<stop offset="1" stop-color="#ABD94A"/>
</linearGradient>
<linearGradient id="paint4_linear" x1="1571.11" y1="365.216" x2="1697.48" y2="636.421" gradientUnits="userSpaceOnUse">
<stop stop-color="#5E87B8"/>
<stop offset="1" stop-color="#0840BA"/>
</linearGradient>
<linearGradient id="paint5_linear" x1="539.091" y1="640.377" x2="1356.13" y2="741.003" gradientUnits="userSpaceOnUse">
<stop stop-color="#63B38C"/>
<stop offset="1" stop-color="#911F4D"/>
</linearGradient>
</defs>
</svg>
