<svg width="46" height="46" viewBox="0 0 46 46" fill="none" xmlns="http://www.w3.org/2000/svg">
<rect width="46" height="46" fill="white"/>
<path d="M18 17V29H21V17H18ZM17 16.498C17 16.223 17.215 16 17.498 16H21.502C21.777 16 22 16.22 22 16.498V29.502C22.0007 29.5676 21.9882 29.6326 21.9635 29.6934C21.9387 29.7541 21.902 29.8093 21.8556 29.8556C21.8093 29.902 21.7541 29.9387 21.6934 29.9635C21.6326 29.9882 21.5676 30.0007 21.502 30H17.498C17.4325 30.0003 17.3677 29.9876 17.3071 29.9626C17.2466 29.9377 17.1916 29.901 17.1453 29.8547C17.099 29.8084 17.0623 29.7534 17.0374 29.6929C17.0124 29.6323 16.9997 29.5675 17 29.502V16.498Z" fill="black"/>
<path d="M19 13H20V16.5H19V13Z" fill="black"/>
<path d="M26 15V21H29V15H26ZM25 14.5C25 14.224 25.215 14 25.498 14H29.502C29.777 14 30 14.23 30 14.5V21.5C30 21.776 29.785 22 29.502 22H25.498C25.366 21.9987 25.2398 21.9455 25.1466 21.852C25.0534 21.7584 25.0008 21.632 25 21.5V14.5V14.5Z" fill="black"/>
<path d="M27 11H28V14.5H27V11Z" fill="black"/>
</svg>
