<svg width="46" height="46" viewBox="0 0 46 46" fill="none" xmlns="http://www.w3.org/2000/svg">
<rect width="46" height="46" fill="white"/>
<path d="M15.8573 16.4286V33.5714H20.143V16.4286H15.8573ZM14.4287 15.7114C14.4287 15.3186 14.7359 15 15.1401 15H20.8601C21.253 15 21.5716 15.3143 21.5716 15.7114V34.2886C21.5725 34.3823 21.5548 34.4752 21.5194 34.562C21.4839 34.6487 21.4316 34.7275 21.3653 34.7938C21.2991 34.86 21.2203 34.9124 21.1335 34.9478C21.0468 34.9832 20.9538 35.001 20.8601 35H15.1401C15.0466 35.0004 14.9539 34.9822 14.8674 34.9466C14.781 34.911 14.7024 34.8586 14.6362 34.7925C14.5701 34.7263 14.5177 34.6478 14.4821 34.5613C14.4465 34.4748 14.4283 34.3821 14.4287 34.2886V15.7114Z" fill="black"/>
<path d="M17.2856 10.7142H18.7142V15.7142H17.2856V10.7142Z" fill="black"/>
<path d="M27.2855 13.5714V22.1428H31.5712V13.5714H27.2855ZM25.8569 12.8571C25.8569 12.4628 26.1641 12.1428 26.5684 12.1428H32.2884C32.6812 12.1428 32.9998 12.4714 32.9998 12.8571V22.8571C32.9998 23.2514 32.6926 23.5714 32.2884 23.5714H26.5684C26.3798 23.5695 26.1995 23.4936 26.0664 23.3599C25.9333 23.2263 25.858 23.0457 25.8569 22.8571V12.8571V12.8571Z" fill="black"/>
<path d="M28.7144 7.85718H30.1429V12.8572H28.7144V7.85718Z" fill="black"/>
</svg>
