<svg width="170" height="34" viewBox="0 0 170 34" fill="none" xmlns="http://www.w3.org/2000/svg">
<rect width="170" height="34" fill="white"/>
<path d="M20 11V23H23V11H20ZM19 10.498C19 10.223 19.215 10 19.498 10H23.502C23.777 10 24 10.22 24 10.498V23.502C24.0007 23.5676 23.9882 23.6326 23.9635 23.6934C23.9387 23.7541 23.902 23.8093 23.8556 23.8556C23.8093 23.902 23.7541 23.9387 23.6934 23.9635C23.6326 23.9882 23.5676 24.0007 23.502 24H19.498C19.4325 24.0003 19.3677 23.9876 19.3071 23.9626C19.2466 23.9377 19.1916 23.901 19.1453 23.8547C19.099 23.8084 19.0623 23.7534 19.0374 23.6929C19.0124 23.6323 18.9997 23.5675 19 23.502V10.498Z" fill="black"/>
<path d="M21 7H22V10.5H21V7Z" fill="black"/>
<path d="M28 9V15H31V9H28ZM27 8.5C27 8.224 27.215 8 27.498 8H31.502C31.777 8 32 8.23 32 8.5V15.5C32 15.776 31.785 16 31.502 16H27.498C27.366 15.9987 27.2398 15.9455 27.1466 15.852C27.0534 15.7584 27.0008 15.632 27 15.5V8.5V8.5Z" fill="black"/>
<path d="M29 5H30V8.5H29V5Z" fill="black"/>
<path d="M56.5391 15.5703C57.1797 14.7839 58.013 14.3906 59.0391 14.3906C60.8255 14.3906 61.7266 15.3984 61.7422 17.4141V23H60.2969V17.4062C60.2917 16.7969 60.151 16.3464 59.875 16.0547C59.6042 15.763 59.1797 15.6172 58.6016 15.6172C58.1328 15.6172 57.7214 15.7422 57.3672 15.9922C57.013 16.2422 56.737 16.5703 56.5391 16.9766V23H55.0938V11H56.5391V15.5703ZM67.4141 23.1562C66.2682 23.1562 65.3359 22.7812 64.6172 22.0312C63.8984 21.276 63.5391 20.2682 63.5391 19.0078V18.7422C63.5391 17.9036 63.6979 17.1562 64.0156 16.5C64.3385 15.8385 64.7865 15.3229 65.3594 14.9531C65.9375 14.5781 66.5625 14.3906 67.2344 14.3906C68.3333 14.3906 69.1875 14.7526 69.7969 15.4766C70.4062 16.2005 70.7109 17.237 70.7109 18.5859V19.1875H64.9844C65.0052 20.0208 65.2474 20.6953 65.7109 21.2109C66.1797 21.7214 66.7734 21.9766 67.4922 21.9766C68.0026 21.9766 68.4349 21.8724 68.7891 21.6641C69.1432 21.4557 69.4531 21.1797 69.7188 20.8359L70.6016 21.5234C69.8932 22.612 68.8307 23.1562 67.4141 23.1562ZM67.2344 15.5781C66.651 15.5781 66.1615 15.7917 65.7656 16.2188C65.3698 16.6406 65.125 17.2344 65.0312 18H69.2656V17.8906C69.224 17.1562 69.026 16.5885 68.6719 16.1875C68.3177 15.7812 67.8385 15.5781 67.2344 15.5781ZM73.9609 23H72.5156V14.5469H73.9609V23ZM72.3984 12.3047C72.3984 12.0703 72.4688 11.8724 72.6094 11.7109C72.7552 11.5495 72.9688 11.4688 73.25 11.4688C73.5312 11.4688 73.7448 11.5495 73.8906 11.7109C74.0365 11.8724 74.1094 12.0703 74.1094 12.3047C74.1094 12.5391 74.0365 12.7344 73.8906 12.8906C73.7448 13.0469 73.5312 13.125 73.25 13.125C72.9688 13.125 72.7552 13.0469 72.6094 12.8906C72.4688 12.7344 72.3984 12.5391 72.3984 12.3047ZM78.6406 19.0859L77.7344 20.0312V23H76.2891V11H77.7344V18.2578L78.5078 17.3281L81.1406 14.5469H82.8984L79.6094 18.0781L83.2812 23H81.5859L78.6406 19.0859ZM85.9609 23H84.5156V14.5469H85.9609V23ZM84.3984 12.3047C84.3984 12.0703 84.4688 11.8724 84.6094 11.7109C84.7552 11.5495 84.9688 11.4688 85.25 11.4688C85.5312 11.4688 85.7448 11.5495 85.8906 11.7109C86.0365 11.8724 86.1094 12.0703 86.1094 12.3047C86.1094 12.5391 86.0365 12.7344 85.8906 12.8906C85.7448 13.0469 85.5312 13.125 85.25 13.125C84.9688 13.125 84.7552 13.0469 84.6094 12.8906C84.4688 12.7344 84.3984 12.5391 84.3984 12.3047ZM89.6484 14.5469L89.6953 15.6094C90.3411 14.7969 91.1849 14.3906 92.2266 14.3906C94.013 14.3906 94.9141 15.3984 94.9297 17.4141V23H93.4844V17.4062C93.4792 16.7969 93.3385 16.3464 93.0625 16.0547C92.7917 15.763 92.3672 15.6172 91.7891 15.6172C91.3203 15.6172 90.9089 15.7422 90.5547 15.9922C90.2005 16.2422 89.9245 16.5703 89.7266 16.9766V23H88.2812V14.5469H89.6484ZM106.297 23C106.214 22.8333 106.146 22.5365 106.094 22.1094C105.422 22.8073 104.62 23.1562 103.688 23.1562C102.854 23.1562 102.169 22.9219 101.633 22.4531C101.102 21.9792 100.836 21.3802 100.836 20.6562C100.836 19.776 101.169 19.0938 101.836 18.6094C102.508 18.1198 103.451 17.875 104.664 17.875H106.07V17.2109C106.07 16.7057 105.919 16.3047 105.617 16.0078C105.315 15.7057 104.87 15.5547 104.281 15.5547C103.766 15.5547 103.333 15.6849 102.984 15.9453C102.635 16.2057 102.461 16.5208 102.461 16.8906H101.008C101.008 16.4688 101.156 16.0625 101.453 15.6719C101.755 15.276 102.161 14.9635 102.672 14.7344C103.188 14.5052 103.753 14.3906 104.367 14.3906C105.341 14.3906 106.104 14.6354 106.656 15.125C107.208 15.6094 107.495 16.2786 107.516 17.1328V21.0234C107.516 21.7995 107.615 22.4167 107.812 22.875V23H106.297ZM103.898 21.8984C104.352 21.8984 104.781 21.7812 105.188 21.5469C105.594 21.3125 105.888 21.0078 106.07 20.6328V18.8984H104.938C103.167 18.8984 102.281 19.4167 102.281 20.4531C102.281 20.9062 102.432 21.2604 102.734 21.5156C103.036 21.7708 103.424 21.8984 103.898 21.8984ZM114.703 20.7578C114.703 20.3672 114.555 20.0651 114.258 19.8516C113.966 19.6328 113.453 19.4453 112.719 19.2891C111.99 19.1328 111.409 18.9453 110.977 18.7266C110.549 18.5078 110.232 18.2474 110.023 17.9453C109.82 17.6432 109.719 17.2839 109.719 16.8672C109.719 16.1745 110.01 15.5885 110.594 15.1094C111.182 14.6302 111.932 14.3906 112.844 14.3906C113.802 14.3906 114.578 14.638 115.172 15.1328C115.771 15.6276 116.07 16.2604 116.07 17.0312H114.617C114.617 16.6354 114.448 16.2943 114.109 16.0078C113.776 15.7214 113.354 15.5781 112.844 15.5781C112.318 15.5781 111.906 15.6927 111.609 15.9219C111.312 16.151 111.164 16.4505 111.164 16.8203C111.164 17.1693 111.302 17.4323 111.578 17.6094C111.854 17.7865 112.352 17.9557 113.07 18.1172C113.794 18.2786 114.38 18.4714 114.828 18.6953C115.276 18.9193 115.607 19.1901 115.82 19.5078C116.039 19.8203 116.148 20.2031 116.148 20.6562C116.148 21.4115 115.846 22.0182 115.242 22.4766C114.638 22.9297 113.854 23.1562 112.891 23.1562C112.214 23.1562 111.615 23.0365 111.094 22.7969C110.573 22.5573 110.164 22.224 109.867 21.7969C109.576 21.3646 109.43 20.8984 109.43 20.3984H110.875C110.901 20.8828 111.094 21.2682 111.453 21.5547C111.818 21.8359 112.297 21.9766 112.891 21.9766C113.438 21.9766 113.875 21.8672 114.203 21.6484C114.536 21.4245 114.703 21.1276 114.703 20.7578ZM119.477 15.5703C120.117 14.7839 120.951 14.3906 121.977 14.3906C123.763 14.3906 124.664 15.3984 124.68 17.4141V23H123.234V17.4062C123.229 16.7969 123.089 16.3464 122.812 16.0547C122.542 15.763 122.117 15.6172 121.539 15.6172C121.07 15.6172 120.659 15.7422 120.305 15.9922C119.951 16.2422 119.674 16.5703 119.477 16.9766V23H118.031V11H119.477V15.5703ZM128.414 23H126.969V14.5469H128.414V23ZM126.852 12.3047C126.852 12.0703 126.922 11.8724 127.062 11.7109C127.208 11.5495 127.422 11.4688 127.703 11.4688C127.984 11.4688 128.198 11.5495 128.344 11.7109C128.49 11.8724 128.562 12.0703 128.562 12.3047C128.562 12.5391 128.49 12.7344 128.344 12.8906C128.198 13.0469 127.984 13.125 127.703 13.125C127.422 13.125 127.208 13.0469 127.062 12.8906C126.922 12.7344 126.852 12.5391 126.852 12.3047Z" fill="black"/>
</svg>
