<svg width="38" height="37" viewBox="0 0 38 37" fill="none" xmlns="http://www.w3.org/2000/svg">
<g filter="url(#filter0_d)">
<ellipse cx="19" cy="14.2105" rx="15" ry="14.2105" fill="black"/>
</g>
<path d="M9.21967 4.21967C8.9534 4.48594 8.9292 4.9026 9.14705 5.19621L9.21967 5.28033L13.2542 9.3149C11.3323 10.6644 9.89577 12.6799 9.29888 15.0644C9.1983 15.4662 9.4425 15.8735 9.84431 15.9741C10.2461 16.0746 10.6534 15.8305 10.754 15.4286C11.2835 13.3135 12.5911 11.5395 14.3342 10.3945L16.1438 12.2043C15.4363 12.9258 15 13.9143 15 15.0046C15 17.2138 16.7909 19.0046 19 19.0046C20.0904 19.0046 21.0788 18.5683 21.8004 17.8608L27.7197 23.7803C28.0126 24.0732 28.4874 24.0732 28.7803 23.7803C29.0466 23.5141 29.0708 23.0974 28.8529 22.8038L28.7803 22.7197L22.6668 16.6055L22.668 16.604L21.4679 15.4061L18.598 12.5368L18.6 12.536L15.7188 9.65782L15.72 9.656L14.5867 8.52549L10.2803 4.21967C9.98744 3.92678 9.51256 3.92678 9.21967 4.21967ZM17.2041 13.2655L20.7392 16.8006C20.2892 17.2364 19.6759 17.5046 19 17.5046C17.6193 17.5046 16.5 16.3853 16.5 15.0046C16.5 14.3287 16.7682 13.7154 17.2041 13.2655ZM19 7.5C17.9997 7.5 17.0291 7.64807 16.1111 7.925L17.3481 9.16119C17.8839 9.05532 18.4364 9 19 9C22.9231 9 26.3099 11.6803 27.2471 15.4332C27.3475 15.835 27.7546 16.0794 28.1565 15.9791C28.5584 15.8787 28.8028 15.4716 28.7024 15.0697C27.5994 10.6527 23.6155 7.5 19 7.5ZM19.1947 11.0093L22.996 14.81C22.8942 12.7531 21.2472 11.1076 19.1947 11.0093Z" fill="white"/>
<defs>
<filter id="filter0_d" x="0" y="0" width="38" height="36.4211" filterUnits="userSpaceOnUse" color-interpolation-filters="sRGB">
<feFlood flood-opacity="0" result="BackgroundImageFix"/>
<feColorMatrix in="SourceAlpha" type="matrix" values="0 0 0 0 0 0 0 0 0 0 0 0 0 0 0 0 0 0 127 0" result="hardAlpha"/>
<feOffset dy="4"/>
<feGaussianBlur stdDeviation="2"/>
<feComposite in2="hardAlpha" operator="out"/>
<feColorMatrix type="matrix" values="0 0 0 0 0 0 0 0 0 0 0 0 0 0 0 0 0 0 0.25 0"/>
<feBlend mode="normal" in2="BackgroundImageFix" result="effect1_dropShadow"/>
<feBlend mode="normal" in="SourceGraphic" in2="effect1_dropShadow" result="shape"/>
</filter>
</defs>
</svg>
