<svg width="46" height="46" viewBox="0 0 46 46" fill="none" xmlns="http://www.w3.org/2000/svg">
<rect width="46" height="46" fill="white"/>
<path d="M26 20V26H29V20H26ZM25.5 19H29.5C29.6326 19 29.7598 19.0527 29.8536 19.1464C29.9473 19.2402 30 19.3674 30 19.5V26.5C30 26.6326 29.9473 26.7598 29.8536 26.8536C29.7598 26.9473 29.6326 27 29.5 27H25.5C25.3674 27 25.2402 26.9473 25.1464 26.8536C25.0527 26.7598 25 26.6326 25 26.5V19.5C25 19.3674 25.0527 19.2402 25.1464 19.1464C25.2402 19.0527 25.3674 19 25.5 19Z" fill="black"/>
<path d="M27 16H28V19.5H27V16ZM27 26.5H28V30H27V26.5Z" fill="black"/>
<path d="M18 17V28H21V17H18ZM17.5 16H21.5C21.6326 16 21.7598 16.0527 21.8536 16.1464C21.9473 16.2402 22 16.3674 22 16.5V28.5C22 28.6326 21.9473 28.7598 21.8536 28.8536C21.7598 28.9473 21.6326 29 21.5 29H17.5C17.3674 29 17.2402 28.9473 17.1464 28.8536C17.0527 28.7598 17 28.6326 17 28.5V16.5C17 16.3674 17.0527 16.2402 17.1464 16.1464C17.2402 16.0527 17.3674 16 17.5 16Z" fill="black"/>
<path d="M19 13H20V18H19V13ZM19 27H20V32H19V27ZM17.5 18H19V19H17.5V18ZM20 18H21.5V19H20V18ZM19 19H20V20H19V19ZM17.5 20H19V21H17.5V20ZM20 20H21.5V21H20V20ZM19 21H20V22H19V21ZM17.5 22H19V23H17.5V22ZM20 22H21.5V23H20V22ZM19 23H20V24H19V23ZM17.5 24H19V25H17.5V24ZM20 24H21.5V25H20V24ZM19 25H20V26H19V25ZM17.5 26H19V27H17.5V26ZM20 26H21.5V27H20V26Z" fill="black"/>
</svg>
