<svg width="170" height="34" viewBox="0 0 170 34" fill="none" xmlns="http://www.w3.org/2000/svg">
<rect width="170" height="34" fill="white"/>
<path d="M28 14V20H31V14H28ZM27.5 13H31.5C31.6326 13 31.7598 13.0527 31.8536 13.1464C31.9473 13.2402 32 13.3674 32 13.5V20.5C32 20.6326 31.9473 20.7598 31.8536 20.8536C31.7598 20.9473 31.6326 21 31.5 21H27.5C27.3674 21 27.2402 20.9473 27.1464 20.8536C27.0527 20.7598 27 20.6326 27 20.5V13.5C27 13.3674 27.0527 13.2402 27.1464 13.1464C27.2402 13.0527 27.3674 13 27.5 13Z" fill="black"/>
<path d="M29 10H30V13.5H29V10ZM29 20.5H30V24H29V20.5Z" fill="black"/>
<path d="M20 11V22H23V11H20ZM19.5 10H23.5C23.6326 10 23.7598 10.0527 23.8536 10.1464C23.9473 10.2402 24 10.3674 24 10.5V22.5C24 22.6326 23.9473 22.7598 23.8536 22.8536C23.7598 22.9473 23.6326 23 23.5 23H19.5C19.3674 23 19.2402 22.9473 19.1464 22.8536C19.0527 22.7598 19 22.6326 19 22.5V10.5C19 10.3674 19.0527 10.2402 19.1464 10.1464C19.2402 10.0527 19.3674 10 19.5 10Z" fill="black"/>
<path d="M21 7H22V12H21V7ZM21 21H22V26H21V21ZM19.5 12H21V13H19.5V12ZM22 12H23.5V13H22V12ZM21 13H22V14H21V13ZM19.5 14H21V15H19.5V14ZM22 14H23.5V15H22V14ZM21 15H22V16H21V15ZM19.5 16H21V17H19.5V16ZM22 16H23.5V17H22V16ZM21 17H22V18H21V17ZM19.5 18H21V19H19.5V18ZM22 18H23.5V19H22V18ZM21 19H22V20H21V19ZM19.5 20H21V21H19.5V20ZM22 20H23.5V21H22V20Z" fill="black"/>
<path d="M56.5391 15.5703C57.1797 14.7839 58.013 14.3906 59.0391 14.3906C60.8255 14.3906 61.7266 15.3984 61.7422 17.4141V23H60.2969V17.4062C60.2917 16.7969 60.151 16.3464 59.875 16.0547C59.6042 15.763 59.1797 15.6172 58.6016 15.6172C58.1328 15.6172 57.7214 15.7422 57.3672 15.9922C57.013 16.2422 56.737 16.5703 56.5391 16.9766V23H55.0938V11H56.5391V15.5703ZM63.5234 18.6953C63.5234 17.8672 63.6849 17.1224 64.0078 16.4609C64.3359 15.7995 64.7891 15.2891 65.3672 14.9297C65.9505 14.5703 66.6146 14.3906 67.3594 14.3906C68.5104 14.3906 69.4401 14.7891 70.1484 15.5859C70.862 16.3828 71.2188 17.4427 71.2188 18.7656V18.8672C71.2188 19.6901 71.0599 20.4297 70.7422 21.0859C70.4297 21.737 69.9792 22.2448 69.3906 22.6094C68.8073 22.974 68.1354 23.1562 67.375 23.1562C66.2292 23.1562 65.2995 22.7578 64.5859 21.9609C63.8776 21.1641 63.5234 20.1094 63.5234 18.7969V18.6953ZM64.9766 18.8672C64.9766 19.8047 65.1927 20.5573 65.625 21.125C66.0625 21.6927 66.6458 21.9766 67.375 21.9766C68.1094 21.9766 68.6927 21.6901 69.125 21.1172C69.5573 20.5391 69.7734 19.7318 69.7734 18.6953C69.7734 17.7682 69.5521 17.0182 69.1094 16.4453C68.6719 15.8672 68.0885 15.5781 67.3594 15.5781C66.6458 15.5781 66.0703 15.862 65.6328 16.4297C65.1953 16.9974 64.9766 17.8099 64.9766 18.8672ZM74.6016 23H73.1562V11H74.6016V23ZM78.4922 23H77.0469V11H78.4922V23ZM80.4297 18.6953C80.4297 17.8672 80.5911 17.1224 80.9141 16.4609C81.2422 15.7995 81.6953 15.2891 82.2734 14.9297C82.8568 14.5703 83.5208 14.3906 84.2656 14.3906C85.4167 14.3906 86.3464 14.7891 87.0547 15.5859C87.7682 16.3828 88.125 17.4427 88.125 18.7656V18.8672C88.125 19.6901 87.9661 20.4297 87.6484 21.0859C87.3359 21.737 86.8854 22.2448 86.2969 22.6094C85.7135 22.974 85.0417 23.1562 84.2812 23.1562C83.1354 23.1562 82.2057 22.7578 81.4922 21.9609C80.7839 21.1641 80.4297 20.1094 80.4297 18.7969V18.6953ZM81.8828 18.8672C81.8828 19.8047 82.099 20.5573 82.5312 21.125C82.9688 21.6927 83.5521 21.9766 84.2812 21.9766C85.0156 21.9766 85.599 21.6901 86.0312 21.1172C86.4635 20.5391 86.6797 19.7318 86.6797 18.6953C86.6797 17.7682 86.4583 17.0182 86.0156 16.4453C85.5781 15.8672 84.9948 15.5781 84.2656 15.5781C83.5521 15.5781 82.9766 15.862 82.5391 16.4297C82.1016 16.9974 81.8828 17.8099 81.8828 18.8672ZM97.4219 21.0078L99.0469 14.5469H100.492L98.0312 23H96.8594L94.8047 16.5938L92.8047 23H91.6328L89.1797 14.5469H90.6172L92.2812 20.875L94.25 14.5469H95.4141L97.4219 21.0078ZM109.328 21.9766C109.844 21.9766 110.294 21.8203 110.68 21.5078C111.065 21.1953 111.279 20.8047 111.32 20.3359H112.688C112.661 20.8203 112.495 21.2812 112.188 21.7188C111.88 22.1562 111.469 22.5052 110.953 22.7656C110.443 23.026 109.901 23.1562 109.328 23.1562C108.177 23.1562 107.26 22.7734 106.578 22.0078C105.901 21.237 105.562 20.1849 105.562 18.8516V18.6094C105.562 17.7865 105.714 17.0547 106.016 16.4141C106.318 15.7734 106.75 15.276 107.312 14.9219C107.88 14.5677 108.549 14.3906 109.32 14.3906C110.268 14.3906 111.055 14.6745 111.68 15.2422C112.31 15.8099 112.646 16.5469 112.688 17.4531H111.32C111.279 16.9062 111.07 16.4583 110.695 16.1094C110.326 15.7552 109.867 15.5781 109.32 15.5781C108.586 15.5781 108.016 15.8438 107.609 16.375C107.208 16.901 107.008 17.6641 107.008 18.6641V18.9375C107.008 19.9115 107.208 20.6615 107.609 21.1875C108.01 21.7135 108.583 21.9766 109.328 21.9766ZM119.531 23C119.448 22.8333 119.38 22.5365 119.328 22.1094C118.656 22.8073 117.854 23.1562 116.922 23.1562C116.089 23.1562 115.404 22.9219 114.867 22.4531C114.336 21.9792 114.07 21.3802 114.07 20.6562C114.07 19.776 114.404 19.0938 115.07 18.6094C115.742 18.1198 116.685 17.875 117.898 17.875H119.305V17.2109C119.305 16.7057 119.154 16.3047 118.852 16.0078C118.549 15.7057 118.104 15.5547 117.516 15.5547C117 15.5547 116.568 15.6849 116.219 15.9453C115.87 16.2057 115.695 16.5208 115.695 16.8906H114.242C114.242 16.4688 114.391 16.0625 114.688 15.6719C114.99 15.276 115.396 14.9635 115.906 14.7344C116.422 14.5052 116.987 14.3906 117.602 14.3906C118.576 14.3906 119.339 14.6354 119.891 15.125C120.443 15.6094 120.729 16.2786 120.75 17.1328V21.0234C120.75 21.7995 120.849 22.4167 121.047 22.875V23H119.531ZM117.133 21.8984C117.586 21.8984 118.016 21.7812 118.422 21.5469C118.828 21.3125 119.122 21.0078 119.305 20.6328V18.8984H118.172C116.401 18.8984 115.516 19.4167 115.516 20.4531C115.516 20.9062 115.667 21.2604 115.969 21.5156C116.271 21.7708 116.659 21.8984 117.133 21.8984ZM124.383 14.5469L124.43 15.6094C125.076 14.7969 125.919 14.3906 126.961 14.3906C128.747 14.3906 129.648 15.3984 129.664 17.4141V23H128.219V17.4062C128.214 16.7969 128.073 16.3464 127.797 16.0547C127.526 15.763 127.102 15.6172 126.523 15.6172C126.055 15.6172 125.643 15.7422 125.289 15.9922C124.935 16.2422 124.659 16.5703 124.461 16.9766V23H123.016V14.5469H124.383ZM131.492 18.7031C131.492 17.4062 131.799 16.3646 132.414 15.5781C133.029 14.7865 133.833 14.3906 134.828 14.3906C135.818 14.3906 136.602 14.7292 137.18 15.4062V11H138.625V23H137.297L137.227 22.0938C136.648 22.8021 135.844 23.1562 134.812 23.1562C133.833 23.1562 133.034 22.7552 132.414 21.9531C131.799 21.151 131.492 20.1042 131.492 18.8125V18.7031ZM132.938 18.8672C132.938 19.8255 133.135 20.5755 133.531 21.1172C133.927 21.6589 134.474 21.9297 135.172 21.9297C136.089 21.9297 136.758 21.5182 137.18 20.6953V16.8125C136.747 16.0156 136.083 15.6172 135.188 15.6172C134.479 15.6172 133.927 15.8906 133.531 16.4375C133.135 16.9844 132.938 17.7943 132.938 18.8672ZM142.445 23H141V11H142.445V23ZM148.273 23.1562C147.128 23.1562 146.195 22.7812 145.477 22.0312C144.758 21.276 144.398 20.2682 144.398 19.0078V18.7422C144.398 17.9036 144.557 17.1562 144.875 16.5C145.198 15.8385 145.646 15.3229 146.219 14.9531C146.797 14.5781 147.422 14.3906 148.094 14.3906C149.193 14.3906 150.047 14.7526 150.656 15.4766C151.266 16.2005 151.57 17.237 151.57 18.5859V19.1875H145.844C145.865 20.0208 146.107 20.6953 146.57 21.2109C147.039 21.7214 147.633 21.9766 148.352 21.9766C148.862 21.9766 149.294 21.8724 149.648 21.6641C150.003 21.4557 150.312 21.1797 150.578 20.8359L151.461 21.5234C150.753 22.612 149.69 23.1562 148.273 23.1562ZM148.094 15.5781C147.51 15.5781 147.021 15.7917 146.625 16.2188C146.229 16.6406 145.984 17.2344 145.891 18H150.125V17.8906C150.083 17.1562 149.885 16.5885 149.531 16.1875C149.177 15.7812 148.698 15.5781 148.094 15.5781Z" fill="black"/>
</svg>
