<svg width="46" height="46" viewBox="0 0 46 46" fill="none" xmlns="http://www.w3.org/2000/svg">
<rect width="46" height="46" fill="white"/>
<path d="M29.2855 20.7143V29.2858H33.5712V20.7143H29.2855ZM28.5712 19.2858H34.2855C34.4749 19.2858 34.6566 19.361 34.7906 19.495C34.9245 19.6289 34.9998 19.8106 34.9998 20.0001V30.0001C34.9998 30.1895 34.9245 30.3712 34.7906 30.5051C34.6566 30.6391 34.4749 30.7143 34.2855 30.7143H28.5712C28.3818 30.7143 28.2001 30.6391 28.0661 30.5051C27.9322 30.3712 27.8569 30.1895 27.8569 30.0001V20.0001C27.8569 19.8106 27.9322 19.6289 28.0661 19.495C28.2001 19.361 28.3818 19.2858 28.5712 19.2858Z" fill="black"/>
<path d="M30.7144 15H32.1429V20H30.7144V15ZM30.7144 30H32.1429V35H30.7144V30Z" fill="black"/>
<path d="M17.8573 16.4286V32.1429H22.143V16.4286H17.8573ZM17.143 15H22.8573C23.0467 15 23.2284 15.0753 23.3624 15.2092C23.4963 15.3432 23.5716 15.5248 23.5716 15.7143V32.8571C23.5716 33.0466 23.4963 33.2283 23.3624 33.3622C23.2284 33.4962 23.0467 33.5714 22.8573 33.5714H17.143C16.9536 33.5714 16.7719 33.4962 16.6379 33.3622C16.504 33.2283 16.4287 33.0466 16.4287 32.8571V15.7143C16.4287 15.5248 16.504 15.3432 16.6379 15.2092C16.7719 15.0753 16.9536 15 17.143 15Z" fill="black"/>
<path d="M19.2859 10.7142H20.7145V17.8571H19.2859V10.7142ZM19.2859 30.7142H20.7145V37.8571H19.2859V30.7142ZM17.1431 17.8571H19.2859V19.2857H17.1431V17.8571ZM20.7145 17.8571H22.8574V19.2857H20.7145V17.8571ZM19.2859 19.2857H20.7145V20.7142H19.2859V19.2857ZM17.1431 20.7142H19.2859V22.1428H17.1431V20.7142ZM20.7145 20.7142H22.8574V22.1428H20.7145V20.7142ZM19.2859 22.1428H20.7145V23.5714H19.2859V22.1428ZM17.1431 23.5714H19.2859V24.9999H17.1431V23.5714ZM20.7145 23.5714H22.8574V24.9999H20.7145V23.5714ZM19.2859 24.9999H20.7145V26.4285H19.2859V24.9999ZM17.1431 26.4285H19.2859V27.8571H17.1431V26.4285ZM20.7145 26.4285H22.8574V27.8571H20.7145V26.4285ZM19.2859 27.8571H20.7145V29.2857H19.2859V27.8571ZM17.1431 29.2857H19.2859V30.7142H17.1431V29.2857ZM20.7145 29.2857H22.8574V30.7142H20.7145V29.2857Z" fill="black"/>
</svg>
