<svg width="31" height="30" viewBox="0 0 31 30" fill="none" xmlns="http://www.w3.org/2000/svg">
<path d="M13.9009 3.16647C14.9484 2.28272 16.4804 2.28272 17.5279 3.16647L25.9654 10.2846C26.5989 10.819 26.9644 11.6056 26.9644 12.4343V24.688C26.9644 25.8961 25.985 26.8755 24.7769 26.8755H21.0269C19.8187 26.8755 18.8394 25.8961 18.8394 24.688V18.438C18.8394 17.9202 18.4196 17.5005 17.9019 17.5005H13.5269C13.0091 17.5005 12.5894 17.9202 12.5894 18.438V24.688C12.5894 25.8961 11.61 26.8755 10.4019 26.8755H6.65186C5.44373 26.8755 4.46436 25.8961 4.46436 24.688V12.4343C4.46436 11.6056 4.82987 10.819 5.46331 10.2846L13.9009 3.16647Z" fill="black"/>
</svg>
