<svg width="134" height="46" viewBox="0 0 134 46" fill="none" xmlns="http://www.w3.org/2000/svg">
<rect width="134" height="46" fill="white"/>
<path d="M10.8572 29.01L17.5 22.3672C17.753 22.1133 18.0536 21.912 18.3845 21.7746C18.7154 21.6371 19.0703 21.5664 19.4286 21.5664C19.7869 21.5664 20.1417 21.6371 20.4727 21.7746C20.8036 21.912 21.1042 22.1133 21.3572 22.3672L25.0615 26.0714C25.4471 26.4579 25.9051 26.7644 26.4093 26.9736C26.9136 27.1828 27.4541 27.2904 28 27.2904C28.5459 27.2904 29.0865 27.1828 29.5907 26.9736C30.095 26.7644 30.553 26.4579 30.9386 26.0714L37.5815 19.4286L36.5715 18.4186L29.9286 25.0614C29.6756 25.3152 29.3751 25.5166 29.0441 25.654C28.7132 25.7914 28.3584 25.8622 28 25.8622C27.6417 25.8622 27.2869 25.7914 26.9559 25.654C26.625 25.5166 26.3244 25.3152 26.0715 25.0614L22.3672 21.3572C21.9816 20.9707 21.5235 20.6642 21.0193 20.455C20.515 20.2458 19.9745 20.1382 19.4286 20.1382C18.8827 20.1382 18.3421 20.2458 17.8379 20.455C17.3337 20.6642 16.8756 20.9707 16.49 21.3572L9.84717 28L10.8572 29.01V29.01Z" fill="black"/>
<path d="M53.9297 29H52.4297V17.625H53.9297V29ZM57.8203 20.5469L57.8672 21.6094C58.513 20.7969 59.3568 20.3906 60.3984 20.3906C62.1849 20.3906 63.0859 21.3984 63.1016 23.4141V29H61.6562V23.4062C61.651 22.7969 61.5104 22.3464 61.2344 22.0547C60.9635 21.763 60.5391 21.6172 59.9609 21.6172C59.4922 21.6172 59.0807 21.7422 58.7266 21.9922C58.3724 22.2422 58.0964 22.5703 57.8984 22.9766V29H56.4531V20.5469H57.8203ZM64.9297 24.7031C64.9297 23.4062 65.237 22.3646 65.8516 21.5781C66.4661 20.7865 67.2708 20.3906 68.2656 20.3906C69.2552 20.3906 70.0391 20.7292 70.6172 21.4062V17H72.0625V29H70.7344L70.6641 28.0938C70.0859 28.8021 69.2812 29.1562 68.25 29.1562C67.2708 29.1562 66.4714 28.7552 65.8516 27.9531C65.237 27.151 64.9297 26.1042 64.9297 24.8125V24.7031ZM66.375 24.8672C66.375 25.8255 66.5729 26.5755 66.9688 27.1172C67.3646 27.6589 67.9115 27.9297 68.6094 27.9297C69.526 27.9297 70.1953 27.5182 70.6172 26.6953V22.8125C70.1849 22.0156 69.5208 21.6172 68.625 21.6172C67.9167 21.6172 67.3646 21.8906 66.9688 22.4375C66.5729 22.9844 66.375 23.7943 66.375 24.8672ZM75.8828 29H74.4375V20.5469H75.8828V29ZM74.3203 18.3047C74.3203 18.0703 74.3906 17.8724 74.5312 17.7109C74.6771 17.5495 74.8906 17.4688 75.1719 17.4688C75.4531 17.4688 75.6667 17.5495 75.8125 17.7109C75.9583 17.8724 76.0312 18.0703 76.0312 18.3047C76.0312 18.5391 75.9583 18.7344 75.8125 18.8906C75.6667 19.0469 75.4531 19.125 75.1719 19.125C74.8906 19.125 74.6771 19.0469 74.5312 18.8906C74.3906 18.7344 74.3203 18.5391 74.3203 18.3047ZM81.5938 27.9766C82.1094 27.9766 82.5599 27.8203 82.9453 27.5078C83.3307 27.1953 83.5443 26.8047 83.5859 26.3359H84.9531C84.9271 26.8203 84.7604 27.2812 84.4531 27.7188C84.1458 28.1562 83.7344 28.5052 83.2188 28.7656C82.7083 29.026 82.1667 29.1562 81.5938 29.1562C80.4427 29.1562 79.526 28.7734 78.8438 28.0078C78.1667 27.237 77.8281 26.1849 77.8281 24.8516V24.6094C77.8281 23.7865 77.9792 23.0547 78.2812 22.4141C78.5833 21.7734 79.0156 21.276 79.5781 20.9219C80.1458 20.5677 80.8151 20.3906 81.5859 20.3906C82.5339 20.3906 83.3203 20.6745 83.9453 21.2422C84.5755 21.8099 84.9115 22.5469 84.9531 23.4531H83.5859C83.5443 22.9062 83.3359 22.4583 82.9609 22.1094C82.5911 21.7552 82.1328 21.5781 81.5859 21.5781C80.8516 21.5781 80.2812 21.8438 79.875 22.375C79.474 22.901 79.2734 23.6641 79.2734 24.6641V24.9375C79.2734 25.9115 79.474 26.6615 79.875 27.1875C80.276 27.7135 80.849 27.9766 81.5938 27.9766ZM91.7969 29C91.7135 28.8333 91.6458 28.5365 91.5938 28.1094C90.9219 28.8073 90.1198 29.1562 89.1875 29.1562C88.3542 29.1562 87.6693 28.9219 87.1328 28.4531C86.6016 27.9792 86.3359 27.3802 86.3359 26.6562C86.3359 25.776 86.6693 25.0938 87.3359 24.6094C88.0078 24.1198 88.9505 23.875 90.1641 23.875H91.5703V23.2109C91.5703 22.7057 91.4193 22.3047 91.1172 22.0078C90.8151 21.7057 90.3698 21.5547 89.7812 21.5547C89.2656 21.5547 88.8333 21.6849 88.4844 21.9453C88.1354 22.2057 87.9609 22.5208 87.9609 22.8906H86.5078C86.5078 22.4688 86.6562 22.0625 86.9531 21.6719C87.2552 21.276 87.6615 20.9635 88.1719 20.7344C88.6875 20.5052 89.2526 20.3906 89.8672 20.3906C90.8411 20.3906 91.6042 20.6354 92.1562 21.125C92.7083 21.6094 92.9948 22.2786 93.0156 23.1328V27.0234C93.0156 27.7995 93.1146 28.4167 93.3125 28.875V29H91.7969ZM89.3984 27.8984C89.8516 27.8984 90.2812 27.7812 90.6875 27.5469C91.0938 27.3125 91.388 27.0078 91.5703 26.6328V24.8984H90.4375C88.6667 24.8984 87.7812 25.4167 87.7812 26.4531C87.7812 26.9062 87.9323 27.2604 88.2344 27.5156C88.5365 27.7708 88.9245 27.8984 89.3984 27.8984ZM97.2422 18.5V20.5469H98.8203V21.6641H97.2422V26.9062C97.2422 27.2448 97.3125 27.5 97.4531 27.6719C97.5938 27.8385 97.8333 27.9219 98.1719 27.9219C98.3385 27.9219 98.5677 27.8906 98.8594 27.8281V29C98.4792 29.1042 98.1094 29.1562 97.75 29.1562C97.1042 29.1562 96.6172 28.9609 96.2891 28.5703C95.9609 28.1797 95.7969 27.625 95.7969 26.9062V21.6641H94.2578V20.5469H95.7969V18.5H97.2422ZM99.9766 24.6953C99.9766 23.8672 100.138 23.1224 100.461 22.4609C100.789 21.7995 101.242 21.2891 101.82 20.9297C102.404 20.5703 103.068 20.3906 103.812 20.3906C104.964 20.3906 105.893 20.7891 106.602 21.5859C107.315 22.3828 107.672 23.4427 107.672 24.7656V24.8672C107.672 25.6901 107.513 26.4297 107.195 27.0859C106.883 27.737 106.432 28.2448 105.844 28.6094C105.26 28.974 104.589 29.1562 103.828 29.1562C102.682 29.1562 101.753 28.7578 101.039 27.9609C100.331 27.1641 99.9766 26.1094 99.9766 24.7969V24.6953ZM101.43 24.8672C101.43 25.8047 101.646 26.5573 102.078 27.125C102.516 27.6927 103.099 27.9766 103.828 27.9766C104.562 27.9766 105.146 27.6901 105.578 27.1172C106.01 26.5391 106.227 25.7318 106.227 24.6953C106.227 23.7682 106.005 23.0182 105.562 22.4453C105.125 21.8672 104.542 21.5781 103.812 21.5781C103.099 21.5781 102.523 21.862 102.086 22.4297C101.648 22.9974 101.43 23.8099 101.43 24.8672ZM113.57 21.8438C113.352 21.8073 113.115 21.7891 112.859 21.7891C111.911 21.7891 111.268 22.1927 110.93 23V29H109.484V20.5469H110.891L110.914 21.5234C111.388 20.7682 112.06 20.3906 112.93 20.3906C113.211 20.3906 113.424 20.4271 113.57 20.5V21.8438ZM119.828 26.7578C119.828 26.3672 119.68 26.0651 119.383 25.8516C119.091 25.6328 118.578 25.4453 117.844 25.2891C117.115 25.1328 116.534 24.9453 116.102 24.7266C115.674 24.5078 115.357 24.2474 115.148 23.9453C114.945 23.6432 114.844 23.2839 114.844 22.8672C114.844 22.1745 115.135 21.5885 115.719 21.1094C116.307 20.6302 117.057 20.3906 117.969 20.3906C118.927 20.3906 119.703 20.638 120.297 21.1328C120.896 21.6276 121.195 22.2604 121.195 23.0312H119.742C119.742 22.6354 119.573 22.2943 119.234 22.0078C118.901 21.7214 118.479 21.5781 117.969 21.5781C117.443 21.5781 117.031 21.6927 116.734 21.9219C116.438 22.151 116.289 22.4505 116.289 22.8203C116.289 23.1693 116.427 23.4323 116.703 23.6094C116.979 23.7865 117.477 23.9557 118.195 24.1172C118.919 24.2786 119.505 24.4714 119.953 24.6953C120.401 24.9193 120.732 25.1901 120.945 25.5078C121.164 25.8203 121.273 26.2031 121.273 26.6562C121.273 27.4115 120.971 28.0182 120.367 28.4766C119.763 28.9297 118.979 29.1562 118.016 29.1562C117.339 29.1562 116.74 29.0365 116.219 28.7969C115.698 28.5573 115.289 28.224 114.992 27.7969C114.701 27.3646 114.555 26.8984 114.555 26.3984H116C116.026 26.8828 116.219 27.2682 116.578 27.5547C116.943 27.8359 117.422 27.9766 118.016 27.9766C118.562 27.9766 119 27.8672 119.328 27.6484C119.661 27.4245 119.828 27.1276 119.828 26.7578Z" fill="black"/>
</svg>
