<svg width="170" height="34" viewBox="0 0 170 34" fill="none" xmlns="http://www.w3.org/2000/svg">
<rect width="170" height="34" fill="white"/>
<path d="M22 8H25V20H30V11H33V24H34V10H29V19H26V7H21V25H18V20H17V26H22V8Z" fill="black"/>
<path d="M57.4531 19.0859L56.5469 20.0312V23H55.1016V11H56.5469V18.2578L57.3203 17.3281L59.9531 14.5469H61.7109L58.4219 18.0781L62.0938 23H60.3984L57.4531 19.0859ZM68.4219 23C68.3385 22.8333 68.2708 22.5365 68.2188 22.1094C67.5469 22.8073 66.7448 23.1562 65.8125 23.1562C64.9792 23.1562 64.2943 22.9219 63.7578 22.4531C63.2266 21.9792 62.9609 21.3802 62.9609 20.6562C62.9609 19.776 63.2943 19.0938 63.9609 18.6094C64.6328 18.1198 65.5755 17.875 66.7891 17.875H68.1953V17.2109C68.1953 16.7057 68.0443 16.3047 67.7422 16.0078C67.4401 15.7057 66.9948 15.5547 66.4062 15.5547C65.8906 15.5547 65.4583 15.6849 65.1094 15.9453C64.7604 16.2057 64.5859 16.5208 64.5859 16.8906H63.1328C63.1328 16.4688 63.2812 16.0625 63.5781 15.6719C63.8802 15.276 64.2865 14.9635 64.7969 14.7344C65.3125 14.5052 65.8776 14.3906 66.4922 14.3906C67.4661 14.3906 68.2292 14.6354 68.7812 15.125C69.3333 15.6094 69.6198 16.2786 69.6406 17.1328V21.0234C69.6406 21.7995 69.7396 22.4167 69.9375 22.875V23H68.4219ZM66.0234 21.8984C66.4766 21.8984 66.9062 21.7812 67.3125 21.5469C67.7188 21.3125 68.013 21.0078 68.1953 20.6328V18.8984H67.0625C65.2917 18.8984 64.4062 19.4167 64.4062 20.4531C64.4062 20.9062 64.5573 21.2604 64.8594 21.5156C65.1615 21.7708 65.5495 21.8984 66.0234 21.8984ZM71.5625 18.7031C71.5625 17.3854 71.8672 16.3385 72.4766 15.5625C73.0859 14.7812 73.8932 14.3906 74.8984 14.3906C75.9297 14.3906 76.7344 14.7552 77.3125 15.4844L77.3828 14.5469H78.7031V22.7969C78.7031 23.8906 78.3776 24.7526 77.7266 25.3828C77.0807 26.013 76.2109 26.3281 75.1172 26.3281C74.5078 26.3281 73.9115 26.1979 73.3281 25.9375C72.7448 25.6771 72.2995 25.3203 71.9922 24.8672L72.7422 24C73.362 24.7656 74.1198 25.1484 75.0156 25.1484C75.7188 25.1484 76.2656 24.9505 76.6562 24.5547C77.0521 24.1589 77.25 23.6016 77.25 22.8828V22.1562C76.6719 22.8229 75.8828 23.1562 74.8828 23.1562C73.8932 23.1562 73.0911 22.7578 72.4766 21.9609C71.8672 21.1641 71.5625 20.0781 71.5625 18.7031ZM73.0156 18.8672C73.0156 19.8203 73.2109 20.5703 73.6016 21.1172C73.9922 21.6589 74.5391 21.9297 75.2422 21.9297C76.1536 21.9297 76.8229 21.5156 77.25 20.6875V16.8281C76.8073 16.0208 76.1432 15.6172 75.2578 15.6172C74.5547 15.6172 74.0052 15.8906 73.6094 16.4375C73.2135 16.9844 73.0156 17.7943 73.0156 18.8672ZM82.4609 23H81.0156V14.5469H82.4609V23ZM80.8984 12.3047C80.8984 12.0703 80.9688 11.8724 81.1094 11.7109C81.2552 11.5495 81.4688 11.4688 81.75 11.4688C82.0312 11.4688 82.2448 11.5495 82.3906 11.7109C82.5365 11.8724 82.6094 12.0703 82.6094 12.3047C82.6094 12.5391 82.5365 12.7344 82.3906 12.8906C82.2448 13.0469 82.0312 13.125 81.75 13.125C81.4688 13.125 81.2552 13.0469 81.1094 12.8906C80.9688 12.7344 80.8984 12.5391 80.8984 12.3047Z" fill="black"/>
</svg>
