<svg width="170" height="34" viewBox="0 0 170 34" fill="none" xmlns="http://www.w3.org/2000/svg">
<rect width="170" height="34" fill="white"/>
<path d="M22.982 19.689L28.192 15H31.225L35.374 10.332L34.626 9.66797L30.776 14H27.808L23.018 18.311L20 15.293L15.646 19.646L16.354 20.354L20 16.707L22.982 19.689Z" fill="black"/>
<path d="M56.6641 23H55.2188V11H56.6641V23ZM60.5547 23H59.1094V14.5469H60.5547V23ZM58.9922 12.3047C58.9922 12.0703 59.0625 11.8724 59.2031 11.7109C59.349 11.5495 59.5625 11.4688 59.8438 11.4688C60.125 11.4688 60.3385 11.5495 60.4844 11.7109C60.6302 11.8724 60.7031 12.0703 60.7031 12.3047C60.7031 12.5391 60.6302 12.7344 60.4844 12.8906C60.3385 13.0469 60.125 13.125 59.8438 13.125C59.5625 13.125 59.349 13.0469 59.2031 12.8906C59.0625 12.7344 58.9922 12.5391 58.9922 12.3047ZM64.2422 14.5469L64.2891 15.6094C64.9349 14.7969 65.7786 14.3906 66.8203 14.3906C68.6068 14.3906 69.5078 15.3984 69.5234 17.4141V23H68.0781V17.4062C68.0729 16.7969 67.9323 16.3464 67.6562 16.0547C67.3854 15.763 66.9609 15.6172 66.3828 15.6172C65.9141 15.6172 65.5026 15.7422 65.1484 15.9922C64.7943 16.2422 64.5182 16.5703 64.3203 16.9766V23H62.875V14.5469H64.2422ZM75.2109 23.1562C74.0651 23.1562 73.1328 22.7812 72.4141 22.0312C71.6953 21.276 71.3359 20.2682 71.3359 19.0078V18.7422C71.3359 17.9036 71.4948 17.1562 71.8125 16.5C72.1354 15.8385 72.5833 15.3229 73.1562 14.9531C73.7344 14.5781 74.3594 14.3906 75.0312 14.3906C76.1302 14.3906 76.9844 14.7526 77.5938 15.4766C78.2031 16.2005 78.5078 17.237 78.5078 18.5859V19.1875H72.7812C72.8021 20.0208 73.0443 20.6953 73.5078 21.2109C73.9766 21.7214 74.5703 21.9766 75.2891 21.9766C75.7995 21.9766 76.2318 21.8724 76.5859 21.6641C76.9401 21.4557 77.25 21.1797 77.5156 20.8359L78.3984 21.5234C77.6901 22.612 76.6276 23.1562 75.2109 23.1562ZM75.0312 15.5781C74.4479 15.5781 73.9583 15.7917 73.5625 16.2188C73.1667 16.6406 72.9219 17.2344 72.8281 18H77.0625V17.8906C77.0208 17.1562 76.8229 16.5885 76.4688 16.1875C76.1146 15.7812 75.6354 15.5781 75.0312 15.5781Z" fill="black"/>
</svg>
