<svg width="170" height="34" viewBox="0 0 170 34" fill="none" xmlns="http://www.w3.org/2000/svg">
<rect width="170" height="34" fill="white"/>
<path d="M29 27H32V15H29V27ZM28 14H33V28H28V14ZM24 6V13H27V6H24ZM23 5H28V14H23V5ZM19 22H22V15H19V22ZM18 14H23V23H18V14Z" fill="black"/>
<path d="M56.6641 23H55.2188V11H56.6641V23ZM60.5547 23H59.1094V14.5469H60.5547V23ZM58.9922 12.3047C58.9922 12.0703 59.0625 11.8724 59.2031 11.7109C59.349 11.5495 59.5625 11.4688 59.8438 11.4688C60.125 11.4688 60.3385 11.5495 60.4844 11.7109C60.6302 11.8724 60.7031 12.0703 60.7031 12.3047C60.7031 12.5391 60.6302 12.7344 60.4844 12.8906C60.3385 13.0469 60.125 13.125 59.8438 13.125C59.5625 13.125 59.349 13.0469 59.2031 12.8906C59.0625 12.7344 58.9922 12.5391 58.9922 12.3047ZM64.2422 14.5469L64.2891 15.6094C64.9349 14.7969 65.7786 14.3906 66.8203 14.3906C68.6068 14.3906 69.5078 15.3984 69.5234 17.4141V23H68.0781V17.4062C68.0729 16.7969 67.9323 16.3464 67.6562 16.0547C67.3854 15.763 66.9609 15.6172 66.3828 15.6172C65.9141 15.6172 65.5026 15.7422 65.1484 15.9922C64.7943 16.2422 64.5182 16.5703 64.3203 16.9766V23H62.875V14.5469H64.2422ZM75.2109 23.1562C74.0651 23.1562 73.1328 22.7812 72.4141 22.0312C71.6953 21.276 71.3359 20.2682 71.3359 19.0078V18.7422C71.3359 17.9036 71.4948 17.1562 71.8125 16.5C72.1354 15.8385 72.5833 15.3229 73.1562 14.9531C73.7344 14.5781 74.3594 14.3906 75.0312 14.3906C76.1302 14.3906 76.9844 14.7526 77.5938 15.4766C78.2031 16.2005 78.5078 17.237 78.5078 18.5859V19.1875H72.7812C72.8021 20.0208 73.0443 20.6953 73.5078 21.2109C73.9766 21.7214 74.5703 21.9766 75.2891 21.9766C75.7995 21.9766 76.2318 21.8724 76.5859 21.6641C76.9401 21.4557 77.25 21.1797 77.5156 20.8359L78.3984 21.5234C77.6901 22.612 76.6276 23.1562 75.2109 23.1562ZM75.0312 15.5781C74.4479 15.5781 73.9583 15.7917 73.5625 16.2188C73.1667 16.6406 72.9219 17.2344 72.8281 18H77.0625V17.8906C77.0208 17.1562 76.8229 16.5885 76.4688 16.1875C76.1146 15.7812 75.6354 15.5781 75.0312 15.5781ZM91.3125 18.8672C91.3125 20.1589 91.0156 21.1979 90.4219 21.9844C89.8281 22.7656 89.0312 23.1562 88.0312 23.1562C86.9635 23.1562 86.138 22.7786 85.5547 22.0234L85.4844 23H84.1562V11H85.6016V15.4766C86.1849 14.7526 86.9896 14.3906 88.0156 14.3906C89.0417 14.3906 89.8464 14.7786 90.4297 15.5547C91.0182 16.3307 91.3125 17.3932 91.3125 18.7422V18.8672ZM89.8672 18.7031C89.8672 17.7188 89.6771 16.9583 89.2969 16.4219C88.9167 15.8854 88.3698 15.6172 87.6562 15.6172C86.7031 15.6172 86.0182 16.0599 85.6016 16.9453V20.6016C86.0443 21.487 86.7344 21.9297 87.6719 21.9297C88.3646 21.9297 88.9036 21.6615 89.2891 21.125C89.6745 20.5885 89.8672 19.7812 89.8672 18.7031ZM97.2266 15.8438C97.0078 15.8073 96.7708 15.7891 96.5156 15.7891C95.5677 15.7891 94.9245 16.1927 94.5859 17V23H93.1406V14.5469H94.5469L94.5703 15.5234C95.0443 14.7682 95.7161 14.3906 96.5859 14.3906C96.8672 14.3906 97.0807 14.4271 97.2266 14.5V15.8438ZM101.914 23.1562C100.768 23.1562 99.8359 22.7812 99.1172 22.0312C98.3984 21.276 98.0391 20.2682 98.0391 19.0078V18.7422C98.0391 17.9036 98.1979 17.1562 98.5156 16.5C98.8385 15.8385 99.2865 15.3229 99.8594 14.9531C100.438 14.5781 101.062 14.3906 101.734 14.3906C102.833 14.3906 103.688 14.7526 104.297 15.4766C104.906 16.2005 105.211 17.237 105.211 18.5859V19.1875H99.4844C99.5052 20.0208 99.7474 20.6953 100.211 21.2109C100.68 21.7214 101.273 21.9766 101.992 21.9766C102.503 21.9766 102.935 21.8724 103.289 21.6641C103.643 21.4557 103.953 21.1797 104.219 20.8359L105.102 21.5234C104.393 22.612 103.331 23.1562 101.914 23.1562ZM101.734 15.5781C101.151 15.5781 100.661 15.7917 100.266 16.2188C99.8698 16.6406 99.625 17.2344 99.5312 18H103.766V17.8906C103.724 17.1562 103.526 16.5885 103.172 16.1875C102.818 15.7812 102.339 15.5781 101.734 15.5781ZM112.109 23C112.026 22.8333 111.958 22.5365 111.906 22.1094C111.234 22.8073 110.432 23.1562 109.5 23.1562C108.667 23.1562 107.982 22.9219 107.445 22.4531C106.914 21.9792 106.648 21.3802 106.648 20.6562C106.648 19.776 106.982 19.0938 107.648 18.6094C108.32 18.1198 109.263 17.875 110.477 17.875H111.883V17.2109C111.883 16.7057 111.732 16.3047 111.43 16.0078C111.128 15.7057 110.682 15.5547 110.094 15.5547C109.578 15.5547 109.146 15.6849 108.797 15.9453C108.448 16.2057 108.273 16.5208 108.273 16.8906H106.82C106.82 16.4688 106.969 16.0625 107.266 15.6719C107.568 15.276 107.974 14.9635 108.484 14.7344C109 14.5052 109.565 14.3906 110.18 14.3906C111.154 14.3906 111.917 14.6354 112.469 15.125C113.021 15.6094 113.307 16.2786 113.328 17.1328V21.0234C113.328 21.7995 113.427 22.4167 113.625 22.875V23H112.109ZM109.711 21.8984C110.164 21.8984 110.594 21.7812 111 21.5469C111.406 21.3125 111.701 21.0078 111.883 20.6328V18.8984H110.75C108.979 18.8984 108.094 19.4167 108.094 20.4531C108.094 20.9062 108.245 21.2604 108.547 21.5156C108.849 21.7708 109.237 21.8984 109.711 21.8984ZM117.953 19.0859L117.047 20.0312V23H115.602V11H117.047V18.2578L117.82 17.3281L120.453 14.5469H122.211L118.922 18.0781L122.594 23H120.898L117.953 19.0859Z" fill="black"/>
</svg>
