<svg width="121" height="28" viewBox="0 0 121 28" fill="none" xmlns="http://www.w3.org/2000/svg">
<path d="M15.2559 16.752C13.8086 16.3359 12.7539 15.8262 12.0918 15.2227C11.4355 14.6133 11.1074 13.8633 11.1074 12.9727C11.1074 11.9648 11.5088 11.1328 12.3115 10.4766C13.1201 9.81445 14.1689 9.4834 15.458 9.4834C16.3369 9.4834 17.1191 9.65332 17.8047 9.99316C18.4961 10.333 19.0293 10.8018 19.4043 11.3994C19.7852 11.9971 19.9756 12.6504 19.9756 13.3594H18.2793C18.2793 12.5859 18.0332 11.9795 17.541 11.54C17.0488 11.0947 16.3545 10.8721 15.458 10.8721C14.626 10.8721 13.9756 11.0566 13.5068 11.4258C13.0439 11.7891 12.8125 12.2959 12.8125 12.9463C12.8125 13.4678 13.0322 13.9102 13.4717 14.2734C13.917 14.6309 14.6699 14.959 15.7305 15.2578C16.7969 15.5566 17.6289 15.8877 18.2266 16.251C18.8301 16.6084 19.2754 17.0273 19.5625 17.5078C19.8555 17.9883 20.002 18.5537 20.002 19.2041C20.002 20.2412 19.5977 21.0732 18.7891 21.7002C17.9805 22.3213 16.8994 22.6318 15.5459 22.6318C14.667 22.6318 13.8467 22.4648 13.085 22.1309C12.3232 21.791 11.7344 21.3281 11.3184 20.7422C10.9082 20.1562 10.7031 19.4912 10.7031 18.7471H12.3994C12.3994 19.5205 12.6836 20.1328 13.252 20.584C13.8262 21.0293 14.5908 21.252 15.5459 21.252C16.4365 21.252 17.1191 21.0703 17.5938 20.707C18.0684 20.3438 18.3057 19.8486 18.3057 19.2217C18.3057 18.5947 18.0859 18.1113 17.6465 17.7715C17.207 17.4258 16.4102 17.0859 15.2559 16.752ZM28.5889 10.6436V12.9463H30.3643V14.2031H28.5889V20.1006C28.5889 20.4814 28.668 20.7686 28.8262 20.9619C28.9844 21.1494 29.2539 21.2432 29.6348 21.2432C29.8223 21.2432 30.0801 21.208 30.4082 21.1377V22.4561C29.9805 22.5732 29.5645 22.6318 29.1602 22.6318C28.4336 22.6318 27.8857 22.4121 27.5166 21.9727C27.1475 21.5332 26.9629 20.9092 26.9629 20.1006V14.2031H25.2314V12.9463H26.9629V10.6436H28.5889ZM31.665 17.6133C31.665 16.6816 31.8467 15.8438 32.21 15.0996C32.5791 14.3555 33.0889 13.7812 33.7393 13.377C34.3955 12.9727 35.1426 12.7705 35.9805 12.7705C37.2754 12.7705 38.3213 13.2188 39.1182 14.1152C39.9209 15.0117 40.3223 16.2041 40.3223 17.6924V17.8066C40.3223 18.7324 40.1436 19.5645 39.7861 20.3027C39.4346 21.0352 38.9277 21.6064 38.2656 22.0166C37.6094 22.4268 36.8535 22.6318 35.998 22.6318C34.709 22.6318 33.6631 22.1836 32.8604 21.2871C32.0635 20.3906 31.665 19.2041 31.665 17.7275V17.6133ZM33.2998 17.8066C33.2998 18.8613 33.543 19.708 34.0293 20.3467C34.5215 20.9854 35.1777 21.3047 35.998 21.3047C36.8242 21.3047 37.4805 20.9824 37.9668 20.3379C38.4531 19.6875 38.6963 18.7793 38.6963 17.6133C38.6963 16.5703 38.4473 15.7266 37.9492 15.082C37.457 14.4316 36.8008 14.1064 35.9805 14.1064C35.1777 14.1064 34.5303 14.4258 34.0381 15.0645C33.5459 15.7031 33.2998 16.6172 33.2998 17.8066ZM46.1758 21.3047C46.7559 21.3047 47.2627 21.1289 47.6963 20.7773C48.1299 20.4258 48.3701 19.9863 48.417 19.459H49.9551C49.9258 20.0039 49.7383 20.5225 49.3926 21.0146C49.0469 21.5068 48.584 21.8994 48.0039 22.1924C47.4297 22.4854 46.8203 22.6318 46.1758 22.6318C44.8809 22.6318 43.8496 22.2012 43.082 21.3398C42.3203 20.4727 41.9395 19.2891 41.9395 17.7891V17.5166C41.9395 16.5908 42.1094 15.7676 42.4492 15.0469C42.7891 14.3262 43.2754 13.7666 43.9082 13.3682C44.5469 12.9697 45.2998 12.7705 46.167 12.7705C47.2334 12.7705 48.1182 13.0898 48.8213 13.7285C49.5303 14.3672 49.9082 15.1963 49.9551 16.2158H48.417C48.3701 15.6006 48.1357 15.0967 47.7139 14.7041C47.2979 14.3057 46.7822 14.1064 46.167 14.1064C45.3408 14.1064 44.6992 14.4053 44.2422 15.0029C43.791 15.5947 43.5654 16.4531 43.5654 17.5781V17.8857C43.5654 18.9814 43.791 19.8252 44.2422 20.417C44.6934 21.0088 45.3379 21.3047 46.1758 21.3047ZM54.4375 18.0527L53.418 19.1162V22.4561H51.792V8.95605H53.418V17.1211L54.2881 16.0752L57.25 12.9463H59.2275L55.5273 16.9189L59.6582 22.4561H57.751L54.4375 18.0527ZM67.8057 9.65918L71.9893 20.1006L76.1729 9.65918H78.3613V22.4561H76.6738V17.4727L76.832 12.0938L72.6309 22.4561H71.3389L67.1465 12.1201L67.3135 17.4727V22.4561H65.626V9.65918H67.8057ZM86.957 22.4561C86.8633 22.2686 86.7871 21.9346 86.7285 21.4541C85.9727 22.2393 85.0703 22.6318 84.0215 22.6318C83.084 22.6318 82.3135 22.3682 81.71 21.8408C81.1123 21.3076 80.8135 20.6338 80.8135 19.8193C80.8135 18.8291 81.1885 18.0615 81.9385 17.5166C82.6943 16.9658 83.7549 16.6904 85.1201 16.6904H86.7021V15.9434C86.7021 15.375 86.5322 14.9238 86.1924 14.5898C85.8525 14.25 85.3516 14.0801 84.6895 14.0801C84.1094 14.0801 83.623 14.2266 83.2305 14.5195C82.8379 14.8125 82.6416 15.167 82.6416 15.583H81.0068C81.0068 15.1084 81.1738 14.6514 81.5078 14.2119C81.8477 13.7666 82.3047 13.415 82.8789 13.1572C83.459 12.8994 84.0947 12.7705 84.7861 12.7705C85.8818 12.7705 86.7402 13.0459 87.3613 13.5967C87.9824 14.1416 88.3047 14.8945 88.3281 15.8555V20.2324C88.3281 21.1055 88.4395 21.7998 88.6621 22.3154V22.4561H86.957ZM84.2588 21.2168C84.7686 21.2168 85.252 21.085 85.709 20.8213C86.166 20.5576 86.4971 20.2148 86.7021 19.793V17.8418H85.4277C83.4355 17.8418 82.4395 18.4248 82.4395 19.5908C82.4395 20.1006 82.6094 20.499 82.9492 20.7861C83.2891 21.0732 83.7256 21.2168 84.2588 21.2168ZM95.4736 14.4053C95.2275 14.3643 94.9609 14.3438 94.6738 14.3438C93.6074 14.3438 92.8838 14.7979 92.5029 15.7061V22.4561H90.877V12.9463H92.459L92.4854 14.0449C93.0186 13.1953 93.7744 12.7705 94.7529 12.7705C95.0693 12.7705 95.3096 12.8115 95.4736 12.8936V14.4053ZM99.6309 18.0527L98.6113 19.1162V22.4561H96.9854V8.95605H98.6113V17.1211L99.4814 16.0752L102.443 12.9463H104.421L100.721 16.9189L104.852 22.4561H102.944L99.6309 18.0527ZM109.87 22.6318C108.581 22.6318 107.532 22.21 106.724 21.3662C105.915 20.5166 105.511 19.3828 105.511 17.9648V17.666C105.511 16.7227 105.689 15.8818 106.047 15.1436C106.41 14.3994 106.914 13.8193 107.559 13.4033C108.209 12.9814 108.912 12.7705 109.668 12.7705C110.904 12.7705 111.865 13.1777 112.551 13.9922C113.236 14.8066 113.579 15.9727 113.579 17.4902V18.167H107.137C107.16 19.1045 107.433 19.8633 107.954 20.4434C108.481 21.0176 109.149 21.3047 109.958 21.3047C110.532 21.3047 111.019 21.1875 111.417 20.9531C111.815 20.7188 112.164 20.4082 112.463 20.0215L113.456 20.7949C112.659 22.0195 111.464 22.6318 109.87 22.6318ZM109.668 14.1064C109.012 14.1064 108.461 14.3467 108.016 14.8271C107.57 15.3018 107.295 15.9697 107.189 16.8311H111.953V16.708C111.906 15.8818 111.684 15.2432 111.285 14.792C110.887 14.335 110.348 14.1064 109.668 14.1064ZM117.675 10.6436V12.9463H119.45V14.2031H117.675V20.1006C117.675 20.4814 117.754 20.7686 117.912 20.9619C118.07 21.1494 118.34 21.2432 118.721 21.2432C118.908 21.2432 119.166 21.208 119.494 21.1377V22.4561C119.066 22.5732 118.65 22.6318 118.246 22.6318C117.52 22.6318 116.972 22.4121 116.603 21.9727C116.233 21.5332 116.049 20.9092 116.049 20.1006V14.2031H114.317V12.9463H116.049V10.6436H117.675Z" fill="#F1CA89"/>
<rect x="4.49414" y="4.1521" width="19.0036" height="19.2899" stroke="#CC9B6D"/>
<rect x="24.4961" y="0.5" width="3.00072" height="3.05798" stroke="#CC9B6D"/>
<rect x="24.4961" y="24.442" width="3.00072" height="3.05798" stroke="#CC9B6D"/>
<rect x="0.501953" y="24.442" width="3.00072" height="3.05798" stroke="#CC9B6D"/>
<rect x="0.501953" y="0.5" width="3.00072" height="3.05798" stroke="#CC9B6D"/>
</svg>
