<svg width="31" height="31" viewBox="0 0 31 31" fill="none" xmlns="http://www.w3.org/2000/svg">
<path d="M24.1519 25.75H7.27686C5.11057 25.75 3.34029 24.0544 3.22078 21.918L3.21436 21.6875V8.5625C3.21436 7.07393 4.37081 5.85545 5.83429 5.75649L6.02686 5.75H21.6519C23.1405 5.75 24.3589 6.90645 24.4579 8.36994L24.4644 8.5625V9.5H25.4019C26.8905 9.5 28.1089 10.6565 28.2079 12.1199L28.2144 12.3125V21.6875C28.2144 23.8538 26.5187 25.624 24.3824 25.7436L24.1519 25.75H7.27686H24.1519ZM7.27686 23.875H24.1519C25.2996 23.875 26.2409 22.9911 26.3321 21.8669L26.3394 21.6875V12.3125C26.3394 11.8379 25.9866 11.4456 25.5291 11.3836L25.4019 11.375H24.4644V21.0625C24.4644 21.5371 24.1116 21.9294 23.6541 21.9915L23.5269 22C23.0522 22 22.66 21.6473 22.5979 21.1898L22.5894 21.0625V8.5625C22.5894 8.08787 22.2366 7.69564 21.7791 7.63356L21.6519 7.625H6.02686C5.55223 7.625 5.15999 7.97769 5.09792 8.43529L5.08936 8.5625V21.6875C5.08936 22.8353 5.97324 23.7765 7.09744 23.8678L7.27686 23.875H24.1519H7.27686ZM16.0219 18.875H19.7796C20.2975 18.875 20.7171 19.2948 20.7171 19.8125C20.7171 20.2871 20.3645 20.6794 19.9069 20.7415L19.7796 20.75H16.0219C15.5041 20.75 15.0844 20.3302 15.0844 19.8125C15.0844 19.3379 15.4371 18.9456 15.8946 18.8835L16.0219 18.875H19.7796H16.0219ZM12.2685 14.5056C12.7862 14.5056 13.206 14.9254 13.206 15.4431V19.8125C13.206 20.3302 12.7862 20.75 12.2685 20.75H7.89906C7.38129 20.75 6.96156 20.3302 6.96156 19.8125V15.4431C6.96156 14.9254 7.38129 14.5056 7.89906 14.5056H12.2685ZM11.331 16.3806H8.83656V18.875H11.331V16.3806ZM16.0219 14.5056H19.7796C20.2975 14.5056 20.7171 14.9254 20.7171 15.4431C20.7171 15.9178 20.3645 16.31 19.9069 16.372L19.7796 16.3806H16.0219C15.5041 16.3806 15.0844 15.9609 15.0844 15.4431C15.0844 14.9685 15.4371 14.5763 15.8946 14.5141L16.0219 14.5056H19.7796H16.0219ZM7.89906 10.1281H19.7796C20.2975 10.1281 20.7171 10.5478 20.7171 11.0656C20.7171 11.5402 20.3645 11.9325 19.9069 11.9945L19.7796 12.0031H7.89906C7.38129 12.0031 6.96156 11.5834 6.96156 11.0656C6.96156 10.591 7.31424 10.1987 7.77184 10.1366L7.89906 10.1281H19.7796H7.89906Z" fill="black"/>
</svg>
