<svg width="30" height="30" viewBox="0 0 30 30" fill="none" xmlns="http://www.w3.org/2000/svg">
<path d="M14.9999 2.49512C20.0622 2.49512 24.1957 6.48855 24.3696 11.5564L24.3749 11.8701V16.9914L26.0999 20.9364C26.1861 21.1338 26.2307 21.3469 26.2307 21.5624C26.2307 22.4253 25.5311 23.1249 24.6682 23.1249L18.7499 23.1268C18.7499 25.1978 17.0709 26.8768 14.9999 26.8768C13.0027 26.8768 11.3703 25.3155 11.2562 23.347L11.2493 23.1239L5.34341 23.1249C5.12924 23.1249 4.91736 23.0808 4.72091 22.9955C3.92941 22.6516 3.56647 21.7314 3.91027 20.9399L5.62484 16.9925V11.87C5.62559 6.6765 9.81495 2.49512 14.9999 2.49512ZM16.8742 23.1239L13.1249 23.1268C13.1249 24.1623 13.9644 25.0018 14.9999 25.0018C15.9745 25.0018 16.7754 24.2581 16.8662 23.3073L16.8742 23.1239ZM14.9999 4.37012C10.8497 4.37012 7.50044 7.71294 7.49984 11.8701V17.3821L5.81986 21.2499H24.1905L22.4999 17.3834L22.5 11.8862L22.4954 11.6047C22.3565 7.56284 19.0519 4.37012 14.9999 4.37012Z" fill="black"/>
<circle cx="21" cy="9" r="6" fill="#FF4444"/>
</svg>
