<svg width="30" height="30" viewBox="0 0 30 30" fill="none" xmlns="http://www.w3.org/2000/svg">
<path d="M15 2.49512C20.0623 2.49512 24.1958 6.48855 24.3697 11.5564L24.375 11.8701V16.9914L26.1 20.9364C26.1862 21.1338 26.2308 21.3469 26.2308 21.5624C26.2308 22.4253 25.5312 23.1249 24.6683 23.1249L18.75 23.1268C18.75 25.1978 17.071 26.8768 15 26.8768C13.0028 26.8768 11.3704 25.3155 11.2563 23.347L11.2494 23.1239L5.34353 23.1249C5.12936 23.1249 4.91748 23.0808 4.72103 22.9955C3.92953 22.6516 3.56659 21.7314 3.91039 20.9399L5.62496 16.9925V11.87C5.62571 6.6765 9.81507 2.49512 15 2.49512ZM16.8743 23.1239L13.125 23.1268C13.125 24.1623 13.9645 25.0018 15 25.0018C15.9746 25.0018 16.7755 24.2581 16.8663 23.3073L16.8743 23.1239ZM15 4.37012C10.8498 4.37012 7.50056 7.71294 7.49996 11.8701V17.3821L5.81998 21.2499H24.1906L22.5 17.3834L22.5001 11.8862L22.4955 11.6047C22.3566 7.56284 19.052 4.37012 15 4.37012Z" fill="black"/>
</svg>
