<svg width="25" height="25" viewBox="0 0 25 25" fill="none" xmlns="http://www.w3.org/2000/svg">
<path fill-rule="evenodd" clip-rule="evenodd" d="M11.6858 3.4289C11.7776 3.4382 11.8694 3.44771 11.9613 3.45745C11.0376 4.84594 10.6407 6.55667 10.909 8.25295C11.1435 9.73525 12.282 10.6509 13.302 11.0733L17.8655 12.963C18.8855 13.3854 20.3381 13.5428 21.5517 12.6603C22.548 11.9359 23.3075 10.9644 23.7785 9.8696C24.0668 10.7407 24.2183 11.7162 24.2183 12.8052C24.2183 15.4343 23.4153 17.2773 22.584 18.4731C22.1709 19.0674 21.7548 19.4961 21.4358 19.7802C21.357 19.8503 21.284 19.9118 21.2183 19.9647V22.0929C21.2183 23.3355 20.2109 24.3429 18.9683 24.3429H16.8929C15.968 24.3429 15.2183 23.5931 15.2183 22.6682C15.2183 22.5717 15.1401 22.4936 15.0437 22.4936H12.3929C12.2964 22.4936 12.2183 22.5717 12.2183 22.6682C12.2183 23.5931 11.4685 24.3429 10.5436 24.3429H8.46826C7.22562 24.3429 6.21826 23.3355 6.21826 22.0929V21.2852C6.14655 21.2435 6.06801 21.1956 5.98275 21.1403C5.55118 20.8604 4.94713 20.3928 4.18434 19.6196C3.24433 18.6668 2.68471 17.6282 2.38201 16.9346C2.26966 16.6772 2.06703 16.5255 1.88086 16.494C0.920937 16.3319 0.218262 15.5004 0.218262 14.5269V12.2669C0.218262 11.3219 0.900327 10.515 1.83208 10.3575C2.00865 10.3277 2.20564 10.1708 2.29332 9.90343C2.52214 9.20551 2.96544 8.17163 3.77893 7.34699C4.44409 6.67273 5.16297 6.17348 5.70973 5.84422C5.90158 5.72869 6.07414 5.63296 6.21826 5.55694V2.08532C6.21826 1.55672 6.56382 1.18133 6.93924 1.02953C7.31193 0.878827 7.81011 0.907447 8.17941 1.26301C8.61109 1.67861 9.20566 2.2027 9.852 2.63579C10.5134 3.07901 11.1531 3.3749 11.6858 3.4289ZM7.34326 11.5928C7.96458 11.5928 8.46826 11.0891 8.46826 10.4678C8.46826 9.84646 7.96458 9.34277 7.34326 9.34277C6.72195 9.34277 6.21826 9.84646 6.21826 10.4678C6.21826 11.0891 6.72195 11.5928 7.34326 11.5928ZM22.7753 7.89593L22.7817 7.90474C22.5917 9.30281 21.8415 10.595 20.6697 11.4471C20.0261 11.915 19.1745 11.8816 18.4394 11.5772L13.8759 9.6874C13.1702 9.39512 12.5651 8.85019 12.4079 8.11165C12.4008 8.07928 12.3947 8.04653 12.3896 8.01341C12.0197 5.67311 13.2804 3.29786 15.5657 2.35103C18.2429 1.24184 21.3123 2.51294 22.4214 5.1901C22.7891 6.07751 22.8953 7.00801 22.7753 7.89593ZM11.7788 11.8519C11.7274 11.6651 11.5593 11.5344 11.3656 11.5305C11.1719 11.5267 10.9988 11.6507 10.9401 11.8353L9.5058 16.3429H8.07571C7.83408 16.3429 7.63821 16.5388 7.63821 16.7804C7.63821 17.0221 7.83408 17.2179 8.07571 17.2179H9.82571C10.0162 17.2179 10.1848 17.0946 10.2426 16.9131L11.3264 13.5068L13.3414 20.834C13.3931 21.022 13.5631 21.1532 13.7582 21.1554C13.9532 21.1577 14.1262 21.0305 14.1822 20.8436L15.7991 15.4541L16.4219 16.9487C16.4898 17.1117 16.6491 17.2179 16.8257 17.2179H18.5757C18.8173 17.2179 19.0132 17.0221 19.0132 16.7804C19.0132 16.5388 18.8173 16.3429 18.5757 16.3429H17.1174L16.1358 13.9872C16.0647 13.8165 15.894 13.709 15.7094 13.7185C15.5247 13.7281 15.366 13.8526 15.3129 14.0297L13.7815 19.1344L11.7788 11.8519Z" fill="black"/>
</svg>
