<svg width="31" height="31" viewBox="0 0 31 31" fill="none" xmlns="http://www.w3.org/2000/svg">
<path d="M14.6858 6.4289C14.7776 6.4382 14.8694 6.44771 14.9613 6.45745C14.0375 7.84594 13.6407 9.55667 13.909 11.2529C14.1435 12.7352 15.282 13.6509 16.302 14.0733L20.8655 15.963C21.8855 16.3854 23.3381 16.5428 24.5517 15.6603C25.548 14.9359 26.3075 13.9644 26.7785 12.8696C27.0668 13.7407 27.2183 14.7162 27.2183 15.8052C27.2183 18.4343 26.4153 20.2773 25.584 21.4731C25.1709 22.0674 24.7548 22.4961 24.4358 22.7802C24.357 22.8503 24.284 22.9118 24.2183 22.9647V25.0929C24.2183 26.3355 23.2109 27.3429 21.9683 27.3429H19.8929C18.968 27.3429 18.2183 26.5931 18.2183 25.6682C18.2183 25.5717 18.1401 25.4936 18.0437 25.4936H15.3929C15.2964 25.4936 15.2183 25.5717 15.2183 25.6682C15.2183 26.5931 14.4685 27.3429 13.5436 27.3429H11.4683C10.2256 27.3429 9.21826 26.3355 9.21826 25.0929V24.2852C9.14655 24.2435 9.06801 24.1956 8.98275 24.1403C8.55118 23.8604 7.94713 23.3928 7.18434 22.6196C6.24433 21.6668 5.68471 20.6282 5.38201 19.9346C5.26966 19.6772 5.06703 19.5255 4.88086 19.494C3.92094 19.3319 3.21826 18.5004 3.21826 17.5269V15.2669C3.21826 14.3219 3.90033 13.515 4.83208 13.3575C5.00865 13.3277 5.20564 13.1708 5.29332 12.9034C5.52214 12.2055 5.96544 11.1716 6.77893 10.347C7.44409 9.67273 8.16297 9.17348 8.70973 8.84422C8.90158 8.72869 9.07414 8.63296 9.21826 8.55694V5.08532C9.21826 4.55672 9.56382 4.18133 9.93924 4.02953C10.3119 3.87883 10.8101 3.90745 11.1794 4.26301C11.6111 4.67861 12.2057 5.2027 12.852 5.63579C13.5134 6.07901 14.1531 6.3749 14.6858 6.4289ZM10.3433 14.5928C10.9646 14.5928 11.4683 14.0891 11.4683 13.4678C11.4683 12.8465 10.9646 12.3428 10.3433 12.3428C9.72195 12.3428 9.21826 12.8465 9.21826 13.4678C9.21826 14.0891 9.72195 14.5928 10.3433 14.5928Z" fill="black"/>
<path d="M25.7752 10.8959L25.7817 10.9047C25.5916 12.3028 24.8415 13.595 23.6697 14.4471C23.026 14.915 22.1745 14.8816 21.4393 14.5772L16.8759 12.6874C16.1701 12.3951 15.565 11.8502 15.4078 11.1116C15.4008 11.0793 15.3946 11.0465 15.3895 11.0134C15.0196 8.6731 16.2804 6.29785 18.5656 5.35102C21.2428 4.24183 24.3123 5.51294 25.4214 8.19009C25.789 9.07751 25.8952 10.008 25.7752 10.8959Z" fill="black"/>
</svg>
