<svg width="170" height="34" viewBox="0 0 170 34" fill="none" xmlns="http://www.w3.org/2000/svg">
<rect width="170" height="34" fill="white"/>
<path d="M26.5 19C25.837 19 25.2011 18.7366 24.7322 18.2677C24.2634 17.7989 24 17.163 24 16.5C24 15.8369 24.2634 15.201 24.7322 14.7322C25.2011 14.2634 25.837 14 26.5 14C27.163 14 27.7989 14.2634 28.2678 14.7322C28.7366 15.201 29 15.8369 29 16.5C29 17.163 28.7366 17.7989 28.2678 18.2677C27.7989 18.7366 27.163 19 26.5 19V19ZM26.5 18C26.8978 18 27.2794 17.8419 27.5607 17.5606C27.842 17.2793 28 16.8978 28 16.5C28 16.1021 27.842 15.7206 27.5607 15.4393C27.2794 15.158 26.8978 15 26.5 15C26.1022 15 25.7206 15.158 25.4393 15.4393C25.158 15.7206 25 16.1021 25 16.5C25 16.8978 25.158 17.2793 25.4393 17.5606C25.7206 17.8419 26.1022 18 26.5 18ZM26.5 25C25.837 25 25.2011 24.7366 24.7322 24.2677C24.2634 23.7989 24 23.163 24 22.5C24 21.8369 24.2634 21.201 24.7322 20.7322C25.2011 20.2634 25.837 20 26.5 20C27.163 20 27.7989 20.2634 28.2678 20.7322C28.7366 21.201 29 21.8369 29 22.5C29 23.163 28.7366 23.7989 28.2678 24.2677C27.7989 24.7366 27.163 25 26.5 25V25ZM26.5 24C26.8978 24 27.2794 23.8419 27.5607 23.5606C27.842 23.2793 28 22.8978 28 22.5C28 22.1021 27.842 21.7206 27.5607 21.4393C27.2794 21.158 26.8978 21 26.5 21C26.1022 21 25.7206 21.158 25.4393 21.4393C25.158 21.7206 25 22.1021 25 22.5C25 22.8978 25.158 23.2793 25.4393 23.5606C25.7206 23.8419 26.1022 24 26.5 24ZM29.793 8.49997L34.5 13.207L35.207 12.5L30.5 7.79297L29.793 8.49997Z" fill="black"/>
<path d="M30.5 13.207L35.207 8.49997L34.5 7.79297L29.793 12.5L30.5 13.207ZM29.793 14.5L34.5 19.207L35.207 18.5L30.5 13.793L29.793 14.5Z" fill="black"/>
<path d="M30.5 19.207L35.207 14.5L34.5 13.793L29.793 18.5L30.5 19.207ZM17.793 20.5L22.5 25.207L23.207 24.5L18.5 19.793L17.793 20.5Z" fill="black"/>
<path d="M18.5 25.207L23.207 20.5L22.5 19.793L17.793 24.5L18.5 25.207ZM17.793 8.49997L22.5 13.207L23.207 12.5L18.5 7.79297L17.793 8.49997Z" fill="black"/>
<path d="M18.5 13.207L23.207 8.49997L22.5 7.79297L17.793 12.5L18.5 13.207ZM17.793 14.5L22.5 19.207L23.207 18.5L18.5 13.793L17.793 14.5Z" fill="black"/>
<path d="M18.5 19.207L23.207 14.5L22.5 13.793L17.793 18.5L18.5 19.207Z" fill="black"/>
<path d="M62.2344 18.8672C62.2344 20.1536 61.9401 21.1901 61.3516 21.9766C60.763 22.763 59.9661 23.1562 58.9609 23.1562C57.9349 23.1562 57.1276 22.8307 56.5391 22.1797V26.25H55.0938V14.5469H56.4141L56.4844 15.4844C57.0729 14.7552 57.8906 14.3906 58.9375 14.3906C59.9531 14.3906 60.7552 14.7734 61.3438 15.5391C61.9375 16.3047 62.2344 17.3698 62.2344 18.7344V18.8672ZM60.7891 18.7031C60.7891 17.75 60.5859 16.9974 60.1797 16.4453C59.7734 15.8932 59.2161 15.6172 58.5078 15.6172C57.6328 15.6172 56.9766 16.0052 56.5391 16.7812V20.8203C56.9714 21.5911 57.6328 21.9766 58.5234 21.9766C59.2161 21.9766 59.7656 21.7031 60.1719 21.1562C60.5833 20.6042 60.7891 19.7865 60.7891 18.7031ZM63.6953 18.6953C63.6953 17.8672 63.8568 17.1224 64.1797 16.4609C64.5078 15.7995 64.9609 15.2891 65.5391 14.9297C66.1224 14.5703 66.7865 14.3906 67.5312 14.3906C68.6823 14.3906 69.612 14.7891 70.3203 15.5859C71.0339 16.3828 71.3906 17.4427 71.3906 18.7656V18.8672C71.3906 19.6901 71.2318 20.4297 70.9141 21.0859C70.6016 21.737 70.151 22.2448 69.5625 22.6094C68.9792 22.974 68.3073 23.1562 67.5469 23.1562C66.401 23.1562 65.4714 22.7578 64.7578 21.9609C64.0495 21.1641 63.6953 20.1094 63.6953 18.7969V18.6953ZM65.1484 18.8672C65.1484 19.8047 65.3646 20.5573 65.7969 21.125C66.2344 21.6927 66.8177 21.9766 67.5469 21.9766C68.2812 21.9766 68.8646 21.6901 69.2969 21.1172C69.7292 20.5391 69.9453 19.7318 69.9453 18.6953C69.9453 17.7682 69.724 17.0182 69.2812 16.4453C68.8438 15.8672 68.2604 15.5781 67.5312 15.5781C66.8177 15.5781 66.2422 15.862 65.8047 16.4297C65.3672 16.9974 65.1484 17.8099 65.1484 18.8672ZM74.7734 23H73.3281V14.5469H74.7734V23ZM73.2109 12.3047C73.2109 12.0703 73.2812 11.8724 73.4219 11.7109C73.5677 11.5495 73.7812 11.4688 74.0625 11.4688C74.3438 11.4688 74.5573 11.5495 74.7031 11.7109C74.849 11.8724 74.9219 12.0703 74.9219 12.3047C74.9219 12.5391 74.849 12.7344 74.7031 12.8906C74.5573 13.0469 74.3438 13.125 74.0625 13.125C73.7812 13.125 73.5677 13.0469 73.4219 12.8906C73.2812 12.7344 73.2109 12.5391 73.2109 12.3047ZM78.4609 14.5469L78.5078 15.6094C79.1536 14.7969 79.9974 14.3906 81.0391 14.3906C82.8255 14.3906 83.7266 15.3984 83.7422 17.4141V23H82.2969V17.4062C82.2917 16.7969 82.151 16.3464 81.875 16.0547C81.6042 15.763 81.1797 15.6172 80.6016 15.6172C80.1328 15.6172 79.7214 15.7422 79.3672 15.9922C79.013 16.2422 78.737 16.5703 78.5391 16.9766V23H77.0938V14.5469H78.4609ZM87.8828 12.5V14.5469H89.4609V15.6641H87.8828V20.9062C87.8828 21.2448 87.9531 21.5 88.0938 21.6719C88.2344 21.8385 88.474 21.9219 88.8125 21.9219C88.9792 21.9219 89.2083 21.8906 89.5 21.8281V23C89.1198 23.1042 88.75 23.1562 88.3906 23.1562C87.7448 23.1562 87.2578 22.9609 86.9297 22.5703C86.6016 22.1797 86.4375 21.625 86.4375 20.9062V15.6641H84.8984V14.5469H86.4375V12.5H87.8828ZM94.8203 19.9453C94.8203 19.3984 94.9714 18.8958 95.2734 18.4375C95.5807 17.9792 96.1641 17.4453 97.0234 16.8359C96.5182 16.2214 96.1797 15.7266 96.0078 15.3516C95.8359 14.9766 95.75 14.6042 95.75 14.2344C95.75 13.3698 96.0052 12.6927 96.5156 12.2031C97.026 11.7135 97.7188 11.4688 98.5938 11.4688C99.375 11.4688 100.021 11.6979 100.531 12.1562C101.042 12.6094 101.297 13.1823 101.297 13.875C101.297 14.3333 101.18 14.7578 100.945 15.1484C100.716 15.5339 100.312 15.9401 99.7344 16.3672L98.8984 16.9844L101.43 20.0078C101.784 19.3307 101.961 18.5781 101.961 17.75H103.266C103.266 19.0781 102.945 20.1797 102.305 21.0547L103.93 23H102.195L101.438 22.1016C101.052 22.4453 100.599 22.7083 100.078 22.8906C99.5625 23.0677 99.0365 23.1562 98.5 23.1562C97.3906 23.1562 96.5 22.862 95.8281 22.2734C95.1562 21.6849 94.8203 20.9089 94.8203 19.9453ZM98.5 21.9766C99.2656 21.9766 99.9661 21.6849 100.602 21.1016L97.8281 17.7812L97.5703 17.9688C96.7005 18.6094 96.2656 19.2682 96.2656 19.9453C96.2656 20.5599 96.4635 21.0521 96.8594 21.4219C97.2604 21.7917 97.8073 21.9766 98.5 21.9766ZM97.1953 14.1875C97.1953 14.6875 97.5026 15.3125 98.1172 16.0625L99.0391 15.4141C99.3932 15.1641 99.6354 14.9271 99.7656 14.7031C99.8958 14.474 99.9609 14.1979 99.9609 13.875C99.9609 13.526 99.8307 13.237 99.5703 13.0078C99.3099 12.7734 98.9818 12.6562 98.5859 12.6562C98.1589 12.6562 97.8203 12.8021 97.5703 13.0938C97.3203 13.3802 97.1953 13.7448 97.1953 14.1875ZM109.531 23V15.6641H108.195V14.5469H109.531V13.8281C109.531 12.8854 109.799 12.151 110.336 11.625C110.878 11.099 111.641 10.8359 112.625 10.8359C113.208 10.8359 113.945 10.9948 114.836 11.3125L114.594 12.5312C113.943 12.2708 113.323 12.1406 112.734 12.1406C112.115 12.1406 111.667 12.2812 111.391 12.5625C111.12 12.8385 110.984 13.2552 110.984 13.8125V14.5469H112.711V15.6641H110.984V23H109.531ZM115.555 23H114.102V14.5469H115.555V23ZM117.562 18.7031C117.562 17.3854 117.867 16.3385 118.477 15.5625C119.086 14.7812 119.893 14.3906 120.898 14.3906C121.93 14.3906 122.734 14.7552 123.312 15.4844L123.383 14.5469H124.703V22.7969C124.703 23.8906 124.378 24.7526 123.727 25.3828C123.081 26.013 122.211 26.3281 121.117 26.3281C120.508 26.3281 119.911 26.1979 119.328 25.9375C118.745 25.6771 118.299 25.3203 117.992 24.8672L118.742 24C119.362 24.7656 120.12 25.1484 121.016 25.1484C121.719 25.1484 122.266 24.9505 122.656 24.5547C123.052 24.1589 123.25 23.6016 123.25 22.8828V22.1562C122.672 22.8229 121.883 23.1562 120.883 23.1562C119.893 23.1562 119.091 22.7578 118.477 21.9609C117.867 21.1641 117.562 20.0781 117.562 18.7031ZM119.016 18.8672C119.016 19.8203 119.211 20.5703 119.602 21.1172C119.992 21.6589 120.539 21.9297 121.242 21.9297C122.154 21.9297 122.823 21.5156 123.25 20.6875V16.8281C122.807 16.0208 122.143 15.6172 121.258 15.6172C120.555 15.6172 120.005 15.8906 119.609 16.4375C119.214 16.9844 119.016 17.7943 119.016 18.8672ZM132.109 22.1641C131.547 22.8255 130.721 23.1562 129.633 23.1562C128.732 23.1562 128.044 22.8958 127.57 22.375C127.102 21.849 126.865 21.0729 126.859 20.0469V14.5469H128.305V20.0078C128.305 21.2891 128.826 21.9297 129.867 21.9297C130.971 21.9297 131.706 21.5182 132.07 20.6953V14.5469H133.516V23H132.141L132.109 22.1641ZM139.805 15.8438C139.586 15.8073 139.349 15.7891 139.094 15.7891C138.146 15.7891 137.503 16.1927 137.164 17V23H135.719V14.5469H137.125L137.148 15.5234C137.622 14.7682 138.294 14.3906 139.164 14.3906C139.445 14.3906 139.659 14.4271 139.805 14.5V15.8438ZM144.492 23.1562C143.346 23.1562 142.414 22.7812 141.695 22.0312C140.977 21.276 140.617 20.2682 140.617 19.0078V18.7422C140.617 17.9036 140.776 17.1562 141.094 16.5C141.417 15.8385 141.865 15.3229 142.438 14.9531C143.016 14.5781 143.641 14.3906 144.312 14.3906C145.411 14.3906 146.266 14.7526 146.875 15.4766C147.484 16.2005 147.789 17.237 147.789 18.5859V19.1875H142.062C142.083 20.0208 142.326 20.6953 142.789 21.2109C143.258 21.7214 143.852 21.9766 144.57 21.9766C145.081 21.9766 145.513 21.8724 145.867 21.6641C146.221 21.4557 146.531 21.1797 146.797 20.8359L147.68 21.5234C146.971 22.612 145.909 23.1562 144.492 23.1562ZM144.312 15.5781C143.729 15.5781 143.24 15.7917 142.844 16.2188C142.448 16.6406 142.203 17.2344 142.109 18H146.344V17.8906C146.302 17.1562 146.104 16.5885 145.75 16.1875C145.396 15.7812 144.917 15.5781 144.312 15.5781Z" fill="black"/>
</svg>
