<svg width="46" height="46" viewBox="0 0 46 46" fill="none" xmlns="http://www.w3.org/2000/svg">
<rect width="46" height="46" fill="white"/>
<path d="M25.7145 27.8572C24.7673 27.8572 23.8589 27.4809 23.1891 26.8111C22.5193 26.1413 22.1431 25.2329 22.1431 24.2857C22.1431 23.3385 22.5193 22.4301 23.1891 21.7604C23.8589 21.0906 24.7673 20.7143 25.7145 20.7143C26.6617 20.7143 27.5701 21.0906 28.2399 21.7604C28.9096 22.4301 29.2859 23.3385 29.2859 24.2857C29.2859 25.2329 28.9096 26.1413 28.2399 26.8111C27.5701 27.4809 26.6617 27.8572 25.7145 27.8572V27.8572ZM25.7145 26.4286C26.2828 26.4286 26.8279 26.2028 27.2297 25.801C27.6316 25.3991 27.8574 24.8541 27.8574 24.2857C27.8574 23.7174 27.6316 23.1724 27.2297 22.7705C26.8279 22.3686 26.2828 22.1429 25.7145 22.1429C25.1462 22.1429 24.6011 22.3686 24.1993 22.7705C23.7974 23.1724 23.5716 23.7174 23.5716 24.2857C23.5716 24.8541 23.7974 25.3991 24.1993 25.801C24.6011 26.2028 25.1462 26.4286 25.7145 26.4286ZM25.7145 36.4286C24.7673 36.4286 23.8589 36.0523 23.1891 35.3825C22.5193 34.7128 22.1431 33.8044 22.1431 32.8572C22.1431 31.91 22.5193 31.0016 23.1891 30.3318C23.8589 29.662 24.7673 29.2857 25.7145 29.2857C26.6617 29.2857 27.5701 29.662 28.2399 30.3318C28.9096 31.0016 29.2859 31.91 29.2859 32.8572C29.2859 33.8044 28.9096 34.7128 28.2399 35.3825C27.5701 36.0523 26.6617 36.4286 25.7145 36.4286V36.4286ZM25.7145 35C26.2828 35 26.8279 34.7743 27.2297 34.3724C27.6316 33.9705 27.8574 33.4255 27.8574 32.8572C27.8574 32.2888 27.6316 31.7438 27.2297 31.3419C26.8279 30.9401 26.2828 30.7143 25.7145 30.7143C25.1462 30.7143 24.6011 30.9401 24.1993 31.3419C23.7974 31.7438 23.5716 32.2888 23.5716 32.8572C23.5716 33.4255 23.7974 33.9705 24.1993 34.3724C24.6011 34.7743 25.1462 35 25.7145 35ZM30.4188 12.8572L37.1431 19.5815L38.1531 18.5715L31.4288 11.8472L30.4188 12.8572Z" fill="black"/>
<path d="M31.4285 19.5815L38.1527 12.8572L37.1427 11.8472L30.4185 18.5715L31.4285 19.5815ZM30.4185 21.4286L37.1427 28.1529L38.1527 27.1429L31.4285 20.4186L30.4185 21.4286Z" fill="black"/>
<path d="M31.4287 28.1529L38.153 21.4286L37.143 20.4186L30.4187 27.1429L31.4287 28.1529ZM13.2759 30L20.0002 36.7243L21.0102 35.7143L14.2859 28.99L13.2759 30Z" fill="black"/>
<path d="M14.2859 36.7243L21.0102 30L20.0002 28.99L13.2759 35.7143L14.2859 36.7243ZM13.2759 12.8572L20.0002 19.5815L21.0102 18.5715L14.2859 11.8472L13.2759 12.8572Z" fill="black"/>
<path d="M14.2859 19.5815L21.0102 12.8572L20.0002 11.8472L13.2759 18.5715L14.2859 19.5815ZM13.2759 21.4286L20.0002 28.1529L21.0102 27.1429L14.2859 20.4186L13.2759 21.4286Z" fill="black"/>
<path d="M14.2859 28.1529L21.0102 21.4286L20.0002 20.4186L13.2759 27.1429L14.2859 28.1529Z" fill="black"/>
</svg>
