<svg width="46" height="46" viewBox="0 0 46 46" fill="none" xmlns="http://www.w3.org/2000/svg">
<rect width="46" height="46" fill="white"/>
<path d="M23.5 25C22.837 25 22.2011 24.7366 21.7322 24.2677C21.2634 23.7989 21 23.163 21 22.5C21 21.8369 21.2634 21.201 21.7322 20.7322C22.2011 20.2634 22.837 20 23.5 20C24.163 20 24.7989 20.2634 25.2678 20.7322C25.7366 21.201 26 21.8369 26 22.5C26 23.163 25.7366 23.7989 25.2678 24.2677C24.7989 24.7366 24.163 25 23.5 25V25ZM23.5 24C23.8978 24 24.2794 23.8419 24.5607 23.5606C24.842 23.2793 25 22.8978 25 22.5C25 22.1021 24.842 21.7206 24.5607 21.4393C24.2794 21.158 23.8978 21 23.5 21C23.1022 21 22.7206 21.158 22.4393 21.4393C22.158 21.7206 22 22.1021 22 22.5C22 22.8978 22.158 23.2793 22.4393 23.5606C22.7206 23.8419 23.1022 24 23.5 24ZM23.5 31C22.837 31 22.2011 30.7366 21.7322 30.2677C21.2634 29.7989 21 29.163 21 28.5C21 27.8369 21.2634 27.201 21.7322 26.7322C22.2011 26.2634 22.837 26 23.5 26C24.163 26 24.7989 26.2634 25.2678 26.7322C25.7366 27.201 26 27.8369 26 28.5C26 29.163 25.7366 29.7989 25.2678 30.2677C24.7989 30.7366 24.163 31 23.5 31V31ZM23.5 30C23.8978 30 24.2794 29.8419 24.5607 29.5606C24.842 29.2793 25 28.8978 25 28.5C25 28.1021 24.842 27.7206 24.5607 27.4393C24.2794 27.158 23.8978 27 23.5 27C23.1022 27 22.7206 27.158 22.4393 27.4393C22.158 27.7206 22 28.1021 22 28.5C22 28.8978 22.158 29.2793 22.4393 29.5606C22.7206 29.8419 23.1022 30 23.5 30ZM26.793 14.5L31.5 19.207L32.207 18.5L27.5 13.793L26.793 14.5Z" fill="black"/>
<path d="M27.5 19.207L32.207 14.5L31.5 13.793L26.793 18.5L27.5 19.207ZM26.793 20.5L31.5 25.207L32.207 24.5L27.5 19.793L26.793 20.5Z" fill="black"/>
<path d="M27.5 25.207L32.207 20.5L31.5 19.793L26.793 24.5L27.5 25.207ZM14.793 26.5L19.5 31.207L20.207 30.5L15.5 25.793L14.793 26.5Z" fill="black"/>
<path d="M15.5 31.207L20.207 26.5L19.5 25.793L14.793 30.5L15.5 31.207ZM14.793 14.5L19.5 19.207L20.207 18.5L15.5 13.793L14.793 14.5Z" fill="black"/>
<path d="M15.5 19.207L20.207 14.5L19.5 13.793L14.793 18.5L15.5 19.207ZM14.793 20.5L19.5 25.207L20.207 24.5L15.5 19.793L14.793 20.5Z" fill="black"/>
<path d="M15.5 25.207L20.207 20.5L19.5 19.793L14.793 24.5L15.5 25.207Z" fill="black"/>
</svg>
