<svg width="16" height="16" viewBox="0 0 16 16" fill="none" xmlns="http://www.w3.org/2000/svg">
<path d="M12.8333 1.33333C12.5802 1.33333 12.371 1.52143 12.3379 1.76548L12.3333 1.83333V5.62666L9.28378 2.58675C7.65578 0.958788 5.04102 0.919082 3.36492 2.46763L3.241 2.58675C1.57234 4.25541 1.57234 6.96086 3.241 8.62953L9.13778 14.5223C9.33312 14.7175 9.64958 14.7173 9.84485 14.522C10.0401 14.3267 10.0399 14.0101 9.84458 13.8149L3.9481 7.92239C2.66996 6.64427 2.66996 4.572 3.9481 3.29386C5.18751 2.05445 7.17365 2.01689 8.45878 3.18165L8.57718 3.29437L11.6253 6.33333L7.83332 6.33345C7.58018 6.33345 7.37098 6.52155 7.33792 6.76559L7.33332 6.83346C7.33332 7.08659 7.52145 7.29579 7.76545 7.32886L7.83332 7.33346H12.8333C13.0865 7.33346 13.2957 7.14533 13.3288 6.90133L13.3333 6.83346V1.83333C13.3333 1.55719 13.1095 1.33333 12.8333 1.33333Z" fill="white"/>
</svg>
