<svg width="170" height="34" viewBox="0 0 170 34" fill="none" xmlns="http://www.w3.org/2000/svg">
<rect width="170" height="34" fill="white"/>
<path d="M29 8V13H32V8H29ZM28 7H33V14H28V7ZM24 20H27V15H24V20ZM23 14H28V21H23V14ZM19 27H22V22H19V27ZM18 21H23V28H18V21Z" fill="black"/>
<path d="M59.1797 15.8438C58.9609 15.8073 58.724 15.7891 58.4688 15.7891C57.5208 15.7891 56.8776 16.1927 56.5391 17V23H55.0938V14.5469H56.5L56.5234 15.5234C56.9974 14.7682 57.6693 14.3906 58.5391 14.3906C58.8203 14.3906 59.0339 14.4271 59.1797 14.5V15.8438ZM63.8672 23.1562C62.7214 23.1562 61.7891 22.7812 61.0703 22.0312C60.3516 21.276 59.9922 20.2682 59.9922 19.0078V18.7422C59.9922 17.9036 60.151 17.1562 60.4688 16.5C60.7917 15.8385 61.2396 15.3229 61.8125 14.9531C62.3906 14.5781 63.0156 14.3906 63.6875 14.3906C64.7865 14.3906 65.6406 14.7526 66.25 15.4766C66.8594 16.2005 67.1641 17.237 67.1641 18.5859V19.1875H61.4375C61.4583 20.0208 61.7005 20.6953 62.1641 21.2109C62.6328 21.7214 63.2266 21.9766 63.9453 21.9766C64.4557 21.9766 64.888 21.8724 65.2422 21.6641C65.5964 21.4557 65.9062 21.1797 66.1719 20.8359L67.0547 21.5234C66.3464 22.612 65.2839 23.1562 63.8672 23.1562ZM63.6875 15.5781C63.1042 15.5781 62.6146 15.7917 62.2188 16.2188C61.8229 16.6406 61.5781 17.2344 61.4844 18H65.7188V17.8906C65.6771 17.1562 65.4792 16.5885 65.125 16.1875C64.7708 15.7812 64.2917 15.5781 63.6875 15.5781ZM70.2109 14.5469L70.2578 15.6094C70.9036 14.7969 71.7474 14.3906 72.7891 14.3906C74.5755 14.3906 75.4766 15.3984 75.4922 17.4141V23H74.0469V17.4062C74.0417 16.7969 73.901 16.3464 73.625 16.0547C73.3542 15.763 72.9297 15.6172 72.3516 15.6172C71.8828 15.6172 71.4714 15.7422 71.1172 15.9922C70.763 16.2422 70.487 16.5703 70.2891 16.9766V23H68.8438V14.5469H70.2109ZM80.0312 19.0859L79.125 20.0312V23H77.6797V11H79.125V18.2578L79.8984 17.3281L82.5312 14.5469H84.2891L81 18.0781L84.6719 23H82.9766L80.0312 19.0859ZM85.3984 18.6953C85.3984 17.8672 85.5599 17.1224 85.8828 16.4609C86.2109 15.7995 86.6641 15.2891 87.2422 14.9297C87.8255 14.5703 88.4896 14.3906 89.2344 14.3906C90.3854 14.3906 91.3151 14.7891 92.0234 15.5859C92.737 16.3828 93.0938 17.4427 93.0938 18.7656V18.8672C93.0938 19.6901 92.9349 20.4297 92.6172 21.0859C92.3047 21.737 91.8542 22.2448 91.2656 22.6094C90.6823 22.974 90.0104 23.1562 89.25 23.1562C88.1042 23.1562 87.1745 22.7578 86.4609 21.9609C85.7526 21.1641 85.3984 20.1094 85.3984 18.7969V18.6953ZM86.8516 18.8672C86.8516 19.8047 87.0677 20.5573 87.5 21.125C87.9375 21.6927 88.5208 21.9766 89.25 21.9766C89.9844 21.9766 90.5677 21.6901 91 21.1172C91.4323 20.5391 91.6484 19.7318 91.6484 18.6953C91.6484 17.7682 91.4271 17.0182 90.9844 16.4453C90.5469 15.8672 89.9635 15.5781 89.2344 15.5781C88.5208 15.5781 87.9453 15.862 87.5078 16.4297C87.0703 16.9974 86.8516 17.8099 86.8516 18.8672Z" fill="black"/>
</svg>
