<svg width="31" height="31" viewBox="0 0 31 31" fill="none" xmlns="http://www.w3.org/2000/svg">
<path d="M13.2755 19.5261L21.0965 8.9312C21.3554 8.58045 21.8342 8.47618 22.2156 8.68754C22.5587 8.87778 22.7271 9.27053 22.6406 9.64279L22.6022 9.76581L17.7646 22.0145C17.2396 23.3439 15.7364 23.9959 14.4071 23.4709C14.3027 23.4296 14.2012 23.3818 14.1031 23.3274C12.8528 22.6343 12.401 21.0588 13.0941 19.8085L13.1802 19.6644L13.2755 19.5261L21.0965 8.9312L13.2755 19.5261ZM18.0265 16.2471L14.784 20.6396L14.734 20.7175C14.543 21.0621 14.6675 21.4964 15.0121 21.6874L15.0959 21.727C15.4254 21.8571 15.7937 21.7246 15.9695 21.4299L16.0207 21.3258L18.0265 16.2471ZM23.9759 9.5175C24.919 10.2816 25.7726 11.1886 26.5036 12.2325C27.1592 13.1688 27.7905 14.3026 28.1536 15.2304C28.3422 15.7126 28.1044 16.2564 27.6221 16.445C27.14 16.6338 26.5961 16.3958 26.4075 15.9136C26.2859 15.6029 26.1236 15.2559 25.9359 14.8989L23.374 16.378C22.9256 16.6369 22.3522 16.4833 22.0934 16.0349C21.856 15.6238 21.9654 15.1078 22.3306 14.8251L22.4365 14.7541L24.9594 13.2956L24.6712 12.9034C24.2665 12.3752 23.8235 11.8917 23.3491 11.4538L23.8244 10.2485C23.8717 10.1286 23.9077 10.0067 23.9329 9.88417L23.9625 9.69998L23.9759 9.5175ZM20.6901 7.56593C20.5039 7.67413 20.3321 7.81174 20.1819 7.97671L20.0391 8.15074L19.363 9.0669C18.4857 8.76199 17.5747 8.56469 16.6517 8.47885L16.6515 11.8199C16.6515 12.3377 16.2317 12.7574 15.714 12.7574C15.2394 12.7574 14.8471 12.4047 14.785 11.9471L14.7765 11.8199L14.776 8.45831C12.7801 8.60023 10.7958 9.26786 9.03756 10.499C8.01763 11.2132 7.12835 12.1518 6.38914 13.2549L8.9919 14.7575C9.4403 15.0164 9.59394 15.5898 9.33505 16.0381C9.09775 16.4491 8.59619 16.6125 8.16885 16.4375L8.0544 16.3813L5.46166 14.885C5.30195 15.2179 5.15365 15.5604 5.01714 15.9116C4.82956 16.3943 4.28628 16.6334 3.80369 16.4459C3.32109 16.2583 3.08193 15.715 3.2695 15.2324C4.27756 12.6388 5.86861 10.429 7.9621 8.9631C11.827 6.25689 16.63 5.88998 20.6901 7.56593Z" fill="#CC9B6D"/>
</svg>
