<svg width="20" height="20" viewBox="0 0 20 20" fill="none" xmlns="http://www.w3.org/2000/svg">
<rect width="20" height="20" rx="2" fill="#DE2323"/>
<path d="M9.95605 9.81464C9.23242 9.60663 8.70508 9.35175 8.37402 9.04999C8.0459 8.7453 7.88184 8.3703 7.88184 7.92499C7.88184 7.42108 8.08252 7.00507 8.48389 6.67694C8.88818 6.34589 9.4126 6.18036 10.0571 6.18036C10.4966 6.18036 10.8877 6.26532 11.2305 6.43524C11.5762 6.60516 11.8428 6.83954 12.0303 7.13837C12.2207 7.43719 12.3159 7.76385 12.3159 8.11835H11.4678C11.4678 7.73163 11.3447 7.42841 11.0986 7.20868C10.8525 6.98602 10.5054 6.87469 10.0571 6.87469C9.64111 6.87469 9.31592 6.96698 9.08154 7.15155C8.8501 7.33319 8.73438 7.58661 8.73438 7.9118C8.73438 8.17255 8.84424 8.39374 9.06396 8.57538C9.28662 8.75409 9.66309 8.91815 10.1934 9.06757C10.7266 9.21698 11.1426 9.38251 11.4414 9.56415C11.7432 9.74286 11.9658 9.95233 12.1094 10.1926C12.2559 10.4328 12.3291 10.7155 12.3291 11.0407C12.3291 11.5593 12.127 11.9753 11.7227 12.2888C11.3184 12.5993 10.7778 12.7546 10.1011 12.7546C9.66162 12.7546 9.25146 12.6711 8.87061 12.5041C8.48975 12.3342 8.19531 12.1027 7.9873 11.8098C7.78223 11.5168 7.67969 11.1843 7.67969 10.8122H8.52783C8.52783 11.1989 8.66992 11.5051 8.9541 11.7307C9.24121 11.9533 9.62354 12.0646 10.1011 12.0646C10.5464 12.0646 10.8877 11.9738 11.125 11.7922C11.3623 11.6105 11.481 11.363 11.481 11.0495C11.481 10.736 11.3711 10.4943 11.1514 10.3244C10.9316 10.1516 10.5332 9.98163 9.95605 9.81464Z" fill="black"/>
</svg>
