<svg width="31" height="31" viewBox="0 0 31 31" fill="none" xmlns="http://www.w3.org/2000/svg">
<path d="M15.7298 3.3125C16.6473 3.32308 17.5612 3.42908 18.4567 3.6288C18.8477 3.71599 19.14 4.04189 19.1844 4.43995L19.3972 6.34851C19.4934 7.22483 20.2333 7.88855 21.1154 7.88947C21.3524 7.88985 21.587 7.84047 21.806 7.74354L23.5569 6.97445C23.921 6.81449 24.3464 6.9017 24.6183 7.19203C25.8835 8.5433 26.8258 10.1639 27.3742 11.932C27.4924 12.3132 27.3564 12.7275 27.035 12.9644L25.4832 14.1082C25.0405 14.4335 24.779 14.95 24.779 15.4994C24.779 16.0486 25.0405 16.5651 25.4842 16.8911L27.0374 18.0354C27.3588 18.2721 27.495 18.6865 27.3767 19.0679C26.8285 20.8356 25.8868 22.4561 24.6223 23.8076C24.3507 24.0979 23.9255 24.1854 23.5614 24.0258L21.8035 23.2556C21.3007 23.0355 20.723 23.0678 20.2478 23.3425C19.7725 23.6171 19.4562 24.1015 19.3958 24.6471L19.1844 26.5555C19.1409 26.949 18.8548 27.2728 18.4697 27.3644C16.659 27.7951 14.7727 27.7951 12.9621 27.3644C12.577 27.2728 12.2909 26.949 12.2473 26.5555L12.0363 24.65C11.9743 24.1054 11.6575 23.6225 11.1826 23.3487C10.7077 23.075 10.1311 23.0429 9.62985 23.2617L7.87157 24.032C7.50737 24.1916 7.08215 24.1041 6.81058 23.8136C5.54538 22.4606 4.6036 20.8381 4.0561 19.0685C3.93818 18.6874 4.07443 18.2732 4.39566 18.0366L5.94982 16.8916C6.3925 16.5664 6.65395 16.0499 6.65395 15.5006C6.65395 14.9513 6.3925 14.4347 5.94925 14.1091L4.39606 12.9661C4.07435 12.7293 3.93797 12.3147 4.05631 11.9332C4.60475 10.1652 5.54703 8.54455 6.81226 7.19327C7.0841 6.90295 7.50952 6.81574 7.87366 6.9757L9.62412 7.74465C10.1278 7.9657 10.7068 7.93231 11.1843 7.65336C11.6597 7.37761 11.9762 6.89278 12.0373 6.34705L12.2499 4.43995C12.2943 4.04169 12.5869 3.71567 12.9781 3.62867C13.8747 3.42927 14.7895 3.32331 15.7298 3.3125ZM15.7142 11.7499C13.6432 11.7499 11.9642 13.4289 11.9642 15.5C11.9642 17.571 13.6432 19.25 15.7142 19.25C17.7853 19.25 19.4642 17.571 19.4642 15.5C19.4642 13.4289 17.7853 11.7499 15.7142 11.7499Z" fill="black"/>
</svg>
