<svg width="134" height="46" viewBox="0 0 134 46" fill="none" xmlns="http://www.w3.org/2000/svg">
<rect width="134" height="46" fill="white"/>
<path d="M17.1428 34.4286V25.8572H15.7143V34.4286H17.1428ZM21.4285 34.4286V28.7143H20V34.4286H21.4285ZM25.7142 34.4286V31.5714H24.2857V34.4286H25.7142ZM30 34.4286V28.7143H28.5714V34.4286H30ZM34.2857 34.4286V24.4286H32.8571V34.4286H34.2857ZM12.8571 34.4286V28.7143H11.4285V34.4286H12.8571ZM8.57139 34.4286V33H7.14282V34.4286H8.57139Z" fill="black"/>
<path d="M7.85717 27.5814L14.5 20.9386C14.753 20.6848 15.0536 20.4834 15.3845 20.346C15.7154 20.2086 16.0703 20.1378 16.4286 20.1378C16.7869 20.1378 17.1417 20.2086 17.4727 20.346C17.8036 20.4834 18.1042 20.6848 18.3572 20.9386L22.0615 24.6428C22.4471 25.0293 22.9051 25.3358 23.4093 25.545C23.9136 25.7542 24.4541 25.8618 25 25.8618C25.5459 25.8618 26.0865 25.7542 26.5907 25.545C27.095 25.3358 27.553 25.0293 27.9386 24.6428L34.5815 18L33.5715 16.99L26.9286 23.6328C26.6756 23.8867 26.3751 24.088 26.0441 24.2254C25.7132 24.3628 25.3584 24.4336 25 24.4336C24.6417 24.4336 24.2869 24.3628 23.9559 24.2254C23.625 24.088 23.3244 23.8867 23.0715 23.6328L19.3672 19.9286C18.9816 19.5421 18.5235 19.2356 18.0193 19.0264C17.515 18.8172 16.9745 18.7096 16.4286 18.7096C15.8827 18.7096 15.3421 18.8172 14.8379 19.0264C14.3337 19.2356 13.8756 19.5421 13.49 19.9286L6.84717 26.5714L7.85717 27.5814V27.5814Z" fill="black"/>
<path d="M7.85717 20.4386L14.5 13.7957C14.753 13.5419 15.0536 13.3406 15.3845 13.2031C15.7154 13.0657 16.0703 12.995 16.4286 12.995C16.7869 12.995 17.1417 13.0657 17.4727 13.2031C17.8036 13.3406 18.1042 13.5419 18.3572 13.7957L22.0615 17.5C22.4471 17.8864 22.9051 18.193 23.4093 18.4022C23.9136 18.6114 24.4541 18.719 25 18.719C25.5459 18.719 26.0865 18.6114 26.5907 18.4022C27.095 18.193 27.553 17.8864 27.9386 17.5L34.5815 10.8572L33.5715 9.84717L26.9286 16.49C26.6756 16.7438 26.3751 16.9452 26.0441 17.0826C25.7132 17.22 25.3584 17.2908 25 17.2908C24.6417 17.2908 24.2869 17.22 23.9559 17.0826C23.625 16.9452 23.3244 16.7438 23.0715 16.49L19.3672 12.7857C18.9816 12.3993 18.5235 12.0928 18.0193 11.8836C17.515 11.6744 16.9745 11.5667 16.4286 11.5667C15.8827 11.5667 15.3421 11.6744 14.8379 11.8836C14.3337 12.0928 13.8756 12.3993 13.49 12.7857L6.84717 19.4286L7.85717 20.4386V20.4386Z" fill="black"/>
<path d="M62.1797 18.8594H58.5234V29H57.0312V18.8594H53.3828V17.625H62.1797V18.8594ZM66.3672 29.1562C65.2214 29.1562 64.2891 28.7812 63.5703 28.0312C62.8516 27.276 62.4922 26.2682 62.4922 25.0078V24.7422C62.4922 23.9036 62.651 23.1562 62.9688 22.5C63.2917 21.8385 63.7396 21.3229 64.3125 20.9531C64.8906 20.5781 65.5156 20.3906 66.1875 20.3906C67.2865 20.3906 68.1406 20.7526 68.75 21.4766C69.3594 22.2005 69.6641 23.237 69.6641 24.5859V25.1875H63.9375C63.9583 26.0208 64.2005 26.6953 64.6641 27.2109C65.1328 27.7214 65.7266 27.9766 66.4453 27.9766C66.9557 27.9766 67.388 27.8724 67.7422 27.6641C68.0964 27.4557 68.4062 27.1797 68.6719 26.8359L69.5547 27.5234C68.8464 28.612 67.7839 29.1562 66.3672 29.1562ZM66.1875 21.5781C65.6042 21.5781 65.1146 21.7917 64.7188 22.2188C64.3229 22.6406 64.0781 23.2344 63.9844 24H68.2188V23.8906C68.1771 23.1562 67.9792 22.5885 67.625 22.1875C67.2708 21.7812 66.7917 21.5781 66.1875 21.5781ZM72.7031 20.5469L72.7422 21.4844C73.362 20.7552 74.1979 20.3906 75.25 20.3906C76.4323 20.3906 77.237 20.8438 77.6641 21.75C77.9453 21.3438 78.3099 21.0156 78.7578 20.7656C79.2109 20.5156 79.7448 20.3906 80.3594 20.3906C82.2135 20.3906 83.1562 21.3724 83.1875 23.3359V29H81.7422V23.4219C81.7422 22.8177 81.6042 22.3672 81.3281 22.0703C81.0521 21.7682 80.5885 21.6172 79.9375 21.6172C79.401 21.6172 78.9557 21.7786 78.6016 22.1016C78.2474 22.4193 78.0417 22.849 77.9844 23.3906V29H76.5312V23.4609C76.5312 22.2318 75.9297 21.6172 74.7266 21.6172C73.7786 21.6172 73.1302 22.0208 72.7812 22.8281V29H71.3359V20.5469H72.7031ZM92.5156 24.8672C92.5156 26.1536 92.2214 27.1901 91.6328 27.9766C91.0443 28.763 90.2474 29.1562 89.2422 29.1562C88.2161 29.1562 87.4089 28.8307 86.8203 28.1797V32.25H85.375V20.5469H86.6953L86.7656 21.4844C87.3542 20.7552 88.1719 20.3906 89.2188 20.3906C90.2344 20.3906 91.0365 20.7734 91.625 21.5391C92.2188 22.3047 92.5156 23.3698 92.5156 24.7344V24.8672ZM91.0703 24.7031C91.0703 23.75 90.8672 22.9974 90.4609 22.4453C90.0547 21.8932 89.4974 21.6172 88.7891 21.6172C87.9141 21.6172 87.2578 22.0052 86.8203 22.7812V26.8203C87.2526 27.5911 87.9141 27.9766 88.8047 27.9766C89.4974 27.9766 90.0469 27.7031 90.4531 27.1562C90.8646 26.6042 91.0703 25.7865 91.0703 24.7031ZM95.9297 29H94.4844V17H95.9297V29ZM103.469 29C103.385 28.8333 103.318 28.5365 103.266 28.1094C102.594 28.8073 101.792 29.1562 100.859 29.1562C100.026 29.1562 99.3411 28.9219 98.8047 28.4531C98.2734 27.9792 98.0078 27.3802 98.0078 26.6562C98.0078 25.776 98.3411 25.0938 99.0078 24.6094C99.6797 24.1198 100.622 23.875 101.836 23.875H103.242V23.2109C103.242 22.7057 103.091 22.3047 102.789 22.0078C102.487 21.7057 102.042 21.5547 101.453 21.5547C100.938 21.5547 100.505 21.6849 100.156 21.9453C99.8073 22.2057 99.6328 22.5208 99.6328 22.8906H98.1797C98.1797 22.4688 98.3281 22.0625 98.625 21.6719C98.9271 21.276 99.3333 20.9635 99.8438 20.7344C100.359 20.5052 100.924 20.3906 101.539 20.3906C102.513 20.3906 103.276 20.6354 103.828 21.125C104.38 21.6094 104.667 22.2786 104.688 23.1328V27.0234C104.688 27.7995 104.786 28.4167 104.984 28.875V29H103.469ZM101.07 27.8984C101.523 27.8984 101.953 27.7812 102.359 27.5469C102.766 27.3125 103.06 27.0078 103.242 26.6328V24.8984H102.109C100.339 24.8984 99.4531 25.4167 99.4531 26.4531C99.4531 26.9062 99.6042 27.2604 99.9062 27.5156C100.208 27.7708 100.596 27.8984 101.07 27.8984ZM108.914 18.5V20.5469H110.492V21.6641H108.914V26.9062C108.914 27.2448 108.984 27.5 109.125 27.6719C109.266 27.8385 109.505 27.9219 109.844 27.9219C110.01 27.9219 110.24 27.8906 110.531 27.8281V29C110.151 29.1042 109.781 29.1562 109.422 29.1562C108.776 29.1562 108.289 28.9609 107.961 28.5703C107.633 28.1797 107.469 27.625 107.469 26.9062V21.6641H105.93V20.5469H107.469V18.5H108.914ZM115.695 29.1562C114.549 29.1562 113.617 28.7812 112.898 28.0312C112.18 27.276 111.82 26.2682 111.82 25.0078V24.7422C111.82 23.9036 111.979 23.1562 112.297 22.5C112.62 21.8385 113.068 21.3229 113.641 20.9531C114.219 20.5781 114.844 20.3906 115.516 20.3906C116.615 20.3906 117.469 20.7526 118.078 21.4766C118.688 22.2005 118.992 23.237 118.992 24.5859V25.1875H113.266C113.286 26.0208 113.529 26.6953 113.992 27.2109C114.461 27.7214 115.055 27.9766 115.773 27.9766C116.284 27.9766 116.716 27.8724 117.07 27.6641C117.424 27.4557 117.734 27.1797 118 26.8359L118.883 27.5234C118.174 28.612 117.112 29.1562 115.695 29.1562ZM115.516 21.5781C114.932 21.5781 114.443 21.7917 114.047 22.2188C113.651 22.6406 113.406 23.2344 113.312 24H117.547V23.8906C117.505 23.1562 117.307 22.5885 116.953 22.1875C116.599 21.7812 116.12 21.5781 115.516 21.5781Z" fill="black"/>
</svg>
