<svg width="16" height="16" viewBox="0 0 16 16" fill="none" xmlns="http://www.w3.org/2000/svg">
<path d="M3.16675 1.33333C3.41988 1.33333 3.62907 1.52143 3.66218 1.76548L3.66675 1.83333V5.62666L6.71628 2.58675C8.34428 0.958788 10.9591 0.919082 12.6351 2.46763L12.7591 2.58675C14.4277 4.25541 14.4277 6.96086 12.7591 8.62953L6.86228 14.5223C6.66695 14.7175 6.35047 14.7173 6.15521 14.522C5.95994 14.3267 5.96017 14.0101 6.15551 13.8149L12.0519 7.92239C13.3301 6.64427 13.3301 4.572 12.0519 3.29386C10.8125 2.05445 8.82642 2.01689 7.54128 3.18165L7.42288 3.29437L4.37475 6.33333L8.16675 6.33345C8.41988 6.33345 8.62908 6.52155 8.66222 6.76559L8.66675 6.83346C8.66675 7.08659 8.47862 7.29579 8.23462 7.32886L8.16675 7.33346H3.16675C2.91361 7.33346 2.70442 7.14533 2.67131 6.90133L2.66675 6.83346V1.83333C2.66675 1.55719 2.89061 1.33333 3.16675 1.33333Z" fill="white"/>
</svg>
