<svg width="146" height="58" viewBox="0 0 146 58" fill="none" xmlns="http://www.w3.org/2000/svg">
<g filter="url(#filter0_d)">
<rect x="4" width="138" height="50" fill="white"/>
<path d="M22.543 33H20.3633V18.5508L15.9922 20.1562V18.1875L22.2031 15.8555H22.543V33ZM29.457 33V15.9375H34.2734C35.7578 15.9375 37.0703 16.2656 38.2109 16.9219C39.3516 17.5781 40.2305 18.5117 40.8477 19.7227C41.4727 20.9336 41.7891 22.3242 41.7969 23.8945V24.9844C41.7969 26.5938 41.4844 28.0039 40.8594 29.2148C40.2422 30.4258 39.3555 31.3555 38.1992 32.0039C37.0508 32.6523 35.7109 32.9844 34.1797 33H29.457ZM31.707 17.7891V31.1602H34.0742C35.8086 31.1602 37.1562 30.6211 38.1172 29.543C39.0859 28.4648 39.5703 26.9297 39.5703 24.9375V23.9414C39.5703 22.0039 39.1133 20.5 38.1992 19.4297C37.293 18.3516 36.0039 17.8047 34.332 17.7891H31.707ZM52.6953 33C52.5703 32.75 52.4688 32.3047 52.3906 31.6641C51.3828 32.7109 50.1797 33.2344 48.7812 33.2344C47.5312 33.2344 46.5039 32.8828 45.6992 32.1797C44.9023 31.4688 44.5039 30.5703 44.5039 29.4844C44.5039 28.1641 45.0039 27.1406 46.0039 26.4141C47.0117 25.6797 48.4258 25.3125 50.2461 25.3125H52.3555V24.3164C52.3555 23.5586 52.1289 22.957 51.6758 22.5117C51.2227 22.0586 50.5547 21.832 49.6719 21.832C48.8984 21.832 48.25 22.0273 47.7266 22.418C47.2031 22.8086 46.9414 23.2812 46.9414 23.8359H44.7617C44.7617 23.2031 44.9844 22.5938 45.4297 22.0078C45.8828 21.4141 46.4922 20.9453 47.2578 20.6016C48.0312 20.2578 48.8789 20.0859 49.8008 20.0859C51.2617 20.0859 52.4062 20.4531 53.2344 21.1875C54.0625 21.9141 54.4922 22.918 54.5234 24.1992V30.0352C54.5234 31.1992 54.6719 32.125 54.9688 32.8125V33H52.6953ZM49.0977 31.3477C49.7773 31.3477 50.4219 31.1719 51.0312 30.8203C51.6406 30.4688 52.082 30.0117 52.3555 29.4492V26.8477H50.6562C48 26.8477 46.6719 27.625 46.6719 29.1797C46.6719 29.8594 46.8984 30.3906 47.3516 30.7734C47.8047 31.1562 48.3867 31.3477 49.0977 31.3477ZM61.8828 29.8242L64.8359 20.3203H67.1562L62.0586 34.957C61.2695 37.0664 60.0156 38.1211 58.2969 38.1211L57.8867 38.0859L57.0781 37.9336V36.1758L57.6641 36.2227C58.3984 36.2227 58.9688 36.0742 59.375 35.7773C59.7891 35.4805 60.1289 34.9375 60.3945 34.1484L60.875 32.8594L56.3516 20.3203H58.7188L61.8828 29.8242Z" fill="black"/>
</g>
<defs>
<filter id="filter0_d" x="0" y="0" width="146" height="58" filterUnits="userSpaceOnUse" color-interpolation-filters="sRGB">
<feFlood flood-opacity="0" result="BackgroundImageFix"/>
<feColorMatrix in="SourceAlpha" type="matrix" values="0 0 0 0 0 0 0 0 0 0 0 0 0 0 0 0 0 0 127 0"/>
<feOffset dy="4"/>
<feGaussianBlur stdDeviation="2"/>
<feColorMatrix type="matrix" values="0 0 0 0 0 0 0 0 0 0 0 0 0 0 0 0 0 0 0.25 0"/>
<feBlend mode="normal" in2="BackgroundImageFix" result="effect1_dropShadow"/>
<feBlend mode="normal" in="SourceGraphic" in2="effect1_dropShadow" result="shape"/>
</filter>
</defs>
</svg>
