<svg width="146" height="58" viewBox="0 0 146 58" fill="none" xmlns="http://www.w3.org/2000/svg">
<g filter="url(#filter0_d)">
<rect x="4" width="138" height="50" fill="white"/>
<path d="M22.543 33H20.3633V18.5508L15.9922 20.1562V18.1875L22.2031 15.8555H22.543V33ZM42.5703 33H40.3086V25.1133H31.707V33H29.457V15.9375H31.707V23.2734H40.3086V15.9375H42.5703V33ZM45.6523 26.543C45.6523 25.3008 45.8945 24.1836 46.3789 23.1914C46.8711 22.1992 47.5508 21.4336 48.418 20.8945C49.293 20.3555 50.2891 20.0859 51.4062 20.0859C53.1328 20.0859 54.5273 20.6836 55.5898 21.8789C56.6602 23.0742 57.1953 24.6641 57.1953 26.6484V26.8008C57.1953 28.0352 56.957 29.1445 56.4805 30.1289C56.0117 31.1055 55.3359 31.8672 54.4531 32.4141C53.5781 32.9609 52.5703 33.2344 51.4297 33.2344C49.7109 33.2344 48.3164 32.6367 47.2461 31.4414C46.1836 30.2461 45.6523 28.6641 45.6523 26.6953V26.543ZM47.832 26.8008C47.832 28.207 48.1562 29.3359 48.8047 30.1875C49.4609 31.0391 50.3359 31.4648 51.4297 31.4648C52.5312 31.4648 53.4062 31.0352 54.0547 30.1758C54.7031 29.3086 55.0273 28.0977 55.0273 26.543C55.0273 25.1523 54.6953 24.0273 54.0312 23.168C53.375 22.3008 52.5 21.8672 51.4062 21.8672C50.3359 21.8672 49.4727 22.293 48.8164 23.1445C48.1602 23.9961 47.832 25.2148 47.832 26.8008ZM67.7422 31.7461C66.8984 32.7383 65.6602 33.2344 64.0273 33.2344C62.6758 33.2344 61.6445 32.8438 60.9336 32.0625C60.2305 31.2734 59.875 30.1094 59.8672 28.5703V20.3203H62.0352V28.5117C62.0352 30.4336 62.8164 31.3945 64.3789 31.3945C66.0352 31.3945 67.1367 30.7773 67.6836 29.543V20.3203H69.8516V33H67.7891L67.7422 31.7461ZM79.2852 22.2656C78.957 22.2109 78.6016 22.1836 78.2188 22.1836C76.7969 22.1836 75.832 22.7891 75.3242 24V33H73.1562V20.3203H75.2656L75.3008 21.7852C76.0117 20.6523 77.0195 20.0859 78.3242 20.0859C78.7461 20.0859 79.0664 20.1406 79.2852 20.25V22.2656ZM88.6719 29.6367C88.6719 29.0508 88.4492 28.5977 88.0039 28.2773C87.5664 27.9492 86.7969 27.668 85.6953 27.4336C84.6016 27.1992 83.7305 26.918 83.082 26.5898C82.4414 26.2617 81.9648 25.8711 81.6523 25.418C81.3477 24.9648 81.1953 24.4258 81.1953 23.8008C81.1953 22.7617 81.6328 21.8828 82.5078 21.1641C83.3906 20.4453 84.5156 20.0859 85.8828 20.0859C87.3203 20.0859 88.4844 20.457 89.375 21.1992C90.2734 21.9414 90.7227 22.8906 90.7227 24.0469H88.543C88.543 23.4531 88.2891 22.9414 87.7812 22.5117C87.2812 22.082 86.6484 21.8672 85.8828 21.8672C85.0938 21.8672 84.4766 22.0391 84.0312 22.3828C83.5859 22.7266 83.3633 23.1758 83.3633 23.7305C83.3633 24.2539 83.5703 24.6484 83.9844 24.9141C84.3984 25.1797 85.1445 25.4336 86.2227 25.6758C87.3086 25.918 88.1875 26.207 88.8594 26.543C89.5312 26.8789 90.0273 27.2852 90.3477 27.7617C90.6758 28.2305 90.8398 28.8047 90.8398 29.4844C90.8398 30.6172 90.3867 31.5273 89.4805 32.2148C88.5742 32.8945 87.3984 33.2344 85.9531 33.2344C84.9375 33.2344 84.0391 33.0547 83.2578 32.6953C82.4766 32.3359 81.8633 31.8359 81.418 31.1953C80.9805 30.5469 80.7617 29.8477 80.7617 29.0977H82.9297C82.9688 29.8242 83.2578 30.4023 83.7969 30.832C84.3438 31.2539 85.0625 31.4648 85.9531 31.4648C86.7734 31.4648 87.4297 31.3008 87.9219 30.9727C88.4219 30.6367 88.6719 30.1914 88.6719 29.6367Z" fill="black"/>
</g>
<defs>
<filter id="filter0_d" x="0" y="0" width="146" height="58" filterUnits="userSpaceOnUse" color-interpolation-filters="sRGB">
<feFlood flood-opacity="0" result="BackgroundImageFix"/>
<feColorMatrix in="SourceAlpha" type="matrix" values="0 0 0 0 0 0 0 0 0 0 0 0 0 0 0 0 0 0 127 0"/>
<feOffset dy="4"/>
<feGaussianBlur stdDeviation="2"/>
<feColorMatrix type="matrix" values="0 0 0 0 0 0 0 0 0 0 0 0 0 0 0 0 0 0 0.25 0"/>
<feBlend mode="normal" in2="BackgroundImageFix" result="effect1_dropShadow"/>
<feBlend mode="normal" in="SourceGraphic" in2="effect1_dropShadow" result="shape"/>
</filter>
</defs>
</svg>
