<svg width="146" height="58" viewBox="0 0 146 58" fill="none" xmlns="http://www.w3.org/2000/svg">
<g filter="url(#filter0_d)">
<rect x="4" width="138" height="50" fill="white"/>
<path d="M22.543 33H20.3633V18.5508L15.9922 20.1562V18.1875L22.2031 15.8555H22.543V33ZM32.3633 15.9375L37.9414 29.8594L43.5195 15.9375H46.4375V33H44.1875V26.3555L44.3984 19.1836L38.7969 33H37.0742L31.4844 19.2188L31.707 26.3555V33H29.457V15.9375H32.3633ZM49.4961 26.543C49.4961 25.3008 49.7383 24.1836 50.2227 23.1914C50.7148 22.1992 51.3945 21.4336 52.2617 20.8945C53.1367 20.3555 54.1328 20.0859 55.25 20.0859C56.9766 20.0859 58.3711 20.6836 59.4336 21.8789C60.5039 23.0742 61.0391 24.6641 61.0391 26.6484V26.8008C61.0391 28.0352 60.8008 29.1445 60.3242 30.1289C59.8555 31.1055 59.1797 31.8672 58.2969 32.4141C57.4219 32.9609 56.4141 33.2344 55.2734 33.2344C53.5547 33.2344 52.1602 32.6367 51.0898 31.4414C50.0273 30.2461 49.4961 28.6641 49.4961 26.6953V26.543ZM51.6758 26.8008C51.6758 28.207 52 29.3359 52.6484 30.1875C53.3047 31.0391 54.1797 31.4648 55.2734 31.4648C56.375 31.4648 57.25 31.0352 57.8984 30.1758C58.5469 29.3086 58.8711 28.0977 58.8711 26.543C58.8711 25.1523 58.5391 24.0273 57.875 23.168C57.2188 22.3008 56.3438 21.8672 55.25 21.8672C54.1797 21.8672 53.3164 22.293 52.6602 23.1445C52.0039 23.9961 51.6758 25.2148 51.6758 26.8008ZM65.8086 20.3203L65.8789 21.9141C66.8477 20.6953 68.1133 20.0859 69.6758 20.0859C72.3555 20.0859 73.707 21.5977 73.7305 24.6211V33H71.5625V24.6094C71.5547 23.6953 71.3438 23.0195 70.9297 22.582C70.5234 22.1445 69.8867 21.9258 69.0195 21.9258C68.3164 21.9258 67.6992 22.1133 67.168 22.4883C66.6367 22.8633 66.2227 23.3555 65.9258 23.9648V33H63.7578V20.3203H65.8086ZM79.9414 17.25V20.3203H82.3086V21.9961H79.9414V29.8594C79.9414 30.3672 80.0469 30.75 80.2578 31.0078C80.4688 31.2578 80.8281 31.3828 81.3359 31.3828C81.5859 31.3828 81.9297 31.3359 82.3672 31.2422V33C81.7969 33.1562 81.2422 33.2344 80.7031 33.2344C79.7344 33.2344 79.0039 32.9414 78.5117 32.3555C78.0195 31.7695 77.7734 30.9375 77.7734 29.8594V21.9961H75.4648V20.3203H77.7734V17.25H79.9414ZM87.0195 21.8555C87.9805 20.6758 89.2305 20.0859 90.7695 20.0859C93.4492 20.0859 94.8008 21.5977 94.8242 24.6211V33H92.6562V24.6094C92.6484 23.6953 92.4375 23.0195 92.0234 22.582C91.6172 22.1445 90.9805 21.9258 90.1133 21.9258C89.4102 21.9258 88.793 22.1133 88.2617 22.4883C87.7305 22.8633 87.3164 23.3555 87.0195 23.9648V33H84.8516V15H87.0195V21.8555Z" fill="black"/>
</g>
<defs>
<filter id="filter0_d" x="0" y="0" width="146" height="58" filterUnits="userSpaceOnUse" color-interpolation-filters="sRGB">
<feFlood flood-opacity="0" result="BackgroundImageFix"/>
<feColorMatrix in="SourceAlpha" type="matrix" values="0 0 0 0 0 0 0 0 0 0 0 0 0 0 0 0 0 0 127 0"/>
<feOffset dy="4"/>
<feGaussianBlur stdDeviation="2"/>
<feColorMatrix type="matrix" values="0 0 0 0 0 0 0 0 0 0 0 0 0 0 0 0 0 0 0.25 0"/>
<feBlend mode="normal" in2="BackgroundImageFix" result="effect1_dropShadow"/>
<feBlend mode="normal" in="SourceGraphic" in2="effect1_dropShadow" result="shape"/>
</filter>
</defs>
</svg>
