<svg width="146" height="58" viewBox="0 0 146 58" fill="none" xmlns="http://www.w3.org/2000/svg">
<g filter="url(#filter0_d)">
<rect x="4" width="138" height="50" fill="white"/>
<path d="M22.543 33H20.3633V18.5508L15.9922 20.1562V18.1875L22.2031 15.8555H22.543V33ZM33.1367 27.6211L33.4648 29.8711L33.9453 27.8438L37.3203 15.9375H39.2188L42.5117 27.8438L42.9805 29.9062L43.3438 27.6094L45.9922 15.9375H48.2539L44.1172 33H42.0664L38.5508 20.5664L38.2812 19.2656L38.0117 20.5664L34.3672 33H32.3164L28.1914 15.9375H30.4414L33.1367 27.6211ZM55.3086 33.2344C53.5898 33.2344 52.1914 32.6719 51.1133 31.5469C50.0352 30.4141 49.4961 28.9023 49.4961 27.0117V26.6133C49.4961 25.3555 49.7344 24.2344 50.2109 23.25C50.6953 22.2578 51.3672 21.4844 52.2266 20.9297C53.0938 20.3672 54.0312 20.0859 55.0391 20.0859C56.6875 20.0859 57.9688 20.6289 58.8828 21.7148C59.7969 22.8008 60.2539 24.3555 60.2539 26.3789V27.2812H51.6641C51.6953 28.5312 52.0586 29.543 52.7539 30.3164C53.457 31.082 54.3477 31.4648 55.4258 31.4648C56.1914 31.4648 56.8398 31.3086 57.3711 30.9961C57.9023 30.6836 58.3672 30.2695 58.7656 29.7539L60.0898 30.7852C59.0273 32.418 57.4336 33.2344 55.3086 33.2344ZM55.0391 21.8672C54.1641 21.8672 53.4297 22.1875 52.8359 22.8281C52.2422 23.4609 51.875 24.3516 51.7344 25.5H58.0859V25.3359C58.0234 24.2344 57.7266 23.3828 57.1953 22.7812C56.6641 22.1719 55.9453 21.8672 55.0391 21.8672ZM68.0352 33.2344C66.3164 33.2344 64.918 32.6719 63.8398 31.5469C62.7617 30.4141 62.2227 28.9023 62.2227 27.0117V26.6133C62.2227 25.3555 62.4609 24.2344 62.9375 23.25C63.4219 22.2578 64.0938 21.4844 64.9531 20.9297C65.8203 20.3672 66.7578 20.0859 67.7656 20.0859C69.4141 20.0859 70.6953 20.6289 71.6094 21.7148C72.5234 22.8008 72.9805 24.3555 72.9805 26.3789V27.2812H64.3906C64.4219 28.5312 64.7852 29.543 65.4805 30.3164C66.1836 31.082 67.0742 31.4648 68.1523 31.4648C68.918 31.4648 69.5664 31.3086 70.0977 30.9961C70.6289 30.6836 71.0938 30.2695 71.4922 29.7539L72.8164 30.7852C71.7539 32.418 70.1602 33.2344 68.0352 33.2344ZM67.7656 21.8672C66.8906 21.8672 66.1562 22.1875 65.5625 22.8281C64.9688 23.4609 64.6016 24.3516 64.4609 25.5H70.8125V25.3359C70.75 24.2344 70.4531 23.3828 69.9219 22.7812C69.3906 22.1719 68.6719 21.8672 67.7656 21.8672ZM79.0391 27.1289L77.6797 28.5469V33H75.5117V15H77.6797V25.8867L78.8398 24.4922L82.7891 20.3203H85.4258L80.4922 25.6172L86 33H83.457L79.0391 27.1289Z" fill="black"/>
</g>
<defs>
<filter id="filter0_d" x="0" y="0" width="146" height="58" filterUnits="userSpaceOnUse" color-interpolation-filters="sRGB">
<feFlood flood-opacity="0" result="BackgroundImageFix"/>
<feColorMatrix in="SourceAlpha" type="matrix" values="0 0 0 0 0 0 0 0 0 0 0 0 0 0 0 0 0 0 127 0"/>
<feOffset dy="4"/>
<feGaussianBlur stdDeviation="2"/>
<feColorMatrix type="matrix" values="0 0 0 0 0 0 0 0 0 0 0 0 0 0 0 0 0 0 0.25 0"/>
<feBlend mode="normal" in2="BackgroundImageFix" result="effect1_dropShadow"/>
<feBlend mode="normal" in="SourceGraphic" in2="effect1_dropShadow" result="shape"/>
</filter>
</defs>
</svg>
