<svg width="146" height="58" viewBox="0 0 146 58" fill="none" xmlns="http://www.w3.org/2000/svg">
<g filter="url(#filter0_d)">
<rect x="4" width="138" height="50" fill="white"/>
<path d="M24.9258 15.9258V17.7656H24.5273C22.8398 17.7969 21.4961 18.2969 20.4961 19.2656C19.4961 20.2344 18.918 21.5977 18.7617 23.3555C19.6602 22.3242 20.8867 21.8086 22.4414 21.8086C23.9258 21.8086 25.1094 22.332 25.9922 23.3789C26.8828 24.4258 27.3281 25.7773 27.3281 27.4336C27.3281 29.1914 26.8477 30.5977 25.8867 31.6523C24.9336 32.707 23.6523 33.2344 22.043 33.2344C20.4102 33.2344 19.0859 32.6094 18.0703 31.3594C17.0547 30.1016 16.5469 28.4844 16.5469 26.5078V25.6758C16.5469 22.5352 17.2148 20.1367 18.5508 18.4805C19.8945 16.8164 21.8906 15.9648 24.5391 15.9258H24.9258ZM22.0781 23.6133C21.3359 23.6133 20.6523 23.8359 20.0273 24.2812C19.4023 24.7266 18.9688 25.2852 18.7266 25.957V26.7539C18.7266 28.1602 19.043 29.293 19.6758 30.1523C20.3086 31.0117 21.0977 31.4414 22.043 31.4414C23.0195 31.4414 23.7852 31.082 24.3398 30.3633C24.9023 29.6445 25.1836 28.7031 25.1836 27.5391C25.1836 26.3672 24.8984 25.4219 24.3281 24.7031C23.7656 23.9766 23.0156 23.6133 22.0781 23.6133ZM33.3633 15.9375L38.9414 29.8594L44.5195 15.9375H47.4375V33H45.1875V26.3555L45.3984 19.1836L39.7969 33H38.0742L32.4844 19.2188L32.707 26.3555V33H30.457V15.9375H33.3633ZM50.4961 26.543C50.4961 25.3008 50.7383 24.1836 51.2227 23.1914C51.7148 22.1992 52.3945 21.4336 53.2617 20.8945C54.1367 20.3555 55.1328 20.0859 56.25 20.0859C57.9766 20.0859 59.3711 20.6836 60.4336 21.8789C61.5039 23.0742 62.0391 24.6641 62.0391 26.6484V26.8008C62.0391 28.0352 61.8008 29.1445 61.3242 30.1289C60.8555 31.1055 60.1797 31.8672 59.2969 32.4141C58.4219 32.9609 57.4141 33.2344 56.2734 33.2344C54.5547 33.2344 53.1602 32.6367 52.0898 31.4414C51.0273 30.2461 50.4961 28.6641 50.4961 26.6953V26.543ZM52.6758 26.8008C52.6758 28.207 53 29.3359 53.6484 30.1875C54.3047 31.0391 55.1797 31.4648 56.2734 31.4648C57.375 31.4648 58.25 31.0352 58.8984 30.1758C59.5469 29.3086 59.8711 28.0977 59.8711 26.543C59.8711 25.1523 59.5391 24.0273 58.875 23.168C58.2188 22.3008 57.3438 21.8672 56.25 21.8672C55.1797 21.8672 54.3164 22.293 53.6602 23.1445C53.0039 23.9961 52.6758 25.2148 52.6758 26.8008ZM66.8086 20.3203L66.8789 21.9141C67.8477 20.6953 69.1133 20.0859 70.6758 20.0859C73.3555 20.0859 74.707 21.5977 74.7305 24.6211V33H72.5625V24.6094C72.5547 23.6953 72.3438 23.0195 71.9297 22.582C71.5234 22.1445 70.8867 21.9258 70.0195 21.9258C69.3164 21.9258 68.6992 22.1133 68.168 22.4883C67.6367 22.8633 67.2227 23.3555 66.9258 23.9648V33H64.7578V20.3203H66.8086ZM80.9414 17.25V20.3203H83.3086V21.9961H80.9414V29.8594C80.9414 30.3672 81.0469 30.75 81.2578 31.0078C81.4688 31.2578 81.8281 31.3828 82.3359 31.3828C82.5859 31.3828 82.9297 31.3359 83.3672 31.2422V33C82.7969 33.1562 82.2422 33.2344 81.7031 33.2344C80.7344 33.2344 80.0039 32.9414 79.5117 32.3555C79.0195 31.7695 78.7734 30.9375 78.7734 29.8594V21.9961H76.4648V20.3203H78.7734V17.25H80.9414ZM88.0195 21.8555C88.9805 20.6758 90.2305 20.0859 91.7695 20.0859C94.4492 20.0859 95.8008 21.5977 95.8242 24.6211V33H93.6562V24.6094C93.6484 23.6953 93.4375 23.0195 93.0234 22.582C92.6172 22.1445 91.9805 21.9258 91.1133 21.9258C90.4102 21.9258 89.793 22.1133 89.2617 22.4883C88.7305 22.8633 88.3164 23.3555 88.0195 23.9648V33H85.8516V15H88.0195V21.8555ZM106.453 29.6367C106.453 29.0508 106.23 28.5977 105.785 28.2773C105.348 27.9492 104.578 27.668 103.477 27.4336C102.383 27.1992 101.512 26.918 100.863 26.5898C100.223 26.2617 99.7461 25.8711 99.4336 25.418C99.1289 24.9648 98.9766 24.4258 98.9766 23.8008C98.9766 22.7617 99.4141 21.8828 100.289 21.1641C101.172 20.4453 102.297 20.0859 103.664 20.0859C105.102 20.0859 106.266 20.457 107.156 21.1992C108.055 21.9414 108.504 22.8906 108.504 24.0469H106.324C106.324 23.4531 106.07 22.9414 105.562 22.5117C105.062 22.082 104.43 21.8672 103.664 21.8672C102.875 21.8672 102.258 22.0391 101.812 22.3828C101.367 22.7266 101.145 23.1758 101.145 23.7305C101.145 24.2539 101.352 24.6484 101.766 24.9141C102.18 25.1797 102.926 25.4336 104.004 25.6758C105.09 25.918 105.969 26.207 106.641 26.543C107.312 26.8789 107.809 27.2852 108.129 27.7617C108.457 28.2305 108.621 28.8047 108.621 29.4844C108.621 30.6172 108.168 31.5273 107.262 32.2148C106.355 32.8945 105.18 33.2344 103.734 33.2344C102.719 33.2344 101.82 33.0547 101.039 32.6953C100.258 32.3359 99.6445 31.8359 99.1992 31.1953C98.7617 30.5469 98.543 29.8477 98.543 29.0977H100.711C100.75 29.8242 101.039 30.4023 101.578 30.832C102.125 31.2539 102.844 31.4648 103.734 31.4648C104.555 31.4648 105.211 31.3008 105.703 30.9727C106.203 30.6367 106.453 30.1914 106.453 29.6367Z" fill="black"/>
</g>
<defs>
<filter id="filter0_d" x="0" y="0" width="146" height="58" filterUnits="userSpaceOnUse" color-interpolation-filters="sRGB">
<feFlood flood-opacity="0" result="BackgroundImageFix"/>
<feColorMatrix in="SourceAlpha" type="matrix" values="0 0 0 0 0 0 0 0 0 0 0 0 0 0 0 0 0 0 127 0"/>
<feOffset dy="4"/>
<feGaussianBlur stdDeviation="2"/>
<feColorMatrix type="matrix" values="0 0 0 0 0 0 0 0 0 0 0 0 0 0 0 0 0 0 0.25 0"/>
<feBlend mode="normal" in2="BackgroundImageFix" result="effect1_dropShadow"/>
<feBlend mode="normal" in="SourceGraphic" in2="effect1_dropShadow" result="shape"/>
</filter>
</defs>
</svg>
