<svg width="58" height="58" viewBox="0 0 58 58" fill="none" xmlns="http://www.w3.org/2000/svg">
<g filter="url(#filter0_d)">
<rect x="4" width="50" height="50" fill="white"/>
<path d="M23.9258 15.9258V17.7656H23.5273C21.8398 17.7969 20.4961 18.2969 19.4961 19.2656C18.4961 20.2344 17.918 21.5977 17.7617 23.3555C18.6602 22.3242 19.8867 21.8086 21.4414 21.8086C22.9258 21.8086 24.1094 22.332 24.9922 23.3789C25.8828 24.4258 26.3281 25.7773 26.3281 27.4336C26.3281 29.1914 25.8477 30.5977 24.8867 31.6523C23.9336 32.707 22.6523 33.2344 21.043 33.2344C19.4102 33.2344 18.0859 32.6094 17.0703 31.3594C16.0547 30.1016 15.5469 28.4844 15.5469 26.5078V25.6758C15.5469 22.5352 16.2148 20.1367 17.5508 18.4805C18.8945 16.8164 20.8906 15.9648 23.5391 15.9258H23.9258ZM21.0781 23.6133C20.3359 23.6133 19.6523 23.8359 19.0273 24.2812C18.4023 24.7266 17.9688 25.2852 17.7266 25.957V26.7539C17.7266 28.1602 18.043 29.293 18.6758 30.1523C19.3086 31.0117 20.0977 31.4414 21.043 31.4414C22.0195 31.4414 22.7852 31.082 23.3398 30.3633C23.9023 29.6445 24.1836 28.7031 24.1836 27.5391C24.1836 26.3672 23.8984 25.4219 23.3281 24.7031C22.7656 23.9766 22.0156 23.6133 21.0781 23.6133ZM34.6602 24.5039L39.1133 15.9375H41.668L35.7852 26.6367V33H33.5352V26.6367L27.6523 15.9375H30.2305L34.6602 24.5039Z" fill="black"/>
</g>
<defs>
<filter id="filter0_d" x="0" y="0" width="58" height="58" filterUnits="userSpaceOnUse" color-interpolation-filters="sRGB">
<feFlood flood-opacity="0" result="BackgroundImageFix"/>
<feColorMatrix in="SourceAlpha" type="matrix" values="0 0 0 0 0 0 0 0 0 0 0 0 0 0 0 0 0 0 127 0"/>
<feOffset dy="4"/>
<feGaussianBlur stdDeviation="2"/>
<feColorMatrix type="matrix" values="0 0 0 0 0 0 0 0 0 0 0 0 0 0 0 0 0 0 0.25 0"/>
<feBlend mode="normal" in2="BackgroundImageFix" result="effect1_dropShadow"/>
<feBlend mode="normal" in="SourceGraphic" in2="effect1_dropShadow" result="shape"/>
</filter>
</defs>
</svg>
