<svg width="146" height="58" viewBox="0 0 146 58" fill="none" xmlns="http://www.w3.org/2000/svg">
<g filter="url(#filter0_d)">
<rect x="4" width="138" height="50" fill="white"/>
<path d="M23.9258 15.9258V17.7656H23.5273C21.8398 17.7969 20.4961 18.2969 19.4961 19.2656C18.4961 20.2344 17.918 21.5977 17.7617 23.3555C18.6602 22.3242 19.8867 21.8086 21.4414 21.8086C22.9258 21.8086 24.1094 22.332 24.9922 23.3789C25.8828 24.4258 26.3281 25.7773 26.3281 27.4336C26.3281 29.1914 25.8477 30.5977 24.8867 31.6523C23.9336 32.707 22.6523 33.2344 21.043 33.2344C19.4102 33.2344 18.0859 32.6094 17.0703 31.3594C16.0547 30.1016 15.5469 28.4844 15.5469 26.5078V25.6758C15.5469 22.5352 16.2148 20.1367 17.5508 18.4805C18.8945 16.8164 20.8906 15.9648 23.5391 15.9258H23.9258ZM21.0781 23.6133C20.3359 23.6133 19.6523 23.8359 19.0273 24.2812C18.4023 24.7266 17.9688 25.2852 17.7266 25.957V26.7539C17.7266 28.1602 18.043 29.293 18.6758 30.1523C19.3086 31.0117 20.0977 31.4414 21.043 31.4414C22.0195 31.4414 22.7852 31.082 23.3398 30.3633C23.9023 29.6445 24.1836 28.7031 24.1836 27.5391C24.1836 26.3672 23.8984 25.4219 23.3281 24.7031C22.7656 23.9766 22.0156 23.6133 21.0781 23.6133ZM34.6602 24.5039L39.1133 15.9375H41.668L35.7852 26.6367V33H33.5352V26.6367L27.6523 15.9375H30.2305L34.6602 24.5039ZM48.0195 33.2344C46.3008 33.2344 44.9023 32.6719 43.8242 31.5469C42.7461 30.4141 42.207 28.9023 42.207 27.0117V26.6133C42.207 25.3555 42.4453 24.2344 42.9219 23.25C43.4062 22.2578 44.0781 21.4844 44.9375 20.9297C45.8047 20.3672 46.7422 20.0859 47.75 20.0859C49.3984 20.0859 50.6797 20.6289 51.5938 21.7148C52.5078 22.8008 52.9648 24.3555 52.9648 26.3789V27.2812H44.375C44.4062 28.5312 44.7695 29.543 45.4648 30.3164C46.168 31.082 47.0586 31.4648 48.1367 31.4648C48.9023 31.4648 49.5508 31.3086 50.082 30.9961C50.6133 30.6836 51.0781 30.2695 51.4766 29.7539L52.8008 30.7852C51.7383 32.418 50.1445 33.2344 48.0195 33.2344ZM47.75 21.8672C46.875 21.8672 46.1406 22.1875 45.5469 22.8281C44.9531 23.4609 44.5859 24.3516 44.4453 25.5H50.7969V25.3359C50.7344 24.2344 50.4375 23.3828 49.9062 22.7812C49.375 22.1719 48.6562 21.8672 47.75 21.8672ZM63.3125 33C63.1875 32.75 63.0859 32.3047 63.0078 31.6641C62 32.7109 60.7969 33.2344 59.3984 33.2344C58.1484 33.2344 57.1211 32.8828 56.3164 32.1797C55.5195 31.4688 55.1211 30.5703 55.1211 29.4844C55.1211 28.1641 55.6211 27.1406 56.6211 26.4141C57.6289 25.6797 59.043 25.3125 60.8633 25.3125H62.9727V24.3164C62.9727 23.5586 62.7461 22.957 62.293 22.5117C61.8398 22.0586 61.1719 21.832 60.2891 21.832C59.5156 21.832 58.8672 22.0273 58.3438 22.418C57.8203 22.8086 57.5586 23.2812 57.5586 23.8359H55.3789C55.3789 23.2031 55.6016 22.5938 56.0469 22.0078C56.5 21.4141 57.1094 20.9453 57.875 20.6016C58.6484 20.2578 59.4961 20.0859 60.418 20.0859C61.8789 20.0859 63.0234 20.4531 63.8516 21.1875C64.6797 21.9141 65.1094 22.918 65.1406 24.1992V30.0352C65.1406 31.1992 65.2891 32.125 65.5859 32.8125V33H63.3125ZM59.7148 31.3477C60.3945 31.3477 61.0391 31.1719 61.6484 30.8203C62.2578 30.4688 62.6992 30.0117 62.9727 29.4492V26.8477H61.2734C58.6172 26.8477 57.2891 27.625 57.2891 29.1797C57.2891 29.8594 57.5156 30.3906 57.9688 30.7734C58.4219 31.1562 59.0039 31.3477 59.7148 31.3477ZM74.668 22.2656C74.3398 22.2109 73.9844 22.1836 73.6016 22.1836C72.1797 22.1836 71.2148 22.7891 70.707 24V33H68.5391V20.3203H70.6484L70.6836 21.7852C71.3945 20.6523 72.4023 20.0859 73.707 20.0859C74.1289 20.0859 74.4492 20.1406 74.668 20.25V22.2656Z" fill="black"/>
</g>
<defs>
<filter id="filter0_d" x="0" y="0" width="146" height="58" filterUnits="userSpaceOnUse" color-interpolation-filters="sRGB">
<feFlood flood-opacity="0" result="BackgroundImageFix"/>
<feColorMatrix in="SourceAlpha" type="matrix" values="0 0 0 0 0 0 0 0 0 0 0 0 0 0 0 0 0 0 127 0"/>
<feOffset dy="4"/>
<feGaussianBlur stdDeviation="2"/>
<feColorMatrix type="matrix" values="0 0 0 0 0 0 0 0 0 0 0 0 0 0 0 0 0 0 0.25 0"/>
<feBlend mode="normal" in2="BackgroundImageFix" result="effect1_dropShadow"/>
<feBlend mode="normal" in="SourceGraphic" in2="effect1_dropShadow" result="shape"/>
</filter>
</defs>
</svg>
