<svg width="146" height="58" viewBox="0 0 146 58" fill="none" xmlns="http://www.w3.org/2000/svg">
<g filter="url(#filter0_d)">
<rect x="4" width="138" height="50" fill="white"/>
<path d="M24.4521 27.918H17.8994L16.4277 32H14.3008L20.2734 16.3594H22.0781L28.0615 32H25.9453L24.4521 27.918ZM18.5225 26.2207H23.8398L21.1758 18.9053L18.5225 26.2207ZM32.0146 32H30.0273V15.5H32.0146V32ZM37.3643 32H35.377V15.5H37.3643V32ZM56.7002 18.0566H51.6729V32H49.6211V18.0566H44.6045V16.3594H56.7002V18.0566ZM60.8682 32H58.8809V20.377H60.8682V32ZM58.7197 17.2939C58.7197 16.9717 58.8164 16.6995 59.0098 16.4775C59.2103 16.2555 59.5039 16.1445 59.8906 16.1445C60.2773 16.1445 60.571 16.2555 60.7715 16.4775C60.972 16.6995 61.0723 16.9717 61.0723 17.2939C61.0723 17.6162 60.972 17.8848 60.7715 18.0996C60.571 18.3145 60.2773 18.4219 59.8906 18.4219C59.5039 18.4219 59.2103 18.3145 59.0098 18.0996C58.8164 17.8848 58.7197 17.6162 58.7197 17.2939ZM65.9277 20.377L65.9814 21.666C66.8337 20.6634 67.9831 20.1621 69.4297 20.1621C71.0553 20.1621 72.1618 20.7852 72.749 22.0312C73.1357 21.4727 73.637 21.0215 74.2529 20.6777C74.876 20.334 75.61 20.1621 76.4551 20.1621C79.0046 20.1621 80.3008 21.512 80.3438 24.2119V32H78.3564V24.3301C78.3564 23.4993 78.1667 22.8799 77.7871 22.4717C77.4076 22.0563 76.7702 21.8486 75.875 21.8486C75.1374 21.8486 74.5251 22.0706 74.0381 22.5146C73.5511 22.9515 73.2682 23.5423 73.1895 24.2871V32H71.1914V24.3838C71.1914 22.6937 70.3643 21.8486 68.71 21.8486C67.4066 21.8486 66.515 22.4036 66.0352 23.5137V32H64.0479V20.377H65.9277ZM88.1748 32.2148C86.5993 32.2148 85.3174 31.6992 84.3291 30.668C83.3408 29.6296 82.8467 28.2438 82.8467 26.5107V26.1455C82.8467 24.9925 83.0651 23.9648 83.502 23.0625C83.946 22.153 84.5618 21.444 85.3496 20.9355C86.1445 20.4199 87.0039 20.1621 87.9277 20.1621C89.4388 20.1621 90.6133 20.6598 91.4512 21.6553C92.2891 22.6507 92.708 24.0758 92.708 25.9307V26.7578H84.834C84.8626 27.9036 85.1956 28.8311 85.833 29.54C86.4775 30.2419 87.2939 30.5928 88.2822 30.5928C88.984 30.5928 89.5785 30.4495 90.0654 30.1631C90.5524 29.8766 90.9785 29.4971 91.3438 29.0244L92.5576 29.9697C91.5837 31.4665 90.1227 32.2148 88.1748 32.2148ZM87.9277 21.7949C87.1257 21.7949 86.4525 22.0885 85.9082 22.6758C85.3639 23.2559 85.0273 24.0723 84.8984 25.125H90.7207V24.9746C90.6634 23.9648 90.3913 23.1842 89.9043 22.6328C89.4173 22.0742 88.7585 21.7949 87.9277 21.7949Z" fill="black"/>
</g>
<defs>
<filter id="filter0_d" x="0" y="0" width="146" height="58" filterUnits="userSpaceOnUse" color-interpolation-filters="sRGB">
<feFlood flood-opacity="0" result="BackgroundImageFix"/>
<feColorMatrix in="SourceAlpha" type="matrix" values="0 0 0 0 0 0 0 0 0 0 0 0 0 0 0 0 0 0 127 0"/>
<feOffset dy="4"/>
<feGaussianBlur stdDeviation="2"/>
<feColorMatrix type="matrix" values="0 0 0 0 0 0 0 0 0 0 0 0 0 0 0 0 0 0 0.25 0"/>
<feBlend mode="normal" in2="BackgroundImageFix" result="effect1_dropShadow"/>
<feBlend mode="normal" in="SourceGraphic" in2="effect1_dropShadow" result="shape"/>
</filter>
</defs>
</svg>
