<svg width="206" height="58" viewBox="0 0 206 58" fill="none" xmlns="http://www.w3.org/2000/svg">
<g filter="url(#filter0_d)">
<rect x="4" width="198" height="50" fill="white"/>
<path opacity="0.3" d="M40.4189 22.1137L36.0431 22.3987L29.9759 29.5967L25.8804 25.506L19.1052 29.4542V35.1033H46.9138V17.7379L40.4189 22.1137Z" fill="black"/>
<path d="M29.9759 29.1739C22.5641 39.7247 26.27 34.4493 29.9759 29.1739V29.1739ZM44.657 16.0464L41.2694 20.5648H36.4707L30.1137 28.1857L25.7378 22.8216L23.9039 24.7981L19.1052 29.459L21.0817 31.4355L25.6001 26.9171L29.9759 32.2812L37.7393 23.387H42.6805L46.9138 17.7379L44.657 16.0464Z" fill="black"/>
<path d="M67.6016 25.0312H62.8359L61.7656 28H60.2188L64.5625 16.625H65.875L70.2266 28H68.6875L67.6016 25.0312ZM63.2891 23.7969H67.1562L65.2188 18.4766L63.2891 23.7969ZM75.6172 20.8438C75.3984 20.8073 75.1615 20.7891 74.9062 20.7891C73.9583 20.7891 73.3151 21.1927 72.9766 22V28H71.5312V19.5469H72.9375L72.9609 20.5234C73.4349 19.7682 74.1068 19.3906 74.9766 19.3906C75.2578 19.3906 75.4714 19.4271 75.6172 19.5V20.8438ZM80.3047 28.1562C79.1589 28.1562 78.2266 27.7812 77.5078 27.0312C76.7891 26.276 76.4297 25.2682 76.4297 24.0078V23.7422C76.4297 22.9036 76.5885 22.1562 76.9062 21.5C77.2292 20.8385 77.6771 20.3229 78.25 19.9531C78.8281 19.5781 79.4531 19.3906 80.125 19.3906C81.224 19.3906 82.0781 19.7526 82.6875 20.4766C83.2969 21.2005 83.6016 22.237 83.6016 23.5859V24.1875H77.875C77.8958 25.0208 78.138 25.6953 78.6016 26.2109C79.0703 26.7214 79.6641 26.9766 80.3828 26.9766C80.8932 26.9766 81.3255 26.8724 81.6797 26.6641C82.0339 26.4557 82.3438 26.1797 82.6094 25.8359L83.4922 26.5234C82.7839 27.612 81.7214 28.1562 80.3047 28.1562ZM80.125 20.5781C79.5417 20.5781 79.0521 20.7917 78.6562 21.2188C78.2604 21.6406 78.0156 22.2344 77.9219 23H82.1562V22.8906C82.1146 22.1562 81.9167 21.5885 81.5625 21.1875C81.2083 20.7812 80.7292 20.5781 80.125 20.5781ZM90.5 28C90.4167 27.8333 90.349 27.5365 90.2969 27.1094C89.625 27.8073 88.8229 28.1562 87.8906 28.1562C87.0573 28.1562 86.3724 27.9219 85.8359 27.4531C85.3047 26.9792 85.0391 26.3802 85.0391 25.6562C85.0391 24.776 85.3724 24.0938 86.0391 23.6094C86.7109 23.1198 87.6536 22.875 88.8672 22.875H90.2734V22.2109C90.2734 21.7057 90.1224 21.3047 89.8203 21.0078C89.5182 20.7057 89.0729 20.5547 88.4844 20.5547C87.9688 20.5547 87.5365 20.6849 87.1875 20.9453C86.8385 21.2057 86.6641 21.5208 86.6641 21.8906H85.2109C85.2109 21.4688 85.3594 21.0625 85.6562 20.6719C85.9583 20.276 86.3646 19.9635 86.875 19.7344C87.3906 19.5052 87.9557 19.3906 88.5703 19.3906C89.5443 19.3906 90.3073 19.6354 90.8594 20.125C91.4115 20.6094 91.6979 21.2786 91.7188 22.1328V26.0234C91.7188 26.7995 91.8177 27.4167 92.0156 27.875V28H90.5ZM88.1016 26.8984C88.5547 26.8984 88.9844 26.7812 89.3906 26.5469C89.7969 26.3125 90.0911 26.0078 90.2734 25.6328V23.8984H89.1406C87.3698 23.8984 86.4844 24.4167 86.4844 25.4531C86.4844 25.9062 86.6354 26.2604 86.9375 26.5156C87.2396 26.7708 87.6276 26.8984 88.1016 26.8984Z" fill="black"/>
</g>
<defs>
<filter id="filter0_d" x="0" y="0" width="206" height="58" filterUnits="userSpaceOnUse" color-interpolation-filters="sRGB">
<feFlood flood-opacity="0" result="BackgroundImageFix"/>
<feColorMatrix in="SourceAlpha" type="matrix" values="0 0 0 0 0 0 0 0 0 0 0 0 0 0 0 0 0 0 127 0"/>
<feOffset dy="4"/>
<feGaussianBlur stdDeviation="2"/>
<feColorMatrix type="matrix" values="0 0 0 0 0 0 0 0 0 0 0 0 0 0 0 0 0 0 0.25 0"/>
<feBlend mode="normal" in2="BackgroundImageFix" result="effect1_dropShadow"/>
<feBlend mode="normal" in="SourceGraphic" in2="effect1_dropShadow" result="shape"/>
</filter>
</defs>
</svg>
