<svg width="206" height="58" viewBox="0 0 206 58" fill="none" xmlns="http://www.w3.org/2000/svg">
<g filter="url(#filter0_d)">
<rect x="4" width="198" height="50" fill="white"/>
<path d="M37.6153 11.1538V21.9231H33V25H37.6153V35.7692H40.6923V32.6923H45.3077V29.6154H40.6923V11.1538H37.6153ZM23.7692 14.2308V32.6923H19.1538V35.7692H23.7692V38.8461H26.8461V20.3846H31.4615V17.3077H26.8461V14.2308H23.7692Z" fill="black"/>
<path d="M61.3203 28V16.625H65.0391C66.2734 16.625 67.2005 16.8802 67.8203 17.3906C68.4453 17.901 68.7578 18.6562 68.7578 19.6562C68.7578 20.1875 68.6068 20.6589 68.3047 21.0703C68.0026 21.4766 67.5911 21.7917 67.0703 22.0156C67.6849 22.1875 68.1693 22.5156 68.5234 23C68.8828 23.4792 69.0625 24.0521 69.0625 24.7188C69.0625 25.7396 68.7318 26.5417 68.0703 27.125C67.4089 27.7083 66.474 28 65.2656 28H61.3203ZM62.8203 22.6797V26.7734H65.2969C65.9948 26.7734 66.5443 26.5938 66.9453 26.2344C67.3516 25.8698 67.5547 25.3698 67.5547 24.7344C67.5547 23.3646 66.8099 22.6797 65.3203 22.6797H62.8203ZM62.8203 21.4766H65.0859C65.7422 21.4766 66.2656 21.3125 66.6562 20.9844C67.0521 20.6562 67.25 20.2109 67.25 19.6484C67.25 19.0234 67.0677 18.5703 66.7031 18.2891C66.3385 18.0026 65.7839 17.8594 65.0391 17.8594H62.8203V21.4766ZM76.2812 28C76.1979 27.8333 76.1302 27.5365 76.0781 27.1094C75.4062 27.8073 74.6042 28.1562 73.6719 28.1562C72.8385 28.1562 72.1536 27.9219 71.6172 27.4531C71.0859 26.9792 70.8203 26.3802 70.8203 25.6562C70.8203 24.776 71.1536 24.0938 71.8203 23.6094C72.4922 23.1198 73.4349 22.875 74.6484 22.875H76.0547V22.2109C76.0547 21.7057 75.9036 21.3047 75.6016 21.0078C75.2995 20.7057 74.8542 20.5547 74.2656 20.5547C73.75 20.5547 73.3177 20.6849 72.9688 20.9453C72.6198 21.2057 72.4453 21.5208 72.4453 21.8906H70.9922C70.9922 21.4688 71.1406 21.0625 71.4375 20.6719C71.7396 20.276 72.1458 19.9635 72.6562 19.7344C73.1719 19.5052 73.737 19.3906 74.3516 19.3906C75.3255 19.3906 76.0885 19.6354 76.6406 20.125C77.1927 20.6094 77.4792 21.2786 77.5 22.1328V26.0234C77.5 26.7995 77.599 27.4167 77.7969 27.875V28H76.2812ZM73.8828 26.8984C74.3359 26.8984 74.7656 26.7812 75.1719 26.5469C75.5781 26.3125 75.8724 26.0078 76.0547 25.6328V23.8984H74.9219C73.151 23.8984 72.2656 24.4167 72.2656 25.4531C72.2656 25.9062 72.4167 26.2604 72.7188 26.5156C73.0208 26.7708 73.4089 26.8984 73.8828 26.8984ZM83.8516 20.8438C83.6328 20.8073 83.3958 20.7891 83.1406 20.7891C82.1927 20.7891 81.5495 21.1927 81.2109 22V28H79.7656V19.5469H81.1719L81.1953 20.5234C81.6693 19.7682 82.3411 19.3906 83.2109 19.3906C83.4922 19.3906 83.7057 19.4271 83.8516 19.5V20.8438Z" fill="black"/>
</g>
<defs>
<filter id="filter0_d" x="0" y="0" width="206" height="58" filterUnits="userSpaceOnUse" color-interpolation-filters="sRGB">
<feFlood flood-opacity="0" result="BackgroundImageFix"/>
<feColorMatrix in="SourceAlpha" type="matrix" values="0 0 0 0 0 0 0 0 0 0 0 0 0 0 0 0 0 0 127 0"/>
<feOffset dy="4"/>
<feGaussianBlur stdDeviation="2"/>
<feColorMatrix type="matrix" values="0 0 0 0 0 0 0 0 0 0 0 0 0 0 0 0 0 0 0.25 0"/>
<feBlend mode="normal" in2="BackgroundImageFix" result="effect1_dropShadow"/>
<feBlend mode="normal" in="SourceGraphic" in2="effect1_dropShadow" result="shape"/>
</filter>
</defs>
</svg>
