<svg width="206" height="58" viewBox="0 0 206 58" fill="none" xmlns="http://www.w3.org/2000/svg">
<g filter="url(#filter0_d)">
<rect x="4" width="198" height="50" fill="white"/>
<path d="M18.7144 25.7143H50.1429" stroke="black" stroke-width="0.928571" stroke-dasharray="0.93 0.93"/>
<path d="M23.7144 22.8571L26.5715 17.1428L28.0001 20L30.8572 14.2857L35.1429 22.8571" stroke="black" stroke-width="0.928571" stroke-linecap="round" stroke-linejoin="round"/>
<path d="M20.8573 28.5714L19.4287 31.4286" stroke="black" stroke-width="0.928571" stroke-linecap="round"/>
<path d="M38 28.5714L40.8571 34.2857L43.7143 28.5714H38ZM46.5714 22.8571L48 20L46.5714 22.8571Z" stroke="black" stroke-width="0.928571" stroke-linecap="round" stroke-linejoin="round"/>
<path d="M61.3203 28V16.625H65.0391C66.2734 16.625 67.2005 16.8802 67.8203 17.3906C68.4453 17.901 68.7578 18.6562 68.7578 19.6562C68.7578 20.1875 68.6068 20.6589 68.3047 21.0703C68.0026 21.4766 67.5911 21.7917 67.0703 22.0156C67.6849 22.1875 68.1693 22.5156 68.5234 23C68.8828 23.4792 69.0625 24.0521 69.0625 24.7188C69.0625 25.7396 68.7318 26.5417 68.0703 27.125C67.4089 27.7083 66.474 28 65.2656 28H61.3203ZM62.8203 22.6797V26.7734H65.2969C65.9948 26.7734 66.5443 26.5938 66.9453 26.2344C67.3516 25.8698 67.5547 25.3698 67.5547 24.7344C67.5547 23.3646 66.8099 22.6797 65.3203 22.6797H62.8203ZM62.8203 21.4766H65.0859C65.7422 21.4766 66.2656 21.3125 66.6562 20.9844C67.0521 20.6562 67.25 20.2109 67.25 19.6484C67.25 19.0234 67.0677 18.5703 66.7031 18.2891C66.3385 18.0026 65.7839 17.8594 65.0391 17.8594H62.8203V21.4766ZM76.2812 28C76.1979 27.8333 76.1302 27.5365 76.0781 27.1094C75.4062 27.8073 74.6042 28.1562 73.6719 28.1562C72.8385 28.1562 72.1536 27.9219 71.6172 27.4531C71.0859 26.9792 70.8203 26.3802 70.8203 25.6562C70.8203 24.776 71.1536 24.0938 71.8203 23.6094C72.4922 23.1198 73.4349 22.875 74.6484 22.875H76.0547V22.2109C76.0547 21.7057 75.9036 21.3047 75.6016 21.0078C75.2995 20.7057 74.8542 20.5547 74.2656 20.5547C73.75 20.5547 73.3177 20.6849 72.9688 20.9453C72.6198 21.2057 72.4453 21.5208 72.4453 21.8906H70.9922C70.9922 21.4688 71.1406 21.0625 71.4375 20.6719C71.7396 20.276 72.1458 19.9635 72.6562 19.7344C73.1719 19.5052 73.737 19.3906 74.3516 19.3906C75.3255 19.3906 76.0885 19.6354 76.6406 20.125C77.1927 20.6094 77.4792 21.2786 77.5 22.1328V26.0234C77.5 26.7995 77.599 27.4167 77.7969 27.875V28H76.2812ZM73.8828 26.8984C74.3359 26.8984 74.7656 26.7812 75.1719 26.5469C75.5781 26.3125 75.8724 26.0078 76.0547 25.6328V23.8984H74.9219C73.151 23.8984 72.2656 24.4167 72.2656 25.4531C72.2656 25.9062 72.4167 26.2604 72.7188 26.5156C73.0208 26.7708 73.4089 26.8984 73.8828 26.8984ZM84.6875 25.7578C84.6875 25.3672 84.5391 25.0651 84.2422 24.8516C83.9505 24.6328 83.4375 24.4453 82.7031 24.2891C81.974 24.1328 81.3932 23.9453 80.9609 23.7266C80.5339 23.5078 80.2161 23.2474 80.0078 22.9453C79.8047 22.6432 79.7031 22.2839 79.7031 21.8672C79.7031 21.1745 79.9948 20.5885 80.5781 20.1094C81.1667 19.6302 81.9167 19.3906 82.8281 19.3906C83.7865 19.3906 84.5625 19.638 85.1562 20.1328C85.7552 20.6276 86.0547 21.2604 86.0547 22.0312H84.6016C84.6016 21.6354 84.4323 21.2943 84.0938 21.0078C83.7604 20.7214 83.3385 20.5781 82.8281 20.5781C82.3021 20.5781 81.8906 20.6927 81.5938 20.9219C81.2969 21.151 81.1484 21.4505 81.1484 21.8203C81.1484 22.1693 81.2865 22.4323 81.5625 22.6094C81.8385 22.7865 82.3359 22.9557 83.0547 23.1172C83.7786 23.2786 84.3646 23.4714 84.8125 23.6953C85.2604 23.9193 85.5911 24.1901 85.8047 24.5078C86.0234 24.8203 86.1328 25.2031 86.1328 25.6562C86.1328 26.4115 85.8307 27.0182 85.2266 27.4766C84.6224 27.9297 83.8385 28.1562 82.875 28.1562C82.1979 28.1562 81.599 28.0365 81.0781 27.7969C80.5573 27.5573 80.1484 27.224 79.8516 26.7969C79.5599 26.3646 79.4141 25.8984 79.4141 25.3984H80.8594C80.8854 25.8828 81.0781 26.2682 81.4375 26.5547C81.8021 26.8359 82.2812 26.9766 82.875 26.9766C83.4219 26.9766 83.8594 26.8672 84.1875 26.6484C84.5208 26.4245 84.6875 26.1276 84.6875 25.7578ZM91.5234 28.1562C90.3776 28.1562 89.4453 27.7812 88.7266 27.0312C88.0078 26.276 87.6484 25.2682 87.6484 24.0078V23.7422C87.6484 22.9036 87.8073 22.1562 88.125 21.5C88.4479 20.8385 88.8958 20.3229 89.4688 19.9531C90.0469 19.5781 90.6719 19.3906 91.3438 19.3906C92.4427 19.3906 93.2969 19.7526 93.9062 20.4766C94.5156 21.2005 94.8203 22.237 94.8203 23.5859V24.1875H89.0938C89.1146 25.0208 89.3568 25.6953 89.8203 26.2109C90.2891 26.7214 90.8828 26.9766 91.6016 26.9766C92.112 26.9766 92.5443 26.8724 92.8984 26.6641C93.2526 26.4557 93.5625 26.1797 93.8281 25.8359L94.7109 26.5234C94.0026 27.612 92.9401 28.1562 91.5234 28.1562ZM91.3438 20.5781C90.7604 20.5781 90.2708 20.7917 89.875 21.2188C89.4792 21.6406 89.2344 22.2344 89.1406 23H93.375V22.8906C93.3333 22.1562 93.1354 21.5885 92.7812 21.1875C92.4271 20.7812 91.9479 20.5781 91.3438 20.5781ZM98.0703 28H96.625V16H98.0703V28ZM101.961 28H100.516V19.5469H101.961V28ZM100.398 17.3047C100.398 17.0703 100.469 16.8724 100.609 16.7109C100.755 16.5495 100.969 16.4688 101.25 16.4688C101.531 16.4688 101.745 16.5495 101.891 16.7109C102.036 16.8724 102.109 17.0703 102.109 17.3047C102.109 17.5391 102.036 17.7344 101.891 17.8906C101.745 18.0469 101.531 18.125 101.25 18.125C100.969 18.125 100.755 18.0469 100.609 17.8906C100.469 17.7344 100.398 17.5391 100.398 17.3047ZM105.648 19.5469L105.695 20.6094C106.341 19.7969 107.185 19.3906 108.227 19.3906C110.013 19.3906 110.914 20.3984 110.93 22.4141V28H109.484V22.4062C109.479 21.7969 109.339 21.3464 109.062 21.0547C108.792 20.763 108.367 20.6172 107.789 20.6172C107.32 20.6172 106.909 20.7422 106.555 20.9922C106.201 21.2422 105.924 21.5703 105.727 21.9766V28H104.281V19.5469H105.648ZM116.617 28.1562C115.471 28.1562 114.539 27.7812 113.82 27.0312C113.102 26.276 112.742 25.2682 112.742 24.0078V23.7422C112.742 22.9036 112.901 22.1562 113.219 21.5C113.542 20.8385 113.99 20.3229 114.562 19.9531C115.141 19.5781 115.766 19.3906 116.438 19.3906C117.536 19.3906 118.391 19.7526 119 20.4766C119.609 21.2005 119.914 22.237 119.914 23.5859V24.1875H114.188C114.208 25.0208 114.451 25.6953 114.914 26.2109C115.383 26.7214 115.977 26.9766 116.695 26.9766C117.206 26.9766 117.638 26.8724 117.992 26.6641C118.346 26.4557 118.656 26.1797 118.922 25.8359L119.805 26.5234C119.096 27.612 118.034 28.1562 116.617 28.1562ZM116.438 20.5781C115.854 20.5781 115.365 20.7917 114.969 21.2188C114.573 21.6406 114.328 22.2344 114.234 23H118.469V22.8906C118.427 22.1562 118.229 21.5885 117.875 21.1875C117.521 20.7812 117.042 20.5781 116.438 20.5781Z" fill="black"/>
</g>
<defs>
<filter id="filter0_d" x="0" y="0" width="206" height="58" filterUnits="userSpaceOnUse" color-interpolation-filters="sRGB">
<feFlood flood-opacity="0" result="BackgroundImageFix"/>
<feColorMatrix in="SourceAlpha" type="matrix" values="0 0 0 0 0 0 0 0 0 0 0 0 0 0 0 0 0 0 127 0"/>
<feOffset dy="4"/>
<feGaussianBlur stdDeviation="2"/>
<feColorMatrix type="matrix" values="0 0 0 0 0 0 0 0 0 0 0 0 0 0 0 0 0 0 0.25 0"/>
<feBlend mode="normal" in2="BackgroundImageFix" result="effect1_dropShadow"/>
<feBlend mode="normal" in="SourceGraphic" in2="effect1_dropShadow" result="shape"/>
</filter>
</defs>
</svg>
