<svg width="206" height="58" viewBox="0 0 206 58" fill="none" xmlns="http://www.w3.org/2000/svg">
<g filter="url(#filter0_d)">
<rect x="4" width="198" height="50" fill="white"/>
<path d="M37.6154 9.61539V14.2308H34.5385V32.6923H37.6154V40.3846H39.1539V32.6923H42.2308V14.2308H39.1539V9.61539H37.6154ZM26.8462 11.1538V18.8462H23.7693V35.7692H26.8462V40.3846H28.3847V35.7692H31.4616V18.8462H28.3847V11.1538H26.8462ZM25.3077 20.3846H29.9231V34.2308H25.3077V20.3846Z" fill="black"/>
<path d="M69.6875 24.3906C69.5469 25.5938 69.1016 26.5234 68.3516 27.1797C67.6068 27.8307 66.6146 28.1562 65.375 28.1562C64.0312 28.1562 62.9531 27.6745 62.1406 26.7109C61.3333 25.7474 60.9297 24.4583 60.9297 22.8438V21.75C60.9297 20.6927 61.1172 19.763 61.4922 18.9609C61.8724 18.1589 62.4089 17.5443 63.1016 17.1172C63.7943 16.6849 64.5964 16.4688 65.5078 16.4688C66.7161 16.4688 67.6849 16.8073 68.4141 17.4844C69.1432 18.1562 69.5677 19.0885 69.6875 20.2812H68.1797C68.0495 19.375 67.7656 18.7188 67.3281 18.3125C66.8958 17.9062 66.2891 17.7031 65.5078 17.7031C64.5495 17.7031 63.7969 18.0573 63.25 18.7656C62.7083 19.474 62.4375 20.4818 62.4375 21.7891V22.8906C62.4375 24.125 62.6953 25.1068 63.2109 25.8359C63.7266 26.5651 64.4479 26.9297 65.375 26.9297C66.2083 26.9297 66.8464 26.7422 67.2891 26.3672C67.737 25.987 68.0339 25.3281 68.1797 24.3906H69.6875ZM76.7344 28C76.651 27.8333 76.5833 27.5365 76.5312 27.1094C75.8594 27.8073 75.0573 28.1562 74.125 28.1562C73.2917 28.1562 72.6068 27.9219 72.0703 27.4531C71.5391 26.9792 71.2734 26.3802 71.2734 25.6562C71.2734 24.776 71.6068 24.0938 72.2734 23.6094C72.9453 23.1198 73.888 22.875 75.1016 22.875H76.5078V22.2109C76.5078 21.7057 76.3568 21.3047 76.0547 21.0078C75.7526 20.7057 75.3073 20.5547 74.7188 20.5547C74.2031 20.5547 73.7708 20.6849 73.4219 20.9453C73.0729 21.2057 72.8984 21.5208 72.8984 21.8906H71.4453C71.4453 21.4688 71.5938 21.0625 71.8906 20.6719C72.1927 20.276 72.599 19.9635 73.1094 19.7344C73.625 19.5052 74.1901 19.3906 74.8047 19.3906C75.7786 19.3906 76.5417 19.6354 77.0938 20.125C77.6458 20.6094 77.9323 21.2786 77.9531 22.1328V26.0234C77.9531 26.7995 78.0521 27.4167 78.25 27.875V28H76.7344ZM74.3359 26.8984C74.7891 26.8984 75.2188 26.7812 75.625 26.5469C76.0312 26.3125 76.3255 26.0078 76.5078 25.6328V23.8984H75.375C73.6042 23.8984 72.7188 24.4167 72.7188 25.4531C72.7188 25.9062 72.8698 26.2604 73.1719 26.5156C73.474 26.7708 73.862 26.8984 74.3359 26.8984ZM81.5859 19.5469L81.6328 20.6094C82.2786 19.7969 83.1224 19.3906 84.1641 19.3906C85.9505 19.3906 86.8516 20.3984 86.8672 22.4141V28H85.4219V22.4062C85.4167 21.7969 85.276 21.3464 85 21.0547C84.7292 20.763 84.3047 20.6172 83.7266 20.6172C83.2578 20.6172 82.8464 20.7422 82.4922 20.9922C82.138 21.2422 81.862 21.5703 81.6641 21.9766V28H80.2188V19.5469H81.5859ZM88.6953 23.7031C88.6953 22.4062 89.0026 21.3646 89.6172 20.5781C90.2318 19.7865 91.0365 19.3906 92.0312 19.3906C93.0208 19.3906 93.8047 19.7292 94.3828 20.4062V16H95.8281V28H94.5L94.4297 27.0938C93.8516 27.8021 93.0469 28.1562 92.0156 28.1562C91.0365 28.1562 90.237 27.7552 89.6172 26.9531C89.0026 26.151 88.6953 25.1042 88.6953 23.8125V23.7031ZM90.1406 23.8672C90.1406 24.8255 90.3385 25.5755 90.7344 26.1172C91.1302 26.6589 91.6771 26.9297 92.375 26.9297C93.2917 26.9297 93.9609 26.5182 94.3828 25.6953V21.8125C93.9505 21.0156 93.2865 20.6172 92.3906 20.6172C91.6823 20.6172 91.1302 20.8906 90.7344 21.4375C90.3385 21.9844 90.1406 22.7943 90.1406 23.8672ZM99.6484 28H98.2031V16H99.6484V28ZM105.477 28.1562C104.331 28.1562 103.398 27.7812 102.68 27.0312C101.961 26.276 101.602 25.2682 101.602 24.0078V23.7422C101.602 22.9036 101.76 22.1562 102.078 21.5C102.401 20.8385 102.849 20.3229 103.422 19.9531C104 19.5781 104.625 19.3906 105.297 19.3906C106.396 19.3906 107.25 19.7526 107.859 20.4766C108.469 21.2005 108.773 22.237 108.773 23.5859V24.1875H103.047C103.068 25.0208 103.31 25.6953 103.773 26.2109C104.242 26.7214 104.836 26.9766 105.555 26.9766C106.065 26.9766 106.497 26.8724 106.852 26.6641C107.206 26.4557 107.516 26.1797 107.781 25.8359L108.664 26.5234C107.956 27.612 106.893 28.1562 105.477 28.1562ZM105.297 20.5781C104.714 20.5781 104.224 20.7917 103.828 21.2188C103.432 21.6406 103.188 22.2344 103.094 23H107.328V22.8906C107.286 22.1562 107.089 21.5885 106.734 21.1875C106.38 20.7812 105.901 20.5781 105.297 20.5781Z" fill="black"/>
</g>
<defs>
<filter id="filter0_d" x="0" y="0" width="206" height="58" filterUnits="userSpaceOnUse" color-interpolation-filters="sRGB">
<feFlood flood-opacity="0" result="BackgroundImageFix"/>
<feColorMatrix in="SourceAlpha" type="matrix" values="0 0 0 0 0 0 0 0 0 0 0 0 0 0 0 0 0 0 127 0"/>
<feOffset dy="4"/>
<feGaussianBlur stdDeviation="2"/>
<feColorMatrix type="matrix" values="0 0 0 0 0 0 0 0 0 0 0 0 0 0 0 0 0 0 0.25 0"/>
<feBlend mode="normal" in2="BackgroundImageFix" result="effect1_dropShadow"/>
<feBlend mode="normal" in="SourceGraphic" in2="effect1_dropShadow" result="shape"/>
</filter>
</defs>
</svg>
