<svg width="206" height="58" viewBox="0 0 206 58" fill="none" xmlns="http://www.w3.org/2000/svg">
<g filter="url(#filter0_d)">
<rect x="4" width="198" height="50" fill="white"/>
<path d="M38.6154 9.61536V14.2307H35.5385V32.6923H38.6154V40.3846H40.1539V32.6923H43.2308V14.2307H40.1539V9.61536H38.6154ZM27.8462 11.1538V18.8461H24.7693V35.7692H27.8462V40.3846H29.3847V35.7692H32.4616V18.8461H29.3847V11.1538H27.8462Z" fill="black"/>
<path d="M70.0625 28H68.5547V22.7422H62.8203V28H61.3203V16.625H62.8203V21.5156H68.5547V16.625H70.0625V28ZM76.0078 28.1562C74.862 28.1562 73.9297 27.7812 73.2109 27.0312C72.4922 26.276 72.1328 25.2682 72.1328 24.0078V23.7422C72.1328 22.9036 72.2917 22.1562 72.6094 21.5C72.9323 20.8385 73.3802 20.3229 73.9531 19.9531C74.5312 19.5781 75.1562 19.3906 75.8281 19.3906C76.9271 19.3906 77.7812 19.7526 78.3906 20.4766C79 21.2005 79.3047 22.237 79.3047 23.5859V24.1875H73.5781C73.599 25.0208 73.8411 25.6953 74.3047 26.2109C74.7734 26.7214 75.3672 26.9766 76.0859 26.9766C76.5964 26.9766 77.0286 26.8724 77.3828 26.6641C77.737 26.4557 78.0469 26.1797 78.3125 25.8359L79.1953 26.5234C78.487 27.612 77.4245 28.1562 76.0078 28.1562ZM75.8281 20.5781C75.2448 20.5781 74.7552 20.7917 74.3594 21.2188C73.9635 21.6406 73.7188 22.2344 73.625 23H77.8594V22.8906C77.8177 22.1562 77.6198 21.5885 77.2656 21.1875C76.9115 20.7812 76.4323 20.5781 75.8281 20.5781ZM82.5547 28H81.1094V19.5469H82.5547V28ZM80.9922 17.3047C80.9922 17.0703 81.0625 16.8724 81.2031 16.7109C81.349 16.5495 81.5625 16.4688 81.8438 16.4688C82.125 16.4688 82.3385 16.5495 82.4844 16.7109C82.6302 16.8724 82.7031 17.0703 82.7031 17.3047C82.7031 17.5391 82.6302 17.7344 82.4844 17.8906C82.3385 18.0469 82.125 18.125 81.8438 18.125C81.5625 18.125 81.349 18.0469 81.2031 17.8906C81.0625 17.7344 80.9922 17.5391 80.9922 17.3047ZM87.2344 24.0859L86.3281 25.0312V28H84.8828V16H86.3281V23.2578L87.1016 22.3281L89.7344 19.5469H91.4922L88.2031 23.0781L91.875 28H90.1797L87.2344 24.0859ZM94.5547 28H93.1094V19.5469H94.5547V28ZM92.9922 17.3047C92.9922 17.0703 93.0625 16.8724 93.2031 16.7109C93.349 16.5495 93.5625 16.4688 93.8438 16.4688C94.125 16.4688 94.3385 16.5495 94.4844 16.7109C94.6302 16.8724 94.7031 17.0703 94.7031 17.3047C94.7031 17.5391 94.6302 17.7344 94.4844 17.8906C94.3385 18.0469 94.125 18.125 93.8438 18.125C93.5625 18.125 93.349 18.0469 93.2031 17.8906C93.0625 17.7344 92.9922 17.5391 92.9922 17.3047ZM98.2422 19.5469L98.2891 20.6094C98.9349 19.7969 99.7786 19.3906 100.82 19.3906C102.607 19.3906 103.508 20.3984 103.523 22.4141V28H102.078V22.4062C102.073 21.7969 101.932 21.3464 101.656 21.0547C101.385 20.763 100.961 20.6172 100.383 20.6172C99.9141 20.6172 99.5026 20.7422 99.1484 20.9922C98.7943 21.2422 98.5182 21.5703 98.3203 21.9766V28H96.875V19.5469H98.2422ZM116.18 25.0312H111.414L110.344 28H108.797L113.141 16.625H114.453L118.805 28H117.266L116.18 25.0312ZM111.867 23.7969H115.734L113.797 18.4766L111.867 23.7969ZM125.031 25.7578C125.031 25.3672 124.883 25.0651 124.586 24.8516C124.294 24.6328 123.781 24.4453 123.047 24.2891C122.318 24.1328 121.737 23.9453 121.305 23.7266C120.878 23.5078 120.56 23.2474 120.352 22.9453C120.148 22.6432 120.047 22.2839 120.047 21.8672C120.047 21.1745 120.339 20.5885 120.922 20.1094C121.51 19.6302 122.26 19.3906 123.172 19.3906C124.13 19.3906 124.906 19.638 125.5 20.1328C126.099 20.6276 126.398 21.2604 126.398 22.0312H124.945C124.945 21.6354 124.776 21.2943 124.438 21.0078C124.104 20.7214 123.682 20.5781 123.172 20.5781C122.646 20.5781 122.234 20.6927 121.938 20.9219C121.641 21.151 121.492 21.4505 121.492 21.8203C121.492 22.1693 121.63 22.4323 121.906 22.6094C122.182 22.7865 122.68 22.9557 123.398 23.1172C124.122 23.2786 124.708 23.4714 125.156 23.6953C125.604 23.9193 125.935 24.1901 126.148 24.5078C126.367 24.8203 126.477 25.2031 126.477 25.6562C126.477 26.4115 126.174 27.0182 125.57 27.4766C124.966 27.9297 124.182 28.1562 123.219 28.1562C122.542 28.1562 121.943 28.0365 121.422 27.7969C120.901 27.5573 120.492 27.224 120.195 26.7969C119.904 26.3646 119.758 25.8984 119.758 25.3984H121.203C121.229 25.8828 121.422 26.2682 121.781 26.5547C122.146 26.8359 122.625 26.9766 123.219 26.9766C123.766 26.9766 124.203 26.8672 124.531 26.6484C124.865 26.4245 125.031 26.1276 125.031 25.7578ZM129.805 20.5703C130.445 19.7839 131.279 19.3906 132.305 19.3906C134.091 19.3906 134.992 20.3984 135.008 22.4141V28H133.562V22.4062C133.557 21.7969 133.417 21.3464 133.141 21.0547C132.87 20.763 132.445 20.6172 131.867 20.6172C131.398 20.6172 130.987 20.7422 130.633 20.9922C130.279 21.2422 130.003 21.5703 129.805 21.9766V28H128.359V16H129.805V20.5703ZM138.742 28H137.297V19.5469H138.742V28ZM137.18 17.3047C137.18 17.0703 137.25 16.8724 137.391 16.7109C137.536 16.5495 137.75 16.4688 138.031 16.4688C138.312 16.4688 138.526 16.5495 138.672 16.7109C138.818 16.8724 138.891 17.0703 138.891 17.3047C138.891 17.5391 138.818 17.7344 138.672 17.8906C138.526 18.0469 138.312 18.125 138.031 18.125C137.75 18.125 137.536 18.0469 137.391 17.8906C137.25 17.7344 137.18 17.5391 137.18 17.3047Z" fill="black"/>
</g>
<defs>
<filter id="filter0_d" x="0" y="0" width="206" height="58" filterUnits="userSpaceOnUse" color-interpolation-filters="sRGB">
<feFlood flood-opacity="0" result="BackgroundImageFix"/>
<feColorMatrix in="SourceAlpha" type="matrix" values="0 0 0 0 0 0 0 0 0 0 0 0 0 0 0 0 0 0 127 0"/>
<feOffset dy="4"/>
<feGaussianBlur stdDeviation="2"/>
<feColorMatrix type="matrix" values="0 0 0 0 0 0 0 0 0 0 0 0 0 0 0 0 0 0 0.25 0"/>
<feBlend mode="normal" in2="BackgroundImageFix" result="effect1_dropShadow"/>
<feBlend mode="normal" in="SourceGraphic" in2="effect1_dropShadow" result="shape"/>
</filter>
</defs>
</svg>
