<svg width="206" height="58" viewBox="0 0 206 58" fill="none" xmlns="http://www.w3.org/2000/svg">
<g filter="url(#filter0_d)">
<rect x="4" width="198" height="50" fill="white"/>
<path d="M37.6154 9.61539V14.2308H34.5385V32.6923H37.6154V40.3846H39.1539V32.6923H42.2308V14.2308H39.1539V9.61539H37.6154ZM26.8462 11.1538V18.8462H23.7693V35.7692H26.8462V40.3846H28.3847V35.7692H31.4616V18.8462H28.3847V11.1538H26.8462ZM36.077 15.7692H40.6924V31.1538H36.077V15.7692ZM25.3077 20.3846H29.9231V34.2308H25.3077V20.3846Z" fill="black"/>
<path d="M70.0625 28H68.5547V22.7422H62.8203V28H61.3203V16.625H62.8203V21.5156H68.5547V16.625H70.0625V28ZM72.1172 23.6953C72.1172 22.8672 72.2786 22.1224 72.6016 21.4609C72.9297 20.7995 73.3828 20.2891 73.9609 19.9297C74.5443 19.5703 75.2083 19.3906 75.9531 19.3906C77.1042 19.3906 78.0339 19.7891 78.7422 20.5859C79.4557 21.3828 79.8125 22.4427 79.8125 23.7656V23.8672C79.8125 24.6901 79.6536 25.4297 79.3359 26.0859C79.0234 26.737 78.5729 27.2448 77.9844 27.6094C77.401 27.974 76.7292 28.1562 75.9688 28.1562C74.8229 28.1562 73.8932 27.7578 73.1797 26.9609C72.4714 26.1641 72.1172 25.1094 72.1172 23.7969V23.6953ZM73.5703 23.8672C73.5703 24.8047 73.7865 25.5573 74.2188 26.125C74.6562 26.6927 75.2396 26.9766 75.9688 26.9766C76.7031 26.9766 77.2865 26.6901 77.7188 26.1172C78.151 25.5391 78.3672 24.7318 78.3672 23.6953C78.3672 22.7682 78.1458 22.0182 77.7031 21.4453C77.2656 20.8672 76.6823 20.5781 75.9531 20.5781C75.2396 20.5781 74.6641 20.862 74.2266 21.4297C73.7891 21.9974 73.5703 22.8099 73.5703 23.8672ZM83.1953 28H81.75V16H83.1953V28ZM87.0859 28H85.6406V16H87.0859V28ZM89.0234 23.6953C89.0234 22.8672 89.1849 22.1224 89.5078 21.4609C89.8359 20.7995 90.2891 20.2891 90.8672 19.9297C91.4505 19.5703 92.1146 19.3906 92.8594 19.3906C94.0104 19.3906 94.9401 19.7891 95.6484 20.5859C96.362 21.3828 96.7188 22.4427 96.7188 23.7656V23.8672C96.7188 24.6901 96.5599 25.4297 96.2422 26.0859C95.9297 26.737 95.4792 27.2448 94.8906 27.6094C94.3073 27.974 93.6354 28.1562 92.875 28.1562C91.7292 28.1562 90.7995 27.7578 90.0859 26.9609C89.3776 26.1641 89.0234 25.1094 89.0234 23.7969V23.6953ZM90.4766 23.8672C90.4766 24.8047 90.6927 25.5573 91.125 26.125C91.5625 26.6927 92.1458 26.9766 92.875 26.9766C93.6094 26.9766 94.1927 26.6901 94.625 26.1172C95.0573 25.5391 95.2734 24.7318 95.2734 23.6953C95.2734 22.7682 95.0521 22.0182 94.6094 21.4453C94.1719 20.8672 93.5885 20.5781 92.8594 20.5781C92.1458 20.5781 91.5703 20.862 91.1328 21.4297C90.6953 21.9974 90.4766 22.8099 90.4766 23.8672ZM106.016 26.0078L107.641 19.5469H109.086L106.625 28H105.453L103.398 21.5938L101.398 28H100.227L97.7734 19.5469H99.2109L100.875 25.875L102.844 19.5469H104.008L106.016 26.0078ZM123.125 24.3906C122.984 25.5938 122.539 26.5234 121.789 27.1797C121.044 27.8307 120.052 28.1562 118.812 28.1562C117.469 28.1562 116.391 27.6745 115.578 26.7109C114.771 25.7474 114.367 24.4583 114.367 22.8438V21.75C114.367 20.6927 114.555 19.763 114.93 18.9609C115.31 18.1589 115.846 17.5443 116.539 17.1172C117.232 16.6849 118.034 16.4688 118.945 16.4688C120.154 16.4688 121.122 16.8073 121.852 17.4844C122.581 18.1562 123.005 19.0885 123.125 20.2812H121.617C121.487 19.375 121.203 18.7188 120.766 18.3125C120.333 17.9062 119.727 17.7031 118.945 17.7031C117.987 17.7031 117.234 18.0573 116.688 18.7656C116.146 19.474 115.875 20.4818 115.875 21.7891V22.8906C115.875 24.125 116.133 25.1068 116.648 25.8359C117.164 26.5651 117.885 26.9297 118.812 26.9297C119.646 26.9297 120.284 26.7422 120.727 26.3672C121.174 25.987 121.471 25.3281 121.617 24.3906H123.125ZM130.172 28C130.089 27.8333 130.021 27.5365 129.969 27.1094C129.297 27.8073 128.495 28.1562 127.562 28.1562C126.729 28.1562 126.044 27.9219 125.508 27.4531C124.977 26.9792 124.711 26.3802 124.711 25.6562C124.711 24.776 125.044 24.0938 125.711 23.6094C126.383 23.1198 127.326 22.875 128.539 22.875H129.945V22.2109C129.945 21.7057 129.794 21.3047 129.492 21.0078C129.19 20.7057 128.745 20.5547 128.156 20.5547C127.641 20.5547 127.208 20.6849 126.859 20.9453C126.51 21.2057 126.336 21.5208 126.336 21.8906H124.883C124.883 21.4688 125.031 21.0625 125.328 20.6719C125.63 20.276 126.036 19.9635 126.547 19.7344C127.062 19.5052 127.628 19.3906 128.242 19.3906C129.216 19.3906 129.979 19.6354 130.531 20.125C131.083 20.6094 131.37 21.2786 131.391 22.1328V26.0234C131.391 26.7995 131.49 27.4167 131.688 27.875V28H130.172ZM127.773 26.8984C128.227 26.8984 128.656 26.7812 129.062 26.5469C129.469 26.3125 129.763 26.0078 129.945 25.6328V23.8984H128.812C127.042 23.8984 126.156 24.4167 126.156 25.4531C126.156 25.9062 126.307 26.2604 126.609 26.5156C126.911 26.7708 127.299 26.8984 127.773 26.8984ZM135.023 19.5469L135.07 20.6094C135.716 19.7969 136.56 19.3906 137.602 19.3906C139.388 19.3906 140.289 20.3984 140.305 22.4141V28H138.859V22.4062C138.854 21.7969 138.714 21.3464 138.438 21.0547C138.167 20.763 137.742 20.6172 137.164 20.6172C136.695 20.6172 136.284 20.7422 135.93 20.9922C135.576 21.2422 135.299 21.5703 135.102 21.9766V28H133.656V19.5469H135.023ZM142.133 23.7031C142.133 22.4062 142.44 21.3646 143.055 20.5781C143.669 19.7865 144.474 19.3906 145.469 19.3906C146.458 19.3906 147.242 19.7292 147.82 20.4062V16H149.266V28H147.938L147.867 27.0938C147.289 27.8021 146.484 28.1562 145.453 28.1562C144.474 28.1562 143.674 27.7552 143.055 26.9531C142.44 26.151 142.133 25.1042 142.133 23.8125V23.7031ZM143.578 23.8672C143.578 24.8255 143.776 25.5755 144.172 26.1172C144.568 26.6589 145.115 26.9297 145.812 26.9297C146.729 26.9297 147.398 26.5182 147.82 25.6953V21.8125C147.388 21.0156 146.724 20.6172 145.828 20.6172C145.12 20.6172 144.568 20.8906 144.172 21.4375C143.776 21.9844 143.578 22.7943 143.578 23.8672ZM153.086 28H151.641V16H153.086V28ZM158.914 28.1562C157.768 28.1562 156.836 27.7812 156.117 27.0312C155.398 26.276 155.039 25.2682 155.039 24.0078V23.7422C155.039 22.9036 155.198 22.1562 155.516 21.5C155.839 20.8385 156.286 20.3229 156.859 19.9531C157.438 19.5781 158.062 19.3906 158.734 19.3906C159.833 19.3906 160.688 19.7526 161.297 20.4766C161.906 21.2005 162.211 22.237 162.211 23.5859V24.1875H156.484C156.505 25.0208 156.747 25.6953 157.211 26.2109C157.68 26.7214 158.273 26.9766 158.992 26.9766C159.503 26.9766 159.935 26.8724 160.289 26.6641C160.643 26.4557 160.953 26.1797 161.219 25.8359L162.102 26.5234C161.393 27.612 160.331 28.1562 158.914 28.1562ZM158.734 20.5781C158.151 20.5781 157.661 20.7917 157.266 21.2188C156.87 21.6406 156.625 22.2344 156.531 23H160.766V22.8906C160.724 22.1562 160.526 21.5885 160.172 21.1875C159.818 20.7812 159.339 20.5781 158.734 20.5781Z" fill="black"/>
</g>
<defs>
<filter id="filter0_d" x="0" y="0" width="206" height="58" filterUnits="userSpaceOnUse" color-interpolation-filters="sRGB">
<feFlood flood-opacity="0" result="BackgroundImageFix"/>
<feColorMatrix in="SourceAlpha" type="matrix" values="0 0 0 0 0 0 0 0 0 0 0 0 0 0 0 0 0 0 127 0"/>
<feOffset dy="4"/>
<feGaussianBlur stdDeviation="2"/>
<feColorMatrix type="matrix" values="0 0 0 0 0 0 0 0 0 0 0 0 0 0 0 0 0 0 0.25 0"/>
<feBlend mode="normal" in2="BackgroundImageFix" result="effect1_dropShadow"/>
<feBlend mode="normal" in="SourceGraphic" in2="effect1_dropShadow" result="shape"/>
</filter>
</defs>
</svg>
