<svg width="163" height="58" viewBox="0 0 163 58" fill="none" xmlns="http://www.w3.org/2000/svg">
<g filter="url(#filter0_d)">
<rect x="4" width="155" height="50" fill="white"/>
<g clip-path="url(#clip0)">
<path d="M45.2353 10C44.7673 10 44.3184 10.1859 43.9875 10.5169C43.6565 10.8478 43.4706 11.2967 43.4706 11.7647C43.4717 12.0638 43.5488 12.3577 43.6947 12.6188L39.9712 18.8235C39.9612 18.8234 39.9512 18.8234 39.9412 18.8235C39.7874 18.8242 39.6343 18.845 39.4859 18.8853L36.35 15.7529C36.3906 15.6034 36.4114 15.4491 36.4118 15.2941C36.4118 14.8261 36.2258 14.3772 35.8949 14.0463C35.5639 13.7153 35.1151 13.5294 34.6471 13.5294C34.179 13.5294 33.7302 13.7153 33.3992 14.0463C33.0683 14.3772 32.8824 14.8261 32.8824 15.2941C32.8832 15.5327 32.9324 15.7686 33.0271 15.9876L29.5647 20.6024C29.4945 20.5922 29.4238 20.5863 29.3529 20.5847C29.0835 20.5858 28.8179 20.6486 28.5765 20.7682L25.8165 18.9329C25.82 18.8954 25.8224 18.8577 25.8235 18.82C25.8235 18.352 25.6376 17.9031 25.3067 17.5722C24.9757 17.2412 24.5269 17.0553 24.0588 17.0553C23.5908 17.0553 23.1419 17.2412 22.811 17.5722C22.48 17.9031 22.2941 18.352 22.2941 18.82C22.294 18.8589 22.2952 18.8977 22.2976 18.9365L19.5447 20.7718C19.3025 20.6504 19.0356 20.5864 18.7647 20.5847C18.2967 20.5847 17.8478 20.7706 17.5169 21.1016C17.1859 21.4325 17 21.8814 17 22.3494C17 22.8174 17.1859 23.2663 17.5169 23.5972C17.8478 23.9282 18.2967 24.1141 18.7647 24.1141C19.2327 24.1141 19.6816 23.9282 20.0125 23.5972C20.3435 23.2663 20.5294 22.8174 20.5294 22.3494C20.5294 22.3117 20.5283 22.2741 20.5259 22.2365L23.2788 20.4012C23.521 20.5226 23.7879 20.5866 24.0588 20.5882C24.3281 20.5877 24.5937 20.5255 24.8353 20.4065L27.5953 22.2418C27.5918 22.2787 27.5894 22.3158 27.5882 22.3529C27.5882 22.821 27.7742 23.2698 28.1051 23.6008C28.4361 23.9317 28.8849 24.1176 29.3529 24.1176C29.821 24.1176 30.2698 23.9317 30.6008 23.6008C30.9317 23.2698 31.1176 22.821 31.1176 22.3529C31.1161 22.1161 31.0669 21.8821 30.9729 21.6647L34.4406 17.0412C34.509 17.0511 34.5779 17.057 34.6471 17.0588C34.8009 17.0582 34.9539 17.0374 35.1024 16.9971L38.2382 20.1329C38.1979 20.2814 38.1771 20.4344 38.1765 20.5882C38.1765 21.0563 38.3624 21.5051 38.6933 21.8361C39.0243 22.167 39.4731 22.3529 39.9412 22.3529C40.4092 22.3529 40.8581 22.167 41.189 21.8361C41.52 21.5051 41.7059 21.0563 41.7059 20.5882C41.7042 20.2903 41.6271 19.9977 41.4818 19.7376L45.2053 13.5294C45.2153 13.5295 45.2253 13.5295 45.2353 13.5294C45.7033 13.5294 46.1522 13.3435 46.4831 13.0125C46.8141 12.6816 47 12.2327 47 11.7647C47 11.2967 46.8141 10.8478 46.4831 10.5169C46.1522 10.1859 45.7033 10 45.2353 10V10ZM43.4706 18.8235V36.4706H47V18.8235H43.4706ZM32.8824 22.3529V36.4706H36.4118V22.3529H32.8824ZM22.2941 25.8824V36.4706H25.8235V25.8824H22.2941ZM38.1765 27.6471V36.4706H41.7059V27.6471H38.1765ZM17 29.4118V36.4706H20.5294V29.4118H17ZM27.5882 29.4118V36.4706H31.1176V29.4118H27.5882Z" fill="black"/>
</g>
<path d="M67.9297 29H66.4297V17.625H67.9297V29ZM71.8203 20.5469L71.8672 21.6094C72.513 20.7969 73.3568 20.3906 74.3984 20.3906C76.1849 20.3906 77.0859 21.3984 77.1016 23.4141V29H75.6562V23.4062C75.651 22.7969 75.5104 22.3464 75.2344 22.0547C74.9635 21.763 74.5391 21.6172 73.9609 21.6172C73.4922 21.6172 73.0807 21.7422 72.7266 21.9922C72.3724 22.2422 72.0964 22.5703 71.8984 22.9766V29H70.4531V20.5469H71.8203ZM78.9297 24.7031C78.9297 23.4062 79.237 22.3646 79.8516 21.5781C80.4661 20.7865 81.2708 20.3906 82.2656 20.3906C83.2552 20.3906 84.0391 20.7292 84.6172 21.4062V17H86.0625V29H84.7344L84.6641 28.0938C84.0859 28.8021 83.2812 29.1562 82.25 29.1562C81.2708 29.1562 80.4714 28.7552 79.8516 27.9531C79.237 27.151 78.9297 26.1042 78.9297 24.8125V24.7031ZM80.375 24.8672C80.375 25.8255 80.5729 26.5755 80.9688 27.1172C81.3646 27.6589 81.9115 27.9297 82.6094 27.9297C83.526 27.9297 84.1953 27.5182 84.6172 26.6953V22.8125C84.1849 22.0156 83.5208 21.6172 82.625 21.6172C81.9167 21.6172 81.3646 21.8906 80.9688 22.4375C80.5729 22.9844 80.375 23.7943 80.375 24.8672ZM89.8828 29H88.4375V20.5469H89.8828V29ZM88.3203 18.3047C88.3203 18.0703 88.3906 17.8724 88.5312 17.7109C88.6771 17.5495 88.8906 17.4688 89.1719 17.4688C89.4531 17.4688 89.6667 17.5495 89.8125 17.7109C89.9583 17.8724 90.0312 18.0703 90.0312 18.3047C90.0312 18.5391 89.9583 18.7344 89.8125 18.8906C89.6667 19.0469 89.4531 19.125 89.1719 19.125C88.8906 19.125 88.6771 19.0469 88.5312 18.8906C88.3906 18.7344 88.3203 18.5391 88.3203 18.3047ZM95.5938 27.9766C96.1094 27.9766 96.5599 27.8203 96.9453 27.5078C97.3307 27.1953 97.5443 26.8047 97.5859 26.3359H98.9531C98.9271 26.8203 98.7604 27.2812 98.4531 27.7188C98.1458 28.1562 97.7344 28.5052 97.2188 28.7656C96.7083 29.026 96.1667 29.1562 95.5938 29.1562C94.4427 29.1562 93.526 28.7734 92.8438 28.0078C92.1667 27.237 91.8281 26.1849 91.8281 24.8516V24.6094C91.8281 23.7865 91.9792 23.0547 92.2812 22.4141C92.5833 21.7734 93.0156 21.276 93.5781 20.9219C94.1458 20.5677 94.8151 20.3906 95.5859 20.3906C96.5339 20.3906 97.3203 20.6745 97.9453 21.2422C98.5755 21.8099 98.9115 22.5469 98.9531 23.4531H97.5859C97.5443 22.9062 97.3359 22.4583 96.9609 22.1094C96.5911 21.7552 96.1328 21.5781 95.5859 21.5781C94.8516 21.5781 94.2812 21.8438 93.875 22.375C93.474 22.901 93.2734 23.6641 93.2734 24.6641V24.9375C93.2734 25.9115 93.474 26.6615 93.875 27.1875C94.276 27.7135 94.849 27.9766 95.5938 27.9766ZM105.797 29C105.714 28.8333 105.646 28.5365 105.594 28.1094C104.922 28.8073 104.12 29.1562 103.188 29.1562C102.354 29.1562 101.669 28.9219 101.133 28.4531C100.602 27.9792 100.336 27.3802 100.336 26.6562C100.336 25.776 100.669 25.0938 101.336 24.6094C102.008 24.1198 102.951 23.875 104.164 23.875H105.57V23.2109C105.57 22.7057 105.419 22.3047 105.117 22.0078C104.815 21.7057 104.37 21.5547 103.781 21.5547C103.266 21.5547 102.833 21.6849 102.484 21.9453C102.135 22.2057 101.961 22.5208 101.961 22.8906H100.508C100.508 22.4688 100.656 22.0625 100.953 21.6719C101.255 21.276 101.661 20.9635 102.172 20.7344C102.688 20.5052 103.253 20.3906 103.867 20.3906C104.841 20.3906 105.604 20.6354 106.156 21.125C106.708 21.6094 106.995 22.2786 107.016 23.1328V27.0234C107.016 27.7995 107.115 28.4167 107.312 28.875V29H105.797ZM103.398 27.8984C103.852 27.8984 104.281 27.7812 104.688 27.5469C105.094 27.3125 105.388 27.0078 105.57 26.6328V24.8984H104.438C102.667 24.8984 101.781 25.4167 101.781 26.4531C101.781 26.9062 101.932 27.2604 102.234 27.5156C102.536 27.7708 102.924 27.8984 103.398 27.8984ZM111.242 18.5V20.5469H112.82V21.6641H111.242V26.9062C111.242 27.2448 111.312 27.5 111.453 27.6719C111.594 27.8385 111.833 27.9219 112.172 27.9219C112.339 27.9219 112.568 27.8906 112.859 27.8281V29C112.479 29.1042 112.109 29.1562 111.75 29.1562C111.104 29.1562 110.617 28.9609 110.289 28.5703C109.961 28.1797 109.797 27.625 109.797 26.9062V21.6641H108.258V20.5469H109.797V18.5H111.242ZM113.977 24.6953C113.977 23.8672 114.138 23.1224 114.461 22.4609C114.789 21.7995 115.242 21.2891 115.82 20.9297C116.404 20.5703 117.068 20.3906 117.812 20.3906C118.964 20.3906 119.893 20.7891 120.602 21.5859C121.315 22.3828 121.672 23.4427 121.672 24.7656V24.8672C121.672 25.6901 121.513 26.4297 121.195 27.0859C120.883 27.737 120.432 28.2448 119.844 28.6094C119.26 28.974 118.589 29.1562 117.828 29.1562C116.682 29.1562 115.753 28.7578 115.039 27.9609C114.331 27.1641 113.977 26.1094 113.977 24.7969V24.6953ZM115.43 24.8672C115.43 25.8047 115.646 26.5573 116.078 27.125C116.516 27.6927 117.099 27.9766 117.828 27.9766C118.562 27.9766 119.146 27.6901 119.578 27.1172C120.01 26.5391 120.227 25.7318 120.227 24.6953C120.227 23.7682 120.005 23.0182 119.562 22.4453C119.125 21.8672 118.542 21.5781 117.812 21.5781C117.099 21.5781 116.523 21.862 116.086 22.4297C115.648 22.9974 115.43 23.8099 115.43 24.8672ZM127.57 21.8438C127.352 21.8073 127.115 21.7891 126.859 21.7891C125.911 21.7891 125.268 22.1927 124.93 23V29H123.484V20.5469H124.891L124.914 21.5234C125.388 20.7682 126.06 20.3906 126.93 20.3906C127.211 20.3906 127.424 20.4271 127.57 20.5V21.8438ZM133.828 26.7578C133.828 26.3672 133.68 26.0651 133.383 25.8516C133.091 25.6328 132.578 25.4453 131.844 25.2891C131.115 25.1328 130.534 24.9453 130.102 24.7266C129.674 24.5078 129.357 24.2474 129.148 23.9453C128.945 23.6432 128.844 23.2839 128.844 22.8672C128.844 22.1745 129.135 21.5885 129.719 21.1094C130.307 20.6302 131.057 20.3906 131.969 20.3906C132.927 20.3906 133.703 20.638 134.297 21.1328C134.896 21.6276 135.195 22.2604 135.195 23.0312H133.742C133.742 22.6354 133.573 22.2943 133.234 22.0078C132.901 21.7214 132.479 21.5781 131.969 21.5781C131.443 21.5781 131.031 21.6927 130.734 21.9219C130.438 22.151 130.289 22.4505 130.289 22.8203C130.289 23.1693 130.427 23.4323 130.703 23.6094C130.979 23.7865 131.477 23.9557 132.195 24.1172C132.919 24.2786 133.505 24.4714 133.953 24.6953C134.401 24.9193 134.732 25.1901 134.945 25.5078C135.164 25.8203 135.273 26.2031 135.273 26.6562C135.273 27.4115 134.971 28.0182 134.367 28.4766C133.763 28.9297 132.979 29.1562 132.016 29.1562C131.339 29.1562 130.74 29.0365 130.219 28.7969C129.698 28.5573 129.289 28.224 128.992 27.7969C128.701 27.3646 128.555 26.8984 128.555 26.3984H130C130.026 26.8828 130.219 27.2682 130.578 27.5547C130.943 27.8359 131.422 27.9766 132.016 27.9766C132.562 27.9766 133 27.8672 133.328 27.6484C133.661 27.4245 133.828 27.1276 133.828 26.7578Z" fill="black"/>
</g>
<defs>
<filter id="filter0_d" x="0" y="0" width="163" height="58" filterUnits="userSpaceOnUse" color-interpolation-filters="sRGB">
<feFlood flood-opacity="0" result="BackgroundImageFix"/>
<feColorMatrix in="SourceAlpha" type="matrix" values="0 0 0 0 0 0 0 0 0 0 0 0 0 0 0 0 0 0 127 0"/>
<feOffset dy="4"/>
<feGaussianBlur stdDeviation="2"/>
<feColorMatrix type="matrix" values="0 0 0 0 0 0 0 0 0 0 0 0 0 0 0 0 0 0 0.25 0"/>
<feBlend mode="normal" in2="BackgroundImageFix" result="effect1_dropShadow"/>
<feBlend mode="normal" in="SourceGraphic" in2="effect1_dropShadow" result="shape"/>
</filter>
<clipPath id="clip0">
<rect width="30" height="30" fill="white" transform="translate(17 10)"/>
</clipPath>
</defs>
</svg>
