<svg width="206" height="58" viewBox="0 0 206 58" fill="none" xmlns="http://www.w3.org/2000/svg">
<g filter="url(#filter0_d)">
<rect x="4" width="198" height="50" fill="white"/>
<path d="M23.7692 11.1539V37.3077H20.6923V31.1539H19.1538V38.8462H25.3077V14.2308H28.3846V31.1539H40.6923L40.5753 20.3846H43.7692V35.7693H48.3846V15.7693H36.0769V26.5385H33V11.1539H23.7692Z" fill="black"/>
<path d="M64.2109 22.7109L62.8203 24.1562V28H61.3203V16.625H62.8203V22.25L67.875 16.625H69.6875L65.2109 21.6484L70.0391 28H68.2422L64.2109 22.7109ZM76.3438 28C76.2604 27.8333 76.1927 27.5365 76.1406 27.1094C75.4688 27.8073 74.6667 28.1562 73.7344 28.1562C72.901 28.1562 72.2161 27.9219 71.6797 27.4531C71.1484 26.9792 70.8828 26.3802 70.8828 25.6562C70.8828 24.776 71.2161 24.0938 71.8828 23.6094C72.5547 23.1198 73.4974 22.875 74.7109 22.875H76.1172V22.2109C76.1172 21.7057 75.9661 21.3047 75.6641 21.0078C75.362 20.7057 74.9167 20.5547 74.3281 20.5547C73.8125 20.5547 73.3802 20.6849 73.0312 20.9453C72.6823 21.2057 72.5078 21.5208 72.5078 21.8906H71.0547C71.0547 21.4688 71.2031 21.0625 71.5 20.6719C71.8021 20.276 72.2083 19.9635 72.7188 19.7344C73.2344 19.5052 73.7995 19.3906 74.4141 19.3906C75.388 19.3906 76.151 19.6354 76.7031 20.125C77.2552 20.6094 77.5417 21.2786 77.5625 22.1328V26.0234C77.5625 26.7995 77.6615 27.4167 77.8594 27.875V28H76.3438ZM73.9453 26.8984C74.3984 26.8984 74.8281 26.7812 75.2344 26.5469C75.6406 26.3125 75.9349 26.0078 76.1172 25.6328V23.8984H74.9844C73.2135 23.8984 72.3281 24.4167 72.3281 25.4531C72.3281 25.9062 72.4792 26.2604 72.7812 26.5156C73.0833 26.7708 73.4714 26.8984 73.9453 26.8984ZM79.4844 23.7031C79.4844 22.3854 79.7891 21.3385 80.3984 20.5625C81.0078 19.7812 81.8151 19.3906 82.8203 19.3906C83.8516 19.3906 84.6562 19.7552 85.2344 20.4844L85.3047 19.5469H86.625V27.7969C86.625 28.8906 86.2995 29.7526 85.6484 30.3828C85.0026 31.013 84.1328 31.3281 83.0391 31.3281C82.4297 31.3281 81.8333 31.1979 81.25 30.9375C80.6667 30.6771 80.2214 30.3203 79.9141 29.8672L80.6641 29C81.2839 29.7656 82.0417 30.1484 82.9375 30.1484C83.6406 30.1484 84.1875 29.9505 84.5781 29.5547C84.974 29.1589 85.1719 28.6016 85.1719 27.8828V27.1562C84.5938 27.8229 83.8047 28.1562 82.8047 28.1562C81.8151 28.1562 81.013 27.7578 80.3984 26.9609C79.7891 26.1641 79.4844 25.0781 79.4844 23.7031ZM80.9375 23.8672C80.9375 24.8203 81.1328 25.5703 81.5234 26.1172C81.9141 26.6589 82.4609 26.9297 83.1641 26.9297C84.0755 26.9297 84.7448 26.5156 85.1719 25.6875V21.8281C84.7292 21.0208 84.0651 20.6172 83.1797 20.6172C82.4766 20.6172 81.9271 20.8906 81.5312 21.4375C81.1354 21.9844 80.9375 22.7943 80.9375 23.8672ZM90.3828 28H88.9375V19.5469H90.3828V28ZM88.8203 17.3047C88.8203 17.0703 88.8906 16.8724 89.0312 16.7109C89.1771 16.5495 89.3906 16.4688 89.6719 16.4688C89.9531 16.4688 90.1667 16.5495 90.3125 16.7109C90.4583 16.8724 90.5312 17.0703 90.5312 17.3047C90.5312 17.5391 90.4583 17.7344 90.3125 17.8906C90.1667 18.0469 89.9531 18.125 89.6719 18.125C89.3906 18.125 89.1771 18.0469 89.0312 17.8906C88.8906 17.7344 88.8203 17.5391 88.8203 17.3047Z" fill="black"/>
</g>
<defs>
<filter id="filter0_d" x="0" y="0" width="206" height="58" filterUnits="userSpaceOnUse" color-interpolation-filters="sRGB">
<feFlood flood-opacity="0" result="BackgroundImageFix"/>
<feColorMatrix in="SourceAlpha" type="matrix" values="0 0 0 0 0 0 0 0 0 0 0 0 0 0 0 0 0 0 127 0"/>
<feOffset dy="4"/>
<feGaussianBlur stdDeviation="2"/>
<feColorMatrix type="matrix" values="0 0 0 0 0 0 0 0 0 0 0 0 0 0 0 0 0 0 0.25 0"/>
<feBlend mode="normal" in2="BackgroundImageFix" result="effect1_dropShadow"/>
<feBlend mode="normal" in="SourceGraphic" in2="effect1_dropShadow" result="shape"/>
</filter>
</defs>
</svg>
