<svg width="206" height="58" viewBox="0 0 206 58" fill="none" xmlns="http://www.w3.org/2000/svg">
<g filter="url(#filter0_d)">
<rect x="4" width="198" height="50" fill="white"/>
<path d="M25.6288 26.2567C20.7475 31.138 21.6644 30.2211 25.6288 26.2567V26.2567ZM44.5859 17.41L41.2174 21.9046H36.4424L29.9809 29.4875L25.6288 24.1519L23.7996 26.1189L19.1672 30.7513L21.1342 32.7183L25.6288 28.2237L29.9809 33.5592L37.7063 24.7126H42.6237L46.838 19.0967L44.5859 17.41Z" fill="black"/>
<path d="M62.8281 26.7734H68.2188V28H61.3203V16.625H62.8281V26.7734ZM71.2734 28H69.8281V19.5469H71.2734V28ZM69.7109 17.3047C69.7109 17.0703 69.7812 16.8724 69.9219 16.7109C70.0677 16.5495 70.2812 16.4688 70.5625 16.4688C70.8438 16.4688 71.0573 16.5495 71.2031 16.7109C71.349 16.8724 71.4219 17.0703 71.4219 17.3047C71.4219 17.5391 71.349 17.7344 71.2031 17.8906C71.0573 18.0469 70.8438 18.125 70.5625 18.125C70.2812 18.125 70.0677 18.0469 69.9219 17.8906C69.7812 17.7344 69.7109 17.5391 69.7109 17.3047ZM74.9609 19.5469L75.0078 20.6094C75.6536 19.7969 76.4974 19.3906 77.5391 19.3906C79.3255 19.3906 80.2266 20.3984 80.2422 22.4141V28H78.7969V22.4062C78.7917 21.7969 78.651 21.3464 78.375 21.0547C78.1042 20.763 77.6797 20.6172 77.1016 20.6172C76.6328 20.6172 76.2214 20.7422 75.8672 20.9922C75.513 21.2422 75.237 21.5703 75.0391 21.9766V28H73.5938V19.5469H74.9609ZM85.9297 28.1562C84.7839 28.1562 83.8516 27.7812 83.1328 27.0312C82.4141 26.276 82.0547 25.2682 82.0547 24.0078V23.7422C82.0547 22.9036 82.2135 22.1562 82.5312 21.5C82.8542 20.8385 83.3021 20.3229 83.875 19.9531C84.4531 19.5781 85.0781 19.3906 85.75 19.3906C86.849 19.3906 87.7031 19.7526 88.3125 20.4766C88.9219 21.2005 89.2266 22.237 89.2266 23.5859V24.1875H83.5C83.5208 25.0208 83.763 25.6953 84.2266 26.2109C84.6953 26.7214 85.2891 26.9766 86.0078 26.9766C86.5182 26.9766 86.9505 26.8724 87.3047 26.6641C87.6589 26.4557 87.9688 26.1797 88.2344 25.8359L89.1172 26.5234C88.4089 27.612 87.3464 28.1562 85.9297 28.1562ZM85.75 20.5781C85.1667 20.5781 84.6771 20.7917 84.2812 21.2188C83.8854 21.6406 83.6406 22.2344 83.5469 23H87.7812V22.8906C87.7396 22.1562 87.5417 21.5885 87.1875 21.1875C86.8333 20.7812 86.3542 20.5781 85.75 20.5781Z" fill="black"/>
</g>
<defs>
<filter id="filter0_d" x="0" y="0" width="206" height="58" filterUnits="userSpaceOnUse" color-interpolation-filters="sRGB">
<feFlood flood-opacity="0" result="BackgroundImageFix"/>
<feColorMatrix in="SourceAlpha" type="matrix" values="0 0 0 0 0 0 0 0 0 0 0 0 0 0 0 0 0 0 127 0"/>
<feOffset dy="4"/>
<feGaussianBlur stdDeviation="2"/>
<feColorMatrix type="matrix" values="0 0 0 0 0 0 0 0 0 0 0 0 0 0 0 0 0 0 0.25 0"/>
<feBlend mode="normal" in2="BackgroundImageFix" result="effect1_dropShadow"/>
<feBlend mode="normal" in="SourceGraphic" in2="effect1_dropShadow" result="shape"/>
</filter>
</defs>
</svg>
