<svg width="206" height="58" viewBox="0 0 206 58" fill="none" xmlns="http://www.w3.org/2000/svg">
<g filter="url(#filter0_d)">
<rect x="4" width="198" height="50" fill="white"/>
<path d="M30.4616 9.0769V22.9231H35.077V9.0769H30.4616ZM35.077 22.9231V41.3846H39.6923V22.9231H35.077ZM30.4616 22.9231H25.8462V36.7692H30.4616V22.9231ZM32 10.6154H33.6154V21.3077H32V10.6154ZM27.3847 24.4615H28.9231V35.2307H27.3847V24.4615Z" fill="black"/>
<path d="M62.8281 26.7734H68.2188V28H61.3203V16.625H62.8281V26.7734ZM71.2734 28H69.8281V19.5469H71.2734V28ZM69.7109 17.3047C69.7109 17.0703 69.7812 16.8724 69.9219 16.7109C70.0677 16.5495 70.2812 16.4688 70.5625 16.4688C70.8438 16.4688 71.0573 16.5495 71.2031 16.7109C71.349 16.8724 71.4219 17.0703 71.4219 17.3047C71.4219 17.5391 71.349 17.7344 71.2031 17.8906C71.0573 18.0469 70.8438 18.125 70.5625 18.125C70.2812 18.125 70.0677 18.0469 69.9219 17.8906C69.7812 17.7344 69.7109 17.5391 69.7109 17.3047ZM74.9609 19.5469L75.0078 20.6094C75.6536 19.7969 76.4974 19.3906 77.5391 19.3906C79.3255 19.3906 80.2266 20.3984 80.2422 22.4141V28H78.7969V22.4062C78.7917 21.7969 78.651 21.3464 78.375 21.0547C78.1042 20.763 77.6797 20.6172 77.1016 20.6172C76.6328 20.6172 76.2214 20.7422 75.8672 20.9922C75.513 21.2422 75.237 21.5703 75.0391 21.9766V28H73.5938V19.5469H74.9609ZM85.9297 28.1562C84.7839 28.1562 83.8516 27.7812 83.1328 27.0312C82.4141 26.276 82.0547 25.2682 82.0547 24.0078V23.7422C82.0547 22.9036 82.2135 22.1562 82.5312 21.5C82.8542 20.8385 83.3021 20.3229 83.875 19.9531C84.4531 19.5781 85.0781 19.3906 85.75 19.3906C86.849 19.3906 87.7031 19.7526 88.3125 20.4766C88.9219 21.2005 89.2266 22.237 89.2266 23.5859V24.1875H83.5C83.5208 25.0208 83.763 25.6953 84.2266 26.2109C84.6953 26.7214 85.2891 26.9766 86.0078 26.9766C86.5182 26.9766 86.9505 26.8724 87.3047 26.6641C87.6589 26.4557 87.9688 26.1797 88.2344 25.8359L89.1172 26.5234C88.4089 27.612 87.3464 28.1562 85.9297 28.1562ZM85.75 20.5781C85.1667 20.5781 84.6771 20.7917 84.2812 21.2188C83.8854 21.6406 83.6406 22.2344 83.5469 23H87.7812V22.8906C87.7396 22.1562 87.5417 21.5885 87.1875 21.1875C86.8333 20.7812 86.3542 20.5781 85.75 20.5781ZM95.1016 28V16.625H98.8203C100.055 16.625 100.982 16.8802 101.602 17.3906C102.227 17.901 102.539 18.6562 102.539 19.6562C102.539 20.1875 102.388 20.6589 102.086 21.0703C101.784 21.4766 101.372 21.7917 100.852 22.0156C101.466 22.1875 101.951 22.5156 102.305 23C102.664 23.4792 102.844 24.0521 102.844 24.7188C102.844 25.7396 102.513 26.5417 101.852 27.125C101.19 27.7083 100.255 28 99.0469 28H95.1016ZM96.6016 22.6797V26.7734H99.0781C99.776 26.7734 100.326 26.5938 100.727 26.2344C101.133 25.8698 101.336 25.3698 101.336 24.7344C101.336 23.3646 100.591 22.6797 99.1016 22.6797H96.6016ZM96.6016 21.4766H98.8672C99.5234 21.4766 100.047 21.3125 100.438 20.9844C100.833 20.6562 101.031 20.2109 101.031 19.6484C101.031 19.0234 100.849 18.5703 100.484 18.2891C100.12 18.0026 99.5651 17.8594 98.8203 17.8594H96.6016V21.4766ZM108.93 20.8438C108.711 20.8073 108.474 20.7891 108.219 20.7891C107.271 20.7891 106.628 21.1927 106.289 22V28H104.844V19.5469H106.25L106.273 20.5234C106.747 19.7682 107.419 19.3906 108.289 19.3906C108.57 19.3906 108.784 19.4271 108.93 19.5V20.8438ZM113.617 28.1562C112.471 28.1562 111.539 27.7812 110.82 27.0312C110.102 26.276 109.742 25.2682 109.742 24.0078V23.7422C109.742 22.9036 109.901 22.1562 110.219 21.5C110.542 20.8385 110.99 20.3229 111.562 19.9531C112.141 19.5781 112.766 19.3906 113.438 19.3906C114.536 19.3906 115.391 19.7526 116 20.4766C116.609 21.2005 116.914 22.237 116.914 23.5859V24.1875H111.188C111.208 25.0208 111.451 25.6953 111.914 26.2109C112.383 26.7214 112.977 26.9766 113.695 26.9766C114.206 26.9766 114.638 26.8724 114.992 26.6641C115.346 26.4557 115.656 26.1797 115.922 25.8359L116.805 26.5234C116.096 27.612 115.034 28.1562 113.617 28.1562ZM113.438 20.5781C112.854 20.5781 112.365 20.7917 111.969 21.2188C111.573 21.6406 111.328 22.2344 111.234 23H115.469V22.8906C115.427 22.1562 115.229 21.5885 114.875 21.1875C114.521 20.7812 114.042 20.5781 113.438 20.5781ZM123.812 28C123.729 27.8333 123.661 27.5365 123.609 27.1094C122.938 27.8073 122.135 28.1562 121.203 28.1562C120.37 28.1562 119.685 27.9219 119.148 27.4531C118.617 26.9792 118.352 26.3802 118.352 25.6562C118.352 24.776 118.685 24.0938 119.352 23.6094C120.023 23.1198 120.966 22.875 122.18 22.875H123.586V22.2109C123.586 21.7057 123.435 21.3047 123.133 21.0078C122.831 20.7057 122.385 20.5547 121.797 20.5547C121.281 20.5547 120.849 20.6849 120.5 20.9453C120.151 21.2057 119.977 21.5208 119.977 21.8906H118.523C118.523 21.4688 118.672 21.0625 118.969 20.6719C119.271 20.276 119.677 19.9635 120.188 19.7344C120.703 19.5052 121.268 19.3906 121.883 19.3906C122.857 19.3906 123.62 19.6354 124.172 20.125C124.724 20.6094 125.01 21.2786 125.031 22.1328V26.0234C125.031 26.7995 125.13 27.4167 125.328 27.875V28H123.812ZM121.414 26.8984C121.867 26.8984 122.297 26.7812 122.703 26.5469C123.109 26.3125 123.404 26.0078 123.586 25.6328V23.8984H122.453C120.682 23.8984 119.797 24.4167 119.797 25.4531C119.797 25.9062 119.948 26.2604 120.25 26.5156C120.552 26.7708 120.94 26.8984 121.414 26.8984ZM129.656 24.0859L128.75 25.0312V28H127.305V16H128.75V23.2578L129.523 22.3281L132.156 19.5469H133.914L130.625 23.0781L134.297 28H132.602L129.656 24.0859Z" fill="black"/>
</g>
<defs>
<filter id="filter0_d" x="0" y="0" width="206" height="58" filterUnits="userSpaceOnUse" color-interpolation-filters="sRGB">
<feFlood flood-opacity="0" result="BackgroundImageFix"/>
<feColorMatrix in="SourceAlpha" type="matrix" values="0 0 0 0 0 0 0 0 0 0 0 0 0 0 0 0 0 0 127 0"/>
<feOffset dy="4"/>
<feGaussianBlur stdDeviation="2"/>
<feColorMatrix type="matrix" values="0 0 0 0 0 0 0 0 0 0 0 0 0 0 0 0 0 0 0.25 0"/>
<feBlend mode="normal" in2="BackgroundImageFix" result="effect1_dropShadow"/>
<feBlend mode="normal" in="SourceGraphic" in2="effect1_dropShadow" result="shape"/>
</filter>
</defs>
</svg>
