<svg width="206" height="58" viewBox="0 0 206 58" fill="none" xmlns="http://www.w3.org/2000/svg">
<g filter="url(#filter0_d)">
<rect x="4" width="198" height="50" fill="white"/>
<path d="M19.1538 11.1539V12.6923H20.6923V14.2308H22.2307V15.7693H20.6923V17.3077H19.1538V18.8462H22.2307V17.3077H23.7692V18.8462H26.8461V17.3077H25.3077V15.7693H23.7692V14.2308H25.3077V12.6923H26.8461V11.1539H23.7692V12.6923H22.2307V11.1539H19.1538ZM37.6153 11.1539V12.6923H39.1538V14.2308H40.6923V15.7693H39.1538V17.3077H37.6153V18.8462H40.6923V17.3077H42.2307V18.8462H45.3077V17.3077H43.7692V15.7693H42.2307V14.2308H43.7692V12.6923H45.3077V11.1539H42.2307V12.6923H40.6923V11.1539H37.6153ZM19.1538 20.3846V21.9231H20.6923V23.4616H22.2307V25H20.6923V26.5385H19.1538V28.0769H22.2307V26.5385H23.7692V28.0769H26.8461V26.5385H25.3077V25H23.7692V23.4616H25.3077V21.9231H26.8461V20.3846H23.7692V21.9231H22.2307V20.3846H19.1538ZM29.923 20.3846V21.9231H28.3846V26.5385H29.923V28.0769H34.5384V26.5385H36.0769V21.9231H34.5384V20.3846H29.923ZM37.6153 20.3846V21.9231H39.1538V23.4616H40.6923V25H39.1538V26.5385H37.6153V28.0769H40.6923V26.5385H42.2307V28.0769H45.3077V26.5385H43.7692V25H42.2307V23.4616H43.7692V21.9231H45.3077V20.3846H42.2307V21.9231H40.6923V20.3846H37.6153ZM31.4615 21.9231H33V23.4616H34.5384V25H33V26.5385H31.4615V25H29.923V23.4616H31.4615V21.9231ZM19.1538 29.6154V31.1539H20.6923V32.6923H22.2307V34.2308H20.6923V35.7693H19.1538V37.3077H22.2307V35.7693H23.7692V37.3077H26.8461V35.7693H25.3077V34.2308H23.7692V32.6923H25.3077V31.1539H26.8461V29.6154H23.7692V31.1539H22.2307V29.6154H19.1538ZM29.923 29.6154V31.1539H28.3846V35.7693H29.923V37.3077H34.5384V35.7693H36.0769V31.1539H34.5384V29.6154H29.923ZM31.4615 31.1539H33V32.6923H34.5384V34.2308H33V35.7693H31.4615V34.2308H29.923V32.6923H31.4615V31.1539Z" fill="black"/>
<path d="M62.8203 23.5469V28H61.3203V16.625H65.5156C66.7604 16.625 67.7344 16.9427 68.4375 17.5781C69.1458 18.2135 69.5 19.0547 69.5 20.1016C69.5 21.2057 69.1536 22.0573 68.4609 22.6562C67.7734 23.25 66.7865 23.5469 65.5 23.5469H62.8203ZM62.8203 22.3203H65.5156C66.3177 22.3203 66.9323 22.1328 67.3594 21.7578C67.7865 21.3776 68 20.8307 68 20.1172C68 19.4401 67.7865 18.8984 67.3594 18.4922C66.9323 18.0859 66.3464 17.875 65.6016 17.8594H62.8203V22.3203ZM70.6953 23.6953C70.6953 22.8672 70.8568 22.1224 71.1797 21.4609C71.5078 20.7995 71.9609 20.2891 72.5391 19.9297C73.1224 19.5703 73.7865 19.3906 74.5312 19.3906C75.6823 19.3906 76.612 19.7891 77.3203 20.5859C78.0339 21.3828 78.3906 22.4427 78.3906 23.7656V23.8672C78.3906 24.6901 78.2318 25.4297 77.9141 26.0859C77.6016 26.737 77.151 27.2448 76.5625 27.6094C75.9792 27.974 75.3073 28.1562 74.5469 28.1562C73.401 28.1562 72.4714 27.7578 71.7578 26.9609C71.0495 26.1641 70.6953 25.1094 70.6953 23.7969V23.6953ZM72.1484 23.8672C72.1484 24.8047 72.3646 25.5573 72.7969 26.125C73.2344 26.6927 73.8177 26.9766 74.5469 26.9766C75.2812 26.9766 75.8646 26.6901 76.2969 26.1172C76.7292 25.5391 76.9453 24.7318 76.9453 23.6953C76.9453 22.7682 76.724 22.0182 76.2812 21.4453C75.8438 20.8672 75.2604 20.5781 74.5312 20.5781C73.8177 20.5781 73.2422 20.862 72.8047 21.4297C72.3672 21.9974 72.1484 22.8099 72.1484 23.8672ZM81.7734 28H80.3281V19.5469H81.7734V28ZM80.2109 17.3047C80.2109 17.0703 80.2812 16.8724 80.4219 16.7109C80.5677 16.5495 80.7812 16.4688 81.0625 16.4688C81.3438 16.4688 81.5573 16.5495 81.7031 16.7109C81.849 16.8724 81.9219 17.0703 81.9219 17.3047C81.9219 17.5391 81.849 17.7344 81.7031 17.8906C81.5573 18.0469 81.3438 18.125 81.0625 18.125C80.7812 18.125 80.5677 18.0469 80.4219 17.8906C80.2812 17.7344 80.2109 17.5391 80.2109 17.3047ZM85.4609 19.5469L85.5078 20.6094C86.1536 19.7969 86.9974 19.3906 88.0391 19.3906C89.8255 19.3906 90.7266 20.3984 90.7422 22.4141V28H89.2969V22.4062C89.2917 21.7969 89.151 21.3464 88.875 21.0547C88.6042 20.763 88.1797 20.6172 87.6016 20.6172C87.1328 20.6172 86.7214 20.7422 86.3672 20.9922C86.013 21.2422 85.737 21.5703 85.5391 21.9766V28H84.0938V19.5469H85.4609ZM94.8828 17.5V19.5469H96.4609V20.6641H94.8828V25.9062C94.8828 26.2448 94.9531 26.5 95.0938 26.6719C95.2344 26.8385 95.474 26.9219 95.8125 26.9219C95.9792 26.9219 96.2083 26.8906 96.5 26.8281V28C96.1198 28.1042 95.75 28.1562 95.3906 28.1562C94.7448 28.1562 94.2578 27.9609 93.9297 27.5703C93.6016 27.1797 93.4375 26.625 93.4375 25.9062V20.6641H91.8984V19.5469H93.4375V17.5H94.8828ZM101.82 24.9453C101.82 24.3984 101.971 23.8958 102.273 23.4375C102.581 22.9792 103.164 22.4453 104.023 21.8359C103.518 21.2214 103.18 20.7266 103.008 20.3516C102.836 19.9766 102.75 19.6042 102.75 19.2344C102.75 18.3698 103.005 17.6927 103.516 17.2031C104.026 16.7135 104.719 16.4688 105.594 16.4688C106.375 16.4688 107.021 16.6979 107.531 17.1562C108.042 17.6094 108.297 18.1823 108.297 18.875C108.297 19.3333 108.18 19.7578 107.945 20.1484C107.716 20.5339 107.312 20.9401 106.734 21.3672L105.898 21.9844L108.43 25.0078C108.784 24.3307 108.961 23.5781 108.961 22.75H110.266C110.266 24.0781 109.945 25.1797 109.305 26.0547L110.93 28H109.195L108.438 27.1016C108.052 27.4453 107.599 27.7083 107.078 27.8906C106.562 28.0677 106.036 28.1562 105.5 28.1562C104.391 28.1562 103.5 27.862 102.828 27.2734C102.156 26.6849 101.82 25.9089 101.82 24.9453ZM105.5 26.9766C106.266 26.9766 106.966 26.6849 107.602 26.1016L104.828 22.7812L104.57 22.9688C103.701 23.6094 103.266 24.2682 103.266 24.9453C103.266 25.5599 103.464 26.0521 103.859 26.4219C104.26 26.7917 104.807 26.9766 105.5 26.9766ZM104.195 19.1875C104.195 19.6875 104.503 20.3125 105.117 21.0625L106.039 20.4141C106.393 20.1641 106.635 19.9271 106.766 19.7031C106.896 19.474 106.961 19.1979 106.961 18.875C106.961 18.526 106.831 18.237 106.57 18.0078C106.31 17.7734 105.982 17.6562 105.586 17.6562C105.159 17.6562 104.82 17.8021 104.57 18.0938C104.32 18.3802 104.195 18.7448 104.195 19.1875ZM122.547 22.9766H117.773V28H116.273V16.625H123.32V17.8594H117.773V21.75H122.547V22.9766ZM126.461 28H125.016V19.5469H126.461V28ZM124.898 17.3047C124.898 17.0703 124.969 16.8724 125.109 16.7109C125.255 16.5495 125.469 16.4688 125.75 16.4688C126.031 16.4688 126.245 16.5495 126.391 16.7109C126.536 16.8724 126.609 17.0703 126.609 17.3047C126.609 17.5391 126.536 17.7344 126.391 17.8906C126.245 18.0469 126.031 18.125 125.75 18.125C125.469 18.125 125.255 18.0469 125.109 17.8906C124.969 17.7344 124.898 17.5391 124.898 17.3047ZM128.438 23.7031C128.438 22.3854 128.742 21.3385 129.352 20.5625C129.961 19.7812 130.768 19.3906 131.773 19.3906C132.805 19.3906 133.609 19.7552 134.188 20.4844L134.258 19.5469H135.578V27.7969C135.578 28.8906 135.253 29.7526 134.602 30.3828C133.956 31.013 133.086 31.3281 131.992 31.3281C131.383 31.3281 130.786 31.1979 130.203 30.9375C129.62 30.6771 129.174 30.3203 128.867 29.8672L129.617 29C130.237 29.7656 130.995 30.1484 131.891 30.1484C132.594 30.1484 133.141 29.9505 133.531 29.5547C133.927 29.1589 134.125 28.6016 134.125 27.8828V27.1562C133.547 27.8229 132.758 28.1562 131.758 28.1562C130.768 28.1562 129.966 27.7578 129.352 26.9609C128.742 26.1641 128.438 25.0781 128.438 23.7031ZM129.891 23.8672C129.891 24.8203 130.086 25.5703 130.477 26.1172C130.867 26.6589 131.414 26.9297 132.117 26.9297C133.029 26.9297 133.698 26.5156 134.125 25.6875V21.8281C133.682 21.0208 133.018 20.6172 132.133 20.6172C131.43 20.6172 130.88 20.8906 130.484 21.4375C130.089 21.9844 129.891 22.7943 129.891 23.8672ZM142.984 27.1641C142.422 27.8255 141.596 28.1562 140.508 28.1562C139.607 28.1562 138.919 27.8958 138.445 27.375C137.977 26.849 137.74 26.0729 137.734 25.0469V19.5469H139.18V25.0078C139.18 26.2891 139.701 26.9297 140.742 26.9297C141.846 26.9297 142.581 26.5182 142.945 25.6953V19.5469H144.391V28H143.016L142.984 27.1641ZM150.68 20.8438C150.461 20.8073 150.224 20.7891 149.969 20.7891C149.021 20.7891 148.378 21.1927 148.039 22V28H146.594V19.5469H148L148.023 20.5234C148.497 19.7682 149.169 19.3906 150.039 19.3906C150.32 19.3906 150.534 19.4271 150.68 19.5V20.8438ZM155.367 28.1562C154.221 28.1562 153.289 27.7812 152.57 27.0312C151.852 26.276 151.492 25.2682 151.492 24.0078V23.7422C151.492 22.9036 151.651 22.1562 151.969 21.5C152.292 20.8385 152.74 20.3229 153.312 19.9531C153.891 19.5781 154.516 19.3906 155.188 19.3906C156.286 19.3906 157.141 19.7526 157.75 20.4766C158.359 21.2005 158.664 22.237 158.664 23.5859V24.1875H152.938C152.958 25.0208 153.201 25.6953 153.664 26.2109C154.133 26.7214 154.727 26.9766 155.445 26.9766C155.956 26.9766 156.388 26.8724 156.742 26.6641C157.096 26.4557 157.406 26.1797 157.672 25.8359L158.555 26.5234C157.846 27.612 156.784 28.1562 155.367 28.1562ZM155.188 20.5781C154.604 20.5781 154.115 20.7917 153.719 21.2188C153.323 21.6406 153.078 22.2344 152.984 23H157.219V22.8906C157.177 22.1562 156.979 21.5885 156.625 21.1875C156.271 20.7812 155.792 20.5781 155.188 20.5781Z" fill="black"/>
</g>
<defs>
<filter id="filter0_d" x="0" y="0" width="206" height="58" filterUnits="userSpaceOnUse" color-interpolation-filters="sRGB">
<feFlood flood-opacity="0" result="BackgroundImageFix"/>
<feColorMatrix in="SourceAlpha" type="matrix" values="0 0 0 0 0 0 0 0 0 0 0 0 0 0 0 0 0 0 127 0"/>
<feOffset dy="4"/>
<feGaussianBlur stdDeviation="2"/>
<feColorMatrix type="matrix" values="0 0 0 0 0 0 0 0 0 0 0 0 0 0 0 0 0 0 0.25 0"/>
<feBlend mode="normal" in2="BackgroundImageFix" result="effect1_dropShadow"/>
<feBlend mode="normal" in="SourceGraphic" in2="effect1_dropShadow" result="shape"/>
</filter>
</defs>
</svg>
