<svg width="206" height="58" viewBox="0 0 206 58" fill="none" xmlns="http://www.w3.org/2000/svg">
<g filter="url(#filter0_d)">
<rect x="4" width="198" height="50" fill="white"/>
<path d="M31.4615 11.1539V20.3846H36.0769V11.1539H31.4615ZM36.0769 20.3846V29.6154H40.6923V20.3846H36.0769ZM40.6923 29.6154V38.8462H45.3076V29.6154H40.6923ZM31.4615 20.3846H26.8461V29.6154H31.4615V20.3846ZM26.8461 29.6154H22.2307V38.8462H26.8461V29.6154ZM32.9999 12.6923H34.5384V18.8462H32.9999V12.6923ZM28.3846 21.9231H29.923V28.0769H28.3846V21.9231ZM23.7692 31.1539H25.3076V37.3077H23.7692V31.1539Z" fill="black"/>
<path d="M65.4922 23.3984H62.8203V28H61.3125V16.625H65.0781C66.3594 16.625 67.3438 16.9167 68.0312 17.5C68.724 18.0833 69.0703 18.9323 69.0703 20.0469C69.0703 20.7552 68.8776 21.3724 68.4922 21.8984C68.112 22.4245 67.5807 22.8177 66.8984 23.0781L69.5703 27.9062V28H67.9609L65.4922 23.3984ZM62.8203 22.1719H65.125C65.8698 22.1719 66.4609 21.9792 66.8984 21.5938C67.3411 21.2083 67.5625 20.6927 67.5625 20.0469C67.5625 19.3438 67.3516 18.8047 66.9297 18.4297C66.513 18.0547 65.9089 17.8646 65.1172 17.8594H62.8203V22.1719ZM74.4609 28.1562C73.3151 28.1562 72.3828 27.7812 71.6641 27.0312C70.9453 26.276 70.5859 25.2682 70.5859 24.0078V23.7422C70.5859 22.9036 70.7448 22.1562 71.0625 21.5C71.3854 20.8385 71.8333 20.3229 72.4062 19.9531C72.9844 19.5781 73.6094 19.3906 74.2812 19.3906C75.3802 19.3906 76.2344 19.7526 76.8438 20.4766C77.4531 21.2005 77.7578 22.237 77.7578 23.5859V24.1875H72.0312C72.0521 25.0208 72.2943 25.6953 72.7578 26.2109C73.2266 26.7214 73.8203 26.9766 74.5391 26.9766C75.0495 26.9766 75.4818 26.8724 75.8359 26.6641C76.1901 26.4557 76.5 26.1797 76.7656 25.8359L77.6484 26.5234C76.9401 27.612 75.8776 28.1562 74.4609 28.1562ZM74.2812 20.5781C73.6979 20.5781 73.2083 20.7917 72.8125 21.2188C72.4167 21.6406 72.1719 22.2344 72.0781 23H76.3125V22.8906C76.2708 22.1562 76.0729 21.5885 75.7188 21.1875C75.3646 20.7812 74.8854 20.5781 74.2812 20.5781ZM80.8047 19.5469L80.8516 20.6094C81.4974 19.7969 82.3411 19.3906 83.3828 19.3906C85.1693 19.3906 86.0703 20.3984 86.0859 22.4141V28H84.6406V22.4062C84.6354 21.7969 84.4948 21.3464 84.2188 21.0547C83.9479 20.763 83.5234 20.6172 82.9453 20.6172C82.4766 20.6172 82.0651 20.7422 81.7109 20.9922C81.3568 21.2422 81.0807 21.5703 80.8828 21.9766V28H79.4375V19.5469H80.8047ZM90.625 24.0859L89.7188 25.0312V28H88.2734V16H89.7188V23.2578L90.4922 22.3281L93.125 19.5469H94.8828L91.5938 23.0781L95.2656 28H93.5703L90.625 24.0859ZM95.9922 23.6953C95.9922 22.8672 96.1536 22.1224 96.4766 21.4609C96.8047 20.7995 97.2578 20.2891 97.8359 19.9297C98.4193 19.5703 99.0833 19.3906 99.8281 19.3906C100.979 19.3906 101.909 19.7891 102.617 20.5859C103.331 21.3828 103.688 22.4427 103.688 23.7656V23.8672C103.688 24.6901 103.529 25.4297 103.211 26.0859C102.898 26.737 102.448 27.2448 101.859 27.6094C101.276 27.974 100.604 28.1562 99.8438 28.1562C98.6979 28.1562 97.7682 27.7578 97.0547 26.9609C96.3464 26.1641 95.9922 25.1094 95.9922 23.7969V23.6953ZM97.4453 23.8672C97.4453 24.8047 97.6615 25.5573 98.0938 26.125C98.5312 26.6927 99.1146 26.9766 99.8438 26.9766C100.578 26.9766 101.161 26.6901 101.594 26.1172C102.026 25.5391 102.242 24.7318 102.242 23.6953C102.242 22.7682 102.021 22.0182 101.578 21.4453C101.141 20.8672 100.557 20.5781 99.8281 20.5781C99.1146 20.5781 98.5391 20.862 98.1016 21.4297C97.6641 21.9974 97.4453 22.8099 97.4453 23.8672Z" fill="black"/>
</g>
<defs>
<filter id="filter0_d" x="0" y="0" width="206" height="58" filterUnits="userSpaceOnUse" color-interpolation-filters="sRGB">
<feFlood flood-opacity="0" result="BackgroundImageFix"/>
<feColorMatrix in="SourceAlpha" type="matrix" values="0 0 0 0 0 0 0 0 0 0 0 0 0 0 0 0 0 0 127 0"/>
<feOffset dy="4"/>
<feGaussianBlur stdDeviation="2"/>
<feColorMatrix type="matrix" values="0 0 0 0 0 0 0 0 0 0 0 0 0 0 0 0 0 0 0.25 0"/>
<feBlend mode="normal" in2="BackgroundImageFix" result="effect1_dropShadow"/>
<feBlend mode="normal" in="SourceGraphic" in2="effect1_dropShadow" result="shape"/>
</filter>
</defs>
</svg>
