<svg width="58" height="58" viewBox="0 0 58 58" fill="none" xmlns="http://www.w3.org/2000/svg">
<g filter="url(#filter0_d)">
<rect x="4" width="50" height="50" fill="white"/>
<path d="M29.0154 12.8125C29.9329 12.8231 30.8468 12.9291 31.7423 13.1288C32.1333 13.216 32.4257 13.5419 32.4701 13.9399L32.6828 15.8485C32.7791 16.7248 33.5189 17.3886 34.4011 17.3895C34.6381 17.3899 34.8727 17.3405 35.0917 17.2435L36.8426 16.4745C37.2067 16.3145 37.6321 16.4017 37.9039 16.692C39.1692 18.0433 40.1114 19.6639 40.6598 21.432C40.7781 21.8132 40.6421 22.2275 40.3207 22.4644L38.7688 23.6082C38.3262 23.9335 38.0647 24.45 38.0647 24.9994C38.0647 25.5486 38.3262 26.0651 38.7698 26.3911L40.3231 27.5354C40.6444 27.7721 40.7807 28.1865 40.6623 28.5679C40.1142 30.3356 39.1724 31.9561 37.9079 33.3076C37.6363 33.5979 37.2112 33.6854 36.8471 33.5258L35.0892 32.7556C34.5863 32.5355 34.0087 32.5678 33.5334 32.8425C33.0582 33.1171 32.7418 33.6015 32.6814 34.1471L32.4701 36.0555C32.4266 36.449 32.1404 36.7728 31.7553 36.8644C29.9447 37.2951 28.0583 37.2951 26.2478 36.8644C25.8626 36.7728 25.5766 36.449 25.533 36.0555L25.3219 34.15C25.26 33.6054 24.9432 33.1225 24.4683 32.8487C23.9934 32.575 23.4168 32.5429 22.9155 32.7617L21.1572 33.532C20.793 33.6916 20.3678 33.6041 20.0962 33.3136C18.831 31.9606 17.8892 30.3381 17.3417 28.5685C17.2238 28.1874 17.3601 27.7732 17.6813 27.5366L19.2355 26.3916C19.6781 26.0664 19.9396 25.5499 19.9396 25.0006C19.9396 24.4513 19.6781 23.9347 19.2349 23.6091L17.6817 22.4661C17.36 22.2293 17.2236 21.8147 17.342 21.4332C17.8904 19.6652 18.8327 18.0446 20.0979 16.6933C20.3697 16.403 20.7952 16.3157 21.1593 16.4757L22.9098 17.2446C23.4135 17.4657 23.9925 17.4323 24.47 17.1534C24.9454 16.8776 25.2619 16.3928 25.323 15.8471L25.5356 13.9399C25.58 13.5417 25.8726 13.2157 26.2638 13.1287C27.1603 12.9293 28.0752 12.8233 29.0154 12.8125ZM29.0157 14.6874C28.4482 14.694 27.8822 14.743 27.3226 14.8338L27.1863 16.0552C27.0591 17.1921 26.4003 18.2013 25.4133 18.7738C24.4202 19.354 23.2095 19.4238 22.156 18.9615L21.0331 18.4682C20.3182 19.3359 19.7492 20.3142 19.3484 21.3646L20.3456 22.0985C21.2692 22.777 21.8146 23.8546 21.8146 25.0006C21.8146 26.1465 21.2692 27.2241 20.3466 27.9019L19.3478 28.6378C19.7482 29.69 20.3173 30.6701 21.0328 31.5395L22.1642 31.0439C23.2118 30.5865 24.4143 30.6534 25.4047 31.2243C26.395 31.7951 27.0557 32.8021 27.1852 33.9408L27.3214 35.1706C28.4334 35.3597 29.5696 35.3597 30.6816 35.1706L30.8178 33.9409C30.9438 32.8026 31.6037 31.7921 32.5952 31.2191C33.5868 30.646 34.7917 30.5787 35.8412 31.0381L36.9718 31.5334C37.6866 30.6654 38.2554 29.6869 38.6561 28.6363L37.6587 27.9014C36.7352 27.2229 36.1897 26.1453 36.1897 24.9994C36.1897 23.8534 36.7352 22.7757 37.6576 22.0981L38.6536 21.3639C38.2528 20.3133 37.6837 19.3348 36.9687 18.467L35.8481 18.9592C35.3914 19.1613 34.8974 19.2653 34.3986 19.2645C32.5614 19.2626 31.0197 17.8794 30.8192 16.0548L30.6829 14.8334C30.1261 14.7428 29.5661 14.6939 29.0157 14.6874ZM28.9998 20.3124C31.5887 20.3124 33.6873 22.4111 33.6873 25C33.6873 27.5887 31.5887 29.6875 28.9998 29.6875C26.411 29.6875 24.3124 27.5887 24.3124 25C24.3124 22.4111 26.411 20.3124 28.9998 20.3124ZM28.9998 22.1874C27.4466 22.1874 26.1874 23.4466 26.1874 25C26.1874 26.5533 27.4466 27.8125 28.9998 27.8125C30.5532 27.8125 31.8123 26.5533 31.8123 25C31.8123 23.4466 30.5532 22.1874 28.9998 22.1874Z" fill="black"/>
</g>
<defs>
<filter id="filter0_d" x="0" y="0" width="58" height="58" filterUnits="userSpaceOnUse" color-interpolation-filters="sRGB">
<feFlood flood-opacity="0" result="BackgroundImageFix"/>
<feColorMatrix in="SourceAlpha" type="matrix" values="0 0 0 0 0 0 0 0 0 0 0 0 0 0 0 0 0 0 127 0"/>
<feOffset dy="4"/>
<feGaussianBlur stdDeviation="2"/>
<feColorMatrix type="matrix" values="0 0 0 0 0 0 0 0 0 0 0 0 0 0 0 0 0 0 0.25 0"/>
<feBlend mode="normal" in2="BackgroundImageFix" result="effect1_dropShadow"/>
<feBlend mode="normal" in="SourceGraphic" in2="effect1_dropShadow" result="shape"/>
</filter>
</defs>
</svg>
