<svg width="58" height="58" viewBox="0 0 58 58" fill="none" xmlns="http://www.w3.org/2000/svg">
<g filter="url(#filter0_d)">
<rect x="4" width="50" height="50" fill="white"/>
<path d="M30.5113 13.8783C29.8923 12.6241 28.1038 12.6241 27.4848 13.8783L24.5374 19.8504L17.9467 20.8081C16.5626 21.0092 16.0099 22.7102 17.0115 23.6865L21.7805 28.3351L20.6547 34.8991C20.4182 36.2777 21.8652 37.329 23.1032 36.6781L28.998 33.579L34.8929 36.6781C36.1309 37.329 37.5778 36.2777 37.3414 34.8991L36.2155 28.3351L40.9846 23.6865C41.9861 22.7102 41.4335 21.0092 40.0494 20.8081L33.4588 19.8504L30.5113 13.8783ZM26.1751 20.7686L28.998 15.0488L31.821 20.7686C32.0668 21.2667 32.5419 21.6119 33.0915 21.6918L39.4038 22.609L34.8361 27.0612C34.4385 27.449 34.257 28.0075 34.3509 28.555L35.4291 34.8417L29.7833 31.8735C29.2916 31.615 28.7044 31.615 28.2128 31.8735L22.5669 34.8417L23.6452 28.555C23.7391 28.0075 23.5576 27.449 23.1599 27.0612L18.5923 22.609L24.9045 21.6918C25.4542 21.6119 25.9293 21.2667 26.1751 20.7686Z" fill="#212121"/>
<path d="M15.4555 14.7269C15.132 15.1312 15.1976 15.7211 15.6019 16.0446L18.7269 18.5446C19.1312 18.868 19.7211 18.8025 20.0446 18.3982C20.368 17.9939 20.3025 17.4039 19.8982 17.0805L16.7732 14.5805C16.3689 14.257 15.7789 14.3226 15.4555 14.7269Z" fill="#212121"/>
<path d="M42.5446 32.7731C42.8681 32.3689 42.8025 31.7789 42.3982 31.4555L39.2732 28.9555C38.8689 28.632 38.279 28.6976 37.9555 29.1019C37.632 29.5062 37.6976 30.0961 38.1019 30.4196L41.2269 32.9196C41.6312 33.243 42.2211 33.1775 42.5446 32.7731Z" fill="#212121"/>
<path d="M15.6019 31.4555C15.1976 31.7789 15.132 32.3689 15.4555 32.7732C15.7789 33.1775 16.3689 33.243 16.7732 32.9196L19.8982 30.4196C20.3025 30.0961 20.368 29.5062 20.0446 29.1019C19.7211 28.6976 19.1312 28.632 18.7269 28.9555L15.6019 31.4555Z" fill="#212121"/>
<path d="M42.5446 14.7269C42.8681 15.1312 42.8025 15.7211 42.3982 16.0446L39.2732 18.5446C38.8689 18.868 38.279 18.8025 37.9555 18.3982C37.632 17.9939 37.6976 17.4039 38.1019 17.0805L41.2269 14.5805C41.6312 14.257 42.2211 14.3226 42.5446 14.7269Z" fill="#212121"/>
</g>
<defs>
<filter id="filter0_d" x="0" y="0" width="58" height="58" filterUnits="userSpaceOnUse" color-interpolation-filters="sRGB">
<feFlood flood-opacity="0" result="BackgroundImageFix"/>
<feColorMatrix in="SourceAlpha" type="matrix" values="0 0 0 0 0 0 0 0 0 0 0 0 0 0 0 0 0 0 127 0"/>
<feOffset dy="4"/>
<feGaussianBlur stdDeviation="2"/>
<feColorMatrix type="matrix" values="0 0 0 0 0 0 0 0 0 0 0 0 0 0 0 0 0 0 0.25 0"/>
<feBlend mode="normal" in2="BackgroundImageFix" result="effect1_dropShadow"/>
<feBlend mode="normal" in="SourceGraphic" in2="effect1_dropShadow" result="shape"/>
</filter>
</defs>
</svg>
